<?xml version="1.0" encoding="utf-8"?>
<!-- Generator: Adobe Illustrator 19.0.0, SVG Export Plug-In . SVG Version: 6.00 Build 0)  -->
<svg version="1.1" id="Layer_1" xmlns="http://www.w3.org/2000/svg" xmlns:xlink="http://www.w3.org/1999/xlink" x="0px" y="0px"
	 viewBox="0 0 42 42" style="enable-background:new 0 0 42 42;" xml:space="preserve">
<style type="text/css">
	.st0{fill:#FFFFFF;}
</style>
<g id="XMLID_602_">
	<path id="XMLID_762_" class="st0" d="M41.9,18.5c0-1.8-0.8-3.2-2.4-4.2c-0.3-0.2-0.5-0.4-0.6-0.7c-1.8-3.9-4.9-7.2-8.7-9.3
		c-3.8-2-8.3-2.7-12.5-2C11,3.6,6.1,7.4,3.1,13.7c-0.1,0.2-0.3,0.4-0.5,0.6c-1.6,1-2.4,2.4-2.4,4.3c0,2.2,0,4.2,0,6
		c0,0.5,0.1,1,0.2,1.5C1.3,28.8,3.7,30,7,29.5l0.1,0V19.2H5.7v9c-1.1,0.1-2.2-0.1-3-0.8c-0.8-0.6-1.2-1.6-1.2-2.6
		c-0.1-2-0.1-4.1,0-6.2c0-1.1,0.5-2.1,1.4-2.8c0.8-0.6,1.9-0.9,2.9-0.7v3h1.3v-0.1c0-0.3,0-0.6,0-0.9c0-0.7,0-1.4,0-2
		c0-0.6,0.2-1.1,0.4-1.5C11.2,7.8,16.4,5.3,23,6c5,0.5,9,3.1,11.7,7.7c0.2,0.3,0.3,0.6,0.3,0.9c0,4,0,8.3,0,13.9
		c0,0.3-0.1,0.5-0.2,0.7c-2.3,4-5.8,6.7-10.4,7.7c-0.2,0-0.5,0-0.6-0.1c-0.5-0.5-1.1-0.8-1.9-0.7c-0.4,0-0.7,0-1.1,0
		c-0.3,0-0.6,0-1,0C18.8,36.2,18,37,18,38c0,1.1,0.7,1.9,1.8,1.9c0.4,0,0.7,0,1.2,0c0.4,0,0.9,0,1.4,0c0.7,0,1.3-0.4,1.6-1.1
		c0.2-0.4,0.4-0.5,0.7-0.5c4.8-1.1,8.6-3.8,11.1-8.1c0.3-0.5,0.6-0.7,1.1-0.7c2.8,0,5-2.1,5-5C41.9,22.8,41.9,20.7,41.9,18.5z
		 M40.6,24.7c0,1.1-0.5,2.1-1.3,2.8c-0.8,0.6-1.8,0.9-2.9,0.7V15c1-0.2,2.1,0.1,2.9,0.8c0.8,0.7,1.3,1.6,1.3,2.7
		C40.6,20.4,40.6,22.5,40.6,24.7z M6.4,12.8c-0.5,0.9-0.6,0.9-1.6,0.8c2-4.9,8.1-10,15.7-10.2c8.2-0.2,14.7,4.9,16.9,10.2
		c-0.7,0.1-1.2-0.1-1.6-0.8C32.1,7,26.8,4.2,20.1,4.6C14.3,4.8,9.7,7.6,6.4,12.8L6.4,12.8z M22.8,38.1c-0.1,0.1-0.1,0.1-0.2,0.2
		c-0.1,0.2-0.3,0.3-0.4,0.3h0c-0.2,0.1-0.5,0.1-0.8,0c-0.1,0-0.2,0-0.4,0c0,0,0,0,0,0c-0.1,0-0.2,0-0.4,0c-0.3,0-0.5,0-0.8,0
		c-0.2,0-0.3-0.2-0.4-0.3c0-0.1-0.1-0.1-0.2-0.2c0.1-0.1,0.1-0.1,0.2-0.2c0.1-0.2,0.3-0.3,0.4-0.3c0.8-0.1,1.6-0.1,2.4,0
		c0.1,0,0.3,0.2,0.4,0.3C22.7,38,22.7,38,22.8,38.1z"/>
	<path id="XMLID_798_" class="st0" d="M21.1,33.9c3.4,0,6.6-1.3,9.1-3.8c2.4-2.4,3.8-5.7,3.8-9.1c0-3.4-1.3-6.7-3.8-9.1
		c-2.4-2.4-5.6-3.7-9.1-3.7c0,0,0,0,0,0c-3.4,0-6.7,1.3-9.1,3.8c-2.4,2.4-3.8,5.6-3.8,9.1c0,3.4,1.3,6.7,3.7,9.1
		C14.4,32.5,17.6,33.8,21.1,33.9C21.1,33.9,21.1,33.9,21.1,33.9z M12.9,29.1c-2.2-2.2-3.4-5.1-3.3-8.2c0-6.3,5.2-11.4,11.6-11.4
		c0,0,0,0,0,0c3.1,0,5.9,1.2,8.1,3.4c2.2,2.2,3.4,5.1,3.3,8.2c0,6.3-5.2,11.5-11.5,11.5c0,0,0,0,0,0C17.9,32.5,15.1,31.3,12.9,29.1z
		"/>
	<path id="XMLID_799_" class="st0" d="M15.2,21.1c0.6-0.6,0.7-1.6,0.1-2.4c-0.5-0.7-1.5-1-2.3-0.6c-0.8,0.4-1.2,1.2-1,2l0,0h1.1
		l0.1-0.1c0,0,0,0,0-0.1c0.1-0.1,0.1-0.1,0.2-0.2c0.1-0.2,0.3-0.4,0.4-0.5c0.1,0,0.4,0.2,0.5,0.3c0,0.3-0.1,0.6-0.3,0.8
		c-0.5,0.5-0.8,0.9-1.2,1.1c-0.9,0.6-0.8,1.4-0.8,2.1c0,0.1,0,0.2,0,0.4l0,0.1h3.7v-1.3h-2.3c0.2-0.2,0.4-0.3,0.5-0.5
		C14.3,21.9,14.8,21.5,15.2,21.1z"/>
	<polygon id="XMLID_800_" class="st0" points="19.2,20.3 18.1,20.3 18.1,17.9 16.8,17.9 16.8,21.7 19.2,21.7 19.2,24.1 20.5,24.1 
		20.5,17.9 19.2,17.9 	"/>
	<path id="XMLID_801_" class="st0" d="M27.2,23.7l1.3,0.4l0-0.1c0.2-0.4,0.3-0.9,0.5-1.3c0.4-1.1,0.8-2.2,1.2-3.3
		c0.1-0.3,0.1-0.6,0.1-1c0-0.2,0-0.3,0-0.5l0-0.1h-3.8v1.3h2.3L27.2,23.7z"/>
	<polygon id="XMLID_802_" class="st0" points="25.4,17.5 24.1,17.1 21.6,24.4 22.9,24.9 	"/>
	<polygon id="XMLID_803_" class="st0" points="14.4,15.4 13.6,14.3 12.6,15.5 13.7,16.3 	"/>
	<polygon id="XMLID_804_" class="st0" points="14.4,13.6 15.2,14.6 16.3,13.9 15.5,12.8 	"/>
</g>
</svg>
