<?xml version="1.0" encoding="utf-8"?>
<!-- Generator: Adobe Illustrator 19.0.0, SVG Export Plug-In . SVG Version: 6.00 Build 0)  -->
<svg version="1.1" id="Layer_1" xmlns="http://www.w3.org/2000/svg" xmlns:xlink="http://www.w3.org/1999/xlink" x="0px" y="0px"
	 viewBox="0 0 42 42" style="enable-background:new 0 0 42 42;" xml:space="preserve">
<style type="text/css">
	.st0{fill:#FFFFFF;}
</style>
<g id="XMLID_8_">
	<path id="XMLID_80_" class="st0" d="M38,34.2c1.3-2.6,2.1-5.2,2.2-8.2c-0.9,0-1.9,0-2.8,0c0-0.6,0-1.1,0-1.7c0.9,0,1.8,0,2.8,0
		c-0.1-0.7-0.1-1.4-0.2-2C38.9,13.7,31.4,6.7,22.7,6C22,6,21.8,6.2,21.8,6.8c0,0.3,0,0.5,0,0.8c0,1.4,0,1.5-1.6,1.2
		c0-0.9,0-1.8,0-2.8c-4.1,0.2-7.7,1.5-10.9,4c-4.6,3.6-7.1,8.4-7.5,14.3c1,0,1.9,0,2.8,0c0,0.6,0,1.1,0,1.7c-0.9,0-1.8,0-2.8,0
		C2,29,2.7,31.6,4,34.1c-1.1,0.3-1.2,0.3-1.6-0.7c-3.2-7.9-2.2-15.3,3.4-21.7c5.5-6.2,12.6-8.3,20.7-6.1c12,3.2,18.2,16.7,13,28
		C39.2,34.4,38.7,34.3,38,34.2z"/>
	<path id="XMLID_79_" class="st0" d="M10.8,15.5c0.3-0.7,0.6-0.5,0.9-0.2c2.3,2.3,4.5,4.5,6.8,6.8c0.4,0.4,0.8,0.7,1.1,1.1
		c0.5,0.8,1.2,0.8,2,0.7c0.2,0,0.4-0.3,0.6-0.4c2.9-2.9,5.8-5.8,8.7-8.7c0.1-0.1,0.2-0.2,0.4-0.4c0.2,0.3,0.3,0.6,0.5,0.9
		c0,0-0.2,0.2-0.3,0.4c-2.9,2.9-5.7,5.7-8.6,8.6c-0.3,0.3-0.4,0.7-0.5,1.1c-0.2,0.7-0.7,1.2-1.4,1.2c-0.7-0.1-1.3-0.7-1.2-1.4
		c0.1-0.6-0.1-0.8-0.4-1.2c-2.6-2.6-5.2-5.2-7.8-7.8C11.2,15.9,11,15.7,10.8,15.5z"/>
	<path id="XMLID_78_" class="st0" d="M11.8,34.8c0.8,0,1.4,0,2,0c0.5,0,0.7,0.2,0.7,0.7c0,0.5-0.2,0.6-0.7,0.6c-1.3,0-2.6,0-3.9,0
		c-0.2-0.7-0.1-1.1,0.4-1.6c0.7-0.7,1.4-1.5,2.1-2.2c0.6-0.7,0.6-1.2,0.2-1.6c-0.4-0.4-0.9-0.2-1.5,0.4c-0.1,0.1-0.2,0.2-0.3,0.3
		c-0.3-0.2-0.5-0.3-0.8-0.4c-0.1-0.1-0.2-0.1-0.3-0.2c0.6-1.1,1.5-1.6,2.8-1.4c1.6,0.2,2.3,2,1.3,3.3C13.2,33.3,12.5,34,11.8,34.8z"
		/>
	<path id="XMLID_77_" class="st0" d="M19.4,29.6c-0.7,1.2-1.4,2.4-2.1,3.6c0.4,0,0.6,0,0.9,0c0-0.4,0.1-0.7,0.1-1.1
		c0.4,0,0.8,0,1.3,0c0,0.3,0.1,0.6,0.1,1c0.5,0.1,0.9,0.3,0.7,0.9c-0.1,0.3-0.3,0.5-0.6,0.6c-0.1,0.5-0.1,1-0.3,1.4
		c-0.1,0.2-0.7,0.1-1.1,0.1c0-0.2-0.1-0.2-0.1-0.3c-0.1-1.3-0.1-1.3-1.3-1.3c-0.1,0-0.3,0-0.4,0c-1,0-1.3-0.5-0.8-1.4
		c0.6-1.2,1.3-2.4,2.1-3.4c0.2-0.3,1-0.3,1.5-0.4C19.3,29.4,19.4,29.5,19.4,29.6z"/>
	<path id="XMLID_76_" class="st0" d="M28.2,36c0.8-1.7,1.6-3.5,2.5-5.3c-0.6,0-1.1,0-1.6,0c-0.1,0.2-0.1,0.5-0.2,0.7
		c-0.4,0-0.8,0-1.2,0c0-0.7,0-1.3,0-2c1.6,0,3.1,0,4.8,0c-0.1,0.6-0.1,1.1-0.3,1.6c-0.6,1.4-1.3,2.8-2,4.1
		C29.7,36.2,29.6,36.3,28.2,36z"/>
	<path id="XMLID_68_" class="st0" d="M26.6,28.5c-0.2,0.5-0.5,1.1-0.7,1.6c-1,2.1-1.9,4.2-2.9,6.3c-0.4,0.9-0.4,0.9-1.6,0.7
		c0.1-0.3,0.2-0.5,0.3-0.7c1.1-2.4,2.2-4.7,3.2-7.1C25.4,28.3,25.4,28.3,26.6,28.5z"/>
</g>
</svg>
