<svg width="42" height="42" viewBox="0 0 42 42" fill="none" xmlns="http://www.w3.org/2000/svg">
<g clip-path="url(#clip0_698_74)">
<g clip-path="url(#clip1_698_74)">
<path d="M32.2 7C33 7 33.8 7 34.7 7C35.2 7 35.3 6.8 35.3 6.3C35.3 5.6 35.3 4.9 35.3 4.2V3.4V2.7C35.3 2.1 35.3 1.6 35.3 1C35.3 0.7 35.1 0.5 34.8 0.5C34.5 0.5 34.3 0.7 34.3 1C34.3 1.1 34.3 1.2 34.3 1.3V1.5V3.4V4.1V5V5.2L34.1 5L33.6 4.7L33.4 4.6C33.3 4.5 33.2 4.5 33.2 4.5C29.3 1.5 25.1 0 20.7 0C18.5 0 16.2 0.4 13.8 1.2C5.7 3.8 0 11.7 0 20.4C0 26 2 30.9 5.8 34.9C6 35.1 6.2 35.2 6.4 35.2C6.5 35.2 6.6 35.2 6.7 35.1C6.8 35 6.9 34.9 6.9 34.8C6.9 34.6 6.8 34.4 6.6 34.2C3.5 31 1.6 27.1 1.1 22.6C0.2 14.8 4.2 7.2 11 3.5C14.1 1.8 17.3 1 20.5 1C24.1 1 27.7 2.1 31.3 4.3C31.6 4.5 31.8 4.7 32.1 4.8C32.2 4.9 32.4 5 32.6 5.1L32.8 5.2L33.5 6L33.7 6.2H33.4L30.5 6C30.2 6 29.8 6 29.5 6C29.2 6 29 6.1 28.9 6.2C28.8 6.3 28.8 6.4 28.8 6.5C28.8 6.8 29 7 29.5 7C30.4 7 31.3 7 32.2 7Z" fill="white"/>
<path d="M9.00002 20.9C8.70002 21.1 8.40002 21.4 8.10002 21.6C7.70002 21.9 7.20002 22.2 6.80002 22.6C6.10002 23.2 5.70002 23.8 5.60002 24.5C5.50002 24.9 5.60002 25.1 5.70002 25.3C5.80002 25.5 6.10002 25.6 6.50002 25.6H9.10002H11.2C11.7 25.6 12.3 25.5 12.3 24.9C12.3 24.7 12.3 24.6 12.1 24.5C11.9 24.3 11.6 24.2 11.2 24.2H7.80002H7.20002H6.90002L7.20002 24L8.20002 23.2C8.60002 23 8.90002 22.7 9.30002 22.4L9.80002 22C10.4 21.6 10.9 21.1 11.4 20.6C12 20 12.2 19.2 12.2 18.3C12.1 17.5 11.8 16.8 11.1 16.3C10.5 15.8 9.70001 15.6 8.90001 15.6C7.50001 15.6 6.20002 16.3 5.70002 17.5C5.50002 18 5.50002 18.4 5.90002 18.6C6.00002 18.7 6.10002 18.7 6.20002 18.7C6.50002 18.7 6.70002 18.5 6.90002 18.2C7.20002 17.7 7.70002 17.3 8.30002 17.1C8.50002 17 8.70001 17 8.90001 17C9.60001 17 10.3 17.3 10.6 17.8C11 18.5 10.9 19.3 10.2 20C9.80002 20.3 9.40002 20.6 9.00002 20.9Z" fill="white"/>
<path d="M21.2001 21.8C21.2001 21.5 21.3001 21.3 19.7001 21.1H19.5001H19.4001V21V15.9C19.4001 15.5 19.3001 15.3 18.9001 15.2C18.8001 15.2 18.7001 15.2 18.7001 15.2C18.5001 15.2 18.3001 15.3 18.1001 15.5L13.4001 21.4C13.2001 21.7 13.1001 21.9 13.3001 22.2C13.4001 22.5 13.7001 22.6 14.0001 22.6H17.9001H18.0001V22.7V24.3C18.0001 24.7 18.0001 25.1 18.0001 25.6C18.0001 26 18.3001 26.3 18.7001 26.3C19.1001 26.3 19.3001 26 19.4001 25.6C19.4001 25.5 19.4001 25.3 19.4001 25.2V22.7V22.6H19.5001H20.0001C20.8001 22.4 21.1001 22.4 21.2001 21.8ZM18.1001 18V21H18.0001H15.6001H15.4001L15.5001 20.8L17.9001 17.8L18.1001 17.6V18Z" fill="white"/>
<path d="M31.9 24.8L33.6 20.7C34.2 19.3 34.7 18 35.3 16.6C35.4 16.3 35.4 16 35.3 15.8C35.2 15.6 35 15.5 34.8 15.5C34.1 15.5 33.3 15.5 32.5 15.5C31.7 15.5 30.9 15.5 29.9 15.5C29.7 15.5 29.5 15.6 29.4 15.8C29.3 16 29.2 16.2 29.3 16.4C29.4 16.7 29.6 16.9 30.1 16.9H33.5H33.6V17L33.5 17.4C33.5 17.5 33.4 17.6 33.4 17.6L33.1 18.4C32.3 20.3 31.5 22.3 30.7 24.2C30.3 25.1 30.8 25.3 31 25.4C31.1 25.4 31.2 25.5 31.3 25.5C31.6 25.5 31.8 25.2 31.9 24.8Z" fill="white"/>
<path d="M26.5 14.6C26.4 14.5 26.2 14.5 26.1 14.5C26 14.5 25.9 14.5 25.8 14.6C25.6 14.8 25.5 15 25.5 15.3C25 17.9 24.4 20.5 23.9 23.1L23.6 24.7C23.5 25 23.4 25.8 23.4 26V26.1C23.4 26.2 23.5 26.3 23.5 26.3C23.8 26.5 24 26.6 24.2 26.6C24.3 26.6 24.6 26.6 24.7 26L25.8 20.6L26.8 15.4C26.9 15 26.8 14.8 26.5 14.6Z" fill="white"/>
<path d="M39.4 26C39.1 26 38.9 26.2 38.8 26.5C38.6 27.1 38.4 27.6 38.2 28.2C38.1 28.6 38.2 28.9 38.5 29.1C38.6 29.1 38.7 29.2 38.8 29.2C39.1 29.2 39.3 29.1 39.4 28.8C39.7 28.1 39.9 27.5 40.1 26.9C40.2 26.7 40.1 26.5 40 26.4C39.9 26.1 39.7 26 39.4 26Z" fill="white"/>
<path d="M37 31.1C36.8 31.1 36.7 31.2 36.5 31.3C36 31.9 35.6 32.4 35.3 33C35.2 33.1 35.2 33.5 35.3 33.6C35.4 33.7 35.5 33.8 35.7 33.9L35.8 34C35.9 34 35.9 34 36 33.9C36.2 33.8 36.3 33.8 36.3 33.7C36.8 33.1 37.2 32.6 37.6 32C37.8 31.7 37.7 31.4 37.4 31.1C37.3 31.2 37.2 31.1 37 31.1Z" fill="white"/>
<path d="M28.3999 38.3H28.2999C27.6999 38.5 26.9999 38.7 26.2999 39C25.9999 39.1 25.7999 39.5 25.9999 39.8C26.0999 40.1 26.2999 40.2 26.5999 40.2C26.6999 40.2 26.6999 40.2 26.7999 40.2C27.4999 40 28.0999 39.7 28.5999 39.5C28.9999 39.4 28.9999 39.1 28.9999 38.9C28.9999 38.6 28.6999 38.3 28.3999 38.3Z" fill="white"/>
<path d="M17.4 39.7C16.7 39.5 16 39.4 15.3 39.3H15.2C14.9 39.3 14.7 39.5 14.6 39.8C14.5 40.2 14.7 40.5 15 40.6C15.5 40.7 15.9 40.8 16.4 40.9H16.5L16.9 41C17.4 41 17.7 40.8 17.8 40.5C17.9 40.1 17.8 39.8 17.4 39.7Z" fill="white"/>
<path d="M40.2 17.9H40.3C40.8 17.8 40.9 17.4 40.9 17L40.8 16.6C40.7 16.2 40.6 15.6 40.4 15.1C40.3 14.8 40.1 14.7 39.8 14.7C39.7 14.7 39.7 14.7 39.6 14.7C39.3 14.8 39.1 15.1 39.1 15.4C39.2 16 39.3 16.7 39.5 17.4C39.6 17.7 39.9 17.9 40.2 17.9Z" fill="white"/>
<path d="M33.5 35.4C33.4 35.3 33.3 35.3 33.2 35.3C33.1 35.3 32.9 35.4 32.8 35.5C32.3 35.8 31.8 36.2 31.3 36.6C31 36.9 30.9 37.3 31.1 37.6C31.2 37.8 31.4 37.9 31.6 37.9C31.7 37.9 31.9 37.8 32 37.7C32.4 37.4 33 37 33.4 36.6C33.5 36.5 33.6 36.3 33.7 36.2C33.7 36.1 33.8 36.1 33.8 36L33.7 35.9C33.7 35.7 33.6 35.5 33.5 35.4Z" fill="white"/>
<path d="M41.1 21.1C41.1 20.7 40.8 20.4 40.4 20.4C40 20.4 39.8 20.7 39.7 21.1C39.6 21.8 39.6 22.4 39.6 23C39.6 23.4 39.8 23.7 40.2 23.7H40.3C40.7 23.7 40.9 23.5 40.9 23.1C40.9 22.8 41 22.5 41 22.2V22V21.9V21.6C41.1 21.3 41.2 21.2 41.1 21.1Z" fill="white"/>
<path d="M12.1 38C11.6 37.7 11 37.4 10.5 37.1C10.3 37 10.2 37 10.1 37C9.89999 37 9.69999 37.1 9.49999 37.3C9.29999 37.6 9.39999 38 9.69999 38.2C10.2 38.5 10.7 38.8 11.1 39H11.2L11.3 39.1C11.4 39.1 11.4 39.2 11.5 39.2H11.6C12 39.2 12.2 39.1 12.3 38.7C12.5 38.5 12.4 38.2 12.1 38Z" fill="white"/>
<path d="M22.9 39.8C22.3 39.8 21.6 39.9 20.9 39.9C20.5 39.9 20.3 40.2 20.3 40.6C20.3 41 20.6 41.2 21 41.3C21.1 41.3 21.2 41.3 21.3 41.3H21.6L22.1 41.2C22.4 41.2 22.7 41.1 23 41.1C23.4 41 23.6 40.8 23.6 40.4C23.5 40 23.2 39.8 22.9 39.8Z" fill="white"/>
<path d="M38.7 12.5C39 12.4 39.2 12.2 39.2 11.8C38.9 11.1 38.6 10.3 37.9 9.69998C37.8 9.59998 37.7 9.59998 37.6 9.59998C37.4 9.59998 37.3 9.69998 37.1 9.79998C36.8 9.99998 36.8 10.3 36.9 10.5C37.2 11.1 37.5 11.8 37.9 12.3C38 12.5 38.2 12.6 38.4 12.6C38.5 12.5 38.6 12.5 38.7 12.5Z" fill="white"/>
</g>
</g>
<defs>
<clipPath id="clip0_698_74">
<rect width="42" height="42" fill="white"/>
</clipPath>
<clipPath id="clip1_698_74">
<rect width="41.1" height="41.3" fill="white"/>
</clipPath>
</defs>
</svg>
