<?xml version="1.0" encoding="utf-8"?>
<!-- Generator: Adobe Illustrator 19.0.0, SVG Export Plug-In . SVG Version: 6.00 Build 0)  -->
<svg version="1.1" id="Layer_1" xmlns="http://www.w3.org/2000/svg" xmlns:xlink="http://www.w3.org/1999/xlink" x="0px" y="0px"
	 viewBox="0 0 42 42" style="enable-background:new 0 0 42 42;" xml:space="preserve">
<style type="text/css">
	.st0{fill:#1B3ECD;}
</style>
<g id="XMLID_748_">
	<path id="XMLID_833_" class="st0" d="M42,25.7c0-1-0.4-1.8-1.3-2.4c-0.2-0.1-0.3-0.4-0.4-0.7c0-1,0-2.1,0-3.1
		c0-2.6-0.4-5.1-1.4-7.5C35.2,2.9,25.3-1.9,15.8,0.7C7.6,3,1.8,10.4,1.7,18.9c0,1.3,0,2.5,0,3.8c0,0.2-0.2,0.5-0.3,0.6
		C0.4,23.9,0,24.7,0,25.7c0,1.2,0,2.4,0,3.6c0,1.8,1,2.8,2.8,2.8c0.7,0,1.4,0,2.1,0c0.3,1.6,1,2.3,2.4,2.4c0.7,0.1,1.4,0.1,2.1,0
		c1.3-0.2,2.1-1.1,2.1-2.5c0-3,0-6,0-9c0-1.4-1.1-2.5-2.5-2.5c-0.8,0-1.6,0-2.4,0c-0.2-5.9,2-10.7,7.2-13.6c5.2-3,10.6-2.8,15.6,0.7
		c4.5,3.1,6.3,7.6,6.1,13c-0.9,0-1.6,0-2.4,0c-1.4,0-2.5,1-2.5,2.4c0,3.1,0,6.1,0,9.2c0,1.2,0.8,2.2,2.1,2.3c0.8,0.1,1.7,0.1,2.5,0
		c1-0.1,1.6-0.7,1.9-1.6c0.1-0.2,0.1-0.5,0.2-0.7c0.5,0,1,0,1.6,0c0,1.8,0,3.7,0,5.5c0,0.8-0.3,1.1-1.1,1.1c-3.3,0-6.7,0-10,0
		c-0.4,0-0.5-0.1-0.7-0.4c-0.4-0.8-1.1-1.2-2-1.2c-1.4,0-2.9,0-4.3,0c-1.4,0-2.4,1.2-2.4,2.5c0,1.3,1.1,2.4,2.4,2.4
		c1.4,0,2.8,0,4.2,0c0.9,0,1.6-0.4,2-1.1c0.2-0.4,0.5-0.5,0.9-0.5c3.3,0,6.6,0,9.8,0c1.8,0,2.8-1,2.8-2.8c0-1.7,0-3.4,0-5.1
		c0-0.2,0.1-0.6,0.3-0.7c0.9-0.6,1.3-1.4,1.3-2.4C42,28.2,42,26.9,42,25.7z M6.6,23.1c0-0.6,0.3-0.9,0.9-0.9c0,0,0,0,0.1,0
		c2.3,0,2.4-0.1,2.3,2.2c0,1.1,0,2.1,0,3.2c0,1.4,0,2.8,0,4.3c0,0.8-0.3,1.1-1.1,1.1c-0.4,0-0.9,0-1.3,0c-0.6,0-0.9-0.3-0.9-0.9
		C6.6,29.1,6.6,26.1,6.6,23.1z M35.4,32c0,0.7-0.3,0.9-1,1c-0.4,0-0.9,0-1.3,0c-0.7,0-1-0.3-1-1c0-1.5,0-2.9,0-4.4
		c0-1.4,0-2.8,0-4.3c0-0.8,0.3-1.1,1.1-1.1c0.4,0,0.8,0,1.2,0c0.7,0,1,0.3,1,1C35.4,26.1,35.4,29,35.4,32z M24.6,40.3
		c-0.7,0-1.3,0-2,0c-0.7,0-1.3,0-2,0c-0.5,0-0.9-0.2-0.9-0.8c0-0.6,0.4-0.8,0.9-0.8c1.3,0,2.6,0,3.9,0c0.5,0,0.9,0.2,0.9,0.8
		C25.5,40.1,25.1,40.3,24.6,40.3z M4.9,30.5c-0.8,0-1.6,0-2.4,0c-0.4,0-0.8-0.3-0.8-0.7c0-1.4,0-2.8,0-4.3c0-0.5,0.4-0.8,0.9-0.8
		c0.8,0,1.5,0,2.3,0C4.9,26.6,4.9,28.5,4.9,30.5z M37.1,22.2c0-2.1,0.1-4.3-0.4-6.4C35.1,9.7,31.3,5.5,25.2,3.9
		C17,1.6,8.9,6,5.9,13.8c-0.7,1.9-1,3.8-1,5.8c0,1.1,0,2.2,0,3.4c-0.6,0-1.1,0-1.6,0c0-1.5-0.1-2.9,0-4.4c0.2-4.9,2.1-9,5.7-12.3
		c2.7-2.5,5.9-4,9.6-4.5c8.8-1.2,17.1,4.4,19.5,13c0.5,1.9,0.6,3.9,0.6,5.9c0,0.7,0,1.5,0,2.3c-0.6,0-1.1,0-1.6,0
		C37.1,22.8,37.1,22.5,37.1,22.2z M40.3,29.6c0,0.5-0.2,0.9-0.8,0.9c-0.8,0-1.6,0-2.5,0c0-1.9,0-3.8,0-5.8c0.8,0,1.6,0,2.4,0
		c0.5,0,0.8,0.3,0.8,0.9C40.4,26.9,40.4,28.2,40.3,29.6z"/>
	<path id="XMLID_853_" class="st0" d="M19.7,14.1c0.9-1.4,0.4-2.9-1-3.7c-1.1-0.6-2.3-0.7-3.4-0.1c-0.8,0.4-1.4,1-1.6,1.9
		c-0.1,0.5,0,0.8,0.5,1c0.5,0.2,0.8-0.1,1.1-0.5c0.5-1,1.6-1.4,2.6-0.8c0.6,0.4,0.8,0.9,0.5,1.5c-0.2,0.4-0.4,0.7-0.7,1
		c-1.1,1.3-2.1,2.5-3.2,3.7c-0.3,0.3-0.6,0.7-0.3,1.2c0.2,0.5,0.7,0.6,1.2,0.6c1.3,0,2.6,0,3.9,0c0.7,0,1.1-0.4,1.1-0.9
		c0-0.5-0.5-0.8-1.1-0.8c-0.8,0-1.6,0-2.6,0c0.3-0.4,0.6-0.6,0.8-0.9C18.1,16.2,19,15.2,19.7,14.1z"/>
	<path id="XMLID_856_" class="st0" d="M27.3,14.6c0-1.1,0-2.3,0-3.4c0-0.6-0.3-1-0.9-1.2c-0.5-0.2-1,0-1.4,0.4
		c-0.2,0.2-0.4,0.4-0.5,0.7c-0.9,1.6-1.9,3.1-2.8,4.7c-0.5,0.9-0.2,1.5,0.9,1.5c1,0,2,0,3,0c0.1,0.1,0.1,0.1,0.1,0.2
		c0,0.3,0,0.7,0,1c0,0.8,0.3,1.2,0.8,1.2c0.5,0,0.8-0.4,0.8-1.2c0-0.4,0-0.8,0-1.2c0.6-0.1,1-0.2,1.1-0.8c0.1-0.8-0.5-0.9-1-1
		C27.3,15.2,27.3,14.9,27.3,14.6z M25.7,15.6c-0.6,0-1.2,0-1.9,0c0.6-1.1,1.2-2.1,1.8-3.1c0,0,0.1,0,0.1,0
		C25.7,13.6,25.7,14.6,25.7,15.6z"/>
	<path id="XMLID_857_" class="st0" d="M28.2,23c0.2-0.2,0.5-0.5,0.5-0.8c0-0.2-0.3-0.5-0.5-0.7c-0.2-0.1-0.5-0.1-0.7-0.1
		c-2.2,0-4.4,0-6.6,0c-2.2,0-4.4,0-6.6,0c-0.2,0-0.5,0-0.6,0.1c-0.2,0.2-0.6,0.5-0.6,0.8c0,0.3,0.3,0.6,0.6,0.8c0.1,0.1,0.4,0,0.6,0
		c4.4,0,8.8,0,13.2,0C27.8,23.1,28.1,23.1,28.2,23z"/>
	<path id="XMLID_858_" class="st0" d="M22.3,26.4c-0.2,0.3-0.3,0.6-0.4,0.8c-1,2-2,3.9-3.1,5.9c-0.3,0.6-0.2,1.1,0.2,1.3
		c0.5,0.2,0.9,0.1,1.2-0.5c1.3-2.6,2.7-5.1,4-7.7c0.4-0.9,0.1-1.4-0.9-1.4c-1.6,0-3.2,0-4.8,0c-0.7,0-1,0.3-1,0.8
		c0,0.6,0.3,0.8,1.1,0.8C19.8,26.4,21,26.4,22.3,26.4z"/>
</g>
</svg>
