<?xml version="1.0" encoding="utf-8"?>
<!-- Generator: Adobe Illustrator 19.0.0, SVG Export Plug-In . SVG Version: 6.00 Build 0)  -->
<svg version="1.1" id="Layer_1" xmlns="http://www.w3.org/2000/svg" xmlns:xlink="http://www.w3.org/1999/xlink" x="0px" y="0px"
	 viewBox="0 0 42 42" style="enable-background:new 0 0 42 42;" xml:space="preserve">
<style type="text/css">
	.st0{fill:#1B3ECD;}
</style>
<g id="XMLID_899_">
	<path id="XMLID_1146_" class="st0" d="M40.4,35.1c0-1.9,0-3.8,0-5.7c0-0.1,0.1-0.3,0.2-0.4c0.9-0.7,1.2-1.7,1.2-2.9
		c0-5.3,0-10.6,0-15.8c0-0.2,0-0.5,0-0.7c-0.4,0-0.8,0-1.2,0c0,3.8,0,7.6,0,11.4c-4.2,0-8.4,0-12.6,0c0-4.8,0-9.5,0-14.2
		c4.2,0,8.4,0,12.6,0c0,0.5,0,1,0,1.4c0.4,0,0.8,0,1.1,0c0-1.7,0.1-3.4,0-5.1c-0.1-1.3-0.9-2.2-2.2-2.4c-1.2-0.2-2.5,0-3.7,0
		c0,0.4,0,0.7,0,1c0.1,0,0.1,0.1,0.1,0.1c0.9,0,1.8,0,2.7,0c1,0,1.8,0.6,1.9,1.6c0.1,0.7,0,1.3,0,2c-4.2,0-8.4,0-12.6,0
		c0-0.5,0-0.9,0-1.3c0-1.6,0.6-2.3,2.3-2.3c1.4,0,2.8,0,4.3,0c0-0.4,0-0.8,0-1.2c-1.6,0-3.2,0-4.7,0c-1.8,0-3.1,1.3-3.1,3.1
		c0,1.5,0,3,0,4.6c0,0.2,0,0.5,0,0.7c-2.2,0-4.2,0-6.3,0c0,0.4,0,0.8,0,1.2c2.1,0,4.2,0,6.2,0c0,0.7,0,1.4,0,2c-3.3,0-6.6,0-10,0
		c0,0.4,0,0.8,0,1.3c3.4,0,6.7,0,10,0c0,0.3,0,0.6,0,0.9c0,4,0,8,0,12c0,1.9,1.3,3.2,3.2,3.2c1.7,0,3.5,0,5.2,0c0.2,0,0.5,0,0.7,0
		c0,0.8,0,1.5,0,2.3c-8.4,0-16.8,0-25.1,0c0,0.4,0,0.8,0,1.1c8.8,0,17.6,0,26.5,0c0-1.2,0-2.3,0-3.4c0.7,0,1.3,0,1.9,0
		c0,1.8,0,3.7,0,5.5c-4.3,0-8.6,0-12.8,0c-0.2,1.1-0.2,1.1-1.2,1.1c-2.7,0-5.3,0-8,0c-1.1,0-1.1,0-1.3-1.1c-2.9,0-5.8,0-8.8,0
		c0,0.4,0,0.8,0,1.2c0.3,0,0.5,0,0.8,0c2.2,0,4.3,0,6.5,0c0.2,0,0.5,0.1,0.7,0.3c0.4,0.6,1,0.8,1.7,0.8c3,0,6,0,8.9,0
		c0.6,0,1.2-0.2,1.6-0.8c0.2-0.3,0.5-0.4,0.8-0.4c4,0,8,0,12.1,0c0.2,0,0.4,0,0.7,0c0,0.2,0,0.4,0,0.6c0,2.2-0.5,2.7-2.7,2.7
		c-11.4,0-22.8,0-34.2,0c-0.2,0-0.4,0-0.7,0c-1-0.1-1.7-0.7-1.8-1.6c-0.1-0.5,0-1.1,0-1.8c1.5,0,2.9,0,4.3,0c0-0.4,0-0.8,0-1.2
		c-1,0-1.9,0-2.8,0c0-3.1,0-6.1,0-9.1c-0.5,0-0.8,0-1.3,0c0,3.1,0,6.1,0,9.1c-0.5,0-0.9,0-1.4,0.1c0,0.8,0,1.5,0,2.2
		c0,2.4,1.2,3.5,3.5,3.5c8.5,0,17.1,0,25.6,0c3.2,0,6.3,0,9.5,0c1.6,0,2.9-1,3.1-2.6c0.1-1,0-2.1,0-3.1
		C41.3,35.2,40.9,35.1,40.4,35.1z M38.7,28.4c-2.9,0-5.9,0-8.8,0c-1.2,0-1.9-0.7-1.9-1.9c0-1.4,0-2.7,0-4.1c4.2,0,8.4,0,12.6,0
		c0,1.5,0.1,3,0,4.4C40.5,27.7,39.8,28.4,38.7,28.4z"/>
	<path id="XMLID_1150_" class="st0" d="M15.4,13.5c0-0.4,0-0.8,0-1.2c-3.5,0-7,0-10.5,0c0,6.9,0,13.8,0,20.8c1.5,0,3,0,4.5,0
		c0-0.4,0-0.7,0-1.2c-1.1,0-2.1,0-3.2,0c0-6.2,0-12.3,0-18.4C9.3,13.5,12.3,13.5,15.4,13.5z"/>
	<path id="XMLID_1151_" class="st0" d="M2.8,23.9c0-3.9,0-7.8,0-11.7c0-1.2,0.7-1.9,1.9-2c0.2,0,0.4,0,0.7,0c4.3,0,8.6,0,13,0
		c0.3,0,0.5,0,0.8,0c0-0.4,0-0.8,0-1.2c-0.3,0-0.5,0-0.7,0C14,9,9.5,9,5.1,9c-2.3,0-3.5,1.3-3.5,3.5c0,3.8,0,7.6,0,11.5
		c0,0.2,0,0.5,0,0.7c0.5,0,0.8,0,1.3,0C2.8,24.4,2.8,24.2,2.8,23.9z"/>
	<path id="XMLID_1154_" class="st0" d="M21.9,21.4c0-3-2.5-5.5-5.5-5.5c-3.1,0-5.5,2.5-5.5,5.6c0,3,2.5,5.5,5.5,5.4
		C19.5,27,21.9,24.5,21.9,21.4z M16.4,25.7c-2.4,0-4.3-1.9-4.3-4.3c0-2.4,1.9-4.3,4.3-4.3c2.3,0,4.2,2,4.2,4.3
		C20.7,23.8,18.7,25.7,16.4,25.7z"/>
	<path id="XMLID_1157_" class="st0" d="M29.2,13.8c0,2.8,2.3,5.1,5.1,5.1c2.8,0,5.1-2.3,5.1-5.1c0-2.8-2.3-5.1-5.1-5.1
		C31.5,8.7,29.2,11.1,29.2,13.8z M38.2,13.9c0,2.1-1.8,3.9-3.9,3.9c-2.1,0-3.8-1.7-3.8-3.9c0-2.2,1.7-3.9,3.9-3.9
		C36.4,10,38.2,11.8,38.2,13.9z"/>
	<path id="XMLID_1158_" class="st0" d="M32.7,4.3c1.1,0,2.1,0,3.2,0c0-0.4,0-0.8,0-1.2c-1.1,0-2.1,0-3.2,0
		C32.7,3.5,32.7,3.9,32.7,4.3z"/>
	<path id="XMLID_1159_" class="st0" d="M3.2,38.6c1.1,0,2.1,0,3.2,0c0-0.4,0-0.8,0-1.2c-1.1,0-2.1,0-3.2,0
		C3.2,37.8,3.2,38.2,3.2,38.6z"/>
	<path id="XMLID_1160_" class="st0" d="M14.5,29.4c0-0.4,0-0.8,0-1.2c-0.4,0-0.8,0-1.2,0c0,0.4,0,0.8,0,1.2
		C13.8,29.4,14.1,29.4,14.5,29.4z"/>
	<path id="XMLID_1161_" class="st0" d="M15.8,29.4c0.4,0,0.8,0,1.1,0c0-0.4,0-0.8,0-1.2c-0.4,0-0.8,0-1.1,0
		C15.8,28.7,15.8,29,15.8,29.4z"/>
	<path id="XMLID_1162_" class="st0" d="M30.3,4.3c0.4,0,0.8,0,1.1,0c0-0.4,0-0.7,0-1.2c-0.4,0-0.8,0-1.1,0
		C30.3,3.5,30.3,3.9,30.3,4.3z"/>
	<path id="XMLID_1163_" class="st0" d="M37.2,3.1c0,0.4,0,0.8,0,1.2c0.4,0,0.7,0,1.1,0c0-0.4,0-0.8,0-1.2
		C37.9,3.1,37.6,3.1,37.2,3.1z"/>
	<path id="XMLID_1164_" class="st0" d="M19.4,29.4c0-0.4,0-0.8,0-1.2c-0.4,0-0.8,0-1.1,0c0,0.4,0,0.8,0,1.2
		C18.7,29.4,19,29.4,19.4,29.4z"/>
	<path id="XMLID_1165_" class="st0" d="M7.7,37.4c0,0.4,0,0.8,0,1.2c0.4,0,0.8,0,1.2,0c0-0.4,0-0.8,0-1.2
		C8.5,37.4,8.1,37.4,7.7,37.4z"/>
	<path id="XMLID_1168_" class="st0" d="M32.5,27.1c1.3,0,2.4,0,3.6,0c0-1.2,0-2.4,0-3.6c-1.2,0-2.4,0-3.6,0
		C32.5,24.7,32.5,25.9,32.5,27.1z M33.7,24.7c0.4,0,0.8,0,1.1,0c0,0.4,0,0.7,0,1.1c-0.4,0-0.7,0-1.1,0
		C33.7,25.5,33.7,25.1,33.7,24.7z"/>
	<path id="XMLID_1195_" class="st0" d="M15.4,22.6c-0.4-0.5-0.7-1-1-1.3c-0.4,0.3-0.7,0.6-1,0.8c0.7,0.7,1.4,1.4,2,1.9
		c1.3-1.3,2.6-2.5,3.8-3.7c-0.2-0.3-0.5-0.5-0.8-0.9C17.4,20.4,16.5,21.4,15.4,22.6z"/>
	<path id="XMLID_1196_" class="st0" d="M36.9,12.8c-0.2-0.3-0.5-0.6-0.8-0.9c-0.9,0.9-1.7,1.8-2.7,2.8c-0.4-0.5-0.7-0.9-1.1-1.3
		c-0.3,0.3-0.6,0.6-0.9,0.8c0.7,0.7,1.3,1.3,1.9,1.9C34.7,15.1,35.8,13.9,36.9,12.8z"/>
</g>
</svg>
