<?xml version="1.0" encoding="utf-8"?>
<!-- Generator: Adobe Illustrator 19.0.0, SVG Export Plug-In . SVG Version: 6.00 Build 0)  -->
<svg version="1.1" id="Layer_1" xmlns="http://www.w3.org/2000/svg" xmlns:xlink="http://www.w3.org/1999/xlink" x="0px" y="0px"
	 viewBox="0 0 42 42" style="enable-background:new 0 0 42 42;" xml:space="preserve">
<style type="text/css">
	.st0{fill:#1B3ECD;}
</style>
<g id="XMLID_195_">
	<path id="XMLID_257_" class="st0" d="M27.3,30.1c-0.8-0.1-0.9,0.6-0.9,1.2c0,2.3,0,4.5,0,6.8c0,1.7-0.7,2.4-2.4,2.4
		c-6.6,0-13.2,0-19.9,0c-1.7,0-2.4-0.7-2.4-2.4c0-11.3,0-22.6,0-33.9C1.8,2.6,2.3,2,4,2c6.7,0,13.3,0,20,0c1.8,0,2.3,0.6,2.4,2.4
		c0,2.2,0,4.5,0,6.7c0,0.6,0,1.3,0.8,1.4c0.9,0,0.9-0.7,0.9-1.4c0-2.3,0-4.5,0-6.8c0-2.5-1.4-3.9-3.9-3.9c-6.7,0-13.5,0-20.2,0
		c-2.5,0-3.8,1.3-3.8,3.8c0,5.7,0,11.4,0,17.1c0,5.8,0,11.6,0,17.3c0,2.1,1.4,3.6,3.5,3.6c6.9,0,13.9,0,20.8,0
		c2.1,0,3.6-1.5,3.7-3.6c0-2.4,0-4.9,0-7.3C28,30.9,27.6,30.2,27.3,30.1z"/>
	<path id="XMLID_268_" class="st0" d="M42,3.9c0-2.2-1.3-3.6-3.6-3.6c-2.4,0-4.8,0-7.2,0c-0.6,0-1.3-0.1-1.4,0.8
		C29.9,2,30.6,2,31.3,2c2.3,0,4.5,0,6.8,0c1.7,0,2.3,0.6,2.3,2.2c0,11.4,0,22.7,0,34.1c0,1.6-0.7,2.3-2.3,2.3c-2.3,0-4.6,0-6.9,0
		c-0.4,0-0.8,0.5-1.2,0.8c0.4,0.3,0.8,0.8,1.2,0.8c2.4,0.1,4.9,0,7.3,0c2.4-0.1,3.6-1.3,3.6-3.8c0-5.7,0-11.4,0-17.1
		C42,15.5,42,9.7,42,3.9z"/>
	<path id="XMLID_296_" class="st0" d="M23.6,6.3c0-0.8-0.7-0.8-1.3-0.8c-5.5,0-11,0-16.5,0c-0.6,0-1.3,0-1.3,0.9
		c0,0.8,0.7,0.8,1.3,0.8c2.7,0,5.4,0,8.1,0c2.7,0,5.5,0,8.2,0C22.9,7.2,23.6,7.3,23.6,6.3z"/>
	<path id="XMLID_297_" class="st0" d="M5.9,36.9c2.7,0,5.4,0,8.1,0c2.8,0,5.6,0,8.4,0c0.6,0,1.3,0,1.3-0.8c0-0.8-0.7-0.8-1.3-0.8
		c-5.5,0-11,0-16.5,0c-0.6,0-1.3,0-1.3,0.9C4.5,37,5.3,36.9,5.9,36.9z"/>
	<path id="XMLID_298_" class="st0" d="M28.1,16.6c-0.3-0.3-1.1-0.5-1.4-0.3c-0.6,0.5-0.2,1,0.3,1.5c1.2,1.1,2.3,2.2,3.7,3.5
		c-1.3,1.2-2.5,2.3-3.7,3.4c-0.5,0.4-0.9,1-0.3,1.5c0.2,0.2,1.1,0,1.4-0.3c1.3-1.2,2.5-2.5,3.8-3.8c0.6-0.6,0.6-1.1,0-1.7
		C30.6,19.1,29.4,17.8,28.1,16.6z"/>
	<path id="XMLID_299_" class="st0" d="M15.2,17.8c0.3-0.3,0.5-1.1,0.3-1.4c-0.5-0.6-1-0.2-1.5,0.2c-1.2,1.2-2.5,2.5-3.7,3.7
		c-0.6,0.6-0.7,1.1,0,1.8c1.3,1.2,2.4,2.5,3.7,3.7c0.3,0.3,1.2,0.5,1.5,0.3c0.6-0.5,0.1-1-0.3-1.5c-1.1-1.1-2.2-2.1-3.6-3.4
		C12.9,20,14.1,18.9,15.2,17.8z"/>
	<path id="XMLID_323_" class="st0" d="M21.9,16.9c-0.7,1.3-1.3,2.6-2,3.9c-0.7,1.4-1.4,2.8-2.1,4.3c-0.4,0.8,0,1.4,0.7,1.3
		c0.1,0.1,0.3,0.3,0.4,0.4c0.1-0.3,0.3-0.7,0.4-1c1.4-2.7,2.8-5.5,4.1-8.2c0.2-0.4-0.1-0.9-0.2-1.4C22.8,16.4,22.1,16.5,21.9,16.9z"
		/>
	<path id="XMLID_324_" class="st0" d="M36.7,5.6c-1.7-0.1-3.3-0.1-5,0c-0.3,0-0.6,0.5-1,0.8c0.3,0.3,0.6,0.8,0.9,0.8
		c0.8,0.1,1.7,0,2.5,0c0.8,0,1.7,0.1,2.5,0c0.3-0.1,0.6-0.5,0.9-0.8C37.3,6.1,37,5.6,36.7,5.6z"/>
	<path id="XMLID_325_" class="st0" d="M34.2,35.3C34.2,35.3,34.2,35.3,34.2,35.3c-0.9,0-1.8-0.1-2.6,0c-0.3,0-0.6,0.5-0.8,0.8
		c0.3,0.3,0.6,0.8,0.8,0.8c1.7,0.1,3.4,0.1,5.1,0c0.3,0,0.6-0.5,0.9-0.7c-0.3-0.3-0.6-0.8-0.9-0.8C35.9,35.2,35.1,35.3,34.2,35.3z"
		/>
</g>
</svg>
