<?xml version="1.0" encoding="utf-8"?>
<!-- Generator: Adobe Illustrator 19.0.0, SVG Export Plug-In . SVG Version: 6.00 Build 0)  -->
<svg version="1.1" id="Layer_1" xmlns="http://www.w3.org/2000/svg" xmlns:xlink="http://www.w3.org/1999/xlink" x="0px" y="0px"
	 viewBox="0 0 42 42" style="enable-background:new 0 0 42 42;" xml:space="preserve">
<style type="text/css">
	.st0{fill:#FFFFFF;}
</style>
<g id="XMLID_929_">
	<path id="XMLID_1036_" class="st0" d="M39.6,3.9c-5.8,0-11.6,0-17.4,0c-5.6,0-11.3,0-16.9,0c-1.7,0-2.4,0.8-2.4,2.4l0,0.5
		c0,2.5,0,5.2,0,7.7c0,0.4,0,0.6-0.5,0.8c-0.7,0.2-1.3,0.8-1.5,1.6c-0.4,1.4,0.3,2.5,1.9,3.1l0,0v0c0,0.3,0,0.5,0,0.8
		c0,0.6,0,1.2,0,1.9c0,0.4-0.2,0.8-0.4,1.1c-2,2.3-2.7,5-2.2,7.9c0.7,3.6,3.6,6.5,7.2,7.1c0.6,0.1,1.1,0.2,1.7,0.2
		c3.2,0,6.1-1.6,7.7-4.3c0.3-0.5,0.7-0.6,1.2-0.6c3.7,0,7.7,0,12.9,0c2.3,0,8.8,0,8.8,0c1.6,0,2.4-0.8,2.4-2.4c0-8.4,0-16.9,0-25.3
		C42,4.7,41.2,3.9,39.6,3.9z M2.3,18.3c-0.2-0.2-0.3-0.5-0.3-0.8c0-0.6,0.5-1.1,1.1-1.1l0,0c0.3,0,0.6,0.1,0.8,0.4
		c0.2,0.2,0.3,0.5,0.3,0.8c0,0.6-0.5,1.1-1.1,1.1l0,0C2.8,18.7,2.5,18.6,2.3,18.3z M1.9,33L1.9,33c-1-2.4-0.9-4.7,0.3-6.8
		c1.3-2.4,3.4-3.7,6.1-4.1l0.1,0v0.1c0,0.5,0,1.1,0,1.6c0,1.2,0,2.4,0.1,3.6c0.1,1.6-0.4,2.5-1.8,3.1c-1.1,0.5-2.1,1-3.2,1.6
		C2.9,32.4,2.5,32.7,1.9,33L1.9,33z M16.7,30.6c-0.2,3.2-2.7,6.1-6,6.9c-0.5,0.1-1,0.2-1.6,0.2c-2.7,0-5.4-1.5-6.6-3.5l0-0.1
		l1.2-0.7c1.7-0.9,3.5-1.9,5.3-2.8c0.2-0.1,0.4-0.1,0.5-0.1c1.1,0,2.1,0,3.2,0c1.2,0,2.5,0,3.7,0c0.1,0,0.1,0,0.2,0
		C16.6,30.5,16.7,30.6,16.7,30.6L16.7,30.6L16.7,30.6z M9.7,29.2v-7l0.1,0c0.1,0,0.2,0,0.3,0c3.2,0,6.4,3.4,6.7,6.9l0,0.1H9.7z
		 M40.7,31.7c0,0.8-0.2,1.1-1,1.1c-3.2,0-6.4,0-9.5,0c-3.8,0-7.5,0-11.3,0l-0.8,0c-0.1,0-0.1,0-0.2,0c0,0-0.1,0-0.1,0l-0.1,0l0-0.1
		c1-4.2-0.1-7.6-3.2-10c-1.7-1.3-3.4-1.9-5.3-1.9c-1.6,0-3.3,0.5-5.1,1.4l-0.1,0.1v-0.1c0-0.2,0-0.4,0-0.6c0-0.5,0-1,0-1.5
		c0-0.2,0.3-0.5,0.4-0.5c0.9-0.7,1.2-1.5,1-2.6c-0.1-0.3,0.1-0.6,0.3-0.8c0.9-0.8,1.8-1.7,2.8-2.5c0.2-0.1,0.4-0.2,0.7-0.2
		c0,0,0.1,0,0.1,0c0.1,0,0.3,0,0.4,0.1c0.1,0,0.3,0.1,0.4,0.1c0.1,0,0.1,0,0.2,0c0.2-0.1,0.3-0.1,0.4-0.1c0.5,0,0.8,0.3,1.2,0.6
		c0.3,0.2,0.5,0.4,0.8,0.6c0.4,0.3,0.8,0.6,1.1,0.9c0.2,0.2,0.3,0.5,0.3,0.7c-0.2,1.1,0.2,1.9,1.1,2.5c0.4,0.3,0.8,0.4,1.3,0.4
		c0.4,0,0.9-0.1,1.3-0.4c0.8-0.5,1.2-1.4,1.1-2.5c0-0.3,0.1-0.7,0.3-0.9c0.6-0.5,1.2-1,1.8-1.5c0.5-0.4,0.9-0.8,1.4-1.1
		c0.2-0.2,0.4-0.2,0.5-0.2c0.1,0,0.3,0,0.4,0.1c0.3,0.1,0.6,0.2,0.9,0.2c0.8,0,1.5-0.4,1.9-1c0.6-0.9,0.6-2-0.1-2.9
		c-0.5-0.6-1.1-0.9-1.8-0.9c-0.3,0-0.7,0.1-1,0.2c-1,0.4-1.5,1.5-1.4,2.6c0,0.3-0.1,0.6-0.3,0.8c-1,0.9-2.1,1.8-3.3,2.7
		c-0.1,0.1-0.3,0.2-0.5,0.2c-0.1,0-0.2,0-0.2,0c-0.3-0.1-0.7-0.2-1-0.2c-0.3,0-0.7,0.1-1,0.2c-0.1,0-0.2,0-0.3,0
		c-0.2,0-0.4-0.1-0.6-0.2c-0.4-0.3-0.8-0.6-1.1-0.9c-0.3-0.2-0.5-0.4-0.8-0.6c-0.3-0.3-0.5-0.5-0.3-1c0.4-1,0.1-2-0.7-2.7
		c-0.4-0.3-0.9-0.5-1.5-0.5C9.7,8.9,9.2,9,8.8,9.2C8,9.8,7.6,10.7,7.8,11.8c0,0.3-0.1,0.7-0.3,0.9c-0.7,0.7-1.5,1.4-2.2,2
		c-0.2,0.2-0.4,0.3-0.5,0.5c-0.1,0.1-0.2,0.1-0.3,0.2c-0.1,0-0.1,0.1-0.2,0.1l-0.1,0.1l0-0.1c0-0.1,0-0.2,0-0.3c0-0.1,0-0.3,0-0.4
		c0-2.8,0-5.7,0-8.5c0-0.9,0.2-1.1,1.1-1.1c5.6,0,11.2,0,16.7,0c5.9,0,11.8,0,17.7,0c0.9,0,1.1,0.2,1.1,1.1
		C40.7,14.8,40.7,23.2,40.7,31.7z M9,11.2c0-0.6,0.5-1.1,1.1-1.1c0,0,0,0,0.1,0c0.6,0,1.1,0.6,1,1.1c0,0.6-0.5,1.1-1.1,1.1
		c0,0,0,0-0.1,0C9.4,12.3,9,11.8,9,11.2z M15.3,16.9c0-0.3,0.1-0.6,0.3-0.8c0.2-0.2,0.5-0.3,0.8-0.3l0,0c0.3,0,0.6,0.1,0.8,0.4
		c0.2,0.2,0.3,0.5,0.3,0.8c0,0.6-0.5,1-1.1,1l0,0C15.8,18,15.3,17.5,15.3,16.9z M23,10.5c0-0.6,0.5-1.1,1.1-1.1l0,0
		c0.6,0,1.1,0.5,1.1,1c0,0.3-0.1,0.6-0.3,0.8c-0.2,0.2-0.5,0.4-0.8,0.4l0,0c-0.3,0-0.6-0.1-0.8-0.3C23.1,11.1,23,10.8,23,10.5z"/>
	<path id="XMLID_1083_" class="st0" d="M38.3,29.9C38.3,29.9,38.3,29.9,38.3,29.9c-0.2,0-0.3,0-0.5,0c-0.1,0-0.2,0-0.3,0
		c-0.1,0-0.4,0-0.4,0l0-0.1c0-0.1,0-0.1,0-0.1c0-0.1,0-0.1,0-0.1c0-1.4,0-2.9,0-4.3c0-2.2-0.2-2.4-2.2-2.4c-0.1,0-0.2,0-0.3,0
		c-1.2,0-1.6,0.5-1.6,1.7c0,0.9,0,1.8,0,2.7c0,0.7,0,1.5,0,2.2c0,0.1,0,0.1,0,0.2c0,0,0,0.1,0,0.1l0,0.1l-0.7,0l0,0c0,0,0-0.1,0-0.1
		c0,0,0-0.1,0-0.1c0-2.9,0-5.7,0-8.6c0-2.2-0.2-2.4-2.2-2.4l-0.1,0c-1.3,0-1.7,0.5-1.7,1.7c0,1.6,0,3.2,0,4.7c0,1.4,0,2.9,0,4.3
		c0,0.1,0,0.2,0,0.2c0,0,0,0.1,0,0.1l0,0.1h-0.8l0-1.8c0-1.8,0-3.7,0-5.5c0-0.3,0-0.6-0.1-0.9c-0.3-0.7-0.8-0.9-1.5-0.9
		c-0.1,0-0.2,0-0.4,0c-0.1,0-0.3,0-0.4,0l-0.1,0c-0.8,0-1.3,0.3-1.5,0.9c-0.1,0.3-0.1,0.6-0.1,0.9c0,1.8,0,3.7,0,5.5l0,1.8l-0.1,0
		c-0.8-0.1-0.8-0.7-0.8-1.1c0-1.6,0-3.3,0-4.9c0-1.9,0-3.8,0-5.7c0-0.6-0.2-0.9-0.6-0.9l0,0c-0.2,0-0.4,0.1-0.5,0.2
		c-0.1,0.1-0.1,0.3-0.1,0.6c0,1.1,0,2.1,0,3.2c0,2.6,0,5.3,0,7.9c0,1.1,0.8,2,2,2c0.2,0,0.3,0,0.5,0c0.1,0,0.2,0,0.4,0
		c0.1,0,0.2,0,0.4,0l6.5,0c2.5,0,5,0,7.5,0c0.4,0,0.6-0.1,0.7-0.2c0.1-0.1,0.1-0.3,0.1-0.5C39.2,30.1,38.9,29.9,38.3,29.9z
		 M25.9,29.9h-1.4v-7.8h1.4V29.9z M30.9,29.9h-1.5V20h1.5V29.9z M35.8,29.9h-1.5v-5.7h1.5V29.9z"/>
	<path id="XMLID_1086_" class="st0" d="M31.7,9.4L31.7,9.4c0.4,0,0.8,0,1.2,0l1.7,0l1.8,0c0.4,0,0.8,0,1.2,0c0.3,0,0.5-0.1,0.6-0.2
		c0.1-0.1,0.2-0.3,0.2-0.4c0-0.4-0.3-0.6-0.8-0.6c-1,0-2,0-3,0c-1,0-1.9,0-2.9,0c-0.5,0-0.8,0.2-0.8,0.6c0,0.2,0,0.4,0.1,0.5
		C31.2,9.4,31.4,9.4,31.7,9.4z"/>
	<path id="XMLID_1087_" class="st0" d="M34.7,11c-1,0-1.9,0-2.9,0c-0.3,0-0.5,0.1-0.7,0.2c-0.1,0.1-0.2,0.3-0.1,0.5
		c0,0.4,0.3,0.6,0.8,0.6l0,0c0.4,0,0.8,0,1.2,0c0.3,0,1.4,0,1.7,0c0.3,0,1.4,0,1.7,0c0.4,0,0.8,0,1.2,0l0,0c0.6,0,0.8-0.2,0.8-0.6
		c0-0.2,0-0.3-0.1-0.5C38.2,11,38,11,37.6,11C36.6,11,35.7,11,34.7,11z"/>
	<path id="XMLID_1088_" class="st0" d="M31.7,15L31.7,15c0.4,0,0.8,0,1.2,0l1.7,0l1.7,0c0.4,0,0.8,0,1.2,0h0c0.3,0,0.5-0.1,0.7-0.2
		c0.1-0.1,0.2-0.3,0.2-0.5c0-0.4-0.3-0.6-0.8-0.6c-1,0-2,0-3,0c-1,0-2,0-2.9,0c-0.5,0-0.8,0.2-0.8,0.6c0,0.2,0,0.3,0.1,0.5
		C31.2,15,31.4,15,31.7,15z"/>
	<circle id="XMLID_1089_" class="st0" cx="29.4" cy="8.8" r="0.7"/>
	<circle id="XMLID_1090_" class="st0" cx="29.4" cy="11.6" r="0.7"/>
	<circle id="XMLID_1091_" class="st0" cx="29.4" cy="14.4" r="0.7"/>
</g>
</svg>
