<?xml version="1.0" encoding="utf-8"?>
<!-- Generator: Adobe Illustrator 19.0.0, SVG Export Plug-In . SVG Version: 6.00 Build 0)  -->
<svg version="1.1" id="Layer_1" xmlns="http://www.w3.org/2000/svg" xmlns:xlink="http://www.w3.org/1999/xlink" x="0px" y="0px"
	 viewBox="0 0 42 42" style="enable-background:new 0 0 42 42;" xml:space="preserve">
<style type="text/css">
	.st0{fill:#FFFFFF;}
</style>
<g id="XMLID_1071_">
	<path id="XMLID_1288_" class="st0" d="M41.9,4.1c0-0.8-0.3-1.6-0.8-2.1c-0.5-0.5-1.2-0.8-2-0.8c0,0,0,0,0,0c-12.2,0-24.4,0-36.1,0
		c0,0,0,0,0,0c-0.8,0-1.5,0.3-2,0.8c-0.5,0.5-0.8,1.2-0.8,2c0,6.5,0,13.2,0,19.6c0,2.3,0,4.7,0,7c0,1.9,1,2.8,2.9,2.8h12.1l0,1.6
		c0,1.1-0.3,1.4-1.3,1.5c-1.6,0.2-2.8,1.2-3,2.8c-0.1,0.4-0.1,0.7,0.1,0.9c0.2,0.2,0.4,0.2,0.9,0.2c3.5,0,7,0,10.6,0
		c2.5,0,5,0,7.4,0c0.5,0,0.7,0,0.9-0.2c0.2-0.2,0.2-0.5,0.1-0.9c0-0.3-0.1-0.5-0.2-0.8c-0.6-1.3-1.6-2-3-2.1
		c-0.8-0.1-1.1-0.4-1.1-1.2c0-0.4,0-0.9,0-1.4l0-0.5H39c1.8,0,2.9-1,2.9-2.9l0-7.4C41.8,17,41.8,10.5,41.9,4.1z M25,35.2
		c0,1.6,0.9,2.5,2.4,2.7c1,0.1,1.6,0.5,1.8,1.3h-17c0.2-0.7,0.8-1.2,1.6-1.3c2.1-0.3,2.7-1,2.7-3.2v-1.2H25l0,0.4
		C25,34.4,25,34.8,25,35.2z M12,26.1c-0.1,0.1-0.2,0.3-0.2,0.5c0,0.2,0.1,0.4,0.2,0.5c0.2,0.2,0.6,0.2,0.9,0.2c0.1,0,0.1,0,0.2,0
		c7.4,0,14.8,0,22.2,0h5.2c0,0.4,0,0.7,0,1.1c0,1,0,2,0,2.9c0,0.5-0.4,0.8-0.9,0.9c-0.1,0-0.3,0-0.4,0l-0.2,0H3
		c-1.3,0-1.6-0.3-1.6-1.6c0-0.7,0-1.5,0-2.2l0-1l0.1,0c0.2,0,0.3,0,0.5,0c1.5,0,3,0,4.6,0h2c0.4,0,0.9,0,0.9-0.7
		c0-0.2-0.1-0.4-0.2-0.5c-0.2-0.2-0.5-0.2-0.8-0.2l-7.1,0l0-21.7C1.4,3,1.8,2.6,3,2.6h35.9c1.2,0,1.5,0.3,1.5,1.5v21.8h-5.2
		c-7.4,0-14.8,0-22.3,0c-0.1,0-0.1,0-0.2,0C12.5,25.9,12.2,25.8,12,26.1z"/>
	<path id="XMLID_1297_" class="st0" d="M31.9,23.4c1.8,0,2.8-1,2.8-2.8c0-4.3,0-8.7,0-13c0-1.8-1-2.8-2.8-2.8H10
		c-1.8,0-2.7,1-2.7,2.7c0,4.4,0,8.7,0,13.1c0,1.8,1,2.8,2.8,2.8c3.6,0,7.3,0,10.9,0C24.6,23.4,28.3,23.4,31.9,23.4z M16.7,19.6
		c0.1-0.1,0.3-0.3,0.3-0.3c0,0,0,0,0,0c0.1,0,0.3,0.1,0.4,0.3c0.1,0,0.1,0.1,0.2,0.1l0,0.1c-0.1,0-0.1,0.1-0.2,0.2
		c-0.1,0.1-0.3,0.3-0.3,0.3c0,0,0,0,0,0c-0.1,0-0.3-0.2-0.4-0.4c0,0-0.1-0.1-0.1-0.1C16.6,19.6,16.6,19.6,16.7,19.6z M33.3,19
		C33.3,19,33.2,19,33.3,19c-0.3,0-0.4,0-0.6,0l-4.2,0c-3.1,0-6.1,0-9.2,0c0,0,0,0,0,0c-0.4,0-0.6-0.1-0.8-0.4
		c-0.3-0.5-0.8-0.8-1.4-0.8c0,0,0,0,0,0c-0.6,0-1.2,0.3-1.5,0.8c-0.2,0.2-0.3,0.3-0.4,0.3c-1.7,0-3.4,0-5.2,0l-1.3,0v-2.2h3.8
		c3.8,0,7.5,0,11.3,0c0.3,0,0.5,0,0.7,0.4c0.3,0.5,0.8,0.8,1.4,0.8c0,0,0,0,0.1,0c0.6,0,1.2-0.3,1.6-0.8c0.1-0.2,0.3-0.3,0.5-0.3
		c1.4,0,2.8,0,4.2,0l1,0c0,0,0.1,0,0.1,0V19z M26.6,16.4c-0.1,0-0.1,0.1-0.2,0.1c-0.2,0.1-0.3,0.3-0.4,0.3c-0.1,0-0.4-0.3-0.4-0.5
		c0-0.1,0.3-0.5,0.4-0.5c0,0,0,0,0,0c0.1,0,0.3,0.1,0.4,0.2c0.1,0,0.1,0.1,0.2,0.1V16.4z M27.5,15.4c-0.4-0.6-1-0.9-1.6-0.9
		c0,0,0,0,0,0c-0.6,0-1.2,0.3-1.6,0.9c-0.1,0.1-0.3,0.3-0.4,0.3c-4.6,0-9.3,0-13.8,0l-1.5,0c0,0,0,0,0,0c0,0,0,0,0,0l0-1.6
		c0-2.2,0-4.5,0-6.7c0-0.6,0.4-1,1-1.1c0.2,0,0.3,0,0.5,0l0.2,0l21.4,0c1.3,0,1.7,0.3,1.7,1.6v7.9l-1.1,0c-1.5,0-2.9,0-4.3,0
		C27.8,15.6,27.6,15.5,27.5,15.4z M8.7,20.4C8.7,20.4,8.7,20.4,8.7,20.4c0.1,0,0.2,0,0.4,0l1,0c1.6,0,3.2,0,4.8,0
		c0.2,0,0.5,0.2,0.6,0.3c0.4,0.5,1,0.8,1.6,0.8c0,0,0,0,0,0c0.6,0,1.1-0.3,1.5-0.8c0.1-0.2,0.3-0.3,0.5-0.3c4.3,0,8.8,0,13,0l1.2,0
		c0,0,0,0,0,0c0,0.7,0,1.1-0.2,1.4c-0.2,0.2-0.6,0.3-1.4,0.3H10.3c-0.7,0-1.1-0.1-1.4-0.4C8.7,21.5,8.6,21.1,8.7,20.4z"/>
	<path id="XMLID_1313_" class="st0" d="M3.9,6.6c0-0.3-0.3-0.7-0.6-0.8c-0.2,0-0.4,0-0.5,0.1C2.7,6.1,2.7,6.3,2.7,6.6
		c0,0.9,0,1.7,0,2.6l0,1c0,0.3,0,0.6,0,1c0,0.9,0,1.8,0,2.8c0,0.3,0.3,0.8,0.6,0.8c0,0,0.1,0,0.1,0c0.1,0,0.3,0,0.3-0.1
		C3.9,14.5,4,14.3,4,14c0-0.8,0-1.5,0-2.3C4,10,4,8.3,3.9,6.6z"/>
	<path id="XMLID_1316_" class="st0" d="M20.6,31.2C20.6,31.2,20.6,31.2,20.6,31.2c0.4,0,0.8-0.2,1.1-0.5c0.3-0.3,0.5-0.7,0.4-1.1
		c0-0.4-0.2-0.8-0.5-1.1c-0.3-0.3-0.7-0.4-1-0.4c0,0,0,0,0,0c-0.4,0-0.8,0.2-1.1,0.5c-0.3,0.3-0.4,0.7-0.4,1.1
		C19.1,30.5,19.8,31.2,20.6,31.2z M20.6,29.1c0.1,0,0.3,0.1,0.4,0.2c0.1,0.1,0.2,0.2,0.2,0.4c0,0.1-0.1,0.3-0.2,0.4
		c-0.1,0.1-0.2,0.2-0.4,0.2c0,0,0,0,0,0c-0.3,0-0.5-0.2-0.5-0.5c0-0.1,0-0.3,0.1-0.4C20.3,29.2,20.5,29.1,20.6,29.1
		C20.6,29.1,20.6,29.1,20.6,29.1z"/>
	<path id="XMLID_1319_" class="st0" d="M21,6.5C21,6.5,21,6.5,21,6.5c-1.1,0-2.1,0.4-2.9,1.2c-0.8,0.8-1.2,1.8-1.2,3
		s0.4,2.2,1.2,2.9c0.8,0.8,1.8,1.2,2.9,1.2c0,0,0,0,0,0c1.1,0,2.2-0.4,2.9-1.2c0.8-0.8,1.2-1.8,1.2-2.9C25.1,8.3,23.2,6.5,21,6.5z
		 M23.8,10.6c0,1.5-1.3,2.8-2.8,2.8c0,0,0,0,0,0c-0.7,0-1.5-0.3-2-0.9c-0.5-0.5-0.8-1.3-0.8-2c0-1.6,1.3-2.8,2.8-2.8c0,0,0,0,0,0
		C22.6,7.8,23.8,9.1,23.8,10.6z"/>
	<path id="XMLID_1320_" class="st0" d="M20.5,8.8c-0.2-0.1-0.4-0.1-0.6,0c-0.2,0.1-0.3,0.3-0.3,0.5v2.4c0,0.2,0.1,0.4,0.3,0.5
		c0.1,0.1,0.2,0.1,0.3,0.1c0.1,0,0.2,0,0.3-0.1l2.4-1.2c0.2-0.1,0.3-0.3,0.3-0.5S23,10.1,22.8,10L20.5,8.8z"/>
	<circle id="XMLID_1321_" class="st0" cx="3.3" cy="16.8" r="0.6"/>
</g>
</svg>
