<?xml version="1.0" encoding="utf-8"?>
<!-- Generator: Adobe Illustrator 19.0.0, SVG Export Plug-In . SVG Version: 6.00 Build 0)  -->
<svg version="1.1" id="Layer_1" xmlns="http://www.w3.org/2000/svg" xmlns:xlink="http://www.w3.org/1999/xlink" x="0px" y="0px"
	 viewBox="0 0 42 42" style="enable-background:new 0 0 42 42;" xml:space="preserve">
<style type="text/css">
	.st0{fill:#1B3ECD;}
</style>
<g id="XMLID_880_">
	<path id="XMLID_959_" class="st0" d="M38.4,36.9c-0.8-0.4-0.9-0.8-0.8-1.5c0,0,0-0.1,0-0.1l-0.1,0l0.1,0c0-1.1-0.1-1.2-1.2-1.2
		l-10.2,0l-4.5,0V31l5.3,0c1.5,0,3,0,4.5,0c0.9,0,1.4-0.5,1.4-1.4c0-0.1,0-0.2,0-0.4l0-5.6c0,0,0,0,0.1,0l0,0c0.1,0,0.3-0.1,0.4-0.1
		c1.4-0.2,2.7-0.6,3.7-1.4c1-0.7,1.9-1.8,2.5-3.1c0.8-1.7,0.9-3.7,0.2-5.5c-0.6-1.7-1.9-3.2-3.5-4c-0.7-0.4-1.2-0.7-1.2-1.4
		c0-0.3-0.1-0.5-0.2-0.8l0-0.1c-0.6-1.3-1.6-2.3-2.8-2.9c-1.2-0.6-2.6-0.7-4-0.4c-0.2,0-0.5,0-0.6-0.1c-0.9-1-2.1-1.9-3.5-2.6
		C19.5-1,14.3-0.1,10.6,3.4c-1.4,1.3-2.4,3-3,4.9C7.5,8.6,7.4,8.7,7.2,8.8c-1.9,0.6-3.4,1.7-4.4,3.4c-1.1,1.7-1.4,3.8-0.8,5.8
		c0.5,2,1.9,3.7,3.7,4.6C6.4,23,7.2,23.2,8,23.4l0-0.1l0,0.1c0.3,0.1,0.7,0.2,1,0.3l0,2.5c0,1,0,2.1,0,3.2c0,1.1,0.5,1.6,1.6,1.6
		l9.7,0v3.1l-14.6,0c-0.2,0-0.3,0-0.5,0c-0.3,0-0.5,0.1-0.6,0.2c-0.1,0.1-0.2,0.3-0.2,0.6c0,0.2,0,0.4,0,0.5c0,0.2,0,0.4,0,0.6
		c0,0.3-0.1,0.4-0.4,0.5c-0.7,0.3-1.2,0.7-1.5,1.3c-0.3,0.6-0.4,1.2-0.3,1.9c0.2,0.8,0.7,1.5,1.4,1.8C4.3,42,5,42.1,5.7,41.9
		c0.8-0.2,1.5-0.8,1.8-1.5c0.3-0.7,0.4-1.5,0.1-2.2c-0.3-0.8-0.9-1.4-2-1.7v-1.1H15c0.2,0.8,0,1.2-0.8,1.6c-0.9,0.4-1.3,1.2-1.3,2.4
		c0,1,0.5,1.8,1.5,2.3c0.4,0.2,0.9,0.4,1.4,0.4c0.2,0,0.5,0,0.7-0.1c0.8-0.2,1.4-0.8,1.8-1.6c0.3-0.6,0.3-1.4,0-2.2
		c-0.3-0.7-0.9-1.3-1.6-1.5c-0.1,0-0.3-0.2-0.3-0.2c0-0.3,0-0.6,0-0.8c0-0.1,0-0.1,0-0.2h9.4c0,0,0,0.1,0,0.1c0,0.2,0,0.3,0,0.5
		c0.1,0.4-0.1,0.5-0.5,0.7c-0.4,0.1-0.7,0.4-1,0.7c-0.8,0.8-0.9,2.2-0.3,3.2c0.7,1.1,1.9,1.6,3.1,1.3c1.2-0.3,2.1-1.4,2.1-2.5
		c0.1-1.2-0.7-2.3-1.9-2.8c-0.1-0.1-0.3-0.2-0.3-0.2c0-0.3,0-0.5,0-0.8c0-0.1,0-0.1,0-0.2h9.4v1.1c-1.1,0.3-1.8,1.1-2.1,2.2
		c-0.2,0.7,0,1.4,0.3,2c0.4,0.6,0.9,1,1.7,1.2c1.3,0.4,2.7-0.3,3.3-1.6c0.3-0.6,0.3-1.4,0.1-2.1C39.4,37.6,39,37.1,38.4,36.9z
		 M6.5,39.2c0,0.4-0.2,0.8-0.4,1.1c-0.3,0.3-0.6,0.4-1.1,0.4h0c-0.4,0-0.8-0.2-1.1-0.5c-0.3-0.3-0.4-0.7-0.4-1.1
		c0-0.8,0.7-1.5,1.5-1.5C5.9,37.7,6.5,38.4,6.5,39.2z M15.7,37.7c0.8,0,1.5,0.7,1.5,1.5c0,0.4-0.2,0.8-0.4,1.1
		c-0.3,0.3-0.6,0.4-1.1,0.4c-0.4,0-0.8-0.2-1.1-0.4c-0.3-0.3-0.4-0.7-0.4-1.1c0-0.4,0.2-0.8,0.4-1.1C14.9,37.9,15.3,37.7,15.7,37.7
		L15.7,37.7z M10.5,17.2c0.1-0.1,0.2-0.1,0.3-0.1c4.8,0,9.8,0,14.5,0h5.9c0.1,0,0.2,0,0.3,0l0,0v12.5H10.4l0-0.1c0-0.1,0-0.3,0-0.5
		l0-3.9c0-2.5,0-5,0-7.6C10.4,17.5,10.4,17.3,10.5,17.2z M10.5,15.8v-2.3h21.1v2.3H10.5z M9.1,19.4v2.8c-1.7-0.1-3-0.6-4.1-1.7
		c-1.8-1.7-2.4-3.8-1.8-6.2c0.6-2.3,2.1-3.8,4.5-4.4c0.6-0.1,0.9-0.4,1-1c1.3-4.7,5.3-7.7,10.1-7.7c0.2,0,0.3,0,0.5,0
		c2.9,0.1,5.4,1.3,7.3,3.5c0.5,0.6,0.9,0.7,1.6,0.4C29.5,4.8,31,5,32.1,5.7c1.1,0.8,1.8,2,1.9,3.4c0.1,0.7,0.5,0.9,1,1.1
		c3.1,1.2,4.7,4.6,3.6,7.8c-0.8,2.3-3,4.1-5.4,4.2c-0.1,0-0.2,0-0.3,0l-0.1,0v-2.8c0-1.9,0-3.7,0-5.6c0-1.2-0.4-1.7-1.7-1.7
		c-6.8,0-13.7,0-20.5,0c-1.2,0-1.7,0.4-1.7,1.7C9.1,15.6,9.1,17.5,9.1,19.4z M26.4,37.7c0.8,0,1.5,0.7,1.5,1.5
		c0,0.8-0.7,1.5-1.5,1.5c-0.9,0-1.5-0.6-1.5-1.5c0-0.4,0.2-0.8,0.4-1.1C25.6,37.9,25.9,37.7,26.4,37.7L26.4,37.7z M37,37.7
		c0.8,0,1.5,0.7,1.5,1.5c0,0.8-0.7,1.5-1.5,1.5c-0.4,0-0.8-0.2-1.1-0.4c-0.3-0.3-0.4-0.7-0.4-1.1C35.5,38.4,36.2,37.7,37,37.7z"/>
	<path id="XMLID_993_" class="st0" d="M12.5,27.4L12.5,27.4c0.1,0,0.1,0,0.2,0c0.3,0,0.5-0.2,0.7-0.5c0.1-0.2,0.2-0.5,0.3-0.7
		c0.1-0.2,0.1-0.4,0.2-0.6c0.1-0.3,0.2-0.4,0.6-0.4c0.8,0,1.6,0,2.3,0c0.3,0,0.5,0.1,0.6,0.4l0.5,1.3c0.1,0.2,0.2,0.4,0.4,0.5
		c0.2,0.1,0.5,0.1,0.8-0.1l0.1-0.1l-0.7-1.9c-0.7-1.9-1.4-3.8-2.2-5.6c-0.1-0.2-0.4-0.5-0.7-0.4c-0.2,0.1-0.5,0.3-0.6,0.6
		c-0.8,2-1.6,4.1-2.6,6.8c0,0,0,0.1,0,0.1c-0.1,0.1-0.2,0.3-0.1,0.5C12.3,27.3,12.4,27.4,12.5,27.4z M14.5,24.2l1.1-3.1h0l1.1,3.1
		H14.5z"/>
	<path id="XMLID_996_" class="st0" d="M20.5,27.3c0.1,0.1,0.2,0.1,0.4,0.1h0c0.2,0,0.3-0.1,0.4-0.2c0.2-0.2,0.2-0.4,0.2-0.6l0,0
		l0-0.6c0-0.5,0-0.9,0-1.4c0-0.2,0-0.3,0.1-0.3c0.1-0.1,0.2-0.1,0.3-0.1l0.2,0c0.4,0,0.9,0.1,1.3,0c0.5-0.1,1.2-0.2,1.8-0.6
		c0.9-0.6,1.1-1.9,0.8-2.8c-0.4-1-1.3-1.7-2.5-1.7c-0.3,0-0.7,0-1,0c-0.4,0-0.9,0-1.3,0c-0.3,0-0.4,0-0.5,0.2
		c-0.1,0.1-0.2,0.3-0.2,0.5c0,0.8,0,1.6,0,2.3l0,2.4c0,0.6,0,1.3,0,1.9l0,0.1C20.3,26.9,20.3,27.2,20.5,27.3z M21.5,21l0-0.6
		c0.2,0,0.3,0,0.5,0l0.1,0c0.5,0,1,0,1.5,0c0.8,0.1,1.2,0.5,1.3,1.3c0,1-0.3,1.4-1.1,1.5c-0.6,0.1-1.2,0.1-1.7,0.1
		c-0.1,0-0.2,0-0.3,0c0,0,0,0-0.1,0c0,0-0.1-0.1-0.1-0.1C21.5,22.4,21.5,21.7,21.5,21z"/>
	<path id="XMLID_997_" class="st0" d="M27.9,27.4L27.9,27.4c0.1,0,0.1,0,0.1,0c0.1,0,0.2,0,0.3-0.1c0.1-0.1,0.2-0.3,0.2-0.6
		c0-1.9,0-3.8,0-5.7l0-1.2c0-0.3,0-0.7-0.6-0.7c-0.2,0-0.3,0-0.4,0.1c-0.1,0.1-0.1,0.3-0.1,0.6c0,0.8,0,1.6,0,2.4v0.8l0,0l0,1
		c0,0.9,0,1.8,0,2.6C27.4,27,27.7,27.4,27.9,27.4z"/>
	<path id="XMLID_998_" class="st0" d="M11.7,14c-0.3,0-0.6,0-0.8,0.2c-0.1,0.1-0.2,0.3-0.2,0.5c0,0.6,0.5,0.6,0.8,0.6l0.1,0l0.2,0
		c0.3,0,0.8,0,0.9-0.6c0-0.2-0.1-0.4-0.2-0.5C12.3,14,12,14,11.7,14z"/>
	<path id="XMLID_999_" class="st0" d="M24.1,14c-0.3,0-0.6,0-0.8,0.2c-0.1,0.1-0.2,0.3-0.2,0.5c0,0.6,0.5,0.6,0.8,0.6l0.1,0l0.2,0
		c0.3,0,0.8,0,0.9-0.6c0-0.2-0.1-0.4-0.2-0.5C24.7,14,24.4,14,24.1,14z"/>
	<path id="XMLID_1023_" class="st0" d="M26.8,14c-0.3,0-0.6,0-0.8,0.2c-0.1,0.1-0.2,0.3-0.2,0.5c0,0.6,0.5,0.6,0.8,0.6l0.1,0l0.2,0
		c0.3,0,0.8,0,0.9-0.6c0-0.2-0.1-0.4-0.2-0.5C27.4,14,27.1,14,26.8,14z"/>
	<path id="XMLID_1024_" class="st0" d="M29.5,14c-0.3,0-0.6,0-0.8,0.2c-0.1,0.1-0.2,0.3-0.2,0.5c0,0.6,0.5,0.6,0.8,0.6l0.1,0l0.2,0
		c0.3,0,0.8,0,0.9-0.6c0-0.2-0.1-0.4-0.2-0.5C30.1,14,29.8,14,29.5,14z"/>
</g>
</svg>
