<svg width="42" height="42" viewBox="0 0 42 42" fill="none" xmlns="http://www.w3.org/2000/svg">
<g clip-path="url(#clip0_698_50)">
<g clip-path="url(#clip1_698_50)">
<path d="M15.2 34C13.5 34 12.2 35.4 12.1 37C12.1 38.6 13.4 40.1 15 40.1C15 40.1 15 40.1 15.1 40.1C15.9 40.1 16.7 39.8 17.3 39.2C17.9 38.6 18.2 37.9 18.2 37.1C18.2 36.3 17.9 35.5 17.3 34.9C16.8 34.4 16 34 15.2 34ZM16.6 38.5C16.2 38.9 15.7 39.1 15.2 39.1C14.1 39.1 13.2 38.2 13.2 37C13.2 35.9 14.1 35 15.2 35C15.7 35 16.3 35.2 16.6 35.6C17 36 17.2 36.5 17.2 37.1C17.2 37.6 17 38.1 16.6 38.5Z" fill="white"/>
<path d="M18.2 2.90002H12.3V3.80002H18.2V2.90002Z" fill="white"/>
<path d="M37.6 29.4C36.8 28.7 33.5 25.5 32.4 24.5C32.6 23.9 32.7 22.7 31.7 21.4C30.5 20.1 28.8 20.4 28.1 20.7C27.9 20.8 27.8 20.9 27.8 21.1C27.8 21.3 27.8 21.4 27.9 21.6L28.6 22.4L27.5 23.4L26.6 22.6C26.5 22.5 26.3 22.4 26.1 22.5C25.9 22.6 25.8 22.7 25.8 22.9C25.8 23 25.4 25.2 26.9 26.5C28 27.5 29.4 27.3 29.9 27.2C30.8 28.1 34.5 32.2 35.2 33C35.8 33.7 36.5 34 37.2 34.1C37.8 34.1 38.3 33.9 38.7 33.4C39 33 39.2 32.6 39.2 32.1C39.1 31 38.3 30 37.6 29.4ZM38 32.6C37.8 32.8 37.5 33 37.2 33C36.8 33 36.3 32.7 36 32.3C35.2 31.4 30.6 26.4 30.4 26.2C30.3 26.1 30.2 26 30 26C29.9 26 29.9 26 29.8 26C29.8 26 28.5 26.5 27.5 25.6C27 25.1 26.8 24.5 26.7 23.9L27.2 24.3C27.4 24.5 27.7 24.5 27.9 24.3L29.6 22.6C29.8 22.4 29.8 22.1 29.6 21.9L29.1 21.4C29.6 21.4 30.2 21.5 30.7 22C31.7 23.1 31.2 24.3 31.2 24.3C31.1 24.5 31.1 24.7 31.3 24.9C31.8 25.3 35.9 29.3 36.8 30.1C37.6 30.8 38.1 31.5 38.1 32C38.2 32.3 38.1 32.5 38 32.6Z" fill="white"/>
<path d="M36.9 32.4C37.2314 32.4 37.5 32.1314 37.5 31.8C37.5 31.4686 37.2314 31.2 36.9 31.2C36.5686 31.2 36.3 31.4686 36.3 31.8C36.3 32.1314 36.5686 32.4 36.9 32.4Z" fill="white"/>
<path d="M3.09998 19.6C3.09998 19.8 3.19998 20 3.29998 20.1C3.39998 20.2 3.59998 20.3 3.89998 20.3C4.09998 20.3 4.19998 20.3 4.39998 20.3C4.69998 20.3 4.89998 20.3 5.19998 20.3C5.49998 20.3 5.59998 20.4 5.79998 20.7V20.8C5.99998 21.4 5.99998 21.4 5.39998 22C5.29998 22.1 5.29998 22.1 5.19998 22.2C5.09998 22.3 4.99998 22.4 4.79998 22.6C4.59998 22.8 4.49998 23 4.49998 23.1C4.49998 23.3 4.59998 23.5 4.79998 23.7C5.19998 24.1 5.69998 24.6 6.09998 25C6.59998 25.5 6.89998 25.8 7.19998 25.8C7.49998 25.8 7.69998 25.5 8.19998 25C8.69998 24.5 9.09998 24.3 9.69998 24.7C9.89998 24.9 9.99998 24.9 9.99998 25.2C9.99998 25.4 9.99998 25.7 9.99998 25.9C9.99998 26.1 9.99998 26.3 9.99998 26.5C9.99998 26.8 9.99998 27 10.2 27.1C10.3 27.2 10.5 27.3 10.8 27.3C11.2 27.3 11.6 27.3 12 27.3C12.2 27.3 12.4 27.3 12.6 27.3C12.7 27.3 12.7 27.3 12.8 27.3C13.4 27.3 13.8 27.3 14 27.1C14.2 26.9 14.2 26.5 14.2 25.8C14.2 25.1 14.3 24.7 15 24.5C15.3 24.4 15.4 24.4 15.6 24.6C15.8 24.8 16 25 16.2 25.2C16.3 25.3 16.4 25.4 16.5 25.5C16.8 25.8 17.1 25.8 17.5 25.5C17.8 25.2 18.1 24.9 18.4 24.6C18.7 24.3 19.1 23.9 19.4 23.6C19.6 23.4 19.6 23.3 19.6 23.1C19.6 22.9 19.5 22.8 19.3 22.6C19.2 22.5 19.1 22.4 18.9 22.2C18.7 22 18.5 21.8 18.3 21.6C18.1 21.4 18.1 21.3 18.2 21C18.5 20.2 18.5 20.2 19.4 20.3C19.5 20.3 19.6 20.3 19.6 20.3C19.8 20.3 19.9 20.3 20.1 20.3C20.4 20.3 20.6 20.3 20.7 20.1C21 20 21 19.8 21 19.5C21 18.6 21 17.8 21 16.9C21 16.6 20.9 16.5 20.8 16.3C20.7 16.2 20.5 16.1 20.2 16.1C20.1 16.1 19.9 16.1 19.8 16.1C19.5 16.1 19.2 16.1 18.9 16.1C18.6 16.1 18.5 16 18.4 15.7C18.4 15.6 18.3 15.4 18.2 15.3C18 15 18.1 14.9 18.3 14.6C18.5 14.4 18.8 14.1 19 13.9C19.1 13.8 19.1 13.8 19.2 13.7C19.5 13.4 19.5 13 19.2 12.7C18.6 12.1 17.9 11.4 17.3 10.8C17.1 10.6 17 10.6 16.8 10.6C16.6 10.6 16.4 10.7 16.3 10.9C16.2 11 16.1 11.1 16 11.2C15.8 11.4 15.6 11.6 15.4 11.9C15.2 12.1 15.1 12.1 14.8 12C14.1 11.8 13.9 11.5 14 10.7C14 10.5 14 10.4 14 10.2C14 10.1 14 10 14 9.90001C14 9.70001 14 9.50001 13.8 9.40001C13.7 9.30001 13.5 9.20001 13.3 9.20001C13 9.20001 12.7 9.20001 12.4 9.20001H12.1H11.8H11.4C10.7 9.20001 10.3 9.20001 10.1 9.40001C9.89998 9.60001 9.89998 10 9.99998 10.7C9.99998 11.4 9.89998 11.8 9.19998 12C8.99998 12.1 8.89998 12.1 8.69998 12C8.49998 11.8 8.29998 11.5 7.99998 11.3C7.89998 11.2 7.79998 11.1 7.69998 11C7.49998 10.8 7.39998 10.7 7.19998 10.7C6.99998 10.7 6.79998 10.8 6.69998 11C6.19998 11.6 5.49998 12.2 4.89998 12.8C4.69998 13 4.59998 13.2 4.59998 13.4C4.59998 13.6 4.69998 13.8 4.89998 14C4.99998 14 5.09998 14.1 5.19998 14.2C5.39998 14.4 5.59998 14.6 5.79998 14.7C5.99998 15 5.99998 15.1 5.89998 15.4C5.69998 16 5.39998 16.2 4.69998 16.1C4.49998 16.1 4.29998 16.1 4.19998 16.1C4.09998 16.1 3.99998 16.1 3.89998 16.1C3.69998 16.1 3.49998 16.1 3.29998 16.3C3.19998 16.4 3.09998 16.6 3.09998 16.9V17.3C3.09998 18.1 3.09998 18.8 3.09998 19.6ZM4.19998 17.3C4.29998 17.3 4.39998 17.3 4.59998 17.3C4.99998 17.3 5.39998 17.3 5.79998 17.3C6.09998 17.3 6.39998 17 6.49998 16.8C6.69998 16.5 6.79998 16.2 6.89998 16C6.99998 15.8 6.99998 15.6 7.09998 15.5C7.29998 15.1 7.19998 14.8 6.89998 14.6C6.59998 14.4 6.29998 14.1 5.99998 13.8C5.89998 13.7 5.79998 13.6 5.69998 13.5L7.29998 12C7.39998 12.1 7.39998 12.1 7.49998 12.2C7.69998 12.5 7.99998 12.7 8.19998 13C8.49998 13.4 8.89998 13.4 9.29998 13.2C9.69998 13 10.1 12.8 10.5 12.7C11 12.6 11.2 12.3 11.1 11.8C11.1 11.5 11.1 11.1 11.1 10.7C11.1 10.6 11.1 10.5 11.1 10.3H13.1C13.1 10.4 13.1 10.5 13.1 10.7C13.1 11.1 13.1 11.4 13.1 11.7C13.1 12.2 13.3 12.5 13.8 12.6C14.2 12.7 14.6 12.9 14.9 13.1C15.3 13.3 15.6 13.3 15.9 12.9C16.1 12.6 16.4 12.4 16.6 12.1C16.7 12 16.8 11.9 16.8 11.8L18.3 13.3L18 13.5C17.7 13.8 17.4 14 17.1 14.3C16.7 14.6 16.8 15 17 15.2C17.1 15.4 17.2 15.6 17.2 15.8C17.3 16.1 17.4 16.3 17.5 16.6C17.6 16.8 17.9 17 18.2 17.1C18.6 17.1 19 17.1 19.4 17.1C19.5 17.1 19.6 17.1 19.8 17.1V19C19.7 19 19.6 19 19.5 19C19.2 19 18.8 19 18.5 19C18 19 17.8 19.2 17.6 19.6C17.5 20 17.4 20.3 17.2 20.7C16.9 21.2 17 21.6 17.4 21.9C17.7 22.1 17.9 22.4 18.1 22.6C18.2 22.7 18.3 22.8 18.3 22.8L16.7 24.3L16.5 24.1C16.3 23.8 16 23.5 15.8 23.2C15.5 22.9 15.2 22.8 14.8 23C14.4 23.2 14 23.4 13.5 23.5C13.1 23.6 12.9 23.9 12.9 24.3C12.9 24.6 12.9 25 12.9 25.3C12.9 25.4 12.9 25.5 12.9 25.7H10.9C10.9 25.6 10.9 25.5 10.9 25.3C10.9 25 10.9 24.6 10.9 24.2C10.9 23.7 10.7 23.5 10.3 23.4C9.89998 23.3 9.49998 23.1 9.09998 22.9C8.69998 22.7 8.39998 22.7 8.09998 23.1C7.99998 23.7 7.79998 24 7.49998 24.2C7.39998 24.3 7.29998 24.4 7.19998 24.5L5.79998 23.1C5.99998 23 5.99998 22.9 6.09998 22.9C6.29998 22.7 6.59998 22.4 6.89998 22.1C7.19998 21.7 7.29998 21.4 6.99998 21C6.79998 20.7 6.69998 20.3 6.49998 19.8C6.39998 19.4 6.09998 19.2 5.59998 19.2C5.29998 19.2 4.89998 19.2 4.49998 19.2C4.39998 19.2 4.19998 19.2 4.09998 19.2V17.3H4.19998Z" fill="white"/>
<path d="M12.1 22H12.2C14.1 22 15.8 20.4 15.9 18.4C16 16.4 14.3 14.6 12.3 14.5C11.3 14.4 10.3 14.8 9.49997 15.5C8.69997 16.2 8.29997 17.1 8.29997 18.1C8.19997 20.2 9.79997 21.9 12.1 22ZM12.1 15.6C13.6 15.6 14.8 16.8 14.8 18.3C14.8 19.8 13.6 21 12.1 21C10.6 21 9.39997 19.8 9.39997 18.3C9.39997 16.7 10.6 15.6 12.1 15.6Z" fill="white"/>
<path d="M41.6 11.7C41.6 11.2 41.6 10.9 41.5 10.8C41.3 10.6 41.1 10.6 40.6 10.6C40.4 10.6 40.3 10.6 40.2 10.4C40.1 10.2 40.2 10.1 40.3 9.90001C40.4 9.80001 40.4 9.80001 40.5 9.70001C40.5 9.60001 40.6 9.60001 40.6 9.50001C40.7 9.40001 40.8 9.20001 40.8 9.10001C40.8 9.00001 40.7 8.80001 40.6 8.70001C40.5 8.60001 40.4 8.50001 40.2 8.30001C40.1 8.20001 40 8.10001 40 8.10001C39.3 7.40001 39.2 7.40001 38.5 8.10001C38.4 8.20001 38.3 8.30001 38.1 8.20001C37.9 8.10001 37.8 8.00001 37.8 7.70001C37.8 7.60001 37.8 7.50001 37.8 7.40001C37.8 7.30001 37.8 7.30001 37.8 7.20001C37.8 7.00001 37.8 6.90001 37.7 6.80001C37.6 6.70001 37.5 6.70001 37.3 6.70001C37 6.70001 36.7 6.70001 36.4 6.70001H36.3C35.8 6.70001 35.6 6.70001 35.5 6.80001C35.4 6.90001 35.4 7.20001 35.4 7.70001C35.4 7.90001 35.3 8.00001 35.1 8.20001C34.9 8.30001 34.8 8.20001 34.7 8.10001C34.7 8.00001 34.6 8.00001 34.6 7.90001C34.5 7.80001 34.5 7.80001 34.4 7.70001C34.3 7.60001 34.1 7.50001 34 7.50001C33.9 7.50001 33.7 7.60001 33.6 7.70001C33.2 8.00001 33 8.20001 32.8 8.40001C32.4 8.80001 32.3 8.90001 32.3 9.10001C32.3 9.30001 32.5 9.50001 32.8 9.80001C32.9 9.90001 33 10 32.9 10.2C32.8 10.4 32.7 10.5 32.5 10.5C32.3 10.5 32.2 10.5 32 10.5C31.6 10.5 31.4 10.7 31.4 11.1C31.4 11.3 31.4 11.5 31.4 11.7C31.4 11.8 31.4 11.9 31.4 12C31.4 12.5 31.4 12.7 31.5 12.9C31.6 13 31.9 13 32.4 13C32.7 13 32.8 13 32.9 13.3C33 13.5 32.9 13.6 32.7 13.8C32.6 13.9 32.6 13.9 32.5 14L32.4 14.1C32.3 14.2 32.2 14.4 32.2 14.5C32.2 14.6 32.3 14.8 32.4 14.9C32.5 15 32.6 15.1 32.8 15.3C32.9 15.4 33 15.5 33 15.5C33.1 15.6 33.1 15.6 33.1 15.6C33.4 15.9 33.5 16 33.7 16C33.9 16 34.1 15.8 34.5 15.4H34.6C34.7 15.4 34.8 15.4 34.9 15.4C35 15.4 35.1 15.6 35.1 15.7C35.1 16.4 35.1 16.6 35.3 16.8C35.4 16.9 35.5 16.9 35.7 16.9C35.8 16.9 35.8 16.9 35.9 16.9C36 16.9 36.1 16.9 36.3 16.9H36.5H36.6C37.1 16.9 37.4 16.9 37.5 16.7C37.6 16.5 37.6 16.3 37.6 15.8C37.6 15.6 37.7 15.5 37.9 15.4C38.1 15.3 38.2 15.4 38.4 15.6C38.5 15.7 38.6 15.8 38.7 15.9C39 16.1 39.2 16.1 39.5 15.9C39.7 15.7 39.8 15.6 40 15.4L40.1 15.3C40.5 14.9 40.6 14.8 40.6 14.6C40.6 14.4 40.4 14.2 40.1 13.9C39.9 13.7 39.9 13.6 40 13.4C40.1 13.2 40.2 13.1 40.4 13.1C40.5 13.1 40.6 13.1 40.7 13.1C40.8 13.1 40.8 13.1 40.9 13.1C41.1 13.1 41.3 13.1 41.4 13C41.5 12.9 41.6 12.7 41.6 12.5C41.6 12.3 41.6 12.1 41.6 11.9C41.6 11.9 41.6 11.8 41.6 11.7ZM40.8 12.3C40.2 12.3 39.7 12.3 39.4 13.1C39.1 13.8 39.4 14.1 39.7 14.4C39.8 14.5 39.9 14.6 39.9 14.7L39.3 15.3C39.2 15.2 39.2 15.2 39.1 15.1C38.9 14.9 38.7 14.7 38.4 14.7C38.1 14.7 37.7 14.8 37.4 15L37.3 15.1C36.9 15.3 37 15.6 37 15.9C37 16.1 37 16.2 37 16.3H36.2C36.2 16.2 36.2 16.2 36.2 16.1C36.2 15.6 36.2 15.2 35.5 14.9C34.8 14.6 34.5 14.9 34.2 15.2C34.1 15.3 34.1 15.3 34 15.4L33.4 14.8C33.5 14.7 33.6 14.6 33.7 14.5C33.9 14.3 34.2 14.1 34 13.7C33.8 13.2 33.7 12.8 33.3 12.6C33.1 12.5 32.8 12.5 32.5 12.6V11.7C32.6 11.7 32.6 11.7 32.7 11.7C33.2 11.7 33.6 11.7 33.9 11C34.2 10.3 33.9 10 33.6 9.70001C33.5 9.60001 33.5 9.50001 33.4 9.50001L34.1 8.80001L34.2 8.90001C34.3 9.00001 34.4 9.20001 34.6 9.30001C34.8 9.50001 35 9.60001 35.3 9.40001H35.4C36.2 9.20001 36.5 8.80001 36.4 8.00001L36.5 7.90001C36.7 7.90001 36.9 7.90001 37 7.90001C37.1 7.90001 37.1 7.90001 37.2 7.90001C37.2 8.00001 37.2 8.10001 37.2 8.20001C37.2 8.60001 37.2 9.10001 37.9 9.30001C38.7 9.60001 39.1 9.20001 39.4 8.80001L40 9.50001L39.9 9.60001C39.6 9.90001 39.2 10.3 39.5 11C39.8 11.7 40.2 11.7 40.7 11.7C40.8 11.7 40.9 11.7 41 11.7V12.3H40.8Z" fill="white"/>
<path d="M36.6 10C36.1 10 35.6 10.2 35.2 10.5C34.8 10.8 34.6 11.3 34.6 11.8C34.6 12.9 35.4 13.7 36.5 13.8C36.5 13.8 36.5 13.8 36.6 13.8C37.6 13.8 38.4 13 38.5 12C38.5 10.9 37.7 10 36.6 10ZM36.6 13C36 13 35.5 12.5 35.5 11.9C35.5 11.3 36 10.8 36.6 10.8C37.2 10.8 37.7 11.3 37.7 11.9C37.7 12.5 37.2 13 36.6 13Z" fill="white"/>
<path d="M30.6 29.4C30.6 29.1 30.5 28.7 30.4 28.3V28.2L30.3 28.3C30.1 28.5 29.7 28.8 29.7 29.1C29.7 29.4 29.7 29.6 29.7 29.9C29.7 30 29.7 30.1 29.7 30.2H28.3V30.1C28.3 29.9 28.3 29.8 28.3 29.6C28.3 29.5 28.3 29.5 28.3 29.4C28.3 29.2 28.3 29 28.3 28.8C28.2 28.4 27.5 28.2 27.3 28.1C26.8 28 26.2 27.9 26 28.1C25.8 28.3 25.7 28.5 25.4 28.7C25.3 28.8 25.2 28.9 25.1 29C25.1 28.9 25 28.9 25 28.8C24.9 28.6 24.8 28.5 24.7 28.3C24.6 28.2 24.4 28 24.3 28C24.3 28 24.3 28 24.2 28C24.3 27.8 24.5 27.6 24.7 27.4C25 27.1 25.4 26.8 25.2 26.3C25.2 26.2 25.1 26.1 25.1 26.1C25 25.7 24.8 25.2 24.5 24.9C24.2 24.7 23.8 24.7 23.4 24.7C23.3 24.7 23.1 24.7 23 24.7V23.3C23.1 23.3 23.2 23.3 23.3 23.3C23.6 23.3 23.9 23.3 24.1 23.3C24.5 23.3 24.7 23.2 24.8 22.8C24.8 22.6 24.9 22.4 25 22.2C25.4 21.3 25.4 21.2 24.7 20.5C24.6 20.4 24.5 20.3 24.4 20.3C24.4 20.3 24.4 20.3 24.3 20.3L25.4 19.3C25.6 19.4 25.7 19.5 25.8 19.7C26 20 26.3 20.4 26.9 20.2C27 20.2 27 20.2 27.1 20.1C27.6 20 28.1 19.8 28.3 19.4C28.5 19.1 28.5 18.7 28.5 18.3C28.5 18.2 28.5 18 28.5 17.9H29.8V18.1C29.8 18.3 29.8 18.6 29.8 18.8V18.9C29.8 19 29.8 19.1 29.8 19.2C29.9 19.5 30.4 19.8 30.9 20C31.1 20.1 31.9 20.3 32.1 20C32.3 19.8 32.5 19.6 32.7 19.4C32.8 19.3 32.8 19.3 32.9 19.2L34.1 20.3L33.9 20.5C33.7 20.7 33.5 20.9 33.3 21.1C33 21.3 33 21.6 33.2 22C33.3 22.1 33.3 22.3 33.4 22.4C33.8 23.4 33.9 23.5 35 23.5C35.1 23.5 35.2 23.5 35.3 23.5H35.4C35.4 23.6 35.4 23.6 35.4 23.7C35.4 24 35.4 24.3 35.4 24.7V25C35.3 25 35.2 25 35.1 25C34.8 25 34.6 25 34.3 25C33.9 25 33.6 25.2 33.5 25.6L33.4 25.8L35.8 26.1C36.1 26 36.3 25.8 36.3 25.4C36.3 25.2 36.3 24.9 36.3 24.7C36.3 24.6 36.3 24.4 36.3 24.3C36.3 24.2 36.3 24.1 36.3 23.9C36.3 23.3 36.3 23 36.1 22.9C35.9 22.7 35.7 22.7 35.1 22.8C35 22.8 34.8 22.8 34.7 22.8C34.4 22.8 34.2 22.7 34.1 22.4C33.9 22 34 21.8 34.3 21.6C34.4 21.5 34.6 21.4 34.7 21.2L34.8 21.1C35.2 20.6 35.2 20.4 34.8 20C34.7 19.9 34.5 19.8 34.4 19.6C34.2 19.4 34 19.3 33.9 19.1C33.4 18.6 33.2 18.4 32.9 18.4C32.6 18.4 32.4 18.7 32 19.1C31.7 19.5 31.4 19.5 31 19.3C30.7 19.2 30.7 18.9 30.8 18.7C30.8 18.6 30.8 18.5 30.8 18.4V18.3C30.8 17.3 30.7 17.3 29.7 17.2H29.6V16.4C29.6 15.2 29.6 14 29.6 12.8C29.6 10 29.6 7 29.6 4.1C29.4 1.5 28 0 26 0C20.9 0 10.3 0 3.4 0C1.8 0 0.5 1 0.1 2.6C0 3 0 3.5 0 3.9V4C0 9.2 0 14.4 0 19.7V24.3C0 25.7 0 27.1 0 28.5C0 31.8 0 35.1 0 38.4C0 40.5 1.4 42 3.5 42C5.9 42 13.3 42 15.5 42C19 42 22.2 42 24.9 42H25.4C26.3 41.9 27.1 41.8 27.6 41.6C28.7 41.1 29.3 40.1 29.4 38.8C29.4 38.7 29.4 38.5 29.4 38.4V31.2H29.5C29.6 31.2 29.7 31.2 29.8 31.2C30.5 31.2 30.6 31.1 30.6 30.4C30.6 30.3 30.6 30.3 30.6 30.2C30.6 29.9 30.6 29.7 30.6 29.4ZM28.4 16.6C28.4 16.7 28.4 16.7 28.4 16.6C27.3 16.7 27.2 16.8 27.2 17.9C27.2 18.4 27.1 18.6 26.7 18.7C26.4 18.8 26.3 18.8 26.1 18.6C25.9 18.4 25.7 18.2 25.5 18C25.2 17.7 24.9 17.7 24.6 18C24.3 18.3 24 18.6 23.8 18.8C23.6 19 23.4 19.2 23.2 19.4C22.9 19.7 22.9 20 23.2 20.3C23.3 20.4 23.3 20.4 23.4 20.5C23.5 20.6 23.6 20.8 23.8 20.9C24.1 21.1 24.2 21.4 24 21.8C23.9 22.1 23.8 22.1 23.5 22.1C23.3 22.1 23.2 22.1 23 22.1C22.5 22.1 22.3 22.1 22.1 22.2C21.9 22.4 21.9 22.6 21.9 23.2C21.9 23.3 21.9 23.4 21.9 23.6V24C21.9 24.2 21.9 24.5 21.9 24.7C21.9 24.9 22 25.1 22.1 25.2C22.2 25.3 22.4 25.4 22.6 25.4C22.7 25.4 22.7 25.4 22.8 25.4C23 25.4 23.1 25.4 23.3 25.4C23.5 25.4 23.7 25.4 23.9 25.5C24 25.6 24.1 25.8 24.1 26C24.1 26.2 24.1 26.3 24 26.4C23.9 26.6 23.7 26.7 23.6 26.9C23.5 27 23.4 27.1 23.3 27.2C23 27.5 23 27.8 23.3 28.1L23.6 28.4C24 28.8 24.4 29.2 24.8 29.5C25 29.7 25.1 29.7 25.3 29.7C25.5 29.7 25.6 29.6 25.8 29.4C25.9 29.3 25.9 29.3 26 29.2C26.1 29.1 26.2 29 26.3 28.9C26.4 28.7 26.6 28.6 26.7 28.6C26.8 28.6 27 28.6 27.2 28.8C27.3 28.9 27.4 29.1 27.5 29.2C27.5 29.4 27.5 29.5 27.5 29.7C27.5 29.8 27.5 29.9 27.5 30C27.5 30.7 27.7 30.8 28.3 30.9C28.4 30.9 28.5 30.9 28.6 30.9H28.7V31.9H1V6.9H28.4V16.6ZM0.9 5.8C0.9 5.5 0.9 5.2 0.9 4.9C0.9 4.1 0.9 3.3 1.1 2.6C1.3 1.7 2 1.1 3 1.1C4 1 9.9 1 10.7 1C10.9 1 11.1 1 11.3 1C15.8 1 20.6 1 25.5 1C26.3 1 26.9 1 27.5 1.5C28.1 2 28.4 2.6 28.4 3.2C28.4 3.8 28.4 4.4 28.4 5C28.4 5.2 28.4 5.5 28.4 5.7H0.9V5.8ZM25.6 40.9H25.5C24.7 40.9 20.5 40.9 20.5 40.9C16.7 40.9 7.6 40.9 3.5 40.9C2 41 1 40 1 38.4C1 37.2 1 35.9 1 34.7C1 34.3 1 33.9 1 33.5C1 33.4 1 33.4 1 33.3H28.4V38.6C28.4 40.2 27.6 40.9 25.6 40.9Z" fill="white"/>
</g>
</g>
<defs>
<clipPath id="clip0_698_50">
<rect width="42" height="42" fill="white"/>
</clipPath>
<clipPath id="clip1_698_50">
<rect width="41.6" height="42" fill="white"/>
</clipPath>
</defs>
</svg>
