<?xml version="1.0" encoding="utf-8"?>
<!-- Generator: Adobe Illustrator 19.0.0, SVG Export Plug-In . SVG Version: 6.00 Build 0)  -->
<svg version="1.1" id="Layer_1" xmlns="http://www.w3.org/2000/svg" xmlns:xlink="http://www.w3.org/1999/xlink" x="0px" y="0px"
	 viewBox="0 0 42 42" style="enable-background:new 0 0 42 42;" xml:space="preserve">
<style type="text/css">
	.st0{fill:#FFFFFF;}
</style>
<g id="XMLID_849_">
	<path id="XMLID_910_" class="st0" d="M39.6,4.8c-2.6,0-5.3,0-7.9,0c-0.3,0-0.6-0.2-0.8-0.4c-2.3-2.5-5-4.1-8.4-4.4
		C18-0.4,14.3,1.1,11.4,4.4c-0.3,0.3-0.5,0.4-0.9,0.4c-2.6,0-5.3,0-7.9,0C1,4.8,0.4,5.5,0.4,7.1c0,8,0,16.1,0,24.1
		c0,1.7,0.9,2.6,2.6,2.6c4,0,8,0,12,0c0.3,0,0.5,0,0.8,0c0,1.2,0,2.4,0,3.6c-0.3,0-0.5,0-0.7,0c-2.6,0-5.3,0-7.9,0
		c-1.3,0-1.6,0.3-1.6,1.5c0,0.5,0,1.1,0,1.6C5.5,41.7,5.7,42,7,42c7.3,0,14.6,0,21.9,0c2.2,0,4.3,0,6.5,0c0.9,0,1.3-0.4,1.3-1.3
		c0-0.7,0-1.4,0-2.1c0-0.9-0.4-1.2-1.2-1.3c-0.9,0-1.8,0-2.7,0c-0.4,0-0.9,0-0.9,0.6c0,0.5,0.4,0.6,0.9,0.6c0.9,0,1.7,0,2.7,0
		c0,0.5,0,1,0,1.4c0.1,0.6-0.1,0.8-0.8,0.8c-9.1,0-18.2,0-27.3,0c-0.2,0-0.5,0-0.7,0c0-0.8,0-1.4,0-2.2c0.3,0,0.5,0,0.8,0
		c7.2,0,14.4,0,21.5,0c0.2,0,0.5,0.1,0.6,0c0.2-0.1,0.4-0.4,0.5-0.6c0-0.2-0.2-0.4-0.4-0.5c-0.2-0.1-0.5,0-0.7,0c-0.8,0-1.7,0-2.6,0
		c0-1.2,0-2.4,0-3.6c0.3,0,0.6,0,0.8,0c4,0,7.9,0,11.9,0c1.8,0,2.6-0.9,2.6-2.6c0-8,0-16.1,0-24.1C41.8,5.5,41.1,4.8,39.6,4.8z
		 M32,9c0.2,0.6,0.4,1.3,0.5,1.9c0.1,0.4,0.1,0.8,0.1,1.2c-1.6,0-3.2,0-4.8,0c-0.2-1.5-0.4-2.9-0.5-4.5c0.9,0,1.9,0,2.8,0
		C31.6,7.7,31.6,7.6,32,9z M21.8,19.2c1.3,0,2.5,0,3.7,0c-0.2,2-2.2,4.7-3.7,5C21.8,22.6,21.8,20.9,21.8,19.2z M21.7,17.9
		c0-1.5,0-3,0-4.5c1.6,0,3.1,0,4.8,0c-0.2,1.5-0.4,3-0.5,4.5C24.6,17.9,23.2,17.9,21.7,17.9z M26.8,19.5c0-0.1,0.2-0.3,0.4-0.3
		c1.1,0,2.3,0,3.6,0c-1.6,2.3-3.6,3.8-6.2,4.7C25.7,22.5,26.3,21,26.8,19.5z M27.3,18c0.2-1.5,0.4-3,0.5-4.5c1.6,0,3.1,0,4.8,0
		c0,1.5-0.4,2.9-1.1,4.2c-0.1,0.1-0.3,0.2-0.4,0.2C29.9,18,28.6,18,27.3,18z M30.8,6.4c-1.3,0-2.4,0-3.6,0c-0.1,0-0.3-0.2-0.4-0.3
		c-0.7-1.4-1.3-2.8-1.9-4.2C27.2,2.6,29.2,4.1,30.8,6.4z M21.8,1.4c1.4,0.1,3.3,2.6,3.8,5c-1.2,0-2.5,0-3.8,0
		C21.8,4.7,21.8,3.1,21.8,1.4z M21.1,8.9c0.7,0,0.5-0.7,0.7-1.3c1.3,0,2.6,0,3.9,0C25.8,7.7,26,7.9,26,8c0.2,1.4,0.4,2.7,0.6,4.1
		c-1.7,0-3.3,0-4.8,0c-0.2-0.5,0.2-1.4-0.7-1.4c-0.9,0-0.5,0.9-0.7,1.4c-1.5,0-3.1,0-4.8,0c0.2-1.4,0.4-2.8,0.6-4.2
		c0-0.1,0.2-0.3,0.3-0.3c1.3,0,2.6,0,3.9,0C20.6,8.2,20.3,9,21.1,8.9z M14.9,19.2c0.2,0,0.4,0.3,0.5,0.5c0.6,1.3,1.3,2.7,1.8,4
		c-1.3,0-4.9-2.6-5.8-4.5C12.7,19.2,13.8,19.1,14.9,19.2z M11,18c-0.1,0-0.3-0.1-0.4-0.3c-0.6-1.3-1-2.7-1.1-4.3c1.6,0,3.2,0,4.8,0
		c0.2,1.5,0.4,3,0.5,4.5C13.6,18,12.3,18,11,18z M15.6,13.5c1.7,0,3.2,0,4.8,0c0,1.5,0,3,0,4.5c-1.4,0-2.7,0-4.3,0
		C16,16.4,15.8,15,15.6,13.5z M16.7,19.2c1.2,0,2.5,0,3.8,0c0,1.7,0,3.4,0,5C19.1,24.2,17.2,21.6,16.7,19.2z M20.4,1.4
		c0,1.7,0,3.3,0,5c-1.3,0-2.5,0-3.7,0C16.8,4.5,18.9,1.7,20.4,1.4z M17.3,1.8c-0.6,1.4-1.3,2.8-1.9,4.2c-0.1,0.1-0.2,0.3-0.4,0.3
		c-1.1,0-2.3,0-3.6,0C13,4.1,15,2.6,17.3,1.8z M10.6,7.9c0.1-0.1,0.3-0.2,0.4-0.2c1.3,0,2.6,0,3.9,0c-0.2,1.5-0.4,3-0.5,4.5
		c-1.6,0-3.2,0-4.8,0C9.6,10.6,10,9.2,10.6,7.9z M25.1,37.3c-2.7,0-5.4,0-8.1,0c0-1.2,0-2.3,0-3.5c2.7,0,5.3,0,8.1,0
		C25.1,35,25.1,36.1,25.1,37.3z M40.6,27.4c0,0.1,0,0.3,0,0.5c-0.3,0-0.6,0-0.9,0c-8.8,0-17.6,0-26.3,0c-0.2,0-0.5-0.1-0.7,0
		c-0.2,0.1-0.6,0.4-0.6,0.6c0,0.2,0.3,0.5,0.5,0.6c0.2,0.1,0.4,0,0.6,0c8.8,0,17.6,0,26.5,0c0.3,0,0.5,0,0.9,0c0,0.9,0,1.6,0,2.4
		c0,0.6-0.4,1-1,1c-0.2,0-0.4,0-0.6,0c-11.9,0-23.9,0-35.8,0c-1.3,0-1.6-0.2-1.6-1.6c0-0.6,0-1.2,0-1.8c0.4,0,0.7,0,1,0
		c2.2,0,4.4,0,6.6,0c0.2,0,0.4,0.1,0.6,0c0.2-0.1,0.5-0.4,0.5-0.6c0-0.2-0.3-0.5-0.5-0.6c-0.2-0.1-0.5,0-0.7,0c-2.4,0-4.9,0-7.4,0
		c0-0.2-0.1-0.4-0.1-0.5c0-6.8,0-13.5,0-20.3c0-0.8,0.2-0.9,0.9-1c2.4,0,4.8,0,7.2,0c0.1,0,0.2,0,0.4,0C8,9.9,7.6,13.7,9.2,17.7
		c1,2.6,2.8,4.5,5.1,6c4.7,2.9,10.6,2.5,14.9-1c2.5-2,4-4.6,4.5-7.8c0.5-3.1-0.1-6-1.7-8.8c0.2,0,0.4-0.1,0.5-0.1c2.3,0,4.7,0,7,0
		c0.8,0,1,0.2,1,0.9C40.6,13.8,40.6,20.6,40.6,27.4z"/>
	<path id="XMLID_1041_" class="st0" d="M8,24.5c-1.2,0-2.5,0-3.7,0c-0.4,0-0.7,0.2-0.7,0.6c0,0.4,0.3,0.6,0.7,0.6c0.6,0,1.2,0,1.8,0
		c0.6,0,1.3,0,1.9,0c0.4,0,0.7-0.2,0.7-0.6C8.7,24.7,8.4,24.5,8,24.5z"/>
	<path id="XMLID_1042_" class="st0" d="M36.4,21.5c0.5,0.1,1.1,0.1,1.6,0c0.2,0,0.5-0.4,0.6-0.6c0-0.2-0.3-0.5-0.6-0.6
		c-0.2-0.1-0.6,0-0.8,0c0,0,0,0,0,0c-0.3,0-0.6-0.1-0.8,0c-0.2,0.1-0.6,0.4-0.6,0.6C35.8,21.1,36.2,21.4,36.4,21.5z"/>
	<path id="XMLID_1043_" class="st0" d="M36.2,23.6c0.6,0.1,1.3,0.1,1.9,0c0.2,0,0.5-0.4,0.5-0.6c0-0.2-0.3-0.5-0.6-0.6
		c-0.2-0.1-0.5,0-0.8,0c0,0,0,0,0,0c-0.3,0-0.6-0.1-0.9,0c-0.2,0.1-0.5,0.3-0.5,0.5C35.8,23.2,36.1,23.5,36.2,23.6z"/>
	<path id="XMLID_1044_" class="st0" d="M38.1,24.6c-0.6-0.1-1.2-0.1-1.8,0c-0.2,0-0.5,0.4-0.5,0.6c0,0.2,0.3,0.5,0.5,0.6
		c0.2,0.1,0.6,0,0.8,0c0.3,0,0.6,0.1,0.8,0c0.2-0.1,0.5-0.4,0.5-0.6C38.6,25,38.3,24.6,38.1,24.6z"/>
	<path id="XMLID_1045_" class="st0" d="M4.1,23.6c0.5,0.1,1.1,0.1,1.6,0c0.2,0,0.5-0.4,0.5-0.6c0-0.2-0.3-0.4-0.6-0.5
		c-0.2-0.1-0.5,0-0.7,0c-0.3,0-0.6-0.1-0.8,0c-0.2,0.1-0.5,0.4-0.5,0.6C3.6,23.2,3.9,23.5,4.1,23.6z"/>
	<path id="XMLID_1046_" class="st0" d="M38,31.3c0.2,0,0.5-0.3,0.9-0.6c-0.4-0.3-0.7-0.6-0.9-0.5c-0.2,0-0.5,0.4-0.5,0.6
		C37.4,30.9,37.8,31.3,38,31.3z"/>
	<path id="XMLID_1047_" class="st0" d="M33.6,31.3c0.2,0,0.5-0.3,0.9-0.5c-0.4-0.3-0.6-0.6-0.9-0.6c-0.2,0-0.6,0.3-0.6,0.5
		C33.1,30.9,33.4,31.3,33.6,31.3z"/>
	<path id="XMLID_1048_" class="st0" d="M35.9,31.4c0.1-0.2,0.4-0.5,0.4-0.7c0-0.2-0.4-0.4-0.5-0.6c-0.2,0.2-0.6,0.4-0.6,0.6
		c0,0.2,0.3,0.5,0.5,0.7C35.8,31.4,35.9,31.4,35.9,31.4z"/>
</g>
</svg>
