<svg width="42" height="42" viewBox="0 0 42 42" fill="none" xmlns="http://www.w3.org/2000/svg">
<g clip-path="url(#clip0_703_369)">
<g clip-path="url(#clip1_703_369)">
<g clip-path="url(#clip2_703_369)">
<path d="M3.69998 15.6C4.89998 16.1 5.99998 16 6.99998 15.1C8.39998 16.2 9.39998 16.2 11 15.1C12.4 16.2 13.4 16.2 15 15.1C16.3 16.2 17.5 16.2 19 15.1C20.4 16.2 21.5 16.1 22.9 15.1C23.4 15.5 24.1 16 24.9 15.9C25.4 15.8 25.9 15.7 26.4 15.5C26.6 15.4 26.8 15.3 27.1 15.3C27.7 15.8 28.2 16 28.8 16C29.4 16 30.1 15.7 30.9 15.2C32.4 16.3 33.4 16.3 34.9 15.2C36.1 16.2 37.6 16.2 38.7 15.3C39.5 14.6 39.7 12.9 39 11.8C38.9 11.6 38.7 11.3 38.6 11.1C38.3 10.6 38.1 10.2 37.8 9.70002C37.3 8.90002 37.1 8.10002 37.1 7.20002C37.1 6.60002 37.1 6.10002 37.1 5.50002C37.1 5.30002 37.1 5.10002 37.1 4.90002C37.1 4.10002 37 4.10002 36.2 4.10002H28.3H20.4C15.5 4.10002 10.5 4.10002 5.49998 4.10002C5.19998 4.00002 4.99998 4.10002 4.89998 4.20002C4.79998 4.30002 4.69998 4.50002 4.69998 4.80002C4.69998 5.90002 4.69998 6.90001 4.69998 8.00002C4.69998 8.30002 4.59998 8.70002 4.49998 8.90002C4.19998 9.40002 3.99998 9.80002 3.69998 10.3C3.39998 10.9 2.99998 11.5 2.69998 12.2C2.39998 12.8 2.39998 13.7 2.69998 14.4C2.79998 14.9 3.19998 15.4 3.69998 15.6ZM22.4 13.7C22.4 14.4 21.8 14.8 20.9 14.8C20.4 14.8 20 14.7 19.8 14.4C19.6 14.2 19.5 13.9 19.5 13.6C19.5 12.6 19.6 11.5 19.6 10.5C19.6 10.1 19.6 9.70002 19.6 9.30002H22.1C22.1 9.50002 22.1 9.60002 22.1 9.80002C22.1 10.2 22.2 10.7 22.2 11.1C22.3 11.8 22.4 12.8 22.4 13.7ZM18.4 13.6C18.4 14.3 17.8 14.8 16.9 14.8C16.4 14.8 16 14.6 15.8 14.4C15.6 14.2 15.5 13.9 15.6 13.6C15.7 12.4 15.9 11.3 16.1 10.1C16.1 9.90002 16.2 9.60002 16.2 9.40002C16.2 9.30002 16.4 9.20002 16.4 9.20002C16.8 9.20002 17.2 9.20002 17.6 9.20002C17.8 9.20002 18 9.20002 18.2 9.20002H18.7V10.5C18.5 11.6 18.5 12.6 18.4 13.6ZM5.79998 5.80002C5.79998 5.60002 5.79998 5.30002 5.79998 5.10002H36V8.10002H35.9C35.8 8.10002 35.6 8.10002 35.5 8.10002H28.8C21.4 8.10002 13.8 8.10002 6.39998 8.10002C6.19998 8.10002 5.99998 8.10002 5.99998 8.00002C5.79998 8.00002 5.79998 7.80001 5.79998 7.60001C5.79998 7.00001 5.79998 6.50002 5.79998 5.80002ZM37.8 14.6C37.2 15 36.2 14.9 35.7 14.4C35.5 14.2 35.4 13.9 35.4 13.8C35.5 12.8 35.1 11.9 34.8 11.1C34.7 10.9 34.6 10.8 34.6 10.6C34.5 10.3 34.3 10 34.2 9.70002L34 9.20002C34.2 9.20002 34.3 9.20002 34.5 9.20002C35.1 9.20002 35.6 9.20002 36.1 9.20002C36.2 9.20002 36.4 9.30002 36.4 9.40002C37 10.4 37.6 11.5 38.2 12.6C38.5 13.2 38.3 14.2 37.8 14.6ZM31.4 13.8C31.5 12.7 31.1 11.7 30.8 10.7C30.7 10.3 30.6 10 30.5 9.60002C30.5 9.50002 30.5 9.50002 30.5 9.40002V9.30002C30.7 9.30002 30.8 9.30002 31 9.30002C31.6 9.30002 32.1 9.30002 32.6 9.30002C32.7 9.30002 32.9 9.40002 32.9 9.50002C33.3 10.4 33.8 11.5 34.3 12.6C34.6 13.3 34.4 14.3 33.8 14.7C33.1 15.1 32.2 15 31.7 14.4C31.5 14.1 31.4 13.9 31.4 13.8ZM27.4 9.20002C27.9 9.20002 28.5 9.20002 29 9.20002C29.1 9.20002 29.3 9.40002 29.3 9.50002L29.4 9.90002C29.7 10.8 30 11.6 30.2 12.5C30.3 13 30.3 13.6 30.2 14.1C30 14.7 29.3 14.8 29 14.8C28.3 14.8 27.8 14.6 27.5 14.1C27.4 14 27.4 13.9 27.4 13.8C27.2 12.5 27.1 11.3 27 10L26.9 9.10002C27.1 9.20002 27.2 9.20002 27.4 9.20002ZM15 9.20002L14.8 10.5C14.7 11.6 14.5 12.7 14.4 13.8C14.4 14.1 14.2 14.4 13.9 14.5C13.5 14.8 12.9 14.8 12.5 14.7C11.6 14.4 11.3 13.7 11.6 12.6C11.8 11.7 12.1 10.7 12.4 9.80002L12.5 9.40002C12.5 9.30002 12.7 9.20002 12.8 9.20002C13.2 9.20002 13.6 9.20002 13.9 9.20002C14.1 9.20002 14.3 9.20002 14.5 9.20002C14.7 9.20002 14.8 9.20002 15 9.20002ZM8.99998 14.8C8.49998 14.8 8.09998 14.7 7.89998 14.4C7.69998 14.2 7.59998 13.8 7.59998 13.4C7.59998 12.9 7.69998 12.4 7.89998 11.9C8.19998 11.2 8.49998 10.4 8.99998 9.50002C8.99998 9.40002 9.19998 9.20002 9.29998 9.20002C9.59998 9.20002 9.99998 9.20002 10.3 9.20002C10.5 9.20002 10.7 9.20002 10.9 9.20002C11.1 9.20002 11.2 9.20002 11.4 9.20002C11.3 9.40002 11.3 9.60002 11.2 9.80002C11 10.3 10.9 10.8 10.8 11.3C10.6 12.1 10.5 12.8 10.4 13.4C10.4 14.3 9.89998 14.8 8.99998 14.8ZM6.79998 9.20002C6.99998 9.20002 7.19998 9.20002 7.39998 9.20002C7.59998 9.20002 7.79998 9.20002 7.89998 9.20002C7.79998 9.40002 7.69998 9.60002 7.59998 9.80002C7.39998 10.4 7.19998 10.8 6.99998 11.3C6.59998 12.1 6.39998 12.8 6.49998 13.6C6.49998 13.9 6.39998 14.2 6.19998 14.4C5.99998 14.7 5.59998 14.8 5.09998 14.8C4.19998 14.8 3.59998 14.3 3.59998 13.5C3.59998 12.9 3.69998 12.5 3.89998 12.1C4.19998 11.6 4.49998 11.1 4.69998 10.6C4.99998 10.3 5.19998 9.90002 5.39998 9.50002C5.49998 9.40002 5.69998 9.20002 5.79998 9.20002C6.09998 9.20002 6.39998 9.20002 6.79998 9.20002ZM23.3 9.20002C23.5 9.20002 23.6 9.20002 23.8 9.20002C24.4 9.20002 25 9.20002 25.5 9.20002C25.6 9.20002 25.8 9.30002 25.8 9.40002L25.9 10C26.1 11.1 26.3 12.3 26.4 13.5C26.4 13.8 26.3 14.1 26.1 14.3C25.9 14.6 25.4 14.7 25 14.7C24.1 14.7 23.5 14.2 23.5 13.5C23.5 12.5 23.4 11.5 23.4 10.4L23.3 9.20002Z" fill="white"/>
<path d="M41.7 37.6C41 36.4 40.2 35.2 39.5 34C38.9 33 38.2 31.9 37.6 30.9C37.5 30.7 37.4 30.4 37.4 30.1C37.4 27.5 37.4 24.9 37.4 22.4C37.4 21.4 37.4 20.5 37.4 19.5V19.4C37.4 19.2 37.4 19.1 37.3 19C37.2 18.9 37 18.6 36.8 18.7C36.6 18.7 36.4 19.1 36.4 19.1C36.3 19.2 36.4 19.3 36.4 19.5V19.6V30.1H5.59998V23C5.59998 22.7 5.59998 22.4 5.59998 22.1C5.59998 21.2 5.59998 20.2 5.59998 19.3C5.59998 19.1 5.49998 19 5.29998 18.9C5.19998 18.8 5.19998 18.8 5.19998 18.7L5.09998 18.6L4.99998 18.7C4.99998 18.7 4.89998 18.8 4.79998 18.8C4.69998 18.9 4.49998 19 4.39998 19.2C4.29998 19.3 4.29998 19.4 4.39998 19.6V19.7V21.9C4.39998 24.6 4.39998 27.4 4.39998 30.1C4.39998 30.4 4.29998 30.7 4.19998 31C3.59998 32 2.99998 33 2.29998 34.1C1.59998 35.2 0.89998 36.4 0.19998 37.6C0.0999798 37.8 -0.10002 38.3 0.0999798 38.5C0.19998 38.7 0.59998 38.9 0.89998 38.9C7.49998 38.9 14.2 38.9 20.8 38.9C27.6 38.9 34.3 38.9 41 38.9C41.3 38.9 41.7 38.8 41.8 38.5C42 38.3 41.8 37.8 41.7 37.6ZM40.5 37.8H1.39998C1.49998 37.7 1.49998 37.6 1.49998 37.6C1.59998 37.4 1.79998 37.1 1.89998 36.9C2.19998 36.4 2.59998 35.8 2.89998 35.3C3.69998 34.1 4.39998 32.8 5.19998 31.6C5.39998 31.3 5.49998 31.2 5.79998 31.2C9.89998 31.2 14.1 31.2 18.2 31.2C24.1 31.2 30 31.2 36 31.2C36.2 31.2 36.5 31.3 36.6 31.5C37.7 33.2 38.8 35 39.8 36.7L40.4 37.7C40.4 37.6 40.4 37.6 40.5 37.8C40.5 37.7 40.5 37.7 40.5 37.8Z" fill="white"/>
<path d="M16.9 25.5C17.5 23.6 18.1 21.6 18.7 19.6C18.8 19.1 18.7 18.9 18.6 18.7C18.4 18.5 18.1 18.4 17.7 18.4C17 18.5 16.3 18.6 15.6 18.7C15.2 18.7 14.8 18.8 14.4 18.8L13.9 19C12.9 19.1 11.8 19.3 10.8 19.4C10.3 19.5 9.99997 19.8 10.1 20.4C10.1 20.7 10.2 21 10.2 21.3C10.2 21.6 10.3 21.9 10.3 22.3C10.4 22.9 10.7 23.2 11.2 23.3C11.8 23.4 12.4 23.4 13 23.5C13.5 23.6 14 23.6 14.5 23.7C14.6 23.7 14.6 23.7 14.7 23.7C14.9 23.7 15.2 23.8 15.4 23.6C15.5 23.5 15.6 23.4 15.6 23.2C15.6 23 15.6 22.9 15.5 22.8C15.4 22.6 15.1 22.6 14.8 22.6C14.7 22.6 14.7 22.6 14.6 22.6C13.8 22.5 13 22.4 12.2 22.3L11.3 22.2L11.1 20.3L17.6 19.5C17.4 20.1 17.2 20.6 17.1 21.2C16.7 22.4 16.4 23.6 16 24.8C15.9 25.1 15.8 25.1 15.5 25.1C14.4 25.1 13.3 25.1 12.3 25.1H11.9C11.7 25.1 11.5 25.1 11.4 25.3C11.3 25.4 11.3 25.5 11.3 25.7C11.3 26.2 11.7 26.2 11.9 26.2H12C13.3 26.2 14.6 26.2 15.9 26.2C16.4 26.2 16.7 26 16.9 25.5Z" fill="white"/>
<path d="M28.5 27C28.6 27.3 28.7 27.4 28.8 27.4C29 27.4 29.1 27.4 29.3 27.2C29.4 27.1 29.6 26.9 29.7 26.7C29.7 26.6 29.8 26.6 29.8 26.5C30 26.7 30.1 26.8 30.2 27C30.5 27.3 30.8 27.6 31.1 27.9C31.3 28.1 31.5 28.3 31.7 28.3C31.9 28.3 32.1 28.2 32.3 28C32.5 27.7 32.8 27.4 33.2 27.1C33.4 26.9 33.5 26.7 33.5 26.5C33.5 26.3 33.4 26.1 33.2 25.9C32.9 25.6 32.6 25.3 32.2 25L31.8 24.6C31.9 24.5 32 24.5 32 24.4C32.2 24.2 32.3 24.1 32.5 24C32.6 23.8 32.7 23.6 32.7 23.5C32.7 23.4 32.6 23.3 32.4 23.2C30.9 22.7 29.4 22.2 27.8 21.8C27.6 21.7 27.4 21.8 27.3 21.9C27.2 22 27.1 22.2 27.2 22.4C27.6 23.8 28 25.3 28.5 27ZM31.6 25.6C31.8 25.8 32 26 32.3 26.2C32.4 26.3 32.5 26.4 32.6 26.4L31.8 27.1L31.5 26.8C31.2 26.5 31 26.2 30.7 26C30.4 25.7 30.2 25.5 30 25.5C29.8 25.5 29.6 25.6 29.4 25.9C29.4 25.9 29.3 25.9 29.3 26L28.5 23L31.5 23.9C30.7 24.7 30.8 24.8 31.6 25.6Z" fill="white"/>
<path d="M29.2999 20.7H29.3999C29.4999 20.7 29.4999 20.7 29.5999 20.7C29.7999 20.7 29.9999 20.7 30.0999 20.6C30.4999 20.3 30.7999 19.9 31.0999 19.6C31.1999 19.5 31.1999 19.4 31.2999 19.4C31.3999 19.3 31.3999 19.2 31.4999 19.1C31.4999 19.1 31.4999 19 31.5999 19V18.9L31.4999 18.8C31.3999 18.7 31.2999 18.6 31.1999 18.6C30.9999 18.6 30.7999 18.6 30.5999 18.8C30.2999 19.1 29.7999 19.6 29.3999 20C29.2999 20.1 29.2999 20.3 29.2999 20.5C29.2999 20.6 29.2999 20.6 29.2999 20.7Z" fill="white"/>
<path d="M25.5 20.7C25.6 20.7 25.6 20.8 25.7 20.8C25.8 20.8 25.9 20.8 25.9 20.8C26 20.8 26 20.8 26.1 20.8H26.2V20.7C26.2 20.6 26.2 20.6 26.2 20.5C26.2 20.3 26.2 20.2 26.1 20.1C25.8 19.7 25.4 19.4 25.1 19.1L24.9 18.9C24.8 18.8 24.7 18.8 24.7 18.7C24.7 18.7 24.6 18.7 24.6 18.6C24.6 18.6 24.5 18.6 24.5 18.7C24.4 18.8 24.3 18.8 24.3 18.9C24.2 19 24.2 19.3 24.3 19.4C24.5 19.8 25 20.3 25.5 20.7Z" fill="white"/>
<path d="M24.4 26C24.5 26 24.5 26 24.4 26H24.5H24.6C24.7 26 24.7 26 24.8 25.9L25 25.7C25.4 25.2 25.9 24.8 26.3 24.3C26.3 24.3 26.3 24.2 26.3 24.1C26.3 24 26.2 23.8 26.1 23.7C26 23.6 25.7 23.6 25.5 23.7C25 24.2 24.5 24.6 24.1 25.1C24 25.2 24 25.5 24.1 25.7C24.2 25.9 24.3 25.9 24.4 26Z" fill="white"/>
<path d="M27.4 19.9C27.5 19.9 27.5 20 27.6 20C27.8 20 28 19.7 28.1 19.6C28.2 19.5 28.1 19.4 28.1 19.3C28.1 19.1 28.1 19 28.1 18.8C28.1 18.4 28.1 18.1 28 17.7C28 17.6 27.9 17.4 27.7 17.3L27.6 17.2L27.5 17.1L27.4 17.2L27.3 17.3C27.2 17.4 27 17.5 27 17.7C27 18.3 27 18.9 27.1 19.6C27.2 19.7 27.3 19.8 27.4 19.9Z" fill="white"/>
<path d="M23.4999 21.9C23.2999 21.9 22.9999 21.9 22.8999 22C22.7999 22.1 22.7999 22.2 22.7999 22.4C22.7999 22.6 22.7999 22.7 22.8999 22.8C22.9999 22.9 23.1999 22.9 23.3999 22.9C23.4999 22.9 23.5999 22.9 23.6999 22.9C23.7999 22.9 23.8999 22.9 24.0999 22.9C24.3999 22.9 24.6999 22.9 24.9999 22.8C25.0999 22.8 25.2999 22.6 25.3999 22.5L25.4999 22.4L25.5999 22.3L25.4999 22.2L25.3999 22.1C25.2999 22 25.1999 21.9 24.9999 21.9C24.5999 21.9 24.1999 21.9 23.6999 21.9C23.5999 21.9 23.5999 21.9 23.4999 21.9Z" fill="white"/>
<path d="M12.2 26.5C12 26.5 11.7 26.6 11.6 26.7C11.5 26.9 11.4 27.1 11.4 27.3C11.4 27.8 11.7 28.1 12.2 28.1C12.7 28.1 13 27.8 13 27.3C13 26.8 12.7 26.5 12.2 26.5Z" fill="white"/>
<path d="M15.5999 26.5C15.4999 26.5 15.4999 26.5 15.5999 26.5C15.0999 26.5 14.7999 26.8 14.7999 27.3C14.7999 27.6 14.8999 27.8 14.9999 27.9C15.0999 28 15.2999 28.1 15.5999 28.1C16.0999 28.1 16.3999 27.8 16.3999 27.3C16.2999 26.8 16.0999 26.5 15.5999 26.5Z" fill="white"/>
<path d="M18.9999 18.4C19.0999 18.4 19.1999 18.3 19.3999 18.3C19.6999 18.2 19.8999 18.1 20.1999 18C20.3999 17.9 20.4999 17.6 20.3999 17.4C20.2999 17.2 19.9999 17.1 19.7999 17.1C19.4999 17.2 19.0999 17.3 18.7999 17.4C18.6999 17.5 18.5999 17.6 18.4999 17.7C18.4999 17.8 18.3999 17.8 18.3999 17.9L18.2999 18L18.9999 18.4Z" fill="white"/>
<path d="M24.8 34.6C24.7 34.4 24.5 34.2 24.4 34C24.2 33.7 24 33.5 23.6 33.5C21.9 33.5 20.2 33.5 18.3 33.5C17.9 33.5 17.6 33.7 17.4 34C17.3 34.3 17.1 34.6 16.9 34.9C16.8 35 16.7 35.2 16.7 35.3C16.5 35.7 16.4 36 16.6 36.2C16.7 36.4 17 36.5 17.5 36.5C18.3 36.5 19.2 36.5 20 36.5H21.1C21.4 36.5 21.7 36.5 22 36.5C22.3 36.5 22.6 36.5 22.9 36.5C23.5 36.5 24 36.5 24.6 36.5C24.8 36.5 25.3 36.4 25.4 36.2C25.5 36 25.4 35.6 25.3 35.3C25.1 35.1 24.9 34.9 24.8 34.6ZM23.9 35.5H17.9C18.2 34.6 18.2 34.6 19.2 34.6C19.5 34.6 19.9 34.6 20.2 34.6C21 34.6 21.8 34.6 22.5 34.6C23.3 34.5 23.7 34.7 23.9 35.5Z" fill="white"/>
</g>
</g>
</g>
<defs>
<clipPath id="clip0_703_369">
<rect width="42" height="42" fill="white"/>
</clipPath>
<clipPath id="clip1_703_369">
<rect width="41.6" height="42" fill="white"/>
</clipPath>
<clipPath id="clip2_703_369">
<rect width="41.9" height="34.9" fill="white" transform="translate(0 4)"/>
</clipPath>
</defs>
</svg>
