<?xml version="1.0" encoding="utf-8"?>
<!-- Generator: Adobe Illustrator 19.0.0, SVG Export Plug-In . SVG Version: 6.00 Build 0)  -->
<svg version="1.1" id="Layer_1" xmlns="http://www.w3.org/2000/svg" xmlns:xlink="http://www.w3.org/1999/xlink" x="0px" y="0px"
	 viewBox="0 0 42 42" style="enable-background:new 0 0 42 42;" xml:space="preserve">
<style type="text/css">
	.st0{fill:#FFFFFF;}
</style>
<g id="XMLID_605_">
	<path id="XMLID_756_" class="st0" d="M29.4,9.1c0-2.5-1.3-3.8-3.8-3.8c-7.2,0-14.5,0-21.7,0C1.3,5.4,0,6.6,0,9.3
		c0,8.1,0,16.1,0,24.2c0,2.4,1.3,3.7,3.7,3.7c3.5,0,7,0,10.8,0c3.5,0,7.2,0,11,0c2.5,0,3.8-1.3,3.8-3.8c0-2.6,0-5.3,0-7.9l0-4.2
		l0-3.3C29.4,15,29.4,12.1,29.4,9.1z M3,6.3c0.3,0,0.6-0.1,0.8-0.1l1.9,0c6.5,0,13.3,0,19.9,0c1,0,1.7,0.3,2.2,0.8
		c0.4,0.5,0.6,1.1,0.6,1.8c0,0,0,0.1,0,0.1c0,0,0,0,0,0H1C0.8,7.6,1.6,6.5,3,6.3z M28.5,26.5c0,2.3,0,4.7,0,7c0,1.9-1,2.8-2.8,2.8
		c-7,0-14.4,0-21.8,0c-1.9,0-2.9-1-2.9-2.9c0-2.2,0-4.4,0-6.6c0-5.2,0-10.6,0-16c0-0.4,0-0.6,0.2-0.7C1.2,10.1,1.3,10,1.7,10
		c0,0,0,0,0,0c3.2,0,6.5,0,9.7,0c2.2,0,4.4,0,6.6,0c3.2,0,6.5,0,9.7,0c0.4,0,0.6,0,0.7,0.2c0.1,0.1,0.2,0.3,0.2,0.7
		C28.5,16,28.5,21.3,28.5,26.5z"/>
	<path id="XMLID_763_" class="st0" d="M40.5,23.9c-0.2-0.1-0.5-0.3-0.6-0.7c-0.1-0.3-0.1-0.7,0-0.9c0.8-1.3,0.8-1.3-0.3-2.4
		c-0.1-0.1-0.1-0.1-0.2-0.2c-0.1-0.1-0.3-0.3-0.4-0.4c-0.3-0.3-0.7-0.5-1.2-0.1c-0.2,0.2-0.4,0.3-0.6,0.4c-0.2,0.1-0.5,0.1-0.8,0
		c-0.3-0.1-0.6-0.4-0.7-0.6c-0.4-1.5-0.5-1.6-2-1.6c-0.1,0-0.1,0-0.2,0c-0.1,0-0.3,0-0.4,0c-0.4-0.1-0.7,0-0.9,0.2
		c-0.2,0.2-0.3,0.5-0.3,0.8c0,0.6-0.2,1-0.9,1.2c-0.2,0.1-0.4,0.2-0.6,0.4c-0.1,0.1-0.2,0.1-0.2,0.2l-0.1,0.1l0.3,0.5l0.1,0
		c0.2-0.1,0.4-0.1,0.6-0.2c0.5-0.1,0.9-0.3,1.3-0.6c0.3-0.3,0.4-0.7,0.5-1.2c0-0.2,0.1-0.3,0.1-0.5c0,0,0.1,0,0.1,0
		c0.2,0,0.4,0,0.6,0c0.4-0.1,0.7,0,0.8,0.1c0.2,0.1,0.2,0.4,0.3,0.7c0,0.3,0.2,0.6,0.7,0.9c0.3,0.2,0.6,0.4,1,0.4
		c0.2,0,0.8,0.1,1-0.1c0.3-0.3,0.5-0.4,0.7-0.4c0.2,0,0.5,0.2,0.8,0.6c0.4,0.4,0.5,0.6,0.1,1.1c-0.4,0.5-0.5,1.2-0.2,1.9
		c0.3,0.7,0.8,1.1,1.5,1.1c0.7,0.1,0.7,0.3,0.6,0.8c0,0.1,0,0.3,0,0.4c0,0.3,0,0.5-0.1,0.6c-0.1,0.1-0.3,0.2-0.6,0.2
		c-0.6,0.1-1.1,0.5-1.4,1.2c-0.3,0.7-0.2,1.3,0.2,1.8c0.5,0.5,0.3,0.7-0.1,1.1c-0.1,0.1-0.1,0.1-0.2,0.2c-0.4,0.5-0.7,0.5-1.1,0.1
		c-0.5-0.4-1.1-0.5-1.8-0.2c-0.7,0.3-1.1,0.8-1.2,1.4c0,0.3-0.1,0.5-0.2,0.6c-0.1,0.1-0.3,0.1-0.5,0.1c-0.1,0-0.3,0-0.4,0
		c-0.5,0-0.7,0-0.8-0.6c0-0.5-0.3-0.9-0.7-1.2c-0.5-0.4-1.2-0.5-1.9-0.3l-0.4,0.1l0.3,0.2c0.1,0.1,0.2,0.1,0.3,0.2
		c0.2,0.1,0.5,0.3,0.7,0.5l0.1,0.1c0.2,0.2,0.5,0.3,0.5,0.5l0,0.1c0.4,1.3,0.4,1.4,1.8,1.4c0.1,0,0.2,0,0.3,0c0.1,0,0.2,0,0.3,0
		c0.2,0,0.3,0,0.5-0.1c0.4-0.1,0.6-0.5,0.7-0.6c0.1-0.2,0.1-0.4,0.1-0.5c0-0.1,0-0.2,0-0.2c0.1-0.3,0.3-0.5,0.7-0.7
		c0.3-0.1,0.7-0.1,0.9,0c0.1,0.1,0.2,0.2,0.3,0.3c0.8,0.6,0.9,0.5,1.6-0.2c0.1-0.1,0.1-0.1,0.2-0.2l0.1-0.1c0.1-0.1,0.2-0.2,0.3-0.3
		c0.1-0.1,0.2-0.2,0.2-0.2c0.7-0.6,0.7-0.7,0.1-1.4c-0.1-0.1-0.1-0.2-0.2-0.3c-0.2-0.3-0.3-0.7-0.1-1c0.1-0.4,0.4-0.6,0.8-0.7
		c1.3-0.2,1.3-0.3,1.3-1.5l0-0.3C42,24.3,41.9,24.2,40.5,23.9z"/>
	<path id="XMLID_766_" class="st0" d="M33.7,28.2c1.3,0,2.4-1,2.4-2.4c0-0.7-0.2-1.3-0.7-1.8c-0.5-0.5-1.1-0.7-1.7-0.7
		c-1.3,0-2.4,1.1-2.4,2.4C31.3,27.1,32.4,28.2,33.7,28.2C33.7,28.2,33.7,28.2,33.7,28.2z M32.2,25.8c0-0.8,0.7-1.5,1.5-1.5
		c0,0,0,0,0,0c0.4,0,0.8,0.2,1,0.4c0.3,0.3,0.5,0.7,0.5,1.1c0,0.4-0.1,0.8-0.4,1.1c-0.3,0.3-0.7,0.4-1.1,0.4c0,0,0,0,0,0
		C32.9,27.3,32.2,26.6,32.2,25.8z"/>
	<path id="XMLID_769_" class="st0" d="M23.6,19.4c-3.5,0-7.5,0-11.4,0c-0.7,0-1-0.2-1.5-0.6c-0.9-1-2.3-1.4-3.7-1.3
		c-1.4,0.2-2.5,1-3.1,2.2c-0.1,0.2-0.3,0.6-0.1,0.8c0.1,0.2,0.5,0.3,0.7,0.3c0.6,0,1.2,0,1.7,0c0.5,0,1.1,0.6,1.1,1.1
		c0,0.2-0.1,0.5-0.3,0.7C6.8,22.8,6.5,23,6.2,23c-0.5,0-1,0-1.6,0l-1.2,0l0.1,0.2c0.1,0.2,0.2,0.3,0.2,0.5C3.9,24,4,24.2,4.1,24.3
		c0.7,1,1.8,1.7,3.1,1.9c0.2,0,0.3,0,0.5,0c1.1,0,2.1-0.4,2.9-1.2c0.6-0.6,1.2-0.7,2-0.7c4,0,7.9,0,11.2,0c0.9,0,1.6-0.3,2.1-0.9
		c0.5-0.6,0.6-1.3,0.4-2.1C26,20.1,25,19.4,23.6,19.4z M25.4,22c-0.1,0.8-0.6,1.3-1.4,1.4c-0.5,0-1,0-1.5,0c-0.2,0-0.4,0-0.5,0
		l-2.1,0c-2.7,0-5.5,0-8.3,0c0,0,0,0,0,0c-0.6,0-1,0.2-1.4,0.6c-0.7,0.8-1.7,1.3-2.7,1.2c-1-0.1-1.9-0.5-2.5-1.4c0.1,0,0.2,0,0.4,0
		c0.5,0,0.9,0,1.3,0c0.5,0,0.9-0.3,1.2-0.9c0.4-0.6,0.5-1.3,0.3-1.8c-0.5-1.2-1.3-1.6-2.4-1.4c-0.2,0-0.4,0-0.6,0c0,0-0.1,0-0.1,0
		c0.6-1.1,2.1-1.7,3.4-1.3c0.6,0.2,1.2,0.6,1.8,1.1c0.4,0.4,0.8,0.6,1.4,0.6c0,0,0,0,0,0c3.6,0,7.2,0,10.8,0l1,0
		c0.3,0,0.6,0,0.9,0.1C25,20.6,25.5,21.3,25.4,22z"/>
	<path id="XMLID_772_" class="st0" d="M14.4,17.4h9.8c1.1,0,2-0.9,2-2v-1.7c0-1.1-0.9-2-2-2h-9.8c-1.1,0-2,0.9-2,2v1.7
		C12.4,16.5,13.3,17.4,14.4,17.4z M13.4,13.8c0-0.5,0.4-1,1-1h9.8c0.5,0,1,0.4,1,1v1.7c0,0.5-0.4,1-1,1h-9.8c-0.5,0-1-0.4-1-1V13.8z
		"/>
	<path id="XMLID_773_" class="st0" d="M25.5,26.4h-11c-0.3,0-0.6,0.3-0.6,0.6c0,0.3,0.3,0.6,0.6,0.6h11c0.3,0,0.6-0.3,0.6-0.6
		C26.1,26.7,25.8,26.4,25.5,26.4z"/>
	<path id="XMLID_774_" class="st0" d="M21.2,32.5h-11c-0.3,0-0.6,0.3-0.6,0.6c0,0.3,0.3,0.6,0.6,0.6h11c0.3,0,0.6-0.3,0.6-0.6
		C21.8,32.7,21.5,32.5,21.2,32.5z"/>
	<path id="XMLID_775_" class="st0" d="M25.5,29.5H4c-0.3,0-0.6,0.3-0.6,0.6c0,0.3,0.3,0.6,0.6,0.6h21.5c0.3,0,0.6-0.3,0.6-0.6
		C26.1,29.8,25.8,29.5,25.5,29.5z"/>
</g>
</svg>
