<?xml version="1.0" encoding="utf-8"?>
<!-- Generator: Adobe Illustrator 19.0.0, SVG Export Plug-In . SVG Version: 6.00 Build 0)  -->
<svg version="1.1" id="Layer_1" xmlns="http://www.w3.org/2000/svg" xmlns:xlink="http://www.w3.org/1999/xlink" x="0px" y="0px"
	 viewBox="0 0 42 42" style="enable-background:new 0 0 42 42;" xml:space="preserve">
<style type="text/css">
	.st0{fill:#FFFFFF;}
</style>
<g id="XMLID_584_">
	<path id="XMLID_655_" class="st0" d="M38,11c-1,0-2.4,0-3.8,0c0,0,0,0,0,0c-0.3,0-0.6-0.1-0.8-0.4c-1.8-2.1-4-3.7-6.5-4.6
		c-0.4-0.1-0.4-0.3-0.4-0.7c-0.1-2.9-2.5-5.2-5.3-5.2l0,0c-2.9,0-5.2,2.4-5.3,5.3c0,0.3-0.1,0.5-0.4,0.6c-3.1,1.2-5.7,3.2-7.6,6
		c-0.2,0.3-0.5,0.4-0.8,0.4c-3,0-5.5,1.9-6.5,4.8c-0.4,1.4-0.4,2.8,0,4.2c0.4,1.4,1.3,2.5,2.5,3.4c0.2,0.2,0.5,0.4,0.7,0.5
		c0.3,0.2,0.7,0.5,1,0.7c0.1,0.1,0.2,0.3,0.2,0.5c0,0.2-0.4,0.3-0.4,0.3c-0.2,0.1-0.4,0.1-0.6,0.2c-0.1,0-0.1,0-0.2,0
		c-2.3,0.7-3.5,2.4-3.6,4.7c0,2.1,0,4.3,0,6.4l0,3.7h12c0-0.3,0-0.7,0-1c0-0.8,0-1.6,0-2.4c-0.1-1.2,0.3-2.1,1.2-2.8
		c0.1-0.1,0.2-0.2,0.4-0.2c0.1,0,0.2,0,0.3,0.1c2.2,1.1,4.6,1.6,7,1.6c0.3,0,0.6,0,0.9,0c0.1,0,0.1,0,0.2,0c0,0,0.1,0,0.1,0
		c0,0,0.1,0,0.2,0c0,0,0.1,0,0.1,0c0,0,0,0.1,0,0.1c-0.1,0.4,0.1,0.5,0.4,0.6c0.2,0,0.3,0.1,0.4,0.2c0,0,0,0.1,0,0.1
		c0,0,0,0.1,0,0.1c0,0.1,0,0.2-0.1,0.2C23,38.8,23,39,23.3,39.3c0.6,0.6,1.2,1.2,1.8,1.8c0.2,0.2,0.3,0.3,0.4,0.3
		c0.1,0,0.2,0,0.3-0.1c0.1-0.1,0.2-0.1,0.3-0.1c0,0,0.1,0,0.1,0c0,0,0,0,0,0c0,0,0.1,0,0.1,0.1c0,0.1,0,0.1,0.1,0.1
		c0,0.1,0.1,0.1,0.1,0.2c0.1,0.3,0.2,0.5,0.6,0.5c0,0,0.1,0,0.1,0c0.4,0,0.8,0,1.2,0c0.4,0,0.7,0,1,0c0.1,0,0.2,0,0.2,0
		c0.6,0,0.8-0.2,0.9-0.7c0-0.1,0.1-0.1,0.1-0.1c0,0,0,0,0,0c0,0,0,0,0.1,0c0,0,0,0,0,0c0,0,0.1,0,0.1,0c0.1,0,0.2,0.1,0.2,0.1
		c0.1,0.1,0.2,0.1,0.3,0.1c0.1,0,0.3-0.1,0.5-0.3c0.3-0.4,0.7-0.7,1.1-1.1c0.2-0.2,0.3-0.3,0.5-0.5c0.3-0.3,0.4-0.4,0.5-0.6
		c0-0.1,0-0.3-0.2-0.7c0,0,0-0.1,0-0.1c0,0,0,0,0,0c0,0,0-0.1,0.1-0.1c0,0,0.1,0,0.1,0c0.1,0,0.1-0.1,0.2-0.1
		c0.4-0.1,0.5-0.2,0.5-0.7c0-0.7,0-1.4,0-2.1c0-0.6,0-1.1-0.7-1.2c0,0-0.1,0-0.1-0.1c0,0,0,0,0,0c0,0,0-0.1,0-0.1l0.4-0.8
		c0,0,0,0,0,0l0,0l-1-0.8c0,0,0,0,0-0.1c0,0,0-0.1,0-0.1c1.2-1.3,2.1-2.8,2.9-4.5c0.1-0.2,0.4-0.3,0.6-0.3c0.2,0,0.4,0,0.6,0
		c0.1,0,0.3,0,0.4,0c0.1,0,0.2,0,0.4,0v-2.6c0-0.1,0-0.1,0.1-0.1h3.9V11C41.9,11,38.5,11,38,11z M21,1.3L21,1.3
		c1.1,0,2.2,0.4,2.9,1.2c0.8,0.8,1.2,1.8,1.2,2.9c0,2.3-1.8,4.2-4.1,4.2l0,0c-1.1,0-2.2-0.5-2.9-1.2c-0.8-0.8-1.2-1.9-1.2-3
		C16.9,3.1,18.8,1.3,21,1.3z M4.8,24.4C4.8,24.5,4.8,24.5,4.8,24.4C4.8,24.5,4.8,24.5,4.8,24.4c-0.1,0.1-0.1,0.1-0.1,0.1
		c-2.2-1.3-3.3-2.9-3.4-5c-0.1-2.2,0.8-4,2.8-5.2c0.8-0.5,1.7-0.8,2.7-0.8c0.6,0,1.3,0,2.2,0c0.4,0,0.8,0,1.1,0c0.4,0,0.8,0,1.1,0
		c0.3,0,0.6,0,0.9,0c0.6,0,1,0.2,1.3,0.6c0.2,0.3,0.3,0.8,0.2,1.1c-0.1,0.3-0.3,0.6-0.7,0.8c-0.5,0.2-1,0.3-1.6,0.3
		c-0.5,0-1.1,0-1.7,0c-0.4,0-0.8,0-1.2,0c-0.4,0-0.8,0-1.2,0l-0.1,0c-0.7,0-1.3,0.2-1.6,0.6c-0.4,0.4-0.5,0.9-0.5,1.6
		c0,0.4-0.1,0.7-0.5,0.9c-0.4,0.2-0.7,0.6-0.8,1.2c-0.1,0.5-0.1,1.1,0.2,1.6c0.2,0.3,0.3,0.4,0.5,0.6C4.8,23.1,5,23.7,4.8,24.4z
		 M11,23.9c0.1,0.7-0.1,1.2-0.7,1.6c-0.3,0.2-0.5,0.3-0.8,0.3c0,0,0,0,0,0c-0.2,0-0.5,0-0.8,0c-0.2,0-0.4,0-0.6,0
		c-0.2,0-0.3,0-0.5,0v1.2h1.1c0,0,0.1,0,0.1,0.1C9.1,28,9,28.3,8.2,29c0,0,0,0-0.1,0c0,0,0,0-0.1,0c-0.2-0.2-0.3-0.3-0.5-0.5
		c-0.5-0.5-1-1-1.4-1.5C6.1,26.9,6,26.7,6,26.5c0-0.4,0-0.8,0-1.2c0-0.7,0-1.4,0-2.1c0-0.2-0.1-0.4-0.3-0.6
		c-0.2-0.2-0.4-0.4-0.6-0.6c0,0-0.1-0.1-0.1-0.1c-0.3-0.3-0.4-0.7-0.3-1.1c0.2-0.5,0.6-0.5,0.9-0.5c0,0,0,0,0.1,0c0,0,0.1,0,0.1,0
		c0,0,0.2,0,0.2,0l0-0.5c0-0.4,0-0.8,0-1.2c0-0.7,0.3-1,1-1l0.2,0c0.4,0,0.8,0,1.2,0c0.9,0,1.7,0,2.3,0c0.2,0,0.5,0.1,0.6,0.3
		c0.8,1.4,1.3,2.8,1.5,4.3c0.1,0.4-0.1,0.6-0.5,0.7c-0.4,0.1-0.7,0.2-1.1,0.3c-0.1,0-0.3,0.1-0.4,0.1c0,0.1,0,0.1,0,0.2
		C11,23.6,11,23.8,11,23.9z M2.5,28.9c0.1-0.1,0.3-0.1,0.4-0.2c0.3-0.2,0.7-0.3,1-0.5C4.2,28,4.6,28,4.9,28c0.6,0,1,0.3,1.5,0.9
		c0.4,0.5,0.8,0.9,1.3,1.3c0.2,0.2,0.4,0.4,0.6,0.6l1.3-1.4c0,0,0,0,0.1,0c0,0,0,0,0,0c0,0,0.1,0,0.1,0c0.1,0.1,0.2,0.2,0.3,0.4
		c0.3,0.3,0.5,0.6,0.8,0.9c0.1,0.1,0,0.3,0,0.5c0,0.1,0,0.1,0,0.2c0,0.1,0,0.1-0.1,0.1c0,0,0,0,0,0c-0.1,0.1-0.2,0.2-0.3,0.3
		C10,32,9.7,32.3,9.4,32.4c0,0-0.1,0-0.1,0c-0.3,0-0.6-0.2-0.9-0.4c-0.1-0.1-0.2-0.2-0.4-0.2c-0.4-0.2-0.8-0.4-1.1-0.6
		c-0.5-0.3-1.1-0.6-1.6-0.9C5.2,30.2,5,30.1,4.9,30c-0.6-0.4-1.3-0.7-2-0.7c-0.1,0-0.2,0-0.3,0c0,0,0,0,0,0c0,0-0.1,0-0.1-0.1l0-0.2
		C2.4,29,2.4,28.9,2.5,28.9z M11,40.7C11,40.7,10.9,40.8,11,40.7l-9.5,0.1c-0.1,0-0.1,0-0.1-0.1v-6.2c0,0,0-0.1,0-0.1c0,0,0,0,0,0
		c0,0,0,0,0,0l0.6,0.3c0.4,0.2,0.8,0.4,1.2,0.7c0.3,0.2,0.6,0.3,0.9,0.5c0.9,0.5,1.8,1,2.7,1.5c0.7,0.4,1.5,0.6,2.3,0.6
		c0.4,0,0.9-0.1,1.3-0.2c0.1,0,0.1,0,0.2,0c0,0,0.1,0,0.1,0c0,0,0,0,0,0c0,0,0,0,0.1,0c0,0,0,0,0,0.1V40.7z M13.3,34.1
		c-0.5,0.5-1.1,1.1-1.6,1.6c-0.7,0.7-1.5,1.1-2.4,1.1c-0.6,0-1.1-0.1-1.7-0.4c-1.8-0.9-3.5-1.9-5.4-2.9c-0.8-0.4-1.1-1.3-0.7-2.1
		c0.2-0.5,0.8-0.8,1.4-0.8c0.3,0,0.5,0.1,0.8,0.2c1.9,1,3.6,2,5.3,3c0.4,0.2,0.7,0.6,1.1,0.9c0.1,0.1,0.3,0.3,0.4,0.4l0.7-0.8
		l-0.7-0.7c0,0,0-0.1,0-0.1l4.4-4.4c0,0,0,0,0.1,0c0,0,0,0,0.1,0l1.7,1.7c0,0,0,0,0,0.1c0,0,0,0,0,0.1c-0.2,0.1-0.3,0.3-0.5,0.4
		c-0.4,0.3-0.7,0.7-1.1,1C14.6,32.8,13.9,33.5,13.3,34.1z M15.8,27.8C15.8,27.8,15.8,27.8,15.8,27.8c0.2-0.2,0.4-0.4,0.6-0.6
		c0.4-0.4,0.7-0.7,1.1-1.1c0.3-0.3,0.7-0.4,1-0.4c0.5,0,0.9,0.3,1.2,0.8c0.2,0.4,0.4,0.6,0.8,0.6c0,0,0.1,0,0.1,0c0.1,0,0.2,0,0.2,0
		c0.8,0,0.9,0.3,0.9,1.2c0,0.1,0,0.2,0,0.3c0,0.2,0,0.4,0,0.6c0,0.6-0.3,0.8-0.8,0.8c-0.4,0-0.8,0-1.2,0c-0.5,0-0.9,0-1.5,0
		c-0.1,0-0.3-0.1-0.4-0.2c-0.5-0.5-0.9-0.9-1.4-1.4C16.1,28.2,16,28,15.8,27.8C15.8,27.9,15.8,27.8,15.8,27.8z M33.3,35.6
		c0,0.1,0,0.3,0,0.4c0.1,0.5,0,0.9-0.7,1.1c-0.2,0-0.3,0.2-0.4,0.3c-0.1,0.2-0.1,0.4,0,0.6c0.3,0.4,0.2,0.7-0.2,1
		c-0.1,0.1-0.3,0.2-0.4,0.4c-0.1,0.1-0.2,0.2-0.2,0.2c-0.1,0.1-0.1,0.1-0.2,0.1c0,0-0.1,0-0.1,0.1c0,0,0,0-0.1,0c0,0,0,0,0,0
		c0,0-0.3-0.1-0.4-0.2c-0.2-0.1-0.3-0.1-0.5-0.1c-0.3,0-0.6,0.2-0.7,0.6c-0.1,0.3-0.3,0.5-0.6,0.5c0,0-0.1,0-0.1,0
		c-0.1,0-0.2,0-0.2,0c-0.1,0-0.2,0-0.3,0c-0.1,0-0.2,0-0.3,0c-0.5,0-0.8-0.2-0.9-0.7c0-0.2-0.3-0.4-0.6-0.4c-0.1,0-0.2,0-0.3,0.1
		c-0.2,0.1-0.3,0.2-0.5,0.2c-0.2,0-0.4-0.1-0.6-0.4c-0.1-0.1-0.2-0.2-0.3-0.3c-0.4-0.3-0.5-0.6-0.2-1.1c0.1-0.2,0.1-0.4,0-0.6
		c-0.1-0.2-0.3-0.4-0.5-0.4c-0.5-0.1-0.7-0.4-0.6-0.9c0-0.2,0-0.3,0-0.5c-0.1-0.5,0.1-0.9,0.6-1c0.2,0,0.3-0.2,0.4-0.4
		c0.1-0.2,0.1-0.4,0-0.6c-0.3-0.4-0.2-0.8,0.2-1.1c0.1-0.1,0.2-0.2,0.3-0.3c0.2-0.3,0.4-0.4,0.6-0.4c0.2,0,0.3,0.1,0.5,0.2
		c0.1,0,0.2,0.1,0.3,0.1c0.3,0,0.6-0.2,0.7-0.5c0.1-0.3,0.2-0.6,0.7-0.6c0.1,0,0.1,0,0.2,0c0.1,0,0.1,0,0.2,0c0.1,0,0.1,0,0.2,0
		c0.1,0,0.2,0,0.2,0c0.4,0,0.7,0.2,0.8,0.7c0.1,0.2,0.3,0.4,0.6,0.4c0.1,0,0.2,0,0.3-0.1C30.8,32,31,32,31.1,32
		c0.2,0,0.4,0.1,0.6,0.3c0.1,0.1,0.2,0.2,0.3,0.3c0.4,0.3,0.7,0.7,0.3,1.3c-0.1,0.1-0.1,0.3,0,0.4c0.1,0.2,0.3,0.4,0.5,0.5
		C33.2,34.9,33.4,35.2,33.3,35.6z M34.7,27.2c-0.6,1.4-1.4,2.7-2.5,3.8c0,0,0,0-0.1,0c0,0,0,0,0,0c0,0,0,0-0.1,0l-0.6-0.6l-0.8,0.3
		c0,0,0,0,0,0c0,0-0.1,0-0.1,0c0,0,0,0,0,0c0,0-0.1-0.1-0.1-0.1c-0.1-0.5-0.3-0.7-0.9-0.7c-0.1,0-0.2,0-0.2,0c-0.3,0-0.7,0-1,0
		c-0.3,0-0.7,0-1.1,0c0,0-0.1,0-0.1,0c-0.4,0-0.5,0.1-0.6,0.5c0,0.1,0,0.1-0.1,0.2c0,0,0,0,0,0.1c0,0,0,0.1-0.1,0.1c0,0,0,0,0,0
		c0,0,0,0-0.1,0c0,0-0.1,0-0.1,0c-0.2-0.1-0.4-0.2-0.5-0.2c-0.2,0-0.5,0.2-0.8,0.5c-0.5,0.6-1.1,1.1-1.6,1.6
		c-0.3,0.2-0.3,0.4-0.1,0.7c0.1,0.1,0.1,0.2,0.1,0.3c0,0,0,0.1,0,0.1c0,0,0,0.1,0,0.1c0,0,0,0-0.1,0c-0.9,0.2-0.9,0.8-0.8,1.4
		c0,0.1,0,0.2,0,0.4c0,0.1,0,0.1,0,0.2c0,0,0,0.1-0.1,0.1C21.9,36,21.5,36,21,36c-2.2,0-4.3-0.5-6.5-1.5c0,0,0,0-0.1-0.1
		c0,0,0-0.1,0-0.1c0.2-0.2,0.4-0.4,0.6-0.5c0.4-0.4,0.8-0.7,1.1-1.1c0.2-0.2,0.3-0.4,0.5-0.5c0.4-0.4,0.7-0.8,1.2-1
		c0.3-0.1,0.6-0.2,1-0.2c0.2,0,0.4,0,0.6,0c0.2,0,0.4,0,0.6,0c0,0,0.1,0,0.1,0c0.1,0,0.2,0,0.3,0l0.3,0c0.1,0,0.2,0,0.3,0
		c1.1,0,1.9-0.8,1.9-1.9c0-0.5,0-0.9,0-1.4c0-1-0.8-1.8-1.8-1.9c-0.2,0-0.5-0.1-0.6-0.3c-0.5-0.7-1.3-1.1-2.1-1.1
		c-0.7,0-1.3,0.3-1.9,0.8c-1,1-2,2-2.9,2.9c-0.5,0.5-1,1-1.4,1.4c-0.1,0.1-0.2,0.2-0.2,0.2c0,0-0.1,0.1-0.1,0.1c0,0,0,0-0.1,0
		c0,0,0,0-0.1,0c-0.2-0.2-0.3-0.3-0.4-0.5c-0.3-0.4-0.7-0.7-1-1c-0.2-0.2-0.3-0.4-0.2-0.7c0-0.3,0.2-0.6,0.4-0.8
		c0.7-0.6,1.1-1.1,1.6-1.6c0.1-0.1,0.1-0.4,0.1-0.6c0-0.1,0-0.1,0-0.2c0-0.3,0.1-0.5,0.4-0.6c0.2-0.1,0.4-0.1,0.7-0.2
		c0.2-0.1,0.5-0.2,0.7-0.2c0.2-0.1,0.3-0.1,0.3-0.4c0-1.8-0.5-3.5-1.3-5.2c-0.1-0.1-0.1-0.2-0.2-0.3c0,0,0-0.1,0-0.1c0,0,0,0,0-0.1
		c0,0,0-0.1,0.1-0.1c0.1,0,0.1,0,0.2-0.1c0.1,0,0.2-0.1,0.4-0.2c1.1-0.5,1.7-1.5,1.5-2.7c-0.2-1.2-1.2-2.1-2.4-2.2
		c-0.4,0-0.8,0-1.3,0c-0.2,0-0.4,0-0.7,0c-0.2,0-0.4,0-0.7,0c-0.1,0-0.4,0-0.4,0l-0.4,0c0,0-0.1,0-0.1-0.1c0,0,0-0.1,0-0.1
		C10.8,9.8,13,8.1,15.8,7c0,0,0,0,0,0c0,0,0.1,0,0.1,0.1c1,2.5,2.7,3.7,5.1,3.7c2.4,0,4.1-1.2,5.1-3.7c0,0,0-0.1,0.1-0.1
		c0,0,0,0,0,0c2.2,0.8,4,2.1,5.7,3.8c0,0,0,0.1,0,0.1s0,0.1-0.1,0.1h-2v4c0,0.1,0,0.1-0.1,0.1h-2.6v12h7.3
		C34.6,27.1,34.6,27.1,34.7,27.2C34.7,27.1,34.7,27.2,34.7,27.2z M36.7,25.7C36.7,25.8,36.6,25.8,36.7,25.7l-8.1,0.1
		c-0.1,0-0.1,0-0.1-0.1v-9.4c0-0.1,0-0.1,0.1-0.1h8.1c0.1,0,0.1,0,0.1,0.1V25.7z M40.7,23C40.7,23.1,40.7,23.1,40.7,23L38,23.1
		c-0.1,0-0.1,0-0.1-0.1v-8h-6.7c-0.1,0-0.1,0-0.1-0.1v-2.7c0-0.1,0-0.1,0.1-0.1h9.4c0.1,0,0.1,0,0.1,0.1V23z"/>
	<path id="XMLID_698_" class="st0" d="M30.1,24.1c1.7,0,3.3,0,4.9,0c0-0.4,0-0.8,0-1.2c-1.7,0-3.3,0-4.9,0
		C30.1,23.4,30.1,23.8,30.1,24.1z"/>
	<path id="XMLID_699_" class="st0" d="M35,17.9c-1.7,0-3.3,0-4.9,0c0,0.4,0,0.8,0,1.2c1.7,0,3.3,0,4.9,0C35,18.7,35,18.3,35,17.9z"
		/>
	<path id="XMLID_700_" class="st0" d="M30.1,21.7c1.7,0,3.3,0,4.9,0c0-0.4,0-0.8,0-1.2c-1.7,0-3.3,0-4.9,0
		C30.1,20.9,30.1,21.3,30.1,21.7z"/>
	<path id="XMLID_701_" class="st0" d="M10.2,19.7c-0.3,0-0.7,0.3-0.7,0.7c0,0.4,0.3,0.7,0.7,0.7c0.4,0,0.7-0.3,0.7-0.7
		C10.9,20,10.6,19.7,10.2,19.7z"/>
	<path id="XMLID_704_" class="st0" d="M19.7,3c0,1.6,0,3.2,0,4.8c1.4-0.8,2.7-1.6,4-2.4C22.3,4.6,21,3.8,19.7,3z M20.7,4.9
		c0.3,0.2,0.6,0.4,1,0.6c-0.4,0.2-0.7,0.4-1,0.6C20.7,5.6,20.7,5.3,20.7,4.9z"/>
	<path id="XMLID_707_" class="st0" d="M28.5,33.3c-1.5,0-2.7,1.2-2.7,2.6c0,1.4,1.2,2.7,2.6,2.7c1.5,0,2.6-1.2,2.7-2.6
		C31.1,34.5,30,33.4,28.5,33.3z M28.5,37.5c-0.9,0-1.6-0.7-1.6-1.6c0-0.9,0.7-1.6,1.6-1.6c0.9,0,1.6,0.7,1.6,1.6
		C30.1,36.8,29.4,37.5,28.5,37.5z"/>
</g>
</svg>
