<?xml version="1.0" encoding="utf-8"?>
<!-- Generator: Adobe Illustrator 19.0.0, SVG Export Plug-In . SVG Version: 6.00 Build 0)  -->
<svg version="1.1" id="Layer_1" xmlns="http://www.w3.org/2000/svg" xmlns:xlink="http://www.w3.org/1999/xlink" x="0px" y="0px"
	 viewBox="0 0 42 42" style="enable-background:new 0 0 42 42;" xml:space="preserve">
<style type="text/css">
	.st0{fill:#FFFFFF;}
</style>
<g id="XMLID_552_">
	<path id="XMLID_589_" class="st0" d="M17.2,36.7c-0.3-0.1-0.6,0-1.1-0.1c0-0.3,0-0.5,0-0.8c0-1.6,0-3.2,0-4.9
		c0-1.8-0.6-3.3-2.1-4.5c-1.5-1.2-2.8-2.6-4.2-3.9c-0.4-0.4-0.9-0.6-1.4-0.8c-1-0.3-1.7,0.2-2.5,1c0-0.4,0-0.7,0-0.9
		c0-2.5,0-5,0-7.4c0-1.1-0.2-2.2-0.8-3.2c-0.6-0.9-1.7-1.3-2.8-1c-1.1,0.3-1.9,1.3-2,2.4c-0.1,4.3-0.2,8.7-0.4,13
		c-0.1,1.7,0.5,3.1,1.7,4.3c1.7,1.7,3.4,3.5,5.2,5.2c0.5,0.5,0.6,1,0.4,1.6c-0.2,0-0.5,0-0.7,0c-1.2,0-1.7,0.6-1.8,1.7
		c0,0.6,0,1.3,0,1.9c0,0.9,0.6,1.6,1.6,1.6c3.5,0,7.1,0,10.6-0.1c0.9,0,1.6-0.7,1.6-1.5c0-0.8,0-1.5,0-2.3
		C18.5,37.3,18,36.8,17.2,36.7z M7.2,33.6c-1.5-1.5-3-3-4.6-4.5c-1-1-1.4-2.1-1.4-3.5c0.2-4.2,0.3-8.5,0.4-12.7
		c0-0.7,0.4-1.2,1.1-1.3c0.7-0.1,1.1,0.2,1.3,0.8c0.2,0.7,0.4,1.4,0.4,2.2c0,2.5,0,5,0,7.5c0,1.2,0.3,2.3,1.1,3.2
		c1.1,1.3,2.3,2.4,3.5,3.7c0.3,0.3,0.7,0.4,1,0.1c0.4-0.4,0.2-0.7-0.1-1.1c-0.9-0.9-1.8-1.8-2.7-2.7c-0.3-0.3-0.5-0.8-0.4-1.2
		c0.1-0.8,1.2-1.1,1.9-0.5c1.7,1.5,3.3,3,4.9,4.6c0.4,0.4,0.9,1.1,0.9,1.6c0.1,2.3,0,4.6,0,6.9c-1.9,0-3.9,0-5.9,0c0,0,0,0,0-0.1
		C8.9,35.2,8.1,34.4,7.2,33.6z M15.4,40.6c-2.8,0-5.6,0-8.5,0.1c-0.6,0-0.8-0.1-0.8-0.7c0.1-0.6,0-1.1,0-1.8c1.8,0,3.4,0,5.1,0
		c1.8,0,3.5,0,5.3-0.1c0.5,0,0.7,0.2,0.7,0.7C17.3,40.5,17.3,40.5,15.4,40.6z"/>
	<path id="XMLID_609_" class="st0" d="M41.9,25.6c-0.2-4.3-0.3-8.6-0.4-12.9c0-1.3-0.8-2.2-2.1-2.6c-1.1-0.3-2.3,0.2-2.8,1.4
		c-0.4,0.9-0.6,1.9-0.7,2.9c-0.1,2.5,0,5,0,7.4c0,0.3,0,0.5,0,0.9c-0.2-0.2-0.3-0.3-0.4-0.4c-1-0.9-2.4-0.8-3.4,0.1
		c-1.6,1.5-3.3,3-4.9,4.6c-0.6,0.6-1,1.3-1.3,2c-0.3,0.7-0.3,1.5-0.3,2.3c0,1.7,0,3.5,0,5.3c-0.2,0-0.4,0-0.5,0
		c-1.3,0-1.8,0.6-1.9,1.9c0,0.5,0,1,0,1.5c0,1.3,0.6,1.9,1.9,1.9c2.3,0,4.7,0,7,0c1.1,0,2.2,0,3.2,0c0.9,0,1.6-0.6,1.6-1.4
		c0-0.8,0-1.6,0-2.4c0-0.8-0.7-1.4-1.4-1.4c-0.3,0-0.7,0-1,0c-0.2-0.7-0.1-1.2,0.4-1.6c1.7-1.7,3.4-3.4,5.1-5.1
		C41.4,28.8,42,27.4,41.9,25.6z M35.1,38.1c0.5,0,0.7,0.1,0.6,0.6c0,0.1,0,0.3,0,0.4c0,1.5,0,1.5-1.5,1.5c-1.4,0-2.7,0-4.1,0
		c0,0,0,0,0,0c-1.6,0-3.2,0-4.9,0c-0.5,0-0.7-0.1-0.7-0.7c0-1.9,0-1.9,1.9-1.9C29.3,38,32.2,38.1,35.1,38.1z M39.2,29.1
		c-1.8,1.7-3.5,3.5-5.2,5.2c-0.6,0.5-0.9,1.1-0.8,1.9c0,0.2,0,0.3,0,0.5c-2,0-4,0-5.9,0c-0.1-0.1-0.1-0.1-0.1-0.2
		c0-2.2,0-4.3,0.1-6.5c0-0.9,0.5-1.6,1.1-2.1c1.6-1.4,3.1-2.9,4.7-4.3c0.5-0.5,1.2-0.6,1.6-0.2c0.5,0.4,0.5,1,0,1.6
		c-0.8,0.9-1.7,1.8-2.6,2.7c-0.1,0.1-0.3,0.2-0.4,0.4c0,0.3-0.1,0.7,0.1,0.9c0.1,0.2,0.7,0.2,0.8,0.1c1.5-1.5,3.2-2.8,4.3-4.7
		c0.3-0.6,0.5-1.4,0.5-2.1c0.1-2.6,0-5.1,0-7.7c0-0.7,0.2-1.5,0.4-2.2c0.2-0.6,0.6-1,1.3-0.9c0.7,0.1,1.1,0.6,1.1,1.4
		c0.1,4.3,0.2,8.5,0.4,12.8C40.6,27,40.2,28.1,39.2,29.1z"/>
	<path id="XMLID_616_" class="st0" d="M26.8,9.4c0.3-0.6,0.2-1-0.3-1.4c-0.3-0.2-0.5-0.5-0.7-0.7c-0.4-0.5-0.8-0.6-1.4-0.3
		c-0.6,0.3-1.6-0.1-1.8-0.7c-0.2-0.6-0.5-0.8-1.2-0.8c-0.4,0-0.7,0-1.1,0c-0.6,0-1,0.2-1.1,0.8C19,6.8,18,7.2,17.5,7
		c-0.6-0.3-1.1-0.2-1.5,0.3c-0.2,0.2-0.4,0.4-0.6,0.6c-0.5,0.4-0.6,0.9-0.3,1.5c0.3,0.5-0.2,1.6-0.7,1.7c-0.7,0.2-0.9,0.6-0.8,1.3
		c0,0.3,0,0.6,0,0.9c-0.1,0.6,0.2,1,0.8,1.2c0.6,0.2,1,1.2,0.8,1.7c-0.3,0.6-0.2,1.1,0.3,1.5c0.3,0.2,0.5,0.5,0.8,0.8
		c0.3,0.4,0.7,0.5,1.1,0.2c0.8-0.4,1.6,0,2,0.8c0.3,0.8,2.6,1,3.1,0.4c0.1-0.1,0.1-0.2,0.1-0.2c0.5-1,1.2-1.3,2.2-0.9
		c0.1,0,0.2,0.1,0.4,0.1c0.2-0.1,0.4-0.2,0.5-0.3c0.3-0.3,0.6-0.6,0.9-0.9c0.5-0.4,0.6-0.8,0.3-1.4c-0.3-0.5,0.1-1.6,0.7-1.7
		c0.7-0.2,0.9-0.6,0.8-1.3c0-0.3,0-0.6,0-0.9c0-0.6-0.2-1-0.8-1.1C26.9,10.9,26.5,9.9,26.8,9.4z M26.5,13.4
		c-0.2,0.3-0.5,0.6-0.7,0.9c-0.2,0.3-0.2,0.6-0.4,0.9c-0.2,0.4-0.3,0.8-0.1,1.3c0.1,0.1,0,0.5-0.1,0.6c-0.2,0.1-0.5,0.3-0.7,0.2
		c-0.5-0.2-0.9-0.2-1.3,0.1c-0.2,0.1-0.6,0.2-0.8,0.3c-0.3,0.2-0.6,0.5-0.9,0.8c-0.2,0.1-0.4,0.4-0.6,0.4c-0.2,0-0.4-0.2-0.6-0.4
		c-0.3-0.2-0.5-0.6-0.9-0.8c-0.3-0.2-0.7-0.4-1.1-0.5c-0.3-0.1-0.6-0.2-0.8-0.1c-0.6,0.3-0.9,0-1.2-0.4c0.5-0.6,0.3-1.2,0-1.8
		c-0.3-0.6-0.4-1.4-1.2-1.6c-0.3-0.1-0.2-0.9,0.1-1c0.6-0.2,0.8-0.6,1-1.2c0.1-0.2,0.2-0.5,0.3-0.7c0.2-0.4,0.3-0.8,0.1-1.2
		c-0.1-0.2,0-0.5,0.1-0.7c0.1-0.1,0.5-0.2,0.7-0.1c0.4,0.2,0.8,0.1,1.2-0.1c0.3-0.2,0.6-0.2,0.9-0.4c0.3-0.2,0.6-0.5,0.9-0.7
		c0.2-0.1,0.4-0.4,0.6-0.4c0.2,0,0.4,0.2,0.6,0.4c0.3,0.2,0.5,0.5,0.9,0.7c0.3,0.2,0.6,0.3,1,0.4c0.3,0.1,0.7,0,1.1,0.1
		c0.3,0,0.5,0,0.8,0.1c0.3,0.2,0.2,0.5,0.1,0.7c-0.1,0.3,0,0.7,0,1c0.1,0.4,0.2,0.7,0.4,1.1c0.2,0.3,0.5,0.5,0.7,0.8
		c0.2,0.2,0.4,0.4,0.4,0.6C26.9,13,26.7,13.2,26.5,13.4z"/>
	<path id="XMLID_617_" class="st0" d="M11.4,19.1c0.2,0,0.5-0.3,0.6-0.6c0.1-0.3-0.1-0.6-0.2-0.9c-1.9-3.9-1.6-7.7,1-11.2
		c2.4-3.2,7-4.7,10.3-3.7c-0.1,0.4-0.3,0.9-0.2,1.2c0.2,0.6,0.7,0.5,1.2,0.4c0.8-0.1,1.5-0.2,2.3-0.4c0.8-0.2,1.1-0.7,0.6-1.4
		c-0.4-0.7-0.9-1.3-1.3-1.9c-0.3-0.4-0.6-0.9-1.1-0.6c-0.3,0.2-0.4,0.7-0.6,1.2c-2.4-0.7-5.1-0.6-7.6,0.6C12,3.8,9.6,7.2,9.1,11.9
		c-0.2,2.3,0.3,4.5,1.5,6.6C10.7,18.8,11.1,19,11.4,19.1z"/>
	<path id="XMLID_633_" class="st0" d="M32.6,10.5c-0.2-1.2-0.8-2.4-1.3-3.5c-0.2-0.4-0.6-0.7-1.1-0.4c-0.5,0.3-0.5,0.7-0.3,1.1
		C30,7.9,30.1,8,30.1,8.1c2.6,5.1,0.6,11.3-4.5,13.9c-2.2,1.1-4.6,1.4-6.9,0.9c0.1-0.5,0.3-1,0.2-1.2c-0.1-0.3-0.7-0.4-1.1-0.4
		c-0.8,0.1-1.6,0.2-2.4,0.4c-0.8,0.2-0.9,0.7-0.5,1.3c0.5,0.8,1,1.5,1.5,2.2c0.4,0.5,1,0.5,1.3,0.1c0.1-0.3,0.1-0.7,0.1-1
		c0,0,0.1,0,0.1,0c2.6,0.6,5.2,0.5,7.7-0.6C30.7,21.5,33.7,16,32.6,10.5z"/>
	<path id="XMLID_644_" class="st0" d="M20.9,9c-2.2,0-3.9,1.7-3.9,3.8c0,2.1,1.7,3.9,3.9,3.9c2.1,0,3.9-1.7,3.9-3.9
		C24.8,10.7,23.1,9,20.9,9z M20.9,15.3c-1.4,0-2.6-1.2-2.6-2.5c0-1.4,1.1-2.5,2.5-2.5c1.4,0,2.6,1.1,2.6,2.5
		C23.4,14.2,22.3,15.3,20.9,15.3z"/>
</g>
</svg>
