<svg width="42" height="42" viewBox="0 0 42 42" fill="none" xmlns="http://www.w3.org/2000/svg">
<g clip-path="url(#clip0_703_237)">
<g clip-path="url(#clip1_703_237)">
<path d="M32.3631 33.3125C33.4631 33.3125 34.6631 33.3125 35.7631 33.3125C30.0631 40.0125 21.0631 42.6125 12.4631 38.5125C8.16306 36.4125 4.96306 33.3125 2.96306 29.0125C0.0630577 22.9125 0.763058 16.9125 3.76306 11.1125C3.36306 10.9125 3.06306 10.7125 2.76306 10.5125C-1.43694 17.2125 -1.13694 28.0125 5.66306 35.1125C9.46306 39.1125 14.0631 41.2125 19.5631 41.5125C26.2631 41.8125 31.8631 39.5125 36.5631 34.4125C36.5631 35.5125 36.5631 36.4125 36.5631 37.3125C36.9631 37.3125 37.3631 37.3125 37.6631 37.3125C37.6631 35.5125 37.6631 33.7125 37.6631 32.0125C35.8631 32.0125 34.1631 32.0125 32.3631 32.0125C32.3631 32.4125 32.3631 32.8125 32.3631 33.3125Z" fill="white"/>
<path d="M36.7631 7.51249C32.7631 2.71249 27.5631 0.212493 21.2631 0.0124928C15.1631 -0.187507 9.86309 2.01249 5.36309 6.71249C5.36309 5.61249 5.36309 4.61249 5.36309 3.61249C4.96309 3.61249 4.56309 3.61249 4.16309 3.61249C4.16309 5.41249 4.16309 7.11249 4.16309 8.91249C5.96309 8.91249 7.76309 8.91249 9.46309 8.91249C9.46309 8.51249 9.46309 8.11249 9.46309 7.71249C8.36309 7.71249 7.36309 7.71249 6.26309 7.71249C11.0631 2.21249 19.2631 -0.787507 27.5631 2.51249C31.9631 4.21249 35.4631 7.11249 37.7631 11.2125C41.2631 17.3125 40.9631 23.6125 38.0631 29.8125C38.4631 30.0125 38.7631 30.2125 39.0631 30.3125C42.7631 24.0125 42.4631 14.3125 36.7631 7.51249Z" fill="white"/>
<path d="M27.4631 17.7125C27.3631 17.5125 27.2631 17.3125 27.2631 17.2125C27.1631 16.7125 26.8631 16.5125 26.3631 16.6125C26.1631 16.6125 25.9631 16.6125 25.7631 16.6125C25.1631 16.6125 24.7631 16.2125 24.8631 15.6125C24.9631 14.4125 24.9631 14.4125 23.8631 13.9125C23.3631 13.7125 22.9631 13.5125 22.5631 13.4125C21.9631 13.7125 21.8631 14.6125 20.9631 14.6125C20.0631 14.6125 19.9631 13.7125 19.3631 13.4125C18.9631 13.6125 18.5631 13.7125 18.1631 13.9125C16.9631 14.4125 16.9631 14.4125 17.0631 15.7125C17.0631 16.2125 16.6631 16.7125 16.2631 16.6125C14.9631 16.3125 14.5631 17.1125 14.1631 18.1125C13.8631 19.1125 13.7631 19.1125 14.5631 19.8125C14.9631 20.1125 15.1631 20.6125 14.9631 21.0125C14.8631 21.3125 14.4631 21.6125 14.1631 21.8125C13.8631 22.1125 13.7631 22.3125 13.9631 22.7125C14.1631 23.2125 14.4631 23.7125 14.5631 24.2125C14.6631 24.6125 14.9631 24.7125 15.2631 24.6125C15.5631 24.6125 15.8631 24.5125 16.1631 24.6125C16.6631 24.7125 16.9631 25.0125 16.9631 25.5125C16.9631 25.8125 16.9631 26.1125 16.8631 26.3125C16.8631 26.7125 16.9631 26.9125 17.2631 27.0125C17.9631 27.2125 18.6631 27.5125 19.2631 27.8125C19.8631 27.5125 19.9631 26.6125 20.8631 26.6125C21.7631 26.6125 21.8631 27.5125 22.4631 27.8125C22.9631 27.6125 23.4631 27.4125 23.8631 27.2125C24.8631 26.8125 24.8631 26.8125 24.7631 25.7125C24.6631 24.9125 25.0631 24.5125 25.8631 24.5125C27.0631 24.5125 27.0631 24.5125 27.4631 23.4125C27.4631 23.4125 27.4631 23.4125 27.4631 23.3125C27.9631 22.1125 27.9631 22.1125 27.0631 21.2125C26.6631 20.8125 26.6631 20.2125 27.0631 19.8125C27.9631 19.0125 27.9631 19.0125 27.4631 17.7125ZM26.3631 22.9125C26.2631 23.2125 26.0631 23.3125 25.6631 23.3125C24.5631 23.2125 23.4631 24.2125 23.4631 25.4125C23.4631 25.8125 23.4631 26.0125 23.0631 26.2125C22.5631 26.4125 22.4631 26.1125 22.1631 25.9125C21.4631 25.1125 19.9631 25.2125 19.2631 25.9125C19.0631 26.1125 18.8631 26.4125 18.4631 26.2125C18.0631 26.0125 17.9631 25.8125 17.9631 25.4125C17.9631 24.4125 16.8631 23.2125 15.8631 23.3125C15.5631 23.4125 15.2631 23.4125 15.0631 22.9125C14.8631 22.4125 15.0631 22.2125 15.3631 22.1125C15.7631 21.8125 15.8631 21.4125 15.8631 20.9125C15.8631 20.1125 15.9631 19.4125 15.1631 18.9125C15.0631 18.8125 15.0631 18.4125 15.1631 18.2125C15.2631 18.0125 15.4631 17.8125 15.6631 17.8125C16.8631 18.1125 17.3631 17.2125 17.9631 16.5125C18.1631 16.3125 18.0631 15.8125 18.0631 15.5125C18.0631 15.1125 18.2631 14.9125 18.5631 14.9125C18.7631 14.9125 19.0631 14.9125 19.1631 15.1125C19.7631 16.1125 20.7631 15.7125 21.6631 15.7125C21.8631 15.7125 22.1631 15.3125 22.3631 15.1125C22.5631 14.9125 22.7631 14.8125 23.0631 14.9125C23.3631 15.0125 23.5631 15.2125 23.5631 15.6125C23.2631 16.7125 24.2631 17.2125 24.8631 17.8125C25.0631 18.0125 25.4631 17.9125 25.7631 17.9125C26.0631 17.9125 26.2631 17.9125 26.4631 18.3125C26.5631 18.6125 26.5631 18.8125 26.2631 19.1125C25.3631 19.9125 25.3631 21.4125 26.2631 22.2125C26.4631 22.4125 26.4631 22.6125 26.3631 22.9125Z" fill="white"/>
<path d="M26.263 30.0125C26.263 31.2125 26.263 32.2125 26.263 33.4125C25.963 33.2125 25.863 33.1125 25.663 33.0125C24.263 32.1125 22.763 31.1125 21.363 30.2125C21.163 30.2125 20.963 30.0125 20.763 30.0125C18.863 30.0125 16.863 30.0125 14.863 30.0125C14.863 30.4125 14.863 30.8125 14.863 31.3125C15.163 31.3125 15.363 31.3125 15.563 31.3125C17.063 31.3125 18.463 31.3125 19.963 31.3125C20.263 31.3125 20.663 31.4125 20.963 31.6125C22.963 32.8125 24.863 34.1125 26.863 35.4125C27.063 35.5125 27.163 35.6125 27.463 35.7125C27.463 34.2125 27.463 32.8125 27.463 31.3125C28.263 31.3125 29.063 31.3125 29.863 31.3125C32.163 31.3125 33.563 29.9125 33.563 27.7125C33.563 22.9125 33.563 18.1125 33.563 13.3125C33.563 12.7125 33.463 12.2125 33.263 11.7125C32.563 10.1125 30.963 9.41247 28.863 9.81247C28.863 10.2125 28.863 10.5125 28.863 10.9125C29.263 10.9125 29.663 10.9125 30.063 10.9125C31.663 10.9125 32.463 11.7125 32.463 13.3125C32.463 18.1125 32.463 22.9125 32.463 27.7125C32.463 29.3125 31.663 30.0125 30.063 30.0125C28.763 30.0125 27.563 30.0125 26.263 30.0125Z" fill="white"/>
<path d="M12.663 9.71249C12.163 9.71249 11.663 9.71249 11.063 9.71249C9.46301 9.81249 8.16301 10.9125 7.96301 12.6125C7.96301 12.8125 7.96301 13.1125 7.96301 13.4125C7.96301 18.1125 7.96301 22.9125 7.96301 27.6125C7.96301 29.3125 8.66301 30.5125 10.063 31.0125C11.263 31.4125 12.463 31.2125 13.663 31.3125C13.663 30.8125 13.663 30.5125 13.663 30.0125C12.963 30.0125 12.263 30.0125 11.563 30.0125C9.96301 30.0125 9.26301 29.2125 9.26301 27.6125C9.26301 22.8125 9.26301 18.0125 9.26301 13.2125C9.26301 11.6125 10.063 10.8125 11.663 10.8125C16.663 10.8125 21.763 10.8125 26.763 10.8125C27.063 10.8125 27.263 10.8125 27.563 10.8125C27.563 10.4125 27.563 10.0125 27.563 9.61249C27.263 9.61249 26.963 9.61249 26.763 9.61249C21.963 9.71249 17.363 9.71249 12.663 9.71249Z" fill="white"/>
<path d="M30.1631 26.8125C29.7631 26.8125 29.3631 26.8125 29.0631 26.8125C29.0631 27.2125 29.0631 27.6125 29.0631 28.0125C29.4631 28.0125 29.7631 28.0125 30.1631 28.0125C30.1631 27.5125 30.1631 27.1125 30.1631 26.8125Z" fill="white"/>
<path d="M11.363 14.4125C11.763 14.4125 12.163 14.4125 12.463 14.4125C12.463 14.0125 12.463 13.7125 12.463 13.3125C12.063 13.3125 11.663 13.3125 11.363 13.3125C11.363 13.7125 11.363 14.0125 11.363 14.4125Z" fill="white"/>
<path d="M20.8631 17.5125C19.2631 17.4125 17.7631 18.7125 17.7631 20.4125C17.6631 22.1125 18.9631 23.5125 20.7631 23.6125C22.4631 23.7125 23.7631 22.4125 23.8631 20.6125C23.8631 19.0125 22.5631 17.6125 20.8631 17.5125ZM20.7631 22.4125C19.7631 22.4125 18.9631 21.6125 18.9631 20.6125C18.9631 19.6125 19.7631 18.7125 20.8631 18.8125C21.8631 18.8125 22.6631 19.6125 22.6631 20.6125C22.5631 21.6125 21.7631 22.4125 20.7631 22.4125Z" fill="white"/>
</g>
</g>
<defs>
<clipPath id="clip0_703_237">
<rect width="42" height="42" fill="white"/>
</clipPath>
<clipPath id="clip1_703_237">
<rect width="41.6" height="42" fill="white"/>
</clipPath>
</defs>
</svg>
