<?xml version="1.0" encoding="utf-8"?>
<!-- Generator: Adobe Illustrator 19.0.0, SVG Export Plug-In . SVG Version: 6.00 Build 0)  -->
<svg version="1.1" id="Layer_1" xmlns="http://www.w3.org/2000/svg" xmlns:xlink="http://www.w3.org/1999/xlink" x="0px" y="0px"
	 viewBox="0 0 42 42" style="enable-background:new 0 0 42 42;" xml:space="preserve">
<style type="text/css">
	.st0{fill:#1B3ECD;}
</style>
<g id="XMLID_18_">
	<path id="XMLID_228_" class="st0" d="M29.1,21.5c0,4.4-3.6,8.1-8,8.1c-4.5,0-8.1-3.6-8.2-8.1c0-4.5,3.6-8.1,8.1-8.1
		C25.5,13.4,29.1,17,29.1,21.5z M21,14.1c-4,0-7.3,3.3-7.3,7.3c0,4.1,3.3,7.4,7.4,7.4c4,0,7.3-3.3,7.3-7.3
		C28.4,17.4,25.1,14.1,21,14.1z"/>
	<path id="XMLID_227_" class="st0" d="M36.1,27.7c0.4-0.1,0.7-0.3,1.2-0.4c-0.1-0.3-0.1-0.6-0.1-0.8c-0.1-1.3,1-2.1,2.3-1.7
		c0.7,0.2,0.7-0.3,0.9-0.6c0.2-0.3,0.2-0.5-0.2-0.7c-0.7-0.4-1.1-1-1-1.8c0.1-0.8,0.5-1.3,1.3-1.5c0.1,0,0.1-0.1,0.3-0.2
		c-0.1-0.3-0.1-0.6-0.2-0.8c-0.1-0.2-0.4-0.4-0.6-0.3c-1.5,0.5-2.9-1.1-2.2-2.5c0.1-0.1-0.1-0.5-0.3-0.6c-0.3-0.1-0.8-0.2-0.9-0.1
		c-1.4,1.4-2.3,1.4-3.5-0.4c-0.4,0.1-0.7,0.3-1.1,0.4c0.1,0,0.1,0.1,0.2,0.1c-0.2,0.6-0.3,1.3-0.5,1.9c-0.1,0.2-0.4,0.4-0.6,0.5
		c-0.1,0.1-0.4,0-0.5-0.1c0.1-0.2,0.1-0.4,0.2-0.5c0.7-0.4,0.8-1,0.5-1.6c0,0,0-0.1,0-0.1c0.1-1.1,1.1-0.9,1.8-1.2
		c0.5-0.2,0.9-0.1,1,0.5c0.1,0.5,0.5,1,1,0.9c0.4-0.1,0.7-0.5,1-0.8c0.1,0,0.1-0.1,0.1-0.2c0.3-0.5,1-0.3,2.2,0.3
		c0.5,0.3,0.8,0.6,0.4,1.2c-0.3,0.5-0.4,0.9,0,1.3c0.4,0.4,0.9,0.4,1.4,0.1c0.5-0.3,0.8-0.1,1,0.4c0.2,0.4,0.3,0.8,0.5,1.1
		c0.3,0.7,0.1,1.1-0.7,1.4C40.3,21,40,21.5,40,21.8c0,0.3,0.4,0.8,0.7,1c0.7,0.3,0.8,0.7,0.5,1.3c-0.2,0.3-0.3,0.7-0.5,1
		c-0.3,0.6-0.6,0.8-1.3,0.5c-0.3-0.1-0.9-0.1-1.2,0.1c-0.2,0.2-0.3,0.8-0.2,1.1c0.2,0.6,0,0.9-0.5,1.2c-0.4,0.2-0.8,0.3-1.2,0.4
		c-0.5,0.2-0.8,0-1.1-0.5c-0.2-0.4-0.6-0.8-1-0.8c-0.3,0-0.8,0.4-1,0.7c-0.3,0.5-0.6,0.6-1.1,0.5c-0.3-0.1-0.7-0.3-1-0.4
		c-0.9-0.5-0.8-0.5-0.5-1.5c0.1-0.3-0.1-0.8-0.1-1.2c0-0.2,0-0.4,0-0.6c0.2,0.1,0.4,0.1,0.5,0.2c0.5,0.6,0.5,1.2,0.3,2
		c-0.1,0.2,0.1,0.5,0.3,0.6c0.3,0.1,0.8,0.2,0.9,0.1C34,25.8,35,25.9,36.1,27.7z"/>
	<path id="XMLID_226_" class="st0" d="M5.9,15.4c-0.8,0.1-1.2,0.3-1.1,1.3c0.2,1-0.9,1.9-2,1.7c-1-0.1-1-0.1-1.4,0.9
		c2,1.1,1.6,3-0.3,3.7c0.1,0.4,0.3,0.8,0.4,1.2c0.4-0.1,0.6-0.2,0.9-0.2c1.3-0.1,2.2,1.1,1.8,2.3c-0.2,0.5-0.2,0.7,0.3,0.9
		c0.4,0.2,0.7,0.3,1.1-0.2C6.4,26,8,26,8.5,26.9c0.5,0.8,1,0.7,1.6,0.3c0-0.4-0.1-1,0-1.3c0.2-0.4,0.7-0.8,1-1.2
		c0.1-0.1,0.3,0.1,0.5,0.1c0,0.2,0,0.4-0.1,0.5c-0.7,0.4-0.9,1-0.5,1.7c0,0,0.1,0.1,0,0.1c-0.2,1-1.1,0.9-1.7,1.2
		c-0.5,0.2-0.9,0.2-1.1-0.4c-0.1-0.5-0.5-1-1-0.9c-0.4,0.1-0.7,0.5-1,0.8c-0.1,0-0.1,0.1-0.1,0.2c-0.3,0.4-1,0.3-2.2-0.4
		c-0.5-0.3-0.7-0.6-0.4-1.2c0.3-0.5,0.4-0.9,0-1.3c-0.4-0.4-0.9-0.4-1.3-0.2c-0.5,0.3-0.9,0.1-1.1-0.4c-0.1-0.3-0.3-0.6-0.4-0.9
		c-0.4-1.1-0.3-1.1,0.7-1.6c0.3-0.2,0.6-0.6,0.6-0.9c0-0.3-0.3-0.8-0.6-0.9c-0.8-0.5-0.9-0.6-0.5-1.4C1,18.5,1.2,18.3,1.3,18
		c0.3-0.6,0.6-0.9,1.4-0.5c0.3,0.2,0.9,0.1,1.2-0.2C4,17.1,4.2,16.5,4,16.2c-0.2-0.7,0-1,0.6-1.3c0.3-0.1,0.6-0.2,0.9-0.3
		c0.6-0.2,1.1-0.1,1.3,0.6c0.1,0.3,0.6,0.7,0.9,0.7c0.3,0,0.8-0.3,0.9-0.6c0.3-0.7,0.8-0.8,1.4-0.5c0.3,0.1,0.7,0.3,1,0.5
		c0.6,0.3,0.7,0.7,0.4,1.3c-0.2,0.3,0,0.8,0.1,1.3c0,0.2,0,0.4,0,0.6c-0.2-0.1-0.5-0.1-0.6-0.2c-0.5-0.6-0.5-1.2-0.3-1.9
		c0-0.2-0.1-0.5-0.3-0.6c-0.3-0.1-0.8-0.2-0.9-0.1C7.9,17.2,7,17.1,5.9,15.4z"/>
	<path id="XMLID_225_" class="st0" d="M10.6,11.3c0.5-0.1,0.9-0.3,1.4-0.4c0.2,0,0.3,0.1,0.5,0.2c-0.1,0.2-0.2,0.4-0.3,0.5
		c-1,0.4-2,0.7-3,1c-0.1,0-0.5-0.3-0.5-0.5c0.1-1,0.2-2,0.3-3c0-0.2,0.3-0.3,0.4-0.5C9.5,8.8,9.6,9,9.7,9.2c0,0.5-0.1,1.1-0.1,1.8
		c0.4-0.3,0.6-0.6,0.9-0.8c6.5-6,16.4-5.5,22.3,1.1c0.2,0.2,0.4,0.5,0.6,0.7c0.1,0.1,0,0.3,0,0.5c-0.2,0-0.4,0-0.5-0.1
		c-0.2-0.2-0.4-0.5-0.6-0.7C26.7,5.5,16.9,5,10.9,10.7c-0.2,0.2-0.4,0.3-0.5,0.4C10.4,11.2,10.5,11.2,10.6,11.3z"/>
	<path id="XMLID_224_" class="st0" d="M32.5,32.3c-1.5,1-2.8,2.1-4.3,2.9c-6.4,3.4-14.5,1.7-19.1-3.8c-0.1-0.1-0.2-0.2-0.2-0.2
		c-0.1-0.2-0.1-0.5-0.1-0.7c0.2,0.1,0.5,0.1,0.7,0.2c1.2,1,2.2,2.2,3.5,3.1c5.6,3.8,13.5,3,18.3-1.7c0.1-0.1,0.2-0.3,0.3-0.5
		c-0.5,0.1-0.9,0.3-1.4,0.4c-0.2,0-0.4-0.1-0.6-0.2c0.1-0.2,0.2-0.4,0.3-0.5c0.9-0.4,1.9-0.7,2.8-1c0.5-0.2,0.7,0,0.7,0.5
		c-0.1,1-0.2,2-0.4,3c0,0.2-0.3,0.3-0.4,0.4c-0.1-0.2-0.3-0.4-0.3-0.5C32.3,33.3,32.4,32.8,32.5,32.3z"/>
	<path id="XMLID_221_" class="st0" d="M36.9,21.5c0,1.3-1.1,2.4-2.4,2.4c-1.3,0-2.3-1.1-2.3-2.4c0-1.3,1.1-2.4,2.4-2.4
		C35.9,19.1,36.9,20.2,36.9,21.5z M36.2,21.5c0-0.9-0.8-1.7-1.7-1.6c-0.9,0-1.6,0.8-1.6,1.7c0,0.9,0.8,1.7,1.7,1.7
		C35.5,23.2,36.2,22.4,36.2,21.5z"/>
	<path id="XMLID_218_" class="st0" d="M5.1,21.5c0-1.3,1-2.4,2.4-2.4c1.3,0,2.4,1.1,2.4,2.4c0,1.3-1.1,2.4-2.4,2.4
		C6.2,23.9,5.1,22.9,5.1,21.5z M5.8,21.5c0,0.9,0.8,1.7,1.7,1.7c0.9,0,1.6-0.7,1.6-1.6c0-0.9-0.7-1.7-1.6-1.7
		C6.6,19.8,5.9,20.6,5.8,21.5z"/>
	<path id="XMLID_212_" class="st0" d="M21.2,17c0.1,0.2,0.2,0.4,0.2,0.6c0,0.5,0.1,0.8,0.7,1c0.1,0,0.2,0.1,0.2,0.1
		c0.2,0.3,0.4,0.6,0.6,0.9c-0.3-0.1-0.6-0.1-0.9-0.2c-0.2-0.1-0.4-0.2-0.6-0.2c-0.6-0.1-1.1,0-1.3,0.6c-0.2,0.6,0.3,0.8,0.8,1.1
		c0.4,0.2,0.8,0.3,1.2,0.4c0.7,0.3,1.2,0.8,1.2,1.6c0,0.8-0.5,1.3-1.2,1.5c-0.5,0.1-0.4,0.5-0.5,0.8c0,0.3-0.2,0.5-0.3,0.8
		c-0.1-0.2-0.4-0.5-0.4-0.7c0-0.6-0.2-0.8-0.7-1c-0.3-0.1-0.6-0.3-0.9-0.5C19,23.7,19,23.4,19,23.2c0.2,0,0.4-0.1,0.6,0
		c0.6,0.2,1.2,0.5,1.8,0.5c0.3,0,0.8-0.4,0.9-0.8c0.1-0.2-0.4-0.7-0.7-0.9c-0.4-0.3-1-0.4-1.4-0.6c-0.6-0.3-1-0.7-1-1.4
		c0-0.7,0.4-1.1,1-1.3c0.5-0.2,0.5-0.5,0.5-0.9c0-0.2,0.2-0.4,0.3-0.7C21,17,21.1,17,21.2,17z"/>
</g>
</svg>
