<?xml version="1.0" encoding="utf-8"?>
<!-- Generator: Adobe Illustrator 19.0.0, SVG Export Plug-In . SVG Version: 6.00 Build 0)  -->
<svg version="1.1" id="Layer_1" xmlns="http://www.w3.org/2000/svg" xmlns:xlink="http://www.w3.org/1999/xlink" x="0px" y="0px"
	 viewBox="0 0 42 42" style="enable-background:new 0 0 42 42;" xml:space="preserve">
<style type="text/css">
	.st0{fill:#FFFFFF;}
</style>
<g id="XMLID_174_">
	<path id="XMLID_194_" class="st0" d="M16.3,25.9L16.3,25.9L16.3,25.9c0-0.1,0-0.1-0.1-0.2l0-0.1l-0.6,0l0,0.1c0,0.1,0,0.2,0,0.3
		c0,0.2-0.1,0.4-0.1,0.7c0,1.1,0,2.3,0,3.4c0,1.1,0,2.2,0,3.4c0,1.1-0.2,1.3-1.3,1.3c-3.9,0-7.8,0-11.7,0c-1.2,0-1.4-0.2-1.4-1.4
		c0-5.8,0-11.7,0-17.5c0-1.2,0.2-1.4,1.4-1.4c3.8,0,7.7,0,11.5,0c1.3,0,1.5,0.2,1.5,1.5c0,0.5,0,1,0,1.6l0,0.9l0.7,0.1l0-0.1
		c0-0.1,0-0.1,0.1-0.2c0-0.2,0.1-0.3,0.1-0.5c0-0.6,0-1.3,0-2.1c0-1.3-0.7-2-2-2c-4.4,0-8.4,0-12.3,0c-1.3,0-2,0.7-2,2
		c0,6.2,0,12.3,0,18.1c0,1.3,0.7,2,1.9,2c2.1,0,4.2,0,6.2,0c2.1,0,4.2,0,6.2,0c1.2,0,1.9-0.7,1.9-1.9c0-2.5,0-5,0-7.4
		C16.4,26.2,16.4,26,16.3,25.9z"/>
	<path id="XMLID_193_" class="st0" d="M2.1,29.9c0,1.3,0.7,2.1,1.9,2.1c1.4,0,2.9,0,4.3,0c1.5,0,3,0,4.4,0c1.1,0,1.8-0.8,1.8-1.8
		c0-1.1,0-2.4,0-3.8c0-0.2-0.1-0.3-0.2-0.5c0-0.1-0.1-0.1-0.1-0.2l-0.2-0.3l-0.2,0.3c0,0.1-0.1,0.1-0.1,0.2
		c-0.1,0.2-0.2,0.3-0.2,0.5c0,0.7,0,1.5,0,2.2l0,0c0,0.4,0,0.8,0,1.1c0,1.1-0.2,1.3-1.3,1.3c-2.5,0-5.1,0-8,0C3.3,31,3,30.8,3,29.7
		c0-4,0-8,0-12c0-1,0.3-1.3,1.3-1.3c1.9,0,3.7,0,5.6,0l1.9,0c1.5,0,1.5,0,1.8,1.5l0,0c0,0.2,0.1,0.3,0.2,0.4c0,0,0.1,0.1,0.1,0.1
		l0.1,0.2l0.1-0.2c0,0,0.1-0.1,0.1-0.1c0.1-0.1,0.2-0.2,0.2-0.4c0.1-0.7,0-1.3-0.4-1.8c-0.4-0.5-1-0.7-1.7-0.7c-2.4,0-4.9,0-7.1,0
		l-1,0c-1.7,0-2.3,0.7-2.3,2.3c0,1.4,0,2.9,0,4.3l0,1.6c0,0.6,0,1.2,0,1.9C2.1,27,2.1,28.5,2.1,29.9z"/>
	<path id="XMLID_185_" class="st0" d="M5.3,12.4c0,0.1,0,0.1,0,0.2l0,0.1l0.5,0.1l0-0.1c0-0.1,0-0.1,0.1-0.2
		c0.1-0.2,0.1-0.3,0.1-0.5c0-0.4,0-0.9,0-1.3c0-0.2,0-0.4,0-0.6c0-1.7,0.7-2.4,2.4-2.4c9.2,0,17.6,0,25.5,0c1.7,0,2.4,0.7,2.4,2.4
		c0,2.3,0,4.7,0,7l0,3.4c0,0.1,0,0.1,0,0.2c0,0.2,0,0.3,0,0.5c0,0.1,0.1,0.3,0.2,0.4c0,0,0.1,0.1,0.1,0.1l0.1,0.2l0.1-0.2
		c0,0,0.1-0.1,0.1-0.1c0.1-0.1,0.2-0.2,0.2-0.4c0-0.2,0-0.3,0-0.5c0-0.1,0-0.1,0-0.2l0-1.7c0-2.8,0-5.7,0-8.5c0-2.5-1-3.5-3.5-3.5
		c-4.6,0-9.3,0-13.9,0l-4.4,0c-0.6,0-1.2,0-1.8,0l-0.4,0c-1.7,0-3.5,0-5.2,0c-1.8,0-3,1.2-3,3c0,0.7,0,1.4,0,2.2
		C5.2,12,5.3,12.2,5.3,12.4z"/>
	<path id="XMLID_184_" class="st0" d="M33,21.1c0,0.2,0.1,0.4,0.1,0.7c0,0.1,0,0.2,0.1,0.3l0,0.2l0.6-0.1l0-0.1c0-0.1,0-0.1,0-0.2
		c0-0.2,0.1-0.3,0.1-0.5l0-1.1c0-2.5,0-5,0-7.5c0-1.5-1-2.5-2.5-2.5c-0.7,0-1.3,0-2,0l-0.1,0c-0.3,0-0.6,0-0.9,0l-4.6,0
		c-4.1,0-8.2,0-12.4,0c-1.4,0-2.3,0.6-2.6,1.7c0,0.2,0,0.3,0,0.6c0,0.1,0,0.2,0,0.4v0.4l0.3-0.3c0.1-0.1,0.2-0.2,0.3-0.2
		c0.1-0.1,0.2-0.2,0.3-0.3c0.3-1.1,1-1.3,2.2-1.3c4.3,0,8.6,0,13.1,0l0.6,0c1.8,0,3.7,0,5.5,0c1.5,0,1.9,0.5,1.9,1.9
		c0,1,0,1.9,0,2.9C33,17.6,33,19.3,33,21.1z"/>
	<path id="XMLID_183_" class="st0" d="M27.6,32.6c-0.4,0-0.9,0-1.3,0c-0.1,0-0.1,0-0.2,0c-0.1,0-0.2,0-0.3,0c-0.8,0-1.2,0-1.4-0.2
		c-0.1-0.2-0.1-0.6,0-1.4c0,0,0,0,0,0l2.4-0.2l0-0.7l-0.1,0c-0.1,0-0.2,0-0.3-0.1c-0.2,0-0.4-0.1-0.7-0.1c-2.3,0-4.8,0-7.3,0
		c-0.3,0-0.5,0.1-0.8,0.2c-0.1,0-0.2,0.1-0.3,0.1L17,30.5l1.2,0.6v1.4c0,0-0.1,0-0.1,0c-0.2,0-0.4,0-0.6,0.1
		c-0.1,0.1-0.2,0.2-0.2,0.4c0,0.1,0,0.1,0,0.1l0,0.2l0.2,0c0.1,0,0.2,0,0.3,0c0.3,0,0.6,0.1,0.9,0c0.3-0.1,0.4-0.6,0.5-0.8
		c0-0.4,0-0.8,0-1.2c0-0.1,0-0.2,0-0.4h4.2c0,0.1,0,0.2,0,0.3l0,0c0,0.4,0,0.7,0,1c0,0.4,0,0.7,0.2,0.8c0.2,0.2,0.4,0.2,0.8,0.2
		c0.6,0,1.2,0,1.8,0c0.3,0,0.6,0,0.8,0h0c0.7,0,1.1,0.1,1.1,0.6c0,0.2,0,0.4-0.1,0.4c-0.2,0.2-0.6,0.2-0.9,0.2c-0.2,0-0.4,0-0.5,0
		l-2.2,0c-2.1,0-4.2,0-6.3,0c-0.2,0-0.4,0.1-0.5,0.2c-0.1,0-0.1,0.1-0.2,0.1l-0.3,0.1l0.3,0.2c0.1,0,0.1,0.1,0.2,0.1
		c0.1,0.1,0.3,0.2,0.5,0.2c1.9,0,3.6,0,5.2,0c1.5,0,2.9,0,4.3,0c0.9,0,1.6-0.7,1.6-1.5C29.1,33.3,28.5,32.6,27.6,32.6z"/>
	<path id="XMLID_182_" class="st0" d="M18.1,24.7c0.2,0,0.3,0,0.5,0l0.1,0c0.1,0,0.3,0,0.4,0l0.1,0c0.3,0,0.7,0,1.1,0
		c1.6,0,2.8-1.1,2.8-2.6c0-1.5-1.1-2.7-2.6-2.7c-0.7,0-1.5,0-2.5,0c-0.2,0-0.4,0.1-0.5,0.2c-0.1,0-0.1,0.1-0.2,0.1l-0.3,0.2l0.3,0.1
		c0.1,0,0.1,0.1,0.2,0.1c0.2,0.1,0.3,0.2,0.5,0.2c0.4,0,0.9,0,1.3,0c0.4,0,0.7,0,1.1,0c1,0,1.8,0.8,1.8,1.7c0,0.5-0.2,0.9-0.5,1.2
		c-0.3,0.3-0.8,0.5-1.4,0.5c-1,0-2,0-3,0c-0.7,0-1.3-0.2-1.6-0.6c-0.3-0.4-0.4-0.9-0.3-1.7c0-0.2,0-0.3-0.1-0.5c0-0.1,0-0.1,0-0.2
		l-0.1-0.3l-0.2,0.2c0,0-0.1,0.1-0.2,0.1c-0.1,0.1-0.3,0.2-0.4,0.4c-0.2,0.7-0.1,1.5,0.3,2.2c0.5,0.7,1.2,1.1,2.1,1.2
		c0.2,0,0.4,0,0.7,0C17.7,24.7,17.9,24.7,18.1,24.7z"/>
	<path id="XMLID_179_" class="st0" d="M16.6,22.9c0,0.1,0,0.1,0,0.2l0,0.1l0.5,0.1l0.1-0.1c0-0.1,0.1-0.1,0.1-0.2
		c0.1-0.2,0.2-0.3,0.3-0.6c0.2-0.8,0-1.5-0.4-2.1c-0.4-0.5-1-0.9-1.6-0.9c-1.4-0.2-2.9-0.2-4.4,0c-1.3,0.1-2.3,1.3-2.2,2.8
		c0.1,1.4,1.2,2.4,2.6,2.5c0.3,0,0.7,0,1.1,0c0.4,0,0.9,0,1.3,0l0.1,0c0.2,0,0.3,0,0.5-0.1c0.1,0,0.1,0,0.2,0l0.1,0l0.1-0.5l-0.1,0
		c-0.1,0-0.1,0-0.2-0.1c-0.2-0.1-0.4-0.1-0.6-0.1c-0.4,0-0.8,0-1.2,0l0,0c-0.4,0-0.8,0-1.1,0c-1,0-1.7-0.7-1.7-1.7
		c0-0.9,0.7-1.7,1.7-1.7c1.3,0,2.5,0,3.5,0c0.5,0,1,0.2,1.3,0.6c0.3,0.4,0.4,0.9,0.3,1.5C16.6,22.6,16.6,22.7,16.6,22.9L16.6,22.9
		L16.6,22.9L16.6,22.9z"/>
	<path id="XMLID_177_" class="st0" d="M32.8,26.8c0-0.1,0-0.2-0.1-0.3l-1.9-1.9c-0.2-0.2-0.4-0.2-0.6,0c-0.2,0.2-0.2,0.4,0,0.6
		l1.2,1.1c-3.3,0-8.3,0-10.9,0c-0.2,0-0.4,0.1-0.5,0.1c-0.1,0-0.1,0.1-0.2,0.1l-0.1,0l0.1,0.5h11.4l-1,0.7c-0.1,0.1-0.1,0.2-0.2,0.3
		c0,0.1,0,0.2,0.1,0.3c0.1,0.1,0.2,0.2,0.3,0.2c0.1,0,0.2,0,0.3-0.1l1.9-1.5C32.7,27.1,32.8,26.9,32.8,26.8z"/>
	<path id="XMLID_176_" class="st0" d="M41.9,30.4l-0.1,0c-0.1,0-0.1-0.1-0.2-0.1c-0.2-0.1-0.3-0.1-0.5-0.1c-2.7,0-4.3,0-7.5,0
		l1.2-1.1c0.2-0.2,0.2-0.4,0-0.6c-0.2-0.2-0.4-0.2-0.6,0l-1.9,1.9c-0.1,0.1-0.1,0.2-0.1,0.3c0,0.1,0.1,0.2,0.2,0.3l1.9,1.5
		c0.1,0.1,0.2,0.1,0.3,0.1c0.1,0,0.3-0.1,0.3-0.2c0.1-0.1,0.1-0.2,0.1-0.3c0-0.1-0.1-0.2-0.2-0.3l-1-0.7h8L41.9,30.4z"/>
</g>
</svg>
