<?xml version="1.0" encoding="utf-8"?>
<!-- Generator: Adobe Illustrator 19.0.0, SVG Export Plug-In . SVG Version: 6.00 Build 0)  -->
<svg version="1.1" id="Layer_1" xmlns="http://www.w3.org/2000/svg" xmlns:xlink="http://www.w3.org/1999/xlink" x="0px" y="0px"
	 viewBox="0 0 42 42" style="enable-background:new 0 0 42 42;" xml:space="preserve">
<style type="text/css">
	.st0{fill:#FFFFFF;}
</style>
<g id="XMLID_303_">
	<path id="XMLID_448_" class="st0" d="M40.8,2.1c0-1.5-0.5-2.1-2.1-2.1c-4.1,0-8.3,0-12.4,0C24.5,0,24,0.4,24,2.3c0,2,0,4,0,6.1
		c-0.6,0-1,0-1.3,0c-6.2,0-12.5,0-18.7,0c-1.8,0-2.6,0.8-2.6,2.6c0,7.3,0,14.7,0,22c0,2,0.8,2.7,2.8,2.7c4.5,0,9,0,13.6,0
		c0.3,0,0.7,0,1.1,0c-0.2,0.8-0.3,1.4-0.4,2.1c-0.5,1.8,0,1.6-2,1.6c-1.6,0-1.8,0.2-1.6,1.8c0.1,0.5,0.3,0.7,0.8,0.7
		c3.7,0,7.4,0,11.1,0c0.2,0,0.6-0.2,0.7-0.4c0.6-1.2,0-2.1-1.4-2.1c-0.4,0-0.9,0.1-1.3,0c-0.2,0-0.5-0.3-0.6-0.5
		c-0.3-1-0.5-2-0.8-3.2c0.5,0,0.8,0,1.2,0c4.6,0,9.1,0,13.7,0c1.8,0,2.6-0.8,2.6-2.6C40.8,22.8,40.8,12.5,40.8,2.1z M24,12.3
		c0,3.9,0,7.8,0,11.7c0,1.7,0.5,2.2,2.2,2.2c3.9,0,7.7,0,11.8,0c0,2,0.1,3.9,0,5.8c0,0.8-0.7,1.1-1.5,1.1c-2.1,0-4.2,0-6.3,0
		c-8,0-16.1,0-24.1,0c-1.6,0-1.9-0.3-1.9-1.9c0-6.1,0-12.2,0-18.3c0-1.3,0.4-1.8,1.5-1.8c5.9,0,11.7,0,17.6,0c0.2,0,0.4,0,0.7,0.1
		C24,11.6,24,11.9,24,12.3z M25.8,40.4c0.3,0,0.5,0.2,0.8,0.3c-0.3,0.1-0.5,0.4-0.8,0.4c-1.5,0-3.1,0-4.6,0c-1.5,0-3.1,0-4.6,0
		c-0.3,0-0.5-0.2-0.8-0.3c0.2-0.1,0.5-0.4,0.7-0.4C19.5,40.3,22.6,40.3,25.8,40.4z M19,39.4c0.2-1.1,0.4-2.2,0.7-3.3
		c0-0.2,0.4-0.3,0.6-0.3c2.1-0.2,2.1-0.2,2.6,1.9c0.1,0.5,0.2,1.1,0.3,1.7C21.8,39.4,20.5,39.4,19,39.4z M39.9,33.4
		c0,1.1-0.5,1.4-1.8,1.4c-10.7,0-21.4,0-32,0c-0.7,0-1.4,0-2.2,0c-1.2,0-1.6-0.4-1.6-1.7c0-5.3,0-10.6,0-15.9c0-2.1,0-4.2,0-6.3
		c0-1.3,0.4-1.7,1.6-1.7c6.4,0,12.8,0,19.3,0c0.3,0,0.5,0.3,0.8,0.4c-0.3,0.2-0.6,0.5-0.9,0.5c-5.7,0-11.4,0-17.1,0
		c-2,0-2.7,0.7-2.7,2.7c0,6.2,0,12.3,0,18.5c0,1.8,0.8,2.6,2.6,2.6c10.2,0,20.3,0,30.5,0c1.8,0,2.6-0.8,2.6-2.6c0-1.7,0-3.3,0-5.1
		c0.4,0,0.6-0.1,0.9-0.1c0,0.1,0.1,0.3,0.1,0.4C39.9,28.9,39.9,31.2,39.9,33.4z M38.7,25.3c-4.2,0-8.3,0-12.5,0
		c-1.2,0-1.3-0.1-1.3-1.3c0-7.2,0-14.4,0-21.6c0-1.4,0.1-1.5,1.4-1.5c4.1,0,8.1,0,12.2,0c1.2,0,1.4,0.1,1.4,1.3c0,3.6,0,7.3,0,10.9
		c0,3.6,0,7.3,0,10.9C40,25,39.6,25.3,38.7,25.3z"/>
	<path id="XMLID_460_" class="st0" d="M16.1,24.2c-0.4,0.4-0.9,0.8-1.2,1.3c-0.2,0.2-0.2,0.5-0.3,0.8c0.2,0.1,0.5,0.2,0.7,0.2
		c1,0,2,0,3,0c0.2,0,0.4-0.3,0.6-0.4c-0.2-0.2-0.4-0.4-0.6-0.5c-0.6-0.1-1.3,0-2.2,0c0.4-0.4,0.6-0.7,0.8-0.9
		c1.9-1.9,3.9-3.8,5.8-5.8c0.2-0.2,0.2-0.6,0.3-1c-0.3,0.1-0.7,0.2-1,0.4C20,20.3,18.1,22.2,16.1,24.2z"/>
	<path id="XMLID_461_" class="st0" d="M16.6,20.7c1.4-1.4,2.7-2.7,4.1-4.1c0.2-0.2,0.3-0.4,0.3-0.7c0-0.1-0.3-0.3-0.5-0.3
		c-1.1,0-2.2,0-3.3,0c-0.2,0-0.3,0.3-0.5,0.5c0.2,0.1,0.4,0.4,0.6,0.4c0.6,0,1.3,0,2.2,0c-0.3,0.4-0.5,0.6-0.6,0.8c-2,2-4,4-6,6
		c-0.2,0.2-0.2,0.6-0.3,0.9c0.3-0.1,0.7-0.1,0.9-0.3C14.6,22.8,15.6,21.7,16.6,20.7z"/>
	<path id="XMLID_462_" class="st0" d="M7.2,11.9c-1.9,0-2.1,0.2-2.1,2.1c0,0.4-0.1,0.7,0,1.1c0,0.2,0.3,0.4,0.4,0.6
		c0.1-0.2,0.4-0.4,0.4-0.7c0.1-0.5,0-1,0-1.5c0-0.6,0.2-0.9,0.8-0.8c0.5,0,0.9,0.1,1.4,0c0.3,0,0.6-0.3,0.9-0.4
		C8.7,12.3,8.4,12,8,12C7.8,11.9,7.5,11.9,7.2,11.9z"/>
	<path id="XMLID_465_" class="st0" d="M38.7,4.8c0-1.6-0.6-2.3-2.1-2.3c-2.8,0-5.6,0-8.3,0c-1.4,0-2.1,0.7-2.1,2.3
		c0,5.5,0,11.1,0,16.6c0,1.5,0.7,2.2,2,2.2c2.8,0,5.6,0,8.3,0c1.5,0,2.1-0.7,2.1-2.3c0-2.7,0-5.5,0-8.2C38.7,10.4,38.7,7.6,38.7,4.8
		z M37.9,21.3c0,1.3-0.3,1.5-1.4,1.5c-2.7,0-5.4,0-8.1,0c-1,0-1.3-0.3-1.3-1.4c0-5.5,0-11.1,0-16.6c0-1.1,0.3-1.4,1.3-1.4
		c2.8,0,5.5,0,8.3,0c1,0,1.3,0.3,1.3,1.5c0,2.7,0,5.5,0,8.2C37.9,15.8,37.9,18.5,37.9,21.3z"/>
	<circle id="XMLID_466_" class="st0" cx="29.9" cy="13.5" r="0.8"/>
	<circle id="XMLID_467_" class="st0" cx="32.4" cy="13.5" r="0.8"/>
	<circle id="XMLID_468_" class="st0" cx="35" cy="13.5" r="0.8"/>
</g>
</svg>
