<?xml version="1.0" encoding="utf-8"?>
<!-- Generator: Adobe Illustrator 19.0.0, SVG Export Plug-In . SVG Version: 6.00 Build 0)  -->
<svg version="1.1" id="Layer_1" xmlns="http://www.w3.org/2000/svg" xmlns:xlink="http://www.w3.org/1999/xlink" x="0px" y="0px"
	 viewBox="0 0 42 42" style="enable-background:new 0 0 42 42;" xml:space="preserve">
<style type="text/css">
	.st0{fill:#FFFFFF;}
</style>
<g id="XMLID_524_">
	<path id="XMLID_556_" class="st0" d="M42,13.8c0-0.9-0.4-1.4-1.3-1.4c-1,0-1.9,0-2.9,0c-1.8,0-3.7,0-5.6,0c0-0.5,0-0.9,0-1.3
		c0-1.7,0-3.5,0-5.2c0-0.9-0.4-1.5-1.4-1.5c-9.8,0-19.6,0-29.4,0C0.4,4.5,0,4.9,0,5.9C0,11.9,0,18,0,24c0,1,0.5,1.5,1.5,1.4
		c0.7,0,1.5,0,2,0c0.3,0.9,0.3,1.9,0.8,2.2c0.6,0.4,1.5,0.2,2.4,0.2c0,0.4,0.1,0.6,0,0.9c-0.1,1.1,0.3,1.4,1.4,1.4
		c1.4-0.1,2.8-0.1,4.2,0c1.1,0.1,1.4-0.4,1.3-1.3c-0.1-0.8-0.1-1.7,0-2.5c0-0.3,0.4-0.7,0.7-0.7c0.6-0.1,1.2,0,1.9,0
		c-0.2,0.4-0.3,0.6-0.3,0.8c-1.9,4.1,0,9,4.1,10.7c4.2,1.7,9-0.4,10.5-4.8c0.4-1.1,0.9-1.2,1.9-0.9c0,0.3,0.1,0.6,0,0.9
		c-0.1,1.1,0.4,1.4,1.4,1.4c1-0.1,1.9,0,2.9,0c2.4,0,2.4,0,2.7-2.4c0.5,0,0.9,0,1.4,0c0.9,0,1.4-0.4,1.4-1.4
		C42,24.4,42,19.1,42,13.8z M40.8,13.6c0,0.7,0,1.5,0,2.2c-4.4,0-8.8,0-13.2,0c0-0.7,0-1.4,0-2.2C32.1,13.6,36.4,13.6,40.8,13.6z
		 M1.1,5.6c9.9,0,19.8,0,29.9,0c0,0.7,0,1.3,0,2.1c-9.9,0-19.8,0-29.9,0C1.1,7,1.1,6.4,1.1,5.6z M4.9,26.6c0-1.9,0-3.7,0-5.7
		c1.5,0,3,0,4.5,0c0,1.9,0,3.7,0,5.7C8,26.6,6.5,26.6,4.9,26.6z M12.4,28.9c-1.5,0-3,0-4.6,0c0-0.4,0-0.7,0-1.1
		c0.5,0,0.9-0.1,1.3-0.1c1.5,0,1.5,0,1.5-1.5c0-1,0-2,0-3.1c0.6,0,1.1,0,1.7,0C12.4,25.1,12.4,26.9,12.4,28.9z M15.1,24.4
		c-0.5,0-0.9,0-1.3,0c-0.3-0.8-0.3-1.8-0.8-2.2c-0.5-0.4-1.5-0.1-2.1-0.1c-0.1-0.2-0.2-0.3-0.2-0.4c-0.2-2-0.2-2-2.2-2
		c-1.1,0-2.3,0-3.4,0c-0.9,0-1.4,0.3-1.3,1.3c0.1,1.1,0,2.1,0,3.3c-0.9,0-1.7,0-2.6,0c0-5.1,0-10.1,0-15.3c0.4,0,0.8-0.1,1.2-0.1
		c9.2,0,18.3,0,27.5,0c1,0,1.4,0.3,1.3,1.3c-0.1,0.7,0,1.4,0,2.2c-1.1,0-2.1,0-3,0c-1.3,0-1.5,0.2-1.5,1.6c0,2.7,0,5.4,0,8.2
		c0,0.1,0,0.1-0.1,0.3c-0.4-0.1-0.8-0.2-1.2-0.4c-2.5-0.8-4.9-0.4-7,1.3C17.2,24.1,16.3,24.5,15.1,24.4z M22.9,36.5
		c-3.7,0-6.8-3-6.8-6.8c0-3.8,3-6.8,6.7-6.9c3.7,0,6.8,3,6.8,6.8C29.7,33.4,26.7,36.4,22.9,36.5z M38,32.3c-1.5,0-3,0-4.6,0
		c0-1.8,0-3.5,0-5.2c0-0.2,0.3-0.5,0.5-0.5c1.3,0,2.7,0,4.1,0C38,28.6,38,30.4,38,32.3z M40.9,29.9c-0.6,0-1.1,0-1.8,0
		c0-1.2,0-2.3,0-3.5c0-0.7-0.3-1-1-1c-1.6,0-3.2,0-4.9,0c-0.7,0-1,0.3-1,1c0,0.9,0,1.8,0,2.8c0,0.5-0.2,0.9-0.7,0.8
		c-0.3-0.1-0.7-0.5-0.8-0.7c-0.2-2.2-1.1-4.1-2.8-5.6c-0.2-0.2-0.4-0.5-0.4-0.7c0-1.9,0-3.9,0-5.9c4.5,0,8.8,0,13.3,0
		C40.9,21.4,40.9,25.6,40.9,29.9z"/>
	<path id="XMLID_594_" class="st0" d="M25.3,27.9c-0.8,1-1.5,2.1-2.4,3.3c-0.6-0.8-1.1-1.5-1.7-2.1c-0.2-0.2-0.6-0.2-0.8-0.2
		c0,0.3-0.1,0.7,0,0.9c0.6,0.8,1.2,1.6,1.8,2.4c0.5,0.7,1,0.6,1.4-0.1c0.8-1.2,1.7-2.3,2.4-3.5c0.2-0.3,0.1-0.7,0.1-1.1
		C25.9,27.5,25.5,27.6,25.3,27.9z"/>
	<path id="XMLID_595_" class="st0" d="M18.4,12.2c-0.1-0.2-0.2-0.3-0.4-0.3l-2.3-0.2c-0.3,0-0.5,0.2-0.5,0.4c0,0.3,0.2,0.5,0.4,0.5
		l1.3,0.1l-4.5,4.5c-0.1,0.1-0.1,0.2-0.1,0.3c0,0.1,0,0.2,0.1,0.3c0.1,0.1,0.2,0.1,0.3,0.1c0.1,0,0.2,0,0.3-0.1l5.3-5.2
		C18.4,12.6,18.5,12.4,18.4,12.2z"/>
	<path id="XMLID_596_" class="st0" d="M16.5,18.9l-1.3-0.1l4.5-4.5c0.2-0.2,0.2-0.5,0-0.6c-0.2-0.2-0.5-0.2-0.6,0l-5.3,5.2
		c-0.1,0.1-0.2,0.3-0.1,0.5c0.1,0.2,0.2,0.3,0.4,0.3l2.3,0.2c0,0,0,0,0,0c0.2,0,0.4-0.2,0.5-0.4c0-0.1,0-0.2-0.1-0.3
		C16.7,19,16.6,18.9,16.5,18.9z"/>
</g>
</svg>
