<?xml version="1.0" encoding="utf-8"?>
<!-- Generator: Adobe Illustrator 19.0.0, SVG Export Plug-In . SVG Version: 6.00 Build 0)  -->
<svg version="1.1" id="Layer_1" xmlns="http://www.w3.org/2000/svg" xmlns:xlink="http://www.w3.org/1999/xlink" x="0px" y="0px"
	 viewBox="0 0 42 42" style="enable-background:new 0 0 42 42;" xml:space="preserve">
<style type="text/css">
	.st0{fill:#FFFFFF;}
</style>
<g id="XMLID_1_">
	<path id="XMLID_67_" class="st0" d="M21,4.6c-4.9,0-9.9,0-14.8,0C3,4.6,1.3,6.3,1.3,9.5c0,5.4,0,10.7,0,16.1c0,3,1.7,4.8,4.7,4.8
		c5.9,0,11.7,0,17.6,0c0.3,0,0.6-0.1,0.9,0s0.5,0.4,0.7,0.5c-0.2,0.2-0.5,0.6-0.7,0.6c-0.8,0.1-1.7,0-2.5,0c-5.3,0-10.6,0-16,0
		c-3.6,0-6-2.3-6-5.9c0-5.4,0-10.8,0-16.3c0-3.6,2.3-5.9,6-5.9c10,0,20,0,30.1,0c3.7,0,6,2.3,6,6c0,1.6,0,3.1,0,4.7
		c0,0.3-0.3,0.9-0.6,0.9c-0.6,0.1-0.7-0.5-0.7-0.9c0-1.6,0-3.2,0-4.8c0-2.9-1.7-4.7-4.7-4.7C31,4.6,26,4.6,21,4.6z"/>
	<path id="XMLID_62_" class="st0" d="M15.1,21.4c1-5.3,5.6-6.6,8.8-5.4c2.1,0.8,3.5,2.3,4,4.6c0.2,0.7,0.5,0.9,1.2,0.9
		c1.1-0.1,2.3,0,3.4,0c1.6,0,2.5,0.9,2.5,2.5c0,0.3,0,0.6,0,0.9c0,0.7,0,1.3,0.8,1.7c1,0.5,1.4,1.8,1,2.9c-0.3,1-1.4,1.7-2.5,1.7
		s-2.1-0.8-2.5-1.9c-0.3-1,0.2-2.2,1.1-2.8c0.3-0.2,0.8-0.5,0.8-0.8c0-0.8,0-1.7-0.2-2.5c0-0.2-0.6-0.4-0.9-0.4
		c-1.3-0.1-2.6,0-3.9,0c-0.7,0-0.7,0.4-0.8,0.9c-1.1,4.4-6.1,6.4-9.9,4c-1.4-0.9-2.4-2.3-2.7-3.9c-0.2-0.8-0.5-1-1.3-0.9
		c-1.1,0-2.3,0-3.4,0c-1.5,0-2.4-0.9-2.4-2.4c0-0.3,0-0.6,0-0.9c0.1-0.8-0.1-1.4-0.9-1.9c-1-0.6-1.3-1.9-0.8-3
		c0.4-1,1.3-1.6,2.5-1.6c1.1,0,2.1,0.8,2.4,1.8c0.3,1.1-0.1,2.2-1,2.9c-0.3,0.2-0.8,0.5-0.8,0.7c-0.1,0.8,0,1.7,0.1,2.5
		c0,0.2,0.5,0.5,0.8,0.5C11.9,21.4,13.5,21.4,15.1,21.4z M21.7,16.8c-2.9,0-5.3,2.3-5.3,5.2s2.4,5.3,5.3,5.4c2.9,0,5.3-2.4,5.3-5.3
		C27,19.2,24.6,16.8,21.7,16.8z M35.8,28.6c0-0.8-0.6-1.4-1.4-1.3c-0.8,0-1.3,0.5-1.3,1.3C33,29.3,33.7,30,34.4,30
		C35.2,30,35.8,29.3,35.8,28.6z M10.2,15.5c0-0.7-0.6-1.4-1.3-1.4s-1.3,0.7-1.3,1.3c0,0.7,0.6,1.4,1.4,1.4
		C9.6,16.8,10.2,16.2,10.2,15.5z"/>
	<path id="XMLID_61_" class="st0" d="M42,28c0,2.6,0,5.2,0,7.8c0,2.2-1.3,3.5-3.5,3.5c-2.7,0-5.4,0-8,0c-2.2,0-3.5-1.3-3.5-3.5
		c0-2.4,0-4.8,0-7.1c0-0.5-0.1-1.1,0.6-1c0.2,0,0.6,0.6,0.6,1c0.1,2.3,0,4.6,0,6.9c0,1.7,0.8,2.5,2.5,2.5c2.6,0,5.2,0,7.7,0
		c1.6,0,2.4-0.8,2.4-2.4c0-5.2,0-10.4,0-15.6c0-1.7-0.7-2.5-2.4-2.5c-2.6,0-5.3,0-7.9,0c-0.2,0-0.5,0.1-0.7,0
		c-0.3-0.1-0.5-0.4-0.7-0.6c0.2-0.2,0.5-0.6,0.7-0.6c3.1,0,6.3-0.1,9.4,0c1.7,0.1,2.9,1.6,2.9,3.3C42,22.6,42,25.3,42,28z"/>
	<path id="XMLID_60_" class="st0" d="M20.4,39.4c-1.4,0-2.8,0-4.2,0c-2.2,0-3.3-1.7-2.5-3.7c0.3-0.9,0.6-1.7,1.1-2.5
		c0.1-0.3,0.6-0.3,0.9-0.5c0.1,0.3,0.3,0.7,0.2,0.9c-0.3,0.8-0.6,1.6-1,2.4c-0.5,1.2,0,2.1,1.4,2.1c2.6,0,5.1,0,7.7,0
		c0.3,0,0.5,0,0.8,0c0.5,0,1.1-0.1,1.1,0.6c0,0.8-0.7,0.6-1.2,0.6c-0.9,0-1.8,0-2.6,0C21.5,39.4,21,39.4,20.4,39.4z"/>
	<path id="XMLID_59_" class="st0" d="M34.4,36.7c-1.2,0-2.4,0-3.6,0c-0.3,0-0.6-0.4-0.9-0.6c0.3-0.2,0.5-0.6,0.8-0.6
		c2.5-0.1,4.9-0.1,7.4,0c0.3,0,0.5,0.4,0.8,0.6c-0.3,0.2-0.6,0.5-0.9,0.5C36.9,36.8,35.6,36.7,34.4,36.7z"/>
	<path id="XMLID_53_" class="st0" d="M25.3,20.4c-0.2,0.3-0.3,0.5-0.5,0.7c-1.1,1.1-2.2,2.2-3.3,3.3c-0.5,0.5-0.9,0.5-1.3,0
		s-1-0.9-1.4-1.4c-0.2-0.2-0.1-0.7-0.2-1c0.3,0,0.8,0,1,0.2c1.3,1.1,1.3,1.1,2.5-0.1c0.7-0.7,1.3-1.3,2-2c0.2-0.1,0.5-0.2,0.7-0.2
		C25,19.9,25.1,20.2,25.3,20.4z"/>
</g>
</svg>
