<?xml version="1.0" encoding="utf-8"?>
<!-- Generator: Adobe Illustrator 19.0.0, SVG Export Plug-In . SVG Version: 6.00 Build 0)  -->
<svg version="1.1" id="Layer_1" xmlns="http://www.w3.org/2000/svg" xmlns:xlink="http://www.w3.org/1999/xlink" x="0px" y="0px"
	 viewBox="0 0 42 42" style="enable-background:new 0 0 42 42;" xml:space="preserve">
<style type="text/css">
	.st0{fill:#FFFFFF;}
</style>
<g id="XMLID_456_">
	<path id="XMLID_474_" class="st0" d="M41.5,22.4c-0.7-0.6-0.8-1.3-0.8-2.1c0.1-1.1,0-2.1-1-2.9c-0.2-0.2-0.3-0.7-0.3-1.1
		c0-1.9,0-3.8,0-5.7c0-1.9-0.6-2.5-2.5-2.5c-3.1,0-6.1,0-9.2,0c-0.1,0-0.2,0-0.3-0.1c-0.6-1.4,0.6-3.4-1.2-4.5c-4.7,0-9.4,0-14,0
		c-0.9,0.5-1.2,1.4-1.1,2.4c0.1,0.7,0,1.3,0,2.2c-2,0-3.9,0-5.7,0c-2.4,0-3,0.6-3,3c0,1.4,0,2.8,0,4.2C2.3,16.7,2.5,18,1,19
		c-1.4,1-1,3.2,0.4,4.2c0.8,0.5,0.9,1.1,0.9,1.9c0,1.6,0,3.1,0,4.7c0,1.7,0.7,2.4,2.4,2.4c3.4,0,6.8,0,10.2,0c0.5,0,1.1,0,1.7,0
		c0,0.8,0,1.5,0,2.1c-3.3,0.9-4.1,1.7-3.8,3.9c0.5,0,1,0.1,1.5,0.1c3.8,0,7.6,0,11.5,0c0.5,0,1,0.1,1.5,0.1c4,0,7.9,0,11.9,0
		c1.2-0.5,1.6-1.5,1.6-2.8c-0.1-2.6-0.1-5.3,0-8c0-0.6,0.3-1.3,0.7-1.8C42.2,24.9,42.4,23.3,41.5,22.4z M12.1,5.9
		c0-0.9,0.3-1.2,1.2-1.2c3.9,0,7.7,0,11.6,0c0.9,0,1.2,0.3,1.2,1.2c0,1.7,0,3.5,0,5.2c0,0.3-0.4,1-0.6,0.9c-1.6-0.2-2.1,0.8-2.5,2.3
		c-1-2.6-3.1-2.2-5.1-2.2c-1.5,0-3.1,0-4.6,0c-0.9,0-1.2-0.2-1.2-1.1C12.2,9.3,12.2,7.6,12.1,5.9z M1.4,20.9c0-1.1,0.6-1.7,1.7-1.8
		C4.2,19,5,19.8,5,20.8c0,1-0.8,1.9-1.8,1.9C2.2,22.8,1.3,21.9,1.4,20.9z M4.8,31c-1,0-1.3-0.4-1.2-1.3c0-1.6,0-3.2,0-4.8
		c0-0.1-0.1-0.3,0-0.4c1.1-1,2.1-2.6,3.3-2.8c3.1-0.4,6.4-0.1,9.8-0.1c0,2.2,0,4.3,0,6.4c0,2.3,0,2.3,2.2,2.3c0.5,0,1,0,1.4,0
		c0,0.2,0.1,0.3,0.1,0.5c-0.4,0.1-0.7,0.3-1.1,0.3C14.5,31,9.6,31,4.8,31z M20.4,37.3c-2.1,0-4.2,0-6.4,0c0.2-1.2,1-1.5,1.9-1.6
		c1.3-0.1,2.6-0.1,3.9,0C20.5,35.7,20.5,35.8,20.4,37.3z M20.5,34.5c-0.9,0-1.7,0-2.6,0c0-0.7,0-1.4,0-2.2c0.9,0,1.7,0,2.5,0
		c0,0.2,0.1,0.4,0.1,0.6C20.5,33.4,20.5,33.9,20.5,34.5z M20.3,28.8c-0.7,0-1.5,0-2.5,0c0-2.3-0.1-4.6,0-7c0.1-1.3-0.4-1.6-1.6-1.6
		c-2.9,0-5.8,0-8.8,0c-0.8,0-1.4-0.1-1.7-0.9c-0.2-0.4-0.5-0.9-0.9-0.9c-1.4-0.3-1.4-1.3-1.3-2.3c0-1.8,0-3.7,0-5.5
		c0-0.4,0.5-1.1,0.8-1.1C6.5,9.3,8.7,9.4,11,9.4c0,0.8,0,1.4,0,2c0,1.6,0.5,2,2.1,2.1c2.1,0,4.1,0.1,6.2,0c1.1-0.1,1.8,0.4,2.3,1.2
		c0.4,0.7,0.9,1.3,1.7,2.2c0.4-1,0.6-1.7,1-2.3c0.2-0.4,0.6-0.9,1-1c1.7-0.4,1.9-0.5,1.9-2.3c0-0.5,0-1.1,0-1.7
		c0.3-0.1,0.6-0.2,0.9-0.2c2.9,0,5.8,0,8.8,0c1,0,1.4,0.4,1.3,1.4c0,1.8,0,3.6,0,5.4c0,0.8-0.3,1.1-1.1,1.1C34,17,30.9,17,27.8,16.7
		c-2.8-0.2-5.6,2-5.7,4.9c0,0.7,0,1.3,0,2.2C19.4,24.6,20.9,27,20.3,28.8z M27.3,26c-2.2,0-4.1-1.8-4.1-4c0-2.2,1.8-3.9,4.1-3.9
		c2.2,0,4,1.8,4,4C31.2,24.2,29.4,26,27.3,26z M27.8,27.4c0,0.4,0,0.9,0,1.4c-2,0-4,0-6.2,0c0-1-0.1-2,0-3c0.1-0.8,0.9-0.9,1.7-0.5
		c1.4,0.8,2.8,1.6,4.2,2.3C27.6,27.6,27.7,27.5,27.8,27.4z M27.8,36.6c0,0.3-0.5,0.7-0.8,0.7c-1.5,0.1-3.1,0.1-4.6,0
		c-0.3,0-0.8-0.6-0.9-0.9c-0.1-2,0-4,0-6.1c2.1,0,4.1,0,6.3,0C27.9,32.4,27.9,34.5,27.8,36.6z M30.2,26.1c2.1-1.2,2.8-4.3,1.7-6.4
		c-0.2-0.4-0.4-0.7-0.8-1.3c1.3,0,2.5,0,3.6,0c0.9,0,1.9,0,2.8,0c1.9,0,1.9,0,1.9,1.9c0,0.3,0,0.5,0,0.4c-1.2,1.1-2.2,2-3.1,2.9
		c0.1,0.1,0.2,0.3,0.3,0.4c-0.5,0-1.1,0-1.6,0c-2.7,0-2.3-0.1-2.4,2.4c0,0.8,0,1.6,0,2.4c-1.2,0-2.3,0-3.4,0
		C29,27.7,29,26.8,30.2,26.1z M39.5,29.5c0,2.2,0,4.4,0,6.6c0,0.6-0.1,1.2-0.9,1.2c-3.1,0-6.3,0-9.4,0c0-2.4,0-4.7,0-7.1
		c1.2,0,2.3,0,3.4,0c0.9,0,1.2-0.3,1.2-1.2c0-1-0.1-2,0-3c0-0.3,0.5-0.8,0.7-0.8c1.1-0.1,2.3-0.4,3,0.9c0.1,0.1,0.2,0.2,0.3,0.3
		C39.7,26.7,39.5,28.1,39.5,29.5z M39.5,25.6c-1,0-1.5-0.5-1.6-1.4c-0.1-0.9,0.8-1.8,1.6-1.6c0.7,0.2,1.2,0.8,1.6,1.1
		C40.9,25,40.5,25.6,39.5,25.6z"/>
	<path id="XMLID_533_" class="st0" d="M23,8.6c-0.6,0.5-1.1,0.8-1.4,1.3c-0.1,0.2,0.1,0.6,0.2,0.9c1-0.8,1.9-1.5,2.9-2.3
		c0,0-0.2-0.4-0.3-0.5c-0.6-0.5-1.3-1-1.9-1.4c-0.2-0.1-0.6,0-0.9,0.1c0.1,0.3,0.1,0.7,0.3,0.9C22,7.9,22.5,8.2,23,8.6z"/>
	<path id="XMLID_534_" class="st0" d="M15.7,10.4c0.1,0.1,0.2,0.2,0.3,0.2c0.3,0,0.6,0,0.8-0.1c-0.1-0.3,0-0.6-0.2-0.8
		c-0.4-0.4-0.9-0.8-1.4-1.2c0.6-0.5,1.1-0.8,1.4-1.2c0.1-0.2,0.1-0.5,0.1-0.8c-0.3,0-0.6-0.1-0.8,0C13.2,7.8,13.1,8.7,15.7,10.4z"/>
	<path id="XMLID_535_" class="st0" d="M19.1,10.5c0.4-1.2,0.8-2.4,1.1-3.6c0.1-0.3-0.2-0.6-0.4-0.9c-0.3,0.2-0.7,0.3-0.7,0.6
		c-0.4,1.2-0.7,2.4-1.2,3.8c0.1,0.2,0.3,0.4,0.5,0.7C18.6,10.9,19,10.8,19.1,10.5z"/>
	<path id="XMLID_536_" class="st0" d="M28.6,20.6c-0.5,0.5-0.9,1.1-1.4,1.8c-0.3-0.4-0.5-0.7-0.8-0.9c-0.2-0.2-0.6-0.2-0.9-0.2
		c0,0.3-0.1,0.7,0.1,0.9c0.5,0.7,1,1.3,1.7,2.1c0.8-1.2,1.6-2.1,2.2-3.1c0.1-0.2-0.1-0.5-0.1-0.8C29.2,20.5,28.8,20.5,28.6,20.6z"/>
</g>
</svg>
