<?xml version="1.0" encoding="utf-8"?>
<!-- Generator: Adobe Illustrator 19.0.0, SVG Export Plug-In . SVG Version: 6.00 Build 0)  -->
<svg version="1.1" id="Layer_1" xmlns="http://www.w3.org/2000/svg" xmlns:xlink="http://www.w3.org/1999/xlink" x="0px" y="0px"
	 viewBox="0 0 42 42" style="enable-background:new 0 0 42 42;" xml:space="preserve">
<style type="text/css">
	.st0{fill:#FFFFFF;}
</style>
<g id="XMLID_828_">
	<path id="XMLID_866_" class="st0" d="M41.9,25.8c0-0.5,0-1.1-0.7-1.1c-0.7,0-0.8,0.5-0.8,1.1c0,1.8,0,3.6,0,5.4
		c0,2.8,0.5,2.5-2.6,2.5c-0.1,0-0.2,0-0.4-0.1c0-0.3,0-0.7,0-1c0-5.4,0-10.7,0-16.1c0-2.1-0.8-2.9-2.9-2.9c-6.3,0-12.6,0-18.9,0
		c-0.4,0-0.7,0-1,0c-0.3-0.5-0.5-0.8-0.7-1.2c-0.6-1.4-3.3-1.9-4.5-0.6c-0.5,0.5-0.9,0.8-1.7,0.8c0-1.4,0-2.8,0-4.2
		c10.9,0,21.8,0,32.7,0c0,0.4,0,0.8,0,1.1c0,3.5,0,7,0,10.5c0,0.6,0,1.2,0.8,1.2c0.7,0,0.7-0.6,0.7-1.2c0-5.5,0-11,0-16.5
		c0-1.6-0.8-2.4-2.4-2.4c-10.3,0-20.6,0-30.9,0C7,0.9,6.2,1.7,6.2,3.3c0,2.7,0,5.5,0,8.2c0,0.3,0,0.6,0,1c-1.5-0.3-2.7,0-3.6,1.2
		c-0.4,0.6-0.7,2-0.4,2.6c0.1,0.3-0.3,2.8-0.5,2.8c-0.9,0.2-1,1.2-1.5,1.7c0,0.4,0,0.8,0,1.3c0.3,1.1,0.9,2.2,2,2.4
		c1.2,0.2,1.6,1.1,2.3,1.7c0.1,0.1,0.2,0.3,0.3,0.5c0.2,0.6,0.3,1.4,0.7,1.8c1.1,0.8,0.9,1.9,0.9,2.9c0,0.5,0,0.9,0,1.4
		c0,1.5,0.8,2.3,2.4,2.3c0.7,0,1.3,0,2.1,0c0,1.2,0,2.3,0,3.4c0,1.8,0.9,2.6,2.6,2.6c7.2,0,14.3,0,21.5,0c1.9,0,2.7-0.9,2.7-2.7
		c0-1,0-2.1,0-3.2c0.8,0,1.5,0,2.1,0c1.5,0,2.3-0.8,2.3-2.3C41.9,30.4,41.9,28.1,41.9,25.8z M7.7,2.9c0-0.2,0.4-0.5,0.6-0.6
		c0.2-0.1,0.5,0,0.8,0c10,0,19.9,0,29.9,0c1.4,0,1.4,0.1,1.4,1.4c0,0.9,0,1.9,0,2.8c-11,0-21.8,0-32.8,0C7.7,5.3,7.6,4.1,7.7,2.9z
		 M10.6,33.5c-0.1,0-0.2,0.1-0.2,0.1c-3.2,0-2.6,0.3-2.7-2.5c-0.1-1.1,0.3-1.6,1.3-2c0.4-0.1,0.7-0.5,1-0.8c0.2-0.1,0.4-0.2,0.7-0.4
		C10.6,29.9,10.6,31.7,10.6,33.5z M9.5,26.7c-0.3,0.1-0.7,0.3-0.8,0.6c-0.3,0.9-1,0.9-1.7,0.6c-0.6-0.2-1-0.6-0.9-1.4
		c0-0.4-0.2-0.8-0.5-1.1c-0.4-0.5-0.9-0.8-1.3-1.3c-0.5-0.6-0.8-1.2-1.8-1.1c-0.8,0.1-1-0.8-1-1.4c0-0.4,0.4-0.8,0.7-1.1
		C2.5,20.2,2.9,20,3,19.6c0.3-0.8,0.6-1.7,0.8-2.6c0.1-0.3,0.1-0.8-0.1-1c-0.5-0.7-0.3-1.2,0.3-1.7c0.6-0.5,1-0.6,1.6-0.1
		c0.2,0.2,0.8,0.2,1.1,0.1c0.9-0.1,1.7-0.3,2.5-0.6c0.3-0.1,0.8-0.3,0.9-0.6c0.3-0.8,0.9-0.9,1.6-0.7c0.8,0.2,1.1,0.6,0.8,1.5
		c0.2,0.3,0.4,0.7,0.7,1c0.5,0.6,1.1,1.2,1.6,1.8c0.3,0.4,0.6,0.7,1.2,0.6c0.8-0.2,1.1,0.4,1.2,1.1c0.2,0.7,0,1.2-0.6,1.4
		c-0.7,0.2-0.9,0.6-0.9,1.3c0,0.5-0.2,1-0.4,1.5c-0.3,0.7-0.7,1.4,0,2.2c0.4,0.5-0.1,1.2-0.7,1.5c-0.4,0.2-0.9,0.1-1.4,0
		c-0.4,0-0.8-0.2-1.2-0.2C11.3,26.2,10.4,26.4,9.5,26.7z M34.5,39.6c-7,0-13.9,0-20.9,0c-1.3,0-1.5-0.2-1.5-1.5c0-3.2,0-6.4,0-9.6
		c0-0.3,0.1-0.6,0.1-0.9c0.6,0.2,1.1,0.4,1.6,0.4c2.6-0.1,3.7-1.6,2.9-4.2c-0.1-0.4,0.9-2.5,1.1-2.8c0.4-0.5,0.9-1.1,1.1-1.8
		c0.4-1.5-0.9-3.3-2.5-3.5c-0.3,0-0.6-0.4-0.8-0.6c0-0.1,0.1-0.2,0.1-0.2c0.3,0,0.6,0,0.9,0c6,0,12,0,18,0c1.3,0,1.5,0.2,1.5,1.4
		c0,7.3,0,14.5,0,21.8C36,39.4,35.8,39.6,34.5,39.6z"/>
	<path id="XMLID_870_" class="st0" d="M26.4,24.9c-0.6-0.1-0.8,0.3-0.9,0.8c-0.1,0.4-0.1,0.7-0.1,1.1c-0.5,3.4-1,6.9-1.5,10.6
		c0.1,0.2,0.4,0.4,0.6,0.7c0.3-0.3,0.8-0.5,0.8-0.9c0.3-1.7,0.5-3.3,0.7-5c0.3-2.1,0.6-4.2,0.9-6.3C27.1,25.4,27,25,26.4,24.9z"/>
	<path id="XMLID_871_" class="st0" d="M22.2,26.8c-0.2-0.1-0.9,0-1.1,0.3c-1.1,1.2-2.1,2.5-3.2,3.7c-0.4,0.5-0.4,0.9,0,1.4
		c1,1.1,2.1,2.3,3.1,3.4c0.4,0.4,0.8,0.7,1.2,0.3c0.5-0.4,0.2-0.9-0.2-1.3c-0.9-1-1.9-2.1-2.8-3.1c1-1.2,1.9-2.3,2.9-3.4
		C22.5,27.6,22.8,27.1,22.2,26.8z"/>
	<path id="XMLID_872_" class="st0" d="M30.3,27.2c-0.4-0.4-0.8-0.8-1.3-0.3c-0.5,0.4-0.2,0.9,0.2,1.3c0.9,1.1,1.9,2.2,2.8,3.4
		c-1,1.1-1.9,2.1-2.8,3.1c-0.4,0.4-0.7,0.8-0.2,1.3c0.5,0.5,0.9,0.1,1.3-0.3c1-1.1,1.9-2.2,2.9-3.2c0.6-0.6,0.6-1.1,0-1.7
		C32.2,29.5,31.2,28.3,30.3,27.2z"/>
	<path id="XMLID_875_" class="st0" d="M14.6,20.2c0-2.9-2.3-5.1-5.1-5.1c-2.8,0-5.1,2.3-5.1,5.2c0,2.8,2.3,5.1,5.1,5.1
		C12.3,25.3,14.6,23,14.6,20.2z M9.5,23.8c-2,0-3.6-1.6-3.6-3.6c0-2.1,1.6-3.7,3.7-3.7c2,0,3.6,1.7,3.6,3.7
		C13.1,22.2,11.5,23.8,9.5,23.8z"/>
	<path id="XMLID_876_" class="st0" d="M22.6,5.1h2.6c0.4,0,0.6-0.3,0.6-0.6s-0.3-0.6-0.6-0.6h-2.6c-0.4,0-0.6,0.3-0.6,0.6
		S22.3,5.1,22.6,5.1z"/>
	<path id="XMLID_877_" class="st0" d="M28.6,5.1h2.6c0.4,0,0.6-0.3,0.6-0.6s-0.3-0.6-0.6-0.6h-2.6c-0.4,0-0.6,0.3-0.6,0.6
		S28.3,5.1,28.6,5.1z"/>
	<path id="XMLID_878_" class="st0" d="M34.6,5.1h2.6c0.4,0,0.6-0.3,0.6-0.6s-0.3-0.6-0.6-0.6h-2.6c-0.4,0-0.6,0.3-0.6,0.6
		S34.3,5.1,34.6,5.1z"/>
</g>
</svg>
