<?xml version="1.0" encoding="utf-8"?>
<!-- Generator: Adobe Illustrator 19.0.0, SVG Export Plug-In . SVG Version: 6.00 Build 0)  -->
<svg version="1.1" id="Layer_1" xmlns="http://www.w3.org/2000/svg" xmlns:xlink="http://www.w3.org/1999/xlink" x="0px" y="0px"
	 viewBox="0 0 42 42" style="enable-background:new 0 0 42 42;" xml:space="preserve">
<style type="text/css">
	.st0{fill:#1B3ECD;}
</style>
<g id="XMLID_391_">
	<path id="XMLID_392_" class="st0" d="M28.7,21.6c0.1,0.1,0.1,0.2,0.2,0.2l0.1,0.1l1-0.6l-0.1-0.1c-0.8-1.3-1.7-2.1-2.9-2.6
		c-1.3-0.5-2.6-1-3.9-1.5l-0.8-0.3c-0.1,0-0.2-0.1-0.2-0.1c-0.5-0.2-0.5-0.2-0.8,0.3c0,0.1-0.1,0.1-0.1,0.2L21,17.5
		c-1.3,2.3-2.6,4.8-3.8,7.2c-0.3,0.6-0.6,0.9-1.3,0.8c-0.2,0-0.4,0-0.7,0c-0.3,0-0.4-0.1-0.5-0.3c-0.8-1.5-1.6-3.1-2.5-4.6
		c-0.6-1.2-1.3-2.3-1.9-3.5c-0.1-0.2-0.2-0.4-0.6-0.3c-0.6,0.2-1.3,0.5-1.9,0.7c-0.9,0.3-1.9,0.7-2.9,1.1c-2.5,1-4,2.9-4.3,5.8
		c-0.2,2.3-0.4,4.6-0.6,6.9C0,31.8,0,32.4,0,33c0,0.5,0,0.9,0,1.4c0,0.2,0,0.4,0,0.7v0.1h22.1V34H6.6L7,28.4l-1.2-0.1l-0.3,5.6H1
		c0,0,0,0,0-0.1c0-0.1,0-0.2,0-0.3c0.1-0.9,0.1-1.8,0.2-2.7c0.2-2.2,0.3-4.4,0.6-6.6c0.3-2.3,1.5-3.9,3.6-4.6l0.5-0.2
		c1.1-0.4,2.2-0.8,3.3-1.2c0.3-0.1,0.4-0.1,0.5,0.2c0.7,1.3,1.4,2.6,2.1,3.9c0.7,1.3,1.4,2.6,2.1,3.8c0.2,0.3,0.4,0.4,0.7,0.4
		c0.8,0,1.6,0,2.4,0c0.3,0,0.5-0.1,0.7-0.4c1.1-2.1,2.2-4.2,3.4-6.3l0.3-0.6c0.2-0.3,0.3-0.6,0.5-0.9l0.2-0.3l1.2,0.4
		c1,0.4,2,0.7,3,1.1c0.8,0.3,1.6,0.8,2.2,1.5C28.5,21.3,28.6,21.4,28.7,21.6z"/>
	<path id="XMLID_395_" class="st0" d="M15.5,14.8c0.1,0,0.1,0,0.2,0c1.9,0,3.7-0.7,5-2c1.4-1.4,2.2-3.2,2.3-5.2
		c0.1-1.9-0.7-3.7-2-5.2c-1.4-1.4-3.2-2.3-5.1-2.3c-4.1-0.1-7.4,3.1-7.5,7C8.3,11.3,11.4,14.7,15.5,14.8z M9.6,7.5
		c0-1.6,0.6-3.1,1.8-4.3c1.2-1.2,2.7-1.8,4.4-1.8c0,0,0,0,0,0c3.3,0,6.1,2.8,6.1,6.1c0,1.6-0.6,3.2-1.8,4.3
		c-1.1,1.2-2.7,1.8-4.2,1.8c0,0,0,0,0,0C12.3,13.6,9.6,10.9,9.6,7.5z"/>
	<path id="XMLID_398_" class="st0" d="M40.8,33.8v-9.7h-1.2v9.7h-1.3v3.9h1.3v4.3h1.2v-4.3h1.3v-3.9H40.8z M40.8,34.9v1.4h-1.4v-1.4
		H40.8z"/>
	<path id="XMLID_401_" class="st0" d="M25.2,24.1h-1.2V36c-0.1,0-0.2,0-0.4,0c-0.4,0-0.7,0-0.8,0.2c-0.2,0.2-0.1,0.6-0.1,0.9
		c0,0.1,0,0.3,0,0.4c0,0.5,0,1,0,1.5l0,0.8h0.1c0.1,0,0.2,0,0.3,0c0.2,0,0.4,0,0.6,0c0.1,0,0.2,0,0.3,0c0.1,0,0.1,0.1,0.1,0.3
		c0,0.4,0,0.8,0,1.1c0,0.2,0,0.3,0,0.5v0.1h1.2v-1.4c0-0.7,0-0.7,0.7-0.7h0.6V36L25.2,36V24.1z M25.2,37.2v1.5l-0.3,0
		c-0.4,0-0.7,0-1,0c0,0-0.1-0.1-0.1-0.1c0-0.3,0-0.7,0-1.1l0-0.3H25.2z"/>
	<path id="XMLID_404_" class="st0" d="M30.4,24.1h-1.2v3.8h-1.3v3.9h1.3v10.2h1.2V31.7h1.3v-3.9h-1.3V24.1z M30.5,29.1v1.4H29v-1.4
		H30.5z"/>
	<path id="XMLID_427_" class="st0" d="M35.5,24.1h-1.2v4.6H33v3.8h0.1c0.1,0,0.2,0,0.3,0c0.2,0,0.4,0,0.5,0c0.2,0,0.3,0,0.3,0
		c0.1,0,0.1,0.2,0.1,0.3c0,2.2,0,4.4,0,6.6l0,1.8c0,0.1,0,0.3,0,0.4l0,0.3h1.2v-9.4h1.3v-3.9h-1.3V24.1z M35.7,29.9v1.4h-1.4v-1.4
		H35.7z"/>
</g>
</svg>
