<?xml version="1.0" encoding="utf-8"?>
<!-- Generator: Adobe Illustrator 19.0.0, SVG Export Plug-In . SVG Version: 6.00 Build 0)  -->
<svg version="1.1" id="Layer_1" xmlns="http://www.w3.org/2000/svg" xmlns:xlink="http://www.w3.org/1999/xlink" x="0px" y="0px"
	 viewBox="0 0 42 42" style="enable-background:new 0 0 42 42;" xml:space="preserve">
<style type="text/css">
	.st0{fill:#FFFFFF;}
</style>
<g id="XMLID_10_">
	<path id="XMLID_198_" class="st0" d="M21,41.5c-11.3,0-20.4-9.1-20.4-20.3C0.6,9.9,9.8,0.7,21,0.8c11.4,0,20.4,9.2,20.4,20.6
		C41.4,32.5,32.2,41.5,21,41.5z M40,20.5c0-10-9.1-18.5-18.3-18.3c0,1,0,2,0,3c0.5,0.1,0.9,0.1,1.5,0.2c-0.8,1.1-1.5,2-2.2,3.1
		c-0.8-1.1-1.5-2.1-2.2-3.1c0.6-0.1,1-0.1,1.5-0.2c0-1.1,0-2,0-3C9.3,2.4,1.6,12.3,2,20.5c1,0,1.9,0,2.9,0C5,20,5,19.6,5.1,18.9
		c1.1,0.8,2.1,1.5,3.1,2.3c-1.1,0.8-2.1,1.5-3.2,2.3C5,22.7,5,22.3,4.9,21.9c-1,0-2,0-3,0c-0.1,10.2,9.4,18.6,18.3,18.3
		c0-1,0-1.9,0-2.9c-0.5-0.1-0.9-0.1-1.5-0.2c0.8-1.1,1.5-2,2.3-3.1c0.8,1.1,1.5,2,2.2,3.1c-0.6,0-1.1,0.1-1.5,0.1c0,1,0,2,0,3
		c8.8,0.3,18.4-8,18.3-18.3c-1,0-1.9,0-2.9,0c0,0.5-0.1,0.9-0.2,1.6c-1.1-0.8-2.1-1.5-3.2-2.3c1.1-0.8,2.1-1.5,3.2-2.3
		c0.1,0.7,0.1,1.1,0.2,1.6C38.1,20.5,39.1,20.5,40,20.5z"/>
	<path id="XMLID_191_" class="st0" d="M28.3,28.3c0.3-2-0.4-3.9-2.6-5.1c-0.9-0.5-1.7-0.7-2.7,0c-1.4,1-2.9,0.7-4.3-0.1
		c-0.4-0.2-1-0.3-1.4-0.2c-2.2,0.6-3.5,2.4-3.5,4.7c0,1.1,0,2.2,0,3.3c0,0.3-0.3,0.5-0.5,0.8c-0.2-0.3-0.6-0.5-0.6-0.8
		c-0.1-1.4-0.1-2.8,0-4.2c0.3-2.7,2.4-4.8,5.6-5.3c0.3,0,0.6,0.2,0.8,0.4c1.4,1.1,2.6,1.1,4,0c0.3-0.2,0.9-0.4,1.2-0.3
		c3.5,0.7,5.3,2.9,5.3,6.4c0,1,0,1.9,0,2.8c0,0.3-0.4,0.6-0.6,0.9c-0.2-0.3-0.5-0.5-0.6-0.9C28.2,30.1,28.3,29.4,28.3,28.3z"/>
	<path id="XMLID_188_" class="st0" d="M25.5,15.5c-0.1,2-0.6,3.7-1.9,4.9c-1.5,1.4-3.5,1.5-5,0.1c-1.9-1.7-2.7-5.1-1.6-7.4
		c0.8-1.8,2.6-2.6,4.7-2.4c1.8,0.2,3.2,1.5,3.6,3.4C25.5,14.7,25.5,15.2,25.5,15.5z M17.7,16c0.1,1.3,0.5,2.7,1.8,3.8
		c0.9,0.8,2.2,0.8,3.1,0c1.6-1.5,2-3.4,1.5-5.5c-0.3-1.2-1.1-1.9-2.2-2.2C19.5,11.5,17.7,13.1,17.7,16z"/>
	<path id="XMLID_187_" class="st0" d="M26.7,29.5c0,0.5,0.1,1,0,1.4c0,0.3-0.4,0.5-0.5,0.7c-0.2-0.2-0.6-0.4-0.6-0.6
		c-0.1-0.9-0.1-1.9,0-2.8c0-0.2,0.4-0.4,0.6-0.7c0.2,0.2,0.5,0.5,0.6,0.7C26.8,28.6,26.7,29.1,26.7,29.5
		C26.7,29.5,26.7,29.5,26.7,29.5z"/>
	<path id="XMLID_186_" class="st0" d="M16.4,29.5c0,0.5,0.1,1,0,1.4c0,0.3-0.3,0.5-0.5,0.7c-0.2-0.2-0.6-0.4-0.6-0.6
		c-0.1-1-0.1-2,0-2.9c0-0.2,0.3-0.4,0.5-0.6c0.2,0.2,0.5,0.4,0.6,0.6C16.5,28.5,16.4,29,16.4,29.5z"/>
</g>
</svg>
