<svg width="42" height="42" viewBox="0 0 42 42" fill="none" xmlns="http://www.w3.org/2000/svg">
<g clip-path="url(#clip0_698_189)">
<g clip-path="url(#clip1_698_189)">
<path d="M42 3.2C42 1.3 40.9 0 39.1 0C33.1 0 27 0 21 0C15 0 9 0 3 0C1.1 0 0 1.2 0 3.3C0 6.2 0 9 0 11.9C0 18.8 0 25.6 0 32.5C0 34.5 1.1 35.7 2.9 35.7C3.8 35.7 4.6 35.7 5.5 35.7C6 35.7 6.3 35.5 6.3 35C6.3 34.6 6 34.3 5.5 34.3C4.7 34.3 3.8 34.3 3 34.3C1.7 34.3 1.2 33.7 1.2 32.3C1.2 22.6 1.2 13 1.2 3.3C1.2 1.9 1.7 1.3 3 1.3C5.2 1.3 7.4 1.3 9.6 1.3C19.4 1.3 29.2 1.3 39 1.3C40.2 1.3 40.7 1.9 40.8 3.2C40.8 5.2 40.8 7.2 40.8 9.1C40.8 16.8 40.8 24.6 40.8 32.3C40.8 33.6 40.2 34.2 39.1 34.2C33.6 34.2 31.9 34.2 26.3 34.2C26.1 34.2 25.9 34.2 25.7 34.2C25.4 34.3 25.2 34.5 25.2 34.9C25.2 35.3 25.4 35.5 25.7 35.5C25.8 35.5 25.9 35.5 26 35.5C31.6 35.5 33.4 35.5 39.1 35.5C41 35.5 42 34.3 42 32.2C42 22.7 42 12.9 42 3.2Z" fill="white"/>
<path d="M13.6 10.4C10.7 10.4 7.9 10.4 5 10.4C4.1 10.4 4 10.6 4 11.4C4 14.8 4 18.3 4 21.7C4 22.4 4.2 22.6 5 22.6C10.8 22.6 16.5 22.6 22.3 22.6C23 22.6 23.3 22.4 23.3 21.7C23.3 18.3 23.3 14.9 23.3 11.5C23.3 10.5 23.2 10.4 22.2 10.4C19.3 10.4 16.5 10.4 13.6 10.4ZM21.9 20.7C21.9 21.1 21.8 21.3 21.3 21.3C16.2 21.3 11 21.3 5.9 21.3C5.6 21.3 5.4 21.3 5.4 20.9C5.4 17.9 5.4 14.9 5.4 11.9C5.4 11.9 5.4 11.8 5.5 11.7C7.1 11.7 8.7 11.7 10.3 11.7C14 11.7 17.6 11.7 21.3 11.7C21.8 11.7 21.9 11.9 21.9 12.3C21.9 15.1 21.9 17.9 21.9 20.7Z" fill="white"/>
<path d="M23.9 28.6C23.7 28.6 23.5 28.6 23.3 28.6C18.5 28.6 13.7 28.6 8.80001 28.6C8.40001 28.6 8.20001 28.5 8.00001 28.1C7.80001 27.3 7.50001 26.5 7.20001 25.8C7.10001 25.4 6.90001 25.2 6.40001 25.2C5.70001 25.2 5.10001 25.2 4.40001 25.2C4.00001 25.2 3.70001 25.4 3.70001 25.9C3.70001 26.3 4.00001 26.6 4.40001 26.6C4.70001 26.6 5.00001 26.6 5.40001 26.6C5.80001 26.6 6.00001 26.7 6.10001 27.1C7.10001 30.2 8.20001 33.2 9.20001 36.2C9.40001 36.7 9.70001 36.9 10.2 36.9C13.8 36.9 17.4 36.9 21 36.9C21.6 36.9 21.9 36.6 21.9 36.2C21.9 35.8 21.6 35.5 21 35.5C20.1 35.5 19.1 35.5 18.2 35.5C15.8 35.5 13.4 35.5 11 35.5C10.8 35.5 10.5 35.4 10.5 35.3C10.3 34.7 10.1 34.2 9.80001 33.5C10.1 33.5 10.3 33.5 10.5 33.5C13 33.5 15.4 33.5 17.9 33.5C19.4 33.5 20.9 33.5 22.3 33.5C22.8 33.5 23.1 33.3 23.1 32.8C23.1 32.3 22.8 32.1 22.3 32.1C22.2 32.1 22 32.1 21.9 32.1C17.9 32.1 13.8 32.1 9.80001 32.1C9.60001 32.1 9.30001 32 9.20001 31.8C9.10001 31.2 9.00001 30.6 8.70001 30C9.00001 30 9.20001 30 9.40001 30C14 30 18.6 30 23.2 30C23.4 30 23.6 30.1 23.7 30C23.9 29.8 24.2 29.6 24.3 29.4C24.5 29 24.3 28.7 23.9 28.6Z" fill="white"/>
<path d="M2.79999 6.20001C2.79999 6.70001 2.99999 6.90001 3.39999 6.90001C3.69999 6.90001 3.99999 6.90001 4.39999 6.90001C9.89999 6.90001 15.4 6.90001 20.9 6.90001C26.3 6.90001 31.7 6.90001 37.1 6.90001C37.6 6.90001 38.1 6.90001 38.5 6.90001C38.8 6.90001 39.1 6.70001 39.1 6.30001C39.1 5.90001 38.9 5.60001 38.5 5.60001C38.3 5.60001 38 5.60001 37.8 5.60001C32.4 5.60001 27 5.60001 21.6 5.60001C16.2 5.60001 10.8 5.60001 5.39999 5.60001C4.69999 5.60001 4.09999 5.60001 3.39999 5.60001C3.09999 5.50001 2.79999 5.70001 2.79999 6.20001Z" fill="white"/>
<path d="M31 25.1C33.5 25.1 35.9 25.1 38.4 25.1C39 25.1 39.2 24.9 39.2 24.2C39.2 23.4 39.2 22.7 39.2 21.9C39.2 21.2 39 20.9 38.3 20.9C37.1 20.9 35.9 20.9 34.7 20.9C33.4 20.9 32.2 20.9 30.9 20.9C30.3 20.9 30.1 21.1 30.1 21.8C30.1 22.6 30.1 23.4 30.1 24.2C30.2 24.9 30.4 25.1 31 25.1ZM31.9 22.4C33.7 22.4 35.5 22.4 37.4 22.4C38 22.4 38 22.4 38.1 23.1C38.1 23.3 38.1 23.5 38.1 23.8C37.5 23.8 37.1 23.8 36.6 23.8C35.1 23.8 33.5 23.8 32 23.8C31.4 23.8 31.6 23.4 31.5 23C31.3 22.6 31.4 22.4 31.9 22.4Z" fill="white"/>
<path d="M27.6 17.1C28.4 17.1 29.3 17.1 30.1 17.1C30.9 17.1 31.8 17.1 32.6 17.1C33.1 17.1 33.5 16.8 33.5 16.4C33.5 16 33.2 15.7 32.7 15.7C31 15.7 29.3 15.7 27.6 15.7C27.1 15.7 26.8 16 26.8 16.4C26.8 16.8 27.1 17.1 27.6 17.1Z" fill="white"/>
<path d="M38.4 15.7C37.7 15.7 37 15.7 36.3 15.7C36.1 15.7 35.9 15.7 35.8 15.7C35.6 15.7 35.3 15.7 35.1 15.7C34.6 15.7 34.4 16 34.4 16.4C34.4 16.8 34.7 17.1 35.1 17.1C35.7 17.1 36.2 17.1 36.8 17.1C37.4 17.1 37.9 17.1 38.5 17.1C39 17.1 39.3 16.8 39.3 16.4C39.2 15.9 38.9 15.7 38.4 15.7Z" fill="white"/>
<path d="M36.8 10.4C36.4 10.4 36.2 10.6 36.2 11C36.2 11.4 36.4 11.7 36.7 11.7C37.3 11.7 38 11.7 38.6 11.7C38.9 11.7 39.1 11.4 39.1 11C39.1 10.6 38.9 10.4 38.5 10.3C38.2 10.3 37.9 10.3 37.6 10.3C37.4 10.4 37.1 10.4 36.8 10.4Z" fill="white"/>
<path d="M27.4 10.4C27 10.4 26.8 10.7 26.8 11C26.8 11.4 27 11.7 27.4 11.7C27.8 11.7 28.3 11.7 28.7 11.7C30.6 11.7 32.5 11.7 34.4 11.7C34.9 11.7 35.2 11.4 35.2 11C35.2 10.6 34.9 10.3 34.4 10.3C33.4 10.3 32.4 10.3 31.5 10.3C30.5 10.3 29.5 10.3 28.5 10.3C28.5 10.3 28.5 10.3 28.4 10.3C28 10.4 27.7 10.4 27.4 10.4Z" fill="white"/>
<path d="M8.89999 3.50001C8.89999 3.00001 8.59999 2.70001 8.09999 2.70001C7.59999 2.70001 7.29999 3.00001 7.29999 3.50001C7.29999 4.00001 7.59999 4.30001 8.09999 4.30001C8.59999 4.30001 8.89999 4.00001 8.89999 3.50001Z" fill="white"/>
<path d="M5.50002 3.50001C5.50002 3.10001 5.10002 2.70001 4.70002 2.70001C4.20002 2.70001 3.90002 3.10001 3.90002 3.50001C3.90002 4.00001 4.30002 4.30001 4.70002 4.30001C5.20002 4.30001 5.50002 3.90001 5.50002 3.50001Z" fill="white"/>
<path d="M12.3 3.50001C12.3 3.00001 11.9 2.70001 11.5 2.70001C11 2.70001 10.7 3.10001 10.7 3.50001C10.7 4.00001 11.1 4.30001 11.5 4.30001C12 4.30001 12.3 3.90001 12.3 3.50001Z" fill="white"/>
<path d="M13.1 38.2C12 38.2 11.2 39.1 11.2 40.1C11.2 41.1 12.1 41.9 13.1 41.9C14.2 41.9 15 41.1 15 40C15 39 14.1 38.2 13.1 38.2ZM13.1 40.9C12.7 40.9 12.3 40.6 12.3 40.2C12.3 39.8 12.6 39.4 13.1 39.4C13.5 39.4 13.9 39.7 13.9 40.1C13.9 40.5 13.5 40.9 13.1 40.9Z" fill="white"/>
<path d="M18.8 38.2C17.7 38.2 16.9 39.1 16.9 40.1C16.9 41.1 17.8 41.9 18.8 41.9C19.9 41.9 20.7 41.1 20.7 40C20.7 39 19.8 38.2 18.8 38.2ZM18.8 40.9C18.4 40.9 18 40.6 18 40.2C18 39.8 18.3 39.4 18.8 39.4C19.2 39.4 19.6 39.7 19.6 40.1C19.5 40.5 19.2 40.9 18.8 40.9Z" fill="white"/>
</g>
</g>
<defs>
<clipPath id="clip0_698_189">
<rect width="42" height="42" fill="white"/>
</clipPath>
<clipPath id="clip1_698_189">
<rect width="42" height="42" fill="white"/>
</clipPath>
</defs>
</svg>
