<?xml version="1.0" encoding="utf-8"?>
<!-- Generator: Adobe Illustrator 19.0.0, SVG Export Plug-In . SVG Version: 6.00 Build 0)  -->
<svg version="1.1" id="Layer_1" xmlns="http://www.w3.org/2000/svg" xmlns:xlink="http://www.w3.org/1999/xlink" x="0px" y="0px"
	 viewBox="0 0 42 42" style="enable-background:new 0 0 42 42;" xml:space="preserve">
<style type="text/css">
	.st0{fill:#FFFFFF;}
</style>
<g id="XMLID_9_">
	<path id="XMLID_35_" class="st0" d="M32.4,13.7c1,0.1,2,0,3,0.2c3.2,0.5,5.8,3.3,6.2,6.5c0.5,3.3-1.3,6.6-4.2,8.1
		c-1.7,0.8-3.4,0.9-5.2,0.8c-0.2,0-0.4-0.3-0.5-0.4c0.2-0.2,0.4-0.4,0.6-0.5c1.1-0.1,2.1,0,3.2-0.3c3-0.6,5.2-3.4,5.2-6.5
		c0-3.1-2.1-6-5.1-6.7c-1-0.2-2.1-0.2-3.2-0.1c-0.6,0-0.8-0.1-1-0.7c-0.6-3.9-3.7-7-7.4-7.7c-3.9-0.7-7.8,1.1-9.8,4.6
		c-0.4,0.7-0.7,1.6-1,2.4c-0.3,0.8-0.3,0.9-1.1,0.5c-4.1-1.8-8.7,0-10.3,4.1c-1.9,4.9,1.7,10.1,7,10.2c0.3,0,0.7,0,1,0
		c0.2,0.1,0.4,0.3,0.5,0.5c-0.2,0.2-0.3,0.4-0.5,0.5c-4.3,0.4-7.9-2.2-9-5.8c-1-3.3-0.3-6.3,2.1-8.7c2.5-2.4,5.4-3,8.7-2
		c0.2,0,0.3,0.1,0.5,0.1c0,0,0.1,0,0.1,0c2-5.8,6.8-7.7,10.6-7.5C27.6,5.7,31.4,8.9,32.4,13.7z"/>
	<path id="XMLID_34_" class="st0" d="M17.6,19.2c-0.4-0.2-0.7-0.3-1-0.5c-0.7-0.3-0.8-0.4-0.2-1.2c1,0.4,1.9,0.8,2.9,1.3
		c0.1,0.1,0.2,0.4,0.1,0.6c-0.4,0.8-0.9,1.6-1.3,2.4C18,22,17.6,22.1,17.5,22c-0.1-0.1-0.3-0.4-0.2-0.6c0.1-0.4,0.4-0.8,0.7-1.3
		c-1.2,0.5-2.1,1.2-2.9,2.1c-3.5,4.1-1.6,10.6,3.5,12.2c0.1,0,0.2,0,0.3,0.1c0.2,0.2,0.3,0.4,0.4,0.6c-0.2,0.1-0.5,0.3-0.7,0.2
		c-0.6-0.2-1.3-0.4-1.8-0.8c-2.9-1.7-4.4-4.3-4.3-7.6c0.1-3.3,1.7-5.8,4.5-7.4C17.2,19.4,17.3,19.3,17.6,19.2z"/>
	<path id="XMLID_33_" class="st0" d="M25.6,36.7c-1-0.4-1.9-0.8-2.9-1.3c-0.1-0.1-0.2-0.5-0.2-0.6c0.4-0.8,0.8-1.5,1.2-2.3
		c0.2-0.3,0.4-0.4,0.7-0.2c0.4,0.2,0.3,0.4,0.1,0.7c-0.2,0.4-0.4,0.7-0.7,1.2c1.3-0.5,2.2-1.3,2.9-2.2c3.4-4.2,1.5-10.5-3.6-12.2
		c-0.3-0.1-0.8-0.2-0.6-0.7c0.1-0.2,0.6-0.3,0.9-0.2c3.4,1.1,5.8,4,6,7.5c0.2,3.7-1.4,6.4-4.6,8.3c-0.1,0.1-0.3,0.2-0.5,0.3
		c0.4,0.2,0.6,0.3,0.9,0.4C26.2,35.8,26.2,35.8,25.6,36.7z"/>
</g>
</svg>
