<?xml version="1.0" encoding="utf-8"?>
<!-- Generator: Adobe Illustrator 19.0.0, SVG Export Plug-In . SVG Version: 6.00 Build 0)  -->
<svg version="1.1" id="Layer_1" xmlns="http://www.w3.org/2000/svg" xmlns:xlink="http://www.w3.org/1999/xlink" x="0px" y="0px"
	 viewBox="0 0 42 42" style="enable-background:new 0 0 42 42;" xml:space="preserve">
<style type="text/css">
	.st0{fill:#1B3ECD;}
</style>
<g id="XMLID_592_">
	<path id="XMLID_695_" class="st0" d="M42,30.4c0-6.1,0-12.2,0-18.3c0-1.5-0.8-2.7-2.3-2.8c-1.6-0.1-3.3,0-5,0
		c1.2,1.3,1.2,1.3,2.9,1.3c0.4,0,0.8,0,1.1,0c1.5,0,1.9,0.4,1.9,1.9c0,6.5,0,13.1,0,19.6c0,0.3,0,0.5,0,0.8c-13.1,0-26.2,0-39.3,0
		c0-0.3,0-0.6,0-0.9c0-6.2,0-12.4,0-18.6c0-0.4,0-0.9,0-1.3c0-0.9,0.5-1.4,1.5-1.5c0.6,0,1.1-0.1,1.7,0c1.2,0.2,2-0.4,2.7-1.3
		c0,0-0.1-0.1-0.1-0.1c-1.3,0-2.7,0-4,0c-2,0-3.1,1.1-3.1,3.1c0,7.1,0,14.3,0,21.4c0,2.1,1,3.1,3.1,3.1c4,0,8,0,12,0
		c0.3,0,0.5,0,0.8,0c0,0.5,0,0.9,0,1.3c-1,0-2,0-2.9,0c-0.5,0-0.9,0.1-0.9,0.7c0,0.6,0.4,0.6,0.8,0.6c5.3,0,10.6,0,15.9,0
		c0.4,0,0.8-0.1,0.8-0.6c0-0.6-0.4-0.7-0.9-0.7c-1,0-2,0-3,0c0-0.5,0-0.8,0-1.3c0.4,0,0.6,0,0.9,0c4,0,8.1,0,12.1,0
		c1.9,0,3-1.1,3-2.9C42,32.7,42,31.5,42,30.4z M24.5,38.1c-2.2,0-4.3,0-6.5,0c-0.2,0-0.4,0-0.6,0c0-0.4,0-0.8,0-1.3
		c2.4,0,4.7,0,7.1,0C24.5,37.2,24.5,37.6,24.5,38.1z M39.5,35.4c-0.2,0-0.3,0-0.5,0c-12,0-24,0-36,0c-1.1,0-1.5-0.3-1.6-1.3
		c13,0,26.1,0,39.1,0C40.5,34.9,40.2,35.4,39.5,35.4z"/>
	<path id="XMLID_711_" class="st0" d="M5.3,16c0.1,3.1,2.4,5.9,5.5,6.2c1.6,0.2,3.2,0.1,4.8,0.2c0.1,0,0.4-0.1,0.4-0.2
		c0.2-0.3,0.3-0.7,0.5-1.1c-1.5,0-2.9,0-4.3,0c-3.2,0-5.7-2.4-5.6-5.4c0.1-3.1,2.6-5.4,5.8-5.2c0.3,0,0.5,0,0.8,0.1
		c-1.1-2.6-0.4-4.9,1.7-6.1c1-0.5,2.1-0.7,3.1-0.4c1.3,0.4,2.3,1.2,2.9,2.5c1.8-2.3,3.8-3,5.8-1.9c2.2,1.1,2.8,3.1,2,5.9
		c0.2,0,0.3,0,0.5-0.1c3.2-0.5,6.2,1.9,6.2,5.2c0,2.9-2.3,5.2-5.3,5.3c-0.7,0-1.1,0.2-1.2,0.8c0,0.2-0.1,0.3-0.2,0.5
		c4.5,0.3,7.5-1.9,8-6c0.2-1.6-0.2-3.1-1.2-4.5c-1.2-1.7-2.9-2.6-5-2.8c0-2.5-0.9-4.5-3.1-5.6C25.1,2.4,23,2.8,21,4.4
		c-1.9-1.7-4-2.2-6.3-1.2c-2.6,1.1-3.6,3.3-3.4,6c-0.3,0.1-0.6,0.1-0.9,0.2C7.4,10,5.2,12.9,5.3,16z"/>
	<path id="XMLID_746_" class="st0" d="M22.4,20.6c-0.8-1-1.4-1.3-2.2-0.7c-0.9,0.6-1.7,1.3-2.5,2c-0.6,0.5-0.6,1.4-0.1,1.9
		c0.8,0.8,1.7,1.6,2.6,2.4c0.7,0.6,1.7,0.3,2-0.5c0.1-0.4,0.3-0.5,0.7-0.6c3.9-1,6.3-4.7,5.5-8.4c-0.9-4.3-5.3-6.9-9.5-5.7
		c-3.2,0.9-5.5,3.8-5.4,6.9c0,0.9,0.5,1.3,1.3,1.4c0.4,0,0.9,0,1.3,0c1.2,0,1.6-0.3,1.7-1.5c0.2-1.5,1.4-2.6,3-2.7
		c1.4-0.1,2.8,0.9,3.2,2.2C24.4,18.6,23.8,19.9,22.4,20.6z M21.6,13.8c-2.4-0.3-4.9,1.4-5,4.2c-0.6,0-1.1,0-1.7,0
		c-0.2-2.7,2.4-5.6,5.4-5.9c3.6-0.4,6.6,2,7,5.5c0.3,2.7-1.7,6.2-6.2,6.5c0,0.3-0.1,0.6-0.1,1.1c-0.8-0.8-1.6-1.4-2.4-2.2
		c0.8-0.7,1.6-1.2,2.4-1.9c0,0.5,0,0.8,0.1,1.2c2,0.2,4.1-1.5,4.3-3.4C25.7,16.2,24.1,14.1,21.6,13.8z"/>
	<path id="XMLID_747_" class="st0" d="M10,28c-0.2,0.1-0.4,0.4-0.5,0.6c0,0.2,0.2,0.5,0.3,0.6c0.2,0.1,0.5,0.1,0.7,0.1
		c3.5,0,6.9,0,10.4,0c0.5,0,0.9,0,1.4,0c3.1,0,6.1,0,9.2,0c0.5,0,0.8-0.1,0.8-0.6c0-0.5-0.4-0.7-0.8-0.7c-0.1,0-0.2,0-0.4,0
		c-6.8,0-13.7,0-20.5,0C10.5,27.9,10.2,27.8,10,28z"/>
</g>
</svg>
