<?xml version="1.0" encoding="utf-8"?>
<!-- Generator: Adobe Illustrator 19.0.0, SVG Export Plug-In . SVG Version: 6.00 Build 0)  -->
<svg version="1.1" id="Layer_1" xmlns="http://www.w3.org/2000/svg" xmlns:xlink="http://www.w3.org/1999/xlink" x="0px" y="0px"
	 viewBox="0 0 42 42" style="enable-background:new 0 0 42 42;" xml:space="preserve">
<style type="text/css">
	.st0{fill:#1B3ECD;}
</style>
<g id="XMLID_23_">
	<g id="XMLID_98_">
		<path id="XMLID_175_" class="st0" d="M23.8,17.4l0.1-0.2l-0.2-0.1c-0.1,0-0.1-0.1-0.2-0.1c-0.1-0.1-0.3-0.2-0.4-0.2
			c-0.9-0.1-2.1-0.3-3.3-0.5c-0.3,0-0.4-0.1-0.5-0.4c-0.5-1-1-2-1.5-3c-0.1-0.1-0.2-0.2-0.3-0.3c0,0-0.1-0.1-0.1-0.1l-0.1-0.1
			l-0.1,0.1c0,0-0.1,0.1-0.1,0.1c-0.1,0.1-0.2,0.2-0.3,0.3c-0.5,1-1,2-1.5,3c-0.1,0.2-0.3,0.3-0.5,0.4c-1.2,0.1-2.4,0.3-3.3,0.5
			c-0.2,0-0.3,0.1-0.4,0.2c0,0-0.1,0.1-0.1,0.1l-0.2,0.1l0.1,0.2c0,0,0,0.1,0.1,0.1c0.1,0.1,0.1,0.2,0.2,0.4
			c0.8,0.8,1.6,1.5,2.4,2.3c0.2,0.2,0.3,0.3,0.2,0.6c-0.2,0.8-0.3,1.7-0.4,2.6l0,0c-0.1,0.3-0.1,0.7-0.2,1l0,0
			c0,0.2,0.1,0.4,0.2,0.5c0.1,0,0.1,0.1,0.2,0.1c0.1,0,0.3,0,0.4-0.1l0.1,0c1-0.5,2-1,3-1.6c0.2-0.1,0.3-0.1,0.5,0
			c0.9,0.5,1.9,1,3.1,1.6c0.2,0.1,0.5,0.1,0.7,0c0.3-0.1,0.2-0.7,0.2-0.7c-0.1-0.5-0.2-0.9-0.2-1.4l0-0.1c-0.1-0.7-0.2-1.3-0.3-2
			c0-0.1,0-0.3,0.1-0.4c0.4-0.5,0.9-0.9,1.3-1.3c0.4-0.4,0.7-0.7,1.1-1.1c0.1-0.1,0.2-0.3,0.3-0.4C23.7,17.5,23.8,17.4,23.8,17.4z
			 M20,21c0.2,0.7,0.3,1.3,0.4,2l0,0c0,0.2,0.1,0.4,0.1,0.6c-0.2-0.1-0.4-0.2-0.6-0.3c-0.7-0.4-1.3-0.7-2-1.1
			c-0.4-0.2-0.7-0.2-1.2,0c-0.7,0.4-1.3,0.7-2,1l-0.5,0.3l0.1-0.6c0.1-0.8,0.3-1.6,0.4-2.3c0.1-0.4,0-0.6-0.3-0.9
			c-0.6-0.6-1.1-1.1-1.7-1.7l-0.4-0.4c0.2,0,0.3,0,0.5-0.1c0.6-0.1,1.3-0.2,2-0.3c0.7-0.1,1-0.3,1.3-0.9c0.3-0.6,0.6-1.2,0.9-1.9
			c0.1-0.2,0.2-0.4,0.3-0.5c0.1,0.2,0.2,0.3,0.3,0.5c0.3,0.6,0.6,1.1,0.8,1.7c0.3,0.7,0.8,1.1,1.6,1.1c0.6,0,1.2,0.1,1.8,0.2
			c0.2,0,0.3,0.1,0.5,0.1c-0.1,0.1-0.3,0.3-0.4,0.4c-0.5,0.5-1,1-1.5,1.5C20,20,19.8,20.4,20,21z"/>
		<path id="XMLID_121_" class="st0" d="M30.7,20.3c0-0.1-0.2-0.3-0.5-0.3c-0.2,0-0.4-0.1-0.6-0.1c-0.3,0-0.6-0.1-0.9-0.1
			c-0.2,0-0.4-0.2-0.5-0.3c-0.2-0.3-0.3-0.5-0.4-0.8c-0.1-0.2-0.2-0.4-0.3-0.5c-0.1-0.3-0.3-0.4-0.5-0.4c-0.2,0-0.3,0.1-0.5,0.4
			c-0.1,0.2-0.2,0.4-0.3,0.6c-0.1,0.3-0.3,0.5-0.4,0.8c-0.1,0.1-0.3,0.3-0.4,0.3c-0.3,0.1-0.6,0.1-0.9,0.1c-0.2,0-0.4,0.1-0.6,0.1
			c-0.3,0.1-0.5,0.2-0.5,0.3c0,0.1,0,0.3,0.2,0.6c0.2,0.2,0.3,0.3,0.5,0.4c0.2,0.2,0.4,0.4,0.6,0.6c0.1,0.1,0.2,0.3,0.2,0.5
			c0,0.4-0.1,0.8-0.2,1.1c0,0.2-0.1,0.3-0.1,0.5l0,0c0,0.2,0.1,0.4,0.2,0.5c0.1,0,0.1,0.1,0.2,0.1c0.1,0,0.2,0,0.3-0.1
			c0.2-0.1,0.4-0.2,0.6-0.3c0.3-0.1,0.6-0.3,0.8-0.4c0.1,0,0.3,0,0.4,0c0.3,0.1,0.5,0.2,0.8,0.4l0,0c0.2,0.1,0.4,0.2,0.6,0.3
			c0.2,0.1,0.4,0.1,0.6,0c0.2-0.1,0.2-0.5,0.2-0.6c0-0.2-0.1-0.4-0.1-0.7c-0.1-0.3-0.1-0.6-0.1-0.9c0-0.1,0.1-0.3,0.1-0.4
			c0.2-0.2,0.4-0.4,0.6-0.6l0,0c0.2-0.2,0.3-0.3,0.5-0.5C30.7,20.6,30.7,20.4,30.7,20.3z M25.5,21.3c-0.2-0.1-0.3-0.3-0.5-0.5
			l-0.1,0c0,0,0.1,0,0.1,0c0.3-0.1,0.6-0.1,0.9-0.1c0.4,0,0.6-0.2,0.8-0.6c0.1-0.2,0.2-0.5,0.4-0.7l0.1-0.1l0,0
			c0.1,0.2,0.2,0.4,0.2,0.5c0.2,0.8,0.8,0.9,1.3,0.9c0.2,0,0.4,0,0.6,0.1l-0.1,0c-0.2,0.2-0.5,0.4-0.7,0.6c-0.2,0.2-0.3,0.5-0.3,0.8
			c0,0.3,0.1,0.6,0.1,0.9l0,0c-0.9-0.6-1.8-0.6-2.6,0l0-0.1c0-0.3,0.1-0.5,0.1-0.8C26,22,25.9,21.6,25.5,21.3z M29.9,21.3
			C29.9,21.3,29.9,21.3,29.9,21.3L29.9,21.3L29.9,21.3z"/>
		<path id="XMLID_99_" class="st0" d="M10.9,20.1c-0.1-0.1-0.3-0.1-0.4-0.2c-0.2,0-0.4-0.1-0.6-0.1c-0.2,0-0.5-0.1-0.8-0.1
			c-0.1,0-0.3-0.2-0.4-0.3c-0.1-0.2-0.3-0.5-0.4-0.7l-0.1,0c0,0,0,0,0,0l0,0c-0.1-0.2-0.2-0.4-0.3-0.6C8,18,7.8,17.8,7.6,17.7
			c-0.3-0.1-0.5,0.4-0.5,0.4c-0.2,0.4-0.4,0.8-0.6,1.2c-0.1,0.3-0.3,0.4-0.6,0.4c-0.4,0-0.9,0.1-1.3,0.2c-0.1,0-0.5,0.1-0.6,0.4
			c-0.1,0.2,0.2,0.6,0.3,0.6c0.3,0.3,0.6,0.6,0.9,0.9c0.2,0.2,0.3,0.4,0.2,0.7c-0.1,0.3-0.1,0.7-0.2,1l0,0c0,0.1,0,0.2-0.1,0.4l0,0
			c0,0.3,0.1,0.4,0.2,0.5c0.1,0,0.1,0.1,0.2,0.1c0.1,0,0.3-0.1,0.4-0.1c0.2-0.1,0.4-0.2,0.5-0.3c0.4-0.2,0.7-0.4,1-0.4
			c0.3,0,0.7,0.2,1,0.4c0.2,0.1,0.4,0.2,0.6,0.3c0,0,0.5,0.2,0.6,0c0.1-0.2,0.2-0.4,0.2-0.6c0-0.4-0.1-0.9-0.2-1.4
			c-0.1-0.2,0-0.4,0.2-0.6c0.4-0.3,0.7-0.6,0.9-0.9c0.1-0.1,0.2-0.3,0.2-0.4c0-0.1,0-0.1,0.1-0.2l0.1-0.2L11,20.2
			C11,20.1,10.9,20.1,10.9,20.1z M9.7,20.8L9.7,20.8C9.4,21,9.2,21.2,9,21.5c-0.2,0.2-0.3,0.5-0.3,0.8c0,0.3,0.1,0.6,0.1,0.9
			c0,0,0,0.1,0,0.1l-0.1,0C8.5,23.1,8.3,23,8,22.8c-0.2-0.1-0.3-0.2-0.5-0.2c-0.2,0-0.3,0.1-0.5,0.2c-0.2,0.1-0.5,0.3-0.7,0.4
			l-0.1,0c0.3-1.1,0-1.9-0.8-2.5l0.1,0c0.3,0,0.6-0.1,0.8-0.1c0.4,0,0.6-0.2,0.8-0.6c0.1-0.2,0.2-0.5,0.4-0.7l0-0.1l0,0.1
			c0.1,0.3,0.3,0.5,0.4,0.7c0.2,0.4,0.4,0.6,0.8,0.6c0.3,0,0.5,0.1,0.8,0.1L9.7,20.8z"/>
	</g>
	<g id="XMLID_41_">
		<path id="XMLID_85_" class="st0" d="M3.7,34.7L3.7,34.7L3.7,34.7c-0.1,0-0.1,0-0.1,0c-0.7,0-1.3,0-2,0l-0.5,0v-4.2h0.3
			c0.2,0,0.4,0,0.6,0c0.6,0,1.2,0,1.8,0c0.2,0,0.7-0.2,0.7-0.5c0-0.2,0-0.3-0.1-0.4c-0.1-0.2-0.4-0.1-0.5-0.1l0,0c0,0,0,0-0.1,0
			c-0.3,0-0.7,0-1,0c-0.6,0-1.2,0-1.9,0c-0.2,0-0.4,0-0.6,0.2C0,29.8,0,30.1,0,30.3c0,1.7,0,3.2,0,4.7c0,0.3,0.1,0.5,0.2,0.6
			c0.2,0.2,0.4,0.2,0.6,0.2c0.4,0,0.8,0,1.2,0l0.2,0c0.4,0,0.9,0,1.4,0c0,0,0.1,0,0.1,0c0.1,0,0.1,0,0.2,0c0.2,0,0.3,0,0.4-0.1
			c0.1-0.1,0.2-0.2,0.1-0.4c0-0.2-0.1-0.3-0.2-0.4C4.1,34.7,3.9,34.7,3.7,34.7z"/>
		<path id="XMLID_42_" class="st0" d="M41.5,32.5c0.7-0.7,0.7-1.4,0-2.2c0.3-0.5,0.3-1.1,0-1.5c-0.3-0.5-0.9-0.7-1.6-0.6
			c-0.4,0-0.8,0-1.2,0c-0.1,0-0.2,0-0.3,0l0.1-0.3c0.2-1,0.2-2,0-3c-0.1-0.6-0.6-0.9-1.2-0.9c-0.6,0-1.1,0.4-1.2,1
			c-0.1,1.5-1.1,2.5-2.1,3.5l-0.2,0.2c0,0,0,0-0.1,0c-0.2-0.1-0.3-0.1-0.5-0.1c-0.6,0-1.3,0-2.1,0c-0.6,0-0.9,0.4-0.9,0.9
			c0,2.1,0,4.3,0,6.3c0,0.6,0.3,0.9,1,0.9c0.1,0,0.3,0,0.4,0l0,0c0.2,0,0.4,0,0.6,0c0.3,0,0.5,0,0.8,0c0.3,0,0.5-0.1,0.8-0.2
			c0.1,0,0.2-0.1,0.3-0.1c0.1,0,0.2,0,0.3,0l0,0c0.1,0,0.3,0.1,0.4,0.1c1.8,0,3.5,0,5,0c0.8,0,1.4-0.6,1.4-1.3c0-0.2,0-0.5-0.1-0.7
			c0-0.1,0-0.1,0-0.2C41.8,33.9,41.9,33.2,41.5,32.5z M40,31.9L40,31.9c-0.3,0-0.6,0-0.8,0c-0.2,0-0.3,0.1-0.4,0.2
			c0,0-0.1,0.1-0.1,0.1l-0.3,0.2l0.3,0.2c0,0,0.1,0,0.1,0.1c0.1,0.1,0.2,0.2,0.4,0.2c0.2,0,0.4,0,0.6,0l0,0c0.1,0,0.3,0,0.4,0
			c0.3,0,0.5,0.2,0.5,0.4c0,0.2-0.1,0.4-0.5,0.4h0c-0.1,0-0.1,0-0.2,0l0,0c-0.2,0-0.3,0-0.5,0c-0.2,0-0.3,0.1-0.3,0.2
			c0,0,0,0.1-0.1,0.1l-0.2,0.2l0.2,0.2c0,0,0,0,0.1,0.1c0.1,0.1,0.2,0.2,0.3,0.2c0.1,0.1,0.2,0,0.3,0c0,0,0.1,0,0.1,0
			c0.2,0,0.5,0.1,0.5,0.4c0,0.3-0.2,0.4-0.6,0.4c-0.2,0-0.4,0-0.6,0l-0.3,0l-1.1,0c-0.9,0-1.8,0-2.7,0c-0.6,0-0.8-0.2-0.8-0.8
			c0-0.5,0-1,0-1.5l0-0.9c0-0.2,0-0.4,0-0.7c0-0.6,0-1.2,0-1.8c0-0.1,0.1-0.3,0.2-0.4c0.4-0.4,0.7-0.8,1.1-1.2l0.2-0.2
			c0.7-0.8,1.2-1.7,1.4-2.8c0-0.2,0.1-0.3,0.1-0.3c0,0,0,0,0.1,0c0.1,0,0.2,0.2,0.2,0.3c0.2,1,0.1,2-0.2,2.9c-0.1,0.3-0.2,0.6,0,0.7
			c0.1,0.2,0.4,0.2,0.7,0.2c0.3,0,0.6,0,0.8,0h0.1c0.4,0,0.8,0,1.2,0c0.3,0,0.5,0.1,0.5,0.4c0,0.1,0,0.2-0.1,0.3
			C40.5,30,40.3,30,40.1,30c-0.1,0-0.3,0-0.4,0c-0.3,0-0.6,0-0.9,0c-0.2,0-0.3,0.1-0.4,0.2l0,0c0,0-0.1,0.1-0.1,0.1l-0.3,0.2
			l0.3,0.2c0,0,0.1,0,0.1,0.1l0,0c0.1,0.1,0.2,0.2,0.4,0.2c0.3,0,0.7,0,1,0l0,0c0.2,0,0.4,0,0.6,0c0.2,0,0.4,0.1,0.5,0.2
			c0.1,0.1,0.1,0.2,0.1,0.3c0,0.2-0.2,0.4-0.6,0.4C40.3,31.9,40.1,31.9,40,31.9z M33.3,35.6c0,0.1,0,0.1,0,0.1c0,0,0,0-0.1,0
			c-0.2,0-0.5,0-0.8,0c-0.2,0-0.4,0-0.6,0l-0.4,0c0-0.1,0-0.2,0-0.2c0-0.6,0-1.1,0-1.7v-0.1c0-1.3,0-2.6,0-3.9c0-0.2,0-0.2,0-0.2
			c0,0,0,0,0.2,0c0.5,0,1.1,0,1.5,0c0.1,0,0.2,0,0.2,0c0,0,0,0,0,0.2C33.3,31.4,33.3,33.3,33.3,35.6z"/>
	</g>
	<g id="XMLID_36_">
		<path id="XMLID_12_" class="st0" d="M27.5,6.4c0-2.8-1.6-4.3-4.4-4.3c-4,0-8-0.1-12,0c-1,0-2,0.5-2.9,1.1C7.3,4,7.1,5.3,7.1,6.6
			V14h1V7.1c0-3.8,2-4,4.6-3.8c0.3,0,0.6,0.4,0.7,0.6c0.1,1,0.8,1.2,1.6,1.2c1.5,0,3.1,0,4.6,0c0.8,0,1.4-0.3,1.5-1.2
			c0-0.2,0.2-0.5,0.4-0.6c2.3-1,4.8,0.6,4.8,3.2c0,3.2,0,4.3,0,7.5h1.1C27.5,10.8,27.6,9.6,27.5,6.4z M19.9,4.1h-5.3V3h5.3V4.1z"/>
		<path id="XMLID_37_" class="st0" d="M26.4,28.1c0,1.9,0,5.2,0,7.2c0,2.6-1,3.6-3.6,3.6c-3.7,0-7.5,0-11.2,0c-2.3,0-3.4-1-3.4-3.4
			c0-2,0-5.4,0-7.3h-1c0,1.9,0,5.3,0,7.3c0,0.6,0.1,1.3,0.2,1.9c0.5,1.7,1.8,2.7,3.5,2.7c4.3,0,8.7,0,13,0c0.7,0,1.5-0.3,2.1-0.7
			c1.3-0.9,1.6-2.2,1.7-3.7c0-2,0-5.4,0-7.3H26.4z"/>
	</g>
</g>
</svg>
