<?xml version="1.0" encoding="utf-8"?>
<!-- Generator: Adobe Illustrator 19.0.0, SVG Export Plug-In . SVG Version: 6.00 Build 0)  -->
<svg version="1.1" id="Layer_1" xmlns="http://www.w3.org/2000/svg" xmlns:xlink="http://www.w3.org/1999/xlink" x="0px" y="0px"
	 viewBox="0 0 42 42" style="enable-background:new 0 0 42 42;" xml:space="preserve">
<style type="text/css">
	.st0{fill:#FFFFFF;}
</style>
<g id="XMLID_553_">
	<path id="XMLID_600_" class="st0" d="M40,34.9c-0.3-0.1-0.3-0.2-0.3-0.5c0-5.6,0-11.2,0-16.8c0-0.1,0.1-0.4,0.2-0.4
		c0.8-0.5,1.1-1.2,1.1-2.1c0-3.6,0-7.2,0-10.8c0-1.6-0.9-2.5-2.5-2.5c-5.8,0-11.7,0-17.5,0c-1.6,0-2.5,0.9-2.5,2.5
		c0,1.7,0,3.5,0,5.2c0,0.2,0,0.3,0,0.5c-0.2,0-0.4,0-0.5,0c-4.1,0-8.3,0-12.4,0c-1.8,0-2.8,1-2.8,2.8c0,4.6,0,9.1,0,13.7
		c0,2.7,0,5.5,0,8.2c-0.2,0-0.3,0.1-0.4,0.1c-1.4,0.3-2.4,1.6-2.3,3c0.2,1.4,1.3,2.5,2.8,2.5c12.1,0,24.2,0,36.2,0
		c1.5,0,2.6-0.9,2.9-2.4C42.2,36.7,41.4,35.4,40,34.9z M19.5,4.3c0-1.1,0.4-1.5,1.5-1.5c5.8,0,11.6,0,17.4,0c1.1,0,1.6,0.4,1.6,1.6
		c0,3.5,0,7.1,0,10.6c0,1.1-0.4,1.5-1.5,1.5c-1.8,0-3.6,0-5.4,0c-0.8,0-1,0.3-1,1c0,1-0.3,1.9-1,2.7c-0.2,0.2-0.3,0.3-0.5,0.5
		c-0.1-0.7,0-1.4-0.2-2c-0.3-1.4-1.2-2.2-2.6-2.2c-2.2,0-4.5,0-6.7,0c-1.1,0-1.5-0.4-1.5-1.5C19.5,11.4,19.5,7.9,19.5,4.3z
		 M39.1,39.3c-12.1,0-24.1,0-36.2,0c-1.1,0-1.9-0.7-1.9-1.7c0-1,0.8-1.8,1.9-1.8c1.2,0,2.5,0,3.7,0c0.1,0,0.3,0,0.4,0
		c0.4,0,0.7-0.1,0.7-0.5c0-0.4-0.3-0.5-0.6-0.5c-0.9,0-1.8,0-2.7,0c-0.2,0-0.4,0-0.6,0c0-0.3,0-0.5,0-0.8c0-7,0-14.1,0-21.1
		c0-0.2,0-0.4,0-0.6C3.9,11.5,4.5,11,5.3,11c2,0,3.9,0,5.9,0c2.2,0,4.4,0,6.7,0c0.2,0,0.3,0,0.5,0c0,0.8,0,1.6,0,2.5
		c-0.2,0-0.3,0-0.5,0c-3.7,0-7.3,0-11,0c-0.9,0-1,0.1-1,0.9c0,6,0,11.9,0,17.9c0,0.9,0.1,1,1,1c9.5,0,19,0,28.6,0.1
		c0.8,0,0.8-0.1,0.8-0.8c0-2.8,0-5.6,0-8.4c0-0.1,0-0.3,0-0.4c-0.1-0.2-0.3-0.4-0.5-0.4c-0.2,0-0.4,0.2-0.5,0.4
		c-0.1,0.1,0,0.4,0,0.6c0,2.5,0,5,0,7.5c0,0.2,0,0.3,0,0.5c-4.2,0-8.3,0-12.5,0c0-0.4,0-0.9,0-1.3c0-1.4-0.8-2.5-2.1-3
		c-0.8-0.3-1.6-0.6-2.5-0.8c-0.4-0.1-0.4-0.3-0.1-0.6c0.9-0.7,1.4-1.5,1.6-2.6c0-0.1,0.1-0.3,0.2-0.4c0.7-0.7,0.7-1.4,0.1-2.1
		c-0.1-0.2-0.1-0.5-0.1-0.7c0.1-1.2-0.2-2.3-0.9-3.2c-1.2-1.4-3-1.9-4.7-1.3c-1.7,0.6-2.8,2.2-2.7,4.1c0,0.5,0.1,1-0.4,1.4
		c-0.4,0.4-0.2,1.2,0.3,1.7c0.1,0.1,0.3,0.3,0.3,0.5c0.2,1,0.7,1.9,1.5,2.5c0.1,0.1,0.3,0.3,0.3,0.4c0,0.1-0.2,0.2-0.4,0.3
		c-0.8,0.3-1.7,0.6-2.5,0.9c-1.1,0.4-1.9,1.5-1.9,2.6c0,0.5,0,1,0,1.5c-0.6,0-1.2,0-1.9,0c0-5.9,0-11.8,0-17.7c3.8,0,7.6,0,11.4,0
		c0,0.2,0,0.5,0,0.7c0,1.3,1,2.3,2.3,2.3c2.2,0,4.4,0,6.7,0c1.3,0,1.9,0.5,2,1.8c0,0.6-0.1,1.3-0.1,1.9c0,0.2,0,0.6,0.2,0.7
		c0.1,0.1,0.5,0.1,0.7,0c1.8-0.7,2.7-2.1,2.9-4c0-0.1,0-0.3,0-0.4c0.8,0,1.5,0,2.3,0c0,0.5,0,1.1,0,1.6c0,0.4,0,0.8,0,1.2
		c0,0.3,0.2,0.6,0.5,0.6c0.3,0,0.5-0.2,0.5-0.6c0-0.7,0-1.5,0-2.2c0-0.2,0-0.4,0-0.6c0.8,0,1.5,0,2.3,0c0,5.7,0,11.4,0,17.2
		c-0.2,0-0.4,0-0.6,0c-3.7,0-7.3,0-11,0c-1.1,0-1.6,0.4-1.8,1.5c-0.1,0.4-0.3,0.6-0.6,0.6c-2.6,0-5.2,0-7.9,0
		c-0.4,0-0.6-0.2-0.6-0.6c-0.2-1-0.7-1.5-1.7-1.5c-1.2,0-2.4,0-3.6,0c0,0-0.1,0-0.1,0c-0.4,0-0.6,0.1-0.7,0.5c0,0.4,0.3,0.5,0.6,0.5
		c0.7,0,1.4,0,2,0c0.6,0,1.2,0,1.8,0c0.4,0,0.6,0.2,0.6,0.6c0.2,1.1,0.7,1.5,1.8,1.5c2.5,0,5.1,0,7.6,0c1.1,0,1.6-0.5,1.8-1.5
		c0.1-0.5,0.4-0.6,0.8-0.6c3.1,0,6.2,0,9.3,0c0.9,0,1.8,0,2.7,0c1.1,0,1.9,0.7,1.8,1.8C41,38.5,40.2,39.3,39.1,39.3z M10.5,32.3
		c-0.2,0-0.3,0-0.6,0c0-0.8-0.2-1.5,0.2-2.3C10.6,30.7,10.5,31.5,10.5,32.3z M10.9,29.2c0.9-0.3,1.8-0.6,2.8-1c0,1.4,0,2.7,0,4.1
		c-0.7,0-1.4,0-2.2,0C11.6,31.2,11.6,30.2,10.9,29.2z M13.1,22.6c0.5,0.1,0.6-0.1,0.7-0.5c0-0.3,0.1-0.7,0.1-1.1
		c1.2,0,2.2-0.3,3.1-1.2c0.5,0.5,0.9,1,1.1,1.6c0.1,0.2,0.1,0.5,0.2,0.7c0.2,0.6,0.4,0.7,0.9,0.5c0.1,0,0.2-0.1,0.4-0.1
		c-0.1,0.1-0.2,0.2-0.3,0.3c-0.3,0.1-0.4,0.4-0.5,0.7c-0.1,1.2-0.7,2-1.7,2.5C16,26.6,15,26.5,14,25.8c-0.7-0.5-1.1-1.2-1.1-2.1
		c0-0.4-0.1-0.7-0.5-0.8c-0.1,0-0.2-0.2-0.3-0.4C12.5,22.5,12.8,22.6,13.1,22.6z M13.9,17.8c1.1-0.8,2.5-0.9,3.6-0.2
		c1.1,0.7,1.7,1.9,1.5,3.3c-0.2-0.3-0.3-0.7-0.5-0.9c-0.3-0.4-0.7-0.8-1.1-1.1c-0.4-0.3-0.6-0.3-1,0.1c-0.7,0.8-1.5,1.1-2.5,1
		c-0.7-0.1-0.9,0.1-1,0.8c0,0.2,0,0.3-0.1,0.6C12.5,20,12.9,18.6,13.9,17.8z M16.8,28.4c-0.2,0.3-1.5,0.4-1.9,0
		c-0.2-0.2-0.2-0.7-0.3-1.1c0.8,0,1.5,0,2.3,0C17,27.7,17,28.1,16.8,28.4z M17,29.6c0,0.9,0,1.8,0,2.7c-0.7,0-1.4,0-2.2,0
		c0-0.9,0-1.8,0-2.7C15.5,29.6,16.2,29.6,17,29.6z M20.3,32.3c-0.8,0-1.5,0-2.2,0c0-1.3,0-2.7,0-4.1c0.9,0.3,1.8,0.6,2.8,1
		C20.2,30.2,20.2,31.2,20.3,32.3z M21.9,32.3c-0.2,0-0.4,0-0.6,0c0-0.8-0.1-1.5,0.3-2.3C22,30.8,21.8,31.6,21.9,32.3z"/>
	<path id="XMLID_673_" class="st0" d="M8.9,16.7c-0.4,0-0.5,0.2-0.5,0.4c0,0.9,0,1.9,0,2.8c0,0.3,0.1,0.5,0.5,0.5
		c0.4,0,0.5-0.2,0.5-0.5c0-0.5,0-0.9,0-1.4c0,0,0,0,0,0c0-0.5,0-0.9,0-1.4C9.4,16.9,9.3,16.7,8.9,16.7z"/>
	<path id="XMLID_676_" class="st0" d="M21.8,14.8c2.1,0,4.2,0,6.2,0c0.2,0,0.4-0.1,0.5-0.2c0.2-0.7,0.6-1.3,0.6-2
		c-0.1-1.9-0.3-3.8-0.5-5.7c0-0.4-0.2-0.6-0.6-0.6c-0.3,0-0.7,0-1,0c-0.2-1.8-0.8-2.6-2.1-2.6c-1.3,0-1.9,0.8-2.1,2.6
		c-0.3,0-0.5,0-0.8,0c-0.6,0-0.7,0.1-0.8,0.7c-0.2,1.5-0.3,3-0.5,4.6c-0.2,1,0,1.9,0.4,2.8C21.3,14.6,21.4,14.8,21.8,14.8z
		 M27.5,13.7c-1.7,0-3.5,0-5.2,0c-0.1,0-0.3-0.2-0.4-0.2c0,0,0.1-0.1,0.1-0.1c2,0,3.9,0,5.9,0c0,0,0,0.1,0.1,0.1
		C27.8,13.6,27.6,13.7,27.5,13.7z M24.3,4.8c0.4-0.2,0.7-0.2,1.1,0c0.5,0.3,0.5,0.8,0.4,1.4c-0.7,0-1.3,0-2,0
		C23.8,5.7,23.8,5.2,24.3,4.8z M22,9c0-0.4,0.1-0.8,0.1-1.2c0-0.5,0.2-0.6,0.6-0.5c0.2,0.4-0.2,1.2,0.6,1.1c0.7,0,0.4-0.7,0.5-1.2
		c0.6,0,1.3,0,1.9,0c0.2,0.4-0.2,1.2,0.6,1.2c0.7,0,0.4-0.7,0.5-1.2c0.2,0,0.4,0,0.7,0c0.2,1.7,0.3,3.3,0.5,5c-2.1,0-4.2,0-6.4,0
		C21.8,11.2,21.9,10.1,22,9z"/>
	<path id="XMLID_679_" class="st0" d="M33.5,9.7c0,0.4,0.2,0.5,0.6,0.5c1.2,0,2.3,0,3.5,0c0.3,0,0.6-0.1,0.6-0.5
		c0-0.4-0.2-0.5-0.6-0.5c-0.6,0-1.1,0-1.7,0c-0.6,0-1.2,0-1.8,0C33.8,9.2,33.5,9.3,33.5,9.7z"/>
	<path id="XMLID_680_" class="st0" d="M31.2,8.1c0.8,0,1.6,0,2.4,0c0.2,0,0.4-0.2,0.4-0.5c0-0.4-0.2-0.5-0.4-0.5c-0.4,0-0.8,0-1.2,0
		s-0.8,0-1.2,0c-0.3,0-0.4,0.2-0.4,0.5C30.8,7.9,31,8.1,31.2,8.1z"/>
	<path id="XMLID_681_" class="st0" d="M33.3,11.4c-0.7,0-1.4,0-2.1,0c-0.3,0-0.5,0.2-0.4,0.5c0,0.4,0.2,0.5,0.5,0.5c0.3,0,0.7,0,1,0
		c0.3,0,0.7,0,1,0c0.3,0,0.5-0.2,0.4-0.5C33.8,11.6,33.6,11.4,33.3,11.4z"/>
	<path id="XMLID_682_" class="st0" d="M37.7,11.4c-0.4,0-0.7,0-1.1,0c-0.3,0-0.7,0-1,0c-0.3,0-0.5,0.2-0.5,0.5
		c0,0.3,0.2,0.5,0.5,0.5c0.7,0,1.4,0,2.1,0c0.3,0,0.5-0.2,0.5-0.5C38.1,11.6,37.9,11.5,37.7,11.4z"/>
	<path id="XMLID_683_" class="st0" d="M35.9,8.1c0.6,0,1.2,0,1.7,0c0.3,0,0.5-0.2,0.5-0.5c0-0.3-0.2-0.5-0.5-0.5c-0.3,0-0.6,0-0.9,0
		c-0.3,0-0.6,0-0.9,0c-0.3,0-0.5,0.2-0.5,0.5C35.4,7.9,35.6,8.1,35.9,8.1z"/>
	<path id="XMLID_684_" class="st0" d="M31.2,10.2c0.1,0,0.3,0,0.4,0c0.1,0,0.3,0.1,0.4,0c0.1-0.1,0.3-0.3,0.4-0.5
		c0.1-0.3-0.1-0.5-0.3-0.5c-0.3,0-0.6-0.1-0.9,0c-0.1,0-0.3,0.3-0.4,0.5C30.7,10,30.9,10.2,31.2,10.2z"/>
</g>
</svg>
