<svg width="42" height="42" viewBox="0 0 42 42" fill="none" xmlns="http://www.w3.org/2000/svg">
<g clip-path="url(#clip0_712_234)">
<g clip-path="url(#clip1_712_234)">
<path d="M41.9 16C41.9 15.3 41.5 14.7 40.8 14.6C40.1 14.5 39.9 14.1 39.8 13.6C38.5 9.6 35.9 6.2 32.5 3.7C29.2 1.3 25.2 0 21.1 0C19.6 0 18 0.2 16.5 0.6C9.4 2.3 4.5 6.7 2.1 13.7C1.9 14.1 1.8 14.5 1.2 14.6C0.5 14.7 0 15.3 0 16C0 18.8 0 21.3 0 23.8C0 24.7 0.6 25.3 1.5 25.3C1.7 25.3 1.9 25.3 2.1 25.3C2.2 25.3 2.4 25.3 2.5 25.3C2.6 25.3 2.7 25.3 2.9 25.3C4.4 25.3 4.9 24.8 4.9 23.4C4.9 21 4.9 18.5 4.9 16.5C4.9 15.2 4.6 14.8 3.3 14.5H3.1V14.4C4.9 7.7 11.6 1.1 21 1.1C30.3 1.1 37 7.7 38.8 14.2V14.3H38.7C37.2 14.8 37 15 37 16.6C37 17.3 37 18 37 18.7C37 20.3 37 21.9 37 23.5C37 24.3 37.3 24.8 37.9 25.1C38.1 25.2 38.2 25.2 38.4 25.3C38.5 25.3 38.6 25.4 38.7 25.4H38.8L38.7 25.5C36.2 32.3 31.5 36.5 24.7 38.1H24.6C24.4 38.1 24 37.9 23.9 37.7C23.5 37.1 23.1 36.9 22.4 36.9C22.1 36.9 21.7 36.9 21.4 36.9C21 36.9 20.6 36.9 20.3 36.9C19.1 36.9 18.4 37 18 37.4C17.6 37.8 17.6 38.5 17.6 39.8C17.6 40.8 18.2 41.4 19.2 41.4C19.5 41.4 19.9 41.4 20.3 41.4C20.6 41.4 20.8 41.4 21.1 41.4C21.4 41.4 21.6 41.4 21.9 41.4C23.5 41.4 23.8 41.2 24.2 39.6V39.5H24.3C24.3 39.5 24.4 39.5 24.4 39.4C28.2 38.6 31.4 37 34 34.8C36.5 32.6 38.5 29.6 39.8 25.9C39.9 25.6 40.3 25.4 40.5 25.3C41.1 25.1 41.7 24.7 41.7 23.8C41.9 21.3 41.9 18.7 41.9 16ZM3.7 17.3V19.1V19.9C3.7 20.2 3.7 20.5 3.7 20.8C3.7 21.6 3.7 22.4 3.7 23.3C3.7 23.5 3.7 23.8 3.5 24C3.4 24.1 3.2 24.2 2.9 24.2H2.8C2.7 24.2 2.6 24.2 2.5 24.2C1.1 24.2 1 24 1 22.4C1 21.8 1 21.3 1 20.7C1 19.3 1 17.9 1 16.5C1 16.2 1 16 1.2 15.8C1.3 15.7 1.5 15.6 1.9 15.6H2C3.7 15.7 3.7 15.7 3.7 17.3ZM23.1 39.6C23.1 40 23 40.4 22.4 40.4C22 40.4 21.5 40.4 21 40.4C20.5 40.4 20 40.4 19.6 40.4C19.3 40.4 19.2 40.3 19 40.2C18.9 40.1 18.8 39.9 18.9 39.7C18.9 39.6 18.9 39.5 18.9 39.5V39.4C18.9 38.3 19 38.3 20 38.3H20.4H20.7H21H21.2H21.3H21.4H21.7C22.4 38.3 22.8 38.3 23 38.5C23.1 38.6 23.1 38.9 23.1 39.6ZM40.6 24C40.5 24.1 40.3 24.2 40 24.2H39.9C39.8 24.2 39.7 24.2 39.6 24.2C38.2 24.2 38.2 24 38.2 22.4C38.2 21.9 38.2 21.3 38.2 20.8C38.2 19.4 38.2 18 38.2 16.6C38.2 16.3 38.2 16 38.4 15.9C38.5 15.8 38.7 15.7 39 15.7H39.1C40.7 15.7 40.7 15.8 40.7 17.4V19.2V20C40.7 20.3 40.7 20.6 40.7 21C40.7 21.8 40.7 22.6 40.7 23.5C40.8 23.6 40.8 23.8 40.6 24Z" fill="white"/>
<path d="M22.2 30.8C22.6 30.8 22.8 30.6 22.8 30.2C22.8 29.8 22.6 29.7 22.2 29.6C22.1 29.6 21.9 29.6 21.8 29.6C19 29.6 16.2 29.6 13.5 29.6C13.2 29.6 12.9 29.6 12.9 29.2C12.9 28.8 13.2 28.8 13.5 28.8C13.7 28.8 13.8 28.8 14 28.8C16.7 28.8 19.5 28.8 22.2 28.8C22.6 28.8 22.9 28.7 23.1 28.3C23.7 26.4 24.2 24.6 24.8 22.7C25 21.9 24.9 21.6 24 21.6C20.3 21.6 16.6 21.6 12.9 21.6C11.8 21.6 11.9 21.6 11.5 20.6C11.4 20.4 11.4 20.1 11.2 19.9C11.1 19.7 10.9 19.6 10.7 19.6C9.89999 19.6 9.19999 19.6 8.39999 19.6C7.99999 19.6 7.79999 19.8 7.79999 20.2C7.79999 20.6 7.99999 20.7 8.39999 20.7C8.89999 20.7 9.49999 20.7 9.99999 20.7C10.1 20.7 10.4 20.9 10.4 21C11.1 23.2 11.8 25.3 12.5 27.5C12.5 27.6 12.5 27.9 12.4 28C11.8 28.6 11.6 29.2 11.9 29.8C12.2 30.5 12.8 30.7 13.5 30.7C14.9 30.7 16.3 30.7 17.8 30.7C18.5 30.7 19.1 30.7 19.8 30.7C20.5 30.8 21.4 30.8 22.2 30.8ZM12.1 22.8C15.9 22.8 19.7 22.8 23.5 22.8C23 24.5 22.5 26.1 22 27.7C21.4 27.7 20.8 27.7 20.3 27.7C18.3 27.7 16.2 27.7 14.2 27.7C14 27.7 13.7 27.6 13.7 27.5C13.1 26 12.6 24.4 12.1 22.8Z" fill="white"/>
<path d="M14.4 12.7C13.9 12.7 13.6 12.9 13.6 13.4C13.4 15.3 13.1 17.3 12.8 19.2C12.7 19.6 12.8 20 13.3 20C13.7 20.1 13.9 19.7 13.9 19.4C14 18.6 14.1 17.8 14.2 17.1C14.4 16 14.5 14.9 14.7 13.9H15.9C16 14.8 16 14.8 15.4 15.3C14.6 15.9 14.5 17.1 15.2 17.8C15.9 18.6 17 18.6 17.7 17.8C18.4 17.1 18.3 15.8 17.5 15.3C16.9 14.9 17 14.4 17.1 13.9H25.7C25.7 14.5 25.8 14.9 25.2 15.3C24.4 15.8 24.3 17.1 25 17.8C25.7 18.6 26.8 18.5 27.5 17.8C28.2 17.1 28.1 15.8 27.3 15.3C26.7 14.9 26.8 14.4 26.9 13.9H28.1C28.8 19.2 29.5 24.4 30.2 29.7H29.6C28.1 29.7 26.6 29.7 25.1 29.7C24.7 29.7 24.3 29.8 24.3 30.3C24.3 30.8 24.7 30.9 25.1 30.9C26.8 30.9 28.6 30.9 30.3 30.9C31.4 30.9 31.5 30.8 31.3 29.8C31.3 29.7 31.3 29.7 31.3 29.6C30.9 26.4 30.5 23.2 30 20C29.7 17.8 29.4 15.7 29.2 13.5C29.1 13 28.9 12.8 28.5 12.8C28 12.8 27.5 12.8 26.9 12.8C26.9 12.6 26.9 12.4 26.9 12.2C26.9 11.3 26.9 10.4 26.9 9.60003C26.8 7.20003 25.1 5.10003 22.8 4.60003C20.4 4.00003 17.9 5.10003 16.7 7.20003C16.2 8.10003 16 9.00003 16 10C16 10.9 16 11.8 16 12.8C15.4 12.7 14.9 12.7 14.4 12.7ZM26.3 15.9C26.7 15.9 27 16.2 27 16.6C27 17 26.7 17.3 26.3 17.3C25.9 17.3 25.6 17 25.6 16.6C25.6 16.2 25.9 15.9 26.3 15.9ZM17.4 8.10003C18.2 6.10003 20.1 5.10003 22.2 5.50003C24.1 5.80003 25.6 7.40003 25.7 9.40003C25.8 10.5 25.7 11.5 25.7 12.6H17C17.1 11.1 16.8 9.60003 17.4 8.10003ZM16.5 15.9C16.9 15.9 17.2 16.2 17.2 16.6C17.2 17 16.9 17.3 16.5 17.3C16.1 17.3 15.8 17 15.8 16.6C15.8 16.2 16.1 15.9 16.5 15.9Z" fill="white"/>
<path d="M14.4 31.4C13.6 31.4 13 32.1 13 32.8C13 33.6 13.6 34.2 14.4 34.2C15.2 34.2 15.8 33.6 15.8 32.8C15.8 32 15.2 31.4 14.4 31.4ZM14.4 33.4C14.1 33.4 13.8 33.1 13.8 32.8C13.8 32.5 14.1 32.2 14.4 32.2C14.7 32.2 15 32.5 15 32.8C15 33.1 14.8 33.4 14.4 33.4Z" fill="white"/>
<path d="M18.7 32.9C18.7 33.7 19.3 34.3 20.1 34.3C20.9 34.3 21.5 33.7 21.5 32.9C21.5 32.1 20.8 31.5 20.1 31.5C19.3 31.5 18.7 32.1 18.7 32.9ZM20.7 32.8C20.7 33.1 20.4 33.4 20.1 33.4C19.8 33.4 19.5 33.1 19.5 32.8C19.5 32.5 19.8 32.2 20.1 32.2C20.5 32.3 20.7 32.5 20.7 32.8Z" fill="white"/>
</g>
</g>
<defs>
<clipPath id="clip0_712_234">
<rect width="42" height="42" fill="white"/>
</clipPath>
<clipPath id="clip1_712_234">
<rect width="41.9" height="41.5" fill="white"/>
</clipPath>
</defs>
</svg>
