<svg width="42" height="42" viewBox="0 0 42 42" fill="none" xmlns="http://www.w3.org/2000/svg">
<g clip-path="url(#clip0_712_263)">
<g clip-path="url(#clip1_712_263)">
<g clip-path="url(#clip2_712_263)">
<path d="M32.6 2.9C32.6 2.8 32.6 2.7 32.5 2.6C32.5 2.4 32.4 2.2 32.3 2C31.9 0.8 30.9 0.3 30 0H10.6C10.4 0 10.3 0.1 10.2 0.1C10 0.2 9.8 0.3 9.6 0.4C8.5 1 8 1.9 8 3.2C8 4.1 8 5 8 5.9V7.2V14.2C8 22.4 8 30.5 8 38.7C8 39.4 8.1 40.1 8.5 40.8C9.1 41.7 10 42.1 11 42.1H12.3C15.2 42.1 18.1 42.1 21 42.1C23.8 42.1 26.7 42.1 29.5 42.1C31 42.1 32.2 41.1 32.4 39.5C32.4 39.4 32.4 39.3 32.5 39.2V39.1L32.6 2.9ZM31.5 39.5C31.4 40.4 30.6 41.1 29.6 41.1C22.7 41.1 16.6 41.1 11 41.1C9.9 41.1 9.1 40.2 9.1 39.1C9.1 38.6 9.1 38 9.1 37.5C9.1 37.3 9.1 37 9.1 36.8H31.6C31.6 37.1 31.6 37.3 31.6 37.6C31.5 38.3 31.5 38.9 31.5 39.5ZM9.1 2.7C9.1 1.8 10 1.1 11 1.1C17.7 1.1 23.8 1.1 29.6 1.1C30.7 1.1 31.5 1.9 31.6 3C31.6 3.3 31.6 3.6 31.6 4C31.6 4.3 31.6 4.6 31.6 5C31.6 5.1 31.6 5.2 31.6 5.4H9C9 5 9 4.8 9 4.5C9 3.9 9 3.3 9.1 2.7ZM9.1 35.8V6.4H31.5V35.8H9.1Z" fill="white"/>
<path d="M20.2 28.8C22.3 28.8 24.3 28 25.8 26.5C27.2 25.1 28 23.1 28 21.1C28 16.9 24.5 13.4 20.3 13.4C18.2 13.4 16.3 14.2 14.8 15.6C13.3 17 12.5 19 12.5 21C12.6 25.3 16 28.8 20.2 28.8ZM20.3 27.8C20.2 27.8 20.2 27.8 20.2 27.8C18.4 27.8 16.7 27.1 15.5 25.9C14.2 24.6 13.6 22.9 13.6 21.1C13.6 17.4 16.6 14.4 20.3 14.4C22.1 14.4 23.8 15.1 25.1 16.4C26.4 17.7 27 19.4 27 21.2C27 23 26.3 24.7 25 25.9C23.7 27.1 22.1 27.8 20.3 27.8Z" fill="white"/>
<path d="M25.8 30.3C24.6 30.9 23.4 31.3 22.1 31.5C18.3 32 14.9 30.9 12.1 28.3C11.9 28.1 11.6 27.8 11.2 28.2C11.1 28.3 11 28.4 11 28.5C11 28.7 11.2 28.8 11.3 29C13.9 31.4 16.9 32.6 20.1 32.6C20.8 32.6 21.5 32.5 22.2 32.4C23.2 32.2 24.1 32 25.1 31.6C25.5 31.5 26 31.3 26.4 31.2L27.4 32.5L29.2 28.3L24.7 28.8L25.8 30.3ZM27.6 29.6L27.3 30.5L26.6 29.7C26.9 29.7 27.3 29.6 27.6 29.6Z" fill="white"/>
<path d="M29.1 12.9C28.8 12.7 28.4999 12.5 28.2999 12.3C27.5999 11.8 26.9 11.2 26.1 10.8C22.4 8.89999 18.5 8.89999 14.6 10.6C14.3 10.8 14.1 10.7 13.9 10.5C13.7 10.2 13.6 9.99999 13.4 9.79999C13.3 9.69999 13.2 9.59999 13.1 9.39999L13 9.29999L11.2 13.5L15.8 13L14.8 11.6C16.3 10.8 17.9 10.4 19.5 10.3C19.7 10.3 19.9 10.3 20.1 10.3C23.3 10.3 26.1 11.4 28.4 13.6C28.5 13.7 28.7 13.9 28.9 13.9C29 13.9 29.1 13.9 29.2 13.7C29.3 13.6 29.4 13.5 29.4 13.3C29.4 13.2 29.3 13 29.1 12.9ZM12.9 12.4L13.3 11.5L14 12.3L12.9 12.4Z" fill="white"/>
<path d="M17.1 3.7C17.2 3.8 17.3 3.9 17.5 4C18.4 4 19.4 4 20.3 4C21.2 4 22.1 4 23 4C23.2 4 23.6 3.8 23.6 3.6C23.6 3.5 23.6 3.3 23.5 3.2C23.5 3 23.2 3 23 3C22.3 3 21.6 3 20.9 3H20.3C20.1 3 19.8 3 19.6 3C18.9 3 18.2 3 17.5 3C17.3 3 17.2 3.1 17 3.3L16.9 3.4L16.8 3.5L16.9 3.6C16.9 3.6 17 3.6 17.1 3.7Z" fill="white"/>
<path d="M20.3 37C19.9 37 19.4 37.2 19.1 37.5C18.8 37.8 18.6 38.3 18.6 38.7C18.6 39.1 18.8 39.6 19.1 39.9C19.4 40.2 19.8 40.4 20.3 40.4C20.8 40.4 21.2 40.2 21.5 39.9C21.8 39.6 22 39.2 22 38.7C21.9 37.8 21.2 37 20.3 37ZM19.8 38.2C19.9 38.1 20.1 38 20.3 38C20.8 38 20.9 38.3 21 38.6C21 38.8 20.9 39.1 20.8 39.2C20.7 39.3 20.5 39.4 20.4 39.4C20.1 39.4 19.8 39.2 19.7 38.7C19.6 38.5 19.7 38.4 19.8 38.2Z" fill="white"/>
<path d="M25.5 18.9C25.4 18.7 25.2 18.6 25 18.6C22.8 18.6 20.7 18.6 18.7 18.6C18.6 18.6 18.4 18.7 18.3 18.9C18.3 19 18.2 19 18.2 19L18.1 19.1L18.2 19.2L18.3 19.3C18.4 19.4 18.5 19.5 18.7 19.6C18.8 19.7 18.9 19.6 19 19.6H19.1H20C21.2 19.6 22.4 19.6 23.6 19.6C23.7 19.6 23.8 19.6 24 19.6H24.1L24 19.8C23.9 20 23.8 20.2 23.6 20.3C23.5 20.5 23.3 20.8 23.2 21C22.9 21.5 22.6 22.1 22.2 22.3C21.7 22.5 21.1 22.5 20.5 22.4C20.2 22.4 20 22.4 19.7 22.4C19.2 22.4 18.7 22.4 18.2 22.4H17.6V20.6C17.6 19.7 17.6 18.8 17.6 17.9C17.6 17.7 17.6 17.2 17.1 17.2C16.7 17.2 16.2 17.2 15.8 17.2C15.7 17.2 15.6 17.3 15.5 17.5L15.4 17.6L15.3 17.7L15.4 17.8L15.5 17.9C15.6 18 15.7 18.2 15.9 18.2C16.1 18.3 16.3 18.2 16.5 18.2C16.6 18.2 16.7 18.2 16.7 18.2V18.6C16.7 19.1 16.7 19.5 16.7 20C16.7 21.1 16.7 22.2 16.7 23.4C16.7 24.3 17.2 24.8 18.1 24.8C19.3 24.8 20.4 24.8 21.6 24.8H22.7C22.8 24.8 22.9 24.8 23 24.8C23.1 24.8 23.2 24.8 23.3 24.8C23.5 24.8 23.6 24.8 23.8 24.8C23.9 24.8 24.1 24.6 24.2 24.5C24.2 24.4 24.3 24.4 24.3 24.4L24.4 24.3L24.3 24.2L24.2 24.1C24.1 24 24 23.9 23.9 23.8C23.8 23.7 23.7 23.8 23.5 23.8H23.4H22.2C20.9 23.8 19.6 23.8 18.3 23.8C18.2 23.8 18 23.7 17.9 23.7C17.8 23.7 17.8 23.7 17.7 23.6V23.5H18.2C18.5 23.5 18.9 23.5 19.2 23.5C20.2 23.5 21.2 23.5 22.2 23.5C22.5 23.5 22.8 23.4 23 23.1C23.9 21.9 24.8 20.6 25.5 19.5C25.5 19.3 25.6 19.1 25.5 18.9Z" fill="white"/>
<path d="M19.2 24.9C18.8 24.9 18.5 25.2 18.5 25.6C18.5 25.8 18.6 26 18.7 26.2C18.8 26.3 19 26.4 19.2 26.4C19.6 26.4 19.9 26.1 19.9 25.6C19.9 25.1 19.7 24.9 19.2 24.9Z" fill="white"/>
<path d="M21.6 24.9C21.2 24.9 20.9 25.1 20.8 25.6C20.9 26.1 21.1 26.3 21.6 26.4C22 26.4 22.3 26.1 22.3 25.7C22.3 25.2 22 24.9 21.6 24.9Z" fill="white"/>
</g>
</g>
</g>
<defs>
<clipPath id="clip0_712_263">
<rect width="42" height="42" fill="white"/>
</clipPath>
<clipPath id="clip1_712_263">
<rect width="41.6" height="42" fill="white"/>
</clipPath>
<clipPath id="clip2_712_263">
<rect width="24.6" height="42.2" fill="white" transform="translate(8)"/>
</clipPath>
</defs>
</svg>
