<svg width="42" height="42" viewBox="0 0 42 42" fill="none" xmlns="http://www.w3.org/2000/svg">
<g clip-path="url(#clip0_712_246)">
<g clip-path="url(#clip1_712_246)">
<path d="M30.2 32.5C30.2 32.4 30.2 32.2 30.2 32.1C30.1 31.8 29.9 31.7 29.7 31.7C29.4 31.7 29.2 31.8 29.2 32.1C29.2 32.2 29.2 32.4 29.2 32.5C29.2 33.5 29.2 34.5 29.2 35.4V36.2H5.1V5.5H29V5.8C29 6 29 6.2 29 6.4C29 7 29 7.6 29 8.2C29 8.4 29.1 8.7 29.3 8.8C29.5 8.9 29.6 8.9 29.8 8.9C30 8.8 30.1 8.6 30.1 8.3C30.1 7 30.1 5.6 30.1 4.3C30.1 4 30.1 3.7 30 3.4C29.5 1.4 27.9 0.1 25.8 0.1C21 0.1 16.2 0.1 11.5 0.1L8.3 0C7.9 0 7.6 0 7.4 0.1C5.4 0.6 4 2.3 4 4.3C4 16.1 4 27.8 4 37.7C4 38.2 4.1 38.6 4.2 38.9C4.8 40.8 6.4 42 8.2 42C10.7 42 13.3 42 15.8 42C17.8 42 19.7 42 21.6 42H25.9C26.6 42 27.3 41.8 27.9 41.5C29.4 40.6 30.1 39.3 30.1 37.6C30.1 36.6 30.1 35.5 30.1 34.5C30.2 33.8 30.2 33.1 30.2 32.5ZM29 4.1V4.2C29 4.2 29 4.2 29 4.3H5.1C5.1 4.2 5.1 4.1 5.1 4C5.1 3.7 5.1 3.5 5.2 3.3C5.6 2.4 6.2 1.8 7 1.4C7.4 1.2 7.8 1.1 8.4 1.1C11.2 1.1 13.9 1.1 16.7 1.1H20.9H21.8C23.2 1.1 24.7 1.1 26.1 1.1C27 1.1 27.7 1.5 28.4 2.4C28.8 2.9 29 3.5 29 4.1ZM27.2 40.6C26.7 40.8 26.2 40.9 25.8 40.9C19.5 40.9 13.3 40.9 8.6 40.9C7.2 40.9 6.3 40.3 5.6 39.2C5.3 38.6 5.2 38 5.2 37.4H29C29.2 38.7 28.4 40.1 27.2 40.6Z" fill="white"/>
<path d="M29.1999 10.5L28.9999 10.7C28.6999 11 28.3999 11.2 28.0999 11.5C27.9999 11.5 27.8999 11.6 27.7999 11.5C27.3999 11.4 26.9999 11.2 26.5999 11.1L26.2999 11C26.2999 10.9 26.2999 10.8 26.2999 10.7C26.2999 10.4 26.2999 10.1 26.1999 9.80002C26.1999 9.70002 26.1999 9.70003 26.1999 9.60003C26.0999 9.20003 26.0999 8.90002 25.3999 8.90002H25.2999C24.7999 8.90002 24.1999 8.90002 23.6999 8.90002C23.3999 8.90002 23.1999 8.90002 22.8999 8.90002C22.3999 8.90002 22.1999 9.00003 22.0999 9.60003C22.0999 9.70003 22.0999 9.90002 21.9999 10C21.9999 10.3 21.8999 10.6 21.8999 10.8C21.8999 10.9 21.7999 10.9 21.7999 11C21.5999 11.1 21.3999 11.1 21.1999 11.2C20.8999 11.3 20.6999 11.4 20.3999 11.5C20.1999 11.6 20.1999 11.5 19.9999 11.4C19.5999 11 19.2999 10.8 18.9999 10.5C18.6999 10.3 18.3999 10.3 18.1999 10.5C17.6999 10.9 17.1999 11.3 16.7999 11.7L16.1999 12.2C15.8999 12.5 15.7999 12.8 16.0999 13.1C16.1999 13.2 16.2999 13.4 16.3999 13.5C16.4999 13.7 16.6999 13.9 16.7999 14C16.7999 14 16.7999 14.1 16.8999 14.1C16.9999 14.2 17.0999 14.3 16.9999 14.5C16.8999 14.7 16.6999 15 16.5999 15.3C16.3999 15.8 16.1999 15.9 15.6999 15.8C15.3999 15.8 14.9999 15.7 14.5999 15.7C14.2999 15.7 14.0999 15.9 13.9999 16.2C13.8999 17 13.6999 17.8 13.5999 18.6C13.4999 19.2 13.5999 19.4 14.1999 19.6C14.4999 19.7 14.7999 19.8 15.1999 19.9C15.5999 20 15.5999 20 15.6999 20.5C15.6999 20.6 15.6999 20.6 15.6999 20.7C15.6999 21 15.7999 21.2 15.8999 21.5C15.9999 21.7 15.8999 21.8 15.7999 21.9C15.4999 22.1 15.1999 22.3 14.9999 22.5L14.7999 22.7C14.3999 23 14.2999 23.2 14.5999 23.6C14.9999 24.3 15.3999 25 15.8999 25.8C16.0999 26.1 16.3999 26.2 16.6999 26.1C16.7999 26 16.9999 26 17.0999 25.9C17.3999 25.8 17.6999 25.6 18.0999 25.5C18.2999 25.4 18.3999 25.4 18.5999 25.6C18.6999 25.7 18.6999 25.7 18.7999 25.8C18.9999 26 19.1999 26.2 19.3999 26.3C19.5999 26.4 19.5999 26.5 19.4999 26.7C19.3999 27.2 19.2999 27.6 19.1999 28C19.0999 28.4 19.1999 28.6 19.5999 28.7C19.9999 28.8 20.2999 29 20.6999 29.1C21.1999 29.3 21.6999 29.5 22.1999 29.6C22.2999 29.6 22.2999 29.6 22.3999 29.6C22.5999 29.6 22.7999 29.5 22.8999 29.3C23.2999 28.7 23.5999 28 23.7999 27.5C23.9999 27.2 23.7999 26.9 23.4999 26.7C23.1999 26.6 22.8999 26.7 22.7999 27C22.5999 27.3 22.4999 27.7 22.2999 28L22.1999 28.2C22.1999 28.3 22.0999 28.3 22.0999 28.4H21.9999C21.8999 28.3 21.6999 28.3 21.5999 28.3C21.4999 28.3 21.3999 28.3 21.3999 28.2C21.0999 28.1 20.8999 28 20.5999 27.9L19.9999 27.7L20.0999 27.3C20.1999 27 20.2999 26.7 20.3999 26.4C20.4999 26 20.3999 25.7 20.0999 25.5C19.5999 25.1 19.0999 24.7 18.4999 24.2C18.2999 24 18.0999 23.9 17.7999 24.1C17.2999 24.3 16.8999 24.5 16.4999 24.6C16.3999 24.6 16.2999 24.6 16.2999 24.6C16.0999 24.2 15.7999 23.8 15.5999 23.4L15.3999 23.1C15.4999 23 15.5999 22.9 15.6999 22.9C15.9999 22.7 16.2999 22.4 16.5999 22.2C16.8999 22 16.8999 21.7 16.7999 21.5C16.7999 21.4 16.6999 21.2 16.6999 21.1C16.5999 20.6 16.4999 20.2 16.3999 19.7C16.2999 19.2 16.1999 19 15.6999 18.9C15.3999 18.8 14.9999 18.7 14.5999 18.6L14.4999 18.5C14.5999 18 14.6999 17.6 14.7999 16.9L14.8999 16.8H14.9999C15.3999 16.8 15.7999 16.8 16.2999 16.9C16.6999 16.9 16.9999 16.7 17.0999 16.4C17.0999 16.3 17.0999 16.3 17.0999 16.2C17.1999 16.1 17.1999 16 17.2999 15.9C17.4999 15.5 17.7999 15.2 17.9999 14.9C18.1999 14.6 18.1999 14.4 17.9999 14.1C17.8999 14 17.7999 13.9 17.7999 13.7C17.6999 13.5 17.4999 13.3 17.3999 13.1C17.2999 13 17.2999 12.9 17.2999 12.9C17.2999 12.9 17.3999 12.8 17.3999 12.7C17.7999 12.4 18.1999 12.1 18.4999 11.8C18.5999 11.7 18.6999 11.7 18.7999 11.8C18.9999 11.9 19.0999 12.1 19.2999 12.2C19.3999 12.3 19.4999 12.4 19.5999 12.5C19.9999 12.9 20.1999 12.9 20.6999 12.7C21.1999 12.5 21.7999 12.3 22.3999 12.1C22.8999 12 22.9999 11.9 22.9999 11.4C22.9999 11.1 23.0999 10.8 23.0999 10.5V10.1H23.5999C23.9999 10.1 24.4999 10.1 24.8999 10.1C24.9999 10.1 24.9999 10.1 24.9999 10.3V10.5C24.9999 10.8 25.0999 11.1 25.0999 11.4C25.0999 11.8 25.2999 12 25.5999 12.1C26.3999 12.3 26.9999 12.5 27.5999 12.8C27.8999 12.9 28.1999 12.9 28.3999 12.7C28.4999 12.6 28.5999 12.5 28.6999 12.4C28.8999 12.2 29.0999 12 29.2999 11.8C29.3999 11.7 29.3999 11.7 29.5999 11.8L29.6999 11.9C30.0999 12.2 30.3999 12.5 30.7999 12.8C30.8999 12.9 30.8999 12.9 30.7999 13C30.5999 13.3 30.2999 13.7 30.0999 14H30.1999C29.9999 14.2 29.9999 14.5 30.1999 14.7C30.3999 14.9 30.4999 15.2 30.6999 15.4C30.7999 15.6 30.8999 15.7 30.9999 15.9C31.2999 16.3 31.5999 16.2 31.7999 16.1C32.0999 16 32.0999 15.6 31.9999 15.4C31.7999 15.1 31.5999 14.8 31.4999 14.6C31.3999 14.5 31.3999 14.4 31.4999 14.3C31.6999 14 31.8999 13.8 32.0999 13.5C32.1999 13.4 32.2999 13.3 32.2999 13.2C32.4999 12.9 32.4999 12.6 32.1999 12.4C31.4999 11.8 30.7999 11.2 30.0999 10.6C29.6999 10.3 29.3999 10.3 29.1999 10.5Z" fill="white"/>
<path d="M36.2 22.7C36.5 22.5 36.8 22.3 37 22.1C37.1 22 37.2 21.9 37.2 21.8L37.3 21.7C37.3 21.6 37.3 21.6 37.3 21.5C37.3 21.4 37.3 21.3 37.2 21.3V21.2C36.7 20.4 36.3 19.6 35.8 18.8C35.6 18.4 35.3 18.4 35.1 18.5C34.8 18.7 34.4 18.8 34.1 19L33.7 19.2C33.6 19.3 33.3 19.2 33.2 19.1C33 19 32.9 18.9 32.9 18.7C32.9 18.4 32.8 18.1 32.8 17.8C32.8 17.6 32.8 17.4 32.7 17.2C32.7 16.9 32.5 16.7 32.2 16.7C31.2 16.7 30.2 16.7 29.1 16.7C28.9 16.7 28.7 16.9 28.7 17.1C28.6 17.6 28.5 18.1 28.5 18.7C28.5 18.9 28.4 19 28.2 19.1C28 19.2 27.9 19.2 27.8 19.2C27.6 19.1 27.3 19 27.1 18.9C26.9 18.8 26.6 18.7 26.4 18.6C26.1 18.5 25.8 18.5 25.6 18.9C25.1 19.7 24.7 20.5 24.2 21.2C24 21.6 24 21.9 24.4 22.1C24.8 22.4 25.2 22.6 25.5 22.9C25.6 23 25.7 23.2 25.7 23.4C25.7 23.6 25.6 23.8 25.4 23.9C25 24.2 24.6 24.4 24.2 24.7C23.9 24.9 23.8 25.2 24 25.6C24.5 26.4 24.9 27.2 25.4 27.9C25.6 28.3 25.8 28.3 26.2 28.2C26.5 28.1 26.8 28 27 27.8L27.5 27.6C27.7 27.5 27.9 27.6 28.1 27.7C28.2 27.8 28.3 27.9 28.3 28L28.4 29.4C28.4 29.9 28.6 30.1 29.1 30.1C29.5 30.1 30 30.1 30.4 30.1C30.8 30.1 31.3 30.1 31.7 30.1C32.3 30.1 32.5 29.9 32.5 29.3C32.5 28.9 32.6 28.5 32.6 28C32.6 27.9 32.7 27.7 32.9 27.6C33.1 27.5 33.3 27.5 33.4 27.5C33.8 27.7 34.3 27.9 34.7 28.1C35.1 28.3 35.4 28.2 35.6 27.8C36.1 27 36.5 26.3 37 25.5C37.2 25.1 37.2 24.9 36.8 24.6C36.5 24.4 36.1 24.1 35.8 23.9L35.6 23.7C35.5 23.6 35.5 23.5 35.5 23.3C35.5 23.1 35.6 23 35.6 22.9C35.9 22.9 36.1 22.8 36.2 22.7ZM34.6 23.1C34.6 23.3 34.6 23.4 34.6 23.6C34.5 24 34.6 24.3 34.9 24.5C35.2 24.7 35.4 24.9 35.7 25.1L36.1 25.4L35.9 25.7C35.6 26.1 35.4 26.6 35.1 27C35.1 27 35 27 34.9 27C34.5 26.8 34 26.6 33.6 26.5C33.3 26.4 33.1 26.4 32.9 26.6C32.6 26.8 32.4 26.9 32.1 27C31.7 27.2 31.6 27.5 31.6 27.8V27.9C31.6 28.2 31.5 28.5 31.5 28.7C31.5 28.8 31.5 28.9 31.5 29H29.5C29.5 28.9 29.5 28.8 29.5 28.7C29.5 28.4 29.4 28.1 29.4 27.8C29.4 27.4 29.3 27 28.7 26.8C28.6 26.8 28.5 26.7 28.3 26.6C28.2 26.5 28.1 26.5 28 26.4C27.8 26.3 27.6 26.3 27.5 26.4C27.1 26.5 26.8 26.7 26.4 26.8C26.3 26.9 26.1 26.9 26 27V26.6C25.8 26.2 25.5 25.8 25.3 25.4C25.3 25.4 25.3 25.2 25.4 25.2C25.7 24.9 26.1 24.7 26.4 24.5C26.7 24.3 26.8 24.1 26.7 23.8C26.7 23.6 26.7 23.3 26.7 23C26.7 22.7 26.6 22.4 26.3 22.2C26.1 22.1 25.9 21.9 25.7 21.8C25.6 21.7 25.4 21.6 25.3 21.5C25.2 21.4 25.2 21.4 25.2 21.3C25.4 20.9 25.7 20.5 25.9 20.1L26.1 19.7C26.2 19.8 26.3 19.8 26.5 19.9C26.8 20 27.2 20.2 27.5 20.3C27.8 20.4 28 20.4 28.3 20.3L28.4 20.2C28.6 20.1 28.8 19.9 29 19.8C29.3 19.7 29.5 19.5 29.5 19.1V18.9C29.5 18.6 29.6 18.3 29.6 18C29.6 17.8 29.6 17.7 29.8 17.7C30.2 17.7 30.6 17.7 31.1 17.7C31.3 17.7 31.4 17.7 31.6 17.7C31.6 17.8 31.6 18 31.6 18.1C31.6 18.5 31.7 18.8 31.7 19.1C31.7 19.4 31.9 19.6 32.1 19.7C32.3 19.8 32.4 19.9 32.6 20C32.7 20.1 32.8 20.1 33 20.2C33.2 20.3 33.4 20.3 33.6 20.2C33.7 20.1 33.9 20.1 34 20C34.3 19.9 34.6 19.7 34.9 19.6C35 19.5 35 19.6 35.1 19.7C35.4 20.2 35.7 20.7 36 21.1C36.1 21.2 36 21.2 35.9 21.3C35.7 21.5 35.4 21.6 35.2 21.8C35.1 21.9 35 22 34.9 22C34.5 22.5 34.5 22.7 34.6 23.1Z" fill="white"/>
<path d="M23.1 31.8C24.7 31.8 25.9 30.6 26 29C26 28.8 26 28.6 25.9 28.5C25.8 28.4 25.7 28.3 25.5 28.3C25.2 28.3 25 28.5 24.9 28.9C24.9 29.1 24.8 29.4 24.7 29.6C24.4 30.3 23.8 30.6 22.9 30.6C20.6 30.6 18.2 30.6 15.9 30.6H13.4H13.3C13.2 30.6 13 30.6 12.9 30.6C12.8 30.6 12.6 30.6 12.5 30.6C12.1 30.6 11.7 30.6 11.3 30.5C10.5 30.4 9.79998 29.6 9.79998 28.7C9.79998 26.1 9.79998 23.4 9.79998 20.8C9.79998 17.9 9.79998 15.1 9.79998 12.2C9.79998 11.9 9.79998 11.7 9.89998 11.5C10.2 10.8 10.8 10.4 11.6 10.4C13.1 10.4 14.6 10.4 16.1 10.4C16.4 10.4 16.6 10.3 16.7 10.2C16.8 10.1 16.8 9.99999 16.8 9.79999C16.8 9.39999 16.5 9.29999 16.1 9.29999H15C13.8 9.29999 12.7 9.29999 11.5 9.29999C10.9 9.29999 10.3 9.49999 9.79998 9.89999C8.99998 10.5 8.59998 11.3 8.59998 12.4C8.59998 14.3 8.59998 16.3 8.59998 18.2V20.5C8.59998 21.3 8.59998 22.1 8.59998 22.9C8.59998 24.8 8.59998 26.8 8.59998 28.7C8.59998 29.5 8.89998 30.2 9.39998 30.8C9.99998 31.4 10.7 31.7 11.5 31.7C12.3 31.7 13.1 31.7 13.9 31.7C16.1 31.7 18.3 31.7 20.5 31.7C21.5 31.8 22.3 31.8 23.1 31.8Z" fill="white"/>
<path d="M21.5 15.8C22.5 15 23.7 14.8 25.1 15C26 15.2 26.8 15.6 27.5 16.3C27.7 16.5 27.8 16.5 28 16.5C28.1 16.5 28.3 16.4 28.4 16.3C28.6 16.1 28.6 15.7 28.3 15.5C27.2 14.4 25.9 13.8 24.1 13.8C24 13.8 23.9 13.8 23.8 13.8C23.6 13.8 23.3 13.8 23 13.9C21.5 14.2 20.4 15 19.5 16.1C18.4 17.7 18.2 19.4 18.9 21.2C19.5 22.8 20.7 23.8 22.5 24.4C22.6 24.4 22.6 24.4 22.7 24.4C22.8 24.4 22.9 24.4 23 24.3C23.1 24.2 23.2 24.1 23.3 23.9C23.4 23.6 23.2 23.3 22.9 23.2C21.7 22.8 20.8 22.1 20.3 21.1C19.7 20.1 19.6 19.1 19.9 18C20.1 17.2 20.6 16.4 21.5 15.8Z" fill="white"/>
<path d="M18.6 33.9C18.5 33.9 18.3 33.9 18.2 33.9C18 33.9 17.8 33.9 17.6 33.9C17.2 33.9 16.8 33.9 16.4 33.9C16.1 33.9 15.9 33.9 15.6 33.9C15.4 33.9 15.1 33.9 14.9 33.9C14.7 33.9 14.6 34 14.5 34.1C14.4 34.2 14.3 34.4 14.3 34.5C14.3 34.8 14.5 35 14.9 35C15.2 35 15.4 35 15.7 35C16 35 16.2 35 16.5 35H17.4H18C18.5 35 19.1 35 19.6 35C20 35 20.1 34.9 20.2 34.5C20.2 34.3 20.2 34.2 20.1 34.1C20 34 19.9 33.9 19.7 33.9C19.3 33.9 18.9 33.9 18.6 33.9Z" fill="white"/>
<path d="M30.6 21.7C30.1 21.7 29.7 21.9 29.4 22.1C29.1 22.4 28.9 22.8 28.9 23.3C28.9 24.1 29.5 24.9 30.6 25C31 25 31.4 24.8 31.8 24.5C32.1 24.2 32.3 23.7 32.3 23.3C32.3 22.4 31.6 21.7 30.6 21.7ZM31.1 23.7C31 23.8 30.8 23.9 30.7 23.9C30.4 23.9 30.1 23.7 30.1 23.4C30.1 23.2 30.1 23.1 30.3 23C30.4 22.9 30.6 22.8 30.7 22.8C31 22.8 31.3 23.1 31.3 23.4C31.2 23.5 31.2 23.6 31.1 23.7Z" fill="white"/>
</g>
</g>
<defs>
<clipPath id="clip0_712_246">
<rect width="42" height="42" fill="white"/>
</clipPath>
<clipPath id="clip1_712_246">
<rect width="33.4" height="42" fill="white" transform="translate(4)"/>
</clipPath>
</defs>
</svg>
