<svg width="42" height="42" viewBox="0 0 42 42" fill="none" xmlns="http://www.w3.org/2000/svg">
<g clip-path="url(#clip0_712_373)">
<g clip-path="url(#clip1_712_373)">
<path d="M39.4 24.9C39.4 24.5 39.4 24.1 39.4 23.8C39.4 21.2 39.4 18.7 39.4 16.1V14.6C39.4 14.3 39.4 13.8 39.4 13.2C39.4 11.4 39.4 8.60002 39.4 7.70002C39.4 6.20002 38.1 4.90002 36.6 4.90002C36.4 4.90002 36.1 4.90002 35.9 4.90002C35.7 4.90002 35.5 4.90002 35.3 4.90002C35.1 4.90002 34.9 4.90002 34.7 4.90002C33.5 4.90002 32.3 4.90002 31.1 4.90002C29.9 4.90002 28.6 4.90002 27.4 4.90002C25.9 4.90002 24.5 4.90002 23 4.90002C21.2 4.90002 19.4 4.90002 17.6 4.90002C15.6 4.90002 13.6 4.90002 11.5 4.90002H11.4C10.5 4.90002 9.69998 4.90002 8.79998 4.90002C7.99998 4.90002 7.09998 4.90002 6.19998 4.90002C5.89998 4.90002 5.59998 4.90002 5.29998 4.90002C4.69998 4.80002 3.99998 5.10002 3.39998 5.60002C2.89998 6.20002 2.59998 6.90002 2.59998 7.60002C2.59998 9.10002 2.59998 13.7 2.59998 15.3C2.59998 15.6 2.59998 16 2.59998 16.3C2.59998 16.6 2.59998 16.9 2.59998 17.3C2.59998 17.5 2.59998 17.6 2.59998 17.8C2.59998 18 2.59998 18.1 2.59998 18.3C2.59998 19.7 2.59998 21.1 2.59998 22.4C2.59998 24 2.59998 25.6 2.59998 27.3C2.59998 27.8 2.59998 28.3 2.79998 28.7C3.19998 29.7 3.89998 30.2 4.89998 30.4C5.09998 30.4 5.39998 30.5 5.69998 30.5C5.79998 30.5 5.99998 30.5 6.09998 30.5C6.19998 30.5 6.39998 30.5 6.49998 30.5C9.39998 30.5 12.2 30.5 14.6 30.5H17.2H19.8H20.9H21.7C22.2 30.5 22.6 30.5 23.1 30.5C23.5 30.5 24 30.5 24.4 30.5C24.9 30.5 25.5 30.5 26 30.5C26.7 30.5 27.4 30.5 28.1 30.5H28.2C29.5 30.5 30.9 30.5 32.2 30.5C33.5 30.5 34.9 30.5 36.2 30.5C37.3 30.5 38 30.1 38.6 29.3C38.9 28.8 39.1 28.3 39.1 27.7C39.4 26.7 39.4 25.8 39.4 24.9ZM38.4 25.3C38.4 25.8 38.4 26.2 38.4 26.7C38.4 26.8 38.4 26.9 38.4 27.1C38.4 27.4 38.4 27.7 38.4 27.9C38.3 28.2 38.2 28.5 38 28.8C37.8 29.1 37.5 29.3 37.2 29.4C37.1 29.5 36.9 29.5 36.8 29.5C35 29.5 33.2 29.5 31.4 29.5H31.1C30.2 29.5 29.3 29.5 28.4 29.5C27.6 29.5 26.7 29.5 25.8 29.5C25.1 29.5 24.4 29.5 23.8 29.5C22.3 29.5 20.7 29.5 19.2 29.5C18.1 29.5 16.9 29.5 15.8 29.5C15.6 29.5 15.3 29.5 15.1 29.5C14.9 29.5 14.6 29.5 14.4 29.5H14.3C13.5 29.5 12.6 29.5 11.8 29.5C10.5 29.5 9.09998 29.5 7.69998 29.5C7.59998 29.5 7.39998 29.5 7.29998 29.5C7.09998 29.5 6.99998 29.5 6.79998 29.5C6.39998 29.5 5.89998 29.5 5.29998 29.5C4.79998 29.5 4.29998 29.3 3.99998 28.9C3.69998 28.5 3.49998 28 3.49998 27.5C3.49998 27.3 3.49998 27.1 3.49998 26.9C3.49998 26.8 3.49998 26.7 3.49998 26.6C3.49998 25.2 3.49998 23.9 3.49998 22.5C3.49998 21 3.49998 19.5 3.49998 17.9C3.49998 15 3.49998 9.90002 3.49998 7.60002C3.49998 6.50002 4.29998 5.70002 5.39998 5.70002C5.89998 5.70002 6.49998 5.70002 7.19998 5.70002C7.59998 5.70002 8.09998 5.70002 8.49998 5.70002C8.89998 5.70002 9.39998 5.70002 9.79998 5.70002H9.99998C11 5.70002 12 5.70002 12.9 5.70002C13.9 5.70002 15 5.70002 16 5.70002C16.6 5.70002 17.3 5.70002 17.9 5.70002H19.4H20.9C22.5 5.70002 24.2 5.70002 25.8 5.70002H27.6C29 5.70002 30.5 5.70002 31.9 5.70002H33.4C33.7 5.70002 34 5.70002 34.3 5.70002C34.6 5.70002 34.9 5.70002 35.2 5.70002C35.6 5.70002 36 5.70002 36.4 5.70002C36.9 5.70002 37.4 5.90002 37.7 6.20002C38 6.60002 38.2 7.00002 38.2 7.50002C38.2 8.80002 38.2 13 38.2 14.5C38.2 14.8 38.2 15.1 38.2 15.3C38.2 15.6 38.2 15.9 38.2 16.3C38.2 17.2 38.2 18.1 38.2 19C38.2 19.8 38.2 20.7 38.2 21.6C38.4 23 38.4 24.2 38.4 25.3Z" fill="#1B3ECD"/>
<path d="M8.3 15.4C9 15.4 9.3 15.4 9.6 15.4H9.9H10.9H11H11.1H11.4H11.7H12.4H12.7H13C13.8 15.4 14.7 15.4 15.5 15.4C15.7 15.4 16 15.2 16 15.1C16.1 14.9 16 14.7 15.9 14.6C15.8 14.5 15.6 14.4 15.4 14.4C14.8 14.4 14.2 14.4 13.6 14.4C12.9 14.4 12.1 14.4 11.4 14.4H11.3H11H10.8C9.9 14.4 9.8 14.4 8.7 14.4H8.4C8.2 14.4 8.1 14.5 8 14.6C7.9 14.8 7.8 14.9 7.9 15.1C7.9 15.3 8.1 15.4 8.3 15.4Z" fill="#1B3ECD"/>
<path d="M15.4 20.9C14.7 20.9 14 20.9 13.3 20.9H12.1H11H10.9H9.90002H9.60002C9.30002 20.9 9.10002 20.9 8.40002 20.9C8.10002 20.9 7.90002 21.1 7.90002 21.3C7.90002 21.6 8.00002 21.8 8.20002 21.9C8.30002 21.9 8.40002 21.9 8.50002 21.9C9.20002 21.9 9.50002 21.9 9.80002 21.9C10.1 21.9 10.3 21.9 11.1 21.9C11.8 21.9 12.5 21.9 13.2 21.9C13.9 21.9 14.6 21.9 15.3 21.9C15.4 21.9 15.5 21.9 15.6 21.9C15.8 21.8 15.9 21.6 15.9 21.3C15.9 21.1 15.7 20.9 15.4 20.9Z" fill="#1B3ECD"/>
<path d="M15.4 17.7C15.2 17.7 15 17.7 14.7 17.7C14.6 17.7 14.5 17.7 14.3 17.7C14.2 17.7 14.1 17.7 13.9 17.7H12.7H11.9H11.1H11C10.7 17.7 10.6 17.7 10.6 17.7C10.6 17.7 10.5 17.7 10.1 17.7C9.89998 17.7 9.69998 17.8 9.59998 17.9C9.49998 18.1 9.39998 18.2 9.49998 18.4C9.59998 18.6 9.79998 18.7 9.99998 18.7C10.2 18.7 10.3 18.7 10.4 18.7C10.5 18.7 10.6 18.7 10.6 18.7C10.6 18.7 10.7 18.7 11.1 18.7H11.2C11.5 18.7 11.9 18.7 12.2 18.7C12.6 18.7 13 18.7 13.3 18.7C13.7 18.7 14 18.7 14.4 18.7C14.7 18.7 15 18.7 15.3 18.7C15.5 18.7 15.6 18.6 15.7 18.5C15.8 18.4 15.8 18.3 15.8 18.2C16 17.9 15.7 17.7 15.4 17.7Z" fill="#1B3ECD"/>
<path d="M33.2 19.2C33.1 19.2 33 19.1 33 19C33 18.6 33.1 18.3 33.2 17.9C33.2 17.8 33.3 17.7 33.4 17.7C33.8 17.5 34.1 17.1 34.1 16.7C34.1 16.5 34.1 16.4 34.1 16.2C34.1 15.6 33.6 15.1 33 15.1C32.7 15.1 32.4 15.1 32.2 15.1C32.1 15.1 32 15 31.9 15C31 14 30.1 12.9 29.2 11.8C29 11.5 28.8 11.3 28.5 11C28.4 10.8 28.1 10.8 28 10.9C27.8 11 27.7 11.2 27.8 11.4C27.8 11.5 27.9 11.6 28 11.6C28.8 12.6 29.7 13.5 30.5 14.5C30.6 14.7 30.8 14.8 30.9 15C28.5 15 26.2 15 23.9 15C24 14.9 24 14.8 24.1 14.8C25 13.7 25.9 12.7 26.8 11.6C26.9 11.5 26.9 11.4 27 11.3C27.1 11.1 27 10.9 26.8 10.8C26.6 10.7 26.4 10.7 26.2 10.9C25.1 12.2 24 13.5 22.9 14.8C22.8 14.9 22.7 14.9 22.6 15C22.3 15 22 15 21.8 15C21.3 15 21 15.2 20.8 15.7C20.7 16 20.7 16.3 20.7 16.7C20.7 17.2 21 17.5 21.4 17.7C21.5 17.8 21.6 17.8 21.6 18C21.9 19.8 22.3 21.5 22.6 23.3C22.7 23.9 23.3 24.4 23.9 24.4C26.2 24.4 28.6 24.4 30.9 24.4C31.3 24.4 31.6 24.3 31.9 24.1C32 24 32.1 24 32.3 23.9C32.5 23.8 32.8 23.7 33 23.5C34.4 22.5 34.5 20.4 33.2 19.2ZM21.4 16.5C21.4 15.8 21.4 15.8 22.1 15.8C23.9 15.8 25.6 15.8 27.4 15.8C29.2 15.8 31 15.8 32.9 15.8C33.3 15.8 33.4 15.9 33.4 16.3C33.4 16.4 33.4 16.4 33.4 16.5C33.4 16.8 33.3 16.9 33 16.9C29.3 16.9 25.6 16.9 21.9 16.9C21.5 16.9 21.4 16.8 21.4 16.5ZM29.7 23.5C27.8 23.5 25.9 23.5 24 23.5C23.6 23.5 23.4 23.3 23.3 22.9C23 21.5 22.7 20.1 22.5 18.7C22.4 18.4 22.4 18.1 22.3 17.8C25.7 17.8 29 17.8 32.4 17.8C32.4 18.1 32.3 18.4 32.3 18.7C30.9 18.4 29.8 18.8 29.2 20.1C28.6 21.4 29 22.5 30.1 23.5C29.9 23.5 29.8 23.5 29.7 23.5ZM31.5 23.1C30.5 23.1 29.7 22.3 29.7 21.3C29.7 20.3 30.5 19.5 31.5 19.5C32.5 19.5 33.3 20.3 33.3 21.3C33.3 22.3 32.5 23.1 31.5 23.1Z" fill="#1B3ECD"/>
<path d="M27.4 19C27.3 18.9 27.2 18.9 27.1 18.9C26.9 18.9 26.7 19.1 26.7 19.4C26.7 19.7 26.7 19.9 26.7 20.2C26.7 20.3 26.7 20.4 26.7 20.5C26.7 20.6 26.7 20.7 26.7 20.8C26.7 21.1 26.7 21.3 26.7 21.6C26.7 21.8 26.7 21.9 26.8 22C26.9 22.1 27 22.1 27.1 22.1C27.4 22.1 27.5 21.9 27.5 21.6C27.5 20.9 27.5 20.2 27.5 19.4C27.5 19.3 27.4 19.1 27.4 19Z" fill="#1B3ECD"/>
<path d="M25.4 21C25.3 20.4 25.2 19.8 25.1 19.2C25.1 19.1 25 19 24.9 18.9C24.8 18.8 24.7 18.8 24.6 18.9C24.4 19 24.3 19.2 24.3 19.4C24.3 19.6 24.4 19.8 24.4 19.9C24.4 20.1 24.5 20.4 24.5 20.6V20.8C24.5 21.1 24.6 21.4 24.7 21.7C24.7 21.9 24.9 22 25.1 22C25.1 22 25.1 22 25.2 22C25.4 22 25.6 21.8 25.6 21.5C25.5 21.4 25.4 21.2 25.4 21Z" fill="#1B3ECD"/>
<path d="M32.3 20.5C32.1 20.4 31.8 20.4 31.7 20.7C31.6 20.8 31.5 20.9 31.5 21.1L31.4 21.2C31.4 21.2 31.3 21.2 31.3 21.1C31.1 20.9 30.9 21 30.7 21.1C30.5 21.3 30.6 21.5 30.8 21.7C30.9 21.8 31.1 21.9 31.2 22C31.3 22.1 31.4 22.1 31.5 22.1C31.5 22.1 31.5 22.1 31.6 22.1C31.7 22.1 31.8 22 31.9 21.9C32.1 21.7 32.2 21.4 32.4 21.1C32.5 20.9 32.5 20.6 32.3 20.5Z" fill="#1B3ECD"/>
<path d="M42 32V30.6C42 29.8 42 29 42 28.3C42 27.3 42 19 42 18C42 16.9 42 15.4 42 13.8C42 10.6 42 7 42 4.8C42 4.2 41.8 3.6 41.4 3.1C40.8 2.4 40.1 2 39.3 2H39.2C39.1 2 39 2 38.9 2C38.7 2 38.5 2 38.3 2C38.1 2 37.9 2 37.8 2C37.6 2 37.5 2 37.3 2C37.1 2 37 2 36.8 2C36.6 2 36.5 2 36.3 2H30.6H25.3C25.1 2 24.9 2 24.7 2C24.5 2 24.2 2 24 2C23.7 2 23.4 2 23.1 2C22.1 2 21.1 2 20.1 2C18.3 2 16.5 2 14.7 2C14.4 2 14.1 2 13.8 2C13.5 2 13.2 2 12.9 2H12.7C11.3 2 9.8 2 8.4 2C6.3 2 4.5 2 2.9 2C2.6 2 2.2 2.1 1.9 2.2C1.3 2.4 0.8 2.8 0.5 3.2C0.2 3.7 0 4.2 0 4.9C0 7.5 0 11.6 0 15.2V26.8C0 27.8 0 28.8 0 29.8C0 32.2 0 34.8 0 37.2C0 37.8 0.2 38.4 0.6 38.9C1 39.4 1.6 39.7 2.2 39.8C2.6 40 3.1 40 3.4 40C3.5 40 3.5 40 3.6 40C3.7 40 3.7 40 3.8 40C4.8 40 5.8 40 7 40C8.2 40 9.4 40 10.6 40C11.5 40 12.5 40 13.4 40C14.3 40 15.3 40 16.2 40H18.5H20.8H21H22.2H23.6C24.1 40 24.7 40 25.2 40C27.7 40 30.1 40 32.6 40H35.4C35.5 40 35.7 40 35.8 40C36 40 36.3 40 36.5 40C36.7 40 37 40 37.2 40C37.7 40 38.4 40 39.1 40C39.9 40 40.6 39.7 41.1 39.2C41.6 38.7 41.9 38 41.9 37.2C42 35.5 42 33.7 42 32ZM41 16.6C41 17.4 41 18.2 41 18.8V28.6C41 29.8 41 31 41 32.1V33C41 34.4 41 35.8 41 37.2C41 37.7 40.8 38.1 40.4 38.5C40 38.8 39.6 39 39.1 39C38.7 39 38.2 39 37.8 39C37.1 39 36.4 39 35.7 39H35.6C34.4 39 33.2 39 32 39C30.9 39 29.8 39 28.8 39C27.8 39 26.8 39 25.7 39H23.3H21.1H21C20 39 19 39 18 39C17 39 16 39 15 39C13.7 39 12.3 39 11 39C7.8 39 5.3 39 3 39C2.2 39 1.7 38.7 1.3 38C1.1 37.7 1.1 37.4 1.1 37C1.1 36.8 1.1 36.6 1.1 36.4C1.1 36.3 1.1 36.2 1.1 36.1C1.1 30.6 1.1 14.8 1.1 9.2C1.1 7.7 1.1 6.2 1.1 4.7C1 3.8 1.8 3 2.9 3C7.7 3 12.5 3 17.2 3H18.7H18.8C19.7 3 20.5 3 21.4 3C22.3 3 23.1 3 24 3H24.1H26.9C30.9 3 35 3 39.1 3C40 3 40.6 3.4 40.9 4.1C40.9 4.3 41 4.6 41 4.9C41 7.8 41 12.9 41 16.6Z" fill="#1B3ECD"/>
<path d="M22.1 34H19.8C19.5 34 19.3 34.2 19.3 34.5C19.3 34.8 19.5 35 19.8 35H22.1C22.4 35 22.6 34.8 22.6 34.5C22.6 34.2 22.4 34 22.1 34Z" fill="#1B3ECD"/>
</g>
</g>
<defs>
<clipPath id="clip0_712_373">
<rect width="42" height="42" fill="white"/>
</clipPath>
<clipPath id="clip1_712_373">
<rect width="42" height="38" fill="white" transform="translate(0 2)"/>
</clipPath>
</defs>
</svg>
