<svg width="42" height="42" viewBox="0 0 42 42" fill="none" xmlns="http://www.w3.org/2000/svg">
<g clip-path="url(#clip0_712_223)">
<path d="M42 16.3C42 14.1 42 11.7 42 9.39998C42 7.29998 40.8 6.09998 38.7 6.09998C38.1 6.09998 37.6 6.09998 37.2 6.09998C37.2 6.09998 37.2 6.09998 37.1 6.09998H34.8C34.6 6.09998 34.4 6.09998 34.3 6.09998C34.2 6.09998 34.2 6.09998 34.1 6.09998V7.39998H34.4H34.7H34.9H35.1H35.2C35.9 7.39998 36.6 7.39998 38.6 7.39998C40.2 7.39998 40.7 7.89998 40.7 9.39998C40.7 16.9 40.7 24.2 40.7 31.2C40.7 32.5 40.1 33.1 38.8 33.1C32.1 33.1 28.5 33.1 21.7 33.1C14.6 33.1 10.6 33.1 3.5 33.1C2 33.1 1.5 32.6 1.5 31.1C1.5 23.9 1.5 16.5 1.5 9.29998C1.5 7.79998 2.1 7.29998 3.6 7.29998C5.4 7.29998 4 7.29998 5.8 7.29998H7H8.2C10.3 7.29998 12.3 7.29998 14.4 7.29998C14.6 7.29998 14.8 7.29998 15.1 7.29998C15.2 7.29998 15.2 7.29998 15.3 7.29998V6.19998C15.2 6.19998 15.2 6.19998 15.1 6.19998C14.9 6.19998 14.8 6.19998 14.7 6.19998H14.1C12.8 6.19998 11.5 6.19998 10.3 6.19998C9 6.19998 7.7 6.19998 6.5 6.19998C4 6.19998 5.2 6.19998 3.4 6.19998C2.5 6.19998 1.7 6.49998 1.1 7.09998C0.3 7.69998 0 8.49998 0 9.39998C0 14.5 0 19.8 0 24.8C0 27 0 29.2 0 31.5C0 33.5 1.1 34.6 3.2 34.6C5.4 34.6 4.5 34.6 6.8 34.6H11H15.2H15.4H15.7H16.4H16.5V34.7V37.7V37.8H16.4H16H15.7H15.3C15 37.8 14.7 37.8 14.4 37.8C14.1 37.8 13.8 37.8 13.5 37.8C12.9 37.8 12.4 37.8 11.9 37.9C11.7 37.9 11.6 38.1 11.4 38.3C11.3 38.4 11.3 38.5 11.2 38.5C11.3 38.6 11.3 38.6 11.4 38.7C11.6 38.9 11.8 39.1 12 39.2C12 39.2 12.1 39.2 12.2 39.2C12.3 39.2 12.3 39.2 12.4 39.2C12.5 39.2 12.5 39.2 12.6 39.2H22.6H29.5H29.6H29.7C29.8 39.2 29.9 39.2 30 39.2C30.3 39.2 30.6 39.1 30.7 38.9C30.8 38.8 30.8 38.6 30.8 38.5C30.7 38.2 30.3 37.9 30 37.9C29.8 37.9 29.6 37.8 29.4 37.8C29.2 37.8 29.1 37.8 28.9 37.8C28.7 37.8 28.6 37.8 28.4 37.8H27.3H26.5H25.7H25.6V37.7V34.7V34.6H25.7H26H26.3H26.7C28.1 34.6 29.6 34.6 31 34.6C32.5 34.6 34 34.6 35.5 34.6C38 34.6 36.9 34.6 38.8 34.6C38.8 34.6 38.8 34.6 38.9 34.6C39.8 34.6 40.6 34.3 41.2 33.7C41.8 33.1 42.1 32.3 42.1 31.4C42 26.4 42 21.3 42 16.3ZM24.1 34.8V37.7V37.8H24H18H17.9V37.7V34.8V34.7H18L24.1 34.8Z" fill="white"/>
<path d="M12.3 15.1C12.1 15.1 11.8 15.1 11.6 15.1C11.4 15.1 11.1 15.1 10.9 15.1C10.4 15.1 10.1 15 9.79998 14.8C9.39998 14.5 9.29998 13.9 9.09998 13.3C9.09998 13.1 8.99997 12.9 8.89997 12.6C8.89997 12.6 8.89997 12.6 8.89997 12.5C8.79997 12.5 8.79998 12.4 8.69998 12.3C8.59998 12.3 8.49998 12.2 8.29998 12.2C7.79998 12.2 7.29998 12.2 6.59998 12.2C6.09998 12.2 5.69998 12.2 5.19998 12.2L4.99998 12.1C4.69998 12.1 4.39998 12.2 4.29998 12.3C4.19998 12.5 4.19998 12.6 4.29998 12.8C4.39998 13 4.69998 13.4 5.09998 13.4C5.39998 13.5 5.59998 13.5 5.89998 13.5C6.19998 13.5 6.49998 13.5 6.79998 13.4C6.89998 13.4 6.99998 13.4 6.99998 13.4C7.69998 13.4 7.89998 13.8 8.09998 14.4C8.79998 16.6 9.39998 18.9 10.1 21.1C10.6 22.8 11.2 24.6 11.7 26.4C11.9 26.9 12.1 27.1 12.6 27.1C14 27.1 15.6 27.1 17.5 27.1C18.6 27.1 19.7 27.1 20.8 27.1C21.4 27.1 22 27.1 22.6 27.1C23.2 27.1 23.6 27.1 23.7 26.4C23.7 26.2 23.7 26 23.6 25.9C23.4 25.7 23.1 25.7 22.8 25.7H22.7H22.6C21.3 25.7 20 25.7 18.7 25.7H16.2H14.1C12.7 25.7 12.7 25.7 12.5 24.1V24H12.6H12.9H13.2H13.5H15.6C16.5 24 17.3 24 18.2 24C19 24 19.9 24 20.7 24C22.2 24 22.7 23.6 23.2 22.3C23.7 21.1 24.1 19.9 24.5 18.8L24.7 18.3C25.1 17.3 25 16.5 24.6 15.9C24.2 15.3 23.4 15 22.3 15C21.8 15 21.2 15 20.7 15H18.6H16.5C14.8 15.1 13.5 15.1 12.3 15.1ZM15.5 16.5H21.1C21.2 16.5 21.4 16.5 21.5 16.5C21.6 16.5 21.8 16.5 21.9 16.5C22.1 16.5 22.3 16.5 22.5 16.5C23 16.5 23.2 16.6 23.4 16.8C23.5 17 23.5 17.3 23.4 17.6C23.1 18.5 22.7 19.5 22.4 20.4C22.2 20.9 22 21.5 21.8 22C21.6 22.5 21.3 22.7 20.8 22.7C19.6 22.7 18.4 22.7 17.2 22.7C15.7 22.7 14.2 22.7 12.7 22.7C12.5 22.7 12.1 22.5 12 22.3C11.5 20.8 11.1 19.4 10.6 17.9C10.5 17.5 10.4 17.1 10.2 16.7V16.6H10.3H13H15.5V16.5Z" fill="white"/>
<path d="M14 27.6C13.2 27.6 12.6 28.2 12.6 29C12.6 29.4 12.7 29.8 13 30.1C13.3 30.4 13.6 30.5 14 30.5C14.7 30.5 15.4 29.8 15.4 29.1C15.4 28.7 15.3 28.4 15 28.1C14.8 27.8 14.4 27.7 14 27.6Z" fill="white"/>
<path d="M20.9 27.7C20.1 27.7 19.5 28.3 19.5 29C19.5 29.4 19.6 29.8 19.9 30.1C20.2 30.4 20.5 30.5 20.9 30.5C21.3 30.5 21.6 30.3 21.9 30.1C22.2 29.8 22.3 29.4 22.3 29.1C22.3 28.3 21.7 27.7 20.9 27.7Z" fill="white"/>
<path d="M22.6 12.9C22.9 12.9 23 12.7 23.2 12.5C24.1 10.4 25 8.19999 25.9 6.09999L26.6 4.59999C26.7 4.39999 26.8 4.09999 26.9 3.89999C27 3.69999 27 3.49999 26.9 3.39999C26.8 3.19999 26.7 3.09999 26.5 3.09999C26.2 2.99999 25.9 3.19999 25.8 3.49999L22.6 10.9L22.4 11.3C22.2 11.5 22.1 11.8 22 12C21.9 12.2 21.9 12.4 22 12.6C22.2 12.8 22.4 12.9 22.6 12.9Z" fill="white"/>
<path d="M18.8 9.89996C19.4 10.4 19.9 10.9 20.5 11.4C20.6 11.5 20.7 11.5 20.9 11.6H21C21.2 11.6 21.5 11.5 21.5 11.2C21.6 10.9 21.5 10.7 21.3 10.5C20.9 10.1 20.4 9.69996 20 9.39996L18.4 7.99996L20.8 5.89996C21 5.69996 21.2 5.59996 21.4 5.39996C21.6 5.19996 21.6 4.99996 21.6 4.79996C21.5 4.59996 21.4 4.39996 21.1 4.39996C21 4.39996 20.8 4.39996 20.5 4.59996C19.8 5.19996 19 5.89996 18.3 6.49996L17 7.59996C16.9 7.69996 16.8 7.89996 16.8 8.09996C16.8 8.29996 16.9 8.39996 17 8.59996L18.8 9.89996Z" fill="white"/>
<path d="M29.2 6.79997L30.5 7.89997L28 10.1C27.8 10.2 27.7 10.4 27.5 10.5C27.3 10.7 27.3 10.9 27.3 11.1C27.4 11.3 27.5 11.5 27.8 11.5H27.9C28 11.5 28.2 11.5 28.3 11.3C29.3 10.5 30.2 9.59997 31.2 8.79997L31.7 8.29997C31.9 8.29997 32 8.09997 32 7.89997C32 7.79997 32 7.59997 31.8 7.39997L28.9 4.99997C28.7 4.79997 28.5 4.59997 28.3 4.39997C28.1 4.29997 27.9 4.19997 27.7 4.29997C27.5 4.39997 27.3 4.49997 27.3 4.79997C27.3 4.99997 27.3 5.19997 27.5 5.39997C28.1 5.89997 28.6 6.39997 29.2 6.79997Z" fill="white"/>
</g>
<defs>
<clipPath id="clip0_712_223">
<rect width="42" height="36.2" fill="white" transform="translate(0 3)"/>
</clipPath>
</defs>
</svg>
