<?xml version="1.0" encoding="utf-8"?>
<!-- Generator: Adobe Illustrator 19.0.0, SVG Export Plug-In . SVG Version: 6.00 Build 0)  -->
<svg version="1.1" id="Layer_1" xmlns="http://www.w3.org/2000/svg" xmlns:xlink="http://www.w3.org/1999/xlink" x="0px" y="0px"
	 viewBox="0 0 42 42" style="enable-background:new 0 0 42 42;" xml:space="preserve">
<style type="text/css">
	.st0{fill:#1B3ECD;}
</style>
<g id="XMLID_895_">
	<path id="XMLID_942_" class="st0" d="M39.8,10.5c-1,0-2,0-2.9,0l-4.6,0l0-0.1c-0.1-1.3-0.1-1.3-1.4-1.3h-0.7L28.8,6l0,0
		c0.1-0.1,0.2-0.1,0.3-0.2c0.2-0.2,0.4-0.4,0.7-0.6C30,5,30,4.8,30,4.6c0-0.2-0.1-0.4-0.3-0.5c-0.5-0.6-1.1-1.1-1.7-1.7
		c-0.2-0.2-0.3-0.3-0.5-0.3c-0.2,0-0.4,0.1-0.5,0.3c-0.2,0.2-0.4,0.5-0.6,0.7c-0.1,0.1-0.1,0.2-0.2,0.2l0,0L23,2.1c0,0,0-0.3,0-0.4
		c0-0.3,0-0.6,0-0.9c0-0.3-0.1-0.5-0.2-0.6C22.7,0.1,22.5,0,22.2,0c-0.4,0-0.7,0-1.1,0c-0.4,0-0.8,0-1.2,0c-0.3,0-0.4,0.1-0.6,0.2
		c-0.1,0.1-0.2,0.3-0.2,0.6c0,0.3,0,0.6,0,0.9c0,0.1,0,0.4,0,0.4L16,3.4c0,0-0.2-0.2-0.3-0.3c-0.2-0.2-0.4-0.4-0.6-0.7
		c-0.2-0.2-0.3-0.3-0.5-0.3c-0.2,0-0.3,0.1-0.5,0.3c-0.2,0.2-0.4,0.4-0.6,0.6c-0.3,0.3-0.7,0.7-1,1c-0.2,0.2-0.3,0.4-0.3,0.6
		c0,0.2,0.1,0.4,0.3,0.6c0.2,0.2,0.5,0.4,0.7,0.6c0.1,0.1,0.1,0.1,0.2,0.2l0,0l-1.3,3.3h-0.9c-1.1,0-1.2,0-1.2,1.3l0,0.1l-4.6,0
		c-1,0-1.9,0-2.9,0c-0.9,0-1,0.1-1,1c0,7.6,0,15.2,0,22.8c0,0.9,0.2,1,1,1c2.1,0,4.1,0,6.2,0l8.5,0v2.1h-0.1c-0.2,0-0.5,0-0.7,0
		c-0.2,0-0.5,0-0.7,0c-0.4,0-0.7,0-0.9,0c0,0,0,0,0,0c-0.4,0-0.7,0.2-0.8,0.6c-0.2,0.5-0.4,1.1-0.6,1.6c-0.2,0.4-0.4,0.9-0.5,1.3
		c-0.1,0.3-0.1,0.6,0,0.8c0.1,0.2,0.3,0.3,0.7,0.3c2.5,0,5,0,7.5,0c2.6,0,5.2,0,7.8,0c0.3,0,0.6-0.1,0.7-0.2c0.1-0.2,0.1-0.4,0-0.8
		c-0.2-0.4-0.4-0.9-0.5-1.3c-0.2-0.5-0.4-1-0.6-1.5c-0.2-0.4-0.4-0.6-0.9-0.6c0,0,0,0-0.1,0c-0.3,0-0.6,0-0.9,0c-0.2,0-0.5,0-0.7,0
		c-0.2,0-0.5,0-0.7,0H25v-2.1l8,0c2.2,0,4.5,0,6.7,0c0.8,0,1-0.2,1-0.9c0-7.7,0-15.3,0-23C40.7,10.7,40.6,10.5,39.8,10.5z
		 M11.2,10.4l0.8,0c0.2,0,0.3,0,0.5,0c0.5,0,0.6-0.2,0.8-0.7c0.3-1,0.7-2,1.2-3c0.3-0.6,0.4-1-0.2-1.4c-0.2-0.1-0.3-0.3-0.5-0.4
		c-0.1-0.1-0.2-0.1-0.2-0.2l-0.1,0l1-0.9l0.2-0.2l0.1,0.1c0.1,0.1,0.1,0.2,0.2,0.3c0.2,0.2,0.3,0.4,0.5,0.6c0.2,0.2,0.4,0.3,0.5,0.3
		c0.1,0,0.3-0.1,0.5-0.2c1-0.7,2.1-1.2,3.3-1.3c0.4-0.1,0.6-0.3,0.6-0.7c0-0.3,0-0.6,0-0.9l0-0.5h1.4l0,0.4c0,0.3,0,0.6,0,0.8
		c0,0.5,0.2,0.7,0.7,0.8c1.1,0.4,2.1,0.7,3,1.2c0.3,0.2,0.5,0.2,0.7,0.2c0.2,0,0.5-0.1,0.7-0.4C27,4.2,27.1,4,27.3,3.8
		c0.1-0.1,0.2-0.2,0.2-0.3l0.1-0.1l1,1.3l-0.1,0c-0.1,0-0.1,0.1-0.2,0.2c-0.2,0.1-0.4,0.3-0.6,0.5c-0.3,0.3-0.4,0.6-0.1,1
		c0.7,1,1.1,2.1,1.3,3.3c0.1,0.4,0.3,0.6,0.7,0.6c0.2,0,0.3,0,0.5,0l0.8,0v1.4l-0.8,0c-0.2,0-0.3,0-0.5,0c-0.4,0-0.6,0.2-0.8,0.7
		c-0.3,0.9-0.7,2-1.2,3c-0.3,0.6-0.4,1,0.2,1.4c0.2,0.1,0.3,0.3,0.5,0.4l0.3,0.3l-1.3,1.2l0-0.1c-0.1-0.1-0.1-0.2-0.2-0.2
		c-0.2-0.2-0.3-0.4-0.5-0.6c-0.2-0.2-0.3-0.3-0.5-0.3c-0.1,0-0.3,0.1-0.6,0.2c-1,0.5-2.1,0.9-3.1,1.3c-0.5,0.2-0.7,0.4-0.7,0.8
		c0,0.3,0,0.5,0,0.8l0,0.5h-1.4l0-1.3c0-0.5-0.2-0.6-0.7-0.8c-0.8-0.3-1.9-0.7-3-1.2c-0.3-0.2-0.5-0.2-0.7-0.2
		c-0.2,0-0.4,0.1-0.6,0.4l-0.7,0.9l-1.1-1.1l0,0c0.1-0.1,0.2-0.2,0.3-0.3c0.2-0.2,0.4-0.4,0.6-0.6c0.4-0.3,0.3-0.7,0.1-1.1
		c-0.4-0.9-0.8-1.9-1.3-3.1c-0.2-0.5-0.4-0.6-0.8-0.6l-1.3,0V10.4z M2.7,11.7h7.2l0,0.1c0.1,1.1,0.1,1.1,2.1,1.3l0,0l1.3,3.2l0,0
		c-0.1,0.1-0.1,0.1-0.2,0.2c-0.2,0.2-0.5,0.4-0.7,0.6c-0.2,0.2-0.3,0.3-0.3,0.5c0,0.2,0.1,0.4,0.3,0.5c0.2,0.2,0.4,0.4,0.5,0.5
		c0.4,0.4,0.7,0.8,1.1,1.1c0.2,0.2,0.3,0.2,0.5,0.2c0.2,0,0.3-0.1,0.5-0.3c0.2-0.2,0.4-0.5,0.6-0.7c0.1-0.1,0.2-0.2,0.2-0.2l0,0
		l3.2,1.3c0,0,0,0.3,0,0.4c0,0.3,0,0.6,0,1c0,0.5,0.2,0.7,0.7,0.7l0,0c0.4,0,0.8,0,1.2,0c0.4,0,0.8,0,1.2,0c0.4,0,0.7-0.2,0.7-0.7
		c0-0.3,0-0.7,0-1c0-0.1,0-0.2,0-0.4v0l3.3-1.4l0,0c0.1,0.1,0.1,0.1,0.2,0.2c0.2,0.2,0.4,0.5,0.6,0.7c0.2,0.2,0.3,0.3,0.5,0.3
		c0.2,0,0.4-0.1,0.5-0.3c0.3-0.3,0.6-0.6,0.8-0.8c0.3-0.3,0.5-0.5,0.8-0.8C30,18,30,17.8,30,17.6c0-0.2-0.1-0.3-0.3-0.5
		c-0.2-0.2-0.5-0.4-0.7-0.6c-0.1-0.1-0.2-0.1-0.2-0.2l0,0l1.3-3.2H31c1.2,0,1.2,0,1.3-1.2l0-0.1h7.3v19.7H2.7V11.7z M26.9,38.6
		c0.2,0,0.4,0.1,0.5,0.3c0.2,0.4,0.3,0.8,0.5,1.2c0.1,0.2,0.1,0.3,0.2,0.5l0,0.1h-14l0-0.1c0.1-0.2,0.1-0.3,0.2-0.5
		c0.2-0.4,0.3-0.8,0.5-1.2c0.1-0.2,0.3-0.3,0.5-0.3c1.9,0,3.8,0,5.7,0S24.9,38.6,26.9,38.6z M18.5,37.4v-2h5.3v2H18.5z M39.5,34.1
		H2.7v-1.4h36.9V34.1z"/>
	<path id="XMLID_1038_" class="st0" d="M23.6,23.7c0,0-0.1,0-0.1,0c-0.2,0-0.5,0.1-0.7,0.3c-0.3,0.3-0.6,0.6-0.9,1
		c-0.1,0.2-0.3,0.3-0.4,0.5l0,0.1l0-0.1c-0.2-0.2-0.3-0.4-0.5-0.5c-0.4-0.4-0.7-0.8-1-1.1c-0.1-0.1-0.3-0.2-0.5-0.2
		c-0.1,0-0.1,0-0.2,0c-0.2,0.1-0.4,0.4-0.4,0.5c0,2.1,0,3.7,0,5.2c0,0.2,0.3,0.6,0.6,0.6c0,0,0.1,0,0.1,0c0.3,0,0.5-0.3,0.5-0.6
		c0-0.2,0-0.4,0-0.6l0-3.1l0.1,0.1c0.6,0.5,0.9,0.8,1.2,0.8c0.3,0,0.7-0.2,1.3-0.7l0.1-0.1c0,0,0,0.8,0,1.1c0,0.8,0,1.6,0,2.3
		c0,0.3,0.1,0.5,0.2,0.7c0.1,0.1,0.2,0.1,0.4,0.1h0c0.4,0,0.6-0.3,0.6-0.8c0-0.4,0-0.9,0-1.3c0-1.1,0-2.3,0-3.4
		C24,24.2,23.8,23.8,23.6,23.7z"/>
	<path id="XMLID_1039_" class="st0" d="M27.4,26.3c-0.4-0.1-0.8-0.2-0.8-0.8c0-0.4,0.3-0.7,0.9-0.7l0,0c0.1,0,0.2,0,0.3,0
		c0.1,0,0.2,0,0.3,0c0.2,0,0.3,0,0.5,0c0.2,0,0.5-0.3,0.5-0.5c0-0.2-0.1-0.5-0.3-0.6c-0.2-0.1-0.5-0.2-0.8-0.2
		c-0.8,0-1.8,0.3-2.2,0.7c-0.5,0.5-0.6,1.2-0.4,1.9c0.3,0.7,0.8,1.2,1.6,1.2c0.4,0,0.9,0.2,0.9,0.8c0,0.6-0.5,0.7-0.9,0.7l-0.1,0
		c-0.2,0-0.3,0-0.5,0c-0.2,0-0.3,0-0.5,0c-0.4,0-0.6,0.2-0.6,0.6c0,0.4,0.2,0.6,0.6,0.6c0.1,0,0.2,0,0.3,0c0.1,0,0.1,0,0.2,0
		c0.1,0,0.2,0,0.2,0h0.1l0,0.1c0.1,0,0.3,0,0.4-0.1c0.3,0,0.6-0.1,0.9-0.2c0.7-0.3,1.2-1.1,1.1-2C29.1,27,28.4,26.4,27.4,26.3z"/>
	<path id="XMLID_1040_" class="st0" d="M16.8,28.9c0,0-0.1,0-0.2,0c-0.1,0-0.1,0-0.2,0c-0.1,0-0.1,0-0.2,0c0,0,0,0-0.1,0
		c-1.2-0.1-2-0.9-2-2.1c0-1.1,0.8-1.9,2-2c0,0,0,0,0.1,0c0.1,0,0.1,0,0.2,0c0.1,0,0.1,0,0.2,0c0.1,0,0.2,0,0.3,0
		c0.2-0.1,0.5-0.4,0.5-0.6c0-0.2-0.3-0.4-0.5-0.6c0,0-0.1,0-0.2,0c-0.1,0-0.1,0-0.2,0c-0.1,0-0.1,0-0.2,0c-1,0-1.9,0.4-2.5,1
		c-0.6,0.6-0.9,1.5-0.8,2.5c0.1,1.7,1.6,3,3.4,3c0,0,0,0,0,0c0.1,0,0.3,0,0.4,0c0.3,0,0.5-0.1,0.5-0.2c0.1-0.1,0.1-0.2,0.1-0.3
		C17.3,29.3,17.1,29.1,16.8,28.9z"/>
	<path id="XMLID_1056_" class="st0" d="M21.1,16.9C21.1,16.9,21.1,16.9,21.1,16.9c3.2,0,5.8-2.6,5.9-5.8c0-3.2-2.6-5.9-5.8-5.9
		l-0.1,0c-3.2,0-5.8,2.6-5.9,5.8c0,1.6,0.6,3,1.7,4.2C18.1,16.3,19.5,16.9,21.1,16.9z M21.1,6.4L21.1,6.4c2.6,0,4.7,2.1,4.7,4.7
		c0,2.6-2.1,4.6-4.7,4.6h0c-1.2,0-2.4-0.5-3.3-1.4c-0.9-0.9-1.4-2.1-1.4-3.3C16.5,8.5,18.5,6.4,21.1,6.4z"/>
</g>
</svg>
