<?xml version="1.0" encoding="utf-8"?>
<!-- Generator: Adobe Illustrator 19.0.0, SVG Export Plug-In . SVG Version: 6.00 Build 0)  -->
<svg version="1.1" id="Layer_1" xmlns="http://www.w3.org/2000/svg" xmlns:xlink="http://www.w3.org/1999/xlink" x="0px" y="0px"
	 viewBox="0 0 42 42" style="enable-background:new 0 0 42 42;" xml:space="preserve">
<style type="text/css">
	.st0{fill:#FFFFFF;}
</style>
<g id="XMLID_522_">
	<path id="XMLID_618_" class="st0" d="M40,6.2c-1.9,0-3.9,0-5.8,0h-2.9v1.1l3,0c1.9,0,3.7,0,5.6,0c0.8,0,1,0.2,1,1l0,21.3H1.2
		l0-21.1c0-1,0.2-1.2,1.2-1.2H15V6.2l-12.9,0c-1.3,0-2.1,0.7-2.1,2.1l0,23.4c0,1.4,0.7,2.1,2.1,2.1l12.8,0v3.9h-2.3v1h16.8v-1.1
		h-2.3v-3.8H31c3,0,6,0,9,0c1.3,0,2-0.7,2-2c0-7.8,0-15.6,0-23.5C42,6.9,41.3,6.2,40,6.2z M16.1,37.5v-3.8H26v3.8H16.1z M40.9,32
		c0,0.4-0.3,0.6-0.7,0.6c-0.1,0-0.2,0-0.3,0c0,0-0.1,0-0.1,0l-37.5,0c-0.8,0-1.1-0.2-1.1-1.1l0-0.6l0-0.3h39.7c0,0.1,0,0.2,0,0.3
		C40.9,31.4,40.9,31.7,40.9,32z"/>
	<path id="XMLID_622_" class="st0" d="M16.3,10.3c-0.1,0.2-0.2,0.3-0.4,0.4c-0.3,0-0.6,0.1-0.9,0.2c-0.1,0-0.3,0.1-0.4,0.1l-0.1,0
		v1.8c0,1.2,0,1.3,1.2,1.5c0.4,0.1,0.5,0.2,0.7,0.6c0.5,0.9,0.4,1.6-0.3,2.3c-0.1,0.1-0.1,0.4,0,0.6c0.4,0.5,0.9,1,1.3,1.5
		c0.1,0.2,0.3,0.3,0.4,0.5l0,0l0,0c0.2-0.1,0.3-0.2,0.4-0.3c0.3-0.2,0.5-0.3,0.7-0.5c0.2-0.2,0.4-0.2,0.7-0.1
		c1.1,0.3,1.6,0.9,1.6,1.9c0,0.1,0,0.1,0.1,0.2c0.1,0.1,0.2,0.2,0.3,0.2c0.3,0,0.7,0,1,0c0.5,0,1,0,1.4,0c0.2,0,0.3-0.2,0.4-0.3
		c0.1-0.2,0.1-0.4,0.1-0.5c0-0.7,0.3-1.1,0.9-1.2c0.1,0,0.3-0.1,0.4-0.2c0.1-0.1,0.2-0.1,0.3-0.1c0.2,0,0.4,0,0.5,0
		c0.3,0.2,0.6,0.4,0.8,0.5c0.1,0.1,0.2,0.1,0.3,0.2l0,0l2.1-2.1l0,0l0,0c-0.1-0.1-0.1-0.2-0.2-0.3c-0.1-0.2-0.3-0.4-0.4-0.6
		c-0.3-0.4-0.3-0.6-0.1-1.2c0.3-0.9,0.8-1.3,1.7-1.4c0.2,0,0.3,0,0.3-0.1c0.1-0.1,0.1-0.2,0.1-0.4c0-0.6,0-1.3,0-2.1
		c0-0.2,0-0.4-0.1-0.5c-0.1-0.1-0.2-0.1-0.4-0.1c0,0,0,0,0,0c-0.9,0-1.4-0.4-1.6-1.3c0-0.1-0.1-0.1-0.1-0.2c0-0.1-0.1-0.1-0.1-0.1
		c0-0.2,0-0.4,0-0.5c0.2-0.3,0.4-0.6,0.5-0.8c0.1-0.1,0.1-0.2,0.2-0.3l0,0L28.7,6L28,5.3l0,0c-0.1,0.1-0.2,0.2-0.3,0.2
		c-0.3,0.2-0.5,0.3-0.7,0.5c-0.2,0.2-0.4,0.1-0.7,0.1c-1.1-0.3-1.6-0.9-1.6-1.9c0-0.1-0.3-0.3-0.4-0.3c-0.8,0-1.6,0-2.3,0
		c-0.2,0-0.4,0.2-0.4,0.3c-0.1,0.2-0.1,0.4-0.1,0.5c0,0.2-0.1,0.4-0.1,0.5c0,0.2-0.2,0.3-0.3,0.4c-0.3,0.2-0.7,0.3-1.1,0.5
		c-0.2,0.1-0.4,0-0.5,0C19,6,18.7,5.8,18.4,5.6c-0.1-0.1-0.2-0.1-0.3-0.2l0,0l-2.2,2.1l0,0c0.1,0.1,0.1,0.2,0.2,0.3
		c0.2,0.2,0.3,0.5,0.5,0.7c0.2,0.2,0.2,0.4,0.1,0.7C16.5,9.6,16.4,10,16.3,10.3z M18,8.6c-0.1-0.3-0.3-0.5-0.5-0.7
		c-0.1-0.1-0.1-0.2-0.2-0.3l0.9-0.8c0.1,0.1,0.2,0.1,0.2,0.2c0.2,0.2,0.5,0.3,0.8,0.5c0.2,0.1,0.4,0.1,0.6,0
		c0.3-0.1,0.6-0.2,0.9-0.4c0.4-0.2,0.7-0.3,1.1-0.5c0.3-0.1,0.4-0.2,0.4-0.5c0-0.3,0.1-0.5,0.1-0.8c0-0.1,0-0.2,0.1-0.3h1.2
		c0,0.1,0,0.2,0.1,0.3c0.1,0.3,0.1,0.6,0.2,0.9c0,0.2,0.2,0.3,0.4,0.4c0.7,0.3,1.4,0.6,2.1,0.9c0.2,0.1,0.4,0.1,0.6,0
		c0.3-0.1,0.5-0.3,0.7-0.5c0.1-0.1,0.2-0.1,0.3-0.2l0.8,1c0,0.1-0.1,0.1-0.1,0.2c-0.1,0.2-0.3,0.5-0.5,0.7c-0.2,0.2-0.2,0.4,0,0.6
		c0.3,0.7,0.6,1.3,0.8,2c0.1,0.3,0.2,0.4,0.5,0.4c0.3,0,0.5,0.1,0.8,0.1l0.4,0.1c0,0.1,0,0.2,0,0.3c0,0.3,0,0.5,0,0.8
		c0,0.1-0.2,0.2-0.2,0.2c-1,0-1.5,0.4-1.6,1.4c-0.1,0.3-0.2,0.7-0.4,1C28.1,15.6,28,15.8,28,16l0,0l0.8,1.2l-0.9,0.8
		c-0.1,0-0.1-0.1-0.2-0.1c-0.2-0.1-0.5-0.3-0.7-0.5c-0.2-0.2-0.4-0.2-0.7,0c-0.4,0.2-0.7,0.3-1.1,0.5c-0.3,0.1-0.6,0.2-0.9,0.4
		c-0.2,0.1-0.3,0.2-0.4,0.4c-0.1,0.3-0.1,0.6-0.2,0.9c0,0.1,0,0.2-0.1,0.3c-0.1,0-0.2,0-0.2,0c-0.3,0-0.5,0-0.8,0
		c-0.1,0-0.2-0.1-0.2-0.2c0-1-0.5-1.5-1.6-1.7c-0.3-0.1-0.6-0.2-0.8-0.4c-0.1,0-0.1-0.1-0.2-0.1c-0.1-0.1-0.2-0.1-0.3-0.1
		c-0.1,0-0.2,0-0.3,0.1c-0.2,0.2-0.5,0.3-0.7,0.5c-0.1,0.1-0.2,0.1-0.3,0.2l-0.8-0.9l0.8-1.2l0,0c-0.1-0.2-0.2-0.4-0.3-0.7
		c-0.2-0.6-0.5-1.2-0.7-1.7c-0.1-0.2-0.3-0.3-0.5-0.4c-0.3-0.1-0.5-0.1-0.8-0.2c-0.1,0-0.2,0-0.3,0v-1.2c0.1,0,0.2,0,0.3-0.1
		c0.3-0.1,0.6-0.1,0.9-0.2c0.2-0.1,0.4-0.2,0.4-0.4c0.3-0.7,0.6-1.3,0.8-2C18.1,9,18.1,8.8,18,8.6z"/>
	<path id="XMLID_625_" class="st0" d="M35.4,18.8c0,0.1-0.1,0.2-0.1,0.4l0,0c-0.1,0.2-0.2,0.3-0.4,0.4c-1.4,0.3-2.4,1.4-2.5,2.8
		c-0.1,1.1-0.1,2.1,0,3.1c0.1,1.7,1.5,2.9,3.2,2.9c0,0,0.1,0,0.1,0c1.7-0.1,3.1-1.5,3.1-3.2l0-0.3c0-0.7,0-1.4,0-2.2
		c0-1.3-0.6-2.3-1.8-2.9c-0.2-0.1-0.3-0.2-0.5-0.2c-0.1,0-0.1-0.1-0.2-0.1l0.1-0.2c0-0.2,0.1-0.3,0.1-0.5c0.1-0.6,0.3-1.5-0.4-2.2
		c-0.7-0.7-1-1.4-1-2.3l0-0.1h-1.1l0,0.1c0,1.2,0.3,2.1,1.1,2.8c0.4,0.4,0.5,0.8,0.4,1.4C35.5,18.6,35.4,18.7,35.4,18.8z M37.8,24.3
		c0,0.3,0,0.5,0,0.8c-0.1,1.2-1,2.1-2.2,2.1c0,0,0,0,0,0c-1.2,0-2.1-0.9-2.2-2.1c0-0.9,0-1.7,0-2.5c0-1.2,1-2.1,2.1-2.1c0,0,0,0,0,0
		c1.2,0,2.1,1,2.2,2.2c0,0.3,0,0.6,0,0.8c0,0.1,0,0.3,0,0.4C37.8,24.1,37.8,24.2,37.8,24.3z"/>
	<path id="XMLID_626_" class="st0" d="M7.3,27.9L7.3,27.9l1,0.6l4.4-8.8l0-0.1l-1-0.5l0,0.1C10.2,22,8.8,24.9,7.3,27.9z"/>
	<polygon id="XMLID_627_" class="st0" points="13.6,26.4 16.6,23.7 13.6,21.1 13.6,21 12.9,21.9 14.9,23.7 12.8,25.6 	"/>
	<polygon id="XMLID_628_" class="st0" points="6.4,21 3.3,23.7 6.4,26.4 7.1,25.6 5,23.7 7.1,21.9 	"/>
	<path id="XMLID_631_" class="st0" d="M23.1,16.3C23.1,16.3,23.1,16.3,23.1,16.3c1.1,0,2-0.4,2.8-1.1c0.7-0.7,1.1-1.7,1.1-2.8
		c0-1-0.4-2-1.2-2.8c-0.7-0.7-1.7-1.1-2.7-1.1c0,0,0,0,0,0c-2.1,0-3.9,1.7-3.9,3.9c0,1,0.4,2,1.1,2.8C21,15.9,22,16.3,23.1,16.3z
		 M23.1,9.6c0.7,0,1.4,0.3,2,0.8c0.5,0.5,0.8,1.3,0.8,2c0,0.7-0.3,1.4-0.8,2c-0.5,0.5-1.2,0.8-2,0.8c0,0,0,0,0,0
		c-0.7,0-1.5-0.3-2-0.9c-0.5-0.5-0.8-1.2-0.8-2C20.3,10.9,21.6,9.6,23.1,9.6C23.1,9.6,23.1,9.6,23.1,9.6z"/>
	<rect id="XMLID_632_" x="35" y="21.6" class="st0" width="1.1" height="1.2"/>
</g>
</svg>
