<svg width="42" height="42" viewBox="0 0 42 42" fill="none" xmlns="http://www.w3.org/2000/svg">
<g clip-path="url(#clip0_703_357)">
<g clip-path="url(#clip1_703_357)">
<g clip-path="url(#clip2_703_357)">
<path d="M3.90002 23.8C4.00002 23.9 4.20002 24 4.40002 24C4.60002 24 4.80002 23.9 4.90002 23.8L8.60003 18.6C8.70003 18.4 8.70003 18.2 8.60003 18C8.50003 17.8 8.30003 17.7 8.10003 17.7H5.00002C5.10002 16.4 5.90002 9.39999 12.4 4.79999C17 1.59999 22.3 1.29999 28.1 3.79999L28.3 3.89999C30.2 4.69999 32 6.49999 32 6.49999C32.2 6.69999 32.6 6.69999 32.8 6.49999C33 6.29999 33 5.89999 32.8 5.69999C32.7 5.59999 30.8 3.69999 28.8 2.79999L28.6 2.69999C22.3 -1.10865e-05 16.7 0.399989 11.7 3.89999C4.60002 8.89999 3.90002 16.4 3.80002 17.7H0.600024C0.400024 17.7 0.200024 17.8 0.100024 18C2.44156e-05 18.2 2.44156e-05 18.4 0.100024 18.6L3.90002 23.8ZM6.90002 18.9L4.30002 22.5L1.60002 18.9H6.90002Z" fill="white"/>
<path d="M41.9 18.2L38.1 13C38 12.9 37.8 12.8 37.6 12.8C37.4 12.8 37.2 12.9 37.1 13L33.4 18.2C33.3 18.4 33.3 18.6 33.4 18.8C33.5 19 33.7 19.1 33.9 19.1H37.3C37.1 20.7 36.3 27.1 32.5 31.1C28 35.9 23.4 36.3 17.9 36.3H0.800012C0.500012 36.3 0.200012 36.6 0.200012 36.9C0.200012 37.2 0.500012 37.5 0.800012 37.5H18C23.8 37.5 28.6 37.1 33.4 32C37.6 27.6 38.4 20.8 38.5 19.2H41.5C41.7 19.2 41.9 19.1 42 18.9C42 18.6 42 18.3 41.9 18.2ZM35.1 17.9L37.7 14.3L40.4 17.9H35.1Z" fill="white"/>
<path d="M21.8 40H3.30001C3.00001 40 2.70001 40.3 2.70001 40.6C2.70001 40.9 3.00001 41.2 3.30001 41.2H21.8C22.1 41.2 22.4 40.9 22.4 40.6C22.4 40.3 22.1 40 21.8 40Z" fill="white"/>
<path d="M20.9 33.2C21 33.2 21.1 33.3 21.2 33.3C21.3 33.3 21.4 33.3 21.5 33.2L26.2 29.6C26.3 29.5 26.4 29.3 26.4 29.1C26.4 28.9 26.3 28.7 26.2 28.6L21.5 25C21.3 24.9 21.1 24.8 20.9 24.9C20.7 25 20.6 25.2 20.6 25.4V28.3C20.1 28.3 18.7 28.2 17.2 27.7C15.6 27.2 11.2 24.4 11.2 18.8C11.2 13.5 14.8 11 15 10.9C15.3 10.7 15.3 10.4 15.2 10.1C15 9.80002 14.7 9.80002 14.4 9.90002C14.2 10 10.1 12.9 10.1 18.8C10.1 24.5 14.3 28 16.9 28.8C18.6 29.4 20.1 29.4 20.7 29.5V32.6C20.6 32.9 20.7 33.1 20.9 33.2ZM21.7 26.7L24.9 29.1L21.7 31.5V26.7Z" fill="white"/>
<path d="M27.7 28.6C27.8 28.6 27.9 28.6 28 28.5C28.2 28.4 32.3 25.5 32.3 19.6C32.3 13.9 28.1 10.4 25.5 9.59996C23.8 8.99996 22.3 8.99996 21.7 8.89996V5.69996C21.7 5.49996 21.6 5.29996 21.4 5.19996C21.2 5.09996 21 5.09996 20.8 5.29996L16.1 8.89996C16 8.99996 15.9 9.09996 15.9 9.29996C15.9 9.49996 16 9.69996 16.1 9.79996L20.8 13.4C20.9 13.5 21 13.5 21.1 13.5C21.2 13.5 21.3 13.5 21.4 13.4C21.6 13.3 21.7 13.1 21.7 12.9V9.99996C22.2 9.99996 23.6 10.1 25.1 10.6C26.7 11.1 31.1 13.9 31.1 19.5C31.1 24.8 27.5 27.3 27.3 27.4C27 27.6 27 27.9 27.1 28.2C27.3 28.5 27.5 28.6 27.7 28.6ZM20.6 11.7L17.4 9.29996L20.6 6.89996V11.7Z" fill="white"/>
<path d="M25.5 16.8C25.8 16.8 26.1 16.5 26.1 16.2C26.1 15.9 25.8 15.6 25.5 15.6H16.6C16.3 15.6 16 15.9 16 16.2C16 16.5 16.3 16.8 16.6 16.8H25.5Z" fill="white"/>
<path d="M28.4 19.2C28.4 18.9 28.1 18.6 27.8 18.6H14.2C13.9 18.6 13.6 18.9 13.6 19.2C13.6 19.5 13.9 19.8 14.2 19.8H27.8C28.2 19.8 28.4 19.6 28.4 19.2Z" fill="white"/>
<path d="M17.7 22.8H24.5C24.8 22.8 25.1 22.5 25.1 22.2C25.1 21.9 24.8 21.6 24.5 21.6H17.7C17.4 21.6 17.1 21.9 17.1 22.2C17.1 22.5 17.3 22.8 17.7 22.8Z" fill="white"/>
</g>
</g>
</g>
<defs>
<clipPath id="clip0_703_357">
<rect width="42" height="42" fill="white"/>
</clipPath>
<clipPath id="clip1_703_357">
<rect width="41.6" height="42" fill="white"/>
</clipPath>
<clipPath id="clip2_703_357">
<rect width="42" height="40.1" fill="white" transform="translate(0 1)"/>
</clipPath>
</defs>
</svg>
