<?xml version="1.0" encoding="utf-8"?>
<!-- Generator: Adobe Illustrator 19.0.0, SVG Export Plug-In . SVG Version: 6.00 Build 0)  -->
<svg version="1.1" id="Layer_1" xmlns="http://www.w3.org/2000/svg" xmlns:xlink="http://www.w3.org/1999/xlink" x="0px" y="0px"
	 viewBox="0 0 42 42" style="enable-background:new 0 0 42 42;" xml:space="preserve">
<style type="text/css">
	.st0{fill:#FFFFFF;}
</style>
<g id="XMLID_845_">
	<path id="XMLID_861_" class="st0" d="M42,9c0-1.8-0.8-2.6-2.6-2.6c-6.1,0-12.3,0-18.4,0c-6.1,0-12.3,0-18.4,0C0.8,6.4,0,7.2,0,9
		c0,8.4,0,16.8,0,25.1c0,1.8,0.8,2.6,2.6,2.6c12.3,0,24.5,0,36.8,0c1.9,0,2.7-0.8,2.7-2.6C42,25.8,42,17.4,42,9z M1.4,9.3
		c0-1.3,0.1-1.4,1.4-1.4c11.6,0,23.2,0,34.8,0c0.7,0,1.4,0,2.1,0c0.5,0,0.8,0.3,0.8,0.8c0,1.1,0,2.3,0,3.5c-0.4,0-0.7,0-0.9,0
		c-12.4,0-24.8,0-37.2,0c-0.9,0-0.9,0-0.9-0.9C1.4,10.6,1.4,9.9,1.4,9.3z M40.6,34c0,1.2-0.1,1.4-1.3,1.4c-12.2,0-24.3,0-36.5,0
		c-1.2,0-1.3-0.1-1.3-1.3c0-6.5,0-13.1,0-19.6c0-0.7,0.2-0.8,0.8-0.8c6.2,0,12.5,0,18.7,0c6.2,0,12.4,0,18.6,0c1,0,1,0,1,1
		C40.6,21.1,40.6,27.5,40.6,34z"/>
	<path id="XMLID_902_" class="st0" d="M29.2,23.9c-0.5-0.3-1-0.5-1.7-0.8c0.6-0.3,1-0.4,1.4-0.6c0.3-0.2,0.7-0.5,0.7-0.8
		c0-0.3-0.4-0.7-0.7-0.8c-2.5-1.2-4.9-2.3-7.4-3.4c-0.3-0.1-0.7-0.1-1,0c-2.5,1.1-5,2.2-7.4,3.4c-0.3,0.1-0.7,0.5-0.7,0.8
		c0,0.2,0.4,0.6,0.7,0.8c0.4,0.2,0.8,0.4,1.4,0.6c-0.6,0.3-1.1,0.4-1.5,0.7c-0.3,0.2-0.6,0.5-0.6,0.8c0,0.3,0.3,0.6,0.6,0.8
		c0.4,0.3,0.9,0.4,1.4,0.7c-0.6,0.3-1.1,0.4-1.4,0.7c-0.3,0.2-0.6,0.5-0.6,0.8c0,0.2,0.4,0.6,0.6,0.7c2.5,1.2,5,2.3,7.5,3.4
		c0.2,0.1,0.5,0.2,0.7,0.1c2.6-1.1,5.3-2.3,7.9-3.5c0.2-0.1,0.5-0.5,0.5-0.7c0-0.3-0.3-0.6-0.5-0.7c-0.4-0.3-0.9-0.5-1.5-0.7
		c0.6-0.3,1.2-0.5,1.6-0.8C29.9,24.9,29.9,24.3,29.2,23.9z M15.3,21.4c1.7-0.8,3.4-1.6,5.2-2.4c0.2-0.1,0.6-0.2,0.8-0.1
		c1.9,0.8,3.7,1.7,5.6,2.5c0.1,0,0.1,0.1,0.2,0.2c-0.6,0.3-1.1,0.5-1.6,0.8c-1.3,0.6-2.6,1.2-4,1.8c-0.2,0.1-0.6,0.1-0.8,0.1
		c-1.9-0.8-3.8-1.7-5.7-2.5C15.1,21.6,15.2,21.5,15.3,21.4z M21.9,29.8c-0.6,0.3-1.1,0.3-1.7,0c-1.7-0.8-3.4-1.6-5.2-2.4
		c0.8-0.6,1.5-0.7,2.3-0.3c1,0.6,2.1,1,3.2,1.5c0.3,0.1,0.8,0.1,1.1,0c1.1-0.5,2.3-0.9,3.4-1.5c0.8-0.4,1.5-0.2,2.2,0.3
		C25.3,28.3,23.6,29,21.9,29.8z M21.2,27.2c-0.1,0.1-0.3,0.1-0.5,0c-1.9-0.8-3.9-1.7-5.9-2.6c0.7-0.5,1.3-0.8,2.1-0.4
		c1.1,0.6,2.2,1.1,3.4,1.5c0.4,0.1,0.8,0.1,1.2,0c1.1-0.4,2.2-0.9,3.2-1.5c0.8-0.4,1.5-0.3,2.3,0.3C25.1,25.5,23.2,26.4,21.2,27.2z"
		/>
	<circle id="XMLID_906_" class="st0" cx="27.8" cy="9.9" r="1"/>
	<circle id="XMLID_907_" class="st0" cx="31.2" cy="9.9" r="1"/>
	<circle id="XMLID_908_" class="st0" cx="34.6" cy="9.9" r="1"/>
</g>
</svg>
