<?xml version="1.0" encoding="utf-8"?>
<!-- Generator: Adobe Illustrator 19.0.0, SVG Export Plug-In . SVG Version: 6.00 Build 0)  -->
<svg version="1.1" id="Layer_1" xmlns="http://www.w3.org/2000/svg" xmlns:xlink="http://www.w3.org/1999/xlink" x="0px" y="0px"
	 viewBox="0 0 42 42" style="enable-background:new 0 0 42 42;" xml:space="preserve">
<style type="text/css">
	.st0{fill:#FFFFFF;}
</style>
<g id="XMLID_270_">
	<path id="XMLID_273_" class="st0" d="M42,7c0-1.4-0.4-1.8-1.9-1.8c-5,0-10,0-15.1,0c-1.5,0-1.9,0.4-1.9,1.9c0,3.6,0,7.2,0,10.8
		l0,4.5l-5-1.9c0.2-0.5-0.1-0.9-0.5-1.2c-0.1-0.1-0.3-0.3-0.3-0.4c0-0.1-0.1-0.1-0.1-0.2c-0.3-0.5-0.6-1-1.3-1
		c0.1-0.1,0.1-0.1,0.2-0.2c1.3-0.8,2.2-2.1,2.7-3.8l0-0.1c0.2-0.8,0.4-1.5,1.1-2.1c0.5-0.5,0.7-1,0.6-1.6c0-0.6-0.4-1.3-1-1.7
		c-0.2-0.1-0.3-0.5-0.3-0.7c0-0.9,0-1.9,0-2.6c0.1-1.3-0.3-2.4-0.9-3.1c-0.7-0.7-1.7-1.1-2.9-1.1c-1.7,0-3.2,0-4.7,0
		c-1.3,0-2.2,0.3-2.9,1c-0.7,0.7-1,1.6-1,2.9c0,0.2,0,0.4,0,0.6c0,0.6,0,1.2,0,1.8c0,0.7-0.1,1-0.6,1.3C5.8,8.5,5.5,9.1,5.5,9.5
		c-0.2,1,0.3,1.8,0.8,2.3c0.3,0.3,0.5,0.7,0.6,1.1c0.6,2.2,1.5,3.6,2.9,4.6c0.1,0,0.1,0.1,0.2,0.2c-0.6,0.2-1.3,0.9-1.7,1.5
		c-0.3,0.5-0.5,1-0.4,1.3c-0.3,0.1-0.6,0.2-0.9,0.3c-0.8,0.2-1.6,0.4-2.4,0.7c-2.1,0.7-3.3,2.2-3.8,4.3C0,29.7,0,33.7,0,37.5l0,0.7
		c0,0.8,0.3,1.6,0.9,2.1c0.6,0.6,1.5,1,2.4,1c4.5,0,8.9,0,13.2,0c7.5,0,14.6,0,21.6,0c0.2,0,0.4-0.1,0.5-0.2c0.1,0,0.1-0.1,0.2-0.1
		l0.3-0.1l-0.3-0.1c-0.1,0-0.1-0.1-0.2-0.1c-0.2-0.1-0.3-0.2-0.5-0.2c-0.6,0-1.1,0-1.7,0c-0.2,0-0.4,0-0.5,0c0-0.1,0-0.1,0-0.2
		c0.1-0.2,0.1-0.4,0.2-0.5c0.2-0.5,0.3-0.8,0.1-1.1c-0.1-0.3-0.4-0.5-0.9-0.6c-0.7-0.2-1.5-0.5-2.3-0.5c-0.4,0-0.6-0.1-0.7-0.2
		c-0.1-0.1-0.1-0.4-0.1-0.7c0-0.3,0-0.6-0.1-0.7c-0.2-0.2-0.6-0.3-0.8-0.2c-1.2,0-2.5,0-3.7,0l-0.5,0c-0.5,0-0.9-0.1-1.1-0.3
		c-0.2-0.2-0.3-0.6-0.2-1.1h4.1c3.4,0,6.8,0,10.2,0c1.4,0,1.9-0.5,1.9-1.9C42,23.7,42,15.3,42,7z M26.1,30.1c0-0.3,0-0.6,0-0.8H41
		c0,0.3,0,0.5,0,0.7c0,0.9,0,1.8,0,2.7c0,0.1-0.5,0.3-0.7,0.3c-2.2,0-4.5,0-6.7,0c-1.1,0-2.2,0-3.3,0c-1.1,0-2.2,0-3.3,0
		c-0.3,0-0.5-0.1-0.6-0.2c-0.1-0.1-0.2-0.3-0.2-0.6C26.1,31.6,26.1,30.9,26.1,30.1z M25.2,25.6c0,0.1,0,0.3,0,0.4c0,0,0,0.1,0,0.1
		l0,6.8c-0.5,0.1-0.8,0.1-0.9,0c-0.2-0.1-0.2-0.4-0.2-1c0-0.1,0-0.2,0-0.3c0-0.3,0-0.6,0-0.9c0-0.1-0.1-0.2-0.2-0.3
		c0,0-0.1-0.1-0.1-0.1l-0.1-0.1l-0.1,0.1c0,0-0.1,0.1-0.1,0.1c-0.1,0.1-0.2,0.2-0.2,0.3c0,0.2,0,0.3,0,0.5c0,0.6,0,1.2,0.1,1.7
		c0.1,0.3,0.4,0.5,0.7,0.7c0.1,0.1,0.3,0.2,0.4,0.3c0,0,0.1,0.1,0.1,0.1c0.1,0.1,0.3,0.2,0.3,0.3c0.2,1.6,0.7,2,2.3,2
		c0.2,0,0.5,0,0.7,0c1,0,1.9,0,2.9,0c0.2,0,0.4,0,0.4,0.1c0.1,0.1,0.1,0.2,0.1,0.5c0,0.9,0,1.8,0,3c0,0.2,0,0.3-0.1,0.3
		c-0.1,0.1-0.2,0.1-0.4,0.1c-0.6,0-1.1,0-1.7,0c-0.4,0-0.9,0-1.3,0c-1.5,0-3,0-4.5,0c-1.6,0-2.7-1.2-2.7-2.8c0-0.9,0-1.9,0-2.8
		c0-1.1,0-2.3,0-3.5c0-0.2-0.1-0.4-0.2-0.5c0-0.1-0.1-0.1-0.1-0.2l-0.1-0.3L20,30.5c0,0.1-0.1,0.1-0.1,0.2c-0.1,0.2-0.2,0.3-0.2,0.5
		c0,2.1,0,4.3,0,6.3c0,0.9,0.2,1.5,1.2,2.7H17c0,0,0-0.1,0-0.1c0.1-0.2,0.1-0.4,0.2-0.6c0.2-0.5,0.3-0.8,0.1-1.1
		c-0.1-0.3-0.4-0.4-0.8-0.6c-0.8-0.3-1.7-0.5-2.8-0.6c-0.5-0.1-0.5-0.2-0.5-0.6c0-0.1,0-0.2,0-0.2c0-0.1,0-0.1,0-0.2
		c0-0.3,0-0.5-0.1-0.7c-0.1-0.2-0.4-0.2-0.7-0.2c-1.2,0-2.3,0-3.5,0c-0.3,0-0.6,0-1,0c-0.8,0-1.1-0.2-1.1-1c0-0.5,0-1.1,0-1.6
		c0-0.5,0-1.1,0-1.6c0-0.2-0.1-0.3-0.2-0.5c0-0.1-0.1-0.1-0.1-0.2l-0.1-0.2l-0.1,0.2c0,0.1-0.1,0.1-0.1,0.2C6.1,30.9,6,31,6,31.2
		c0,1.3,0,2.4,0,3.4c0,1.2,0.7,1.8,1.9,1.8c1,0,2.1,0,3.2,0l1.3,0v4c0,0,0,0,0,0c-0.1,0-0.1,0-0.2,0c-0.7,0-1.5,0-2.2,0
		c-2.2,0-4.4,0-6.6,0c-1.3,0-2.3-1-2.3-2.2c0-3.9,0-7.9,0.7-11.9c0.4-2.1,1.5-3.4,3.5-4c1-0.3,2.1-0.6,3.4-1c0.1,0,0.3,0.1,0.4,0.2
		c0.6,0.5,1.2,1,1.7,1.4c0.2,0.2,0.5,0.3,0.7,0.3c0.2,0,0.4-0.2,0.5-0.5c0.2-0.4,0.5-0.9,0.8-1.3c0.1-0.2,0.2-0.3,0.3-0.5
		c0.1,0.2,0.2,0.3,0.3,0.4c0.3,0.4,0.6,0.9,0.8,1.3c0.2,0.3,0.4,0.5,0.6,0.5c0.3,0,0.5-0.2,0.7-0.3c0.6-0.5,1.1-1,1.6-1.4
		c0.1-0.1,0.4-0.1,0.6-0.1c1,0.3,2,0.5,3,0.9c0.3,0.1,0.6,0.2,0.9,0.4c1.3,0.6,1.8,1.4,1.7,2.7c-0.1,0.9-0.1,1.9,0,2.8
		c0,0.3,0,0.5,0,0.8c0,0.2,0.1,0.4,0.2,0.5c0,0.1,0.1,0.1,0.1,0.2l0.1,0.3l0.1-0.3c0-0.1,0.1-0.1,0.1-0.2c0.1-0.2,0.2-0.3,0.2-0.5
		c0-1.7,0-3.3,0-5l0-5.9c0-3.6,0-7.3,0-10.9c0-0.5,0.1-0.8,0.2-0.9c0.1-0.1,0.4-0.1,0.9,0v16.7c0,0,0,0,0,0.1c0,0.1,0,0.1,0,0.2
		c0.1,0.2,0.1,0.3,0.2,0.5l0.2,0.5l0.1-0.3c0-0.1,0.1-0.1,0.1-0.2c0.1-0.2,0.2-0.4,0.2-0.5c0-3.1,0-6.2,0-9.3l0-2.6
		c0-0.4,0-0.6,0.1-0.7c0.1-0.1,0.3-0.1,0.7-0.1l3.3,0c3.4,0,6.8,0,10.2,0c0.2,0,0.4,0,0.5,0.1c0.1,0.1,0.1,0.2,0.1,0.4
		c0,4.3,0,8.6,0,12.8c0,1.5,0,2.9,0,4.4c0,0.1,0,0.1,0,0.2c0,0,0,0,0,0H26.1l0-0.2c0-0.3,0-0.6,0-0.8c0-0.1,0-0.3,0-0.4
		c0-0.4,0-0.8,0-1.1c0-0.1-0.1-0.3-0.2-0.4c0,0-0.1-0.1-0.1-0.1L25.7,25l-0.1,0.2c0,0-0.1,0.1-0.1,0.1
		C25.4,25.4,25.3,25.5,25.2,25.6z M16.5,38.8c0,0,0,0.1,0,0.1c0,0.1-0.1,0.2-0.1,0.2c-0.1,0.5-0.2,0.8-0.5,1
		c-0.3,0.2-0.8,0.3-1.5,0.2c-0.2,0-0.3,0-0.5,0c-0.1,0-0.3,0-0.4,0c-0.1,0-0.2,0-0.3,0c0,0,0-0.1,0-0.1c0-0.1,0-0.2,0-0.3
		c0-0.4,0-0.9,0-1.4l0-0.5L16.5,38.8z M12.3,20.2l-1.2,1.9l-2.3-2l1-1.4L12.3,20.2z M14.8,22.1l-1.2-1.9l2.5-1.5l1,1.4L14.8,22.1z
		 M15,18.2c0,0.1-0.1,0.2-0.1,0.2c-0.6,0.4-1.2,0.7-1.7,1c-0.1,0.1-0.3,0.1-0.4,0c-0.5-0.3-1.1-0.6-1.8-1c0,0-0.1-0.1-0.1-0.2
		c0,0,0,0,0.1,0c0.2,0,0.5,0.1,0.7,0.1c0.5,0.1,0.9,0.1,1.4,0.1c0.4,0,0.7-0.1,1.1-0.1c0.2,0,0.4-0.1,0.7-0.1
		C14.8,18.1,14.9,18.1,15,18.2C15,18.2,15,18.2,15,18.2C15,18.2,15,18.2,15,18.2z M26.1,7l0-0.2c0-0.3,0-0.5,0.2-0.6
		C26.4,6.1,26.6,6,26.9,6c0,0,0,0,0,0c1.4,0,2.8,0,4.1,0c0.6,0,1.2,0,1.8,0L34,6c2,0,3.9,0,5.9,0C41,6,41,6,41,7.2l0,2.2h-0.8
		c-1.1,0-2.2,0-3.4,0c-3.3,0-6.7,0-10,0c-0.3,0-0.6,0-0.7-0.2c-0.1-0.1-0.1-0.3-0.1-0.6C26.2,8.1,26.1,7.5,26.1,7z M18.3,6.4
		c0,0.4,0,0.8,0,1.3c0,0.1,0,0.3-0.1,0.3C18.2,8,18.1,8,18,8c-0.2,0-0.4,0-0.5,0c-0.1,0-0.2,0-0.3,0c-1.4,0-1.9-0.4-2.2-1.8
		c0-0.2-0.2-0.3-0.3-0.5c0-0.1-0.1-0.1-0.1-0.2l-0.1-0.2l-0.1,0.2c0,0.1-0.1,0.1-0.1,0.2c-0.1,0.2-0.2,0.3-0.2,0.5
		C13.8,7.3,12.9,8,11.9,8c-0.1,0-0.2-0.2-0.3-0.3c0-0.2,0-0.3,0-0.5c0-0.2,0-0.3,0-0.5c0-0.1-0.1-0.3-0.2-0.4c0,0-0.1-0.1-0.1-0.1
		L11.2,6l-0.1,0.2c0,0-0.1,0.1-0.1,0.1c-0.1,0.1-0.2,0.2-0.2,0.4c0,0.3,0,0.6,0,0.8l0,0.1c0,0.1,0,0.2-0.1,0.3C10.6,8,10.5,8,10.3,8
		C9.9,8,9.5,8,9.1,8C8.8,8,8.4,8,8,8C7.9,8,7.8,8,7.7,8C7.7,7.9,7.7,7.8,7.7,7.7c0-0.4,0-0.9,0-1.3c0-0.7,0-1.5,0-2.2
		c0.1-1.5,1-2.4,2.5-2.5c0.7,0,1.3,0,2,0c0.3,0,0.6,0,0.9,0l0.1,0l0,0c0.2,0,0.4,0,0.6,0c0.5,0,1.1,0,1.7,0c1.8,0,2.8,0.9,2.9,2.8
		C18.3,5,18.3,5.7,18.3,6.4z M9.2,8.9c0.6,0,1.1,0,1.7,0c1.2,0,2.5-0.1,3.5-1.3C15.2,9,16.4,9,17.6,8.9c0.2,0,0.4,0,0.6,0l0.1,0
		c0.1,0,0.1,0,0.2,0c0.5,0,0.9,0,0.9,0.4c0.1,0.5,0.1,1.2-0.1,1.4c-0.8,0.6-1,1.5-1.3,2.3c-0.1,0.3-0.1,0.5-0.2,0.8
		c-0.6,1.8-2,3.1-3.8,3.5c-1.6,0.4-3.3,0-4.5-1.2C8.6,15.2,8,14,7.7,12.4c-0.1-0.5-0.2-0.9-0.7-1.2c-0.3-0.2-0.5-0.5-0.6-0.8
		c-0.2-0.4-0.2-0.8,0-1c0.2-0.3,0.5-0.4,1-0.4C8,8.9,8.6,8.9,9.2,8.9z M32.2,38.8c0-0.1,0-0.3,0-0.5c0-0.1,0-0.1,0-0.2l3.2,0.7
		c0,0.1-0.1,0.1-0.1,0.2c-0.1,0.2-0.2,0.3-0.2,0.5c0,0.9-0.5,0.9-1.4,0.9l-0.1,0c-0.7,0-1.1,0-1.3-0.2C32.2,40,32.2,39.6,32.2,38.8z
		"/>
	<path id="XMLID_285_" class="st0" d="M27.8,19.3c0,0.1,0,0.1,0,0.2c0,1,0,1.1,1.1,1.1c0.3,0,0.4,0.2,0.4,0.4c0,0.1,0.1,0.2,0.1,0.3
		c0,0.1,0,0.3-0.1,0.4c-0.1,0.1-0.2,0.2-0.2,0.2c-0.2,0.2-0.3,0.3-0.3,0.5c0,0.2,0.2,0.4,0.6,0.8c0.1,0.1,0.2,0.2,0.3,0.3
		c0.7,0.7,0.7,0.7,1.4,0.1l0,0c0.1-0.1,0.4-0.2,0.4-0.1l0,0c0.3,0.1,0.7,0.3,0.7,0.5l0,0.1c0.2,0.9,0.3,0.9,1.3,0.9
		c0.1,0,0.1,0,0.2,0c0.1,0,0.2,0,0.3,0c0.1,0,0.1,0,0.2,0c0.2,0,0.4-0.1,0.5-0.2c0.1-0.1,0.2-0.4,0.1-0.7c-0.1-0.4,0.1-0.6,0.4-0.7
		c0.2,0,0.3-0.1,0.4-0.2c0,0,0,0,0.1,0c0.1,0,0.3,0.2,0.4,0.3c0.2,0.2,0.3,0.4,0.6,0.4c0.2,0,0.4-0.1,0.6-0.3l0,0
		c1.1-1.1,1.2-1.2,0.4-2.2l0,0c0.4-0.9,0.4-0.9,0.8-0.9c0.4,0,0.6,0,0.8-0.2c0.2-0.2,0.2-0.4,0.2-0.8c0-0.1,0-0.2,0-0.3
		c0-0.1,0-0.1,0-0.2c0-1-0.1-1.1-1-1.1c-0.3,0-0.4-0.2-0.4-0.5c0-0.1-0.1-0.3-0.2-0.4c0-0.1,0-0.3,0.1-0.4l0,0
		c0.6-0.7,0.6-0.8-0.1-1.5c-0.1-0.1-0.2-0.2-0.3-0.3c-0.7-0.7-0.8-0.7-1.5-0.1l0,0c-0.1,0.1-0.3,0.2-0.4,0.1c0,0-0.1,0-0.1-0.1
		c-0.3-0.1-0.6-0.3-0.7-0.5l0-0.1c-0.2-0.9-0.3-0.9-1.3-0.9c0,0,0,0,0,0c-0.1,0-0.1,0-0.2,0c-0.1,0-0.2,0-0.3,0
		c-0.3,0-0.5,0-0.6,0.1c-0.1,0.1-0.2,0.3-0.2,0.6c0,0.2-0.1,0.5-0.2,0.6c-0.6,0.3-1,0.4-1.3-0.1c-0.1-0.1-0.2-0.2-0.3-0.2
		c0,0-0.1,0-0.1-0.1l-0.1,0l-0.1,0c0,0,0,0-0.1,0c-0.1,0-0.1,0-0.1,0.1c-0.1,0.1-0.2,0.2-0.3,0.3c-0.2,0.2-0.4,0.4-0.6,0.6
		c-0.3,0.2-0.4,0.4-0.4,0.6c0,0.2,0.1,0.4,0.4,0.6c0.3,0.2,0.4,0.3,0.2,0.6c-0.1,0.1-0.1,0.2-0.2,0.3c-0.1,0.3-0.2,0.5-0.5,0.4
		c-0.3-0.1-0.6,0-0.8,0.1c-0.2,0.2-0.2,0.4-0.2,0.8C27.8,19,27.8,19.1,27.8,19.3z M30,18c0.3-0.4,0.4-0.8,0.4-1.1
		c-0.1-0.3-0.3-0.5-0.6-0.8l0.7-0.7c0.5,0.7,1,0.8,1.8,0.4c0.6-0.3,1.1-0.6,1-1.5c0.1,0,0.1,0,0.1,0c0.2,0,0.3,0,0.4,0
		c0.1,0,0.3,0,0.3,0.1c0.1,0.1,0.1,0.2,0,0.3c-0.1,0.6,0.3,0.8,0.7,1l0,0c0.7,0.3,1.4,0.6,2-0.3l0.6,0.7c0,0,0,0,0,0
		c0,0,0,0.1,0,0.1c-0.1,0.1-0.1,0.2-0.2,0.2c-0.2,0.2-0.4,0.4-0.3,0.6c0.1,0.6,0.4,1.2,0.6,1.6c0.1,0.1,0.2,0.2,0.8,0.2
		c0.1,0,0.2,0,0.3,0.1c0.1,0.1,0.1,0.2,0.1,0.4c0,0,0,0.1,0,0.1c0,0.2,0,0.3-0.1,0.4c0,0-0.1,0.1-0.3,0c-0.3,0-0.6,0-0.7,0.1
		c-0.2,0.1-0.3,0.3-0.3,0.6c0,0,0,0,0,0c0,0,0,0,0,0c-0.4,1-0.4,1.1,0.3,2l-0.7,0.5c-0.5-0.8-1.2-0.6-1.8-0.3
		c-0.1,0-0.1,0.1-0.2,0.1c-0.5,0.2-0.8,0.4-0.7,1.1c0,0.1,0,0.2,0,0.3c-0.1,0.1-0.2,0.1-0.4,0.1l-0.1,0c-0.2,0-0.3,0-0.4-0.1
		c0,0-0.1-0.1,0-0.3c0-0.3,0-0.6-0.1-0.7c-0.1-0.2-0.3-0.3-0.6-0.3c0,0,0,0,0,0c0,0,0,0,0,0c-0.5-0.2-0.7-0.3-0.9-0.3
		c-0.3,0-0.5,0.1-0.9,0.5l-0.6-0.6c0,0,0,0,0,0c0,0,0,0,0,0c0.1-0.1,0.1-0.2,0.2-0.3c0.2-0.2,0.4-0.4,0.4-0.6
		C30.3,21,30,20.5,29.7,20c-0.1-0.2-0.6-0.2-0.8-0.2c-0.1,0-0.2,0-0.3-0.1c-0.1-0.1-0.1-0.2-0.1-0.4c0,0,0-0.1,0-0.1
		c0-0.2,0-0.3,0.1-0.4c0.1,0,0.2,0,0.3,0c0.3,0,0.6,0,0.7-0.1C29.8,18.5,29.9,18.3,30,18z"/>
	<path id="XMLID_286_" class="st0" d="M11,14l0.1,0.2c0,0,0,0.1,0.1,0.2c0.1,0.2,0.1,0.3,0.3,0.4c0.3,0.2,0.7,0.3,1.1,0.4
		c0.1,0,0.3,0.1,0.4,0.1l0,0l0,0c0.1-0.1,0.3-0.1,0.4-0.1c0.4-0.1,0.8-0.2,1.1-0.4c0.1-0.1,0.2-0.2,0.3-0.4c0-0.1,0-0.1,0.1-0.2
		L15,14l-0.2,0c0,0-0.1,0-0.2,0c-0.2,0-0.3-0.1-0.5,0c-0.8,0.4-1.5,0.4-2.3,0c-0.1-0.1-0.3,0-0.5,0c-0.1,0-0.1,0-0.2,0L11,14z"/>
	<path id="XMLID_289_" class="st0" d="M33.6,21.6C33.6,21.6,33.6,21.6,33.6,21.6c0.6,0,1.2-0.2,1.6-0.7c0.4-0.4,0.7-1,0.7-1.7
		c0-1.3-1-2.3-2.3-2.3c0,0,0,0,0,0c-1.3,0-2.3,1-2.3,2.3C31.3,20.5,32.3,21.6,33.6,21.6z M32.1,19.3c0-0.4,0.1-0.8,0.4-1.1
		c0.3-0.3,0.7-0.5,1.1-0.5c0,0,0,0,0,0c0.8,0,1.5,0.7,1.5,1.5c0,0.9-0.6,1.5-1.5,1.5c0,0,0,0,0,0C32.8,20.7,32.1,20.1,32.1,19.3z"/>
	<path id="XMLID_292_" class="st0" d="M37.1,6.8h-7v1.9h7V6.8z M30.8,7.9V7.6h5.4v0.4H30.8z"/>
	<ellipse id="XMLID_293_" class="st0" cx="10.6" cy="10.6" rx="0.7" ry="0.6"/>
	<ellipse id="XMLID_294_" class="st0" cx="15.8" cy="10.6" rx="0.7" ry="0.6"/>
</g>
</svg>
