<?xml version="1.0" encoding="utf-8"?>
<!-- Generator: Adobe Illustrator 19.0.0, SVG Export Plug-In . SVG Version: 6.00 Build 0)  -->
<svg version="1.1" id="Layer_1" xmlns="http://www.w3.org/2000/svg" xmlns:xlink="http://www.w3.org/1999/xlink" x="0px" y="0px"
	 viewBox="0 0 42 42" style="enable-background:new 0 0 42 42;" xml:space="preserve">
<style type="text/css">
	.st0{fill:#FFFFFF;}
</style>
<g id="XMLID_259_">
	<path id="XMLID_305_" class="st0" d="M40.7,22.3c0-1.7-1.3-3.1-3-3.1c-1.8-0.1-3.5,0-5.3,0c-0.3,0-0.5,0.4-0.8,0.6
		c0.3,0.2,0.5,0.6,0.8,0.6c0.6,0.1,1.2,0.1,1.8,0c0.8-0.1,0.9,0.3,0.9,1c0,6.2,0,12.4,0,18.6c0,0.7-0.2,0.9-1,0.9
		c-8.8,0-17.6,0-26.5,0c-0.7,0-0.9-0.2-0.9-1c0-3.1,0-6.1,0-9.2c0-3.2,0-6.4,0-9.5c0-0.6,0.2-0.9,0.8-0.9c0.6,0,1.2,0,1.8,0
		c0.5,0,1.1,0,1-0.7c0-0.2-0.6-0.5-0.9-0.6c-1.5-0.1-3,0-4.4,0c-2.4,0-3.7,1.3-3.7,3.7c0,5.1,0,10.2,0,15.4c0,2.7,1.2,3.9,3.8,3.9
		c5.3,0,10.5,0,15.8,0c5.4,0,10.9,0,16.3,0c2,0,3.4-1.3,3.4-3.1C40.7,33.4,40.7,27.8,40.7,22.3z M5.5,40.7c-1.9,0.4-2.9-0.4-2.9-2.4
		c0-5.1,0-10.3,0-15.4c0-2,0.9-2.7,2.9-2.5C5.5,27.2,5.5,33.9,5.5,40.7z M39.5,38.3c0,1.9-1,2.7-2.9,2.4c0-6.7,0-13.5,0-20.2
		c1.8-0.5,2.9,0.4,2.9,2.2C39.5,27.9,39.5,33.1,39.5,38.3z"/>
	<path id="XMLID_360_" class="st0" d="M21.5,32c2.6-1.1,5.3-2.2,7.9-3.3c0.6-0.2,0.8-0.6,0.8-1.2c0-1.8,0-3.5,0-5.3
		c0-1.8,0-3.6,0-5.4c0-0.6-0.2-0.9-0.8-1.2c-2.6-1.1-5.1-2.2-7.7-3.2c-0.4-0.2-1-0.2-1.5,0c-2.6,1-5.1,2.2-7.7,3.2
		c-0.6,0.2-0.8,0.6-0.8,1.2c0,3.5,0,7.1,0,10.6c0,0.6,0.2,0.9,0.8,1.2c2.6,1.1,5.2,2.2,7.8,3.3C20.8,32.1,21.2,32.1,21.5,32z
		 M29,21.8c0,1.7,0,3.3,0,5c0,0.3-0.2,0.8-0.5,0.9c-2.1,1-4.3,1.8-6.4,2.7c-0.1,0-0.2,0-0.3,0c0-2.7,0-5.5,0-8.2c0-2.1,0-2.1,2-2.9
		c1.7-0.6,3.4-1.3,5.3-2C29,19,29,20.4,29,21.8z M20.8,13.6c0.1-0.1,0.4-0.1,0.5,0c2.1,0.9,4.2,1.8,6.6,2.8c-2,0.8-3.8,1.4-5.6,2.2
		c-0.9,0.4-1.7,0.4-2.5,0c-1.8-0.7-3.5-1.4-5.6-2.2C16.5,15.4,18.7,14.5,20.8,13.6z M20.4,30.6c-1.3-0.5-2.4-1-3.5-1.5
		c-1.1-0.4-2.1-0.9-3.1-1.4c-0.3-0.1-0.6-0.5-0.6-0.8c0-3.1,0-6.1,0-9.2c0-0.1,0-0.2,0.1-0.4c2.3,0.9,4.5,1.8,6.8,2.7
		c0.2,0.1,0.4,0.4,0.4,0.6C20.4,23.9,20.4,27.1,20.4,30.6z"/>
	<path id="XMLID_363_" class="st0" d="M3.3,18c0.9,0,0.6-0.8,0.6-1.3c0-0.7,0.3-0.9,0.9-0.9c0.6,0,1.2,0,1.8,0c0.5,0,0.8-0.2,1-0.8
		c0.2-0.7,0.3-1.4,0.7-1.9c1.2-1.8,1.1-3.2-0.7-4.4c-0.5-0.3-0.4-0.7,0-1C8.5,6.8,9.3,6,10.1,5.1c0.6-0.7,1-0.6,1.5,0
		c0.3,0.4,0.8,0.8,1.2,1.2c0.4,0.4,0.7,0.4,1.2,0.2c1.2-0.6,2.4-1,3.6-1.5c0.3-0.1,0.6-0.6,0.7-0.9c0.1-0.7,0-1.4,0-2
		c0-0.5,0.2-0.8,0.8-0.8c1.3,0,2.5,0,3.8,0c0.6,0,0.8,0.3,0.8,0.8c0,0.6,0,1.3,0,1.9c0,0.6,0.3,0.8,0.8,1c1.2,0.4,2.4,0.9,3.6,1.5
		c0.5,0.3,0.9,0.3,1.3-0.2c0.5-0.5,1-0.9,1.4-1.4c0.3-0.3,0.6-0.4,0.9,0c0.9,1,1.9,1.9,2.9,2.9c0.4,0.4,0.3,0.6-0.1,0.9
		c-0.5,0.5-0.9,1-1.4,1.4c-0.4,0.4-0.4,0.8-0.2,1.3c0.6,1.1,1,2.3,1.4,3.5c0.2,0.6,0.4,0.9,1.1,0.9c0.3,0,0.6,0,0.8,0
		c1.6,0,1.6,0,1.9,1.6c0,0,0,0.1,0,0.1c0.2,0.2,0.4,0.5,0.6,0.5c0.2,0,0.5-0.3,0.6-0.5c0.1-0.4,0.1-0.8,0-1.2c0-1.1-0.7-1.9-1.7-1.7
		c-1.7,0.2-2.2-0.5-2.8-2c-0.6-1.4-0.5-2.2,0.7-3.1c0.8-0.7,0.8-1.7,0-2.4c-1-1.1-2.1-2.1-3.1-3.1c-0.7-0.7-1.8-0.7-2.4,0
		c-1,1.3-1.8,1.3-3.3,0.7c-1.4-0.6-2-1.1-1.8-2.7C25.1,0.7,24.3,0,23.1,0c-1.4,0-2.8,0-4.2,0c-1.2,0-2,0.6-1.8,1.8
		c0.2,1.7-0.6,2.1-1.9,2.8C13.7,5.2,13,5,12.1,3.9c-0.7-0.8-1.7-0.8-2.4,0c-1,1-2.1,2-3.1,3.1C5.8,7.7,5.8,8.7,6.6,9.5
		c0.5,0.5,1,0.8,1.4,1.2c-0.4,0.9-0.7,1.6-1,2.3c-0.6,1.5-0.6,1.5-2.2,1.5c-1.6,0-2.2,0.5-2.1,2.1C2.7,17.1,2.4,17.9,3.3,18z"/>
	<path id="XMLID_364_" class="st0" d="M12.1,12.4c0.6,0,1.1,0.1,1.7,0c0.2,0,0.4-0.3,0.6-0.5c-0.2-0.2-0.4-0.6-0.6-0.6
		c-0.5-0.1-1,0-1.6,0c-2,0-2,0-2,2c0,0.4-0.1,0.9,0,1.3c0.1,0.3,0.4,0.6,0.6,0.9c0.2-0.3,0.5-0.6,0.6-0.9c0.1-0.4,0-0.9,0-1.4
		C11.5,12.6,11.6,12.4,12.1,12.4z"/>
	<path id="XMLID_379_" class="st0" d="M31.8,11.9c0-0.3-0.5-0.7-0.7-0.7c-0.9-0.1-1.8-0.1-2.7,0c-0.3,0-0.5,0.4-0.8,0.6
		c0.3,0.2,0.5,0.5,0.8,0.6c0.7,0.1,1.3,0,2.1,0c0,0.8-0.1,1.5,0,2.2c0,0.3,0.4,0.5,0.6,0.8c0.2-0.3,0.6-0.5,0.6-0.8
		C31.9,13.7,31.9,12.8,31.8,11.9z"/>
	<path id="XMLID_380_" class="st0" d="M12.3,32.8c0.5,0,1,0.1,1.5,0c0.2,0,0.4-0.3,0.6-0.5c-0.2-0.2-0.4-0.6-0.6-0.6
		c-0.5-0.1-1.1-0.1-1.7,0c-0.5,0-0.7-0.2-0.7-0.6c0-0.5,0.1-1,0-1.5c-0.1-0.3-0.4-0.6-0.6-0.8c-0.2,0.3-0.5,0.6-0.6,0.9
		c-0.1,0.4,0,0.8,0,1.2C10.2,32.9,10,32.8,12.3,32.8z"/>
	<path id="XMLID_381_" class="st0" d="M28.3,32.8c0.9,0.1,1.9,0.1,2.8,0c0.2,0,0.6-0.4,0.6-0.7c0.1-0.9,0.1-1.8,0-2.7
		c0-0.3-0.4-0.5-0.6-0.8c-0.2,0.3-0.5,0.5-0.6,0.8c-0.1,0.7,0,1.3,0,2.2c-0.8,0-1.6-0.1-2.2,0c-0.3,0-0.5,0.4-0.7,0.6
		C27.9,32.4,28.1,32.8,28.3,32.8z"/>
</g>
</svg>
