<svg width="42" height="42" viewBox="0 0 42 42" fill="none" xmlns="http://www.w3.org/2000/svg">
<g clip-path="url(#clip0_703_333)">
<g clip-path="url(#clip1_703_333)">
<path d="M24.8999 25.7C26.3999 24.6 27.2999 23.1 27.5999 21.2C27.7999 19.6 27.4999 18 26.6999 16.7C25.8999 15.4 24.5999 14.4 23.0999 13.8C22.3999 13.6 21.5999 13.4 20.8999 13.4C18.4999 13.4 16.2999 14.7 15.0999 16.7C14.2999 18.1 13.8999 19.7 14.1999 21.2C14.3999 22.8 15.1999 24.2 16.4999 25.2C17.6999 26.2 18.0999 27.1 17.8999 28.5C17.8999 28.7 17.8999 28.8 17.8999 29V29.1C17.8999 29.5 17.8999 29.9 17.8999 30.3C17.9999 32.1 19.3999 33.5 21.1999 33.5C22.9999 33.5 24.3999 32 24.3999 30.2C24.3999 28.9 24.3999 27.8 24.3999 26.8C24.3999 26.4 24.4999 26 24.8999 25.7ZM23.0999 27.2C23.0999 27.4 23.0999 27.6 22.9999 27.7C22.8999 27.8 22.6999 27.9 22.3999 27.8C22.1999 27.8 22.0999 27.8 21.9999 27.8C21.3999 27.8 21.3999 27.8 21.3999 27.1V26.8C21.3999 26.5 21.3999 26.3 21.3999 26V25.8C21.3999 24.9 21.3999 24 21.3999 23.1C21.3999 22.8 21.5999 22.4 21.7999 22C22.0999 21.6 22.4999 21.2 22.7999 20.8C22.8999 20.7 22.9999 20.5 23.0999 20.4C23.2999 20.2 23.3999 20 23.3999 19.8C23.3999 19.6 23.2999 19.5 23.1999 19.4C23.0999 19.3 22.9999 19.3 22.7999 19.3C22.5999 19.3 22.3999 19.4 22.1999 19.7C21.8999 20.1 21.5999 20.4 21.1999 20.8L20.6999 21.3C20.5999 21.2 20.4999 21 20.3999 20.9L20.2999 20.8C19.9999 20.4 19.5999 20 19.2999 19.7C19.0999 19.5 18.8999 19.4 18.6999 19.4C18.4999 19.4 18.2999 19.6 18.1999 19.7C18.0999 19.9 18.1999 20.2 18.2999 20.4C18.4999 20.7 18.7999 21 19.0999 21.3C19.2999 21.6 19.5999 21.9 19.7999 22.2C19.9999 22.4 20.0999 22.8 20.0999 23C20.0999 24 20.0999 25 20.0999 26V27.1C20.0999 27.9 20.0999 27.9 19.2999 27.9C19.1999 27.9 19.0999 27.9 19.0999 27.9H18.8999C18.8999 27.8 18.8999 27.7 18.8999 27.6C18.8999 27.4 18.8999 27.2 18.8999 27.1C18.9999 26.2 18.5999 25.6 17.7999 25C16.2999 24 15.2999 22.4 15.1999 20.6C15.0999 18.8 15.8999 17.1 17.2999 16C18.2999 15.2 19.4999 14.8 20.7999 14.8C22.4999 14.8 24.0999 15.6 25.0999 16.9C25.9999 18.1 26.4999 19.6 26.2999 21.1C26.0999 22.6 25.3999 23.8 24.2999 24.7C23.3999 25.4 22.9999 26.1 23.0999 27.2ZM18.9999 29.3C19.1999 29.1 19.4999 29.1 20.0999 29.1H20.9999H21.8999C22.1999 29.1 22.3999 29.1 22.6999 29.1C22.7999 29.1 23.0999 29.2 23.0999 29.4C23.1999 30.2 23.1999 31.1 22.4999 31.8C21.8999 32.4 21.1999 32.6 20.3999 32.3C19.5999 32.1 19.0999 31.5 18.8999 30.5C18.8999 29.8 18.8999 29.5 18.9999 29.3Z" fill="white"/>
<path d="M4.09998 27.3C4.39998 27.6 4.79998 27.9 5.19998 27.9H5.29998C5.69998 27.9 5.99998 27.8 6.29998 27.5C6.59998 27.2 6.79998 26.8 6.89998 26.2C7.39998 26.2 7.79998 26.2 8.29998 26.2C8.49998 26.2 8.69998 26.1 8.79998 26C8.89998 26 8.99998 25.8 8.99998 25.6V24.8C8.99998 24.4 8.99998 23.9 8.99998 23.5C8.99998 23.2 8.79998 23 8.69998 22.9C8.59998 22.8 8.39998 22.8 7.99998 22.9C7.79998 23 7.49998 23 7.39998 22.8C7.29998 22.7 7.29998 22.4 7.39998 22.3C7.49998 22.1 7.79998 22.1 7.99998 22.2C8.29998 22.4 8.49998 22.3 8.59998 22.2C8.79998 22.2 8.89998 22 8.99998 21.7C8.99998 21 8.99998 20.4 8.99998 19.6C8.99998 19.2 8.79998 18.9 8.29998 18.9C7.99998 18.9 7.79998 18.9 7.49998 18.9H6.89998C6.79998 17.9 6.29998 17.3 5.39998 17.3C4.99998 17.3 4.59998 17.4 4.29998 17.7C3.99998 18 3.79998 18.4 3.79998 18.9H3.29998C2.99998 18.9 2.69998 18.9 2.39998 18.9C1.89998 18.9 1.69998 19.1 1.69998 19.6C1.69998 19.9 1.69998 20.2 1.69998 20.4V20.9C0.799976 21 0.0999756 21.5 0.0999756 22.4C0.0999756 22.8 0.199976 23.2 0.499976 23.5C0.799976 23.9 1.19998 24.1 1.69998 24.1V24.7C1.69998 24.9 1.69998 25.1 1.69998 25.3C1.69998 25.9 1.89998 26.1 2.49998 26.1C2.69998 26.1 2.89998 26.1 3.09998 26.1H3.79998C3.69998 26.8 3.89998 27.1 4.09998 27.3ZM2.79998 23.6C2.79998 23.4 2.79998 23.1 2.49998 23C2.19998 22.8 1.89998 23 1.79998 23C1.59998 23.1 1.39998 23.1 1.19998 22.9C1.09998 22.8 1.09998 22.5 1.19998 22.4C1.29998 22.2 1.59998 22.2 1.79998 22.3C1.89998 22.4 2.19998 22.5 2.49998 22.3C2.79998 22.1 2.79998 21.8 2.79998 21.7V21.4C2.79998 21 2.79998 20.6 2.79998 20.1C3.19998 20.1 3.59998 20.1 3.99998 20.1H4.39998C4.49998 20.1 4.89998 20.1 5.09998 19.8C5.19998 19.6 5.09998 19.3 4.99998 19.1C4.89998 18.9 4.89998 18.7 5.09998 18.5C5.19998 18.4 5.49998 18.4 5.59998 18.5C5.79998 18.6 5.79998 18.9 5.69998 19.1C5.59998 19.2 5.49998 19.5 5.59998 19.8C5.79998 20.1 6.09998 20.1 6.29998 20.1H6.79998C7.09998 20.1 7.49998 20.1 7.79998 20.1C7.79998 20.4 7.79998 20.6 7.79998 20.9V21C7.29998 21 6.89998 21.2 6.59998 21.5C6.29998 21.8 6.19998 22.2 6.19998 22.6C6.19998 23 6.39998 23.4 6.69998 23.7C6.99998 24 7.39998 24.1 7.79998 24.2V25.1C7.59998 25.1 7.39998 25.1 7.19998 25.1H7.09998C6.79998 25.1 6.49998 25.1 6.29998 25.1C5.99998 25.1 5.79998 25.2 5.69998 25.4C5.59998 25.6 5.59998 25.8 5.69998 26.1C5.79998 26.3 5.79998 26.5 5.59998 26.7C5.49998 26.8 5.19998 26.8 5.09998 26.7C4.89998 26.6 4.89998 26.3 4.99998 26.1C5.09998 25.8 5.19998 25.6 4.99998 25.4C4.79998 25.1 4.49998 25.1 4.39998 25.1H4.19998C3.89998 25.1 3.59998 25.1 3.29998 25.1C3.09998 25.1 2.89998 25.1 2.79998 25.1C2.79998 24.7 2.79998 24.2 2.79998 23.8V23.6Z" fill="white"/>
<path d="M38 14.7C37.8 15 37.9 15.3 38 15.4C38.1 15.5 38.1 15.7 38.1 15.8C38.1 15.9 38 16 37.9 16.1C37.8 16.2 37.7 16.2 37.6 16.1C37.5 16.1 37.4 16 37.3 15.8C37.3 15.7 37.3 15.5 37.3 15.4C37.4 15.3 37.5 15 37.3 14.7C37.2 14.5 37 14.4 36.7 14.4C36.1 14.4 35.4 14.4 34.8 14.4C34.6 14.4 34.4 14.4 34.2 14.6C34 14.8 34 15 34 15.2V16.5C33.5 16.6 33 16.7 32.8 17C32.5 17.3 32.4 17.7 32.4 18.1C32.4 18.5 32.6 18.9 32.9 19.2C33.2 19.5 33.6 19.6 34.1 19.7V20.2C34.1 20.5 34.1 20.8 34.1 21.1C34.1 21.6 34.3 21.8 34.8 21.8C35.5 21.8 36.1 21.8 36.8 21.8C37 21.8 37.3 21.8 37.5 21.5C37.7 21.2 37.5 20.9 37.4 20.8C37.3 20.6 37.3 20.4 37.5 20.3C37.6 20.2 37.8 20.1 38 20.2C38.1 20.3 38.2 20.3 38.2 20.4C38.2 20.5 38.2 20.7 38.2 20.8C38.1 21.1 38.1 21.3 38.2 21.5C38.3 21.7 38.5 21.8 38.8 21.8C39.2 21.8 39.6 21.8 40 21.8H40.9C41.3 21.8 41.6 21.6 41.6 21.1C41.6 21 41.6 20.9 41.6 20.8V20.5V19C41.6 17.7 41.6 16.5 41.6 15.2C41.6 15 41.6 14.8 41.4 14.6C41.2 14.4 41 14.4 40.8 14.4C40.1 14.4 39.5 14.4 38.8 14.4C38.3 14.5 38.1 14.5 38 14.7ZM39.2 15.6C39.5 15.6 39.8 15.6 40.1 15.6C40.1 16.3 40.1 16.9 40.1 17.6V20.5H39.2C39.2 20 39 19.6 38.7 19.3C38.4 19.1 38 19 37.6 19C37.1 19 36.8 19.2 36.5 19.5C36.2 19.8 36.1 20.2 36.1 20.6C35.8 20.6 35.5 20.6 35.2 20.6C35.2 20.3 35.2 19.9 35.2 19.6V19.2C35.2 19.1 35.2 19.1 35.2 19C35.2 18.7 35 18.5 34.9 18.5C34.8 18.4 34.6 18.4 34.3 18.5C34 18.7 33.8 18.6 33.7 18.4C33.6 18.2 33.6 18.1 33.7 17.9C33.9 17.7 34 17.7 34.2 17.8C34.3 17.9 34.7 18.1 34.9 17.9C35.2 17.7 35.2 17.3 35.2 17.2V15.7H36.1C36.1 16.2 36.3 16.6 36.6 16.9C36.9 17.2 37.3 17.3 37.7 17.3C38.2 17.2 39.1 17 39.2 15.6Z" fill="white"/>
<path d="M41.9 27.9C41.7 27.6 41.5 27.3 41.4 27.1L41.3 27C42.4 26.2 42.1 25.3 41.9 24.9C41.7 24.5 41.4 24.3 41 24.1C40.5 23.9 40.1 24 39.6 24.3L39.3 23.8C39.2 23.6 39 23.4 38.9 23.1C38.7 22.7 38.3 22.6 37.9 22.9C37.7 23 37.6 23.1 37.4 23.2L36.7 23.6C36.4 23.2 36 22.9 35.7 22.8C35.3 22.7 34.9 22.8 34.5 23C34.1 23.2 33.9 23.6 33.8 23.9C33.7 24.3 33.8 24.7 34 25.2L33.8 25.3C33.5 25.5 33.1 25.7 32.8 25.9C32.4 26.1 32.4 26.5 32.6 26.8C33 27.5 33.4 28 33.7 28.6C33.9 28.8 34 28.9 34.2 28.9C34.4 28.9 34.6 28.8 34.7 28.5C34.8 28.3 35 28.2 35.2 28.3C35.4 28.4 35.5 28.6 35.5 28.7C35.5 28.9 35.3 29.1 35 29.1C34.7 29.1 34.5 29.2 34.4 29.4C34.3 29.6 34.3 29.8 34.5 30.1L35.5 31.8C35.6 32 35.8 32.2 36.1 32.2C36.2 32.2 36.4 32.1 36.6 32C38.2 31 39.8 30 41.3 29C41.6 28.8 41.8 28.7 41.9 28.4C42.2 28.4 42.1 28.2 41.9 27.9ZM36.8 29C36.9 28.6 36.7 28.2 36.5 27.9C36 27.2 35.2 27.1 34.4 27.6L33.9 26.8L34.3 26.6C34.6 26.4 34.9 26.2 35.2 26C35.3 25.9 35.6 25.7 35.6 25.4C35.6 25.1 35.4 24.9 35.2 24.8C35 24.7 34.9 24.5 35 24.3C35.1 24.1 35.3 24 35.5 24C35.7 24 35.9 24.2 35.9 24.4C35.9 24.7 36 24.9 36.2 25C36.4 25.1 36.6 25.1 36.9 24.9L37.3 24.7C37.6 24.5 38 24.3 38.3 24.1C38.5 24.5 38.8 24.9 39 25.2L39.1 25.4C39.3 25.7 39.5 25.8 39.7 25.8C39.9 25.8 40.1 25.7 40.2 25.4C40.3 25.2 40.5 25.1 40.7 25.2C40.9 25.3 41 25.4 41 25.6C41 25.8 40.8 26 40.6 26C40.3 26 40.1 26.1 40 26.3C39.9 26.5 39.9 26.7 40.1 27C40.4 27.4 40.6 27.9 40.9 28.3C40.3 28.7 39.7 29 39.1 29.4L38.8 29.6C38.1 30.1 37.3 30.5 36.6 31C36.4 30.8 36.3 30.5 36.1 30.2C36.5 30 36.8 29.6 36.8 29Z" fill="white"/>
<path d="M37.1 34.8C37.1 36.1 36.4 36.9 35 36.9C31.3 36.9 24.8 36.9 21 36.9C16.7 36.9 10.9 36.9 6.59999 36.9C5.19999 36.9 4.49999 36.2 4.49999 34.8V29.9H3.29999V34.8C3.29999 36.8 4.59999 38.1 6.59999 38.1C10.5 38.1 14.5 38.1 18.5 38.1C22.6 38.1 30.9 38.1 35 38.1C37.1 38.1 38.3 36.8 38.3 34.8V33.7H37.1V34.8Z" fill="white"/>
<path d="M4.59996 15.1C4.59996 13.7 4.59996 12.4 4.59996 11C4.59996 10.8 4.59996 10.6 4.69996 10.5C4.79996 10.4 4.99996 10.4 5.19996 10.4C7.89996 10.4 10.6 10.4 12.8 10.4H18.8H28.7C31 10.4 33.7 10.4 36.4 10.4C36.6 10.4 36.8 10.4 36.9 10.5C37 10.6 37 10.7 37 11V13H38.2V12.9C38.2 10.8 38.2 9 38.2 7.4C38.2 6.7 38 6 37.7 5.5C37.1 4.5 36.2 4 34.6 4H34.5C31.8 4 29.1 4 26.9 4H26C23.7 4 17 4 14.5 4C12 4 9.29996 4 6.69996 4C4.69996 4 3.39996 5.3 3.39996 7.3V15.2H4.59996V15.1ZM4.59996 8.3C4.59996 7.7 4.59996 7.2 4.59996 6.7C4.69996 5.8 5.49996 5.2 6.59996 5.2C7.99996 5.2 9.39996 5.2 10.4 5.2H34.7C35.6 5.2 36.2 5.4 36.6 5.8C37 6.2 37.1 6.8 37.1 7.6V9.1H4.59996C4.59996 8.8 4.59996 8.6 4.59996 8.3Z" fill="white"/>
</g>
</g>
<defs>
<clipPath id="clip0_703_333">
<rect width="42" height="42" fill="white"/>
</clipPath>
<clipPath id="clip1_703_333">
<rect width="42.2" height="34.1" fill="white" transform="translate(0 4)"/>
</clipPath>
</defs>
</svg>
