<?xml version="1.0" encoding="utf-8"?>
<!-- Generator: Adobe Illustrator 19.0.0, SVG Export Plug-In . SVG Version: 6.00 Build 0)  -->
<svg version="1.1" id="Layer_1" xmlns="http://www.w3.org/2000/svg" xmlns:xlink="http://www.w3.org/1999/xlink" x="0px" y="0px"
	 viewBox="0 0 42 42" style="enable-background:new 0 0 42 42;" xml:space="preserve">
<style type="text/css">
	.st0{fill:#1B3ECD;}
</style>
<g id="XMLID_197_">
	<path id="XMLID_246_" class="st0" d="M20.6,29c0,0.6,0,1,0,1.4c0,2.4,0,4.8,0,7.2c0,2.1-1.1,3.3-3.2,3.3c-4.8,0-9.6,0-14.3,0
		c-1.9,0-3.1-1.3-3.1-3.2c0-10,0-19.9,0-29.9c0-2.1,1.2-3.3,3.3-3.3c4.7,0,9.4,0,14.1,0c2,0,3.2,1.2,3.2,3.2c0,2.1,0,4.2,0,6.3
		c0,0.3,0,0.7,0.1,1.3c1.4-0.8,2.7-1.5,3.9-2.2c0.1-0.1,0.2-0.4,0.2-0.6c-0.1-1.2-0.1-1.2,0.7-2.2c-2.1-1.2-0.7-2.8-0.3-4.2
		c0.1-0.3,0.7-0.6,1.1-0.7c0.6-0.1,0.8-0.3,0.6-0.9c-0.1-0.3,0-0.9,0.2-1c0.8-0.6,1.7-1.2,2.7-1.6c0.4-0.2,1,0.3,1.7,0.6
		c1-2.1,2.6-0.8,3.9-0.4c0.4,0.1,0.7,0.9,1.1,1.5c0.4,0.1,1.2,0.2,1.7,0.7c0.5,0.5,0.9,1.3,1,2C39.4,7,39.1,7.7,39,8.6
		c0.9,0.9,1,3-0.1,4.2c-0.2,0.2-0.7,0.4-1,0.4c-0.6,0-0.8,0.3-0.6,0.8c0.2,0.9-0.1,1.4-0.9,1.7c-0.3,0.1-0.5,0.3-0.8,0.5
		c-1.3,0.8-1.4,0.8-2.5,0c-0.7,0.4-1.3,0.9-1.9,1c-0.7,0.1-1.6-0.2-2.2-0.5c-0.5-0.3-0.9-1.1-1.2-1.6c-0.6-0.3-1.3-0.6-1.9-0.9
		c-0.2-0.1-0.6,0-0.8,0.1c-1.2,0.6-2.4,1.2-3.6,2c-0.3,0.2-0.7,0.7-0.7,1.1c-0.1,3.2,0,6.5,0,9.7c0,0.2,0,0.5,0.1,0.5
		c1.3,0.5,2.5,1,3.8,1.5c0,0,0.4-0.7,0.5-1.1c0.7-3,2.4-5.1,5.3-6.2c3.1-1.2,6.1-0.7,8.6,1.4c2.5,2.1,3.6,4.9,3,8.2
		c-0.8,4.4-4.7,6.7-7.6,7c-4.4,0.3-8-2.2-9-5.9c-0.5-1.8-1.3-2.5-2.8-2.9C21.9,29.5,21.3,29.3,20.6,29z M11.5,20.3
		c2-1.1,3.7-2,5.4-3c0.2-0.1,0.4-0.6,0.4-1c0-1.7,0-3.5,0-5.2c0-1.2-0.5-1.7-1.7-1.7c-3.6,0-7.2,0-10.8,0c-1.2,0-1.7,0.5-1.7,1.7
		c0,7.7,0,15.4,0,23.1c0,1.2,0.5,1.7,1.6,1.7c3.6,0,7.3,0,10.9,0c1.2,0,1.6-0.4,1.6-1.7c0-1.9,0-3.8,0-5.8c0-0.6-0.2-0.9-0.8-1.1
		c-1.3-0.5-2.7-1-4-1.5c-0.9-0.3-1.1-0.2-1.1,0.7c0,0.2,0,0.5,0,0.7c0,0.8-0.3,1.1-1.1,1.1c-1.2-0.1-2.4,0-3.6,0
		c-0.7,0-1-0.2-0.9-0.9c0-3,0-6.1,0-9.1c0-0.6,0.2-0.9,0.8-0.9c1.1,0,2.3,0.1,3.5,0c1-0.1,1.4,0.2,1.3,1.3
		C11.4,19.2,11.5,19.6,11.5,20.3z M25.9,29.8c0,4.2,3.3,7.6,7.5,7.7c4,0,7.5-3.4,7.6-7.3c0-4.2-3.2-7.7-7.3-7.8
		C29.1,22.2,25.7,26.2,25.9,29.8z M19,28.2c-0.1,0-0.3,0.1-0.4,0.1c0,0.4-0.1,0.7-0.1,1.1c0,1.6,0,3.3,0,4.9c0,1.7-1.1,2.8-2.6,2.8
		c-3.7,0-7.4,0-11.1,0c-1.6,0-2.5-0.9-2.6-2.5c0-0.6,0-1.3,0-1.9c0-7.1,0-14.2,0-21.2c0-2.3,0.9-3.2,3.2-3.2c3.4,0,6.8,0,10.3,0
		c1.9,0,2.9,1,2.9,2.9c0,1.4,0,2.7,0,4.1c0,0.3,0,0.7,0.1,1c0.1,0,0.3,0.1,0.4,0.1c0.1-0.4,0.4-0.8,0.4-1.2c0-2.5,0-5,0-7.4
		c0-1.4-0.6-2.1-2-2.1c-4.7,0-9.5-0.1-14.2,0c-1.4,0-2.1,0.8-2.1,2.2c0,1.6,0,3.2,0,4.8c0,8.3,0,16.7,0,25c0,1.3,0.7,2.3,1.9,2.3
		c4.8,0,9.6,0,14.4,0c1.2,0,2-0.8,2-1.9c0-2.9,0-5.9,0-8.8C19.4,28.9,19.2,28.6,19,28.2z M38.5,6.9c-0.2-0.4-0.4-0.7-0.6-1.1
		c-0.3-0.6-0.5-1.1-1.4-0.6c-0.4,0.3-1.7-0.8-1.5-1.4C35.1,3.4,35.1,3,34.5,3c-0.6,0-1.3-1-1.9,0.2c-0.4,0.8-1.7,1-2.3,0.3
		c-0.7-0.8-1.1,0-1.6,0.2c-0.5,0.2-1,0.4-0.6,1.2c0.2,0.5-0.6,1.9-1,1.8c-1.3-0.3-1.3,0.8-1.5,1.5c-0.1,0.3,0.1,0.8,0.4,0.9
		c0.7,0.5,1,1.8,0.3,2.3c-0.8,0.6-0.2,1.1,0,1.6c0.2,0.5,0.4,0.9,1.2,0.6c0.8-0.3,1.8,0.5,1.6,1.3c-0.2,0.9,0.5,0.9,1,1
		c0.5,0.1,1.1,0.5,1.5-0.4c0.3-0.7,1.6-0.8,2.2-0.3c0.2,0.2,0.7,0.4,0.9,0.3c0.5-0.3,1.3-0.8,1.3-1.2c0.1-1.5,0.3-1.9,1.7-2.1
		c0.1,0,0.4-0.1,0.4-0.3c0.2-0.5,0.4-1,0.5-1.6c0-0.2-0.5-0.5-0.7-0.7c-0.1-0.1-0.2-0.3-0.3-0.5C37.5,8.1,37.5,7.3,38.5,6.9z
		 M17.3,18.4c-1.9,1.1-3.7,2-5.5,3.1c-0.6,0.3-0.5,2.6,0,2.9c1.8,0.8,3.6,1.4,5.5,2.1C17.3,23.8,17.3,21.2,17.3,18.4z M10.4,23.1
		c0-0.7,0-1.3,0-2c0-2.6,0-2.6-2.6-2.5c-0.7,0-1,0.3-1,1c0,1.7,0,3.5,0,5.2c0,2.6,0,2.6,2.6,2.5c0.7,0,1-0.3,1-1
		C10.4,25.3,10.4,24.2,10.4,23.1z M19.1,27.5c0.2-0.4,0.3-0.6,0.3-0.7c0-2.9,0-5.8,0-8.7c0-0.2-0.3-0.4-0.4-0.6
		c-0.2,0.3-0.5,0.5-0.5,0.8c0,2.7,0,5.4,0,8C18.5,26.7,18.9,27,19.1,27.5z"/>
	<path id="XMLID_245_" class="st0" d="M33.9,29.4c1.2,0,2.5,0,3.7,0c0.3,0,0.6,0.3,0.9,0.5c-0.3,0.2-0.6,0.5-0.9,0.5
		c-1.8,0.1-3.5,0-5.3,0c-0.8,0-1.5,0-2.3,0c-0.3,0-0.5-0.3-0.7-0.5c0.3-0.2,0.5-0.5,0.8-0.5C31.3,29.3,32.6,29.4,33.9,29.4
		C33.9,29.4,33.9,29.4,33.9,29.4z"/>
	<path id="XMLID_244_" class="st0" d="M33.5,33.1c-1.2,0-2.4,0-3.5,0c-0.2,0-0.5-0.3-0.7-0.5c0.2-0.2,0.5-0.5,0.7-0.5
		c2.4,0,4.7,0,7.1,0c0.2,0,0.4,0.3,0.7,0.5c-0.2,0.2-0.4,0.5-0.7,0.5C35.8,33.2,34.6,33.1,33.5,33.1C33.5,33.1,33.5,33.1,33.5,33.1z
		"/>
	<path id="XMLID_243_" class="st0" d="M32.1,27.7c-0.7,0-1.5,0-2.2,0c-0.2,0-0.4-0.3-0.7-0.5c0.2-0.2,0.5-0.5,0.7-0.5
		c1.5,0,2.9,0,4.4,0c0.2,0,0.4,0.3,0.5,0.5c-0.2,0.2-0.4,0.6-0.6,0.6C33.5,27.7,32.8,27.7,32.1,27.7C32.1,27.7,32.1,27.7,32.1,27.7z
		"/>
	<path id="XMLID_242_" class="st0" d="M10.3,7.5c-0.9,0-1.7,0-2.6,0C7.4,7.5,7.1,7.2,6.9,7c0.3-0.2,0.5-0.5,0.8-0.5
		c1.8,0,3.5,0,5.3,0c0.2,0,0.5,0.3,0.7,0.5c-0.2,0.2-0.5,0.4-0.7,0.4C12.1,7.6,11.2,7.5,10.3,7.5z"/>
	<path id="XMLID_202_" class="st0" d="M32.2,5.7c2.1,0,3.6,1.6,3.6,3.7c0,2-1.7,3.6-3.6,3.6c-2-0.1-3.7-1.7-3.7-3.7
		C28.5,7.3,30.1,5.7,32.2,5.7z M32.1,11.9c1.4,0,2.6-1.3,2.5-2.6c0-1.3-1.3-2.5-2.5-2.5c-1.4,0-2.6,1.2-2.6,2.6
		C29.6,10.7,30.8,11.9,32.1,11.9z"/>
</g>
</svg>
