<?xml version="1.0" encoding="utf-8"?>
<!-- Generator: Adobe Illustrator 19.0.0, SVG Export Plug-In . SVG Version: 6.00 Build 0)  -->
<svg version="1.1" id="Layer_1" xmlns="http://www.w3.org/2000/svg" xmlns:xlink="http://www.w3.org/1999/xlink" x="0px" y="0px"
	 viewBox="0 0 42 42" style="enable-background:new 0 0 42 42;" xml:space="preserve">
<style type="text/css">
	.st0{fill:#FFFFFF;}
</style>
<g id="XMLID_967_">
	<path id="XMLID_968_" class="st0" d="M28.2,31.3l-0.1-0.2l-0.2,0.1c-0.1,0-0.1,0.1-0.2,0.1c-0.2,0.1-0.3,0.2-0.4,0.3
		c-0.5,0.8-0.9,1.5-1.2,2.2c-0.1,0.2-0.1,0.6,0,0.9c0.1,0.3,0.3,0.6,0.4,0.9l0.1-0.1l-0.1,0.1c0.1,0.3,0.2,0.5,0.4,0.8
		c0.1,0.1,0,0.4,0,0.4c-0.6,0.5-1.1,1-1.7,1.4c-0.2,0.1-0.3,0.3-0.5,0.4c-0.1-0.1-0.2-0.1-0.3-0.2l-0.2-0.1
		c-0.4-0.3-0.8-0.6-1.2-0.9c-0.4-0.3-0.8-0.4-1.3-0.2c-0.4,0.2-0.8,0.3-1.2,0.4c-0.3,0.1-0.6,0.2-1,0.3c-0.3,0.1-0.6,0.4-0.7,0.6
		c-0.2,0.5-0.5,1.1-0.7,1.8c-0.1,0.3-0.2,0.4-0.5,0.3c-0.3,0-0.6-0.1-0.9-0.1c-0.5,0-1-0.1-1.5-0.2c-0.1,0-0.3-0.2-0.3-0.3
		c-0.1-0.3-0.1-0.6-0.2-0.9c-0.1-0.3-0.1-0.7-0.2-1c-0.1-0.3-0.3-0.6-0.6-0.8c-0.6-0.4-1.3-0.8-2.1-1.1c-0.3-0.1-0.7-0.2-0.9-0.1
		c-0.6,0.2-1.2,0.5-1.8,0.8c-0.2,0.1-0.4,0.1-0.5-0.1c-0.4-0.5-0.8-1-1.2-1.5l-0.5-0.6c0.1-0.1,0.2-0.3,0.3-0.4l0.1-0.1
		c0.3-0.5,0.6-0.9,0.9-1.3c0.2-0.3,0.2-0.7,0.1-1c-0.1-0.4-0.2-0.8-0.3-1.1c-0.1-0.3-0.2-0.7-0.3-1.1c-0.1-0.5-0.3-0.7-0.8-0.9
		c-0.3-0.1-0.6-0.2-0.9-0.3l0,0c-0.2-0.1-0.5-0.2-0.8-0.3c-0.3-0.1-0.3-0.2-0.3-0.5c0.1-0.7,0.2-1.5,0.2-2.3c0-0.3,0.1-0.4,0.4-0.5
		c0.7-0.1,1.3-0.2,1.9-0.3c0.3-0.1,0.6-0.4,0.8-0.6c0.5-0.7,0.8-1.4,1.1-2c0.1-0.3,0.2-0.8,0.1-1.1c-0.2-0.5-0.4-1-0.6-1.5
		c-0.1-0.2-0.2-0.3-0.2-0.5c0.1-0.1,0.3-0.2,0.4-0.4l0.1-0.1c0.5-0.4,1.1-0.9,1.6-1.3c0.1-0.1,0.4-0.1,0.5,0
		c0.3,0.2,0.5,0.3,0.8,0.5c0.3,0.2,0.5,0.4,0.8,0.6c0.3,0.2,0.6,0.2,0.9,0.1c0.8-0.2,1.5-0.4,2.4-0.7c0.2-0.1,0.3-0.2,0.4-0.4
		c0-0.1,0.1-0.1,0.1-0.2l0.2-0.2L16.5,17c-0.1,0-0.1-0.1-0.2-0.1c-0.2-0.1-0.4-0.2-0.6-0.2c-0.4,0.1-0.7,0.2-1.1,0.3
		c-0.3,0.1-0.6,0.2-1,0.3c-0.2,0.1-0.5,0-0.7-0.1c-0.5-0.3-1.1-0.7-1.6-1.1l-0.1,0c-0.4-0.3-0.7-0.3-1.1,0c-1,0.9-1.9,1.6-2.6,2.2
		c-0.4,0.3-0.5,0.7-0.2,1.1c0.2,0.4,0.4,0.8,0.6,1.2l0,0.1C8,20.8,8.1,21,8.1,21.2c0.1,0.2,0,0.7-0.4,1.5c-0.4,0.7-0.7,1.1-0.9,1.1
		c-0.2,0-0.5,0.1-0.7,0.1l0,0c-0.4,0.1-0.8,0.1-1.3,0.2c-0.3,0.1-0.6,0.4-0.7,0.6c-0.2,1.3-0.3,2.5-0.4,3.7c0,0.3,0.3,0.7,0.5,0.8
		c0.3,0.2,0.7,0.3,1,0.4c0.3,0.1,0.6,0.2,0.9,0.4c0.1,0,0.2,0.2,0.4,0.5c0.7,1.4,0.5,2.6-0.6,3.7c0,0-0.1,0.1-0.1,0.1c0,0,0,0,0,0
		c-0.3,0.4-0.3,0.7,0,1.1c0.3,0.4,0.6,0.8,1,1.2l0.1,0.1c0.2,0.2,0.3,0.4,0.5,0.6c0.2,0.2,0.3,0.4,0.4,0.6c0.6,0.8,0.7,0.8,1.7,0.3
		c0.2-0.1,0.3-0.2,0.5-0.3c0.9-0.4,1.5-0.6,2.2,0c0.1,0.1,0.3,0.2,0.5,0.2c0.1,0,0.3,0.1,0.3,0.2c0.1,0.1,0.4,0.3,0.4,0.6
		c0.1,0.6,0.2,1.1,0.3,1.7l0,0.3c0.1,0.5,0.3,0.7,0.8,0.7c0.4,0,0.8,0.1,1.2,0.1l0.1,0c0.7,0.1,1.5,0.2,2.3,0.2l0,0
		c0.3,0,0.7-0.2,0.8-0.5c0.2-0.4,0.4-0.9,0.5-1.3c0.1-0.2,0.1-0.4,0.2-0.6c0.1-0.1,0.5-0.4,1.2-0.7c0.8-0.2,1.4-0.3,1.5-0.2
		c0.1,0,0.1,0.1,0.2,0.2l0.5,0.4c0.3,0.2,0.6,0.5,1,0.7c0.4,0.3,0.7,0.3,1.1,0c1-0.9,1.9-1.6,2.6-2.2c0.4-0.3,0.5-0.7,0.3-1.1
		c-0.1-0.2-0.2-0.5-0.3-0.7c-0.1-0.3-0.3-0.6-0.5-1c-0.2-0.3-0.1-0.5,0.1-0.8c0.4-0.6,0.7-1.2,0.9-1.9c0.1-0.2,0-0.4-0.1-0.6
		C28.2,31.4,28.2,31.4,28.2,31.3z"/>
	<path id="XMLID_969_" class="st0" d="M22.7,9.7L22.7,9.7c0.1,0,0.2,0,0.2,0.1l0,0c0.7,0.2,1.2,0.3,1.4,1.1c0,0.2,0.2,0.2,0.5,0.2
		c0.1,0,0.1,0,0.2,0l0.2,0l0-0.2c0,0,0-0.1,0.1-0.1c0.1-0.1,0.1-0.3,0.1-0.4c0-0.1-0.1-0.3-0.2-0.4C25.1,9.9,25,9.8,25,9.7
		c0-0.7-0.4-0.8-1-0.8c-1.6-0.1-2.8-0.9-3.4-2.3c-0.6-1.3-0.4-3,0.5-3.9c0,0.1,0.1,0.2,0.1,0.3l0.2,0.6c0.3,0.8,0.5,1.7,0.8,2.6
		c0.1,0.2,0.2,0.4,0.4,0.5c0.1,0.1,0.3,0.1,0.5,0C24,6.4,25,6.1,25.9,5.8l0.1,0c0.2-0.1,0.4-0.2,0.5-0.4c0.1-0.2,0.1-0.4,0-0.6
		c-0.2-0.5-0.4-1.1-0.6-1.8c-0.1-0.4-0.3-0.8-0.4-1.2l-0.2-0.6l0,0c0.1,0.1,0.2,0.1,0.4,0.2C26,1.6,26.3,1.7,26.6,2
		c1,0.8,1.5,2,1.4,3.2c-0.1,1.3-0.8,2.4-1.9,3.1c-0.2,0.1-0.6,0.6-0.5,0.8c0.1,0.2,0.2,0.3,0.3,0.3c0.2,0.1,0.5-0.1,0.7-0.2
		c0.2-0.1,0.5-0.3,0.7-0.5l0,0c0.1,0,0.1-0.1,0.2-0.1c0,0,0,0.1,0.1,0.1l0,0c0.1,0.3,0.3,0.5,0.4,0.7c0.1,0.1,0.3,0.2,0.4,0.2
		c0.1,0,0.1,0,0.2,0.1l0.2,0.1l0-0.2c0-0.1,0-0.1,0.1-0.2C29,9.4,29.1,9.2,29,9.1c-0.1-0.3-0.2-0.5-0.4-0.7c-0.3-0.4-0.3-0.7,0-1.2
		c0.7-1.4,0.7-3,0-4.4c-0.7-1.4-2-2.4-3.6-2.7c-0.5-0.1-0.8-0.1-1,0.1c-0.2,0.2-0.1,0.5,0,0.9c0.3,0.8,0.5,1.6,0.8,2.4l0.4,1.3
		l-2.1,0.7l-0.3-1.1c-0.3-0.9-0.6-1.8-0.9-2.7c-0.2-0.5-0.3-0.7-0.5-0.7C21.2,1,21,1.1,20.6,1.4c-1.2,1.2-1.7,3-1.3,4.7
		C19.8,7.9,21,9.2,22.7,9.7z"/>
	<path id="XMLID_972_" class="st0" d="M28.1,11.1l0.1,0.1l0,0c0,0,0,0,0,0l0,0L28.1,11.1L28.1,11.1c0,0.1-0.1,0.1-0.1,0.2l-0.1,0.2
		l0.2,0c0.1,0,0.1,0,0.2,0c0.2,0,0.4,0.1,0.6,0c0.3-0.1,0.5-0.3,0.7-0.4c0.2-0.1,0.4-0.3,0.6-0.4c0.6-0.3,1.2-0.1,1.5,0.4
		c0.3,0.5,0.2,1.1-0.3,1.5c0,0,0,0-0.1,0c-0.1,0-0.1,0.1-0.2,0.2c0,0-0.1,0.1-0.1,0.2c-0.1,0.2-0.3,0.4-0.2,0.6
		c0.1,0.2,0.2,0.3,0.3,0.3c0.2,0.1,0.4-0.1,0.6-0.2c0,0,0.1,0,0.1-0.1c0.1,0,0.1-0.1,0.2-0.1c0.1-0.1,0.3-0.2,0.5-0.2
		c0.6-0.2,1.2,0,1.5,0.5c0.3,0.6,0.1,1.2-0.5,1.5c-0.3,0.2-0.6,0.4-1,0.6c-0.2,0.1-0.4,0.3-0.6,0.4c-0.4,0.3-0.9,0.6-1.4,0.6l0,0
		l0,0c-0.2,0-0.4,0.4-0.4,0.6c0,0.2,0,0.3,0,0.5c0,0.1,0,0.3,0,0.4c-0.1,0.8,0.1,1.5,0.7,1.9c0.3,0.2,0.6,0.4,1,0.6
		c0.1,0.1,0.3,0.1,0.4,0.2c0,0,0,0.1,0,0.2c0,0.8,0.4,1.5,1,1.8c0.3,0.1,0.6,0.2,0.9,0.2c0.4,0,0.8-0.1,1.2-0.3
		c0.5-0.3,0.9-0.6,1.4-0.9c0.6-0.4,0.9-1,0.9-1.6c0-0.6-0.3-1.2-0.8-1.7c-0.1-0.1-0.1-0.1-0.2-0.2l0,0c0.4-0.8,0.5-1.5,0.2-2.1
		c-0.2-0.6-0.8-1.1-1.6-1.5c0.2-1.9-0.2-2.5-2.1-3.1c0-0.1,0-0.1,0-0.2c0.1-1-0.3-1.7-1.1-2.2c-0.8-0.5-1.6-0.5-2.4,0.1
		c-0.1,0.1-0.2,0.1-0.3,0.2c-0.2,0.1-0.5,0.3-0.8,0.5C28.3,10.7,28.2,10.9,28.1,11.1z M33.3,21.1c0.5-0.7,1.3-1,2.1-1.4l0.1-0.1
		c0.1,0.1,0.1,0.1,0.2,0.2c0.2,0.1,0.4,0.3,0.4,0.4c0.1,0.3,0,0.8-0.1,0.9c-0.5,0.5-1.1,0.9-1.7,1.1c-0.2,0.1-0.8-0.1-1-0.3
		C33.3,21.8,33.2,21.3,33.3,21.1z M35.7,17.9L35.7,17.9L35.7,17.9L35.7,17.9z M35.6,17.8c-0.1,0.2-0.3,0.5-0.5,0.6
		c-0.7,0.5-1.4,0.9-2.1,1.3l-0.2,0.1c-0.6,0.3-1.2,0.2-1.6-0.3c-0.4-0.6-0.2-1.2,0.3-1.6c0.6-0.4,1.5-1,2.4-1.5
		c0.2-0.1,0.3-0.1,0.5-0.1c0.2,0,0.4,0,0.5,0.1c0.4,0.2,0.6,0.7,0.6,1.2C35.7,17.7,35.7,17.8,35.6,17.8z"/>
	<path id="XMLID_978_" class="st0" d="M13.4,25L13.4,25c0,0.1,0,0.2-0.1,0.2l-0.1,0.3l0.3,0c0.1,0,0.2,0,0.2,0c0.2,0,0.4,0,0.6-0.1
		c0.4-0.3,0.9-0.6,1.3-1l0.1-0.1c0.7-0.5,1.3-1,2-1.5c1.4-0.9,2.2-2.2,2.4-4c0.2-1.2,0.4-2.5,0.8-4.2c0.2-0.9,0.8-1.5,1.8-1.6
		c0.2,0,0.4,0,0.5-0.1c0.4,0,0.8-0.1,1.1-0.2c1.5-0.4,2.7,0.2,3.9,0.9c0.1,0.1,0.3,0.2,0.4,0.2c0.6,0.3,0.7,1.1,0.4,1.6
		c-0.3,0.6-0.9,0.9-1.5,0.7c-0.1,0-0.3-0.1-0.4-0.1c-0.2-0.1-0.3-0.1-0.5-0.2c-0.4-0.1-0.6-0.2-0.5-0.6c0-0.2-0.1-0.4-0.3-0.5
		c0-0.1-0.1-0.1-0.1-0.2l-0.1-0.2l-0.1,0.2c0,0.1-0.1,0.1-0.1,0.2c-0.1,0.1-0.3,0.3-0.3,0.5c0,0.4-0.1,0.6-0.5,0.7l-0.1,0
		c-0.4,0.1-0.6,0.2-0.8-0.2c-0.1-0.1-0.3-0.1-0.5-0.1c-0.1,0-0.1,0-0.2,0l-0.2,0l0,0.2c0,0,0,0.1,0,0.2c0,0.1-0.1,0.3,0,0.4
		c0.2,0.5,0.4,0.8,0.7,0.9c0.3,0.1,0.6,0,1-0.2c0.7-0.4,1.4-0.4,2,0c0.1,0.1,0.2,0.1,0.3,0.1l0.1,0c1.3,0.4,2.6-0.1,3.1-1.3
		c0.5-1.2,0-2.5-1.2-3.1c-0.4-0.2-0.9-0.4-1.4-0.6c-0.4-0.2-0.8-0.3-1.2-0.5L26,11.4l-3.2,0.5c-1.6,0.2-2.5,1.1-2.9,2.6
		c-0.3,1.2-0.5,2.4-0.7,3.5l-0.1,0.3c-0.1,0.3-0.1,0.6-0.2,1c-0.2,1.1-0.7,1.8-1.5,2.4c-1.4,1-2.8,2-3.8,2.8
		C13.6,24.6,13.5,24.8,13.4,25z M13.5,25L13.5,25L13.5,25L13.5,25z"/>
	<path id="XMLID_979_" class="st0" d="M15.3,22.1L15.3,22.1c0,0,0.1,0,0.1,0c0.1,0,0.3-0.1,0.4-0.2c0.1-0.1,0.3-0.4,0.2-0.6
		c-0.1-0.2-0.4-0.3-0.6-0.4c-0.2,0-0.3,0.1-0.5,0.1l0,0c0,0-0.1,0-0.1,0c-1.6,0.7-2.9,1.9-3.8,3.4c-0.8,1.5-1.1,3.3-0.8,5
		c0.7,3.6,3.8,6.2,7.5,6.2h0c2.7,0,5.2-1.4,6.6-3.8c0,0,0,0,0.1-0.1c0.1-0.1,0.1-0.2,0.1-0.3c0-0.1,0-0.6-0.3-0.6
		c-0.2-0.1-0.5,0-0.7,0.1c-0.1,0.1-0.2,0.2-0.2,0.3c0,0,0,0.1-0.1,0.1c-1.5,2.4-4.3,3.6-7,3c-2.8-0.7-4.8-3-5-5.8
		C11,25.8,12.6,23.2,15.3,22.1z"/>
	<path id="XMLID_983_" class="st0" d="M38.4,27.3c0-0.1-0.1-0.3-0.1-0.4c-0.1-0.3-0.2-0.6-0.3-0.9c-0.3-0.7-0.7-1.4-1.1-2.1
		l-0.2-0.3c0,0,0-0.1-0.1-0.1c-0.1-0.2-0.2-0.4-0.4-0.5c-0.1,0-0.3,0-0.4,0.1c-0.2,0.1-0.3,0.2-0.3,0.3c-0.1,0.2,0.1,0.4,0.2,0.6
		c0,0,0,0.1,0.1,0.1c0.2,0.3,0.4,0.7,0.5,1c0.3,0.5,0.5,1,0.8,1.5c0.3,0.7,0.3,1.3-0.2,1.9c-0.4,0.6-1,0.8-1.8,0.7
		c-0.6-0.1-1-0.5-1.4-1.2c-1.8-3.7-3.1-6.6-4.4-9.2c-0.1-0.2-0.3-0.3-0.5-0.4c-0.1,0-0.1-0.1-0.2-0.1l-0.2-0.1l0,0.2
		c0,0.1,0,0.1-0.1,0.2c-0.1,0.2-0.1,0.4,0,0.6c1.6,3.3,3.1,6.5,4.7,9.8c0.4,0.9,1.4,1.5,2.5,1.5c0.3,0,0.5,0,0.8-0.1
		C37.4,29.9,38.3,28.8,38.4,27.3L38.4,27.3L38.4,27.3z"/>
	<path id="XMLID_984_" class="st0" d="M29.9,25.7L29.9,25.7c-0.2,0-0.4,0-0.6,0.1c-0.9,0.6-1.9,1-3.1,1.3c-0.7,0.2-1.4,0.3-1.9,0.7
		c-1.2,1-2.4,2-3.5,3l-0.1,0.1c-0.4,0.3-0.7,0.7-1.1,1c-0.1,0.1-0.2,0.2-0.2,0.4c0,0.1,0.1,0.3,0.1,0.4l0.2,0.4l0.2-0.1
		c0.1-0.1,0.2-0.1,0.2-0.2l0,0c0.1-0.1,0.3-0.2,0.4-0.3c0.3-0.3,0.6-0.5,0.9-0.8l0,0c0.8-0.7,1.7-1.5,2.5-2.2
		c0.8-0.7,1.7-1.2,2.9-1.5c0.9-0.2,1.7-0.6,2.5-1c0.2-0.1,0.4-0.2,0.6-0.3c0.2-0.1,0.2-0.3,0.3-0.5c0-0.1,0-0.2,0.1-0.2l0.1-0.2
		l-0.2,0C30,25.7,30,25.7,29.9,25.7z"/>
	<path id="XMLID_986_" class="st0" d="M14.3,29.7c0.2,0,0.4,0,0.6-0.1c1.1-0.8,2.1-1.6,3.1-2.4c0.6-0.5,1.2-0.9,1.7-1.4
		c0.1-0.1,0.2-0.1,0.3-0.2c0.1,0,0.1-0.1,0.2-0.1l0.2-0.1l-0.1-0.2c-0.1-0.1-0.2-0.2-0.2-0.3c-0.1-0.2-0.2-0.3-0.3-0.3
		c-0.2,0-0.5,0-0.7,0.2c-1.5,1.2-3.2,2.4-4.8,3.8c-0.2,0.1-0.2,0.3-0.3,0.5c0,0.1,0,0.2-0.1,0.2l-0.1,0.2l0.2,0
		C14.1,29.7,14.2,29.7,14.3,29.7L14.3,29.7z"/>
	<path id="XMLID_1032_" class="st0" d="M24.9,23.1L24.9,23.1c0.1,0,0.2,0,0.2,0c0.2,0,0.4,0,0.5-0.2c0.6-0.6,1-1.4,1-2.3
		c0-0.9-0.3-1.8-1-2.5c-0.1-0.1-0.3-0.2-0.5-0.2c-0.1,0-0.1,0-0.2,0l-0.2-0.1l0,0.2c0,0.1,0,0.1,0,0.2c0,0.2,0,0.4,0.1,0.5
		c0.9,1.3,0.9,2.3,0,3.4c-0.1,0.1-0.1,0.3-0.1,0.5c0,0.1,0,0.1,0,0.2l0,0.2L24.9,23.1z"/>
	<path id="XMLID_1033_" class="st0" d="M35.2,27.8L35.2,27.8c0,0.1,0,0.1,0,0.2l0,0.2l0.2,0c0.1,0,0.1,0,0.2,0c0.1,0,0.1,0,0.2,0
		c0.1,0,0.2,0,0.3-0.1c0.5-0.3,0.7-1.1,0.4-1.8c-0.3-0.6-1-0.9-1.7-0.7c-0.6,0.2-1.1,1-0.9,1.6c0.1,0.2,0.2,0.3,0.4,0.4
		c0,0,0.1,0.1,0.1,0.1l0.1,0.1l0.6-0.6l0-0.1l0-0.1c-0.1-0.3-0.1-0.4,0-0.5c0.1-0.1,0.2,0,0.2,0c0.1,0,0.2,0.1,0.2,0.2
		c0,0.1,0,0.2-0.2,0.4C35.2,27.4,35.2,27.6,35.2,27.8l0.1,0l0,0L35.2,27.8z"/>
	<path id="XMLID_1034_" class="st0" d="M21.6,27c0.1-0.1,0.2-0.2,0.2-0.3c0,0,0.1-0.1,0.1-0.2l0-0.1l-0.1-0.1c0,0-0.1-0.1-0.1-0.1
		c-0.1-0.1-0.1-0.2-0.3-0.3c-0.1,0-0.4,0-0.6,0.1c-0.8,0.6-1.4,1.1-1.9,1.6c-0.1,0.1-0.2,0.3-0.2,0.5c0,0.1,0,0.1,0,0.2l-0.1,0.2
		l0.2,0c0.1,0,0.1,0,0.2,0c0.1,0,0.1,0,0.2,0c0.1,0,0.3,0,0.4-0.1c0.6-0.4,1.1-0.9,1.6-1.3l-0.1-0.1l0,0c0,0,0,0,0,0l0,0l0.1,0.1
		L21.6,27z"/>
</g>
</svg>
