<svg width="42" height="42" viewBox="0 0 42 42" fill="none" xmlns="http://www.w3.org/2000/svg">
<g clip-path="url(#clip0_698_62)">
<path d="M41.2 22.7V22.4C41.2 21.8 41 21.3 40.6 20.8C40.4 20.6 40.3 20.3 40.3 20.1C40.3 19.3 40.3 18.4 40.3 17.6C40.3 16.7 40.3 15.7 40.3 14.7C40.2 6.5 33.7 0 25.4 0C25.4 0 22.2 0 21 0C19.4 0 18 0 16.8 0C15.8 0 15 0.1 14.2 0.2C10.6 0.9 7.3 2.8 5.1 5.6C2.9 8.4 1.7 12 1.8 15.7C1.8 16 1.9 16.3 2.3 16.3C2.6 16.3 2.8 16.1 2.8 15.7V15.1C2.8 14.7 2.8 14.2 2.8 13.8C3.4 6.7 9.4 1.1 16.5 1C17.6 1 18.9 1 20.3 1C21.5 1 25.7 1 25.7 1C28.2 1 30.5 1.6 32.5 2.9C36.5 5.3 38.7 8.7 39.2 13.1C39.4 14.6 39.4 16.2 39.3 17.7C39.3 18.4 39.3 19.1 39.3 19.8C39.3 19.9 39.3 19.9 39.2 20V20.1H37.2H37.1V19.9C37.1 19.8 37.1 19.7 37.1 19.6C37.1 19.2 37.1 18.7 37.1 18.3C37.1 17.3 37.1 16.3 37.1 15.4C37.1 14.4 37 13.3 36.8 12.3C35.5 7.2 31.5 3.8 26.3 3.4C25.5 3.3 24.7 3.3 23.7 3.3C23.1 3.3 22.6 3.3 22 3.3H21.1H20.3H18.7C17.2 3.3 16 3.3 14.8 3.5C9.8 4 5.4 8.6 5.1 13.8C5 15.1 5 16.4 5 17.6C5 18.2 5 18.8 5 19.4C5 19.5 5 19.6 5 19.8V20.1H2.9H2.8V19.6C2.8 19.3 2.8 19.1 2.8 18.8C2.8 18.4 2.6 18.2 2.3 18.2C2 18.2 1.8 18.4 1.8 18.8C1.8 19 1.8 19.2 1.8 19.5C1.8 19.8 1.8 20 1.8 20.3C1.8 20.5 1.7 20.7 1.6 20.9C1.2 21.4 1 21.9 1 22.5V24.4C1 26.4 1 28.4 1 30.5C1 31.8 2 32.8 3.3 32.8C3.5 32.8 3.7 32.8 3.9 32.8C4.1 32.8 4.3 32.8 4.6 32.8C4.9 32.8 5.1 32.9 5.2 33.2C5.6 34.1 6.4 34.7 7.4 34.7C7.5 34.7 7.5 34.7 7.6 34.7C9 34.6 10.2 33.4 10.2 32C10.2 28.5 10.2 24.9 10.2 21.1C10.2 19.7 9.2 18.5 7.8 18.4C7.7 18.4 7.6 18.4 7.5 18.4C7.2 18.4 6.9 18.4 6.6 18.5C6.4 18.5 6.2 18.5 6 18.6H5.9V17.4C5.9 16.6 5.9 15.7 5.9 14.8C6 9.5 10.1 5 15.3 4.6C16.3 4.5 17.3 4.5 18.1 4.5H20.2C20.7 4.5 22.6 4.5 23.1 4.5C24 4.5 25.2 4.5 26.5 4.6C30.7 4.9 34.4 8 35.6 12.1C36.1 13.8 36.1 15.6 36 17.4C36 17.8 36 18.2 36 18.6L35.9 18.8H35.8H35.7C35.4 18.7 35 18.6 34.7 18.6C33.3 18.6 31.8 19.7 31.8 21.6C31.8 23.9 31.8 26.2 31.8 28.5V32.1C31.8 32.8 32 33.4 32.4 34C32.9 34.7 33.8 35.1 34.6 35.1C35.6 35.1 36.5 34.5 36.9 33.5C37 33.3 37.1 33.2 37.3 33.2C37.4 33.2 37.5 33.2 37.6 33.3L37.7 33.4V33.5C37.7 33.8 37.7 34 37.7 34.3C37.7 34.9 37.7 35.4 37.7 36C37.5 38.2 35.6 39.9 33.3 40C33 40 32.7 40 32.3 40H31.1C30.7 40 30.5 40 30.2 40C29.9 40 29.7 39.8 29.6 39.6C29.2 38.9 28.7 38.6 27.9 38.5C27 38.5 26.3 38.5 25.6 38.5C24.9 38.5 24.2 38.5 23.6 38.5C22.5 38.5 21.6 39.4 21.6 40.5C21.6 41.6 22.4 42.5 23.5 42.5C24.1 42.5 24.8 42.5 25.5 42.5C26.2 42.5 26.9 42.5 27.8 42.5C28.2 42.5 28.9 42.4 29.2 41.8C29.5 41.1 30.1 41 30.6 41H31C31.4 41 31.8 41 32.1 41C32.5 41 32.8 41 33.1 41C33.6 41 34 40.9 34.3 40.9C36.9 40.3 38.7 38.1 38.7 35.3V33.4L39.2 33.3C40.4 33.1 41.1 32.2 41.1 31.1C41.3 27.9 41.3 25.2 41.2 22.7ZM5 31.6C5 31.7 4 31.7 3.8 31.7C3.5 31.7 3.3 31.7 3.1 31.7C2.4 31.6 2 31.1 2 30.3C2 29.1 2 27.9 2 26.7V24.1C2 23.6 2 23.1 2 22.5C2 21.5 2.5 21.1 3.4 21C3.6 21 3.8 21 3.9 21H4.9V31.6H5ZM7.2 19.2C7.3 19.2 7.4 19.2 7.5 19.2C8.3 19.2 9 19.7 9.3 20.5C9.4 20.7 9.4 21 9.4 21.3C9.4 24.8 9.4 28.3 9.4 31.7C9.4 32.7 8.9 33.4 8 33.7C7.8 33.7 7.7 33.8 7.5 33.8C6.6 33.6 6 33 6 32.1C6 30.7 6 29.4 6 28.1V20.9C6 19.9 6.4 19.3 7.2 19.2ZM27.8 40.8C27.6 40.8 27.3 40.8 27 40.8H24.6C24.3 40.8 24 40.8 23.8 40.8C23.2 40.8 22.8 40.4 22.7 39.9C22.7 39.6 22.8 39.4 23 39.2C23.2 39 23.5 38.9 23.8 38.9C24.4 38.9 25.1 38.9 25.7 38.9C26.4 38.9 27.1 38.9 27.8 38.9C28.1 38.9 28.4 39 28.6 39.2C28.8 39.4 28.9 39.6 28.9 39.9C28.9 40.4 28.4 40.8 27.8 40.8ZM40.3 30.1C40.3 31.2 39.8 31.7 38.7 31.7H37.3H37.2V31.3C37.2 31.1 37.2 30.9 37.2 30.7C37.2 30.3 37 30.1 36.7 30.1C36.4 30.1 36.2 30.3 36.2 30.7C36.2 30.9 36.2 31.1 36.2 31.4C36.2 31.6 36.2 31.8 36.2 32C36.2 32.9 35.9 33.4 35.2 33.6C35.1 33.6 34.9 33.7 34.8 33.7C34.2 33.7 33.6 33.4 33.3 32.9C33.1 32.5 32.9 32.1 32.9 31.7C32.9 28.2 32.9 24.7 32.9 21.1C32.9 20.4 33.3 19.8 33.9 19.4C34.2 19.3 34.5 19.2 34.7 19.2C35.5 19.2 36.1 19.9 36.1 20.8C36.1 22.3 36.1 23.9 36.1 25.3V27.4C36.1 27.5 36.1 27.6 36.1 27.7C36.1 28 36.3 28.2 36.6 28.2C37 28.2 37.1 27.9 37.1 27.7C37.1 27.5 37.1 27.2 37.1 27V21.2V21.1C37.1 21.1 38.2 21.1 38.3 21.1C38.6 21.1 38.8 21.1 39 21.1C39.6 21.2 40 21.7 40 22.4C40 23.1 40 23.7 40 24.4L40.3 30.1Z" fill="#1B3ECD"/>
<path d="M23.3 27.4C23.4 26.9 24 26.6 24.5 26.6C24.7 26.6 24.8 26.6 25 26.7C25.2 26.8 25.3 26.8 25.5 26.9C25.6 26.9 25.7 27 25.7 27C25.8 27 25.9 26.9 26 26.9C26.2 26.8 26.4 26.8 26.5 26.6C27 26.2 27.5 25.7 28 25.1C28.4 24.7 28.4 24.2 28.2 23.7C27.8 23.2 28 22.8 28.2 22.4C28.3 22.1 28.5 21.9 28.9 21.8C29.5 21.7 29.9 21.2 29.9 20.6C29.9 20 29.9 19.3 29.9 18.6C29.9 18.1 29.7 17.6 29.1 17.5C28.4 17.4 28.2 16.9 28 16.5C27.9 16.2 27.9 16 28.1 15.7C28.5 15.2 28.4 14.5 28 14C27.6 13.6 27.2 13.2 26.8 12.9C26.4 12.5 26.1 12.4 25.8 12.4C25.5 12.4 25.3 12.5 24.9 12.7C24.7 13 24.6 13 24.5 13C24.3 13 24.1 12.9 24 12.8C23.9 12.7 23.8 12.7 23.7 12.7C23.5 12.7 23.3 12.4 23.3 12.2C23.1 11.5 22.7 11.1 22 11.1C21.8 11.1 21.6 11.1 21.4 11.1C21 11.1 20.6 11.1 20.2 11.1C19.6 11.1 19.2 11.4 19.1 11.9C19 12.5 18.6 12.8 18.1 13C17.9 13 17.8 13 17.6 13C17.5 13 17.3 13 17.2 12.8C17 12.6 16.7 12.5 16.4 12.5C16.1 12.5 15.8 12.6 15.5 12.9C15 13.4 14.6 13.8 14.2 14.2C13.8 14.6 13.7 15.2 14 15.6C14.4 16.1 14.2 16.6 14 17C13.9 17.3 13.7 17.4 13.4 17.5C12.8 17.6 12.4 18.1 12.3 18.7C12.3 19.4 12.3 20 12.3 20.7C12.3 21.3 12.6 21.7 13.1 21.8C13.8 21.9 14 22.4 14.1 22.9C14.2 23.1 14.2 23.4 14 23.6C13.6 24.3 13.7 24.9 14.2 25.4C14.6 25.8 15 26.2 15.4 26.6C15.7 26.9 16 27 16.3 27C16.6 27 16.8 26.9 17.1 26.7C17.2 26.6 17.4 26.6 17.5 26.6C17.6 26.6 17.6 26.6 17.7 26.6C17.9 26.6 18.1 26.7 18.3 26.8C18.4 26.9 18.7 27.1 18.7 27.3C18.9 28 19.3 28.4 20 28.4C20.3 28.4 20.5 28.4 20.8 28.4C21.1 28.4 21.5 28.4 21.8 28.4C22.7 28.5 23.2 28.1 23.3 27.4ZM21.3 27.5C21 27.5 20.7 27.5 20.4 27.5C20.1 27.5 19.9 27.4 19.9 27.1C19.8 26.5 19.5 26.2 18.9 26C18.7 25.9 18.6 25.9 18.4 25.8L18.2 25.7C18 25.6 17.8 25.6 17.6 25.6C17.3 25.6 17.1 25.7 16.9 25.9C16.8 26 16.6 26.1 16.5 26.1C16.4 26.1 16.2 26 16.1 25.9C15.8 25.6 15.5 25.2 15.1 24.9C14.9 24.7 14.8 24.5 15.1 24.2C15.4 23.8 15.5 23.3 15.2 22.8C15.1 22.6 15 22.4 14.9 22.1C14.7 21.6 14.3 21.3 13.8 21.2C13.5 21.2 13.3 21 13.3 20.6C13.3 20.2 13.3 19.7 13.3 19.2C13.3 18.9 13.4 18.7 13.7 18.7C14.3 18.6 14.6 18.3 14.8 17.7C14.9 17.5 15 17.3 15.1 17.1V17C15.3 16.5 15.3 16.1 15 15.7C14.8 15.4 14.8 15.2 15.1 14.9C15.3 14.7 15.5 14.5 15.7 14.3C15.8 14.2 16 14 16.1 13.9C16.2 13.8 16.2 13.8 16.3 13.7L16.5 13.6L16.9 13.8C17.1 14 17.4 14 17.6 14C17.8 14 17.9 14 18.1 13.9C18.4 13.8 18.7 13.6 19.1 13.5C19.6 13.3 19.8 13 19.9 12.5C19.9 12.1 20.1 12 20.5 12C20.7 12 20.8 12 21 12C21.2 12 21.5 12 21.8 12C22.1 12 22.3 12.2 22.4 12.5C22.4 13 22.7 13.3 23.2 13.5C23.2 13.5 23.9 13.8 24 13.8C24.2 13.9 24.4 13.9 24.6 13.9C24.9 13.9 25.1 13.8 25.4 13.6C25.5 13.5 25.6 13.5 25.7 13.5C25.8 13.5 25.9 13.6 26.1 13.7C26.4 14 26.7 14.3 27.1 14.7C27.3 14.9 27.4 15.2 27.2 15.4C26.9 15.8 26.8 16.3 27.1 16.8C27.2 17.1 27.3 17.4 27.4 17.6C27.6 18.1 27.9 18.4 28.4 18.4C28.8 18.4 28.9 18.6 28.9 19C28.9 19.2 28.9 19.4 28.9 19.6C28.9 19.9 28.9 20.1 28.9 20.4C28.9 20.6 28.7 20.8 28.5 20.9C27.9 21 27.6 21.3 27.4 21.8C27.3 22 27.2 22.2 27.2 22.4L27 22.6C26.8 23.1 26.8 23.6 27.1 24C27.3 24.3 27.3 24.5 27 24.8C26.7 25.1 26.4 25.4 26 25.8C26 25.9 25.9 26 25.7 26C25.6 26 25.5 26 25.4 25.9C25.2 25.7 24.9 25.6 24.6 25.6C24.4 25.6 24.2 25.7 23.9 25.8C23.7 25.9 23.5 26 23.2 26.1C22.7 26.3 22.4 26.7 22.3 27.2C22.3 27.5 22.1 27.7 21.7 27.7C21.8 27.5 21.5 27.5 21.3 27.5Z" fill="#1B3ECD"/>
<path d="M25.3 19.8C25.3 17.5 23.4 15.6 21.1 15.6C20 15.6 18.9 16 18.2 16.8C17.4 17.6 17 18.6 17 19.8C17 22.1 18.9 24 21.2 24C23.4 24 25.3 22.1 25.3 19.8ZM21.1 23C20.2 23 19.4 22.7 18.8 22.1C18.2 21.5 17.9 20.7 17.9 19.8C17.9 18 19.3 16.6 21.1 16.6C22 16.6 22.8 16.9 23.4 17.6C24 18.2 24.3 19 24.3 19.9C24.3 21.6 22.9 23 21.1 23Z" fill="#1B3ECD"/>
</g>
<defs>
<clipPath id="clip0_698_62">
<rect width="40.3" height="41.8" fill="white" transform="translate(1)"/>
</clipPath>
</defs>
</svg>
