<?xml version="1.0" encoding="utf-8"?>
<!-- Generator: Adobe Illustrator 19.0.0, SVG Export Plug-In . SVG Version: 6.00 Build 0)  -->
<svg version="1.1" id="Layer_1" xmlns="http://www.w3.org/2000/svg" xmlns:xlink="http://www.w3.org/1999/xlink" x="0px" y="0px"
	 viewBox="0 0 42 42" style="enable-background:new 0 0 42 42;" xml:space="preserve">
<style type="text/css">
	.st0{fill:#FFFFFF;}
</style>
<g id="XMLID_2_">
	<path id="XMLID_132_" class="st0" d="M5.9,18.7c0-5.2,0-10.5,0-15.7c0-1.7,0.8-2.4,2.4-2.4c8.5,0,17,0,25.5,0
		c1.7,0,2.4,0.8,2.4,2.4c0,10.5,0,25.5,0,35.9c0,1.7-0.8,2.5-2.5,2.5c-8.5,0-16.9,0-25.4,0c-1.7,0-2.5-0.8-2.5-2.5
		C5.9,33.7,5.9,23.9,5.9,18.7z M7.1,8.3c0,0.2,0,0.4,0,0.6c0,8.6,0,21.7,0,30.3c0,0.9,0.3,1.2,1.2,1.2c8.6,0,17.1,0,25.7,0
		c0.9,0,1.2-0.3,1.2-1.2c0-8.5,0-21.6,0-30.2c0-0.2,0-0.4,0-0.6C25.7,8.3,16.4,8.3,7.1,8.3z M7.1,7.1c9.4,0,18.7,0,28.1,0
		c0-1.3,0-2.6,0-3.9c0-1.2-0.2-1.4-1.4-1.4c-8.5,0-16.9,0-25.4,0c-0.2,0-0.3,0-0.5,0C7.4,1.8,7.1,2.1,7.1,2.5C7.1,4,7.1,5.5,7.1,7.1
		z"/>
	<path id="XMLID_116_" class="st0" d="M29.1,25.1c-0.5,0-1,0-1.5,0c-0.8,0-0.9-0.1-0.9-0.9c-0.2-2.9-2.4-5.2-5.2-5.4
		c-2.9-0.2-5.4,1.6-6.1,4.4c-0.1,0.4-0.1,0.8-0.2,1.2c0,0.5-0.3,0.7-0.7,0.7c-1.1,0-2.2,0-3.3,0c-0.6,0-0.8-0.3-0.8-0.9
		c0.1-2.5,0.9-4.6,2.5-6.5c2.8-3.3,7.4-4.6,11.5-3.1c4.1,1.4,6.9,5.3,7,9.5c0,0.9-0.1,1-1,1C30,25.1,29.5,25.1,29.1,25.1z M14,23.9
		c0.3-2.3,1.4-4.1,3.4-5.3c2-1.2,4.1-1.3,6.3-0.4c0.4-0.8,0.7-1.5,1.1-2.2c-3.1-1.3-6-1.2-8.8,0.5c-2.7,1.7-4.2,4.2-4.5,7.4
		C12.4,23.9,13.2,23.9,14,23.9z M25.9,16.5c-0.4,0.8-0.8,1.5-1.1,2.3c1.8,1.3,2.8,3,3.1,5.1c0.9,0,1.7,0,2.5,0
		C30,20.7,28.6,18.3,25.9,16.5z"/>
	<path id="XMLID_115_" class="st0" d="M20.9,31.4c-3.1,0-6.3,0-9.4,0c-0.2,0-0.4,0.1-0.5,0c-0.2-0.1-0.4-0.4-0.4-0.6
		c0-0.2,0.3-0.4,0.5-0.5c0.1-0.1,0.3,0,0.5,0c6.3,0,12.6,0,18.8,0c0.2,0,0.3-0.1,0.4,0c0.2,0.1,0.5,0.3,0.5,0.5
		c0,0.2-0.2,0.4-0.4,0.6c-0.1,0.1-0.4,0-0.6,0C27.2,31.4,24,31.4,20.9,31.4z"/>
	<path id="XMLID_114_" class="st0" d="M20.9,34.2c-3.1,0-6.3,0-9.4,0c-0.2,0-0.4,0-0.6,0c-0.2-0.1-0.4-0.3-0.4-0.5
		c0-0.2,0.2-0.4,0.4-0.5c0.1-0.1,0.3,0,0.5,0c6.3,0,12.6,0,18.9,0c0.1,0,0.2,0,0.3,0c0.4,0,0.7,0.2,0.6,0.6c0,0.2-0.4,0.4-0.6,0.5
		c-0.1,0.1-0.3,0-0.5,0C27.1,34.2,24,34.2,20.9,34.2z"/>
	<path id="XMLID_111_" class="st0" d="M21.2,23.8c0.2-0.1,0.4-0.2,0.5-0.4c0.4-0.6,0.8-1.1,1.1-1.7c0.2-0.3,0.5-0.6,0.9-0.3
		c0.4,0.3,0.3,0.6,0.1,0.9c-0.4,0.5-0.7,1.1-1,1.6c-0.2,0.3-0.3,0.6-0.1,1c0.5,1,0,2.1-0.9,2.6c-1,0.5-2.1,0.1-2.6-0.8
		c-0.5-0.9-0.2-2.1,0.7-2.6c0.4-0.2,0.8-0.3,1.2-0.4C21.1,23.6,21.1,23.7,21.2,23.8z M20.9,24.8c-0.4,0-0.8,0.4-0.8,0.9
		c0,0.4,0.4,0.8,0.8,0.8c0.5,0,0.8-0.4,0.8-0.9C21.7,25.1,21.3,24.8,20.9,24.8z"/>
	<path id="XMLID_110_" class="st0" d="M15,4.8c-1.4,0-2.9,0-4.3,0c-0.2,0-0.3,0.1-0.4,0C10,4.6,9.7,4.4,9.6,4.2
		c-0.1-0.4,0.2-0.6,0.6-0.6c0.7,0,1.3,0,2,0c2.4,0,4.7,0,7.1,0c0.1,0,0.3,0,0.4,0c0.4,0,0.7,0.2,0.7,0.6c0,0.4-0.3,0.5-0.7,0.5
		c-0.6,0-1.2,0-1.8,0C17,4.8,16,4.8,15,4.8z"/>
	<path id="XMLID_109_" class="st0" d="M25.2,4.8c-0.2-0.2-0.4-0.4-0.4-0.7c0-0.2,0.3-0.5,0.5-0.5c0.2,0,0.5,0.3,0.6,0.5
		c0,0.2-0.2,0.4-0.4,0.7C25.4,4.8,25.3,4.8,25.2,4.8z"/>
	<path id="XMLID_108_" class="st0" d="M28.6,4.8c-0.1-0.2-0.4-0.5-0.4-0.7c0-0.2,0.4-0.5,0.5-0.5c0.2,0,0.5,0.3,0.6,0.5
		c0,0.2-0.3,0.4-0.4,0.6C28.8,4.8,28.7,4.8,28.6,4.8z"/>
	<path id="XMLID_107_" class="st0" d="M32.3,3.5c0.2,0.2,0.4,0.5,0.4,0.7c0,0.2-0.3,0.5-0.6,0.5c-0.1,0-0.5-0.3-0.5-0.5
		c0-0.2,0.2-0.4,0.4-0.7C32.2,3.5,32.2,3.5,32.3,3.5z"/>
</g>
</svg>
