<svg width="42" height="42" viewBox="0 0 42 42" fill="none" xmlns="http://www.w3.org/2000/svg">
<g clip-path="url(#clip0_703_393)">
<g clip-path="url(#clip1_703_393)">
<path d="M38.5999 30.2C37.9999 28.8 36.4 27.7 34.2 28.8C32 30 29.9 31 27.7 32.1C27.6 32.2 27.3999 32.2 27.2999 32.3C27.1999 32 27.1 31.7 27 31.5C26.6 30.7 25.8 30.3 25 30C22 28.7 19 27.4 16 26.1C15.2 25.7 14.3 25.6 13.5 25.9C12.5 26.2 11.5 26.7 10.5 27.2C9.79995 27.5 9.19995 27.8 8.49995 28.1C8.49995 27.9 8.49995 27.7 8.49995 27.6C8.49995 26.8 8.29995 26.7 7.59995 26.7C5.99995 26.7 4.49995 26.7 2.89995 26.7C2.19995 26.7 2.09995 26.8 2.09995 27.5C2.09995 28.3 2.09995 29.1 2.09995 29.9C2.09995 33.4 2.09995 36.8 2.09995 40.3C1.99995 40.8 2.19995 41 2.69995 41C4.39995 41 6.09995 41 7.79995 41C8.19995 41 8.39995 40.8 8.49995 40.4C8.49995 40.1 8.49995 39.7 8.49995 39.4C8.49995 39.1 8.59995 39 8.89995 38.9C10.3 38.5 11.7 38.1 13.1 37.7C13.3 37.6 13.6 37.7 13.7 37.8C14.5 38.3 15.3 38.9 16.1 39.5C17.4 40.4 18.5999 41.6 20.2999 41.9C20.5999 41.9 20.9 41.9 21.2 41.9C21.7 41.7 22.3 41.6 22.7 41.4C27.6 39 32.3999 36.5 37.2999 34.1C38.5999 33.3 39.1999 31.7 38.5999 30.2ZM7.29995 28.1C7.29995 28.2 7.29995 28.2 7.29995 28.3C7.29995 32 7.29995 35.6 7.29995 39.3C7.29995 39.5 7.29995 39.7 7.29995 39.9C5.89995 39.9 4.49995 39.9 3.09995 39.9C3.09995 35.8 3.09995 31.8 3.09995 27.7C3.39995 27.7 3.79995 27.7 4.09995 27.7C4.99995 27.7 5.89995 27.7 6.79995 27.7C7.19995 27.7 7.29995 27.8 7.29995 28.1ZM36.7999 33C35.0999 33.9 33.4 34.8 31.7 35.6C28.7 37.1 25.7 38.6 22.7 40.2C21.9 40.6 21 41 20 40.7C19.6 40.6 19.0999 40.4 18.7999 40.1C17.1999 39 15.6 37.8 14.1 36.7C13.8 36.5 13.4 36.4 13 36.5C11.4 37 9.99995 37.4 8.39995 37.9C8.39995 35.9 8.39995 34.1 8.39995 32.2C8.39995 31.4 8.39995 30.5 8.39995 29.7C8.39995 29.4 8.49995 29.3 8.69995 29.2C10.1 28.5 11.5 27.9 12.9 27.2C13.9 26.8 14.8 26.8 15.7 27.2C17.6 28.1 19.6 28.9 21.5 29.7C22.7 30.2 23.8 30.7 25 31.2C25.6 31.5 25.9 31.9 25.9 32.6C26 33.3 25.7 33.8 25.1 34.2C24.5 34.5 24 34.5 23.4 34.2C21.1 33.2 18.7 32.2 16.4 31.1C16.2 31 16 30.9 15.7 30.8C15.6 31.1 15.4 31.4 15.3 31.8C16.2 32.2 17.1 32.6 18 33C19.7 33.7 21.4 34.5 23.2 35.2C24.6 35.8 25.9999 35.3 26.7999 34C26.8999 33.8 27.2 33.5 27.4 33.4C29.9 32.1 32.4 30.9 34.9 29.6C35.9 29.1 36.9 29.5 37.4 30.4C38 31.5 37.6999 32.5 36.7999 33Z" fill="white"/>
<path d="M10.4999 16C10.9999 16 11.5999 16 12.0999 16C12.3999 16 12.4999 16.1 12.5999 16.4C12.7999 17.1 13.0999 17.7 13.3999 18.3C13.4999 18.4 13.3999 18.7 13.2999 18.8C12.8999 19.2 12.4999 19.6 12.0999 20C11.7999 20.3 11.7999 20.6 12.0999 21C12.9999 22.2 13.9999 23.2 15.1999 24.1C15.5999 24.4 15.8999 24.4 16.1999 24C16.5999 23.5 17.0999 23.1 17.4999 22.7C18.3999 23 19.0999 23.3 19.8999 23.7C19.9999 23.8 20.1999 24 20.1999 24.1C20.1999 24.6 20.1999 25.2 20.1999 25.7C20.1999 26.1 20.2999 26.3 20.7999 26.4C22.2999 26.7 23.6999 26.7 25.1999 26.4C25.7999 26.3 25.8999 26 25.8999 25.5C25.8999 25 25.8999 24.6 25.8999 24.1C25.8999 23.8 25.9999 23.7 26.2999 23.6C26.9999 23.4 27.5999 23.1 28.2999 22.8C28.3999 22.8 28.6999 22.8 28.7999 22.9C29.1999 23.3 29.5999 23.7 29.9999 24.1C30.2999 24.4 30.5999 24.4 30.9999 24.2C32.1999 23.3 33.1999 22.3 34.0999 21.1C34.3999 20.7 34.3999 20.4 33.9999 20.1C33.5999 19.7 33.1999 19.3 32.7999 18.9C32.6999 18.8 32.6999 18.5 32.6999 18.4C32.8999 17.7 33.1999 17.1 33.4999 16.5C33.5999 16.2 33.6999 16.1 33.9999 16.1C34.4999 16.1 34.9999 16.1 35.4999 16.1C35.8999 16.1 36.1999 15.9 36.2999 15.4C36.5999 13.9 36.5999 12.4 36.2999 10.9C36.1999 10.5 35.9999 10.3 35.5999 10.3C35.0999 10.3 34.4999 10.3 33.9999 10.3C33.6999 10.3 33.5999 10.2 33.4999 10C33.1999 9.3 32.9999 8.7 32.6999 8C32.5999 7.7 32.5999 7.6 32.7999 7.4C33.1999 7 33.5999 6.6 33.9999 6.2C34.2999 5.9 34.2999 5.7 34.0999 5.4C33.1999 4.1 32.0999 3.1 30.8999 2.2C30.5999 2 30.2999 2 30.0999 2.2C29.7999 2.5 29.4999 2.8 29.1999 3.1C28.8999 3.5 28.4999 3.7 27.9999 3.3C27.7999 3.1 27.4999 3 27.1999 3C26.1999 2.9 25.8999 2.3 25.9999 1.3C25.8999 1 25.9999 0.4 25.4999 0C23.7999 0 22.1999 0 20.4999 0C20.1999 0.3 20.1999 0.6 20.1999 1C20.1999 1.4 20.1999 1.9 20.1999 2.3C20.1999 2.6 20.0999 2.7 19.7999 2.8C19.1999 3 18.4999 3.3 17.8999 3.6C17.6999 3.7 17.4999 3.7 17.2999 3.5C16.8999 3.1 16.4999 2.8 16.1999 2.4C15.8999 2.1 15.5999 2.1 15.1999 2.3C13.9999 3.2 12.9999 4.2 12.0999 5.4C11.7999 5.8 11.7999 6 12.1999 6.4C12.5999 6.8 12.9999 7.2 13.3999 7.6C13.4999 7.7 13.4999 7.9 13.4999 8.1C13.1999 8.8 12.9999 9.5 12.5999 10.2C12.4999 10.3 12.2999 10.5 12.1999 10.5C11.6999 10.5 11.0999 10.5 10.5999 10.5C10.1999 10.5 9.99993 10.7 9.89993 11.1C9.59993 12.6 9.59993 14.1 9.89993 15.6C9.89993 15.8 10.0999 16 10.4999 16ZM10.7999 11.5C11.3999 11.5 11.9999 11.5 12.5999 11.5C13.0999 11.5 13.2999 11.3 13.4999 10.8C13.7999 9.9 14.1999 9.1 14.5999 8.2C14.7999 7.7 14.7999 7.4 14.3999 7.1C13.9999 6.7 13.5999 6.3 12.9999 5.8C13.7999 4.9 14.5999 4.1 15.4999 3.3C15.9999 3.8 16.4999 4.2 16.8999 4.7C17.2999 5 17.5999 5 17.9999 4.8C18.8999 4.4 19.7999 4 20.6999 3.7C21.0999 3.5 21.2999 3.3 21.2999 2.9C21.2999 2.4 21.2999 1.9 21.2999 1.4C21.2999 1.3 21.4999 1.1 21.5999 1.1C22.5999 1.1 23.4999 1.1 24.4999 1.1C24.5999 1.1 24.7999 1.3 24.7999 1.5C24.7999 2 24.7999 2.6 24.7999 3.1C24.7999 3.5 24.9999 3.7 25.3999 3.8C26.2999 4.2 27.2999 4.5 28.1999 5C28.4999 5 28.6999 5 28.9999 4.7C29.3999 4.2 29.8999 3.8 30.3999 3.2C31.1999 4 31.9999 4.8 32.6999 5.6C32.7999 5.7 32.6999 5.9 32.5999 6C32.1999 6.4 31.8999 6.8 31.4999 7.1C31.1999 7.4 31.1999 7.6 31.3999 7.9C31.7999 8.8 32.1999 9.8 32.5999 10.7C32.6999 11.1 32.8999 11.3 33.2999 11.2C33.8999 11.2 34.5999 11.2 35.2999 11.2C35.2999 12.4 35.2999 13.5 35.2999 14.7C34.5999 14.7 33.9999 14.7 33.3999 14.7C32.9999 14.7 32.7999 14.9 32.5999 15.3C32.2999 16.2 31.8999 17.2 31.4999 18.1C31.2999 18.5 31.2999 18.7 31.5999 19C31.9999 19.4 32.2999 19.8 32.6999 20.1C32.8999 20.3 32.8999 20.4 32.6999 20.6C32.0999 21.2 31.3999 21.9 30.7999 22.5C30.5999 22.7 30.3999 22.7 30.1999 22.5C29.8999 22.1 29.4999 21.8 29.0999 21.4C28.7999 21.1 28.4999 21.1 28.0999 21.2C27.1999 21.6 26.2999 22 25.2999 22.3C24.8999 22.4 24.6999 22.6 24.6999 23C24.6999 23.5 24.6999 24.1 24.6999 24.6C24.6999 24.9 24.5999 25 24.2999 25C23.3999 25 22.3999 25 21.4999 25C21.1999 25 21.0999 24.8 21.1999 24.6C21.1999 24.1 21.1999 23.6 21.1999 23.1C21.1999 22.7 20.9999 22.5 20.5999 22.3C19.6999 21.9 18.6999 21.6 17.7999 21.2C17.3999 21 17.1999 21 16.8999 21.3C16.4999 21.8 15.9999 22.2 15.4999 22.7C14.5999 21.8 13.7999 21 12.8999 20.1C13.4999 19.6 13.8999 19.2 14.3999 18.8C14.6999 18.5 14.6999 18.3 14.4999 17.9C14.0999 17 13.6999 16.1 13.3999 15.1C13.2999 14.7 13.0999 14.5 12.5999 14.5C11.9999 14.5 11.2999 14.5 10.5999 14.5C10.7999 13.8 10.7999 12.7 10.7999 11.5Z" fill="white"/>
<path d="M23 20.8C27.1 20.8 30.5 17.4 30.5 13.3C30.5 9.19999 27.1 5.79999 23 5.79999C18.8 5.79999 15.5 9.19999 15.5 13.3C15.5 17.4 18.9 20.8 23 20.8ZM23 6.79999C26.6 6.79999 29.4 9.69999 29.4 13.2C29.4 16.7 26.5 19.6 23 19.6C19.3 19.6 16.6 16.5 16.7 13.2C16.5 9.79999 19.5 6.79999 23 6.79999Z" fill="white"/>
<path d="M19.8999 16.2C20.8999 17.1 22.4999 17.5 23.5999 17.2C23.6999 17.2 23.8999 17.1 23.9999 17L23.6999 16H23.4999C23.3999 16 23.3999 16 23.2999 16C22.4999 16.2 21.6999 16 20.8999 15.5C20.1999 15 19.7999 14.4 19.6999 13.6C19.5999 12.7 19.7999 11.8 20.2999 11.1C20.7999 10.5 21.4999 9.99998 22.2999 9.99998C22.8999 9.89998 23.1999 9.69998 23.2999 9.09998V8.89998H23.0999C21.4999 8.59998 19.6999 9.59998 18.7999 11.2C18.0999 12.9 18.4999 15 19.8999 16.2Z" fill="white"/>
<path d="M21.6999 12.5C21.3999 13.1 21.4999 13.8 21.8999 14.3C22.3999 14.8 23.0999 15 23.6999 14.7C24.2999 14.4 24.6999 13.8 24.5999 13.1C24.4999 12.7 24.6999 12.5 24.8999 12.3C25.6999 11.6 26.3999 10.8 27.1999 10C26.8999 9.70001 26.6999 9.50001 26.3999 9.20001C25.5999 10 24.7999 10.8 23.9999 11.6C23.8999 11.7 23.5999 11.8 23.3999 11.8C22.6999 11.6 21.9999 11.9 21.6999 12.5ZM23.5999 13.2C23.5999 13.5 23.2999 13.8 22.9999 13.8C22.6999 13.8 22.3999 13.5 22.3999 13.2C22.3999 12.9 22.6999 12.6 22.9999 12.6C23.3999 12.6 23.5999 12.9 23.5999 13.2Z" fill="white"/>
</g>
</g>
<defs>
<clipPath id="clip0_703_393">
<rect width="42" height="42" fill="white"/>
</clipPath>
<clipPath id="clip1_703_393">
<rect width="36.8" height="41.9" fill="white" transform="translate(2)"/>
</clipPath>
</defs>
</svg>
