<?xml version="1.0" encoding="utf-8"?>
<!-- Generator: Adobe Illustrator 19.0.0, SVG Export Plug-In . SVG Version: 6.00 Build 0)  -->
<svg version="1.1" id="Layer_1" xmlns="http://www.w3.org/2000/svg" xmlns:xlink="http://www.w3.org/1999/xlink" x="0px" y="0px"
	 viewBox="0 0 42 42" style="enable-background:new 0 0 42 42;" xml:space="preserve">
<style type="text/css">
	.st0{fill:#1B3ECD;}
</style>
<g id="XMLID_4_">
	<g id="XMLID_109_">
		<path id="XMLID_121_" class="st0" d="M7.3,30.8c0.2-0.1,0.5-0.2,0.7-0.4c2.4,4.2,5.9,6.6,10.7,6.6c3.4,0.1,6.4-1.2,8.8-3.7
			c4.8-5,4.4-13-0.8-17.5c-5.5-4.8-15-3.6-18.7,3.7c-0.2-0.1-0.5-0.3-0.9-0.5c0.9-1.3,1.8-2.5,2.8-3.7c-0.3-0.2-0.7-0.6-1.2-0.9
			C9,14.2,9.2,14,9.5,13.8c0.4,0.4,0.8,0.7,1.2,1.1c3.8-2.8,8-3.7,12.5-2.1c3.5,1.2,6,3.6,7.5,7c3,6.9-0.3,14.8-7.3,17.4
			C16.5,39.8,9.6,36.1,7.3,30.8z"/>
		<path id="XMLID_120_" class="st0" d="M40.8,14.8c-0.6-0.2-1.3-0.4-1.9-0.5c-0.3-0.1-0.5-0.2-0.5-0.6c-0.1-0.8-0.4-1.5-0.6-2.3
			c0-0.2,0-0.5,0.1-0.7c0.4-0.5,0.9-1,1.3-1.4c0-0.1,0-0.1,0-0.1c-0.7-1.1-0.7-1.1-1.8-0.4c-0.8,0.5-1.4,0.6-2.1-0.1
			c-0.3-0.3-0.8-0.5-1.2-0.6c-0.5-0.1-0.7-0.4-0.7-0.9c0-0.6-0.1-1.2-0.1-1.7c-0.1,0-0.1-0.1-0.1-0.1C31.9,5,31.9,5,31.6,6.2
			c0,0.1-0.1,0.2-0.1,0.3c-0.1,0.7-0.4,1-1.2,1.1c-0.6,0-1.2,0.3-1.7,0.5c-0.4,0.2-0.6,0.1-0.9-0.2c-0.4-0.4-0.9-0.8-1.4-1.3
			c-0.4,0.3-0.7,0.6-1.1,0.9c0.3,0.6,0.6,1.2,0.9,1.7c0.2,0.3,0.2,0.5-0.1,0.8c-0.2,0.3-0.4,0.6-0.7,0.9c-0.3-0.1-0.5-0.3-0.7-0.4
			c0-0.1,0-0.1,0-0.2c0.6-0.6,0.4-1.2,0-1.8c-0.3-0.4-0.5-0.8-0.7-1.3c0.7-0.6,1.4-1.1,2.1-1.6c0.1-0.1,0.4,0,0.5,0.1
			c0.4,0.3,0.8,0.7,1.2,1.1c0.3,0.3,0.5,0.4,0.9,0.2c0.3-0.2,0.7-0.3,1-0.3c0.5,0,0.8-0.3,0.9-0.8C30.8,5.4,31,5,31.1,4.5
			c0.1-0.4,0.2-0.5,0.6-0.4c0.6,0.1,1.2,0.2,1.8,0.2c0.5,0,0.8,0.2,0.7,0.8c0,0.5,0,1,0.1,1.5c0,0.2,0.2,0.4,0.4,0.6
			c0.3,0.2,0.7,0.3,0.9,0.5c0.5,0.5,1,0.3,1.5,0c1.4-0.9,1.4-0.8,2.5,0.5c0.3,0.3,0.5,0.7,0.8,1.1c-0.5,0.5-0.9,1-1.4,1.5
			c-0.3,0.3-0.4,0.5-0.2,0.8c0.1,0.2,0.2,0.5,0.2,0.7c0,0.9,0.6,1.3,1.4,1.5c1.3,0.3,1.3,0.3,1.2,1.7c0,0.2-0.1,0.5-0.1,0.7
			c-0.1,0.9-0.2,1-1,0.9c-1.2-0.1-1.9,0.3-2.4,1.4c-0.2,0.5-0.4,0.9,0,1.4c0.3,0.5,0.5,1,0.9,1.6c-0.7,0.6-1.4,1.1-2.1,1.7
			c-0.1,0.1-0.4,0-0.5-0.1c-0.3-0.3-0.6-0.6-0.9-0.9c-0.4-0.4-0.8-0.8-1.4-0.3c-0.1-0.3-0.2-0.6-0.3-0.9c0.3-0.2,0.6-0.3,0.9-0.4
			c0.2,0,0.4,0,0.6,0.1c0.4,0.3,0.8,0.6,1.1,1c0.4,0.4,0.6,0.4,1,0c0.2-0.2,0.4-0.3,0.6-0.5c-0.3-0.6-0.6-1.2-1-1.7
			c-0.2-0.3-0.1-0.5,0.1-0.8c0.4-0.7,0.8-1.4,1.2-2c0.1-0.2,0.4-0.4,0.6-0.4c0.5-0.1,0.9-0.1,1.4-0.1c0.5,0,0.7-0.1,0.7-0.6
			C40.7,15.4,40.7,15.1,40.8,14.8z"/>
		<path id="XMLID_119_" class="st0" d="M12,32c0.2-0.2,0.4-0.4,0.6-0.6c2.3,2.1,4.9,2.9,7.9,2.4c2.2-0.4,4-1.5,5.4-3.3
			c2.7-3.5,2.4-8.4-0.7-11.6c-3-3-8.4-3.9-12.6-0.1c-0.2-0.2-0.4-0.4-0.6-0.6c2.7-3.1,8.8-4.3,13.1-0.7c4.3,3.6,4.8,10,0.9,14.2
			C22.3,35.7,15.7,35.9,12,32z"/>
		<path id="XMLID_118_" class="st0" d="M18.8,18.6c0,0.3,0,0.5,0,0.8c-2,0.1-3.6,1-4.7,2.7c-0.7,1.1-1,2.4-0.8,3.8
			c0.4,2.8,2.7,4.8,5.5,4.9c3.1,0,5.2-2,5.8-5.6c0.3,0,0.5,0,0.8,0c0.4,3-2.6,6.3-6.1,6.5c-3.9,0.2-7.1-2.9-7-6.8
			C12.4,20.5,16.3,18.3,18.8,18.6z"/>
		<path id="XMLID_115_" class="st0" d="M23.3,19.3c0.2,0.2,0.4,0.4,0.7,0.6c-0.2,0.2-0.4,0.4-0.5,0.6c-0.7,0.8-1.4,1.6-2.1,2.4
			c-0.4,0.5-0.9,0.9-0.6,1.8c0.4,0.9-0.3,1.8-1.2,2.2c-0.8,0.4-1.8,0.2-2.4-0.5c-0.6-0.7-0.7-1.7-0.2-2.5c0.5-0.8,1.4-1.2,2.3-0.8
			c0.4,0.1,0.6,0,0.8-0.3c0.9-1,1.8-2,2.7-3C23.1,19.6,23.2,19.5,23.3,19.3z M18.8,26.2c0.6,0,1.1-0.5,1.1-1.1
			c0-0.7-0.5-1.1-1.2-1.1c-0.6,0-1.1,0.5-1.1,1.1C17.7,25.7,18.2,26.2,18.8,26.2z"/>
		<path id="XMLID_114_" class="st0" d="M29.1,11.7c-0.2-0.2-0.3-0.4-0.5-0.6c1.7-1.5,4.6-1.2,6.1,0.7c1.5,1.9,1.2,4.7-0.7,6.2
			c-0.2-0.2-0.3-0.4-0.5-0.6c1.5-2,1.6-3.5,0.5-5C32.9,10.9,31.3,10.7,29.1,11.7z"/>
		<path id="XMLID_113_" class="st0" d="M2.5,22.6c0-0.3,0-0.6,0-0.9c2.7,0,5.4,0,8.1,0c0,0.3,0,0.6,0,0.9
			C7.9,22.6,5.3,22.6,2.5,22.6z"/>
		<path id="XMLID_112_" class="st0" d="M8.3,24.6c0,0.3,0,0.5,0,0.9c-2.7,0-5.4,0-8.1,0c0-0.3,0-0.5,0-0.9
			C2.9,24.6,5.6,24.6,8.3,24.6z"/>
		<path id="XMLID_111_" class="st0" d="M10.6,27.5c0,0.3,0,0.5,0,0.8c-2.7,0-5.4,0-8.1,0c0-0.3,0-0.5,0-0.8
			C5.2,27.5,7.9,27.5,10.6,27.5z"/>
		<path id="XMLID_110_" class="st0" d="M20.7,8.7c0,0.3,0,0.6,0,0.9c-0.2,0-0.5,0-0.7,0c-0.2,0-0.4,0-0.7,0c0,0.8,0,1.5,0,2.3
			c-0.3,0-0.6,0-0.9,0c0-0.7,0-1.5,0-2.3c-0.5,0-0.9,0-1.4,0c0-0.3,0-0.6,0-0.9C18.2,8.7,19.4,8.7,20.7,8.7z"/>
	</g>
</g>
</svg>
