<?xml version="1.0" encoding="utf-8"?>
<!-- Generator: Adobe Illustrator 19.0.0, SVG Export Plug-In . SVG Version: 6.00 Build 0)  -->
<svg version="1.1" id="Layer_1" xmlns="http://www.w3.org/2000/svg" xmlns:xlink="http://www.w3.org/1999/xlink" x="0px" y="0px"
	 viewBox="0 0 42 42" style="enable-background:new 0 0 42 42;" xml:space="preserve">
<style type="text/css">
	.st0{fill:#1B3ECD;}
</style>
<g id="XMLID_263_">
	<path id="XMLID_334_" class="st0" d="M40.5,19.3c0-0.9-0.1-1.7-0.2-2.6c-0.5-3.7-1.9-7-4.3-9.8c-0.3-0.3-0.3-0.5,0-0.9
		c0.9-1.1,1.8-2.3,2.6-3.5c0.2-0.3,0.6-0.7,0.2-1.1c-0.3-0.4-0.7-0.2-1.1,0c-0.1,0-0.1,0.1-0.2,0.1c-1.4,0.9-2.8,1.7-4.3,2.6
		c-0.1-0.1-0.1-0.1-0.2-0.1c-2.8-2.2-6.1-3.6-9.6-4C18.5-0.4,14,0.7,10,3.6c-4.9,3.5-7.6,8.3-8.1,14.3c-0.2,2.8-0.1,5.7-0.2,8.6
		c0,0.7,0.2,0.9,0.9,0.9c1.1,0,2.2,0,3.3,0c0.5,0,0.8,0.1,0.9,0.6c0.1,0.4,0.3,0.8,0.5,1.1c0.1,0.3,0.1,0.5-0.1,0.7
		c-0.8,0.8-1.6,1.6-2.5,2.4c-0.6,0.6-0.6,0.8,0,1.4c1.8,1.8,3.6,3.6,5.4,5.4c0.5,0.5,0.7,0.5,1.3,0c0.8-0.8,1.7-1.7,2.5-2.5
		c0.1-0.1,0.5-0.2,0.6-0.2c0.6,0.2,1.2,0.5,1.8,0.8c0,1.3,0,2.6,0,3.9c0,0.8,0.1,0.9,0.9,0.9c2.6,0,5.2,0,7.8,0
		c0.7,0,0.9-0.2,0.9-0.9c0-1.1,0-2.2,0-3.3c0-0.5,0.1-0.8,0.6-0.9c0.4-0.1,0.7-0.3,1.1-0.5c0.3-0.2,0.5-0.1,0.8,0.1
		c0.8,0.8,1.7,1.7,2.5,2.5c0.5,0.5,0.7,0.5,1.2,0c1.8-1.8,3.7-3.7,5.5-5.5c0.5-0.5,0.5-0.8,0-1.3c-0.8-0.8-1.7-1.7-2.5-2.5
		c-0.2-0.2-0.3-0.4-0.1-0.7c0.2-0.4,0.4-0.8,0.6-1.3c0.1-0.4,0.3-0.5,0.7-0.5c1.2,0,2.3,0,3.5,0c0.7,0,1-0.2,0.9-0.9
		C40.6,24,40.6,21.6,40.5,19.3z M35.2,4.5c0.1-0.1,0.3-0.1,0.5-0.3c-1,1.3-1.8,2.4-2.7,3.6c-1.9,2.5-3.8,5-5.7,7.5
		c-1.3,1.7-2.6,3.3-3.8,5c-1.1,1.5-3.4,1.4-4.9,0.2c-1.2-1-1.7-2.2-1.5-3.8c0.1-0.9,0.5-1.5,1.3-2C24.1,11.4,29.6,7.9,35.2,4.5z
		 M11.6,4c6.6-4.2,15-3.4,20.5,1c-1.3,0.8-2.5,1.5-3.7,2.2c-0.2,0.1-0.5,0-0.7-0.1c-2.4-1.3-5-1.9-7.6-1.6c-5,0.5-8.8,3-11.2,7.4
		c-1.2,2.2-1.6,4.5-1.6,6.9c0,0.5,0,1,0,1.6c-1.4,0-2.8,0-4.2,0C2.5,15.4,4.8,8.3,11.6,4z M39.3,26.1c-0.2,0-0.4,0-0.6,0
		c-1.1,0-2.2,0-3.2,0c-0.5,0-0.7,0.2-0.9,0.6c-0.3,0.8-0.6,1.6-1,2.3c-0.2,0.4-0.2,0.8,0.2,1.2c0.9,0.9,1.8,1.8,2.7,2.7
		c-1.7,1.7-3.4,3.3-5.1,5c-0.8-0.8-1.7-1.7-2.6-2.6c-0.4-0.4-0.7-0.5-1.2-0.2c-0.7,0.4-1.5,0.7-2.2,0.9c-0.4,0.2-0.7,0.4-0.6,0.9
		c0,1.3,0,2.5,0,3.8c-2.4,0-4.7,0-7.1,0c0-0.4,0-0.8,0-1.2c0-0.9,0-1.7,0-2.6c0-0.5-0.2-0.8-0.7-1c-0.8-0.3-1.6-0.7-2.4-1
		c-0.4-0.2-0.7-0.1-0.9,0.2c-0.9,0.9-1.8,1.9-2.8,2.8c-1.7-1.7-3.3-3.3-5-5.1c0.9-0.8,1.8-1.7,2.7-2.6C9,29.8,9,29.5,8.7,28.9
		c-0.4-0.7-0.7-1.4-0.9-2.2c-0.2-0.5-0.4-0.7-0.9-0.7c-1.2,0-2.5,0-3.8,0c0-1.1,0-2.2,0-3.3c0.3,0,0.6,0,1,0c1.2,0,2.4,0,3.5,0
		c0.8,0,0.9-0.2,1-1c0.1-1.7,0-3.5,0.4-5.1c0.7-3.7,2.9-6.5,6.2-8.3c3.7-2.1,7.6-2.1,11.5-0.4c0.1,0,0.2,0.1,0.4,0.2
		c-1.4,0.9-2.8,1.7-4.2,2.6c-1.5,0.9-3,1.8-4.6,2.8c-2.1,1.3-2.8,3-2.1,5.5c0.8,2.8,4,4.4,6.5,3.5c0.7-0.3,1.3-0.7,1.8-1.3
		c2.2-2.9,4.4-5.8,6.6-8.7c0.1-0.2,0.2-0.3,0.4-0.5c1.1,1.6,1.9,3.2,2.1,5.1c0.2,1.5,0.2,3.1,0.2,4.7c0,0.8,0.2,1,1,1
		c1.5,0,2.9,0,4.4,0C39.3,23.9,39.3,24.9,39.3,26.1z M39.3,21.4c-1.4,0-2.8,0-4.2,0c0-0.9,0-1.9,0-2.8c-0.1-2.7-1-5.1-2.5-7.3
		c-0.2-0.3-0.2-0.5,0-0.8c0.8-1,1.5-2,2.3-3.1C37.7,10,40,17.3,39.3,21.4z"/>
	<path id="XMLID_386_" class="st0" d="M30.8,22c-0.4,0-0.6,0.3-0.6,0.7c0,1.4-0.4,2.8-1.1,4.1c-2,3.9-7,5.8-11,4.2
		c-3.7-1.5-5.6-4.3-5.9-8.3c0-0.5-0.2-0.7-0.6-0.7c-0.5,0-0.6,0.3-0.6,0.8c0,0.5,0,1,0.1,1.5c0.8,4.9,5.1,8.5,10.1,8.5
		c3.3,0,6.3-1.5,8.3-4.3c1.2-1.6,1.8-3.5,2-5.5c0-0.1,0-0.2,0-0.3C31.5,22.3,31.3,22,30.8,22z"/>
	<path id="XMLID_389_" class="st0" d="M22,18.9c1.2,0,2.3-1,2.3-2.2c0-1.3-1-2.3-2.3-2.3c-1.2,0-2.3,1-2.3,2.2
		C19.8,17.8,20.8,18.8,22,18.9z M22.1,15.5c0.5,0,1,0.5,1,1c0,0.6-0.5,1-1.1,1c-0.6,0-1-0.5-1-1C21,16,21.5,15.5,22.1,15.5z"/>
</g>
</svg>
