<?xml version="1.0" encoding="utf-8"?>
<!-- Generator: Adobe Illustrator 19.0.0, SVG Export Plug-In . SVG Version: 6.00 Build 0)  -->
<svg version="1.1" id="Layer_1" xmlns="http://www.w3.org/2000/svg" xmlns:xlink="http://www.w3.org/1999/xlink" x="0px" y="0px"
	 viewBox="0 0 42 42" style="enable-background:new 0 0 42 42;" xml:space="preserve">
<style type="text/css">
	.st0{fill:#FFFFFF;}
</style>
<g id="XMLID_593_">
	<path id="XMLID_692_" class="st0" d="M41.9,33.1c-0.3-3.2-1.9-5.5-4.9-7c-0.4-0.2-0.7-0.3-1.1-0.4c-0.1,0-0.3-0.1-0.4-0.1
		c0-0.1,0-0.2,0.1-0.2c0.1-0.3,0.2-0.5,0.2-0.8c0.1-0.3,0.1-0.4,0.4-0.4c0.9,0,1.8,0,2.5,0c0.6,0,1.1-0.3,1.5-0.7
		c0.4-0.4,0.5-0.9,0.5-1.5c-0.1-0.5-0.3-0.7-0.7-0.7l0,0c-0.4,0-0.7,0.3-0.7,0.8c0,0.6-0.1,0.7-0.7,0.7c-0.3,0-0.6,0-0.9,0
		c-0.6,0-1.3,0-1.9,0c-0.7,0-1,0.2-1.1,0.9c0,0.1-0.1,0.3-0.1,0.4c-0.1,0.3-0.2,0.6-0.2,0.9c-0.1,0.3-0.2,0.5-0.6,0.4
		c-0.3,0-0.6,0-1,0.1c-0.3,0.1-0.7,0.1-1,0.2h-0.2c2.7-6,0.1-12-3.9-14.8C23,7.6,17,7.8,12.9,11.2c-4.3,3.6-5.7,9.6-3.2,14.7
		c1.2,2.3,2.9,4.1,5.2,5.3c3.5,1.8,7,1.8,10.6,0.2v0.4c-0.1,0.7-0.1,1.4-0.2,2.1c0,0.1-0.1,0.2-0.2,0.2c-0.5,0.2-1,0.3-1.5,0.4
		c-0.9,0.2-1.1,0.5-1.1,1.4c0,0.3,0,0.7,0,1c0,0.6,0,1.2,0,1.8c0,0.4-0.1,0.6-0.6,0.6c-1,0-2,0-3,0c-0.5,0-0.7-0.1-0.7-0.6
		c0-0.4,0-0.9,0-1.3c0-0.5,0-1.1,0-1.6c0-0.7-0.3-1-0.9-1.2c-1.6-0.4-3.2-1-4.7-1.9c-0.6-0.4-1-0.4-1.6,0.2
		c-0.4,0.4-0.7,0.7-1.1,1.1c-0.3,0.3-0.6,0.6-1,0.9c-0.3,0.3-0.5,0.3-0.8,0c-0.7-0.7-1.4-1.4-2.1-2.1c-0.4-0.4-0.4-0.5,0-0.9
		c0.3-0.3,0.5-0.5,0.8-0.8C7.3,30.7,7.7,30.3,8,30c0.6-0.6,0.7-1,0.2-1.7c-0.9-1.4-1.5-2.9-1.9-4.6c-0.2-0.8-0.5-1-1.3-1H4.1
		c-0.6,0-1.3,0-1.9,0c-0.5,0-0.6-0.1-0.6-0.6c0-1,0-2,0-3c0-0.5,0.1-0.6,0.6-0.6c0.6,0,1.2,0,1.8,0h1c0.8,0,1.1-0.2,1.3-1
		c0.4-1.6,1-3.2,1.9-4.7c0.4-0.7,0.4-1-0.2-1.6c-0.3-0.3-0.6-0.6-0.9-0.9c-0.3-0.4-0.6-0.7-1-1.1c-0.4-0.4-0.4-0.5,0-0.9L7,7.4
		C7.4,7,7.8,6.6,8.1,6.2c0.4-0.4,0.6-0.4,0.9,0c0.3,0.3,0.6,0.6,1,1c0.3,0.3,0.7,0.7,1,1c0.6,0.6,0.9,0.6,1.6,0.2
		c1.5-0.9,3.1-1.6,4.7-1.9c0.8-0.2,1-0.5,1-1.3V4.3c0-0.6,0-1.3,0-1.9c0-0.5,0.1-0.6,0.6-0.6c1,0,2,0,3,0c0.5,0,0.6,0.1,0.6,0.7
		c0,0.5,0,1,0,1.5c0,0.4,0,0.9,0,1.3c0,0.8,0.2,1.1,1,1.2c1.7,0.4,3.3,1.1,4.7,2c0.6,0.4,1,0.3,1.6-0.2c0.7-0.7,1.3-1.3,2-2
		c0.4-0.4,0.6-0.4,1,0c0.6,0.6,1.3,1.3,2.1,2.1c0.3,0.3,0.3,0.5,0,0.9c-0.4,0.4-0.8,0.8-1.1,1.1s-0.6,0.6-0.9,0.9
		c-0.6,0.6-0.6,0.9-0.2,1.6c0.9,1.4,1.5,2.9,1.9,4.6c0.2,0.8,0.5,1,1.3,1c0.5,0,1,0,1.5,0c0.4,0,0.9,0,1.3,0c0.5,0,0.6,0.1,0.6,0.6
		s0.3,0.8,0.8,0.8c0.4,0,0.7-0.4,0.7-0.9c0-1.1-0.8-2-1.9-2c-0.8,0-1.7,0-2.6,0c-0.2,0-0.3-0.1-0.4-0.3c-0.1-0.5-0.2-1-0.4-1.5
		c-0.3-0.7-0.6-1.5-1-2.3c-0.1-0.3-0.3-0.6-0.4-0.9c0.2-0.2,0.3-0.3,0.5-0.5c0.5-0.4,1-0.9,1.4-1.4c0.9-0.9,0.9-1.9,0-2.8
		c-0.7-0.7-1.4-1.4-2.2-2.2c-0.9-0.9-2-0.9-3,0l-0.3,0.3c-0.5,0.5-1,1-1.4,1.5c-0.2,0.2-0.2,0.2-0.4,0.1c-1.3-0.8-2.8-1.4-4.3-1.8
		C24,5.1,24,5,24,4.8c0-0.8,0-1.7,0-2.4c0-1.4-0.8-2.1-2.1-2.1c-1,0-2,0-3,0c-1.3,0-2.1,0.8-2.1,2.1v0.3c0,0.7,0,1.4,0,2.1
		c0,0.2,0,0.3-0.3,0.4c-1.1,0.4-2.2,0.8-3.2,1.2c-0.3,0.1-0.7,0.3-1,0.5C12.2,6.9,12.1,7,12,7l-0.5-0.5c-0.5-0.5-1-1-1.4-1.4
		c-0.9-0.9-2-0.9-2.9,0C6.4,5.8,5.7,6.6,5,7.3c-0.9,0.9-0.9,2,0,3c0.5,0.5,0.9,0.9,1.4,1.4L7,12.1c-0.9,1.5-1.6,3-2,4.7
		c0,0-0.2,0.1-0.3,0.1c-0.5,0-0.9,0-1.4,0c-0.4,0-0.8,0-1.2,0c-1.2,0-2,0.8-2,2c0,1,0,2.1,0,3.1c0,1.3,0.8,2.1,2.1,2.1h0.1
		c0.8,0,1.6,0,2.4,0c0.2,0,0.3,0,0.3,0.3c0.4,1.3,0.8,2.3,1.2,3.3c0.1,0.3,0.3,0.6,0.5,0.9C6.8,28.8,6.9,28.9,7,29
		c-0.2,0.2-0.4,0.4-0.6,0.6c-0.5,0.5-1,0.9-1.5,1.4c-0.8,0.8-0.8,1.9,0,2.7s1.6,1.6,2.4,2.4c0.8,0.8,1.9,0.8,2.7,0
		c0.6-0.5,1.2-1.2,1.8-1.8c0.2-0.2,0.2-0.2,0.5-0.1c1.2,0.6,2.2,1,3.1,1.4c0.3,0.1,0.7,0.2,1.1,0.3c0.1,0,0.3,0.1,0.4,0.1l0,0v0.9
		c0,0.6,0,1.2,0,1.8c0,1.3,0.8,2.1,2.1,2.1c1,0,2,0,3,0c1.4,0,2.1-0.8,2.1-2.1c0-0.3,0-0.6,0-0.9c0-0.5,0-1,0-1.5
		c0-0.1,0.1-0.2,0.1-0.3c0.4-0.1,0.7-0.2,1.1-0.3c0.1,0,0.2-0.1,0.3-0.1c0.3,1.2,0.8,2.2,1.4,3.1c1.3,1.7,3,2.8,5.1,3.2
		c0.1,0,0.2,0,0.2,0c0.2,0,0.4,0,0.5-0.1c0.2-0.1,0.3-0.3,0.3-0.5s0-0.7-0.8-0.9c-2.3-0.5-4.2-2.1-5.1-4.3c-0.8-2.2-0.5-4.7,1-6.6
		c1.8-2.4,4.9-3.3,7.8-2.3c2.7,0.9,4.6,3.7,4.5,6.6c-0.1,3.1-2.3,5.8-5.3,6.6c-0.3,0.1-0.5,0.2-0.6,0.4s-0.1,0.3-0.1,0.5
		c0.1,0.4,0.5,0.6,1.1,0.5c1.1-0.2,2.1-0.7,2.9-1.3C41,38.7,42.2,36.1,41.9,33.1z M11.7,14.7c0.8-1.2,1.7-2.1,2.8-2.8l0.5,0.9
		l-2.4,2.5L11.7,14.7z M11.9,26.3c0.2-0.1,0.5-0.3,0.7-0.4c0.9-0.6,1.1-1,0.6-2c-0.6-1.3-0.8-2.6-0.7-4c0.3-2.8,1.6-4.9,3.9-6.2
		c2.9-1.6,5.8-1.5,8.5,0.4c2.4,1.7,3.6,4.2,3.3,7.3c-0.1,0.9-0.4,1.7-0.7,2.5c-0.4,1.1-0.3,1.5,0.6,2.1c0.2,0.1,0.4,0.3,0.7,0.4
		l0.2,0.1l-0.1,0.1c-0.1,0.2-0.3,0.3-0.4,0.4c-0.2,0.2-0.4,0.4-0.6,0.6c-0.4,0.4-0.7,0.7-1.1,1.1c-0.6,0.7-1.3,1.1-2.2,1.5
		c-3,1.3-6,1.3-8.9-0.1c-1.7-0.8-3-2-4.1-3.6L11.9,26.3z M29,14.8c-0.2,0.1-0.5,0.3-0.7,0.4c0,0-0.1,0-0.2-0.1
		c-0.9-0.8-1.6-1.5-2.2-2.2c0,0-0.1-0.2,0-0.3c0.1-0.2,0.2-0.4,0.3-0.6c0-0.1,0.1-0.1,0.1-0.2c1.1,0.8,2.1,1.7,2.8,2.8
		C29.1,14.7,29,14.7,29,14.8z M21.2,10.3c0-0.1,0-0.1,0-0.2c1.3,0.1,2.6,0.4,3.9,1L24.5,12c-0.2-0.1-0.3-0.1-0.5-0.2
		c-0.5-0.2-1-0.3-1.5-0.5c-0.2-0.1-0.4-0.1-0.6-0.1s-0.3,0-0.5-0.1c-0.1,0-0.2-0.1-0.2-0.1C21.1,10.8,21.1,10.5,21.2,10.3z M29.2,24
		c0.2-0.9,0.4-1.7,0.6-2.5c0-0.1,0.1-0.2,0.1-0.2c0.2,0,0.5,0,0.8,0c0.1,0,0.1,0,0.2,0c-0.1,1.4-0.4,2.7-1,3.9L29,24.7L29.2,24z
		 M29.9,19.8L29,16.4c0.2-0.1,0.5-0.3,0.8-0.4l0.1-0.1c0.6,1.1,0.9,2.4,1,3.8h-1V19.8z M15.8,11.1c1.1-0.6,2.4-0.9,3.8-1.1v1l-3.3,1
		L15.8,11.1z M11.8,24.6L11,25.1c-0.6-1.3-0.9-2.5-1-3.8h1L11.8,24.6z M11.6,17.3c-0.2,0.8-0.4,1.5-0.5,2.3c0,0.2-0.1,0.3-0.3,0.2
		c-0.1,0-0.2,0-0.4,0s-0.3,0-0.5,0c0.1-1.3,0.4-2.5,1-3.8l0.8,0.5L11.6,17.3z"/>
	<path id="XMLID_783_" class="st0" d="M37.3,33.3c0.4-0.4,0.5-0.9,0.4-1.4c-0.1-0.5-0.5-1-1-1.2c-0.7-0.3-1.3-0.2-1.9,0.4
		c-0.5,0.5-0.9,1-1.4,1.5c-0.2,0.2-0.3,0.4-0.5,0.6L32.7,33c-0.2-0.2-0.3-0.3-0.4-0.4c-0.7-0.6-1.6-0.6-2.2,0
		c-0.6,0.6-0.7,1.6-0.1,2.3c0.6,0.6,1.2,1.2,1.8,1.8c0.3,0.3,0.7,0.4,1.1,0.4s0.7-0.1,1-0.4C34.8,35.7,36.1,34.5,37.3,33.3z
		 M36.1,32.4c0,0-0.1,0.1-0.1,0.2c0,0,0,0-0.1,0.1L35.5,33c-0.8,0.8-1.6,1.6-2.4,2.3c-0.1,0.1-0.2,0.1-0.2,0.2c0,0,0,0-0.1,0
		c0,0,0,0-0.1,0c-0.1-0.1-0.1-0.1-0.2-0.2c-0.4-0.4-0.7-0.7-1.1-1.1L31.2,34L31,33.8c0,0,0-0.1,0.1-0.1l0,0c0.1,0,0.2,0,0.3,0.1
		c0.2,0.1,0.3,0.3,0.5,0.5c0.1,0.1,0.2,0.2,0.3,0.3c0.5,0.4,0.8,0.4,1.3,0c0.5-0.5,1-0.9,1.5-1.4l0.8-0.8c0,0,0,0,0.1-0.1
		s0.1-0.1,0.2-0.1c0.1,0,0.2,0,0.2,0C36.2,32.2,36.2,32.3,36.1,32.4z"/>
	<path id="XMLID_786_" class="st0" d="M20.4,22.6L20.4,22.6c0.1,0,0.2,0,0.3-0.1c0.2,0,0.4-0.1,0.5-0.2c0.3-0.2,0.5-0.1,0.9,0.1
		C23,23,24,23.6,25,24.2c0.1,0.1,0.3,0.1,0.4,0.1c0.2,0,0.3,0,0.5-0.1s0.3-0.5,0.3-0.8c0-0.2-0.3-0.4-0.5-0.6c-1-0.7-2-1.3-2.9-1.8
		c-0.3-0.2-0.3-0.3-0.3-0.6c0-0.5-0.2-1-0.5-1.4c-0.4-0.4-0.9-0.6-1.5-0.6l0,0c-0.5,0-1,0.2-1.4,0.6s-0.6,0.9-0.6,1.4
		C18.4,21.7,19.3,22.6,20.4,22.6z M19.9,20.5c0-0.3,0.2-0.5,0.5-0.5l0,0c0.1,0,0.3,0.1,0.4,0.2s0.2,0.2,0.2,0.4
		c0,0.3-0.2,0.5-0.5,0.5l0,0c-0.1,0-0.3-0.1-0.4-0.2C19.9,20.8,19.9,20.7,19.9,20.5z"/>
</g>
</svg>
