<svg width="42" height="42" viewBox="0 0 42 42" fill="none" xmlns="http://www.w3.org/2000/svg">
<g clip-path="url(#clip0_698_98)">
<g clip-path="url(#clip1_698_98)">
<path d="M19.6 8.09999C19 8.59999 18.8 9.49999 19.1 10.2C19.4 10.9 20 11.3 20.8 11.3C21.8 11.3 22.3 10.6 22.8 9.89999C24 8.19999 25.1 6.59999 26.3 4.89999C26.5 4.59999 26.8 4.19999 26.5 3.79999C26.1 3.39999 25.7 3.59999 25.4 3.89999C24.2 4.69999 23 5.59999 21.8 6.39999C21 6.99999 20.3 7.49999 19.6 8.09999ZM23.3 7.19999C22.7 7.99999 22.1 8.89999 21.5 9.69999C21.2 10.1 20.9 10.3 20.5 9.89999C20.1 9.59999 20.3 9.19999 20.7 8.89999C21.5 8.29999 22.4 7.69999 23.2 6.99999C23.2 7.09999 23.2 7.09999 23.3 7.19999Z" fill="#1B3ECD"/>
<path d="M23.8 15.7C21.9 15.7 20 15.7 18.1 15.7C17.5 15.7 17.3 15.9 17.3 16.6C17.3 17.2 17.3 17.7 17.3 18.3C17.3 19.1 17.5 19.3 18.3 19.3C19.2 19.3 20.1 19.3 21 19.3C21.9 19.3 22.8001 19.3 23.7001 19.3C24.5001 19.3 24.7001 19.1 24.7001 18.3C24.7001 17.7 24.7001 17.2 24.7001 16.6C24.6001 15.9 24.4 15.7 23.8 15.7ZM23.3 17.9C21.7 17.9 20.2 17.9 18.6 17.9C18.6 17.6 18.6 17.3 18.6 17C20.2 17 21.7 17 23.3 17C23.3 17.3 23.3 17.6 23.3 17.9Z" fill="#1B3ECD"/>
<path d="M19.8 3.89999C20.8 3.79999 21.9 3.99999 22.9 3.99999C23.3 3.99999 23.6 3.99999 23.7 3.49999C23.8 3.09999 23.6 2.79999 23.1 2.69999C17.4 1.29999 12.3 5.49999 12.1 10.7C12.1 10.8 12.1 11 12.1 11.1C12.1 11.5 12.3 11.8 12.7 11.8C13.1 11.8 13.3 11.6 13.4 11.2C13.4 11 13.4 10.8 13.5 10.6C13.8 7.29999 16.3 4.39999 19.8 3.89999Z" fill="#1B3ECD"/>
<path d="M28.5 11.4C28.5 11.8 28.7 12 29.1 12C29.5 12 29.7 11.7 29.7 11.4C29.7 11.3 29.7 11.2 29.7 11.2C29.6 9.29999 29.1 7.59999 27.9 6.09999C27.7 5.79999 27.4 5.59999 27 5.89999C26.6 6.19999 26.6 6.49999 26.9 6.79999C28 8.09999 28.5 9.69999 28.5 11.4Z" fill="#1B3ECD"/>
<path d="M5.00005 23.6C4.60005 23.6 4.30005 23.9 4.30005 24.3C4.30005 25.4 4.30005 26.5 4.30005 27.5C4.30005 27.9 4.50005 28.1 4.90005 28.1C5.30005 28.1 5.50005 27.8 5.50005 27.4C5.50005 26.9 5.50005 26.4 5.50005 25.8V24.2C5.60005 23.8 5.40005 23.6 5.00005 23.6Z" fill="#1B3ECD"/>
<path d="M37.4 24.9C37 24.9 36.7 25.2 36.7 25.6C36.7 25.8 36.7 25.9 36.7 25.9C36.7 26 36.7 26.1 36.7 26.2C36.7 26.6 36.8999 26.8 37.2999 26.8C37.6999 26.8 37.9 26.5 37.9 26.1C37.9 25.9 37.9 25.7 37.9 25.5C38 25.2 37.8 25 37.4 24.9Z" fill="#1B3ECD"/>
<path d="M42 33.4C42 27.2 42 20.9 42 14.7C42 14.3 42 13.8 41.9 13.5C41.5 11.8 40.1 10.7 38.1 10.7C36.4 10.7 34.8 10.7 33.1 10.7C32.9 10.7 32.6 10.7 32.4 10.7C32.4 10.4 32.3 10.2 32.3 10C31.5 5.6 29.2 2.5 25 0.900004C18.1 -1.9 10.7 2.7 9.7 10C9.6 10.5 9.5 10.6 9 10.6C7.4 10.6 5.7 10.6 4.1 10.6C1.5 10.6 0 12.1 0 14.7C0 21.1 0 27.5 0 33.8V36.8C0 39.3 1.3 42 4.9 42H38C40.6 42 42 40.2 42 37.1V33.4ZM21 1.3C26.6 1.3 31.1 5.8 31 11.5C31 17 26.4 21.5 20.9 21.4C15.3 21.4 10.9 16.8 10.9 11.2C10.9 5.8 15.5 1.3 21 1.3ZM38 40.7H4.9C1.6 40.7 1.3 37.9 1.3 36.7V34.6V34.1V32.8V29.2C1.3 24.3 1.3 19.5 1.3 14.6C1.3 12.8 2.2 11.8 4 11.8C5.7 11.8 7.4 11.8 9.1 11.8C9.5 11.8 9.6 12 9.7 12.3C10.5 20.5 19.1 25.2 26.4 21.3C29.8 19.5 31.7 16.6 32.3 12.8C32.4 12.5 32.4 12.2 32.4 11.8C32.6 11.8 32.8 11.8 33 11.8C34.6 11.8 36.2 11.8 37.8 11.8C39.8 11.8 40.7 12.7 40.7 14.7C40.7 20.6 40.7 26.5 40.7 32.4C40.7 33 40.7 33.5 40.7 34.1V34.5C40.7 34.6 40.7 34.6 40.7 34.7V37.2C40.7 39.5 39.8 40.7 38 40.7Z" fill="#1B3ECD"/>
<path d="M31.2 24.2L23.4 31.6L20.8 27C20.7 26.8 20.5 26.7 20.3 26.7C20.1 26.7 19.9 26.8 19.8 26.9L12.9 34.5L10.2 31.6C9.99995 31.3 9.59995 31.3 9.29995 31.6C8.99995 31.8 8.99995 32.2 9.29995 32.5L12.5 35.8C12.6 35.9 12.8 36 13 36C13.2 36 13.3 35.9 13.5 35.8L20.3 28.4L22.9 32.9C23 33.1 23.2 33.2 23.4 33.2C23.6 33.2 23.8 33.2 23.9 33L32.2999 25C32.5999 24.8 32.5999 24.4 32.2999 24.1C31.8999 24 31.5 24 31.2 24.2Z" fill="#1B3ECD"/>
</g>
</g>
<defs>
<clipPath id="clip0_698_98">
<rect width="42" height="42" fill="white"/>
</clipPath>
<clipPath id="clip1_698_98">
<rect width="42" height="42" fill="white"/>
</clipPath>
</defs>
</svg>
