<?xml version="1.0" encoding="utf-8"?>
<!-- Generator: Adobe Illustrator 19.0.0, SVG Export Plug-In . SVG Version: 6.00 Build 0)  -->
<svg version="1.1" id="Layer_1" xmlns="http://www.w3.org/2000/svg" xmlns:xlink="http://www.w3.org/1999/xlink" x="0px" y="0px"
	 viewBox="0 0 42 42" style="enable-background:new 0 0 42 42;" xml:space="preserve">
<style type="text/css">
	.st0{fill:#FFFFFF;}
</style>
<g id="XMLID_20_">
	<path id="XMLID_322_" class="st0" d="M21.2,1.2c-4.4,0-8.9,0-13.3,0c-1.3,0-1.7,0.4-1.7,1.6c0,6.2,0,12.3,0,18.5
		C6.2,22.8,6.5,23,8,23c2.2,0,4.5,0,6.7,0c0.2,0,0.5,0,0.7,0.1c0.2,0.1,0.4,0.3,0.4,0.5c0,0.2-0.2,0.4-0.4,0.6
		c-0.1,0.1-0.3,0.1-0.5,0.1c-2.4,0-4.8,0-7.2,0c-1.8,0-2.8-1-2.8-2.8C5,15.3,5,9.1,5,2.9C5,0.9,5.9,0,8,0c8.9,0,17.8,0,26.7,0
		c1.7,0,2.7,0.9,2.7,2.6c0,6.4,0,12.8,0,19.2c0,1.4-1,2.4-2.5,2.4c-2.5,0-4.9,0-7.4,0c-0.3,0-0.7-0.3-0.7-0.6
		c-0.1-0.5,0.3-0.6,0.8-0.6c2.3,0,4.6,0,7,0c1.3,0,1.7-0.4,1.7-1.7c0-6.1,0-12.2,0-18.3c0-1.6-0.3-1.9-1.9-1.9
		C29.9,1.2,25.5,1.2,21.2,1.2C21.2,1.2,21.2,1.2,21.2,1.2z"/>
	<path id="XMLID_319_" class="st0" d="M21.2,3.8c3.6,0,7.3,0,10.9,0c0.9,0,1,0.1,1,1c0,2.2,0,4.5,0,6.7c0,0.8-0.2,0.9-0.9,0.9
		c-7.2,0-14.5,0-21.7,0c-1.1,0-1.2-0.1-1.2-1.2c0-2.2,0-4.4,0-6.5c0-0.8,0.1-0.9,0.9-0.9C13.8,3.7,17.5,3.7,21.2,3.8
		C21.2,3.7,21.2,3.8,21.2,3.8z M21.2,11.2C21.2,11.2,21.2,11.2,21.2,11.2c3.4,0,6.7,0,10.1,0c0.5,0,0.7-0.1,0.7-0.6
		c0-1.7,0-3.4,0-5.1c0-0.4-0.2-0.6-0.6-0.6c-0.7,0-1.5,0-2.2,0c-6,0-11.9,0-17.9,0c-0.7,0-0.9,0.2-0.9,0.9c0,1.5,0,3.1,0,4.6
		c0,0.6,0.2,0.8,0.8,0.8C14.5,11.2,17.8,11.2,21.2,11.2z"/>
	<path id="XMLID_318_" class="st0" d="M25.3,33.9c-0.9-0.9-0.9-2-0.9-3.1c0-2.4,0-4.9,0-7.3c0-0.4,0-1,0.6-1c0.6,0,0.6,0.5,0.6,1
		c0,2.6,0,5.2,0,7.8c0,0.1,0,0.2,0,0.3c0.1,0.4,0.3,0.7,0.5,1.1c0.4-0.2,1.1-0.3,1.3-0.7c1.4-2.5,5.2-2.7,6.6,0.1
		c0.1,0.2,0.4,0.4,0.7,0.5c2.7,0.5,4.4,2.1,5.1,4.8c0.1,0.3,0.3,0.6,0.6,0.8c0.9,0.7,1.4,1.7,1.5,2.8c0,0.4,0,0.9-0.5,0.9
		c-0.5,0.1-0.6-0.4-0.7-0.8c-0.3-1.8-1.5-2.7-3.2-2.4c-0.4,0.1-0.8,0-0.9-0.4c-0.1-0.5,0.3-0.7,0.7-0.7c0.4-0.1,0.8-0.1,1.3-0.2
		c-0.2-1-0.8-1.9-1.6-2.4c-0.6-0.4-1.3-0.7-2-1c-0.4-0.2-0.7-0.1-0.7,0.4c-0.1,0.4-0.3,0.7-0.7,0.6c-0.5-0.1-0.5-0.5-0.4-0.9
		c0.2-1.1-0.3-2-1.2-2.5c-0.9-0.5-2-0.3-2.8,0.4c-0.4,0.3-0.4,0.6,0,1c0.2,0.2,0.4,0.7,0.3,0.9c-0.2,0.4-0.6,0.3-1,0
		c-0.6-0.5-1.2-0.4-1.7,0.3c-0.2,0.3-0.6,0.7-0.9,0.9c-0.8,0.5-1.4,1.5-1.3,2.4c0.1,0.4,0.2,0.6,0.7,0.7c1.2,0.1,2.2,0.7,2.8,1.7
		c0.2,0.3,0.4,0.7,0,1c-0.4,0.3-0.7,0-1-0.3c-1.2-1.7-3.3-1.6-4.3,0.2c-0.2,0.4-0.4,0.7-0.9,0.5c-0.5-0.2-0.4-0.7-0.2-1
		c0.4-0.6,1-1.1,1.5-1.6c0.1-0.1,0.3-0.3,0.3-0.5C23.1,35.8,23.3,35.3,25.3,33.9z"/>
	<path id="XMLID_317_" class="st0" d="M13.4,32.7c-0.6-1-1.4-1.4-2.4-1.3C10,31.5,9.3,32,9,33c-0.2,0.7-0.6,0.9-1.2,0.9
		c-2.1,0-4.1,2.1-4.3,3.5c0.4,0,0.8,0.1,1.3,0.2c0.4,0.1,0.8,0.2,0.7,0.7c-0.1,0.5-0.5,0.5-0.9,0.4c-1.8-0.3-3,0.7-3.3,2.4
		C1.2,41.6,1.1,42,0.6,42c-0.5,0-0.6-0.5-0.6-0.9c0.1-1.2,0.7-2.1,1.5-2.9C1.8,38,2,37.7,2.1,37.4c0.8-2.6,2.4-4.2,5.1-4.7
		c0.3-0.1,0.6-0.3,0.8-0.6c0.7-1.2,1.8-1.9,3.2-1.9c1.4,0,2.4,0.7,3.3,1.8c0.4,0.5,1.1,0.8,1.6,1.1c0.1,0,0.3-0.1,0.4-0.2
		c0.2-0.5,0.4-0.9,0.4-1.4c0-2.6,0-5.2,0-7.8c0-0.2-0.1-0.5,0-0.6c0.1-0.2,0.4-0.5,0.6-0.5c0.2,0,0.4,0.3,0.5,0.5
		c0.1,0.1,0,0.4,0,0.5c0,2.6,0,5.3,0,7.9c0,1-0.3,1.8-1,2.5c-0.2,0.2-0.3,0.5-0.2,0.8c0,0.2,0.4,0.3,0.6,0.4c1.6,0.3,2.7,1.5,3,3
		c0.1,0.4,0,0.7-0.4,0.9c-0.5,0.1-0.6-0.2-0.8-0.6c-0.6-2.2-2.4-2.8-4.2-1.4c-0.2,0.2-0.7,0.2-0.9,0.1c-0.4-0.3-0.2-0.6,0.1-0.9
		c0.3-0.3,0.6-0.5,0.9-0.7c0.5-0.4,0.6-0.9,0.2-1.3c-0.4-0.5-1-0.6-1.5-0.2c-0.3,0.3-0.7,0.6-1.1,0.2c-0.4-0.4,0-0.8,0.3-1.1
		C13.1,32.9,13.3,32.8,13.4,32.7z"/>
	<path id="XMLID_316_" class="st0" d="M14,16.1c-1.3,0-2.6,0-3.9,0c-0.4,0-0.9-0.1-0.9-0.6c0-0.5,0.4-0.6,0.9-0.6c2.6,0,5.2,0,7.8,0
		c0.4,0,0.9,0.1,0.9,0.6c0,0.6-0.5,0.6-0.9,0.6C16.5,16.1,15.2,16.1,14,16.1C14,16.1,14,16.1,14,16.1z"/>
	<path id="XMLID_315_" class="st0" d="M20.1,19.5c-1.1,0-2.2,0-3.3,0c-0.5,0-0.9-0.1-0.9-0.7c0-0.5,0.5-0.6,0.9-0.6
		c2.2,0,4.4,0,6.6,0c0.5,0,0.9,0.1,0.9,0.6c0,0.5-0.4,0.6-0.9,0.6C22.3,19.5,21.2,19.5,20.1,19.5z"/>
	<path id="XMLID_314_" class="st0" d="M12,18.3c0.7,0,1.4,0,2.1,0c0.4,0,0.8,0.2,0.8,0.6c0,0.5-0.4,0.6-0.8,0.6c-1.4,0-2.7,0-4.1,0
		c-0.4,0-0.9-0.1-0.9-0.6c0-0.5,0.4-0.6,0.9-0.6C10.7,18.3,11.4,18.3,12,18.3z"/>
	<path id="XMLID_313_" class="st0" d="M30.8,19.5c-0.5,0-1.1,0-1.6,0c-0.4,0-0.7-0.2-0.7-0.6c0-0.4,0.3-0.6,0.7-0.6c1,0,2.1,0,3.1,0
		c0.4,0,0.8,0.1,0.8,0.6c0,0.5-0.3,0.7-0.8,0.7C31.8,19.5,31.3,19.5,30.8,19.5C30.8,19.5,30.8,19.5,30.8,19.5z"/>
	<path id="XMLID_312_" class="st0" d="M20.6,28.9c0,0.6,0,1.1,0,1.7c0,0.4-0.1,0.8-0.6,0.7c-0.2,0-0.6-0.4-0.6-0.7
		c-0.1-1.2,0-2.3,0-3.5c0-0.4,0.1-0.7,0.6-0.7c0.5,0,0.6,0.4,0.6,0.8C20.6,27.8,20.6,28.3,20.6,28.9z"/>
	<path id="XMLID_311_" class="st0" d="M21.7,14.9c0.4,0,0.9-0.1,1.3,0c0.3,0.1,0.5,0.4,0.7,0.6c-0.2,0.2-0.5,0.6-0.7,0.6
		c-0.9,0.1-1.7,0-2.6,0c-0.4,0-0.7-0.2-0.7-0.6c0-0.5,0.3-0.6,0.7-0.6C20.8,14.9,21.3,14.9,21.7,14.9z"/>
	<path id="XMLID_310_" class="st0" d="M23.2,30.9c0,0.4,0,0.9,0,1.3c0,0.4-0.2,0.8-0.6,0.7c-0.2,0-0.5-0.4-0.6-0.7
		c-0.1-0.9,0-1.8,0-2.6c0-0.4,0.2-0.7,0.6-0.7c0.4,0,0.6,0.3,0.6,0.8C23.2,30,23.2,30.5,23.2,30.9C23.2,30.9,23.2,30.9,23.2,30.9z"
		/>
	<path id="XMLID_309_" class="st0" d="M26.6,19.5c-0.2,0-0.4,0.1-0.5,0c-0.2-0.1-0.5-0.4-0.5-0.6c0-0.2,0.3-0.5,0.5-0.6
		c0.3-0.1,0.6,0,0.9,0c0.4,0,0.8,0.2,0.7,0.6c0,0.2-0.4,0.4-0.7,0.6C26.9,19.6,26.7,19.5,26.6,19.5C26.6,19.5,26.6,19.5,26.6,19.5z"
		/>
	<path id="XMLID_308_" class="st0" d="M23.5,34.4c-0.4,0.3-0.6,0.7-0.9,0.7c-0.4,0.1-0.7-0.3-0.6-0.7c0.1-0.3,0.4-0.7,0.6-0.7
		C22.8,33.7,23.1,34.1,23.5,34.4z"/>
</g>
</svg>
