<?xml version="1.0" encoding="utf-8"?>
<!-- Generator: Adobe Illustrator 19.0.0, SVG Export Plug-In . SVG Version: 6.00 Build 0)  -->
<svg version="1.1" id="Layer_1" xmlns="http://www.w3.org/2000/svg" xmlns:xlink="http://www.w3.org/1999/xlink" x="0px" y="0px"
	 viewBox="0 0 42 42" style="enable-background:new 0 0 42 42;" xml:space="preserve">
<style type="text/css">
	.st0{fill:#FFFFFF;}
</style>
<g id="XMLID_6_">
	<path id="XMLID_75_" class="st0" d="M5.5,21.1c0-5.3,0.1-10.7,0-16c0-2.6,1.9-4.5,4.5-4.5c5.5,0.1,11,0.1,16.5,0
		c2.7,0,4.7,1.9,4.5,4.5c-0.1,0.8,0,1.6,0,2.4c0,0.5-0.2,0.8-0.7,0.8c-0.5,0-0.7-0.3-0.7-0.8c0-0.9,0-1.8,0-2.8
		c0-1.7-1.2-2.8-2.8-2.8C21.1,2,15.4,2,9.7,2C8,2,6.9,3.2,6.9,4.9c0,10.9,0,21.7,0,32.6c0,1.7,1.1,2.8,2.8,2.8c5.7,0,11.4,0,17.2,0
		c1.7,0,2.8-1.2,2.8-2.8c0-2.3,0-4.6,0-6.9c0-0.2,0-0.4,0-0.5c0-0.4,0.2-0.7,0.7-0.7c0.4,0,0.6,0.3,0.7,0.7c0,0.6,0,1.3,0,1.9
		c0,1.9,0,3.7,0,5.6c0,2.3-1.7,4.1-4,4.1c-5.8,0-11.6,0-17.4,0c-2.3,0-4-1.7-4-4.1C5.5,32.1,5.5,26.6,5.5,21.1z"/>
	<path id="XMLID_74_" class="st0" d="M12.9,15.5c-1.6,1-1.9,2.9-0.2,4.2c-0.4,1.9,0,2.7,1.7,3.3c0,0.3-0.1,0.7-0.1,1
		c0.1,1.2,1,2.1,2.3,2.1c2.5,0,5,0.1,7.5,0c0.8,0,1.6-0.3,2.3-0.5c0.2-0.1,0.4-0.6,0.3-0.8c-0.1-0.2-0.5-0.3-0.8-0.4
		c0,0-0.1,0-0.1,0c-0.8,0.1-1.6,0.4-2.4,0.4c-2.1,0.1-4.2,0-6.3,0c-0.2,0-0.4,0-0.5,0c-0.5,0-1-0.4-1-0.9c0-0.5,0.4-0.8,1-0.9
		c0.5,0,1,0,1.5,0c0.5,0,0.9-0.1,0.9-0.7c0-0.6-0.4-0.7-0.9-0.7c-1,0-2.1,0-3.1,0c-0.7,0-1.2-0.3-1.2-0.9c0-0.6,0.4-0.9,1.2-0.9
		c0.7,0,1.3,0,2,0c0.5,0,1.1,0.1,1.2-0.6c0.1-0.5-0.3-0.7-1.2-0.7c-1,0-2,0-3,0c-0.7,0-1.2-0.3-1.2-0.9c0-0.5,0.4-0.9,1.1-0.9
		c1.4,0,2.8,0,4.1,0c0.5,0,0.9-0.1,0.9-0.7c0-0.6-0.4-0.7-0.9-0.7c-0.9,0-1.9,0-2.8,0c-0.8,0-1.2-0.3-1.2-0.8c0-0.6,0.4-0.9,1.2-0.9
		c2.1,0,4.2,0,6.2,0c1,0,1.3-0.4,0.8-1.3c-0.7-1.2-1.3-2.4-1.5-3.8c-0.2-1.1,0.3-1.9,1.1-2.2c0.5-0.1,0.9,0,1.1,0.5
		c0.7,1.8,1.8,3.2,3.1,4.5c0.4,0.3,0.8,0.6,1.2,0.2c0.4-0.5,0.1-0.8-0.3-1.2c-1.2-1.1-2.2-2.4-2.8-3.9c-0.6-1.7-2.5-1.8-3.7-0.9
		c-0.8,0.6-1.3,1.4-1.2,2.4c0.1,1.1,0.5,2.2,0.8,3.3c0.1,0.3,0.3,0.7,0.5,1.1c-0.2,0-0.4,0.1-0.6,0.1c-1.6,0-3.1,0-4.7,0
		C13.4,12.2,12.5,13.4,12.9,15.5z"/>
	<path id="XMLID_71_" class="st0" d="M29.2,18.5c0-1.8,0-3.5,0-5.3c0-1.4,0.7-2.1,2.1-2.1c1.2,0,2.3,0,3.5,0c1.3,0,2.1,0.7,2.1,2
		c0,3.6,0,7.2,0,10.8c0,1.3-0.8,2-2.1,2c-1.1,0-2.3,0-3.4,0c-1.4,0-2.1-0.7-2.1-2.1C29.2,22,29.2,20.2,29.2,18.5z M30.5,18.5
		c0,1.7,0,3.5,0,5.2c0,0.7,0.2,0.9,0.9,0.9c1.1,0,2.1,0,3.2,0c0.6,0,0.9-0.2,0.9-0.8c0-3.5,0-7,0-10.5c0-0.6-0.3-0.8-0.9-0.8
		c-1.1,0-2.1,0-3.2,0c-0.8,0-0.9,0.1-0.9,0.9C30.5,15,30.5,16.8,30.5,18.5z"/>
	<path id="XMLID_70_" class="st0" d="M14.5,6.1c-0.8,0-1.6,0-2.5,0c-0.2,0-0.5,0-0.5-0.7c0-0.6,0.2-0.7,0.4-0.7c1.7,0,3.3,0,5,0
		c0,0,0.1,0,0.1,0c0.2,0.1,0.3,0.3,0.3,0.7c0,0.4-0.1,0.6-0.3,0.6c-0.5,0-0.9,0-1.4,0C15.3,6.1,14.9,6.1,14.5,6.1z"/>
	<path id="XMLID_69_" class="st0" d="M18.2,36.8c-1.9,0-3.8,0-5.6,0c-0.5,0-1,0-1-0.7c0-0.6,0.5-0.7,0.9-0.7c3.8,0,7.6,0,11.4,0
		c0.5,0,0.9,0.1,0.9,0.7c0,0.6-0.4,0.7-0.9,0.7C22.1,36.8,20.1,36.8,18.2,36.8C18.2,36.8,18.2,36.8,18.2,36.8z"/>
</g>
</svg>
