<?xml version="1.0" encoding="utf-8"?>
<!-- Generator: Adobe Illustrator 19.0.0, SVG Export Plug-In . SVG Version: 6.00 Build 0)  -->
<svg version="1.1" id="Layer_1" xmlns="http://www.w3.org/2000/svg" xmlns:xlink="http://www.w3.org/1999/xlink" x="0px" y="0px"
	 viewBox="0 0 42 42" style="enable-background:new 0 0 42 42;" xml:space="preserve">
<style type="text/css">
	.st0{fill:#1B3ECD;}
</style>
<g id="XMLID_846_">
	<path id="XMLID_859_" class="st0" d="M42.1,4.6c0-2-1.3-3.3-3.4-3.3c-1.4,0-4.2,0-8.2,0l-8.2,0c-6.1,0-12.5,0-18.8,0
		C1.3,1.3,0,2.6,0,4.7c0,6.6,0,14.7,0,21.2c0,2.1,1.3,3.4,3.4,3.4c0.8,0,1.6,0,2.6,0c1,0,1.9,0,2.9,0l0.4,0c0.5,0,0.8-0.1,1-0.3
		c0.1-0.1,0.2-0.3,0.2-0.6c0-0.4-0.2-0.8-1.2-0.8c-0.7,0-1.5,0-2.2,0c-0.3,0-3,0-3,0c-2.1,0-2.5-0.4-2.5-2.4c0-3.4,0-6.7,0-10l0-3.3
		c0-1.5,0.2-1.6,1.6-1.6c2.5,0,4.9,0,7.4,0l8.5,0l0.1,0l9.2,0c4.9,0,8.3,0,10.7,0c0.4,0,0.7,0,1,0.3c0.2,0.2,0.3,0.5,0.3,1
		c0,2.6,0,5.3,0,7.8v0.1c0,2,0,4.1,0,6.1c0,1.5-0.5,2-2.1,2c-0.5,0-1.3,0-2.1,0l-4.1,0c-1.5,0-2.5,0-3.1,0c-1,0-1.2,0.4-1.2,0.8
		c0,0.2,0.1,0.4,0.2,0.5c0.2,0.2,0.5,0.3,1,0.3c0.8,0,3.1,0,5.3,0c2.1,0,3.5,0,4.2,0c0.7,0,1.4-0.2,2-0.5c1-0.5,1.5-1.5,1.5-3
		c0-2,0-4.1,0-6.3v-0.1C42.1,14.4,42.1,9.2,42.1,4.6z M40.3,8.1c0,0.6-1.3,0.6-1.3,0.6c-3.6,0-8.8,0-13,0l-7,0c-1.2,0-2.4,0-3.6,0
		c-1.6,0-3.1,0-4.7,0c-3,0-5.5,0-7.7,0l0,0C2.5,8.7,2.2,8.6,2,8.4C1.7,8.2,1.6,7.8,1.6,7.2c0-2.3,0.1-4.3,2.7-4.3l11.8,0
		c6.7,0,15.2,0,22,0c0.5,0,1.8,0.2,2,0.8C40.4,4.4,40.4,5.9,40.3,8.1z"/>
	<path id="XMLID_885_" class="st0" d="M20.8,35.3c-0.7-0.4-0.9-1-0.9-1.7c0-4.5,0-9.1,0-13.5l0-0.7c0-0.8-0.2-1.1-0.8-1.2
		c0,0,0,0,0,0c-0.5,0-0.8,0.4-0.8,1.2c0,1.7,0,3.4,0,5.1l0,2.1c0,0.6,0,1.2,0,1.9l0,0c0,1.7,0,3.4,0,5.1c0,0.6-0.1,1.2-0.9,1.7
		c-1.2,0.8-1.8,2.1-1.4,3.5c0.4,1.4,1.6,2.3,3,2.3l0.1,0c1.5,0,2.6-0.9,3-2.4C22.6,37.4,22,36,20.8,35.3z M19.2,39.4
		C19.2,39.4,19.2,39.4,19.2,39.4c-0.5,0-0.9-0.2-1.2-0.5c-0.3-0.3-0.4-0.7-0.4-1.1c0-0.9,0.6-1.4,1.5-1.5c0,0,0,0,0.1,0
		c0.8,0,1.5,0.7,1.5,1.6C20.6,38.9,20.1,39.4,19.2,39.4z"/>
	<path id="XMLID_888_" class="st0" d="M15.2,26.3c0-0.1,0-0.3,0-0.4l0-1c0-0.6,0-1.3,0-1.9c0-0.7-0.3-1.1-0.8-1.1l0,0
		c-0.5,0-0.8,0.4-0.8,1.1c0,0.4,0,0.8,0,1.2l0,0c0,1.2,0,2.4,0,3.5c0.1,1.4-0.6,2.2-1.3,3l-0.2,0.2c-0.3,0.4-0.7,0.5-1.1,0.5
		c-0.2,0-0.4,0-0.6-0.1c-0.1,0-0.3-0.1-0.4-0.1c-0.1,0-0.1,0-0.2,0c-1.3,0-2.5,0.8-3,1.9c-0.5,1.3-0.2,2.8,0.8,3.6
		c0.6,0.5,1.4,0.8,2.1,0.8c0.6,0,1.1-0.1,1.6-0.4c1.2-0.7,1.9-2.2,1.5-3.3c-0.3-0.9-0.1-1.5,0.6-2c1.4-1.1,2-2.6,1.8-4.5
		C15.2,26.9,15.2,26.6,15.2,26.3z M9.8,35.9c-0.1,0-0.1,0-0.1,0c-0.4,0-0.8-0.2-1.1-0.5c-0.3-0.3-0.4-0.7-0.4-1.1
		c0-0.9,0.6-1.5,1.5-1.5l0,0h0c0.9,0,1.4,0.5,1.5,1.5C11.2,35.3,10.7,35.8,9.8,35.9z"/>
	<path id="XMLID_891_" class="st0" d="M28.8,31.2c-0.2,0-0.4,0-0.6,0.1c-0.2,0.1-0.4,0.1-0.6,0.1c-0.8,0-1.3-0.4-1.9-1
		c-0.8-0.7-1.1-1.6-1.1-2.6c0-0.5,0-1,0-1.5c0-0.2,0-0.4,0-0.7c0-0.3,0-0.6,0-0.9c0-0.6,0-1.3,0-2c0-0.4-0.1-1-0.8-1l0,0
		c-0.7,0-0.8,0.7-0.8,1.1c0,0.5,0,1,0,1.5c0,1.4,0,2.9,0.1,4.3c0,0.7,0.4,1.4,0.8,2.1l0.1,0.1c0.2,0.3,0.5,0.6,0.8,0.8
		c0.1,0.1,0.2,0.1,0.2,0.2c0.5,0.5,0.7,1,0.5,1.7c-0.4,1.3,0.2,2.7,1.5,3.5c0.5,0.3,1,0.4,1.6,0.4c0.8,0,1.6-0.3,2.2-0.8
		c1-0.9,1.3-2.4,0.7-3.7C31,31.9,29.9,31.2,28.8,31.2z M28.7,35.9C28.6,35.9,28.6,35.9,28.7,35.9c-0.5,0-0.9-0.2-1.2-0.5
		c-0.3-0.3-0.4-0.7-0.4-1.1c0.1-0.9,0.6-1.4,1.6-1.4l0,0h0c0.4,0,0.8,0.2,1,0.4c0.3,0.3,0.5,0.7,0.5,1.2
		C30.1,35.3,29.5,35.8,28.7,35.9z"/>
	<path id="XMLID_892_" class="st0" d="M5.8,4.6C5.8,4.6,5.8,4.6,5.8,4.6c-0.5,0-1,0.5-1,1c0,0.2,0.1,0.5,0.3,0.7
		c0.2,0.2,0.5,0.3,0.7,0.3h0c0.3,0,0.5-0.1,0.7-0.3c0.2-0.2,0.3-0.4,0.3-0.7C6.7,5,6.4,4.7,5.8,4.6z"/>
	<path id="XMLID_893_" class="st0" d="M13.7,4.6C13.6,4.6,13.6,4.6,13.7,4.6c-0.7,0.1-1,0.4-1,1c0,0.6,0.3,0.9,0.9,1
		c0,0,0.1,0,0.1,0c0.5,0,0.9-0.4,0.9-1c0-0.3-0.1-0.5-0.3-0.7C14.1,4.7,13.9,4.6,13.7,4.6z"/>
	<path id="XMLID_894_" class="st0" d="M9.7,4.6C9.7,4.6,9.7,4.6,9.7,4.6C9.4,4.6,9.2,4.8,9,4.9C8.8,5.1,8.7,5.4,8.7,5.6
		c0,0.6,0.4,0.9,1,1l0,0c0.2,0,0.5-0.1,0.6-0.3c0.2-0.2,0.3-0.5,0.3-0.7C10.6,5,10.3,4.7,9.7,4.6z"/>
</g>
</svg>
