<svg width="42" height="42" viewBox="0 0 42 42" fill="none" xmlns="http://www.w3.org/2000/svg">
<g clip-path="url(#clip0_784_202)">
<path d="M34 35.4C34 24.5 34 13.5 34 2.6C34 0.8 33.2 0 31.5 0C24.5 0 17.6 0 10.6 0C8.8 0 8 0.7 8 2.6C8 8.7 8 14.8 8 21C8 27.2 8 33.5 8 39.7C8 41.1 9.1 42 10.3 42C17.4 42 24.6 42 31.7 42C33.1 42 34 41.2 34 39.7C34 38.3 34 36.8 34 35.4ZM15.5 1.2C19.2 1.2 22.9 1.2 26.5 1.2C26.7 2.3 26.5 2.6 25.4 2.6C22.5 2.6 19.5 2.6 16.6 2.6C15.5 2.6 15.3 2.4 15.5 1.2ZM32.8 39.9C32.8 40.2 32.4 40.5 32.1 40.7C31.9 40.8 31.6 40.8 31.3 40.8C24.4 40.8 17.6 40.8 10.7 40.8C9.4 40.8 9.2 40.6 9.2 39.3C9.2 38.7 9.2 38.2 9.2 37.6C9.2 37.5 9.2 37.5 9.2 37.3C17.1 37.3 24.9 37.3 32.7 37.3C32.8 38.2 32.9 39 32.8 39.9ZM32.8 2.6C32.8 13.5 32.8 24.3 32.8 35.2C32.8 35.4 32.8 35.6 32.8 35.9C24.9 35.9 17.1 35.9 9.2 35.9C9.2 35.7 9.2 35.4 9.2 35.2C9.2 24.3 9.2 13.4 9.2 2.5C9.2 1.4 9.5 1.2 10.6 1.2C11.8 1.2 13 1.2 14.2 1.2C14.2 1.4 14.2 1.7 14.2 1.9C14.2 3 15 3.8 16.2 3.8C19.4 3.8 22.6 3.8 25.8 3.8C26.9 3.8 27.6 3.1 27.8 2.1C27.8 1.8 27.8 1.6 27.9 1.3C29.3 1.3 30.7 1.3 32.1 1.3C32.4 1.3 32.6 1.7 32.8 2C32.9 2.1 32.8 2.4 32.8 2.6Z" fill="white"/>
<path d="M21 5.7C15.8 5.7 11.5 9.9 11.5 15.1C11.5 20.3 15.7 24.6 20.9 24.5C26.1 24.5 30.4 20.2 30.4 15C30.4 9.9 26.2 5.7 21 5.7ZM20.9 23.3C16.4 23.3 12.7 19.6 12.7 15C12.7 10.4 16.4 6.8 21 6.8C25.6 6.8 29.2 10.5 29.2 15.1C29.3 19.7 25.6 23.4 20.9 23.3Z" fill="white"/>
<path d="M29.8 33C29.7 32.9 29.4 33 29.2 33C26.5 33 23.7 33 21 33C18.4 33 15.8 33 13.3 33C13 33 12.7 32.9 12.5 33C12.2 33.1 12 33.4 11.8 33.6C12 33.8 12.2 34 12.4 34.2C12.5 34.3 12.7 34.2 12.9 34.2C18.3 34.2 23.8 34.2 29.2 34.2C29.4 34.2 29.7 34.2 29.8 34.1C30 34 30.2 33.7 30.2 33.5C30.2 33.4 30 33.1 29.8 33Z" fill="white"/>
<path d="M17.7 28.2C21.5 28.2 25.3 28.2 29.1 28.2C29.3 28.2 29.5 28.3 29.6 28.2C29.8 28 30.1 27.8 30.2 27.6C30.2 27.4 29.9 27.2 29.6 27C29.5 26.9 29.3 27 29.1 27C27.2 27 25.3 27 23.4 27C21.4 27 19.4 27 17.4 27C17 27 16.5 27 16.5 27.6C16.5 28.2 16.9 28.2 17.4 28.2C17.6 28.2 17.6 28.2 17.7 28.2Z" fill="white"/>
<path d="M29.4 29.9C26.7 29.9 24 29.9 21.3 29.9C20.8 29.9 20.4 30 20.4 30.6C20.4 31.1 20.8 31.2 21.2 31.2C22.6 31.2 23.9 31.2 25.3 31.2C26.7 31.2 28 31.2 29.4 31.2C29.8 31.2 30.3 31.2 30.3 30.6C30.2 30 29.8 29.9 29.4 29.9Z" fill="white"/>
<path d="M12.6 31.2C13.6 31.2 14.7 31.2 15.7 31.2C16.7 31.2 17.7 31.2 18.7 31.2C19.1 31.2 19.6 31.2 19.6 30.6C19.6 30 19.1 30 18.7 30C16.7 30 14.7 30 12.7 30C12.3 30 11.8 30.1 11.8 30.6C11.7 31.1 12.2 31.2 12.6 31.2Z" fill="white"/>
<path d="M12.4 28.1C13.3 28.2 14.1 28.2 15 28.1C15.2 28.1 15.4 27.7 15.6 27.5C15.4 27.3 15.2 27 15 27C14.6 26.9 14.2 27 13.8 27C13.4 27 12.9 27 12.5 27C12.1 27 11.8 27.2 11.8 27.6C11.8 27.8 12.2 28.1 12.4 28.1Z" fill="white"/>
<path d="M21.7 38.4C21.2 38.3 20.7 38.3 20.3 38.4C20.1 38.4 19.8 38.8 19.8 39C19.8 39.2 20.1 39.5 20.3 39.6C20.5 39.7 20.8 39.6 21 39.6C21.2 39.6 21.5 39.7 21.7 39.6C21.9 39.5 22.1 39.2 22.3 39C22.1 38.8 21.9 38.5 21.7 38.4Z" fill="white"/>
<path d="M25.5 8.69999C25.4 8.29999 25.2 7.99999 24.7 8.09999C24.3 8.19999 24.2 8.59999 24.3 8.99999C24.5 9.59999 24.6 10.2 24.8 10.9C24.6 10.8 24.5 10.7 24.4 10.6C22.4 9.29999 20.4 9.19999 18.4 10.5C16.4 11.8 15.7 13.7 16 16C16.5 19.5 20.5 21.5 23.6 19.9C24 19.7 24.4 19.5 24.1 19C23.9 18.5 23.4 18.6 23 18.8C22 19.3 20.9 19.4 19.9 19C17.5 18.2 16.4 15.7 17.4 13.4C18.3 11.2 21.1 10.2 23.2 11.4C23.6 11.6 24 12 24.3 12.2L24.2 12.3C23.4 12.1 22.5 11.9 21.7 11.7C21.3 11.6 20.9 11.6 20.7 12.1C20.5 12.6 20.9 12.8 21.3 12.9C22.8 13.3 24.3 13.7 25.7 14C26.4 14.2 26.7 13.8 26.5 13.1C26.4 11.7 25.9 10.2 25.5 8.69999Z" fill="white"/>
</g>
<defs>
<clipPath id="clip0_784_202">
<rect width="26" height="42" fill="white" transform="translate(8)"/>
</clipPath>
</defs>
</svg>
