<?xml version="1.0" encoding="utf-8"?>
<!-- Generator: Adobe Illustrator 19.0.0, SVG Export Plug-In . SVG Version: 6.00 Build 0)  -->
<svg version="1.1" id="Layer_1" xmlns="http://www.w3.org/2000/svg" xmlns:xlink="http://www.w3.org/1999/xlink" x="0px" y="0px"
	 viewBox="0 0 42 42" style="enable-background:new 0 0 42 42;" xml:space="preserve">
<style type="text/css">
	.st0{fill:#1B3ECD;}
</style>
<g id="XMLID_439_">
	<path id="XMLID_446_" class="st0" d="M42,38.2c0-0.1,0-0.2,0-0.3c0-0.9,0-1.7,0-2.6l0-0.3c0-2.1,0-4.3,0-6.5
		c0.1-2.7-0.4-4.7-2.6-5.8c-0.1,0-0.1-0.1-0.2-0.2c0-0.1,0-0.2,0-0.2c1.4-2.6,1.1-5.1-0.8-6.4c-0.6-0.4-1.3-0.6-2-0.6
		c-1,0-1.9,0.4-2.6,1.2c-1.2,1.3-1.8,4.2,0.6,6.5c0.1,0.1,0.1,0.3,0,0.4l-1,1.2c-1,1.1-2,2.2-3,3.2c-0.3,0.3-0.9,0.6-1.4,0.6
		c-0.5,0-0.9,0-1.4,0l-1.6,0c-0.2,0-0.4,0-0.6,0c-1.5,0-2.4,1-2.4,2.5v0.8c0,0.2-0.1,0.3-0.3,0.3h-3.5c-0.1,0-0.2,0-0.2-0.1
		C19,31.7,19,31.7,19,31.6c0-1.3-0.2-2.1-0.6-2.6c-0.5-0.5-1.3-0.7-2.6-0.7c-0.2,0-0.4,0-0.7,0l-0.1,0c-0.2,0-0.5,0-0.7,0
		c-0.3,0-0.6,0-0.9,0c-0.1,0-0.2,0-0.2,0c-0.7,0-1.2-0.3-1.8-0.9c-0.9-1-1.8-2-2.7-3l-1.1-1.2c-0.1-0.1-0.1-0.3,0-0.4
		c2-2.2,2.2-4.6,0.7-6.5c-0.7-0.8-1.7-1.3-2.7-1.3c-0.6,0-1.2,0.2-1.7,0.5c-0.7,0.5-1.3,1.3-1.7,2.2c-0.6,1.3-0.4,2.6,0.7,4.3
		c0,0.1,0.1,0.2,0,0.2c0,0.1-0.1,0.1-0.1,0.2c-2,1.1-2.8,2.8-2.6,5.2c0,0.2,0,0.3,0,0.5c0,0.1,0,0.2,0,0.2v2.3c0,2.5,0,5.1,0,7.6
		c0,0.7,0.2,0.8,0.5,0.8l0,0c0.5,0,0.5-0.2,0.5-0.8c0-3.1,0-6.8,0-10.6c0-0.6,0-1.4,0.3-2.2c0.3-1.2,1.3-2,2.6-2.2
		c0.2-0.1,0.5-0.1,0.7-0.1c0.8,0,1.6,0.3,2.2,0.9c0.6,0.7,1.2,1.3,1.8,2c0.7,0.8,1.6,1.8,2.4,2.6c0.3,0.3,0.9,0.5,1.4,0.6
		c0.5,0,1,0.1,1.6,0.1c0.5,0,1,0,1.6,0l0.5,0c0.4,0,1.5,0,1.5,1.2c0,0.4-0.1,0.7-0.3,0.9c-0.3,0.3-0.8,0.4-1.3,0.4c0,0-0.6,0-0.9,0
		l-1.9,0c-0.6,0-1.2,0-1.8,0c-0.5,0-1.1-0.2-1.6-0.6c-0.5-0.4-1.1-0.8-1.6-1.2c-0.6-0.5-1.3-1-2-1.4c0,0-0.1,0-0.2,0
		c-0.1,0-0.3,0-0.5,0.1l-0.2,0l0,0.1c0,0.3,0.1,0.6,0.2,0.7c0.3,0.4,0.7,0.7,1.2,0.9c0.7,0.5,1,1.1,1,2c0,1.3,0,2.7,0,4
		c0,0.6,0,1.2,0,1.8c0,0.7,0.1,0.9,0.6,0.9c0.5,0,0.6-0.2,0.6-1c0-0.7,0-1.4,0-2.1c0-0.8,0-1.5,0-2.3c0-0.2,0-0.4,0-0.6l0-0.3
		c0-0.1,0.1-0.2,0.1-0.2c0,0,0.1,0,0.2,0c0,0,0,0,0.1,0l1.9,0.5c0.1,0,0.2,0.2,0.2,0.3l-0.1,0.7c-0.1,0.5-0.1,1-0.2,1.5
		c0,0.3,0,0.5,0.2,0.7c0.1,0.1,0.4,0.2,0.8,0.2c0.3,0,0.6,0,1,0l1.5,0h5.2c0.2,0,0.3,0.1,0.3,0.3c0,0.2,0,0.4,0,0.6c0,0.4,0,0.7,0,1
		c0.1,0.3,0.4,0.7,0.6,0.7c0.1,0,0.1,0,0.2,0c0.3,0,0.4-0.5,0.4-0.7c0-0.4,0-0.7,0-1.1l0-0.6c0-0.2,0.1-0.3,0.3-0.3l4.9,0
		c0.9,0,1.8,0,2.7,0c0.4,0,0.6-0.1,0.7-0.2c0.1-0.1,0.2-0.4,0.1-0.7c0-0.5-0.1-1-0.1-1.4l-0.1-0.7c0-0.1,0.1-0.3,0.2-0.3l2.1-0.5
		c0.1,0,0.1,0,0.2,0.1c0.1,0.1,0.1,0.1,0.1,0.2c0,0,0,4.3,0,5.4c0,0.7,0.2,0.8,0.6,0.8c0.4,0,0.6-0.1,0.6-0.8c0-0.5,0-0.9,0-1.4
		c0-1,0.1-2-0.1-3c-0.2-2.1,0.5-3.5,2.2-4.4c0.3-0.1,0.5-0.3,0.5-0.5c0-0.2,0-0.3-0.2-0.5c-0.1-0.2-0.2-0.2-0.4-0.2
		c-0.2,0-0.4,0.1-0.7,0.3l-0.2,0.2c-1.1,0.8-2.2,1.7-3.4,2.5c-0.4,0.3-0.9,0.4-1.3,0.5c-0.7,0-1.4,0-2,0l-1.7,0c-0.4,0-0.8,0-1.2,0
		c-0.9,0-1.4-0.4-1.4-1.2c0-0.4,0.1-0.7,0.3-0.9c0.2-0.3,0.6-0.4,1.1-0.4c0,0,0.5,0,0.5,0c0.5,0,1.1,0,1.6,0c0.7,0,1.2,0,1.7-0.1
		c0.5,0,1.1-0.3,1.4-0.6c1-1,1.9-2,2.8-3l0.1-0.1c0.4-0.5,0.9-1,1.3-1.5c0.2-0.2,0.5-0.4,0.8-0.5c0.5-0.2,1-0.4,1.5-0.4
		c1.8,0,3.3,1.5,3.4,3.4c0,1.7,0,3.5,0,5.1l0,3.4c0,1.1,0,2.3,0,3.4c0,0.2,0.3,0.5,0.4,0.6c0.2,0,0.6-0.3,0.8-0.6
		C42,38.5,42,38.3,42,38.2z M5.4,22.2c-0.6,0-1.2-0.3-1.6-0.8C3.3,20.8,3,20,3,19.2c0.1-1.5,1.2-2.8,2.5-2.8h0
		c0.6,0,1.2,0.3,1.6,0.7c0.6,0.6,0.9,1.4,0.9,2.3C8,20.9,6.9,22.2,5.4,22.2z M27.1,33.1c1.2,0,1.8,0.6,2,1.9c0,0.1,0,0.2-0.1,0.2
		c-0.1,0.1-0.1,0.1-0.2,0.1H13.1c-0.1,0-0.2,0-0.2-0.1c-0.1-0.1-0.1-0.2-0.1-0.2c0.3-1.2,1-1.9,2.1-1.9c2,0,4.1,0,6.1,0
		C23.1,33.1,25.1,33.1,27.1,33.1z M36.5,22.2c-0.6,0-1.2-0.3-1.7-0.7c-0.6-0.6-0.9-1.4-0.9-2.2c0-1.5,1.2-2.9,2.5-2.9c0,0,0,0,0,0
		c0.6,0,1.1,0.2,1.6,0.7c0.6,0.6,0.9,1.4,0.9,2.3C39,20.9,37.9,22.2,36.5,22.2z"/>
	<path id="XMLID_459_" class="st0" d="M12.5,13.4c0.1,0,0.1,0.1,0.2,0.1l0.1-0.1c0.2-0.2,0.4-0.4,0.4-0.5c0.1-0.4,0.1-0.8,0.1-1.3
		c0-0.2,0-0.4,0-0.6V7.5c0-0.2,0.1-0.3,0.3-0.3l1.6,0c0,0,2.6,0,3.2,0c0.4,0,0.7,0,0.8-0.2c0.1-0.1,0.1-0.4,0.1-0.9
		c0-0.6,0.3-1.4,0.7-1.8C20.2,4.1,20.5,4,21,4c0.2,0,0.6,0,0.9,0.2c0.5,0.3,0.9,1.1,0.9,1.7c0,1.2,0,1.2,1.1,1.2l4.7,0
		c0.2,0,0.3,0.1,0.3,0.3v3.8c0,0.2-0.1,0.3-0.3,0.3c-1.7,0.1-3.7,0.7-3.8,3.1c0,1.8,1.3,2.9,3.7,3.1c0.2,0,0.3,0.1,0.3,0.3v4.6
		c0,0.2-0.1,0.3-0.3,0.3h-4.2c-0.2,0-0.3-0.1-0.3-0.3c-0.1-2.4-1.2-3.7-3.1-3.7c-1.9,0-2.9,1.2-3.1,3.7c0,0.2-0.1,0.3-0.3,0.3h-4.1
		c-0.2,0-0.3-0.1-0.3-0.3l0-0.9c0-0.4,0-0.8,0-1.3c0-0.8-0.3-0.9-0.6-0.9c-0.2,0-0.6,0-0.6,0.9l0,0.5c0,0.8,0,1.6,0,2.3
		c0,0.3,0.1,0.5,0.2,0.6c0.1,0.1,0.4,0.2,0.7,0.2l1.2,0l2.8,0c0.6,0,1.2,0,1.9,0c0.5,0,0.8-0.1,0.9-0.3c0.1-0.2,0-0.5-0.2-0.9
		c-0.5-0.9-0.4-1.7,0.3-2.4c0.4-0.3,0.8-0.5,1.2-0.5c0.4,0,0.8,0.2,1.2,0.5c0.7,0.6,0.9,1.5,0.4,2.4c-0.2,0.4-0.3,0.8-0.2,0.9
		c0.1,0.2,0.4,0.3,0.9,0.3c0.5,0,1,0,1.4,0l2.6,0c0.6,0,1.2,0,1.8,0h0c0.4,0,0.6-0.1,0.8-0.2c0.1-0.1,0.2-0.4,0.2-0.8
		c0-1.1,0-2.1,0-3.2c0-1,0-2.1,0-3.1c0-1-0.3-1-0.5-1c-0.2,0-0.4,0.1-0.7,0.3c-0.4,0.2-0.7,0.3-1.1,0.3c-0.5,0-0.9-0.2-1.3-0.7
		c-0.6-0.7-0.6-1.6,0-2.3c0.4-0.4,0.8-0.7,1.3-0.7c0.3,0,0.7,0.1,1.1,0.3c0.3,0.2,0.6,0.3,0.8,0.3c0.1,0,0.4,0,0.5-1
		c0-1.2,0-2.4,0-3.6l0-1.4c0-1.5,0-1.5-1.5-1.5l-4.2,0c-0.1,0-0.2-0.1-0.3-0.2c-0.6-2-1.5-2.9-3-3l-0.2,0c-1.4,0-2.3,0.9-3.1,3
		c0,0.1-0.2,0.2-0.3,0.2l-1.2,0c0,0-2.6,0-3.3,0c-0.8,0-0.9,0.3-0.9,0.6c0,1.9-0.1,4.2,0,6.5C12.1,13.1,12.4,13.3,12.5,13.4z"/>
	<circle id="XMLID_469_" class="st0" cx="12.6" cy="16.6" r="0.7"/>
</g>
</svg>
