<?xml version="1.0" encoding="utf-8"?>
<!-- Generator: Adobe Illustrator 19.0.0, SVG Export Plug-In . SVG Version: 6.00 Build 0)  -->
<svg version="1.1" id="Layer_1" xmlns="http://www.w3.org/2000/svg" xmlns:xlink="http://www.w3.org/1999/xlink" x="0px" y="0px"
	 viewBox="0 0 42 42" style="enable-background:new 0 0 42 42;" xml:space="preserve">
<style type="text/css">
	.st0{fill:#FFFFFF;}
</style>
<g id="XMLID_440_">
	<path id="XMLID_476_" class="st0" d="M41.6,34.3c-0.4-0.3-0.8-0.6-1.2-0.9c-0.3-0.2-0.5-0.5-0.5-0.9c0-1,0-2,0-3
		c0-0.3,0.2-0.6,0.4-0.8c0.4-0.3,0.8-0.6,1.2-0.9c0.3-0.3,0.5-0.6,0.2-1c-0.4-0.7-0.8-1.4-1.2-2.1c-0.5-0.9-0.7-0.9-1.6-0.5
		c-0.3,0.1-0.5,0.2-0.9,0.3c0-0.3,0-0.5,0-0.7c0-6.8,0-13.7,0-20.5c0-0.8-0.1-1.5-0.6-2.1c-0.5-0.7-1.2-0.9-2-1.1
		C24.4,0,13.3,0,2.2,0C1.5,0.3,0.8,0.6,0.4,1.3C0.2,1.5,0.1,1.8,0,2c0,10.7,0,21.4,0,32.1c0,0.1,0.1,0.1,0.1,0.2
		C0.6,35.5,1.5,36,2.8,36c5.2,0,10.3,0,15.5,0c0.2,0,0.5,0.1,0.7,0c0.2-0.1,0.5-0.2,0.6-0.4c0.1-0.2,0-0.5-0.2-0.6
		c-0.2-0.2-0.5-0.2-0.8-0.2c-5.2,0-10.5,0-15.7,0c-1,0-1.5-0.5-1.5-1.5c0-7.6,0-15.3,0-22.9c0-0.2,0-0.4,0-0.6c11.7,0,23.4,0,35.1,0
		c0,4.8,0,9.6,0,14.4c-0.7-0.3-1.3-0.6-2-0.9C34.2,23,34,22.8,34,22.4c0-0.5-0.1-0.9-0.1-1.4c-0.1-0.5-0.2-0.9-0.8-0.9
		c-1,0-1.9-0.1-2.9,0c-0.4,0-0.7,0.2-0.8,0.6c-0.1,0.5-0.2,1.1-0.2,1.6c0,0.5-0.2,0.6-0.6,0.8c-0.8,0.4-1.6,0.8-2.3,1.3
		c-0.4,0.3-0.7,0.3-1.2,0.1c-0.4-0.2-0.9-0.4-1.4-0.6c-0.4-0.2-0.7,0-0.9,0.4c-0.5,0.8-1,1.7-1.4,2.5c-0.2,0.4-0.2,0.7,0.2,1
		c0.5,0.3,0.9,0.7,1.3,1c0.2,0.1,0.3,0.4,0.3,0.6c-0.2,1-0.1,2.1,0,3.1c0,0.2-0.1,0.5-0.3,0.6c-0.4,0.4-0.9,0.7-1.3,1
		c-0.3,0.2-0.4,0.5-0.2,0.9c0.5,0.9,1,1.8,1.5,2.6c0.3,0.4,0.6,0.5,1.1,0.3c0.5-0.2,1-0.5,1.5-0.7c0.2-0.1,0.4-0.1,0.6,0
		c1,0.5,1.9,1.1,2.8,1.7c0.2,0.1,0.3,0.3,0.4,0.5c0.1,0.5,0.1,1,0.2,1.5c0.1,0.6,0.3,0.8,0.9,0.8c0.8,0,1.7,0,2.5,0
		c0.7,0,0.9-0.2,1-0.9c0.1-0.5,0.1-1,0.2-1.6c0-0.2,0.2-0.4,0.3-0.5c0.9-0.5,1.8-1,2.6-1.5c0.3-0.2,0.5-0.3,0.9-0.1
		c0.4,0.2,0.9,0.4,1.3,0.6c0.6,0.3,0.9,0.2,1.3-0.4c0.5-0.8,0.9-1.5,1.4-2.3C42,34.9,41.9,34.5,41.6,34.3z M36,8.2
		c-2.5,0-5.1,0-7.6,0c-3.1,0-6.3,0-9.4,0c0,0,0,0,0,0c-5.6,0-11.2,0-16.9,0c-0.7,0-0.7,0-0.7-0.8c0-1.5,0.1-3,0-4.5
		C1.3,1.8,2.1,1.5,2.9,1.4c0.1,0,0.2,0,0.3,0c10.5,0,21,0,31.5,0c0.3,0,0.7,0,1,0.1c0.5,0.1,0.8,0.5,0.8,1c0,1.8,0,3.5,0,5.3
		C36.6,8.2,36.3,8.2,36,8.2z M40.1,35.4c-0.1,0.1-0.2,0.2-0.2,0.4c-0.6,1.2-0.5,1-1.5,0.5c-0.9-0.5-1.5-0.4-2.3,0.3
		c-0.7,0.6-1.7,0.9-2.5,1.3c-0.4,0.2-0.8,0.4-0.8,0.9c0,0.5-0.1,0.9-0.2,1.4c0,0.1-0.2,0.3-0.3,0.4c-0.4,0-0.8,0-1.2,0
		c-0.1,0-0.3-0.2-0.3-0.3c-0.1-0.5-0.2-0.9-0.2-1.4c0-0.5-0.3-0.9-0.8-1c-1.1-0.3-2.1-0.9-2.9-1.7c-0.5-0.5-1-0.5-1.6-0.2
		c-0.1,0-0.2,0.1-0.2,0.1c-1.1,0.5-1.1,0.5-1.7-0.6c-0.1-0.2-0.2-0.3-0.3-0.5c0.5-0.3,0.9-0.7,1.3-1c0.6-0.5,0.7-0.8,0.5-1.5
		c-0.3-1-0.2-1.9,0-2.9c0.2-0.9,0.2-1.1-0.6-1.7c-0.3-0.2-0.6-0.4-0.9-0.6c-0.6-0.4-0.1-0.7,0.1-1c0.2-0.3,0.2-1,0.9-0.7
		c0.4,0.2,0.9,0.4,1.3,0.6c0.3,0.2,0.6,0.1,0.9-0.1c1-0.9,2.1-1.6,3.4-1.9c0.3-0.1,0.5-0.5,0.6-0.9c0.1-0.4,0.1-0.9,0.2-1.4
		c0-0.1,0-0.1,0-0.2c0.4-0.5,1-0.1,1.4-0.2c0.1,0,0.4,0.2,0.4,0.3c0.1,0.5,0.2,1.1,0.2,1.6c0.1,0.4,0.3,0.7,0.7,0.8
		c1.2,0.3,2.3,0.9,3.2,1.7c0.4,0.4,0.8,0.5,1.3,0.2c0.4-0.2,0.8-0.4,1.2-0.5c0.1,0,0.4,0,0.5,0.1c0.2,0.3,0.4,0.7,0.6,1
		c0,0.1-0.1,0.3-0.2,0.4c-0.4,0.3-0.8,0.6-1.2,0.9c-0.3,0.2-0.4,0.5-0.4,0.9c0.1,0.5,0.2,1,0.2,1.5c0,0.8-0.1,1.5-0.2,2.3
		c-0.1,0.5,0.1,0.8,0.4,1.1c0.4,0.3,0.7,0.6,1.1,0.9C40.2,34.9,40.2,35.1,40.1,35.4z"/>
	<path id="XMLID_486_" class="st0" d="M6.3,18.9c-0.2,0.3-0.4,0.3-0.7,0.2c-1.3-0.6-3,0.8-3.1,2.2c0,1,0.5,1.8,1.3,2.3
		c0.9,0.5,1.8,0.4,2.6-0.2c0.8-0.6,1.2-1.5,0.9-2.3C7.1,20,7.5,19.6,8,19.1c0.2-0.2,0.4-0.4,0.5-0.6c0.2-0.3,0.5-0.5,1-0.3
		c0.9,0.3,1.7,0.1,2.5-0.5c0.1-0.1,0.5-0.1,0.6,0c0.7,0.4,1.4,0.8,2,1.2c0.2,0.1,0.3,0.4,0.3,0.6c0.1,0.4,0.1,0.8,0.3,1.1
		c0.6,1.3,1.9,1.8,3.1,1.3c1.3-0.5,1.8-1.8,1.4-3.2c0-0.1,0-0.4,0.1-0.5c0.5-0.6,1-1.1,1.4-1.7c0.3-0.3,0.5-0.5,0.9-0.4
		c1.4,0.1,2.6-1,2.7-2.4c0-1.4-1.2-2.6-2.6-2.5c-1.5,0.1-3,1.8-1.9,3.6c0.2,0.3,0.1,0.5-0.1,0.8c-0.4,0.4-0.8,0.9-1.2,1.4
		c-0.3,0.4-0.6,0.4-1,0.3c-0.3-0.1-0.8-0.1-1.1,0c-1,0.5-1.9,0.3-2.8-0.3c-0.8-0.5-1.4-1-1.6-2c-0.2-1.2-1.8-1.8-3.1-1.4
		c-1.2,0.4-1.9,1.8-1.5,3C8,16.9,8,17,7.8,17.3C7.3,17.8,6.8,18.3,6.3,18.9z M5,22.4c-0.6,0-1-0.5-1-1.1c0-0.7,0.4-1,1-1
		c0.6,0,1.1,0.4,1.1,1C6.1,21.9,5.5,22.5,5,22.4z M22.4,12.6c0.5,0,1.1,0.6,1.1,1.1c0,0.6-0.5,1.1-1.2,1.1c-0.5,0-1-0.6-1-1.1
		C21.3,13.1,21.9,12.6,22.4,12.6z M17.5,18.6c0.6,0,1,0.4,1,1c0,0.6-0.4,1.1-1,1.1c-0.6,0-1-0.5-1-1C16.4,19,16.9,18.6,17.5,18.6z
		 M9.3,15.8c0-0.6,0.5-1,1.1-1c0.6,0,1,0.5,1,1.1c0,0.6-0.5,1-1.1,1C9.7,16.8,9.3,16.4,9.3,15.8z"/>
	<path id="XMLID_490_" class="st0" d="M3.2,31.6c0.2,0,0.4,0.1,0.6,0.1c5.6,0,11.2,0,16.8,0c0.6,0,0.9-0.3,0.9-0.7
		c0-0.5-0.3-0.7-0.9-0.7c-0.7,0-1.5,0-2.3,0c0-0.3,0-0.5,0-0.7c0-1.7,0-3.4,0-5.1c0-0.3,0-0.6-0.2-0.7c-0.1-0.2-0.5-0.4-0.7-0.3
		c-0.2,0-0.4,0.4-0.5,0.6c-0.1,0.7-0.1,1.4-0.1,2c0,1.2,0,2.4,0,3.6c0,0.4-0.1,0.5-0.5,0.5c-1.4,0-2.8,0-4.3,0
		c-0.4,0-0.6-0.1-0.6-0.6c0-2.4,0-4.8,0-7.2c0-0.2,0-0.4,0-0.6c-0.1-0.4-0.4-0.6-0.7-0.5c-0.4,0-0.6,0.2-0.6,0.6c0,0.2,0,0.4,0,0.6
		c0,2.4,0,4.7,0,7.1c0,0.2,0,0.4,0,0.6c-1.3,0-2.5,0-3.7,0c-0.4,0-0.5-0.1-0.5-0.5c0-1,0-2-0.1-2.9c0-0.2-0.3-0.4-0.4-0.5
		c-0.5-0.2-0.8,0.1-0.8,0.7c0,0.9,0,1.9,0,2.8c0,0.4-0.1,0.5-0.5,0.5c-0.3,0-0.5,0-0.8,0c-0.4,0-0.5,0.3-0.5,0.7
		C2.7,31.3,2.8,31.5,3.2,31.6z"/>
	<path id="XMLID_491_" class="st0" d="M23.9,18.3c0-0.5-0.3-0.8-0.7-0.8c-0.4,0-0.7,0.2-0.7,0.8c0,1.1,0,2.2,0,3.4
		c0,0.5,0.3,0.9,0.6,0.9c0.4,0,0.7-0.4,0.7-0.9c0-0.5,0-1.1,0-1.6C23.9,19.4,23.9,18.8,23.9,18.3z"/>
	<path id="XMLID_492_" class="st0" d="M32.3,4.1c-1.5,0-3,0-4.4,0c-0.9,0-1.9,0-2.8,0c-0.6,0-1,0.4-0.8,0.9c0.1,0.5,0.5,0.6,0.9,0.6
		c1.2,0,2.4,0,3.6,0c1.2,0,2.4,0,3.6,0c0.7,0,1.1-0.5,0.8-1C32.9,4.3,32.5,4.1,32.3,4.1z"/>
	<path id="XMLID_495_" class="st0" d="M5.9,2.8c-1.1,0-1.9,0.9-2,2c0,1,1,2.1,1.9,2c1.2-0.1,2-0.7,2.1-2C8,3.7,7,2.8,5.9,2.8z
		 M5.9,5.3c-0.4,0-0.6-0.2-0.6-0.5c0-0.4,0.2-0.6,0.6-0.5c0.4,0,0.6,0.3,0.6,0.6C6.5,5.2,6.2,5.4,5.9,5.3z"/>
	<path id="XMLID_498_" class="st0" d="M10.9,2.8c-1.1,0-1.9,0.9-2,2c0,1,1,2.1,1.9,2c1.2-0.1,2-0.7,2.1-2C13,3.7,12.1,2.8,10.9,2.8z
		 M11,5.3c-0.4,0-0.6-0.2-0.6-0.5c0-0.4,0.2-0.6,0.6-0.5c0.4,0,0.6,0.3,0.6,0.6C11.5,5.2,11.3,5.4,11,5.3z"/>
	<path id="XMLID_501_" class="st0" d="M16,2.8c-1.1,0-1.9,0.9-2,2c0,1,1,2.1,1.9,2c1.2-0.1,2-0.7,2.1-2C18.1,3.7,17.1,2.8,16,2.8z
		 M16,5.3c-0.4,0-0.6-0.2-0.6-0.5c0-0.4,0.2-0.6,0.6-0.5c0.4,0,0.6,0.3,0.6,0.6C16.6,5.2,16.4,5.4,16,5.3z"/>
	<path id="XMLID_504_" class="st0" d="M31.6,26.5c-2.6,0-4.6,2-4.6,4.5c0,2.5,2.1,4.6,4.5,4.5c2.2,0.2,4.6-1.8,4.6-4.4
		C36.1,28.6,34.1,26.5,31.6,26.5z M31.6,34.2c-1.6,0.1-3.1-1.4-3.2-3c-0.1-2,1.2-3.2,3.3-3.3c1.6,0,2.9,1.3,3,3
		C34.8,32.8,33.3,34,31.6,34.2z"/>
</g>
</svg>
