<?xml version="1.0" encoding="utf-8"?>
<!-- Generator: Adobe Illustrator 19.0.0, SVG Export Plug-In . SVG Version: 6.00 Build 0)  -->
<svg version="1.1" id="Layer_1" xmlns="http://www.w3.org/2000/svg" xmlns:xlink="http://www.w3.org/1999/xlink" x="0px" y="0px"
	 viewBox="0 0 42 42" style="enable-background:new 0 0 42 42;" xml:space="preserve">
<style type="text/css">
	.st0{fill:#1B3ECD;}
</style>
<g id="XMLID_458_">
	<path id="XMLID_547_" class="st0" d="M41,23c-0.8-0.6-1.7-1-2.9-1.2c-1.9-0.4-3.9-0.7-5.8-0.7c-1.6,0-3.2,0.1-4.8,0.4
		c-1.7,0.3-2.9,0.7-4,1.4c-0.7,0.5-1.1,1.1-1.1,2l0,0.4c0,4.1,0,8.4,0,12.6c0,1.2,0.5,2,1.6,2.6c1.2,0.6,2.5,1,4.3,1.2
		c0.6,0.1,1.3,0.1,1.9,0.2c0.3,0,0.6,0.1,0.9,0.1h2.2l0.8-0.1c0.6-0.1,1.3-0.1,1.9-0.2c1.3-0.2,2.9-0.5,4.3-1.2
		c0.9-0.5,1.4-1,1.6-1.7l0-14.6C41.8,23.7,41.5,23.3,41,23z M40,32.3l-0.5,0.2c-0.7,0.3-1.4,0.6-2.2,0.7c-1.7,0.4-3.5,0.5-5.2,0.5
		c-2,0-4-0.3-6-0.8c-0.6-0.1-1.1-0.4-1.6-0.6l-0.2-0.1c-0.5-0.2-0.7-0.6-0.7-1.2c0-1,0-1.9,0-2.9c0-0.4,0-0.8,0-1.3
		c0-0.1,0-0.2,0-0.3l0-0.1c0,0,0-0.1,0-0.1c0,0,0,0,0,0c0,0,0,0,0,0c2.8,1,5.6,1.5,8.4,1.5c2.8,0,5.6-0.5,8.4-1.5c0,0,0,0,0,0
		c0,0,0,0,0.1,0c0,0,0,0,0,0.1l0,1.6c0,1,0,1.9,0,2.9C40.7,31.7,40.5,32.1,40,32.3z M40,25.3c-0.8,0.4-1.5,0.6-2.1,0.8
		c-1.5,0.4-3.3,0.6-4.8,0.6l-0.2,0c-2.9,0-5.2-0.2-7.5-1c-0.4-0.2-0.9-0.4-1.3-0.6c-0.3-0.2-0.4-0.4-0.4-0.6c0-0.2,0.1-0.4,0.4-0.5
		c0.5-0.3,1-0.6,1.6-0.7c1.5-0.5,3.2-0.8,5.4-0.9c0.4,0,0.8,0,1.2,0c2.2,0,4.2,0.3,6,0.8c0.6,0.2,1.1,0.4,1.6,0.6
		c0.2,0.1,0.7,0.4,0.7,0.8C40.7,24.8,40.3,25.1,40,25.3z M23.7,33.6C23.7,33.6,23.7,33.6,23.7,33.6C23.8,33.6,23.8,33.6,23.7,33.6
		c0.1-0.1,0.1-0.1,0.1-0.1c2.8,1,5.6,1.5,8.4,1.5c2.8,0,5.6-0.5,8.4-1.5c0,0,0,0,0,0c0,0,0,0,0.1,0c0,0,0,0,0,0.1l0,1.3
		c0,1.2,0,2.3,0,3.5c0,0.4-0.2,0.7-0.7,0.9l-0.4,0.2c-0.7,0.3-1.5,0.6-2.2,0.8c-1.8,0.4-3.5,0.6-5.2,0.6c-2,0-4.1-0.3-6-0.8
		c-0.5-0.1-1.1-0.4-1.6-0.6l-0.3-0.2c-0.4-0.2-0.5-0.5-0.5-1c0-1.1,0-2.3,0-3.4L23.7,33.6z"/>
	<path id="XMLID_575_" class="st0" d="M21.6,8.6c-0.2,0-0.4,0-0.6,0c-0.2,0-0.4,0-0.6,0c-0.4,0-0.5-0.2-0.6-0.5
		c-0.6-1-0.4-1.8,0.5-2.5c0.2-0.2,0.3-0.3,0.3-0.4c0-0.2-0.1-0.4-0.3-0.6c-0.4-0.4-2.1-2.1-2.1-2.1c-0.5-0.5-0.8-0.8-1-0.8
		c-0.2,0-0.5,0.3-1,0.8c-0.3,0.3-0.5,0.5-0.7,0.5c-0.2,0-0.3-0.1-0.7-0.2c-0.1,0-0.2-0.1-0.3-0.1c-0.2-0.1-0.3-0.1-0.5-0.2
		c-0.2-0.1-0.3-0.3-0.3-0.5c0-0.3,0-0.6,0-0.8c0-0.1,0-0.3,0-0.4C13.7,0.2,13.5,0,13,0c-0.6,0-1.2,0-1.8,0c-0.7,0-1.3,0-2,0
		C8.8,0,8.6,0.2,8.6,0.7c0,0.4,0,0.8,0,1.2c0,0.4-0.2,0.5-0.4,0.7C7.7,2.7,7.4,2.9,7,2.9c0,0,0,0,0,0C6.5,2.9,6,2.6,5.6,2
		C5.4,1.8,5.3,1.7,5.1,1.7C4.9,1.7,4.7,1.8,4.5,2C3.7,2.8,2.8,3.7,2,4.5C1.6,4.9,1.6,5.2,2,5.6c0.1,0.1,0.3,0.3,0.3,0.3
		C3,6.7,3,6.7,2.7,7.6c0,0.1,0,0.1-0.1,0.2c0,0.1-0.1,0.3-0.2,0.4C2.3,8.4,2.1,8.5,1.9,8.5c-0.2,0-0.3,0-0.5,0l-0.6,0
		c-0.1,0-0.2,0-0.3,0C0.2,8.6,0,8.8,0,9.2c0,1.3,0,2.6,0,3.9c0,0.5,0.3,0.6,0.6,0.6l0.2,0c0.1,0,0.2,0,0.4,0c0.1,0,0.2,0,0.3,0
		c0.1,0,0.2,0,0.3,0c0.5,0,0.8,0.2,0.9,0.8c0,0.1,0.1,0.2,0.2,0.4c0.1,0.1,0.1,0.2,0.2,0.4c0,0.2,0,0.5-0.1,0.6
		c-0.2,0.2-0.4,0.4-0.5,0.6c-0.1,0.1-0.3,0.2-0.4,0.4c-0.2,0.2-0.3,0.5,0,0.9c0.9,0.9,1.8,1.8,2.8,2.8c0.2,0.2,0.3,0.2,0.4,0.2
		c0.1,0,0.3-0.1,0.5-0.2c0.1-0.1,0.2-0.2,0.4-0.4c0.2-0.2,0.4-0.4,0.6-0.5c0.1-0.1,0.3-0.1,0.4-0.1c0.1,0,0.1,0,0.2,0
		c0.1,0,0.2,0.1,0.3,0.1c0.4,0.1,0.9,0.2,1,0.5c0.2,0.3,0.2,0.7,0.1,1.1c0,0.2,0,0.3,0,0.5c0,0.5,0.2,0.7,0.8,0.7l0.7,0l2.9,0
		c0.6,0,0.8-0.2,0.8-0.8c0-0.1,0-0.3,0-0.4c0-0.3,0-0.5,0-0.8c0-0.2,0.2-0.4,0.3-0.5c0.1-0.1,0.2-0.1,0.3-0.2c0.3-0.2,0.7-0.4,1-0.4
		c0,0,0.1,0,0.1,0c0.3,0.1,0.6,0.4,0.9,0.7c0.1,0.1,0.2,0.2,0.3,0.4l0.1,0.1c0.2,0.1,0.3,0.2,0.5,0.2c0.1,0,0.3-0.1,0.5-0.2
		c0.9-0.9,1.8-1.8,2.7-2.7c0.3-0.3,0.3-0.6,0-0.9c-0.1-0.1-0.2-0.3-0.4-0.4c-0.4-0.3-0.6-0.6-0.7-0.9c0-0.3,0.1-0.6,0.3-0.9
		c0.1-0.1,0.1-0.3,0.2-0.5c0.1-0.3,0.2-0.4,0.6-0.4c0,0,0,0,0,0c0.2,0,0.4,0,0.5,0c0.2,0,0.4,0,0.7,0c0.5,0,0.7-0.2,0.7-0.7
		c0-1.3,0-2.6,0-3.8C22.2,8.8,22,8.6,21.6,8.6z M18.8,13.1c-0.2,0.7-0.5,1.4-0.9,2.1c-0.2,0.4-0.2,0.7,0.1,0.9
		c0.2,0.2,0.5,0.4,0.7,0.6l0.3,0.3c0,0,0,0,0,0.1c0,0,0,0,0,0.1l-2,2c0,0,0,0-0.1,0c0,0,0,0,0,0c0,0,0,0-0.1,0l-0.2-0.3
		c-0.2-0.2-0.4-0.5-0.6-0.7c-0.1-0.2-0.3-0.2-0.5-0.2c-0.1,0-0.3,0-0.5,0.1c-0.7,0.3-1.4,0.6-2.1,0.9c-0.4,0.1-0.6,0.4-0.6,0.8
		c0,0.3,0,0.6,0,0.9l0,0.4c0,0,0,0.1-0.1,0.1H9.9c0,0-0.1,0-0.1-0.1l0-0.4c0-0.3,0-0.5,0-0.8c0-0.6-0.2-0.8-0.7-1
		c-0.7-0.3-1.4-0.5-2-0.8c-0.2-0.1-0.3-0.1-0.5-0.1c-0.2,0-0.4,0.1-0.5,0.3l-0.8,1c0,0,0,0-0.1,0c0,0,0,0,0,0c0,0,0,0-0.1,0
		l-1.9-1.9c0,0,0-0.1,0-0.1l0.3-0.3c0.2-0.2,0.4-0.4,0.7-0.7c0.3-0.3,0.3-0.5,0.1-0.9c-0.3-0.7-0.6-1.5-0.9-2.2
		c-0.1-0.4-0.4-0.6-0.7-0.6c0,0-0.4,0-0.5,0l-0.8,0c0,0-0.1,0-0.1-0.1V9.9c0,0,0-0.1,0.1-0.1l0.8,0c0.2,0,0.3,0,0.5,0
		c0.4,0,0.7-0.2,0.8-0.7C3.7,8.5,4,7.8,4.3,7.1c0.2-0.4,0.2-0.7-0.1-0.9C4,5.9,3.8,5.7,3.5,5.5L3.2,5.2c0,0,0,0,0-0.1c0,0,0,0,0-0.1
		l2-1.8c0,0,0,0,0.1,0c0,0,0,0,0,0c0,0,0,0,0.1,0l0.2,0.2c0.2,0.2,0.4,0.4,0.6,0.7c0.2,0.2,0.3,0.3,0.5,0.3c0.1,0,0.3,0,0.5-0.1
		c0.7-0.4,1.4-0.6,2-0.8C9.6,3.3,9.8,3,9.8,2.6c0-0.3,0-0.6,0-0.8l0-0.4c0,0,0-0.1,0.1-0.1h2.5c0,0,0.1,0,0.1,0.1l0,0.4
		c0,0.3,0,0.6,0,0.9c0,0.5,0.2,0.7,0.7,0.9c0.7,0.2,1.4,0.5,2,0.8c0.2,0.1,0.3,0.1,0.5,0.1c0.2,0,0.4-0.1,0.6-0.3
		c0.5-0.5,0.7-0.7,1-0.7c0.3,0,0.5,0.2,1,0.7c0.9,0.9,0.9,1,0,2c-0.4,0.4-0.4,0.6-0.2,1.1c0.4,0.8,0.6,1.4,0.8,2
		c0.2,0.5,0.4,0.6,0.9,0.6c0,0,0,0,0,0c0.2,0,0.3,0,0.5,0l0.8,0c0,0,0.1,0,0.1,0.1v2.6c0,0,0,0.1-0.1,0.1l-0.8,0c-0.2,0-0.3,0-0.5,0
		C19.2,12.5,19,12.7,18.8,13.1z"/>
	<path id="XMLID_576_" class="st0" d="M18.8,35.1c-1.1,0-2.1,0-3.2,0l-2.8,0c-1.5,0-2.4-0.9-2.4-2.4c0-1.5,0-3,0-4.6
		c0-0.1,0-0.2,0-0.3l0-0.1c0,0,0-0.1,0-0.1l0.1-0.1c0,0,0,0,0,0c0,0,0,0,0.1,0c0.1,0.1,0.1,0.2,0.2,0.2c0.1,0.2,0.3,0.4,0.5,0.5
		c0.1,0.1,0.3,0.2,0.5,0.2c0.2,0,0.3-0.1,0.4-0.2c0.1-0.1,0.2-0.3,0.2-0.4c0-0.2-0.1-0.4-0.2-0.5c-0.7-0.7-1.3-1.4-2-2
		c-0.2-0.1-0.3-0.2-0.5-0.2c-0.2,0-0.3,0.1-0.5,0.2c-0.7,0.7-1.4,1.3-2,2C7.1,27.7,7,27.9,7,28.1c0,0.2,0.1,0.3,0.2,0.4
		c0.1,0.1,0.3,0.2,0.4,0.2c0.2,0,0.4-0.1,0.6-0.3c0.2-0.2,0.3-0.3,0.5-0.5l0.2-0.2c0,0,0,0,0.1,0c0,0,0,0,0.1,0l0.1,0.1
		c0,0,0,0,0,0.1l0,1.6c0,1.2,0,2.4,0,3.6c0,1.9,1.5,3.4,3.3,3.4c0.8,0,1.7,0,2.5,0c0.9,0,1.8,0,2.8,0l1.1,0c0.2,0,0.4,0,0.4-0.1
		c0.2-0.3,0.3-0.6,0.3-0.7C19.4,35.2,19,35.1,18.8,35.1z"/>
	<path id="XMLID_577_" class="st0" d="M25.8,8.2c0.1,0,0.2,0,0.3,0l6.1,0c1.3,0,2.2,0.9,2.2,2.2c0,1.5,0,3,0,4.5l0,0.2
		c0,0.1,0,0.2,0,0.3l0,0.1c0,0,0,0.1-0.1,0.1c0,0-0.1,0-0.1,0c0,0-0.1,0-0.1,0c-0.2-0.2-0.3-0.3-0.5-0.5l-0.1-0.1
		c-0.2-0.2-0.4-0.3-0.6-0.3c-0.1,0-0.3,0.1-0.4,0.2c-0.3,0.3-0.2,0.6,0.1,0.9c0.6,0.6,1.3,1.3,1.9,1.9c0.2,0.2,0.4,0.3,0.5,0.3
		c0.2,0,0.3-0.1,0.5-0.3c0.6-0.6,1.3-1.3,1.9-1.9c0.3-0.3,0.3-0.6,0.1-0.9c-0.1-0.1-0.3-0.2-0.4-0.2c-0.2,0-0.4,0.1-0.5,0.3
		c-0.2,0.2-0.3,0.3-0.4,0.5L36,15.8c0,0,0,0-0.1,0c0,0,0,0,0,0l-0.2-0.1c0,0,0,0,0-0.1v-4.9C35.6,8.5,34.2,7,32,7h-5.9
		c-0.1,0-0.2,0-0.3,0c-0.3,0.1-0.5,0.2-0.5,0.5C25.3,7.9,25.4,8.1,25.8,8.2z"/>
	<path id="XMLID_578_" class="st0" d="M32.2,30.2C32.2,30.2,32.2,30.2,32.2,30.2L32.2,30.2C32.2,30.2,32.2,30.2,32.2,30.2L32.2,30.2
		c-0.3,0-0.7,0.3-0.7,0.6c0,0.4,0.3,0.7,0.6,0.7c0,0,0,0,0,0c0.3,0,0.6-0.3,0.7-0.7C32.9,30.5,32.6,30.2,32.2,30.2z"/>
	<path id="XMLID_579_" class="st0" d="M32.2,38.6C32.2,38.6,32.2,38.6,32.2,38.6c0.4,0,0.7-0.3,0.7-0.7c0-0.4-0.3-0.7-0.7-0.7v0.1
		c0,0,0,0,0,0l0-0.1c0,0,0,0,0,0c-0.3,0-0.7,0.4-0.6,0.7C31.5,38.3,31.9,38.6,32.2,38.6z"/>
	<path id="XMLID_582_" class="st0" d="M11.2,6.3L11.2,6.3c-1.3,0-2.6,0.5-3.5,1.4c-0.9,0.9-1.4,2.1-1.4,3.4c0,2.7,2.1,4.9,4.8,4.9
		c0,0,0,0,0,0c2.6,0,4.8-2.2,4.9-4.8C16,8.6,13.8,6.3,11.2,6.3z M14.7,11.1c0,1-0.4,1.9-1.1,2.6c-0.7,0.7-1.6,1.1-2.6,1.1h0
		c-2,0-3.6-1.6-3.6-3.6c0-2,1.6-3.6,3.6-3.6h0C13.1,7.5,14.7,9.2,14.7,11.1z"/>
</g>
</svg>
