<?xml version="1.0" encoding="utf-8"?>
<!-- Generator: Adobe Illustrator 19.0.0, SVG Export Plug-In . SVG Version: 6.00 Build 0)  -->
<svg version="1.1" id="Layer_1" xmlns="http://www.w3.org/2000/svg" xmlns:xlink="http://www.w3.org/1999/xlink" x="0px" y="0px"
	 viewBox="0 0 42 42" style="enable-background:new 0 0 42 42;" xml:space="preserve">
<style type="text/css">
	.st0{fill:#FFFFFF;}
</style>
<g id="XMLID_443_">
	<path id="XMLID_455_" class="st0" d="M11,31.2c0-0.1-0.1-0.2-0.2-0.2c-0.1,0-0.2-0.1-0.3-0.1c-0.2,0-0.5,0.1-0.6,0.2
		c-0.3,0.2-0.5,0.5-0.8,0.9c-0.1,0.1-0.2,0.3-0.4,0.5c-2.9-3.3-4.4-6.7-4.5-10.9l0.6,0c0,0,1,0,1.3,0c0.5,0,0.8-0.2,0.8-0.6
		c0-0.2,0-0.3-0.1-0.4c-0.1-0.1-0.3-0.2-0.7-0.2c0,0-1.2,0-1.2,0l-0.7-0.1c0.1-4,1.6-7.5,4.5-10.7C8.7,9.7,8.9,9.8,9,10
		c0.3,0.3,0.6,0.6,0.9,0.8c0.1,0.1,0.2,0.1,0.4,0.1c0.1,0,0.3,0,0.3,0c0.1,0,0.1,0,0.2,0.1c0-0.1,0-0.2,0-0.3c0-0.2,0-0.5-0.1-0.6
		c-0.2-0.3-0.5-0.7-0.8-1C9.8,8.9,9.7,8.7,9.6,8.5c3.2-2.8,6.7-4.2,10.8-4.3l0,0.6c0,0.4,0,0.8,0,1.2c0,0.3,0.1,0.5,0.2,0.7
		c0.1,0.1,0.2,0.2,0.5,0.2c0,0,0,0,0,0c0.4,0,0.6-0.3,0.6-0.8l0-1.3l0.1-0.7c4.1,0.2,7.6,1.6,10.7,4.5c0,0-1,1-1.2,1.3
		c-0.3,0.4-0.4,0.7-0.1,1c0.1,0.1,0.3,0.2,0.4,0.2c0.2,0,0.4-0.1,0.6-0.3l0.9-0.8l0.5-0.4c2.8,3.1,4.2,6.6,4.3,10.7l-1.1,0
		c-0.2,0-0.5,0-0.8,0c-0.6,0-0.8,0.2-0.8,0.6c0,0.2,0,0.3,0.1,0.4c0.2,0.2,0.5,0.2,0.8,0.2c0,0,2.8,0,2.8,0c0.7,0,1.5,0,2.2,0
		c0.2,0,0.5-0.2,0.7-0.3c0.1-0.1,0.2-0.1,0.3-0.1l0-1l-0.2-1.6c-1.1-10-9.3-17.8-19.4-18.5C21.8,0,21.3,0,20.7,0
		c-4.8,0-9.1,1.6-12.9,4.6C2.4,9-0.2,14.8,0,21.8c0.2,5.2,2.2,9.8,5.9,13.7c0.2,0.3,0.5,0.4,0.7,0.4c0.2,0,0.4-0.1,0.6-0.3l3.5-3.7
		C10.9,31.6,11.1,31.4,11,31.2z M7.1,33.9l-0.5,0.4c-4.7-4.5-7.5-13.8-3.3-22c3.4-6.8,10.2-11,17.6-11c1.9,0,3.7,0.3,5.5,0.8
		c9.2,2.7,14.1,11.2,14,18.2l-1.3-0.1C37.9,10.5,32.7,4.7,23.7,3c-1-0.2-2-0.3-3.1-0.3c-6.2,0-12,3.4-15.1,8.8
		c-4.3,7.4-3.6,14.7,2.1,21.9L7.1,33.9z"/>
	<path id="XMLID_505_" class="st0" d="M41.6,40.9l-1.1-0.7l0-15.4c0-0.9-0.2-1.1-1.1-1.1c-0.5,0-1,0-1.5,0l-1.8,0
		c-1.1,0-1.2,0.1-1.2,1.2l0,14.6l-0.1,1l-2.8-0.1l0-0.2c0-0.1,0-0.3,0-0.4l0-5.2c0-0.9-0.2-1.1-1.1-1.1l-2.2,0c-0.4,0-0.8,0-1.3,0
		c-0.3,0-0.5,0.1-0.7,0.2c-0.1,0.1-0.2,0.4-0.2,0.7c0,0.9,0,1.9,0,2.8l0,1.2c0,2,0,2-2,2.1c0,0-0.1,0-0.1,0c-0.3,0-0.6-0.1-0.7-0.2
		c-0.1-0.1-0.2-0.4-0.2-0.7c0-2.3,0-4.5,0-6.8l0-1.7c0-0.9-0.1-1.1-1-1.1c-0.6,0-1.2,0-1.7,0c-0.5,0-1.1,0-1.6,0c-0.9,0-1,0.2-1,1
		l0,7.2l-0.1,2.3l-2.9-0.1l0-2.8c0-0.6,0-1-0.2-1.1c-0.2-0.2-0.5-0.2-1.1-0.2l-3,0c-1.1,0-1.2,0.1-1.2,1.2l0,2.1l-0.1,0.9
		c-0.1,0-0.2,0-0.3,0c-0.2,0-0.4,0-0.5,0.1c-0.2,0.1-0.5,0.4-0.5,0.6c0,0.2,0.2,0.4,0.4,0.6c0.1,0,0.1,0.1,0.3,0.1l0.3,0l10.7,0
		c6.9,0,13.8,0,20.7,0c0.2,0,0.5-0.2,0.8-0.3c0.1-0.1,0.3-0.1,0.3-0.1l0-0.3L41.6,40.9z M13.8,40.5l-2.7-0.1v-2.7c0,0,0-0.1,0.1-0.1
		l2.7,0.1L13.8,40.5z M22.3,40.5l-2.7-0.1l0.1-9.1l1.1,0c0.4,0,0.8,0,1.2,0c0.2,0,0.4,0.3,0.4,0.5c0,2.3,0,4.6,0,7L22.3,40.5z
		 M30.7,40.6L28,40.5V35c0,0,0-0.1,0.1-0.1l2.7,0.1L30.7,40.6z M39.1,40.6l-2.8-0.1V25.2c0,0,0-0.1,0.1-0.1l2.8,0.1L39.1,40.6z"/>
	<path id="XMLID_511_" class="st0" d="M28.8,13.9c0.2-0.2,0.4-0.7,0.3-1c-0.1-0.3-0.3-0.3-0.4-0.3c-0.2,0-0.5,0.1-0.7,0.4
		c-1.5,1.5-3,3-4.5,4.6l-0.1,0.2c-0.4,0.4-0.8,0.8-1.3,0.8c-0.2,0-0.5-0.1-0.7-0.2c0,0-0.1,0-0.1,0l-0.2,0c-0.9,0-1.8,0.4-2.3,1.1
		c-0.5,0.7-0.6,1.5-0.4,2.2c0.2,0.7,0.1,1.1-0.4,1.5c-0.3,0.2-0.4,0.4-0.4,0.7c0,0.2,0.1,0.3,0.2,0.5c0.1,0.1,0.3,0.2,0.4,0.2
		c0.2,0,0.5-0.2,0.6-0.4c0.3-0.4,0.6-0.6,1-0.6c0.2,0,0.4,0,0.6,0.1c0.2,0.1,0.4,0.1,0.7,0.1c0.8,0,1.6-0.4,2.1-1.2
		c0.5-0.7,0.6-1.6,0.4-2.4c-0.2-0.5,0-0.8,0.3-1.2C25.5,17.3,27.2,15.6,28.8,13.9z M22,21.9c-0.3,0.3-0.7,0.5-1.1,0.5
		c-0.4,0-0.8-0.2-1-0.4c-0.3-0.3-0.4-0.7-0.4-1c0-0.8,0.7-1.4,1.5-1.4h0c0.7,0,1.4,0.7,1.5,1.4C22.4,21.2,22.3,21.6,22,21.9z"/>
</g>
</svg>
