<?xml version="1.0" encoding="utf-8"?>
<!-- Generator: Adobe Illustrator 19.0.0, SVG Export Plug-In . SVG Version: 6.00 Build 0)  -->
<svg version="1.1" id="Layer_1" xmlns="http://www.w3.org/2000/svg" xmlns:xlink="http://www.w3.org/1999/xlink" x="0px" y="0px"
	 viewBox="0 0 42 42" style="enable-background:new 0 0 42 42;" xml:space="preserve">
<style type="text/css">
	.st0{fill:#FFFFFF;}
</style>
<g id="XMLID_5_">
	<path id="XMLID_145_" class="st0" d="M23.3,4.6c-0.1,0.7-0.2,1.3-0.3,1.9c-0.4-0.4-0.9-0.8-1.3-1.2c-2-1.6-2.6-1.4,0.6-4.2
		c0.2-0.2,0.7-0.3,0.8-0.1c0.2,0.1,0.3,0.6,0.3,0.8c-0.1,0.4-0.3,0.8-0.6,1.3c3.6,0.3,6.8,1.5,9.6,3.6c5.9,4.4,8.6,11.8,6.8,19.2
		c-1.7,6.8-7.6,12.3-14.6,13.4c-1,0.2-2.1,0.3-3.2,0.3c-6.6,0-13.2,0-19.8,0c-0.3,0-0.6,0.1-0.8,0c-0.3-0.1-0.6-0.4-0.6-0.6
		c0-0.2,0.3-0.6,0.5-0.7c0.4-0.1,0.8-0.1,1.2-0.1c6.4,0,12.9,0,19.3,0c8.2,0,14.8-5.3,16.7-13.3c1.7-7.3-2.1-15.1-9.2-18.7
		C27,5.2,25.1,4.7,23.3,4.6z"/>
	<path id="XMLID_142_" class="st0" d="M21.5,7.8c0.3,0,0.6,0,0.9,0c1.9,0,1.9,0,2,1.9c0,0.8,0.6,0.9,1.1,1c5.3,2,8.2,7.3,7.1,12.8
		c-1.2,6-6.9,9.8-13.1,8.8c-5.7-1-9.9-6.7-8.9-12.6c0.7-4.3,3.1-7.3,7.1-8.9c0.6-0.2,1-0.4,1-1.1c0-1.8,0.1-1.8,1.9-1.9
		C20.8,7.8,21.1,7.8,21.5,7.8z M19.9,9.3c0.6,1.9-0.5,2.4-1.9,2.9c-4.9,1.9-7.4,7.2-5.8,12c1.4,4.3,5.7,7.2,10.1,6.8
		c4.5-0.4,8.2-3.7,9-8.1c0.8-4.6-1.6-9.1-6-10.8c-1.5-0.6-2.8-1-2.3-3C21.9,9.3,21,9.3,19.9,9.3z"/>
	<path id="XMLID_141_" class="st0" d="M15.2,4.3c0.1,0.1,0.5,0.3,0.5,0.5c0,0.3-0.2,0.7-0.5,0.8c-1.2,0.7-2.5,1.3-3.6,2.1
		C2.2,14.6,2.4,28.6,12,35.2c0.3,0.2,0.6,0.4,0.7,0.6c0.1,0.2,0.1,0.6,0,0.8c-0.1,0.1-0.4,0.3-0.6,0.2c-0.3-0.1-0.6-0.2-0.9-0.4
		c-5.8-4.3-8.6-10-7.8-17.2C4.3,12.3,8.1,7.5,14.3,4.6c0.1-0.1,0.3-0.1,0.5-0.2C14.8,4.3,14.9,4.3,15.2,4.3z"/>
	<path id="XMLID_140_" class="st0" d="M38.9,39.9c-2.3,0-4.7,0-7.1,0c-0.3,0-0.7,0.1-1,0c-0.3-0.1-0.5-0.5-0.8-0.7
		c0.3-0.2,0.6-0.6,0.9-0.6c1.4-0.1,2.9,0,4.3,0c1.3,0,2.6,0,4,0c-0.2-0.4-0.3-0.6-0.4-0.9c0-0.2,0-0.6,0.2-0.6
		c0.2-0.1,0.5-0.2,0.8-0.1c0.2,0.1,0.4,0.4,0.6,0.6c1.8,1.8,1.8,1.8,0,3.5c-0.3,0.3-0.9,0.3-1.3,0.5C39,41,38.9,40.5,38.9,39.9z"/>
	<path id="XMLID_139_" class="st0" d="M8.7,3.3c0,0.5,0,1,0,1.5c-0.5,0-1.1,0-1.7,0c0-0.5,0-1,0-1.5C7.5,3.3,8.1,3.3,8.7,3.3z"/>
	<path id="XMLID_138_" class="st0" d="M34.1,3.3c0,0.5,0,1,0,1.6c-0.5,0-1,0-1.6,0c0-0.5,0-1,0-1.6C33,3.3,33.5,3.3,34.1,3.3z"/>
	<path id="XMLID_137_" class="st0" d="M9.7,3.3c0.6,0,1.1,0,1.6,0c0,0.6,0,1.1,0,1.6c-0.5,0-1,0-1.6,0C9.7,4.4,9.7,3.9,9.7,3.3z"/>
	<path id="XMLID_136_" class="st0" d="M35.2,3.3c0.6,0,1.1,0,1.6,0c0,0.5,0,1,0,1.6c-0.5,0-1,0-1.6,0C35.2,4.4,35.2,3.9,35.2,3.3z"
		/>
	<path id="XMLID_126_" class="st0" d="M21.6,29c-4.3,0-7.8-3.5-7.8-7.7c0-4.3,3.5-7.8,7.8-7.7c4.2,0,7.7,3.5,7.7,7.7
		C29.3,25.5,25.9,29,21.6,29z M27.8,21.3c0-3.5-2.8-6.3-6.2-6.3c-3.5,0-6.4,2.8-6.4,6.3c0,3.5,2.9,6.3,6.4,6.3
		C25.1,27.5,27.8,24.8,27.8,21.3z"/>
	<path id="XMLID_122_" class="st0" d="M21.5,23.3c-1.3,0-1.5-0.8-1.7-1.8c-0.1-0.5,0.6-1.5,1-1.6c1.3-0.3,2-1.3,2.8-2
		c0.3-0.2,0.8-0.2,1.2-0.3c-0.1,0.4,0,1-0.3,1.3C24,19.8,23,20.4,23,21.8C23,22.2,22.8,23.1,21.5,23.3z"/>
</g>
</svg>
