<?xml version="1.0" encoding="utf-8"?>
<!-- Generator: Adobe Illustrator 19.0.0, SVG Export Plug-In . SVG Version: 6.00 Build 0)  -->
<svg version="1.1" id="Layer_1" xmlns="http://www.w3.org/2000/svg" xmlns:xlink="http://www.w3.org/1999/xlink" x="0px" y="0px"
	 viewBox="0 0 42 42" style="enable-background:new 0 0 42 42;" xml:space="preserve">
<style type="text/css">
	.st0{fill:#FFFFFF;}
</style>
<g id="XMLID_708_">
	<path id="XMLID_753_" class="st0" d="M38.9,4.5c-0.9,0-1.8,0-2.8,0c0-0.5,0-1,0-1.4c0-0.9-0.6-1.6-1.6-1.6c-4.9,0-9.8,0-14.8,0
		c-0.4,0-0.8,0.2-0.8,0.6c0,0.5,0.3,0.7,0.8,0.7c0.2,0,0.3,0,0.5,0c3.5,0,7.1,0,10.6,0c1.1,0,2.2,0,3.3,0c0.2,0,0.6,0.2,0.6,0.3
		c0,0.9,0,1.8,0,2.7c-9.3,0-18.5,0-27.7,0c0-0.8,0-1.5,0-2.2c0-0.6,0.2-0.8,0.8-0.8c2.8,0,5.6,0,8.5,0c0.5,0,0.9-0.1,0.9-0.6
		c0-0.6-0.4-0.7-0.9-0.7c-2.9,0-5.9,0-8.8,0c-1.1,0-1.7,0.6-1.7,1.7c0,0.4,0,0.8,0,1.3c-1,0-1.9,0-2.9,0C0.9,4.4,0,6,0,7.5
		c0,7.9,0,15.7,0,23.6c0,2,1.1,3.1,3.1,3.1c4.2,0,8.3,0,12.5,0c0.3,0,0.5,0,0.9,0c-0.2,1.6-0.3,3.1-0.5,4.7c0,0.3-0.2,0.5-0.6,0.5
		c-0.5,0-1.1-0.1-1.6,0c-0.3,0.1-0.6,0.4-0.7,0.6c-0.1,0.4,0.3,0.6,0.7,0.6c4.7,0,9.4,0,14.2,0c0.4,0,0.8-0.2,0.8-0.6
		c0-0.5-0.3-0.6-0.7-0.6c-0.5,0-1.1,0-1.6,0c-0.2,0-0.5-0.2-0.5-0.4c-0.2-1.6-0.3-3.1-0.5-4.8c0.4,0,0.6,0,0.9,0c4.2,0,8.3,0,12.5,0
		c2.1,0,3.1-1,3.1-3.1c0-7.8,0-15.6,0-23.5C42,5.5,41,4.5,38.9,4.5z M36.1,8.5c0.6,0,1.2,0,1.7,0c0.1,0,0.3,0.3,0.3,0.4
		c0,6.2,0,12.4,0,18.5c0,0,0,0,0,0.1c-0.7,0-1.3,0-2,0C36.1,21.3,36.1,15,36.1,8.5z M7.2,7.8c0-0.2,0-0.5,0-0.7c9.3,0,18.5,0,27.7,0
		c0,6.9,0,13.7,0,20.6c-0.3,0-0.5,0-0.7,0c-8.7,0-17.5,0-26.2,0c-0.6,0-0.8-0.2-0.8-0.8C7.2,20.6,7.2,14.2,7.2,7.8z M3.1,5.7
		c0.9,0,1.7,0,2.6,0c0,0,0.1,0,0.2,0.1c0,0.5,0,1,0,1.5c-0.5,0-1,0-1.5,0c-1.3,0-1.8,0.6-1.8,1.9c0,5.9,0,11.8,0,17.7
		c0,0.3,0,0.5,0,0.8c-0.5,0-0.9,0-1.3,0c0-0.2,0-0.5,0-0.7c0-6.5,0-12.9,0-19.4C1.2,6.2,1.8,5.7,3.1,5.7z M3.8,9.3
		c0-0.7,0.2-0.9,0.9-0.8c0.4,0,0.8,0,1.2,0c0,6.4,0,12.8,0,19.1c-0.7,0-1.4,0-2.1,0c0-0.3,0-0.5,0-0.7C3.8,21.1,3.8,15.2,3.8,9.3z
		 M17.3,39.3c0.1-1.7,0.3-3.3,0.4-5c2.2,0,4.4,0,6.6,0c0.1,1.7,0.3,3.3,0.4,5C22.3,39.3,19.8,39.3,17.3,39.3z M40.8,31.7
		C40.7,32.5,40,33,39.1,33c-2.8,0-5.5,0-8.3,0c-9.2,0-18.4,0-27.6,0c-1.5,0-2-0.5-2-2c0-0.7,0-1.3,0-2c13.2,0,26.3,0,39.5,0
		C40.8,29.9,40.8,30.8,40.8,31.7z M40.8,11.5c0,5.1,0,10.2,0,15.3c0,0.3,0,0.5,0,0.8c-0.5,0-0.9,0-1.3,0c0-0.3,0-0.6,0-0.9
		c0-5.8,0-11.6,0-17.4c0-1.6-0.5-2.1-2.1-2.1c-0.4,0-0.8,0-1.2,0c0-0.5,0-1,0-1.6c1.1,0,2.3-0.1,3.4,0c0.8,0.1,1.2,0.7,1.2,1.6
		C40.8,8.7,40.8,10.1,40.8,11.5z"/>
	<path id="XMLID_837_" class="st0" d="M22.7,25.3c2.1-0.4,3.7-1.5,5-3.3c0.2-0.3,0.3-0.7-0.1-0.9c-0.3-0.3-0.7-0.1-0.9,0.2
		c-0.1,0.1-0.2,0.2-0.3,0.4c-1.9,2.2-4.3,3.1-7.2,2.3c-3.2-0.8-5.3-3.7-5.2-6.9c0.1-3.2,2.4-5.9,5.7-6.6c3.1-0.6,6.2,1,7.6,4
		c0.6,1.4,0.8,2.8,0.5,4.2c-0.1,0.4,0,0.8,0.5,0.8c0.4,0.1,0.7-0.2,0.7-0.7c0.1-0.5,0.1-1,0.2-1.6c0-4-2.8-7.3-6.8-8
		c-4.6-0.9-9.2,2.6-9.5,7.3C12.4,22.2,17.2,26.4,22.7,25.3z"/>
	<path id="XMLID_840_" class="st0" d="M25.7,18.9c0.4-0.4,0.7-0.9,1-1.4c0.1-0.3,0.3-0.7,0.1-0.9c-0.1-0.2-0.6-0.2-1.1-0.3
		c0-0.1,0-0.2-0.1-0.3c-0.5-1.8-1.6-3-3.4-3.6c-1.8-0.6-3.4-0.2-4.8,1c-0.3,0.3-0.5,0.6-0.2,1c0.4,0.4,0.7,0.2,1-0.1
		c1-0.8,2.1-1.1,3.3-0.8c1.5,0.3,2.8,1.7,2.8,2.8c-0.4,0.1-0.8,0-1,0.2c-0.4,0.3-0.1,0.7,0.1,1c0.3,0.4,0.6,0.9,1,1.3
		C25,19.3,25.4,19.3,25.7,18.9z M25.8,16.4C25.8,16.4,25.8,16.4,25.8,16.4L25.8,16.4z"/>
	<path id="XMLID_841_" class="st0" d="M18.4,17.1c-0.3-0.4-0.7-0.9-1-1.3c-0.3-0.4-0.7-0.4-1,0c-0.3,0.4-0.7,0.8-1,1.3
		c-0.2,0.3-0.3,0.8-0.2,1c0.1,0.2,0.6,0.2,1,0.3c0.1,0,0.2,0.1,0.2,0.3c0.8,3.6,5.4,5.1,8.1,2.6c0.3-0.3,0.6-0.6,0.2-1
		c-0.3-0.4-0.7-0.2-1,0.1c-0.7,0.6-1.4,0.9-2.3,0.9c-1.9,0.1-3.7-1.3-3.8-2.9c0.4,0,0.8,0,1-0.2C18.9,17.8,18.6,17.4,18.4,17.1z"/>
	<path id="XMLID_842_" class="st0" d="M22.4,30.4c-0.9-0.1-1.8-0.1-2.7,0c-0.2,0-0.4,0.4-0.6,0.6c0.2,0.2,0.4,0.5,0.6,0.6
		c0.4,0.1,0.9,0,1.4,0c0.5,0,0.9,0.1,1.4,0c0.2-0.1,0.4-0.4,0.6-0.6C22.8,30.7,22.6,30.4,22.4,30.4z"/>
</g>
</svg>
