<svg width="42" height="42" viewBox="0 0 42 42" fill="none" xmlns="http://www.w3.org/2000/svg">
<g clip-path="url(#clip0_703_381)">
<g clip-path="url(#clip1_703_381)">
<path d="M36.842 1C31.4269 1 25.9151 1.09809 20.5967 1.09809C15.1816 1.09809 9.66981 1 4.25472 1H4.15802C2.03066 1 0.773585 1.6866 0 3.35407V31.5048C0 31.5048 0 31.5048 0.0966981 31.6029C0.193396 31.701 0.290094 31.799 0.386792 31.9952C0.966981 33.2703 2.03066 33.9569 3.48113 33.9569C5.125 33.9569 6.86557 33.9569 8.99292 33.9569C10.25 33.9569 11.4104 33.9569 12.6675 33.9569C13.9245 33.9569 15.0849 33.9569 16.342 33.9569H17.5991H17.8892V34.2512V35.6244C17.8892 36.6053 17.8892 37.5861 17.8892 38.567C17.8892 41.2153 18.7594 42 21.3703 42H24.658C25.8184 42 26.9788 42 28.1392 42C29.783 42 31.3302 42 32.9741 42C35.0047 42 35.875 41.0191 35.875 38.9593C35.875 37.8804 35.875 36.8014 35.875 35.7225C35.875 35.2321 35.875 34.6435 35.875 34.055V33.7608H36.1651C36.5519 33.8589 36.9387 33.8589 37.2288 33.8589C39.066 33.8589 40.2264 32.9761 40.9033 31.3086V3.55024C40.3231 1.78469 39.066 1 36.842 1ZM19.0495 16.3995C19.0495 15.6148 19.0495 14.8301 19.1462 14.0455C19.2429 13.555 20.0165 12.8684 20.5967 12.8684C22.6274 12.8684 24.8514 12.7703 27.4623 12.7703C29.2995 12.7703 31.2335 12.7703 33.0708 12.7703H33.3608C34.2311 12.7703 34.8113 13.2608 34.8113 14.1435C34.8113 14.8301 34.8113 15.5167 34.8113 16.3014C34.8113 16.5957 34.8113 16.988 34.8113 17.2823V17.5766H34.5212H19.3396H19.0495V17.2823C19.0495 16.988 19.0495 16.6938 19.0495 16.3995ZM19.0495 23.756C19.0495 22.3828 19.0495 21.0096 19.0495 19.7345C19.0495 19.6364 19.0495 19.5383 19.0495 19.4402C19.0495 19.3421 19.0495 19.3421 19.0495 19.244V19.0478H19.2429H34.3278H34.6179V19.3421V35.0359V35.2321H34.4245C34.3278 35.2321 34.2311 35.2321 34.1344 35.2321C33.941 35.2321 33.7476 35.2321 33.5542 35.2321C32.0071 35.2321 30.4599 35.2321 28.9127 35.2321C26.592 35.2321 24.2712 35.2321 21.8538 35.2321C21.3703 35.2321 20.7901 35.2321 20.3066 35.2321C19.9198 35.2321 19.533 35.2321 19.3396 34.9378C19.1462 34.7416 19.0495 34.4474 19.0495 34.055C19.0495 30.622 19.0495 27.0909 19.0495 23.756ZM34.7146 39.6459C34.7146 40.4306 34.1344 40.9211 33.2642 40.9211C29.5896 40.9211 25.8184 40.9211 22.1439 40.9211H20.5C19.6297 40.9211 19.1462 40.4306 19.0495 39.5478C19.0495 38.9593 19.0495 38.2727 19.0495 37.6842C19.0495 37.39 19.0495 37.0957 19.0495 36.8014V36.5072H19.3396H34.5212H34.8113V36.8014C34.8113 37.0957 34.8113 37.39 34.8113 37.6842C34.8113 38.1746 34.8113 38.9593 34.7146 39.6459ZM39.7429 14.3397C39.7429 16.5957 39.7429 18.8517 39.7429 21.1077C39.7429 23.9522 39.7429 26.7967 39.7429 29.6411C39.7429 31.5048 39.3561 32.6818 37.5189 32.6818C37.1321 32.6818 36.7453 32.6818 36.1651 32.5837H35.9717V32.3876V31.2105V27.7775C35.9717 23.8541 35.9717 19.8325 35.9717 15.811C35.9717 15.2225 35.9717 14.7321 35.875 14.1435C35.7783 12.6722 34.7146 11.7895 33.3608 11.7895C31.2335 11.7895 29.1061 11.7895 26.8821 11.7895C24.7547 11.7895 22.6274 11.7895 20.5 11.7895C18.9528 11.7895 17.8892 12.9665 17.8892 14.634C17.8892 18.9498 17.8892 23.2656 17.8892 27.5813C17.8892 29.2488 17.8892 30.9163 17.8892 32.5837V32.7799H17.6958C17.5991 32.7799 17.4057 32.7799 17.309 32.7799C17.0189 32.7799 16.8255 32.7799 16.5354 32.7799C11.7005 32.7799 7.44575 32.7799 3.38443 32.6818C2.03066 32.6818 1.16038 31.8971 1.16038 30.5239C1.16038 25.0311 1.16038 19.4402 1.16038 14.1435C1.16038 12.7703 1.16038 11.3971 1.16038 10.0239C1.16038 9.92584 1.16038 9.82775 1.25708 9.72966C1.25708 9.72966 1.25708 9.63158 1.35377 9.63158L1.45047 9.43541H1.64387H39.6462H39.9363V9.82775V11.299C39.7429 12.2799 39.7429 13.3589 39.7429 14.3397ZM39.8396 6.98325C39.8396 7.3756 39.8396 7.76794 39.8396 8.0622V8.35646H39.5495H1.45047H1.16038V8.0622C1.16038 7.66986 1.16038 7.17943 1.16038 6.78708C1.16038 5.80622 1.16038 4.82536 1.16038 3.8445C1.25708 2.76555 2.03066 2.17703 3.38443 2.17703C6.28538 2.17703 9.08962 2.17703 11.9906 2.17703H16.7288H21.3703H25.7217H30.0731C32.3939 2.17703 34.8113 2.17703 37.1321 2.17703C38.7759 2.17703 39.4528 2.96172 39.4528 4.5311C39.8396 5.41388 39.8396 6.10048 39.8396 6.98325Z" fill="#1B3ECD"/>
<path d="M14.1179 12.0837C13.6344 12.0837 13.0542 12.0837 12.3774 12.0837C11.8939 12.0837 11.5071 12.0837 11.0236 12.0837C10.6368 12.0837 10.1533 12.0837 9.76651 12.0837H9.47641H8.21933H6.96226C6.28537 12.0837 5.60849 12.0837 4.9316 12.0837C4.15801 12.0837 3.86792 12.378 3.86792 13.1627V13.9474C3.86792 15.1244 3.86792 16.3995 3.86792 17.6746C3.86792 18.4593 4.25471 18.7536 4.9316 18.7536H7.54245C9.66981 18.7536 11.8939 18.7536 14.0212 18.7536C14.7948 18.7536 15.1816 18.3613 15.1816 17.5766C15.1816 15.9091 15.1816 14.5359 15.1816 13.3589C15.2783 12.378 14.9882 12.0837 14.1179 12.0837ZM14.1179 13.555V17.2823V17.5766H13.8278H5.31839H5.125V17.2823V13.555V13.2608H5.41509H13.9245H14.2146V13.555H14.1179Z" fill="#1B3ECD"/>
<path d="M14.408 28.9545C13.7311 28.9545 13.1509 28.9545 12.3773 28.9545C11.8938 28.9545 11.507 28.9545 11.0235 28.9545C10.5401 28.9545 10.1533 28.9545 9.66977 28.9545H9.37968C8.99288 28.9545 8.60609 28.9545 8.2193 28.9545C7.73581 28.9545 7.34902 28.9545 6.86552 28.9545C6.09194 28.9545 5.41505 28.9545 4.83486 28.9545C4.44807 28.9545 4.25468 29.0526 4.15798 29.1507C4.06128 29.2488 4.06128 29.3469 4.06128 29.543C4.06128 29.9354 4.15798 30.1316 4.83486 30.1316C8.1226 30.1316 11.3136 30.1316 14.408 30.1316C15.0849 30.1316 15.2783 29.9354 15.2783 29.6411C15.2783 29.445 15.2783 29.3469 15.1816 29.2488C14.9882 28.9545 14.6014 28.9545 14.408 28.9545Z" fill="#1B3ECD"/>
<path d="M15.0849 21.5C14.9882 21.4019 14.6981 21.3038 14.3113 21.3038H10.9269C8.8962 21.3038 6.86554 21.3038 4.93158 21.3038C4.158 21.3038 3.9646 21.5 3.9646 21.9904C3.9646 22.4809 4.158 22.579 4.93158 22.579C5.60847 22.579 6.28535 22.579 6.96224 22.579H8.31602H9.37969H9.66979H11.0236H12.3773C13.0542 22.579 13.7311 22.579 14.408 22.579C15.1816 22.579 15.375 22.4809 15.375 22.0885C15.2783 21.6962 15.1816 21.5981 15.0849 21.5Z" fill="#1B3ECD"/>
<path d="M8.31603 25.1292H6.96226C6.28537 25.1292 5.60849 25.1292 4.8349 25.1292C4.15801 25.1292 3.96462 25.2273 3.86792 25.7177C3.86792 25.9139 3.86792 26.1101 3.96462 26.2082C4.06132 26.3062 4.35141 26.4043 4.7382 26.4043C6.96226 26.4043 9.28301 26.4043 11.5071 26.4043H14.1179C14.8915 26.4043 15.0849 26.2082 15.0849 25.8158C15.0849 25.6196 15.0849 25.5216 14.9882 25.4235C14.7948 25.2273 14.5047 25.2273 14.1179 25.2273C13.441 25.2273 12.7641 25.2273 12.0873 25.2273H10.7335H9.37971H9.47641L8.31603 25.1292Z" fill="#1B3ECD"/>
<path d="M36.0684 4.72729H33.9411H32.2005H30.4599C29.1062 4.72729 27.7524 4.72729 26.3986 4.72729C25.7217 4.72729 25.4316 4.82538 25.4316 5.31581C25.4316 5.51198 25.4316 5.61007 25.5283 5.70816C25.7217 5.90433 26.0118 5.90433 26.3019 5.90433C26.9788 5.90433 27.7524 5.90433 28.4293 5.90433H29.6864H30.9434H31.0401H31.1368C31.6203 5.90433 32.0071 5.90433 32.4906 5.90433C32.9741 5.90433 33.3609 5.90433 33.8444 5.90433C34.5213 5.90433 35.1982 5.90433 35.9717 5.90433H36.0684C36.3585 5.90433 36.7453 5.90433 36.9387 5.70816C37.0354 5.61007 37.0354 5.51198 37.0354 5.31581C37.0354 4.82538 36.7453 4.72729 36.0684 4.72729Z" fill="#1B3ECD"/>
<path d="M24.9481 15.811C25.1415 15.811 25.3349 15.811 25.4316 15.811C25.7216 15.811 26.0117 15.811 26.3018 15.811C26.4952 15.811 26.6886 15.811 26.882 15.811C26.5919 15.811 26.2051 15.811 25.915 15.811C26.3018 15.811 26.5919 15.811 26.9787 15.811H27.2688C27.6556 15.811 27.9457 15.811 28.3325 15.811H28.4292C28.5259 15.811 28.5259 15.811 28.6226 15.811H29.5896H29.6863C29.4929 15.811 29.1061 15.811 28.6226 15.811C28.9127 15.811 29.1061 15.811 29.2995 15.6148C29.3962 15.5167 29.3962 15.4187 29.3962 15.2225C29.3962 14.8301 29.2028 14.7321 28.4292 14.7321C27.2688 14.7321 26.1084 14.7321 24.9481 14.7321C24.2712 14.7321 23.9811 14.8301 23.9811 15.3206C23.9811 15.5167 23.9811 15.6148 24.0778 15.7129C24.2712 15.7129 24.658 15.7129 24.9481 15.811Z" fill="#1B3ECD"/>
<path d="M26.8821 32.6818C29.9764 32.6818 32.5873 30.1316 32.5873 26.9928C32.5873 25.4235 32.0071 23.9522 30.9434 22.7751C29.8797 21.6962 28.4292 21.1077 26.8821 21.1077C23.7877 21.1077 21.1769 23.756 21.1769 26.8947C21.1769 28.4641 21.7571 29.9354 22.8207 31.0144C23.8844 31.9952 25.3349 32.6818 26.8821 32.6818ZM26.8821 22.1866C28.1391 22.1866 29.3962 22.677 30.2665 23.5598C31.1368 24.4426 31.6203 25.6196 31.6203 26.8947C31.6203 29.445 29.5896 31.5048 26.9788 31.5048H26.8821C25.625 31.5048 24.4646 31.0144 23.5943 30.1316C22.724 29.2488 22.2406 27.9737 22.3373 26.6986C22.3373 24.2464 24.3679 22.1866 26.8821 22.1866Z" fill="#1B3ECD"/>
<path d="M25.5283 28.1699C25.625 28.268 26.0118 28.4641 26.3019 28.4641C26.3986 28.4641 26.3986 28.4641 26.3986 28.4641C27.1722 27.8756 27.9458 27.2871 28.7194 26.4043C28.8161 26.3062 28.7194 26.012 28.7194 25.9139C28.7194 25.8158 28.7194 25.8158 28.7194 25.7177C28.6227 25.7177 28.6227 25.7177 28.526 25.7177C28.4293 25.7177 28.3326 25.7177 28.2359 25.7177C28.1392 25.7177 28.0425 25.7177 27.9458 25.8158C27.559 26.012 27.2689 26.4043 26.8821 26.6986C26.6887 26.7967 26.592 26.9928 26.3986 27.0909L26.1085 27.3852V26.8947V26.7967V26.6986C26.0118 26.6986 25.9151 26.6986 25.8184 26.6986C25.7217 26.6986 25.5283 26.6986 25.4316 26.6986C25.1415 26.6986 25.0448 26.7967 25.0448 26.7967C24.658 27.189 24.9481 27.5813 25.4316 28.0718L25.5283 28.1699Z" fill="#1B3ECD"/>
<path d="M4.93165 6.1005C5.30548 6.1005 5.60853 5.7931 5.60853 5.4139C5.60853 5.0347 5.30548 4.72729 4.93165 4.72729C4.55781 4.72729 4.25476 5.0347 4.25476 5.4139C4.25476 5.7931 4.55781 6.1005 4.93165 6.1005Z" fill="#1B3ECD"/>
<path d="M7.54249 6.1005C7.91632 6.1005 8.21937 5.7931 8.21937 5.4139C8.21937 5.0347 7.91632 4.72729 7.54249 4.72729C7.16865 4.72729 6.8656 5.0347 6.8656 5.4139C6.8656 5.7931 7.16865 6.1005 7.54249 6.1005Z" fill="#1B3ECD"/>
<path d="M10.1533 6.1005C10.5272 6.1005 10.8302 5.7931 10.8302 5.4139C10.8302 5.0347 10.5272 4.72729 10.1533 4.72729C9.77949 4.72729 9.47644 5.0347 9.47644 5.4139C9.47644 5.7931 9.77949 6.1005 10.1533 6.1005Z" fill="#1B3ECD"/>
<path d="M26.7854 39.3517C27.1592 39.3517 27.4623 39.0443 27.4623 38.6651C27.4623 38.2859 27.1592 37.9785 26.7854 37.9785C26.4116 37.9785 26.1085 38.2859 26.1085 38.6651C26.1085 39.0443 26.4116 39.3517 26.7854 39.3517Z" fill="#1B3ECD"/>
</g>
</g>
<defs>
<clipPath id="clip0_703_381">
<rect width="42" height="42" fill="white"/>
</clipPath>
<clipPath id="clip1_703_381">
<rect width="41" height="41" fill="white" transform="translate(0 1)"/>
</clipPath>
</defs>
</svg>
