<?xml version="1.0" encoding="utf-8"?>
<!-- Generator: Adobe Illustrator 19.0.0, SVG Export Plug-In . SVG Version: 6.00 Build 0)  -->
<svg version="1.1" id="Layer_1" xmlns="http://www.w3.org/2000/svg" xmlns:xlink="http://www.w3.org/1999/xlink" x="0px" y="0px"
	 viewBox="0 0 42 42" style="enable-background:new 0 0 42 42;" xml:space="preserve">
<style type="text/css">
	.st0{fill:#FFFFFF;}
</style>
<g id="XMLID_208_">
	<path id="XMLID_267_" class="st0" d="M42,33.7l0-4.5c0-4.4,0-8.7,0-13.1c0-1.4-0.7-2.5-1.9-3.1c-0.5-0.2-1.2-0.4-2.1-0.4
		c-1.6,0-3.3,0-5,0c-0.6,0-1.2,0-1.7,0l0-2.3c0-1.8,0-3.6,0-5.3c0-3.3-1.8-5-5.1-5c-7,0-14.1,0-21.1,0C1.8,0,0,1.8,0,5.1
		c0,10.6,0,21.1,0,31.7C0,40.3,1.7,42,5.3,42c4.3,0,8.6,0,12.9,0l10.9,0c1.2,0,2.5,0,3.7,0c1.9,0,3.8,0,5.7,0c2.1,0,3.5-1.4,3.5-3.5
		c0-1.1,0-2.2,0-3.3C42,34.7,42,34.2,42,33.7z M38.6,14c1.6,0,2,1.1,2,2.2H23.6c0.1-1.4,0.7-2.1,2-2.2C29.9,13.9,34.3,13.9,38.6,14z
		 M40.7,17.8v17H23.6v-17H40.7z M21.6,40.7c-5.5,0-11,0-16.5,0c-2.6,0-3.9-1.3-3.9-3.9c0-10.5,0-21,0-31.6c0-2.7,1.3-4,4-4
		c3.6,0,7.2,0,10.9,0c3.3,0,6.7,0,10,0c2.6,0,3.9,1.3,3.9,3.9c0,2.1,0,4.2,0,6.4l0,0.7c0,0,0,0.1-0.1,0.2c0,0,0,0,0,0.1h-2l0-1.6
		c0-1.2,0-2.3,0-3.5c0-2.8-1.1-3.9-3.9-3.9c-5.6,0-11.2,0-16.8,0c-2.5,0-3.7,1.2-3.7,3.6c0,7.9,0,15.8,0,23.7c0,2.4,1.2,3.7,3.7,3.7
		c2.7,0,5.5,0,8.2,0h6.4l0.4,6.2C22.1,40.7,21.9,40.7,21.6,40.7z M22.2,16.3c0,4.1,0,8.2,0,12.2l0,4.2c0,0.1,0,0.2,0,0.3
		c0,0,0,0.1,0,0.1c-0.1,0-0.2,0-0.3,0c-0.3,0-0.6,0-0.9,0c-4.5,0-9.1,0-13.6,0c-2,0-2.7-0.6-2.7-2.6c0-7.7,0-15.5,0-23.2
		c0-2,0.6-2.7,2.6-2.7c3.2,0,6.5,0,9.7,0c2.4,0,4.8,0,7.1,0c1.9,0,2.6,0.7,2.6,2.5c0,1.3,0,2.5,0,3.9l0,1.6c-0.1,0-0.3,0-0.4,0
		c-0.3,0-0.6,0-0.9,0C23.6,12.8,22.2,14.3,22.2,16.3z M40.7,38.8c-0.1,1.1-1,1.9-2.1,1.9c-4.6,0-8.8,0-12.9,0
		c-1.4,0-2.2-0.8-2.2-2.2c0-0.3,0-0.6,0-0.9c0-0.8,0-1.3,0.1-1.4c0.1-0.1,0.2-0.1,0.5-0.1c0.1,0,0.3,0,0.5,0c0.3,0,0.7,0,1.1,0
		c3.4,0,6.8,0,10.2,0c1.2,0,2.5,0,3.7,0c0.3,0,0.6,0,0.9,0c0.1,0,0.2,0,0.3,0c0,0.3,0,0.5,0,0.7C40.8,37.6,40.8,38.2,40.7,38.8z"/>
	<path id="XMLID_338_" class="st0" d="M15.7,35.6c-0.6,0-1.2,0.2-1.6,0.6c-0.4,0.4-0.7,1-0.7,1.6c0,1.2,0.9,2.2,2.1,2.3
		c0,0,0.1,0,0.1,0c0.5,0,1.1-0.2,1.5-0.6c0.4-0.4,0.7-1,0.7-1.6C17.9,36.7,17,35.7,15.7,35.6z M15.6,38.7c-0.5,0-0.9-0.4-0.9-0.9
		c0-0.5,0.4-0.9,0.9-0.9c0.5,0,0.9,0.4,0.9,0.9C16.5,38.3,16.1,38.7,15.6,38.7z"/>
	<path id="XMLID_339_" class="st0" d="M33.9,37.5c-1.1,0-2.3,0-3.6,0c-0.4,0-0.7,0.1-0.9,0.3c-0.2,0.2-0.3,0.4-0.3,0.8
		c0,0.4,0.1,0.6,0.3,0.8c0.2,0.2,0.6,0.3,0.9,0.3c0.4,0,0.8,0,1.2,0l0.5,0c0.2,0,0.4,0,0.6,0c0.2,0,0.4,0,0.6,0c0.3,0,0.6,0,0.8-0.1
		c0.4-0.1,0.9-0.5,1-0.9c0.1-0.3,0.1-0.6-0.1-0.8C34.7,37.6,34.3,37.5,33.9,37.5z"/>
	<path id="XMLID_340_" class="st0" d="M15.7,25.5c-0.1-0.3-0.5-0.5-0.8-0.4c-0.3,0.1-0.5,0.5-0.4,0.8l0.3,0.8
		c-0.7-0.3-1.6-0.9-2.5-1.9c-1.8-2.1-1.8-5.5-1.8-5.6c0-0.3-0.3-0.6-0.6-0.6c0,0,0,0,0,0c-0.3,0-0.6,0.3-0.6,0.6
		c0,0.2,0,3.9,2.1,6.4c0.9,1.1,1.9,1.7,2.6,2.1L13.5,28c-0.3,0.1-0.5,0.5-0.4,0.8c0.1,0.2,0.3,0.4,0.6,0.4c0.1,0,0.2,0,0.2,0
		l2.1-0.8c0.3-0.1,0.5-0.5,0.4-0.8L15.7,25.5z"/>
	<path id="XMLID_341_" class="st0" d="M34.1,4.4c0.1,0.3,0.4,0.4,0.7,0.3c0.3-0.1,0.4-0.4,0.3-0.7l-0.3-0.7c0.6,0.3,1.4,0.8,2.1,1.6
		c1.5,1.8,1.5,4.7,1.5,4.8c0,0.3,0.2,0.5,0.5,0.5c0,0,0,0,0,0c0.3,0,0.5-0.2,0.5-0.5c0-0.1,0-3.3-1.8-5.5c-0.7-0.9-1.6-1.5-2.3-1.8
		L36,2.3c0.3-0.1,0.4-0.4,0.3-0.7c-0.1-0.2-0.3-0.3-0.5-0.3c-0.1,0-0.1,0-0.2,0L33.8,2c-0.3,0.1-0.4,0.4-0.3,0.7L34.1,4.4z"/>
</g>
</svg>
