<?xml version="1.0" encoding="utf-8"?>
<!-- Generator: Adobe Illustrator 19.0.0, SVG Export Plug-In . SVG Version: 6.00 Build 0)  -->
<svg version="1.1" id="Layer_1" xmlns="http://www.w3.org/2000/svg" xmlns:xlink="http://www.w3.org/1999/xlink" x="0px" y="0px"
	 viewBox="0 0 42 42" style="enable-background:new 0 0 42 42;" xml:space="preserve">
<style type="text/css">
	.st0{fill:#1B3ECD;}
</style>
<g id="XMLID_831_">
	<path id="XMLID_1058_" class="st0" d="M42,36.5l0-2.7c0-2.4,0-4.7,0-7.1c0-1.3-0.7-1.9-1.9-2c-0.2,0-0.5,0-0.7,0
		c-0.4,0-0.7,0-1.1,0h-2.8l0-3.5c0-2.2,0-4.4,0-6.7c0-1.4-0.7-2.1-2.1-2.1c-1.1,0-2.3,0-3.4,0l-2.1,0l0-3.1c0-2,0-3.9,0-5.9
		c0-1.4-0.7-2.1-2.1-2.1c-7.9,0-15.8,0-23.7,0c-1.3,0-2,0.7-2,2c0,6.4,0,12.8,0,19.2c0,1.3,0.7,2,2,2c0.5,0,1.1,0,1.7,0l0.8,0l0,2.7
		c0,1.6,0,3.3,0,4.9c0,1.3,0.7,2,2,2c2.5,0,5,0,7.5,0c0.2,0,0.3,0,0.5,0c0.1,0,0.1,0,0.2,0L14,36.5l-0.2,0c-0.2,0-0.3,0-0.5,0
		c-1.7,0-2.5,0.7-2.5,2.5c0,0.6,0.1,1,0.3,1.3c0.3,0.3,0.7,0.3,1.3,0.3c5,0,10,0,15,0c0.1,0,0.1,0,0.2,0c0.1,0,0.1,0,0.2,0
		c0.1,0,0.2,0,0.3-0.1c0.3-0.2,0.8-0.5,0.8-0.9c0.2-1.2,0-2-0.5-2.5c-0.4-0.5-1.2-0.7-2.2-0.6c0,0,0,0-0.1,0c-0.1,0-0.1,0-0.2,0
		l-0.1,0c-0.1-0.1-0.3-0.1-0.3-0.2c-0.2-0.5-0.3-1-0.4-1.5c0-0.2-0.1-0.3-0.1-0.5h5.6l0,1.3c0,1,0,2.1,0,3.1c0,1.2,0.7,1.9,1.9,2
		c2.4,0,4.8,0,7.4,0c1.1,0,1.8-0.7,1.9-1.9c0-0.5,0-1.1,0-1.6C42,36.9,42,36.7,42,36.5z M27.7,39.3H12.3c-0.1-0.6-0.1-0.9,0.1-1.1
		c0.2-0.2,0.5-0.3,1-0.3c4.4,0,8.8,0,13.2,0c0.6,0,0.9,0.1,1,0.2C27.8,38.3,27.8,38.6,27.7,39.3z M32.3,31c0-1.4,0-2.8,0-4.1
		c0-0.8,0.1-0.9,0.9-0.9c1.1,0,2.2,0,3.3,0s2.2,0,3.3,0c0.8,0,0.9,0.1,0.9,0.8c0,3.9,0,7.7,0,11.6c0,0.7-0.1,0.8-0.9,0.8
		c-2.4,0-4.8,0-6.7,0c-0.8,0-0.9-0.1-0.9-0.9c0-1.4,0-2.8,0-4.2V31z M30.9,29.8h-25v-5.2h0.8c6.3,0,12.6,0,18.9,0
		c1.6,0,2.2-0.6,2.2-2.2c0-1.9,0-3.8,0-5.6l0-3h1.7c0.4,0,0.7,0,1.1,0c0.9,0,1.8,0,2.7,0c0,0,0,0,0,0c0.3,0,0.4,0,0.5,0.2
		c0.1,0.1,0.1,0.2,0.1,0.4c0,3.4,0,6.8,0,10.3c0,0,0,0,0,0.1c0,0,0,0,0,0.1c-0.1,0-0.2,0-0.3,0c-0.3,0-0.6,0-0.9,0
		c-1.2,0-1.9,0.7-1.9,1.9c0,0.7,0,1.5,0,2.2C30.9,29.1,30.9,29.4,30.9,29.8z M1.4,12.7c0-1.3,0-2.6,0-4c0-0.1,0-0.1,0-0.2
		c0,0,0-0.1,0-0.1l3.2,0c2.5,0,5,0,7.4,0c0.1,0,0.1,0,0.2,0c0.2,0,0.3,0,0.4,0c0.2-0.1,0.5-0.4,0.5-0.6c0-0.2-0.3-0.5-0.5-0.6
		c-0.1-0.1-0.3-0.1-0.4,0c-0.1,0-0.1,0-0.2,0c-3.3,0-6.6,0-9.9,0H1.4c0-0.3,0-0.6,0-0.9c0-1,0-2,0-3c0-0.1,0.1-0.2,0.5-0.5
		c0.1,0,0.2,0,0.3,0c0.1,0,0.1,0,0.2,0c7.7,0,15.4,0,23.1,0c1,0,1,0,1,1c0,0.7,0,1.5,0,2.2v1.1h-0.7c-3.3,0-6.6,0-9.9,0
		c-0.1,0-0.1,0-0.2,0c-0.2,0-0.3,0-0.4,0c-0.2,0.1-0.5,0.4-0.5,0.6c0,0.2,0.3,0.5,0.5,0.6c0.1,0.1,0.3,0.1,0.4,0.1
		c0.1,0,0.1,0,0.2,0c2.5,0,5,0,7.4,0l3.2,0c0,0.1,0,0.1,0,0.2c0,0.2,0,0.3,0,0.4c0,4.4,0,8.9,0,13.3c0,0.8,0,0.9-0.9,0.9h-6.5
		c-5.6,0-11.2,0-16.8,0c0,0,0,0,0,0c-0.3,0-0.6,0-0.7-0.2c-0.1-0.1-0.2-0.3-0.2-0.5C1.4,19.3,1.4,15.9,1.4,12.7z M21.4,32.9
		c-0.2,0.1-0.3,0.3-0.5,0.4c-0.1,0.1-0.1,0.1-0.2,0.2l0,0l0,0c0.1,0.1,0.1,0.1,0.2,0.2c0.2,0.2,0.3,0.4,0.5,0.4c0.6,0.1,1.1,0,1.8,0
		c0.2,0,0.4,0,0.6,0l0.7,2.3h-9c0-0.2,0.1-0.3,0.1-0.5c0.2-0.6,0.3-1.1,0.5-1.6c0-0.1,0.2-0.2,0.4-0.2c0.4,0,0.9,0,1.3,0l0.4,0
		c0.3,0,0.7,0,0.9-0.2c0.1-0.1,0.2-0.3,0.2-0.5c0-0.2-0.1-0.4-0.2-0.5c-0.2-0.2-0.4-0.2-0.6-0.2c-0.1,0-0.2,0-0.3,0c0,0,0,0,0,0
		c-2.5,0-5,0-7.5,0l-3.2,0c-0.8,0-1.2,0-1.4-0.2c-0.2-0.2-0.2-0.6-0.1-1.5h25v1.7h-0.7c-2.7,0-5.5,0-8.2,0c-0.1,0-0.1,0-0.2,0
		C21.7,32.9,21.5,32.9,21.4,32.9z"/>
	<path id="XMLID_1098_" class="st0" d="M3.2,20.2c0,0.9,0.4,1.3,1.3,1.3c0.9,0,1.9,0,2.9,0c1,0,1.9,0,3,0c0.9,0,1.3-0.4,1.3-1.3
		c0-2.9,0-5.8,0-8.6c0-0.9-0.4-1.3-1.3-1.3h0c-1.9,0-3.8,0-5.8,0c-0.9,0-1.3,0.4-1.3,1.3c0,1,0,2.1,0,3.1l0,1.1c0,0.4,0,0.9,0,1.3
		C3.2,18.1,3.2,19.1,3.2,20.2z M4.6,20.1v-8.5h5.6v8.5H4.6z"/>
	<path id="XMLID_1101_" class="st0" d="M14.6,15.1c1.5,0,2.9,0,4.4,0c1.5,0,3,0,4.5,0c0.8,0,1.2-0.4,1.2-1.2c0-0.8,0-1.6,0-2.4
		c0-0.9-0.4-1.4-1.4-1.4c-1,0-2,0-3,0l-1.3,0c-0.4,0-0.9,0-1.3,0c-1,0-2.1,0-3.1,0c-0.8,0-1.2,0.4-1.2,1.2c0,0.8,0,1.7,0,2.5
		C13.5,14.7,13.9,15.1,14.6,15.1z M14.9,13.7v-2.1h8.4v2.1H14.9z"/>
	<path id="XMLID_1102_" class="st0" d="M20.3,18.6c1.1,0,2.3,0,3.4,0c0,0,0,0,0,0c0.5,0,0.9-0.1,0.9-0.7c0-0.2,0-0.4-0.2-0.5
		c-0.2-0.2-0.5-0.2-0.8-0.2c-3.1,0-6.2,0-9.3,0c-0.3,0-0.9,0-1,0.7c0,0.2,0.1,0.4,0.2,0.5c0.2,0.2,0.5,0.2,0.8,0.2c0,0,0,0,0,0
		c1.1,0,2.2,0,3.3,0l1.3,0L20.3,18.6z"/>
	<path id="XMLID_1103_" class="st0" d="M10.1,4.2C10.1,4.2,10.1,4.2,10.1,4.2c-2,0-4,0-5.9,0c0,0,0,0,0,0c-0.3,0-0.5,0.1-0.6,0.2
		C3.4,4.5,3.3,4.7,3.3,4.9c0,0.2,0.1,0.4,0.3,0.5c0.1,0.1,0.3,0.1,0.6,0.1c0,0,0,0,0,0c0.7,0,1.4,0,2.1,0H7v0h0.8c0.8,0,1.5,0,2.3,0
		c0,0,0,0,0,0c0.3,0,0.5-0.1,0.7-0.2c0.1-0.1,0.2-0.3,0.2-0.5C10.9,4.4,10.6,4.2,10.1,4.2z"/>
	<path id="XMLID_1104_" class="st0" d="M23.9,20.1C23.9,20.1,23.9,20.1,23.9,20.1L23.9,20.1c-0.6,0-1.2,0-1.8,0l-0.6,0
		c-0.2,0-0.5,0-0.7,0c-0.5,0-1.1,0-1.6,0c0,0,0,0,0,0c-0.3,0-0.5,0.1-0.7,0.2c-0.1,0.1-0.2,0.3-0.2,0.5c0,0.4,0.3,0.6,0.8,0.6
		c0,0,0,0,0,0c1.4,0,2.8,0,4.1,0l0.6,0c0,0,0,0,0,0c0.3,0,0.5-0.1,0.6-0.2c0.1-0.1,0.2-0.3,0.2-0.5C24.7,20.3,24.4,20.1,23.9,20.1z"
		/>
	<path id="XMLID_1105_" class="st0" d="M15.7,20.2c-0.5-0.1-1.1-0.1-1.6,0c-0.2,0-0.6,0.4-0.6,0.6c0,0.2,0.3,0.5,0.6,0.6
		c0.1,0.1,0.3,0.1,0.5,0c0.1,0,0.1,0,0.2,0l0.1,0c0.1,0,0.2,0,0.3,0c0.1,0,0.2,0,0.3,0c0.1,0,0.2,0,0.3-0.1c0.2-0.1,0.6-0.4,0.6-0.6
		C16.3,20.6,15.9,20.2,15.7,20.2z"/>
	<path id="XMLID_1124_" class="st0" d="M17.6,5.6L17.6,5.6L18,5.6l0,0c0.1-0.1,0.1-0.1,0.2-0.2c0.2-0.2,0.3-0.3,0.3-0.5
		c0-0.3-0.4-0.6-0.6-0.6c-0.1,0-0.2,0.1-0.3,0.1c-0.1,0.1-0.3,0.3-0.3,0.4c0,0.2,0.1,0.4,0.2,0.5C17.5,5.4,17.6,5.5,17.6,5.6z"/>
	<path id="XMLID_1125_" class="st0" d="M20.7,5.6L20.7,5.6l0.4,0l0,0c0.1-0.1,0.1-0.1,0.2-0.2c0.2-0.2,0.3-0.3,0.3-0.5
		c0-0.2-0.4-0.6-0.6-0.6c-0.1,0-0.2,0-0.3,0.1c-0.2,0.1-0.3,0.3-0.3,0.4c0,0.2,0.1,0.4,0.2,0.5C20.6,5.4,20.6,5.5,20.7,5.6z"/>
	<path id="XMLID_1129_" class="st0" d="M23.9,5.8L23.9,5.8L23.9,5.8c0.2-0.1,0.3-0.2,0.4-0.3c0.2-0.2,0.3-0.4,0.3-0.5
		c0-0.2-0.2-0.3-0.4-0.5C24.1,4.4,24,4.3,24,4.2l0,0l0,0c-0.1,0.1-0.1,0.1-0.2,0.2c-0.2,0.1-0.3,0.3-0.4,0.5c0,0.1,0.1,0.3,0.3,0.5
		C23.7,5.5,23.8,5.6,23.9,5.8z"/>
	<path id="XMLID_1130_" class="st0" d="M36.4,38.4L36.4,38.4L36.4,38.4c0.2-0.1,0.3-0.3,0.4-0.4c0.2-0.2,0.3-0.4,0.3-0.5
		c0-0.1-0.1-0.3-0.3-0.4c-0.1-0.1-0.2-0.2-0.3-0.2c0,0,0,0,0,0c-0.3,0-0.6,0.3-0.7,0.6c0,0.2,0.1,0.3,0.3,0.6
		C36.2,38.1,36.3,38.3,36.4,38.4z"/>
</g>
</svg>
