<svg width="42" height="42" viewBox="0 0 42 42" fill="none" xmlns="http://www.w3.org/2000/svg">
<g clip-path="url(#clip0_703_225)">
<g clip-path="url(#clip1_703_225)">
<path d="M42 3.38389C42 1.19431 40.8057 0 38.6161 0C37.3223 0 36.0284 0 34.7346 0H29.5592C28.3649 0 27.4692 0.298578 26.872 0.895735C26.2749 1.49289 25.9763 2.38863 25.9763 3.58294C25.9763 4.37915 25.9763 5.17536 25.9763 6.07109V7.56398H12.9384C9.45498 7.56398 6.07109 7.56398 2.58768 7.56398C0.796208 7.46445 0 8.26066 0 10.0521C0 18.0142 0 25.9763 0 33.9384C0 35.7299 0.895734 36.5261 2.58768 36.5261C3.88152 36.5261 5.17536 36.5261 6.36967 36.5261H12.9384V40.9052H10.2512C9.75355 40.9052 9.1564 40.9052 8.45972 40.9052C8.06161 40.9052 7.86256 41.1043 7.86256 41.4028C7.86256 41.5024 7.86256 41.9005 8.45972 41.9005C8.55924 41.9005 8.55924 41.9005 8.65877 41.9005H8.75829H27.8673C27.9668 41.9005 27.9668 41.9005 27.9668 41.9005C28.0664 41.9005 28.1659 41.9005 28.1659 41.9005C28.763 41.9005 28.763 41.5024 28.763 41.4028C28.763 41.1043 28.564 40.9052 28.1659 40.9052C27.5687 40.9052 26.872 40.9052 26.2749 40.9052H25.6777C25.3791 40.9052 24.981 40.9052 24.6825 40.9052C24.4834 40.9052 24.3839 40.9052 24.2844 40.9052H24.1848C24.0853 40.9052 23.9858 40.9052 23.9858 40.9052H23.6872V36.5261H30.2559C31.5498 36.5261 32.8436 36.5261 34.0379 36.5261C35.7299 36.5261 36.6256 35.6303 36.6256 33.9384C36.6256 32.4455 36.6256 30.9526 36.6256 29.5592C36.6256 28.9621 36.6256 28.2654 36.6256 27.6682V26.5735H37.8199C38.019 26.5735 38.1185 26.5735 38.3175 26.5735C39.3128 26.5735 40.2085 26.2749 40.8057 25.6777C41.4028 25.0806 41.7014 24.2844 41.7014 23.1896C42 17.1185 42 10.6493 42 3.38389ZM22.891 36.6256V40.9052H14.0332V36.6256H22.891ZM27.0711 23.6872C27.0711 23.2891 27.0711 22.7915 27.0711 22.3934V22.2938C27.0711 22.0948 27.0711 21.8957 27.0711 21.7962V21.4976H40.8057V21.7962C40.8057 21.9953 40.8057 22.1943 40.8057 22.3934V22.4929C40.8057 22.9905 40.8057 23.4882 40.8057 23.9858C40.7062 24.782 39.91 25.3791 39.0142 25.3791C37.1232 25.3791 35.4313 25.3791 33.7393 25.3791C32.0474 25.3791 30.3555 25.3791 28.8626 25.3791C27.9668 25.3791 27.1706 24.6825 27.0711 23.6872ZM1.09479 31.4502H14.4313C14.6303 31.4502 14.7299 31.4502 14.8294 31.4502C15.128 31.4502 15.327 31.2512 15.327 30.9526C15.327 30.654 15.2275 30.455 14.8294 30.455C14.5308 30.455 14.1327 30.455 13.7346 30.455C13.6351 30.455 13.436 30.455 13.3365 30.455H13.1374C12.9384 30.455 12.7393 30.455 12.4408 30.455H1.19431V24.3839C1.19431 19.7062 1.19431 14.9289 1.19431 10.2512C1.19431 8.85782 1.39336 8.55924 2.78673 8.55924H26.0758V15.9242C26.0758 18.3128 26.0758 20.7014 26.0758 22.9905C26.0758 24.0853 26.3744 24.981 26.9716 25.5782C27.5687 26.1754 28.4645 26.4739 29.5592 26.4739C30.2559 26.4739 30.9526 26.4739 31.6493 26.4739H36.0284V30.3554H29.3602C27.4692 30.3554 25.0806 30.3554 22.5924 30.3554C22.0948 30.3554 21.9953 30.455 21.8957 30.654C21.8957 30.8531 21.8957 31.1517 21.9953 31.1517C22.0948 31.2512 22.2938 31.3507 22.6919 31.3507C25.3791 31.3507 28.0664 31.3507 30.0569 31.3507H36.0284V31.6493C36.0284 31.8483 36.0284 32.1469 36.0284 32.346C36.0284 32.9431 36.0284 33.6398 36.0284 34.3365C36.0284 34.6351 35.6303 34.9336 35.3318 35.1327L35.2322 35.2322C35.1327 35.3318 35.0332 35.3318 34.9336 35.3318C34.8341 35.3318 34.8341 35.3318 34.8341 35.3318H34.7346H2.98578C1.69194 35.3318 1.49289 35.0332 1.39336 33.8389C1.39336 33.3412 1.39336 32.9431 1.39336 32.4455L1.09479 31.4502ZM29.4597 1.09479C32.346 1.09479 35.5308 1.09479 38.6161 1.09479C40.2085 1.09479 40.9052 1.79147 40.9052 3.38389C40.9052 8.45972 40.9052 13.436 40.9052 18.3128V19.5071C40.9052 19.6066 40.9052 19.8057 40.9052 19.9052V20.0047V20.1043V20.4028H27.0711V12.6398C27.0711 9.5545 27.0711 6.46919 27.0711 3.38389C27.0711 1.79147 27.7678 1.09479 29.4597 1.09479Z" fill="white"/>
<path d="M18.5119 30.0569C17.9147 30.0569 17.6161 30.3555 17.5166 30.9526C17.5166 31.1517 17.6161 31.4502 17.7157 31.5498C17.9147 31.7488 18.1138 31.8484 18.4123 31.8484C18.7109 31.8484 18.91 31.7488 19.109 31.5498C19.3081 31.3507 19.3081 31.1517 19.3081 30.8531C19.4076 30.455 19.109 30.0569 18.5119 30.0569Z" fill="white"/>
<path d="M32.7441 4.27962C32.8437 4.27962 33.0427 4.27962 33.2418 4.27962C33.3413 4.27962 33.5403 4.27962 33.6399 4.27962H33.7394C33.8389 4.27962 33.9384 4.27962 34.038 4.27962H34.4361C34.5356 4.27962 34.7347 4.27962 34.8342 4.27962C35.0332 4.27962 35.1328 4.27962 35.3318 4.27962C35.7299 4.27962 35.929 4.08057 36.0285 3.68246C35.8294 3.28436 35.6304 2.98578 35.2323 2.98578C34.4361 2.98578 33.5403 2.98578 32.7441 2.98578C32.346 2.98578 32.147 3.18483 32.147 3.68246C32.0474 4.08057 32.346 4.27962 32.7441 4.27962Z" fill="white"/>
<path d="M17.3175 26.9716C19.0095 26.5735 20.1043 25.0806 20.0047 23.3886C19.9052 21.6967 18.7109 20.3033 17.019 20.1043C16.8199 20.1043 16.7204 20.1043 16.5213 20.0047H16.4218H16.3223L16.1232 15.9242V15.8246H14.1327V15.6256C14.1327 15.4265 14.1327 15.2275 14.1327 15.128C14.1327 14.1327 13.5356 13.1374 12.5403 12.7393C12.2417 12.6398 11.9431 12.5403 11.545 12.5403C10.8483 12.5403 10.2512 12.8389 9.75356 13.237C9.25593 13.7346 8.95735 14.3318 8.95735 15.128C8.95735 15.327 8.95735 15.4265 8.95735 15.6256V15.9242H6.96683V16.6209C6.96683 16.9194 6.96683 17.218 6.8673 17.5166V18.3128C6.76778 19.3081 6.76778 20.2038 6.66825 21.199L6.56873 23.5877C6.56873 24.0853 6.66825 24.4834 6.8673 24.8815C7.26541 25.4787 7.96209 25.8768 8.85782 25.8768C10.2512 25.8768 11.9431 25.8768 13.6351 25.8768C13.7346 25.8768 13.8341 25.9763 13.9337 25.9763C14.6303 26.7725 15.5261 27.0711 16.5213 27.0711C16.7204 27.0711 17.019 27.0711 17.3175 26.9716ZM16.5213 26.1754C15.128 26.1754 13.9337 25.0806 13.9337 23.5877C13.9337 22.891 14.2322 22.1943 14.7299 21.7962C15.2275 21.2986 15.8246 21 16.5213 21C17.9147 21 19.109 22.1943 19.109 23.5877C19.109 24.981 17.9147 26.1754 16.5213 26.1754ZM13.0379 24.8815C12.6398 24.8815 12.2417 24.8815 11.8436 24.8815H11.4455C11.1469 24.8815 10.8483 24.8815 10.6493 24.8815C9.95261 24.8815 9.45498 24.8815 8.95735 24.8815C8.55925 24.8815 8.26067 24.782 7.96209 24.4834C7.76304 24.1848 7.56399 23.8863 7.66351 23.4882C7.76304 22.6919 7.76304 21.8957 7.76304 21.0995L7.86256 20.0047C7.86256 19.4076 7.96209 18.8104 7.96209 18.2133V16.8199H8.95735V17.8152H9.95261V16.8199H13.1374V17.8152H14.1327V16.8199H15.2275V17.218C15.2275 17.5166 15.2275 17.8152 15.327 18.2133V18.8104C15.327 19.2085 15.4265 19.7062 15.4265 20.1043C15.4265 20.2038 15.4265 20.2038 15.327 20.3033C13.5355 21 12.6398 22.9905 13.237 24.782C13.237 24.782 13.237 24.782 13.237 24.8815H13.0379ZM13.1374 15.7251H10.0521C9.85309 14.9289 10.1517 14.1327 10.6493 13.7346C11.1469 13.3365 11.7441 13.3365 12.2417 13.6351C12.8389 13.9336 13.0379 14.3318 13.1374 15.0284C13.1374 15.2275 13.1374 15.4265 13.1374 15.6256V15.7251Z" fill="white"/>
<path d="M31.2511 16.6209C32.3459 16.6209 33.4407 16.6209 34.436 16.6209C34.5355 16.6209 34.5355 16.6209 34.5355 16.7204C35.0331 17.218 35.6303 17.5166 36.327 17.5166C36.526 17.5166 36.7251 17.5166 36.9241 17.4171C38.1184 17.1185 38.9147 16.1232 38.8151 14.8294C38.8151 13.6351 37.9194 12.6398 36.7251 12.4408C36.6256 12.4408 36.526 12.4408 36.4265 12.4408H36.327L36.1279 9.75357V9.65404H34.8341C34.8341 9.55451 34.8341 9.45499 34.8341 9.25594C34.8341 8.55925 34.436 7.86257 33.7393 7.56399C33.0426 7.26541 32.2464 7.46447 31.7488 7.9621C31.3507 8.3602 31.2511 8.75831 31.1516 9.25594C31.1516 9.35546 31.1516 9.45499 31.1516 9.65404H29.8578V10.1517C29.8578 10.3507 29.8578 10.5498 29.8578 10.8484C29.8578 11.6446 29.7583 12.5403 29.7583 13.3365L29.5592 14.9289C29.5592 15.2275 29.5592 15.6256 29.7583 15.8247C30.0568 16.3223 30.5545 16.6209 31.2511 16.6209ZM32.1469 11.2465V10.5498H34.0379V11.2465H34.8341V10.5498H35.3317V10.7488C35.3317 10.9479 35.3317 11.1469 35.3317 11.4455V11.7441C35.3317 12.0427 35.3317 12.4408 35.4312 12.7393C34.2369 13.237 33.5402 14.5308 33.9383 15.8247C33.7393 15.8247 33.6398 15.8247 33.4407 15.8247H32.9431C32.3459 15.8247 31.7488 15.8247 31.1516 15.8247C30.9526 15.8247 30.7535 15.7251 30.5545 15.6256C30.4549 15.5261 30.3554 15.327 30.3554 15.0284C30.3554 14.5308 30.4549 14.0332 30.4549 13.5356L30.654 10.6493H31.1516V11.346H32.1469V11.2465ZM33.9383 9.65404H32.0474C31.9478 9.25594 32.1469 8.75831 32.4455 8.55925C32.744 8.3602 33.0426 8.3602 33.4407 8.45973C33.7393 8.65878 33.9383 8.85783 33.9383 9.25594C33.9383 9.35546 33.9383 9.45499 33.9383 9.65404ZM34.7346 15.0284C34.7346 14.6303 34.9336 14.2322 35.2322 13.9337C35.5308 13.6351 35.9289 13.436 36.327 13.436C37.2227 13.436 37.9194 14.1327 37.9194 15.0284C37.9194 15.9242 37.2227 16.6209 36.327 16.6209C35.4312 16.6209 34.7346 15.9242 34.7346 15.0284Z" fill="white"/>
<path d="M37.5213 14.5308L37.0236 14.0332L36.1279 14.8294L35.7298 14.4313L35.2322 14.9289L36.1279 15.9242L37.5213 14.5308Z" fill="white"/>
<path d="M18.4123 22.7914L17.8152 22.0948L17.7156 21.9952L16.1232 23.6872L15.4265 22.7914L14.7299 23.4881L16.0237 24.981L16.1232 25.0805L18.3128 22.7914H18.4123Z" fill="white"/>
</g>
</g>
<defs>
<clipPath id="clip0_703_225">
<rect width="42" height="42" fill="white"/>
</clipPath>
<clipPath id="clip1_703_225">
<rect width="42" height="42" fill="white"/>
</clipPath>
</defs>
</svg>
