<?xml version="1.0" encoding="utf-8"?>
<!-- Generator: Adobe Illustrator 19.0.0, SVG Export Plug-In . SVG Version: 6.00 Build 0)  -->
<svg version="1.1" id="Layer_1" xmlns="http://www.w3.org/2000/svg" xmlns:xlink="http://www.w3.org/1999/xlink" x="0px" y="0px"
	 viewBox="0 0 42 42" style="enable-background:new 0 0 42 42;" xml:space="preserve">
<style type="text/css">
	.st0{fill:#FFFFFF;}
</style>
<g id="XMLID_933_">
	<path id="XMLID_1327_" class="st0" d="M28,17.1C28,12.4,28,7.7,28,3c0-1.7-1.3-3-3.1-3C17.6,0,10.3,0,3.2,0c-1.8,0-3,1.2-3,2.9
		c0,4.8,0,9.4,0,14.2c0,1.3,0.7,2.3,2,2.7c0.5,0.2,1,0.2,1.5,0.2c1.8,0,3.6,0,5.5,0c0.6,0,1.3,0,1.9,0c-0.1,0.2-0.1,0.5-0.2,0.7
		c-0.1,0.6-0.3,1.1-0.4,1.6c-0.2,0.7-0.3,1.3-1.3,1.4l-0.2,0l0.2,0.2c0.4,0.3,0.7,0.5,1,0.5c2,0,4.1,0,6,0l1.8,0c0,0,0.1,0,0.1,0
		c0,0,0.1,0,0.1,0c0.1,0,0.1,0,0.2,0c0.1-0.1,0.2-0.2,0.3-0.3c0,0,0.1-0.1,0.1-0.1l0.1-0.1l-0.1-0.1c0,0-0.1-0.1-0.1-0.1
		c-0.1-0.1-0.2-0.2-0.3-0.3c-0.1-0.1-0.2-0.1-0.3-0.2c-0.2-0.1-0.3-0.2-0.4-0.3c-0.2-0.7-0.4-1.4-0.6-2.2c-0.1-0.3-0.1-0.5-0.2-0.8
		h0.9c0.7,0,1.4,0,2.1,0c1.6,0,3.2,0,4.9,0C26.7,20,28,18.8,28,17.1z M26.5,18.4c-0.4,0.5-1.1,0.7-1.9,0.7c-7.3,0-14.3,0-21,0
		c-0.9,0-1.5-0.3-1.9-0.8c-0.4-0.5-0.6-1.2-0.4-2.1h25.8C27,17.2,26.9,17.9,26.5,18.4z M1,6.9c0-1.1,0-2.2,0-3.3
		c0-1.7,0.9-2.6,2.6-2.6c7.7,0,14.6,0,20.9,0c1.6,0,2.4,0.8,2.5,2.3c0,2.9,0,5.9,0,8.7c0,1,0,1.9,0,2.9c0,0.1,0,0.1,0,0.3
		c0,0,0,0.1,0,0.2l-0.9,0c-1.8,0-3.7,0-5.5,0c-6,0-12.3,0-18.4,0c-0.4,0-0.7-0.1-0.9-0.2C1.1,14.9,1,14.6,1,14.1C1,11.7,1,9.2,1,6.9
		z M11.4,22.7c0.2-0.8,0.4-1.5,0.6-2.2c0-0.1,0.2-0.2,0.6-0.4c0.1-0.1,0.3,0,0.5,0c0.1,0,0.1,0,0.2,0c0.3,0,0.6,0,0.9,0
		c0.7,0,1.4-0.1,1.7,0.2c0.5,0.5,0.6,1.3,0.8,2.2c0.1,0.3,0.1,0.7,0.2,1h-5.7C11.3,23.2,11.3,22.9,11.4,22.7z"/>
	<path id="XMLID_1367_" class="st0" d="M18.9,28.7c-1.7,0-3.4,0-5.1,0H11c-0.8,0-1.6,0-2.4,0c-1.9,0-3.9,0-5.8,0
		c-1.8,0-2.7,0.9-2.7,2.7c0,2.3,0,4.8,0,7.6c0,1.9,0.9,2.8,2.8,2.8c2.9,0,5.9,0,8.9,0c2.4,0,4.8,0,7.2,0c2,0,2.9-0.9,2.9-2.9
		c0-2.1,0-4.4,0-7.3C21.9,29.5,21.1,28.7,18.9,28.7z M20.9,39.1c0,0.6-0.1,1.1-0.4,1.4c-0.3,0.3-0.8,0.4-1.5,0.4V29.7
		c0.7-0.1,1.2,0,1.5,0.3c0.3,0.3,0.4,0.7,0.4,1.3C20.9,33.8,20.9,36.4,20.9,39.1z M3.3,40.8V29.7h14.6v11.1H3.3z M2.2,29.7v11.1
		C1.4,40.5,1,40.1,1,39.3c0-3,0-5.7,0-8.2C1,30.4,1.4,29.9,2.2,29.7z"/>
	<path id="XMLID_1372_" class="st0" d="M41.9,23.1c0-0.5,0-1.1,0-1.6c0-1.2,0-2.4,0-3.6c0-1.5-0.8-2.2-2.2-2.3c-1.4,0-2.8,0-4.3,0
		c-1.5,0-2.2,0.8-2.3,2.2c0,3.3,0,6.8,0,10.3c0,1.5,0.8,2.2,2.2,2.3c0.7,0,1.5,0,2.2,0c0.7,0,1.4,0,2,0c1.5,0,2.2-0.8,2.3-2.3
		c0-1.2,0-2.4,0-3.5C41.9,24.1,41.9,23.6,41.9,23.1z M34.5,26.9c-0.1,0-0.4-0.3-0.4-0.5c0-3,0-5.8,0-8.6c0-0.7,0.5-1.2,1.2-1.2
		c0.8,0,1.5,0,2.3,0c0.7,0,1.4,0,2.1,0c0.8,0,1.2,0.5,1.2,1.3c0,2.2,0,4.3,0,6.5c0,0.8,0,1.7,0,2.5l-1.3,0
		C37.9,26.9,36.2,26.9,34.5,26.9z M34.1,28.1c0-0.1,0.4-0.1,0.7-0.1c1.1,0,2.2,0,3.2,0c0.5,0,1,0,1.4,0l1.4,0c0.1,0.6,0,1-0.3,1.2
		c-0.2,0.2-0.5,0.3-1,0.4l-0.4,0c-1.2,0-2.5,0-3.7,0c-0.4,0-0.8-0.2-1.1-0.6C34.1,28.8,34.1,28.4,34.1,28.1z"/>
	<path id="XMLID_1374_" class="st0" d="M29.9,3.4c0.2,0.1,0.3,0.2,0.5,0.2c1.2,0,2.5,0,3.7,0c0.4,0,0.8,0,1.2,0h2.1v8.6l-0.2,0.1
		c-0.1-0.1-0.1-0.2-0.2-0.2c-0.2-0.3-0.4-0.6-0.6-0.8c-0.1-0.1-0.5-0.1-0.7,0c-0.1,0.1-0.1,0.3-0.1,0.4c0,0.1,0,0.2,0.1,0.3
		c0.5,0.6,1.1,1.1,1.6,1.6c0.2,0.2,0.3,0.3,0.5,0.5l0.1,0.1l2.5-2.5l-0.1-0.1c0,0-0.1-0.1-0.1-0.2c-0.2-0.2-0.3-0.3-0.3-0.3
		c-0.4,0.3-0.8,0.5-1.3,0.9l-0.2,0.1V2.6l-1.7,0c-2.2,0-4.3,0-6.4,0c-0.2,0-0.3,0.1-0.5,0.3C29.8,3,29.7,3,29.6,3.1l-0.1,0.1
		l0.1,0.1C29.7,3.3,29.8,3.3,29.9,3.4z"/>
	<path id="XMLID_1375_" class="st0" d="M38.2,31.9c0,0-0.1-0.1-0.1-0.1L38,31.6l-0.1,0.1c0,0-0.1,0.1-0.2,0.1
		c-0.1,0.1-0.3,0.2-0.3,0.4c-0.1,0.5-0.1,1.1,0,1.8c0,0.3,0,0.5-0.1,0.6c-0.1,0.1-0.3,0.2-0.7,0.2c-2.4,0-4.8,0-7.2,0
		c-1.2,0-2.4,0-3.7,0c-0.1,0-0.2,0-0.4-0.1c0,0-0.1,0-0.1,0l1.2-1.3L26,32.8l-2.6,2.6l0.1,0.1c0.2,0.2,0.4,0.4,0.6,0.5
		c0.5,0.4,0.9,0.9,1.4,1.3c0.2,0.2,0.4,0.3,0.5,0.3c0,0,0,0,0.1,0c0.2,0,0.4-0.3,0.5-0.5l0-0.1l-1.3-1.4h13.2v-0.1
		c0-0.3,0-0.6,0-0.9c0-0.8,0-1.6,0-2.4C38.4,32.1,38.3,32,38.2,31.9z"/>
	<path id="XMLID_1376_" class="st0" d="M39.7,25.7c0,0,0.1-0.1,0.1-0.2c0.1-0.1,0.3-0.3,0.3-0.4c0-1.8,0-3.4,0-4.9
		c0-0.2-0.1-0.3-0.3-0.5c-0.1-0.1-0.1-0.1-0.2-0.2l-0.1-0.1l-0.4,0.3l0,1.2c0,1.3,0,2.7,0,4.1c0,0.2,0.1,0.3,0.2,0.4
		c0,0.1,0.1,0.1,0.1,0.2l0.1,0.1L39.7,25.7z"/>
	<path id="XMLID_1377_" class="st0" d="M35.8,19.7l-0.4-0.2l-0.1,0.1c0,0.1-0.1,0.1-0.2,0.2c-0.2,0.1-0.3,0.3-0.3,0.4
		c0,1.5,0,3.2,0,5.1c0,0.1,0.1,0.3,0.3,0.4c0,0,0.1,0.1,0.1,0.1l0.1,0.1l0.1-0.1c0,0,0.1-0.1,0.1-0.1c0.1-0.1,0.2-0.2,0.2-0.4
		c0-1.4,0-2.9,0-4.3L35.8,19.7z"/>
	<path id="XMLID_1378_" class="st0" d="M37.6,19.7c-0.1-0.1-0.1-0.1-0.2-0.2l-0.1-0.1L37,19.7l0,1.2c0,1.4,0,2.8,0,4.2
		c0,0.2,0.1,0.3,0.2,0.4c0,0.1,0.1,0.1,0.1,0.2l0.1,0.1l0.1-0.1c0-0.1,0.1-0.1,0.1-0.2c0.1-0.1,0.2-0.3,0.2-0.4c0-1.8,0-3.4,0-4.9
		C37.9,20,37.8,19.9,37.6,19.7z"/>
	<path id="XMLID_1381_" class="st0" d="M6.1,12.6h2.6V6.8H6.1V12.6z M7.7,7.6v4.1H7.1V7.6H7.7z"/>
	<path id="XMLID_1384_" class="st0" d="M8.8,3.6H6.1v2.6h2.7V3.6z M7.1,5.3V4.5h0.7v0.8H7.1z"/>
	<path id="XMLID_1387_" class="st0" d="M10.4,12.6H13V6.8h-2.6V12.6z M12.1,7.6v4.1h-0.7V7.6H12.1z"/>
	<path id="XMLID_1390_" class="st0" d="M13.1,3.6h-2.7v2.6h2.7V3.6z M11.4,5.3V4.5h0.7v0.8H11.4z"/>
	<path id="XMLID_1393_" class="st0" d="M14.7,12.6h2.6V6.8h-2.6V12.6z M16.4,7.6v4.1h-0.7V7.6H16.4z"/>
	<path id="XMLID_1396_" class="st0" d="M17.4,3.6h-2.7v2.6h2.7V3.6z M15.7,5.3V4.5h0.7v0.8H15.7z"/>
	<path id="XMLID_1399_" class="st0" d="M19,12.6h2.6V6.8H19V12.6z M20.7,7.6v4.1H20V7.6H20.7z"/>
	<path id="XMLID_1402_" class="st0" d="M21.7,3.6H19v2.6h2.7V3.6z M20,5.3V4.5h0.7v0.8H20z"/>
	<path id="XMLID_1405_" class="st0" d="M7,32.1H4.8v2.1H7V32.1z M5.6,33.3V33h0.6v0.3H5.6z"/>
	<path id="XMLID_1408_" class="st0" d="M4.8,38.8H7v-3.8H4.8V38.8z M6.2,36.1v1.7H5.6v-1.7H6.2z"/>
	<path id="XMLID_1411_" class="st0" d="M10.2,32.1H8v2.1h2.2V32.1z M8.8,33.3V33h0.6v0.3H8.8z"/>
	<path id="XMLID_1414_" class="st0" d="M8,38.8h2.2v-3.8H8V38.8z M9.4,36.1v1.7H8.8v-1.7H9.4z"/>
	<path id="XMLID_1417_" class="st0" d="M13.4,32.1h-2.2v2.1h2.2V32.1z M12,33.3V33h0.6v0.3H12z"/>
	<path id="XMLID_1420_" class="st0" d="M11.1,38.8h2.2v-3.8h-2.2V38.8z M12.5,36.1v1.7H12v-1.7H12.5z"/>
	<path id="XMLID_1423_" class="st0" d="M16.5,32.1h-2.2v2.1h2.2V32.1z M15.1,33.3V33h0.6v0.3H15.1z"/>
	<path id="XMLID_1426_" class="st0" d="M14.3,38.8h2.2v-3.8h-2.2V38.8z M15.7,36.1v1.7h-0.6v-1.7H15.7z"/>
</g>
</svg>
