<svg width="42" height="42" viewBox="0 0 42 42" fill="none" xmlns="http://www.w3.org/2000/svg">
<g clip-path="url(#clip0_703_261)">
<path d="M39.4 35.4C37.5 33.7 35.6 32.1 33.7 30.5L32.8 29.8C32.1 29.2 31.2 29 30.3 29.4C30.2 29.4 30 29.4 30 29.4C29.3 28.8 28.7 28.2 28.1 27.5L27.7 27L27.8 26.9C27.9 26.8 28 26.7 28 26.6C32.5 20.5 31.9 12.2 26.5 6.89999C26.3 6.69999 26.1 6.69999 25.9 6.59999C25.8 6.59999 25.7 6.59999 25.7 6.49999L25.2 6.29999L25.4 6.79999C25.4 6.89999 25.4 6.89999 25.5 6.99999C25.5 7.19999 25.6 7.39999 25.7 7.59999C29.9 12 30.9 17.1 28.9 22.7C27 27.8 22.1 31.3 16.6 31.5C11 31.6 5.79997 28.5 3.49997 23.5C0.899973 18.1 1.99997 12 6.29997 7.59999C6.49997 7.39999 6.49997 7.19999 6.59997 7.09999C6.59997 6.99999 6.59997 6.99999 6.69997 6.89999L6.89997 6.39999L6.39997 6.59999C6.29997 6.59999 6.29997 6.59999 6.19997 6.59999C5.99997 6.59999 5.69997 6.69999 5.59997 6.89999L5.29997 7.09999C4.69997 7.89999 3.99997 8.59999 3.39997 9.39999C0.999973 13 0.399973 17.6 1.69997 21.9C2.99997 26.2 5.99997 29.7 9.99997 31.3C15.3 33.5 20.4 32.9 25.2 29.5C25.5 29.3 25.5 29.3 25.7 29.5C26 29.8 26.3 30.1 26.6 30.4C26.9 30.7 27.3 31.1 27.6 31.5C27.7 31.6 27.7 31.9 27.7 32C27.4 32.9 27.5 33.7 28.1 34.3L28.9 35.2C30.6 37.2 32.3 39.2 34.1 41.1C34.6 41.6 35.3 42 36 42H36.1C36.8 42 37.6 41.7 38.1 41.2C38.5 40.8 39 40.3 39.5 39.8C40.1 39.1 40.5 38.3 40.4 37.5C40.4 36.7 40.1 36 39.4 35.4ZM29.2 30.3L28.7 30.8L26.4 28.5L27.1 28L29.2 30.3ZM39.4 37.5C39.3 38.2 38.6 39.3 37.6 40C37 40.5 36.4 40.8 36 40.7C35.5 40.7 34.9 40.4 34.6 40C33 38.3 31.5 36.4 29.9 34.7L29 33.6C28.5 33 28.5 32.5 29 31.9C29.5 31.4 29.9 30.9 30.4 30.5C30.6 30.3 30.9 30.1 31.3 30.1C31.5 30.1 31.8 30.2 32.1 30.4C34.2 32.2 36.5 34.1 38.7 36.1C38.9 36.3 39.1 36.6 39.2 37C39.3 37.3 39.4 37.4 39.4 37.5Z" fill="white"/>
<path d="M23.3 27C20 29.5 15.8 30.2 11.9 28.8C8.4 27.5 5.7 24.7 4.6 21.1C3.5 17.5 4.1 13.6 6.4 10.5C6.5 10.3 6.6 10.1 6.6 9.90001C6.6 9.80001 6.6 9.80001 6.6 9.70001L6.7 9.20001L6.3 9.40001C6.2 9.40001 6.2 9.50001 6.1 9.50001C5.9 9.60001 5.7 9.70001 5.5 9.80001C3.9 12.1 3 14.7 3 17.6C3 21.6 4.8 25.3 7.8 27.8C10.1 29.7 13 30.7 16 30.7C16.9 30.7 17.8 30.6 18.7 30.4C22.7 29.6 26 27 27.8 23.3C29.6 19.6 29.5 15.4 27.7 11.8C27.4 11.1 26.9 10.5 26.5 10L26.4 9.80001C26.3 9.60001 26.1 9.60001 25.9 9.60001C25.8 9.60001 25.8 9.60001 25.7 9.60001L25.4 9.50001V9.80001C25.4 9.90001 25.4 9.90001 25.4 10C25.4 10.1 25.4 10.3 25.4 10.5C25.4 10.7 25.6 10.8 25.6 10.9L25.7 11C26.9 12.7 27.6 14.6 27.8 16.6C28.3 20.5 26.6 24.5 23.3 27Z" fill="white"/>
<path d="M6.99998 5.4C6.99998 11.4 6.99998 17.6 6.99998 23.7C6.99998 23.8 6.99998 23.8 6.99998 23.9C6.99998 24.1 6.89998 24.4 7.09998 24.6C7.19998 24.7 7.39998 24.8 7.59998 24.8H7.69998L7.79998 24.7C7.99998 24.6 8.19998 23.9 8.19998 23.6C8.19998 16.5 8.19998 10.6 8.19998 5.2C8.19998 4.9 8.19998 4.8 8.29998 4.7C8.39998 4.6 8.49998 4.6 8.79998 4.6C12.4 4.6 16.1 4.6 19.6 4.6C20.9 4.6 22.1 4.6 23.4 4.6C23.7 4.6 23.9 4.6 24 4.6C24 4.6 24 5 24 5.2V23.5C24 23.6 24 23.6 24 23.7C24 23.9 24 24 24 24.2C24 24.4 24.2 24.5 24.3 24.6L24.4 24.7L24.6 24.9L24.8 24.7L24.9 24.6C25 24.5 25.1 24.4 25.2 24.2C25.2 24 25.2 23.8 25.2 23.7C25.2 23.6 25.2 23.6 25.2 23.5C25.2 20.4 25.2 17.3 25.2 14.2V10.7C25.2 8.7 25.2 6.7 25.2 4.7C25.2 3.7 25.1 3.5 24.1 3.5C19.1 3.5 14.2 3.5 9.19998 3.5L9.39998 3.2L9.49998 3.1C9.49998 3 9.69998 2.8 9.69998 2.6C9.69998 2.5 9.69998 2.3 9.79998 2.2C9.79998 2.1 9.99998 2.1 10.2 2.1C14.2 2.1 18.2 2.1 21.6 2.1H21.7C22 2.1 22.2 2.1 22.3 2.2C22.4 2.3 22.4 2.4 22.4 2.7C22.4 2.9 22.6 3 22.8 3.2C22.9 3.2 22.9 3.3 23 3.3L23.3 3.5V3.1C23.3 3 23.3 2.8 23.3 2.7C23.3 2.3 23.4 2 23.3 1.6C23.3 1.2 22.6 1.1 22.4 1.1C20.7 1.1 19.1 1.1 17.4 1.1H15.9L9.99998 1C9.29998 1 8.99998 1 8.69998 1.3C8.49998 1.5 8.49998 1.8 8.59998 2.5C8.59998 2.5 8.59998 2.6 8.59998 2.7C8.69998 2.9 8.69998 3 8.79998 3.1L9.09998 3.5C8.79998 3.5 8.49998 3.5 8.09998 3.5C7.09998 3.5 6.99998 3.7 6.99998 4.6V5.4Z" fill="white"/>
<path d="M19.2 26.8C19.3 26.8 19.3 26.8 19.2 26.8C20.2 26.8 21 26.4 21.7 25.8C22.3 25.2 22.7 24.3 22.7 23.3C22.7 21.4 21.1 19.9 19.3 19.9C17.4 19.9 15.9 21.4 15.9 23.4C15.8 25.3 17.3 26.8 19.2 26.8ZM17 23.4C17 22.8 17.2 22.2 17.7 21.8C18.1 21.4 18.7 21.1 19.3 21.1C20.6 21.1 21.6 22.1 21.6 23.4C21.6 24 21.4 24.6 20.9 25C20.5 25.4 19.9 25.7 19.3 25.7C18 25.7 17 24.7 17 23.4Z" fill="white"/>
<path d="M12.2 11.9C11.8 11.9 11.5 11.9 11.1 11.9C10.9 11.9 10.8 12 10.7 12.1L10.6 12.2L10.4 12.4L10.6 12.6L10.7 12.7C10.8 12.8 10.9 12.9 11 13C11.1 13.1 11.2 13.1 11.3 13.1H11.4H11.5H13.1C15.5 13.1 18 13.1 20.5 13.1C20.7 13.1 20.9 13 21.1 12.9C21.2 12.9 21.2 12.8 21.3 12.8L21.8 12.6L21.3 12.4C21.2 12.4 21.2 12.3 21.1 12.3C20.9 12.2 20.7 12.1 20.5 12.1C19.4 12.1 18.2 12.1 17.1 12.1H14.8C14 12.1 13.2 12.1 12.5 12.1L12.2 11.9Z" fill="white"/>
<path d="M18.1 16.5C18.3 16.5 18.6 16.5 18.8 16.5C19.4 16.5 20.1 16.5 20.7 16.5C20.9 16.5 21.1 16.4 21.2 16.3L21.3 16.2L21.6 16L21.3 15.8L21.2 15.7C21.1 15.6 20.9 15.4 20.7 15.4C19 15.4 17.3 15.4 15.6 15.4C15.4 15.4 15.2 15.5 15.1 15.6L15 15.7L14.7 15.9L15 16.1C15.1 16.1 15.1 16.2 15.2 16.2C15.3 16.3 15.5 16.4 15.7 16.4C16.1 16.4 16.5 16.4 16.9 16.4C17.1 16.4 17.3 16.4 17.5 16.4C17.7 16.5 17.9 16.5 18.1 16.5Z" fill="white"/>
<path d="M13.9 8.69998C14.4 8.69998 14.9 8.69998 15.4 8.69998C15.6 8.69998 15.8 8.69998 16 8.69998C16.2 8.69998 16.4 8.69998 16.6 8.69998C16.8 8.69998 17 8.69998 17.2 8.69998C17.5 8.69998 17.8 8.69998 18.2 8.69998C18.4 8.69998 18.6 8.59998 18.7 8.39998C18.8 8.39998 18.8 8.29998 18.9 8.29998L19.3 8.09998L18.9 7.89998C18.8 7.89998 18.8 7.79998 18.7 7.79998C18.6 7.69998 18.4 7.59998 18.2 7.59998C16.8 7.59998 15.4 7.59998 14.1 7.59998C13.9 7.59998 13.7 7.69998 13.6 7.79998L13.5 7.89998L13 8.19998L13.3 8.39998L13.4 8.49998C13.6 8.59998 13.7 8.69998 13.9 8.69998Z" fill="white"/>
<path d="M10.6999 20.7L10.7999 20.8C10.8999 20.9 11.0999 21 11.2999 21C11.5999 21 11.8999 21 12.0999 21C12.2999 21 12.3999 21 12.5999 21C12.7999 21 12.8999 21 13.0999 21C13.2999 21 13.4999 21 13.5999 21C14.0999 21 14.5999 21 15.0999 21C15.2999 21 15.3999 20.9 15.5999 20.8L15.6999 20.7L15.9999 20.5L15.6999 20.3L15.5999 20.2C15.4999 20.1 15.2999 19.9 15.0999 19.9C13.7999 19.9 12.4999 19.9 11.1999 19.9C10.9999 19.9 10.8999 20 10.6999 20.1L10.5999 20.2L10.2999 20.4L10.6999 20.7Z" fill="white"/>
<path d="M10.6999 26.5L10.7999 26.6C10.8999 26.7 11.0999 26.8 11.2999 26.8C11.5999 26.8 11.8999 26.8 12.1999 26.8C12.3999 26.8 12.5999 26.8 12.6999 26.8C12.8999 26.8 12.9999 26.8 13.1999 26.8C13.3999 26.8 13.4999 26.8 13.6999 26.8C14.1999 26.8 14.5999 26.8 15.0999 26.8C15.2999 26.8 15.3999 26.7 15.5999 26.5L15.6999 26.4L15.9999 26.2L15.6999 26L15.5999 25.9C15.4999 25.8 15.2999 25.7 15.0999 25.7C13.6999 25.7 12.4999 25.7 11.1999 25.7C10.9999 25.7 10.7999 25.8 10.6999 26L10.5999 26.1L10.2999 26.3L10.6999 26.5Z" fill="white"/>
<path d="M10.7 16.1L10.8 16.2C10.9 16.3 11 16.4 11.2 16.5C11.4 16.5 11.5 16.5 11.7 16.5C11.8 16.5 11.9 16.5 12 16.5C12.1 16.5 12.2 16.5 12.3 16.5C12.4 16.5 12.5 16.5 12.6 16.5C12.9 16.5 13.2 16.5 13.4 16.5C13.6 16.5 13.7 16.4 13.8 16.2L13.9 16.1L14.1 15.9L13.9 15.7L13.8 15.6C13.7 15.5 13.6 15.3 13.4 15.3C12.7 15.3 11.9 15.3 11.2 15.3C11 15.3 10.9 15.4 10.8 15.6L10.7 15.7L10.5 15.9L10.7 16.1Z" fill="white"/>
<path d="M13.4 22.8C13.1 22.8 12.9 22.8 12.6 22.8C12.5 22.8 12.4 22.8 12.3 22.8H12.2C12.1 22.8 12.1 22.8 12 22.8C11.7 22.8 11.4 22.8 11.1 22.8C10.9 22.8 10.8 23 10.7 23.1L10.6 23.2L10.4 23.4L10.6 23.6L10.7 23.7C10.8 23.8 10.9 23.9 11.1 23.9C11.5 23.9 11.8 23.9 12.2 23.9C12.6 23.9 12.9 23.9 13.3 23.9C13.5 23.9 13.6 23.8 13.7 23.7L13.8 23.6L14 23.4L13.8 23.2L13.7 23.1C13.7 23 13.6 22.8 13.4 22.8Z" fill="white"/>
<path d="M3.20002 4.39998C3.30002 4.49998 3.40002 4.59998 3.60002 4.59998C4.00002 4.59998 4.30002 4.59998 4.70002 4.59998C5.10002 4.59998 5.40002 4.59998 5.70002 4.59998C5.90002 4.59998 6.00002 4.39998 6.10002 4.29998L6.20002 4.19998L6.40002 3.99998L6.20002 3.89998L6.10002 3.79998C6.00002 3.69998 5.90002 3.59998 5.70002 3.59998C5.40002 3.59998 5.20002 3.59998 4.90002 3.59998C4.80002 3.59998 4.70002 3.59998 4.60002 3.59998C4.50002 3.59998 4.40002 3.59998 4.30002 3.59998C4.00002 3.59998 3.80002 3.59998 3.50002 3.59998C3.30002 3.59998 3.20002 3.79998 3.10002 3.89998L3.00002 3.99998L2.90002 4.09998L3.20002 4.39998Z" fill="white"/>
<path d="M5.99998 2.4C6.09998 2.5 6.29998 2.6 6.49998 2.6C6.59998 2.6 6.59998 2.6 6.69998 2.6L6.99998 2.7V2.3C6.99998 2.2 6.99998 2.2 6.99998 2.1C6.99998 1.9 6.99998 1.7 6.89998 1.6C6.49998 1.3 6.09998 0.9 5.69998 0.6L5.49998 0.3C5.39998 0.2 5.29998 0.2 5.19998 0.1C5.19998 0.1 5.09998 0.1 5.09998 0H4.99998L4.89998 0.1H4.79998C4.69998 0.2 4.49998 0.2 4.49998 0.4C4.49998 0.5 4.39998 0.8 4.59998 1C5.09998 1.6 5.59998 2 5.99998 2.4Z" fill="white"/>
<path d="M36.1 36C35.2 36 34.4 36.8 34.4 37.7C34.4 38.6 35.2 39.4 36.1 39.4C37 39.4 37.8 38.7 37.8 37.7C37.8 37.2 37.6 36.8 37.3 36.5C37 36.2 36.6 36 36.1 36ZM36.7 37.7C36.7 38.1 36.5 38.2 36.1 38.3C35.6 38.2 35.6 37.8 35.6 37.7C35.6 37.3 35.9 37.1 36.2 37.1C36.3 37.1 36.5 37.2 36.6 37.3C36.7 37.4 36.7 37.6 36.7 37.7Z" fill="white"/>
<path d="M17.8999 23.7C18.0999 23.9 18.1999 24.2 18.4999 24.4C18.5999 24.5 18.6999 24.5 18.8999 24.5C19.0999 24.5 19.2999 24.4 19.4999 24.3C19.8999 24 20.2999 23.6 20.7999 23C20.8999 22.9 20.8999 22.7 20.9999 22.5C20.9999 22.4 20.9999 22.4 20.9999 22.3L21.0999 22L20.7999 22.1C20.6999 22.1 20.6999 22.1 20.5999 22.1C20.3999 22.1 20.1999 22.1 20.0999 22.3C19.7999 22.6 19.5999 22.9 19.3999 23.2L19.2999 23.3L19.1999 23.2C18.9999 23 18.8999 22.9 18.6999 22.9C18.4999 22.8 18.2999 22.9 18.1999 23H18.0999L17.7999 23.1L17.9999 23.4C17.7999 23.6 17.8999 23.7 17.8999 23.7Z" fill="white"/>
</g>
<defs>
<clipPath id="clip0_703_261">
<rect width="42" height="42" fill="white"/>
</clipPath>
</defs>
</svg>
