<svg width="42" height="42" viewBox="0 0 42 42" fill="none" xmlns="http://www.w3.org/2000/svg">
<g clip-path="url(#clip0_703_249)">
<g clip-path="url(#clip1_703_249)">
<path d="M31.5 26.3C31.5 24 30 22 27.8 21.4C25 20.6 23.1 18.7 21.5 16.4C21.2 15.9 21.2 15.5 21.5 15.1C23 12.7 24.9 10.8 27.8 10.1C30.1 9.5 31.5 7.5 31.6 5.2C31.5 4.8 31.5 4.3 31.4 3.9C30.7 1.6 28.8 0 26.6 0C24.2 0 22.3 1.4 21.6 3.7C20.5 7.3 18.2 9.7 14.6 10.8C12.3 11.5 10.8 13.5 10.8 15.8C10.8 18.1 12.3 20.1 14.7 20.7C17.5 21.5 19.4 23.4 20.9 25.8C21.1 26.1 21.1 26.6 20.9 26.8C19.4 29.2 17.5 31.1 14.7 31.9C12.2 32.6 10.6 34.8 10.8 37.2C11 39.8 12.9 41.7 15.3 42C17.8 42.2 20 40.7 20.8 38.2C21.9 34.7 24.3 32.3 27.8 31.3C30 30.5 31.5 28.6 31.5 26.3ZM20.1 8.5C21.3 7.3 22.1 5.9 22.6 4.2C23.1 2.2 24.9 0.9 26.8 1.1C28.8 1.3 30.3 2.8 30.5 4.7C30.7 6.7 29.5 8.4 27.4 9C24.8 9.7 23 11.4 21.3 13.4C21.1 13.6 21 13.8 20.7 14.2C20 12.6 19 11.5 17.5 11C18.4 10.1 19.3 9.3 20.1 8.5ZM19.1 21.9C18 20.8 16.6 20 15 19.6C12.9 19 11.7 17.4 11.9 15.3C12.1 13.5 13.6 12 15.5 11.8C17.4 11.6 19.1 12.8 19.7 14.8C20.4 17.5 22.2 19.3 24.2 21C24.4 21.1 24.5 21.3 24.7 21.4V21.5C23.2 22.1 22.1 23.1 21.6 24.6C20.7 23.7 20 22.8 19.1 21.9ZM27.5 30.1C23.5 31.3 20.9 34 19.6 38C19 39.9 17.2 41.1 15.4 40.9C13.5 40.7 12 39.2 11.8 37.4C11.6 35.4 12.7 33.7 14.6 33.1C18.6 31.9 21.2 29.2 22.5 25.2C23.1 23.2 24.9 22.1 26.9 22.4C28.9 22.7 30.3 24.4 30.3 26.3C30.4 28.1 29.2 29.6 27.5 30.1Z" fill="#1B3ECD"/>
<path d="M26.4 23.3C24.7 23.3 23.4 24.6 23.4 26.3C23.4 28 24.7 29.3 26.4 29.3C28.1 29.3 29.4 28 29.4 26.3C29.5 24.7 28.1 23.3 26.4 23.3ZM26.5 28.2C25.5 28.2 24.6 27.4 24.6 26.3C24.6 25.3 25.4 24.4 26.5 24.4C27.5 24.4 28.4 25.2 28.4 26.3C28.3 27.3 27.5 28.2 26.5 28.2Z" fill="#1B3ECD"/>
<path d="M15.9 33.9C14.2 33.9 12.9 35.2 12.9 36.9C12.9 38.6 14.2 39.9 15.9 39.9C17.6 39.9 18.9 38.6 19 36.9C18.9 35.3 17.5 33.9 15.9 33.9ZM15.8 38.8C14.8 38.8 13.9 37.9 13.9 36.9C13.9 35.9 14.8 35 15.8 35C16.8 35 17.7 35.9 17.7 36.9C17.7 37.9 16.9 38.8 15.8 38.8Z" fill="#1B3ECD"/>
<path d="M26.5 8.09998C28.2 8.09998 29.5 6.69998 29.5 5.09998C29.5 3.39998 28.1 2.09998 26.4 2.09998C24.7 2.09998 23.4 3.49998 23.4 5.09998C23.4 6.79998 24.8 8.09998 26.5 8.09998ZM26.4 3.19998C27.4 3.19998 28.3 3.99998 28.3 5.09998C28.3 6.09998 27.4 6.99998 26.4 6.99998C25.4 6.99998 24.5 6.09998 24.5 5.09998C24.6 3.99998 25.4 3.19998 26.4 3.19998Z" fill="#1B3ECD"/>
<path d="M15.9 12.7C14.2 12.7 12.9 14 12.8 15.7C12.8 17.4 14.1 18.7 15.8 18.7C17.5 18.7 18.8 17.4 18.9 15.8C18.9 14.1 17.5 12.7 15.9 12.7ZM15.8 17.6C14.8 17.6 13.9 16.7 13.9 15.7C13.9 14.7 14.8 13.8 15.8 13.8C16.8 13.8 17.7 14.6 17.7 15.7C17.7 16.7 16.9 17.6 15.8 17.6Z" fill="#1B3ECD"/>
<path d="M15.9 35.9C15.3 35.9 14.9 36.3 14.8 36.9C14.8 37.4 15.2 37.9 15.8 37.9C16.4 37.9 16.8 37.5 16.9 36.9C16.9 36.4 16.4 35.9 15.9 35.9Z" fill="#1B3ECD"/>
<path d="M26.5 25.3C25.9 25.3 25.5 25.7 25.4 26.3C25.4 26.8 25.8 27.3 26.4 27.3C27 27.3 27.4 26.9 27.5 26.3C27.5 25.7 27.1 25.3 26.5 25.3Z" fill="#1B3ECD"/>
<path d="M15.9 14.7C15.3 14.7 14.9 15.1 14.8 15.7C14.8 16.2 15.2 16.7 15.8 16.7C16.4 16.7 16.8 16.3 16.9 15.7C16.9 15.1 16.5 14.7 15.9 14.7Z" fill="#1B3ECD"/>
<path d="M26.4 6C27 6 27.4 5.6 27.5 5C27.5 4.5 27.1 4 26.5 4C25.9 4 25.5 4.4 25.4 5C25.5 5.5 25.9 6 26.4 6Z" fill="#1B3ECD"/>
<path d="M13.4 21.9C13.4 21.7 13.3 21.4 13 21.4C10.7 20.5 9.1 18.3 9.1 15.7C9.1 13.1 10.7 10.9 13 9.99999C13.2 9.89999 13.4 9.69999 13.4 9.49999C13.4 8.99999 13 8.69999 12.7 8.89999C9.9 9.89999 8 12.6 8 15.7C8 18.8 9.9 21.4 12.7 22.5C13 22.6 13.4 22.3 13.4 21.9Z" fill="#1B3ECD"/>
<path d="M29.6 19.4C29.2 19.3 28.8 19.5 28.8 19.9C28.8 20.1 28.9001 20.4 29.2001 20.4C31.5001 21.3 33.1 23.5 33.1 26.1C33.1 28.7 31.5001 30.9 29.2001 31.8C29.0001 31.9 28.8 32.1 28.8 32.3C28.8 32.7 29.2 33 29.6 32.8C32.3001 31.7 34.3 29.1 34.3 26C34.3 23.1 32.4 20.4 29.6 19.4Z" fill="#1B3ECD"/>
</g>
</g>
<defs>
<clipPath id="clip0_703_249">
<rect width="42" height="42" fill="white"/>
</clipPath>
<clipPath id="clip1_703_249">
<rect width="41.6" height="42" fill="white"/>
</clipPath>
</defs>
</svg>
