<?xml version="1.0" encoding="utf-8"?>
<!-- Generator: Adobe Illustrator 19.0.0, SVG Export Plug-In . SVG Version: 6.00 Build 0)  -->
<svg version="1.1" id="Layer_1" xmlns="http://www.w3.org/2000/svg" xmlns:xlink="http://www.w3.org/1999/xlink" x="0px" y="0px"
	 viewBox="0 0 42 42" style="enable-background:new 0 0 42 42;" xml:space="preserve">
<style type="text/css">
	.st0{fill:#FFFFFF;}
</style>
<g id="XMLID_634_">
	<path id="XMLID_635_" class="st0" d="M27.6,33.8c-0.2,0-0.5-0.1-0.7,0c-1,0.5-2.1,1-3,1.5c-0.5,0.2-0.9,0.5-1.4,0.7
		c-0.2,0.1-0.4,0.2-0.6,0.3l-0.1,0c0-0.1,0-0.2,0-0.2l0-1.7c0-2.3,0-4.7,0-7c0-0.2,0.3-0.6,0.6-0.8c1.6-0.8,3.2-1.6,4.8-2.4l1.3-0.6
		c0.5-0.3,1-0.5,1.6-0.8l0.6-0.3l0,1.9c0,1.1,0,2.2,0,3.3c0,0.3,0.2,0.5,0.4,0.7c0.1,0.1,0.1,0.1,0.2,0.2l0.2,0.3l0.2-0.3
		c0-0.1,0.1-0.1,0.1-0.2c0.1-0.2,0.3-0.4,0.3-0.6c0-2.2,0-4.2,0-6.1c0-0.3-0.3-0.8-0.6-1c-1.9-1-3.8-2-6-3c-0.2-0.1-0.5,0-0.7,0.1
		c-0.1,0-0.2,0.1-0.2,0.1l-0.3,0.1l0.2,0.3c0,0.1,0.1,0.1,0.1,0.2c0.1,0.2,0.2,0.4,0.4,0.5c0.5,0.3,1,0.6,1.6,0.8
		c0.2,0.1,0.5,0.2,0.7,0.4c0.6,0.3,1.3,0.6,1.9,1l0.8,0.4c0,0,0,0,0,0l-1.4,0.7c-2.3,1.1-4.6,2.3-6.9,3.4c-0.2,0.1-0.5,0.1-0.8-0.1
		c-1.6-0.8-3.2-1.6-4.8-2.4l-0.6-0.3c-0.7-0.3-1.4-0.7-2.1-1.1l-0.7-0.3l1-0.5c1.3-0.7,2.5-1.3,3.8-1.9c0.2-0.1,0.4-0.4,0.5-0.6
		c0.1-0.1,0.1-0.2,0.2-0.2l0.3-0.4l-0.4,0c-0.1,0-0.2,0-0.3,0c-0.3,0-0.5-0.1-0.8,0c-1.1,0.5-2.1,1-3.2,1.6
		c-0.8,0.4-1.6,0.8-2.4,1.2c-0.6,0.3-0.8,0.7-0.8,1.4c0,0.8,0,1.6,0,2.4c0,1,0,2,0,2.9c0,0.4,0.3,1.2,0.5,1.4l0.1,0.1l0.1,0
		c0.8-0.1,0.8-0.8,0.7-1.2c0-0.1,0-0.2,0-0.3c0-1.2,0-2.3,0-3.5l0-1.1c0.1,0,0.1,0,0.1,0l1.3,0.7c2.3,1.1,4.7,2.3,7,3.5
		c0.2,0.1,0.4,0.5,0.4,0.8c0,2.3,0,4.7,0,7l0,1.4c0,0.2,0,0.3,0,0.5c0,0,0,0,0,0l-1-0.5c-1.4-0.7-2.6-1.3-4-1.9
		c-0.3-0.1-0.5-0.1-0.8,0c-0.1,0-0.2,0-0.3,0l-0.5,0l0.3,0.4c0.1,0.1,0.1,0.2,0.2,0.2c0.1,0.2,0.3,0.5,0.5,0.6c2.1,1.1,4,2,5.7,2.8
		c0.2,0.1,0.5,0.2,0.8,0.2c0.2,0,0.5,0,0.6-0.1c1.7-0.8,3.5-1.7,5.8-2.9c0.2-0.1,0.4-0.4,0.5-0.6c0-0.1,0.1-0.2,0.1-0.2l0.2-0.3
		l-0.4,0C27.8,33.8,27.7,33.8,27.6,33.8z"/>
	<path id="XMLID_636_" class="st0" d="M18.1,15.3c0.7,1.3,1.5,2.6,2.3,3.9c0.2,0.2,0.6,0.3,0.8,0.3c0,0,0,0,0,0
		c0.3,0,0.4-0.1,0.5-0.2c0.9-1.5,1.8-3,2.5-4.2c0.1-0.2,0-0.5,0-0.6c-0.1-0.1-0.1-0.2-0.2-0.3c-0.2-0.1-0.6,0-0.8,0.2
		c-0.2,0.2-0.3,0.4-0.4,0.6c0,0.1-0.1,0.1-0.1,0.2c-0.5,0.8-0.9,1.6-1.4,2.5l-1.2-2.1c0,0,0,0,0.1,0c0.2,0,0.3,0,0.5,0
		c0.5,0.1,0.8,0,1.1-0.2c0.3-0.3,0.4-0.8,0.3-1.2c0-1.1,0-2.1,0-3.2c0-0.9,0-1.8,0-2.7c0-0.3-0.1-0.5-0.3-0.7c0-0.1-0.1-0.2-0.1-0.2
		l-0.2-0.4l-0.2,0.4c-0.1,0.1-0.1,0.2-0.2,0.2c-0.2,0.2-0.3,0.4-0.4,0.7c0,0.9,0,1.7,0,2.6c0,0.5,0,1,0,1.5c0,0.2,0,0.3,0,0.5
		c0,0.5,0,0.9-0.1,1.2C20.1,14,19.6,14,19.3,14c-0.2,0-0.4,0-0.6,0c-0.4,0-0.7,0.2-0.8,0.4C17.8,14.6,17.9,14.9,18.1,15.3L18.1,15.3
		z"/>
	<path id="XMLID_637_" class="st0" d="M14,30.3C14,30.2,13.8,30,13.4,30c-1.5,0-3.1,0-4.9,0c-0.3,0-0.6,0.4-0.6,0.6
		c0,0.3,0.3,0.6,0.5,0.7c0.2,0.1,0.4,0.1,0.6,0.1c0.1,0,0.1,0,0.2,0c0.8,0,1.7,0,2.6,0h0.4L11,33.5c-0.1-0.2-0.2-0.3-0.3-0.4
		c-0.7-1.1-0.8-1.2-2-0.5c-0.8,0.5-1.7,1-2.5,1.5l-1.9,1.1c-0.1,0-0.1,0.1-0.2,0.1c-0.2,0.1-0.4,0.2-0.6,0.4
		c-0.1,0.2-0.2,0.4-0.2,0.5c0,0.1,0,0.1,0,0.2l-0.1,0.3l0.3,0.1c0.1,0,0.1,0,0.2,0.1c0.1,0,0.3,0.1,0.4,0.1c0,0,0.1,0,0.1,0
		c0.2-0.1,0.4-0.2,0.6-0.3c0.1,0,0.1-0.1,0.2-0.1l4.5-2.6l0.2,0.3c0.2,0.4,0.4,0.7,0.6,1.1c0.3,0.4,0.6,0.5,0.7,0.5
		c0.2,0,0.4-0.1,0.7-0.5c0.8-1.3,1.6-2.6,2.3-4C14.2,30.9,14.2,30.6,14,30.3z"/>
	<path id="XMLID_638_" class="st0" d="M38.5,36.1c-0.1-0.2-0.1-0.4-0.3-0.5c-0.2-0.2-0.5-0.3-0.7-0.5c-0.1,0-0.2-0.1-0.2-0.1
		l-4.2-2.4l0.2-0.4c0.2-0.4,0.4-0.7,0.5-1c0.2-0.4,0.2-0.7,0.1-0.9c-0.1-0.1-0.3-0.3-0.7-0.3c-1.4,0-2.9,0-4.7,0
		c-0.3,0-0.6,0.1-0.7,0.3c-0.1,0.2-0.1,0.5,0,0.8c0.8,1.4,1.6,2.8,2.4,4.1c0.1,0.2,0.4,0.2,0.6,0.2c0.1,0,0.1,0,0.2,0l0.3,0.1l0-0.3
		c0-0.1,0-0.1,0-0.2c0-0.2,0.1-0.4,0.1-0.5c0-0.2-0.1-0.3-0.2-0.5c0-0.1-0.1-0.1-0.1-0.2l-1.4-2.5h2.4c0,0,0,0,0,0.1
		c-0.7,1.5-0.7,1.6,0.7,2.5c1.4,0.8,3,1.8,4.7,2.7c0.1,0.1,0.2,0.1,0.3,0.1c0.1,0,0.3,0,0.4-0.1c0.1,0,0.2,0,0.2,0l0.3,0l-0.1-0.3
		C38.6,36.2,38.5,36.2,38.5,36.1z"/>
	<path id="XMLID_639_" class="st0" d="M20.8,5.9L21,6.2l1-1.5l-1.1-1.5l-0.2,0.4c0,0.1-0.1,0.2-0.1,0.3c-0.1,0.3-0.3,0.5-0.3,0.9
		c0,0.3,0.1,0.5,0.3,0.8C20.7,5.7,20.7,5.8,20.8,5.9z"/>
	<path id="XMLID_640_" class="st0" d="M40.1,36.5l-0.1,0.3c-0.1,0.1-0.1,0.2-0.2,0.3c-0.2,0.4-0.3,0.5-0.1,0.6c0.5,0.4,1,0.7,1.5,1
		c0,0,0.1,0,0.1,0c0.1,0,0.3-0.1,0.4-0.4c0.1-0.1,0.1-0.1,0.1-0.2L42,38L40.1,36.5z"/>
	<path id="XMLID_641_" class="st0" d="M2.3,37.2c-0.1-0.1-0.1-0.3-0.3-0.3l-0.1,0c-0.3,0-0.6,0-0.8,0.1c-0.3,0.2-0.6,0.5-0.9,0.8
		L0,38l0,0.1c0,0.1,0.2,0.4,0.3,0.5c0.1,0,0.2,0.1,0.3,0.1c0.3,0,0.7-0.2,0.9-0.3c0.2-0.1,0.9-0.6,0.9-1L2.3,37.2L2.3,37.2z"/>
</g>
</svg>
