<?xml version="1.0" encoding="utf-8"?>
<!-- Generator: Adobe Illustrator 19.0.0, SVG Export Plug-In . SVG Version: 6.00 Build 0)  -->
<svg version="1.1" id="Layer_1" xmlns="http://www.w3.org/2000/svg" xmlns:xlink="http://www.w3.org/1999/xlink" x="0px" y="0px"
	 viewBox="0 0 42 42" style="enable-background:new 0 0 42 42;" xml:space="preserve">
<style type="text/css">
	.st0{fill:#FFFFFF;}
</style>
<g id="XMLID_3_">
	<path id="XMLID_168_" class="st0" d="M22.3,28.9c0.6,0.4,1.4,0.6,1.4,0.9c0.1,0.9-0.9,0.5-1.4,0.7c0,0.3,0,0.6,0,0.9c0,3,0,6,0,9
		c0,0.8-0.3,1-1,1c-6.6,0-13.1,0-19.7,0c-0.8,0-1-0.2-1-1c0-6.5,0-13.1,0-19.6c0-1,0.1-1.1,1.1-1.1c3,0,6,0,8.9,0c0.3,0,0.6,0,0.9,0
		c0.3-0.5-0.2-1.5,0.7-1.4c0.3,0,0.5,0.8,0.8,1.2c-0.1,0.1-0.1,0.1-0.2,0.2c1.5,0,3,0,4.4,0c0.3,0,0.5-0.1,0.7,0
		c0.2,0.1,0.4,0.4,0.5,0.6c0,0.2-0.2,0.4-0.4,0.5c-0.2,0.1-0.5,0-0.7,0c-4.8,0-9.6,0-14.4,0c-0.3,0-0.7,0-1.1,0c0,6.5,0,12.9,0,19.4
		c6.4,0,12.8,0,19.4,0c0-0.3,0-0.6,0-1c0-4.8,0-9.6,0-14.4c0-0.2-0.1-0.5,0-0.7c0.1-0.3,0.4-0.5,0.6-0.7c0.2,0.2,0.5,0.5,0.5,0.7
		c0.1,1.3,0,2.5,0,3.8C22.3,28.4,22.3,28.8,22.3,28.9z"/>
	<path id="XMLID_165_" class="st0" d="M29.2,11.8c-0.5,0.1-1,0.2-1.5,0.1c-0.2,0-0.4-0.2-0.6-0.4c0.1-0.2,0.3-0.6,0.5-0.7
		c1.2-0.2,2.3-0.4,3.5-0.5c0.2,0,0.6,0.5,0.6,0.7c-0.1,1.1-0.2,2.2-0.4,3.2c0,0.2-0.4,0.4-0.7,0.6c-0.2-0.3-0.4-0.5-0.4-0.8
		c0-0.5,0.1-0.9,0.1-1.4c-0.1-0.1-0.2-0.1-0.2-0.2c-0.6,0.7-1.2,1.4-1.8,2c-1.2,1.2-2.3,2.4-3.5,3.5c-0.3,0.3-0.5,0.6-0.3,1.1
		c0.5,1.4,0,2.8-1.1,3.4c-1.1,0.7-2.5,0.5-3.5-0.4c-1-0.9-1.1-2.4-0.4-3.6c0.7-1.1,2.1-1.6,3.5-1.1c0.2,0.1,0.6,0.1,0.8-0.1
		c1.9-1.8,3.7-3.7,5.5-5.5C29.2,12,29.2,11.9,29.2,11.8z M21.7,22c0.9,0,1.7-0.6,1.7-1.6c0.1-0.9-0.6-1.7-1.6-1.8
		c-0.9-0.1-1.7,0.6-1.8,1.5C20,21.2,20.7,21.9,21.7,22z"/>
	<path id="XMLID_164_" class="st0" d="M21.7,0.8c0.4,0,0.8-0.1,1.2,0c0.2,0,0.6,0.4,0.5,0.5C23.4,1.6,23.1,2,22.9,2
		C22.1,2,21.3,2,20.5,2C20.3,2,20,1.6,20,1.4c0-0.2,0.3-0.5,0.6-0.6C20.9,0.8,21.3,0.8,21.7,0.8z"/>
	<path id="XMLID_163_" class="st0" d="M36,0.8c0.4,0,0.7-0.1,1.1,0c0.2,0.1,0.4,0.3,0.6,0.5C37.5,1.6,37.3,2,37.1,2
		C36.3,2,35.5,2,34.7,2c-0.2,0-0.4-0.4-0.6-0.6c0.2-0.2,0.4-0.5,0.6-0.5C35.2,0.8,35.6,0.8,36,0.8z"/>
	<path id="XMLID_162_" class="st0" d="M41.2,6.2c0,0.4,0.1,0.7,0,1.1c-0.1,0.2-0.3,0.4-0.5,0.6c-0.2-0.2-0.6-0.4-0.6-0.6
		C40,6.5,40,5.8,40.1,5c0-0.2,0.4-0.4,0.6-0.6c0.2,0.2,0.5,0.4,0.5,0.6C41.3,5.4,41.2,5.8,41.2,6.2z"/>
	<path id="XMLID_161_" class="st0" d="M41.2,15.6c0,0.4,0.1,0.8,0,1.2c-0.1,0.2-0.3,0.5-0.6,0.6c-0.2,0-0.5-0.3-0.5-0.5
		c-0.1-0.8-0.1-1.6,0-2.4c0-0.2,0.4-0.4,0.6-0.6c0.2,0.2,0.4,0.4,0.5,0.7C41.3,14.9,41.2,15.2,41.2,15.6
		C41.2,15.6,41.2,15.6,41.2,15.6z"/>
	<path id="XMLID_160_" class="st0" d="M41.2,20.4c0,0.4,0.1,0.7,0,1.1c-0.1,0.2-0.3,0.4-0.5,0.6c-0.2-0.2-0.6-0.4-0.6-0.6
		c-0.1-0.8-0.1-1.6,0-2.3c0-0.2,0.4-0.4,0.6-0.6c0.2,0.2,0.5,0.4,0.5,0.6C41.3,19.6,41.2,20,41.2,20.4z"/>
	<path id="XMLID_159_" class="st0" d="M16.9,2c-0.4,0-0.8,0.1-1.1,0c-0.3-0.1-0.4-0.4-0.6-0.6c0.2-0.2,0.4-0.5,0.6-0.5
		c0.7-0.1,1.5-0.1,2.3,0c0.2,0,0.4,0.4,0.6,0.5c-0.2,0.2-0.4,0.5-0.6,0.6C17.7,2.1,17.3,2,16.9,2C16.9,2,16.9,2,16.9,2z"/>
	<path id="XMLID_158_" class="st0" d="M26.5,0.9c0.4,0,0.7-0.1,1.1,0c0.2,0.1,0.5,0.3,0.6,0.6c0,0.1-0.3,0.5-0.5,0.5
		C26.9,2,26,2,25.2,2c-0.2,0-0.5-0.4-0.5-0.6c0-0.1,0.3-0.4,0.5-0.5C25.7,0.8,26.1,0.8,26.5,0.9z"/>
	<path id="XMLID_157_" class="st0" d="M31.3,0.8c0.4,0,0.7-0.1,1.1,0c0.2,0.1,0.5,0.3,0.6,0.6c0,0.1-0.3,0.5-0.5,0.5
		C31.6,2,30.8,2,30,2c-0.2,0-0.5-0.4-0.5-0.6c0-0.1,0.3-0.4,0.5-0.5C30.4,0.8,30.8,0.9,31.3,0.8z"/>
	<path id="XMLID_156_" class="st0" d="M41.2,10.9c0,0.4,0.1,0.8,0,1.2c-0.1,0.2-0.3,0.5-0.5,0.6c-0.1,0-0.5-0.3-0.6-0.5
		c-0.1-0.8-0.1-1.7,0-2.5c0-0.2,0.4-0.5,0.6-0.4c0.2,0,0.5,0.3,0.5,0.5C41.3,10.1,41.2,10.5,41.2,10.9
		C41.2,10.9,41.2,10.9,41.2,10.9z"/>
	<path id="XMLID_155_" class="st0" d="M41.2,25.1c0,0.4,0.1,0.7,0,1.1c-0.1,0.2-0.3,0.4-0.5,0.6c-0.2-0.2-0.6-0.3-0.6-0.5
		c-0.1-0.8-0.1-1.6,0-2.4c0-0.2,0.4-0.4,0.6-0.5c0.1,0,0.4,0.3,0.5,0.5C41.3,24.4,41.2,24.8,41.2,25.1
		C41.2,25.1,41.2,25.1,41.2,25.1z"/>
	<path id="XMLID_154_" class="st0" d="M40,2.1c-0.3,0-0.6,0-0.7-0.1c-0.2-0.2-0.2-0.5-0.3-0.7c0.5-0.1,1.1-0.3,1.6-0.3
		c0.2,0,0.5,0.4,0.6,0.7c0.1,0.2,0.1,0.5,0,0.7c-0.1,0.3-0.3,0.6-0.5,0.8c-0.2-0.3-0.4-0.5-0.7-0.8C40,2.3,40,2.2,40,2.1z"/>
	<path id="XMLID_153_" class="st0" d="M40,29.2c0-0.3,0-0.6,0.1-0.7c0.2-0.2,0.5-0.2,0.8-0.4c0.1,0.5,0.3,1.1,0.3,1.6
		c0,0.2-0.4,0.5-0.6,0.6c-0.3,0.1-0.6,0.1-0.9,0c-0.3-0.1-0.5-0.4-0.7-0.5c0.2-0.2,0.4-0.4,0.7-0.6C39.7,29.2,39.8,29.2,40,29.2z"/>
	<path id="XMLID_152_" class="st0" d="M36,29.3c0.4,0,0.7-0.1,1.1,0c0.2,0.1,0.5,0.3,0.5,0.6c0,0.1-0.3,0.5-0.5,0.5
		c-0.8,0.1-1.6,0.1-2.3,0c-0.2,0-0.5-0.4-0.5-0.5c0-0.2,0.3-0.5,0.5-0.5C35.2,29.2,35.6,29.3,36,29.3C36,29.3,36,29.3,36,29.3z"/>
	<path id="XMLID_151_" class="st0" d="M12.9,2.1c0,0.2,0,0.4-0.1,0.5c-0.2,0.2-0.4,0.4-0.6,0.6c-0.2-0.2-0.4-0.4-0.5-0.6
		c-0.1-0.3,0-0.6,0-0.9c0-0.5,0.2-0.8,0.8-0.8c0.2,0,0.5-0.1,0.7,0c0.3,0.1,0.6,0.4,0.9,0.5c-0.3,0.2-0.5,0.4-0.8,0.6
		C13.1,2.1,13,2.1,12.9,2.1z"/>
	<path id="XMLID_150_" class="st0" d="M31.3,30.4c-0.4,0-0.7,0.1-1.1,0c-0.2-0.1-0.4-0.4-0.6-0.6c0.2-0.2,0.4-0.5,0.6-0.5
		c0.8-0.1,1.6-0.1,2.3,0c0.2,0,0.5,0.3,0.5,0.5c0,0.2-0.3,0.5-0.5,0.5C32.2,30.5,31.7,30.4,31.3,30.4C31.3,30.4,31.3,30.4,31.3,30.4
		z"/>
	<path id="XMLID_149_" class="st0" d="M12.8,10.8c0,0.4,0.1,0.7,0,1.1c-0.1,0.2-0.3,0.4-0.5,0.6c-0.2-0.2-0.6-0.4-0.6-0.6
		c-0.1-0.8,0-1.6,0-2.4C11.7,9.3,12,9,12.2,9c0.2,0,0.5,0.3,0.6,0.5C12.8,9.9,12.8,10.3,12.8,10.8C12.8,10.8,12.8,10.8,12.8,10.8z"
		/>
	<path id="XMLID_148_" class="st0" d="M12.8,6c0,0.4,0,0.8-0.1,1.2c0,0.2-0.3,0.5-0.5,0.5c-0.2,0-0.5-0.3-0.5-0.5
		c-0.1-0.8-0.1-1.6,0-2.4c0-0.2,0.4-0.5,0.6-0.4c0.2,0,0.5,0.3,0.5,0.5C12.8,5.2,12.8,5.6,12.8,6C12.8,6,12.8,6,12.8,6z"/>
	<path id="XMLID_147_" class="st0" d="M12.8,15.4c0,0.4,0.1,0.7,0,1.1c-0.1,0.2-0.3,0.5-0.6,0.6c-0.1,0-0.5-0.3-0.5-0.5
		c-0.1-0.8-0.1-1.6,0-2.3c0-0.2,0.4-0.5,0.6-0.5c0.1,0,0.4,0.3,0.5,0.5C12.8,14.6,12.8,15,12.8,15.4z"/>
	<path id="XMLID_146_" class="st0" d="M26.7,30.4c-0.4,0-0.8,0.1-1.2,0c-0.2,0-0.5-0.4-0.5-0.6c0-0.2,0.3-0.5,0.5-0.5
		c0.8-0.1,1.6-0.1,2.3,0c0.2,0,0.5,0.4,0.5,0.5c-0.1,0.2-0.3,0.5-0.5,0.6C27.5,30.5,27.1,30.4,26.7,30.4
		C26.7,30.4,26.7,30.4,26.7,30.4z"/>
</g>
</svg>
