<?xml version="1.0" encoding="utf-8"?>
<!-- Generator: Adobe Illustrator 19.0.0, SVG Export Plug-In . SVG Version: 6.00 Build 0)  -->
<svg version="1.1" id="Layer_1" xmlns="http://www.w3.org/2000/svg" xmlns:xlink="http://www.w3.org/1999/xlink" x="0px" y="0px"
	 viewBox="0 0 42 42" style="enable-background:new 0 0 42 42;" xml:space="preserve">
<style type="text/css">
	.st0{fill:#FFFFFF;}
</style>
<g id="XMLID_192_">
	<path id="XMLID_331_" class="st0" d="M40.1,23c-0.1-0.3-0.3-0.4-0.5-0.5h-0.1c-0.2,0-0.4,0.1-0.6,0.3c-0.7,0.6-1.5,0.9-2.3,0.9
		c-0.5,0-1-0.1-1.5-0.4c-0.6-0.3-1.1-0.4-1.6-0.4s-1,0.1-1.7,0.5c-0.6,0.3-1.1,0.4-1.4,0.4c-0.1,0-0.2,0-0.3-0.1
		c-0.3-0.2-0.4-0.7-0.4-1.7c0-0.4,0-0.6,0.1-0.7s0.3-0.2,0.8-0.2l0,0c1,0,2.1,0,3.1,0h3.2c0.8,0,1.6,0,2.4,0c0.4,0,0.7-0.1,0.9-0.3
		c0.2-0.2,0.3-0.5,0.3-0.9c0-3.1,0-6.3,0-9.4c0-0.5-0.1-0.8-0.3-1s-0.5-0.3-1-0.3l0,0c-1.4,0-2.8,0-4.2,0h-1.7c-1.3,0-2.5,0-3.9,0
		c-0.6,0-0.7-0.1-0.9-0.7c-1.2-3.4-3.6-5.4-7.1-5.7c-0.3,0-0.6,0-0.9,0c-3,0-5.5,1.4-7.1,4.2c-0.9,1.4-1.2,3-1.2,5.1
		c0,0.2,0,0.5-0.1,0.7c-0.7,0.2-0.6,0.8-0.6,1.2c0,0.1,0,0.1,0,0.2c0,0.5,0,1.1,0,1.7c0,0.6,0,1.3,0,2c0,0.2-0.1,0.5-0.2,0.7
		c-0.1,0-0.2,0-0.2,0c-0.3,0-0.6-0.1-0.8-0.2c-0.4-0.2-0.8-0.5-1.1-0.8C9,17.5,8.7,17.2,8.4,17c-0.5-0.3-0.7-0.7-0.7-1.3
		c0-0.4-0.1-0.9-0.4-1.2S6.6,14,6.1,14c-0.1,0-0.2,0-0.2,0c-0.5,0.1-0.9,0.3-1.1,0.7c-0.3,0.4-0.4,0.8-0.3,1.3s0.4,1,0.9,1.3
		c0.2,0.1,0.5,0.2,0.7,0.2s0.3,0,0.5-0.1s0.3-0.1,0.4-0.1c0.3,0,0.5,0.1,0.7,0.4c0.2,0.2,0.4,0.4,0.7,0.6c0.2,0.1,0.3,0.2,0.5,0.4
		L9,18.9c0.5,0.4,1.1,1,2,1c0,0,0.2,0,0.3,0c0.1,0.1,0.2,0.2,0.2,0.3c0,0.1,0,0.3,0,0.5c0,0.1,0,0.3,0,0.4c0,0.2,0,0.3-0.1,0.4
		s-0.2,0.1-0.4,0.1h-0.5c-0.2,0-0.5,0-0.7,0c-0.3,0-0.6,0-0.8,0.1c-0.3,0.1-0.6,0.1-1,0.1c-1.5,0-2.9-0.7-4.2-2
		c-0.3-0.3-0.5-0.5-0.4-0.9S3.3,18,3,17.7c-0.3-0.4-0.8-0.6-1.4-0.6c-0.5,0-0.9,0.2-1.2,0.6c-0.3,0.3-0.5,0.8-0.5,1.2
		c0,0.5,0.3,1.1,0.7,1.4c0.2,0.2,0.5,0.3,0.8,0.3c0.1,0,0.2,0,0.3,0c0.2,0,0.3-0.1,0.5-0.1c0.6,0,1,0.3,1.4,0.7L4,21
		c0.4,0.4,0.8,0.7,1.3,1c0.3,0.2,0.8,0.5,1.4,0.5c0.7,0,1.4,0,2.1,0s1.5,0,2.2,0c0.2,0,0.4,0,0.5,0.1s0.1,0.2,0.1,0.4
		c0,0.1,0,0.2,0,0.4c0,0.1,0,0.3,0,0.3c-0.1,0.2-0.2,0.3-0.3,0.4h-0.1c-0.8,0-1.4,0.4-1.8,0.8c-0.5,0.5-1.1,1-1.8,1.4
		c-0.2,0.1-0.5,0.2-0.7,0.2c-0.1,0-0.1,0-0.2,0c-0.2,0-0.3,0-0.5,0c-0.9,0-1.6,0.5-1.7,1.4c-0.1,0.5,0,1,0.4,1.4
		c0.3,0.4,0.8,0.6,1.3,0.7c0.4,0,0.8-0.2,1.1-0.4c0.4-0.3,0.6-0.9,0.6-1.5c0-0.5,0.1-0.6,0.1-0.6c0.9-0.8,1.7-1.5,2.6-2.1
		c0.2-0.1,0.4-0.2,0.6-0.2c0.1,0,0.1,0,0.2,0c0.2,0.1,0.3,0.4,0.3,0.8c0,0.1,0,0.3,0,0.4c0,0.4,0,0.7,0,1.1
		c-0.1,0.4-0.2,0.7-0.3,0.8C9.6,29.5,9,31,9.3,33.1c0,0.2,0,0.5,0,0.7c0,0.1,0,0.3,0,0.4c0,0.7,0,1.1-0.6,1.5
		c-0.4,0.2-0.6,0.6-0.6,1c-0.1,0.5,0.1,1,0.5,1.4c0.3,0.3,0.8,0.5,1.2,0.5c0.5,0,0.9-0.2,1.2-0.5c0.4-0.4,0.6-1,0.5-1.5
		c0-0.4-0.2-0.7-0.5-0.9c-0.7-0.4-0.7-0.9-0.7-1.6v-0.3c0-0.3,0-0.5,0-0.8c0-0.5,0-1.1,0-1.6c-0.1-0.9,0.4-1.3,1-1.8l0,0l0,0
		c0,0,0,0,0,0.1l0.1,1.2h7.2c1.8,0,3.6,0,5.4,0c0.7,0,0.8,0.2,0.9,0.7c0.5,3,2.2,5.1,5.3,6.5c0.9,0.4,1.9,0.6,3,0.6s2.2-0.2,3.3-0.7
		c2.2-0.9,4-2.6,4.7-4.5C42.5,30.4,42.2,27,40.1,23z M6,16.2c-0.2,0-0.4-0.2-0.4-0.4c0-0.2,0.2-0.4,0.4-0.4s0.4,0.2,0.4,0.4
		C6.4,16,6.2,16.2,6,16.2z M1.8,18.9c-0.2,0-0.4-0.2-0.4-0.4c0-0.2,0.2-0.4,0.4-0.4s0.4,0.2,0.4,0.4C2.2,18.7,2,18.9,1.8,18.9z
		 M6,28.5c-0.2,0-0.4-0.2-0.4-0.4c0-0.2,0.2-0.4,0.4-0.4s0.4,0.2,0.4,0.4C6.4,28.4,6.2,28.5,6,28.5z M9.9,37.5
		c-0.2,0-0.4-0.2-0.4-0.4s0.2-0.4,0.4-0.4s0.4,0.2,0.4,0.4C10.3,37.4,10.1,37.5,9.9,37.5z M27.7,11c0-0.2,0.2-0.4,0.4-0.4h10.7
		c0.2,0,0.4,0.2,0.4,0.4v8.6c0,0.2-0.2,0.4-0.4,0.4H28.1c-0.2,0-0.4-0.2-0.4-0.4V11z M17.6,4.7C18.5,4.2,19.5,4,20.5,4s2,0.2,3,0.6
		c2,0.9,3.4,2.5,4,4.4c0,0.1,0,0.2,0.1,0.3c0,0,0,0.1-0.1,0.1c-1.1,0.3-1.1,0.4-1.1,1.7v0.4c0,0.3,0,0.6,0,0.9v0.1l0,0l0,0l-0.1-0.1
		c0-0.2,0-0.5,0-0.8c0-0.1,0-0.3,0-0.4c0-3-2.4-5.5-5.6-5.5c-3.1,0-5.5,2.3-5.6,5.4c0,0.2,0,0.4,0,0.6v0.2c0,0.7-0.1,1-0.2,1.1
		c-0.1,0.1-0.2,0.1-0.4,0.1s-0.4,0-0.8-0.1c-0.1,0-0.2-0.2-0.3-0.3C13,9,14.5,6.2,17.6,4.7z M16.2,12.9c-0.4-2.6,0.3-4.4,2.1-5.5
		C19,7,19.8,6.8,20.6,6.8c0.7,0,1.3,0.1,2,0.4c1.4,0.7,2.3,1.9,2.5,3.4c0.1,0.6,0.1,1.3,0.1,2c0,0.1-0.2,0.3-0.3,0.3
		c-1.2,0-2.4,0-3.6,0c-1.4,0-2.7,0-4,0l0,0L16.2,12.9z M24.9,29.3c0,0.6-0.1,0.7-0.7,0.7c-1.8,0-3.7,0-5.5,0s-3.7,0-5.5,0
		c-0.3,0-0.5-0.1-0.5-0.1c-0.1-0.1-0.1-0.3-0.1-0.6c0-4.9,0-9.8,0-14.7c0-0.3,0-0.4,0.1-0.5s0.2-0.1,0.5-0.1c2.1,0,4.2,0,6.3,0
		s4.2,0,6.3,0c0.3,0,0.4,0,0.5,0.1s0.1,0.2,0.1,0.5c0,0.9,0,1.8,0,2.6c0,0.9,0,1.8,0,2.7c0,0.4,0.1,0.7,0.3,0.9
		c0.2,0.2,0.5,0.3,0.8,0.3c0,0,0.5,0,0.7,0c0.3,0,0.4,0,0.4,0.1s0,0.2,0,0.6c0,0.1,0,1,0,1.3c0,0,0,0,0,0.1l0,0l0,0
		c-0.2-0.1-0.3-0.2-0.4-0.2c-0.2-0.2-0.4-0.4-0.8-0.4l0,0c-0.3,0.1-0.6,0.4-0.7,0.7C25.5,25.4,25,27.3,24.9,29.3z M32.8,37.7
		c-1.1-0.1-2.2-0.5-3.4-1.2c-1.9-1.2-3-3-3.3-5.6c-0.3-2.3,0.6-5.4,1.5-7c0,0,0,0,0.1,0l0,0c0.8,0.5,1.7,0.8,2.6,0.8
		c0.8,0,1.6-0.2,2.5-0.5l0,0l0,0l0,0c0.1,0.4,0.1,0.6,0.1,0.7c-0.1,0.2-0.4,0.3-0.8,0.4c-2.3,0.7-4,2.6-4.2,4.7
		c-0.2,2.5,0.9,4.5,3.1,5.6c0.3,0.1,0.5,0.2,0.8,0.3C33,36.3,33.1,36.4,32.8,37.7z M28.9,30.7c0-1.2,0.5-2.3,1.4-3.2
		c0.9-0.9,2-1.3,3.2-1.3l0,0c2.4,0,4.4,2,4.4,4.5c0,1.2-0.4,2.4-1.3,3.2c-0.8,0.8-2,1.3-3.2,1.3C30.9,35.1,29,33.2,28.9,30.7z
		 M38.6,35.6c-1.2,1.2-2.7,1.9-4.6,2.1l0,0c0,0,0-0.1-0.1-0.1v-0.1c0-0.3,0-0.5,0-0.8c0-0.4,0-0.5,0.6-0.6c1.6-0.3,2.8-1.2,3.6-2.4
		s1-2.8,0.7-4.3c-0.5-2-1.8-3.4-3.9-4c-0.9-0.3-1-0.3-0.9-1.1c0,0,0,0,0-0.1l0,0l0.6,0.1c0.6,0.2,1.3,0.3,2,0.3l0,0
		c0.7,0,1.3-0.2,2.1-0.4c0.2-0.1,0.4-0.1,0.7-0.1c0.5,0.8,1,2,1.3,3.6C41.4,31,40.7,33.6,38.6,35.6z"/>
	<path id="XMLID_367_" class="st0" d="M24.2,17.5c0-0.4-0.1-0.6-0.2-0.7s-0.4-0.2-0.7-0.2c-0.9,0-1.8,0-2.7,0c-0.9,0-1.8,0-2.7,0
		c-0.3,0-0.6,0.1-0.7,0.2C17.1,17,17,17.2,17,17.5c0,1,0,1.9,0,2.9v2.4c0,1,0,2,0,2.9c0,0.4,0.1,0.6,0.2,0.8
		c0.2,0.1,0.4,0.2,0.7,0.2c0.9,0,1.7,0,2.6,0s1.8,0,2.7,0l0,0c0.3,0,0.5-0.1,0.7-0.2c0.2-0.2,0.2-0.4,0.2-0.8
		C24.2,23.1,24.2,20.4,24.2,17.5z M23.3,25.5c0,0.1-0.3,0.3-0.4,0.3c-0.8,0-1.6,0-2.4,0h-0.8c-0.4,0-0.8,0-1.3,0
		c-0.2,0-0.3-0.1-0.3-0.1C18,25.6,18,25.5,18,25.3c0-0.8,0-2.8,0-2.8c0-1.5,0-3.1,0-4.6c0-0.1,0.2-0.3,0.3-0.4c1,0,2,0,2.9,0h2
		c0.1,0,0.2,0.1,0.2,0.2v1.5C23.3,21.3,23.3,23.4,23.3,25.5z"/>
	<path id="XMLID_370_" class="st0" d="M33.4,28.3L33.4,28.3c-1.4,0-2.4,1-2.4,2.4c0,0.6,0.3,1.2,0.7,1.7c0.4,0.4,1,0.7,1.7,0.7
		c0.7,0,1.3-0.3,1.7-0.7c0.4-0.4,0.7-1,0.7-1.7c0-0.6-0.3-1.2-0.7-1.7C34.7,28.6,34.1,28.3,33.4,28.3z M33.5,32
		c-0.4,0-0.7-0.1-1-0.4c-0.2-0.2-0.4-0.6-0.4-0.9c0-0.4,0.1-0.7,0.4-1c0.2-0.2,0.6-0.4,1-0.4l0,0c0.7,0,1.3,0.6,1.3,1.3
		C34.8,31.5,34.3,32,33.5,32z"/>
	<path id="XMLID_373_" class="st0" d="M21.8,19c-0.3-0.3-0.7-0.4-1.1-0.4s-0.8,0.1-1.1,0.4c-0.7,0.5-1.1,1.7-0.5,2.4
		c0.5,0.6,0.5,1.3,0.5,2c0,0.4,0.1,0.7,0.3,0.9c0.2,0.2,0.5,0.3,0.8,0.3h0.2c0.2,0,0.6,0,0.9-0.3c0.2-0.2,0.3-0.5,0.3-0.8
		c-0.1-0.8,0-1.4,0.4-2C22.8,20.6,22.5,19.5,21.8,19z M20.9,21l-0.1,0.1L20.9,21l-0.1,0.3V23c0,0.2-0.1,0.3-0.3,0.3
		c-0.1,0-0.3-0.1-0.3-0.3v-1.8l0.1-0.1l0-0.1c-0.2-0.1-0.3-0.3-0.3-0.6c0-0.4,0.3-0.7,0.7-0.7c0.4,0,0.7,0.3,0.7,0.7
		C21.3,20.7,21.2,20.9,20.9,21z"/>
	<path id="XMLID_374_" class="st0" d="M29.8,13.8h7.4c0.3,0,0.6-0.3,0.6-0.6s-0.3-0.6-0.6-0.6h-7.4c-0.3,0-0.6,0.3-0.6,0.6
		S29.5,13.8,29.8,13.8z"/>
	<path id="XMLID_375_" class="st0" d="M30.8,8h7.4c0.3,0,0.6-0.3,0.6-0.6s-0.3-0.6-0.6-0.6h-7.4c-0.3,0-0.6,0.3-0.6,0.6
		S30.4,8,30.8,8z"/>
	<path id="XMLID_376_" class="st0" d="M22,31.9h-7.4c-0.3,0-0.6,0.3-0.6,0.6s0.3,0.6,0.6,0.6H22c0.3,0,0.6-0.3,0.6-0.6
		S22.4,31.9,22,31.9z"/>
	<path id="XMLID_377_" class="st0" d="M29.8,16h7.4c0.3,0,0.6-0.3,0.6-0.6s-0.3-0.6-0.6-0.6h-7.4c-0.3,0-0.6,0.3-0.6,0.6
		S29.5,16,29.8,16z"/>
	<path id="XMLID_378_" class="st0" d="M29.8,18.1h7.4c0.3,0,0.6-0.3,0.6-0.6c0-0.3-0.3-0.6-0.6-0.6h-7.4c-0.3,0-0.6,0.3-0.6,0.6
		C29.2,17.9,29.5,18.1,29.8,18.1z"/>
</g>
</svg>
