<?xml version="1.0" encoding="utf-8"?>
<!-- Generator: Adobe Illustrator 19.0.0, SVG Export Plug-In . SVG Version: 6.00 Build 0)  -->
<svg version="1.1" id="Layer_1" xmlns="http://www.w3.org/2000/svg" xmlns:xlink="http://www.w3.org/1999/xlink" x="0px" y="0px"
	 viewBox="0 0 42 42" style="enable-background:new 0 0 42 42;" xml:space="preserve">
<style type="text/css">
	.st0{fill:#FFFFFF;}
</style>
<g id="XMLID_749_">
	<path id="XMLID_882_" class="st0" d="M40.9,23.1c-1.9,0-3.7,0-5.7,0c0-0.3,0-0.6,0-0.9c0-7,0-14,0-21c0-1-0.2-1.2-1.1-1.2
		C24.9,0,15.7,0,6.6,0c-1,0-1.1,0.2-1.1,1.1c0,5.2,0,10.4,0,15.6c0,0.3,0,0.5,0,0.8c-1.6,0-3,0-4.5,0c-0.7,0-0.9,0.2-0.9,0.9
		c0,6.7,0,13.4,0,20C0,40.5,1.5,42,3.4,42c9.5,0,19,0,28.4,0c1.9,0,3.3-1.5,3.4-3.4c0-0.6,0-1.3,0-2c2,0,3.8,0,5.7,0
		c0.8,0,1-0.2,1-1c0-3.8,0-7.6,0-11.4C42,23.2,41.8,23.1,40.9,23.1z M5.4,38.5c0,1-0.5,1.7-1.3,2.1c-1.3,0.5-2.6-0.3-2.8-1.7
		c0-0.1,0-0.3,0-0.4c0-6.3,0-12.6,0-18.9c0-0.2,0-0.3,0-0.5c1.4,0,2.7,0,4.1,0c0,0.2,0,0.3,0,0.5C5.4,25.8,5.4,32.1,5.4,38.5z
		 M33.8,38.9c-0.1,0.9-0.9,1.6-1.8,1.7c-0.2,0-0.4,0-0.5,0c-8.2,0-16.4,0-24.6,0c-0.2,0-0.4,0-0.8,0c0.7-1,0.7-2.1,0.7-3.1
		c0-11.7,0-23.5,0-35.2c0-0.3,0-0.5,0-0.9c9,0,18,0,27,0c0,7.2,0,14.4,0,21.6c-1.2,0.2-1.2,0.2-1.4,1.4c-1,0.2-1.8,0-2.6-0.8
		c-1.1-1-1.7-2-1.4-3.5c0.1-0.5,0-1.1,0-1.6c0-0.5-0.3-0.8-0.8-0.8c-2-0.1-3.3,1-3.3,3c0,1.2,0,2.4,0,3.7c-0.3,0-0.5,0-0.7,0
		c-1.3,0-2.7,0-4,0c-1.2,0-2.1,0.8-2.1,2c0,2.8,0,5.5,0,8.3c0,1.1,0.9,1.9,2,1.9c2.7,0,5.4,0.1,8.1,0c0.7,0,1.4-0.5,2-0.8
		c0.9-0.6,1.8-0.5,2.8-0.4c0.2,1.2,0.2,1.2,1.4,1.4C33.8,37.4,33.9,38.2,33.8,38.9z M19,32.5c0-0.5,0-0.9,0-1.3c1.8,0,3.5,0,5.4,0
		c0-0.5,0-0.9,0-1.3c-1.8,0-3.5,0-5.3,0c0-0.5,0-0.9,0-1.4c1.8,0,3.5,0,5.3,0c0-0.5,0-0.9,0-1.4c-1.8,0-3.5,0-5.3,0
		c-0.2-1.1,0-1.4,1.1-1.4c1.5,0,3.1,0,4.6,0c0.8,0,1-0.2,1-1c0-1.4,0-2.8,0-4.3c0-0.9,0.4-1.3,1.3-1.5c0,1,0,2,0,3
		c0,0.4,0.2,0.8,0.4,1.1c0.6,0.7,1.4,1.4,2,2.1c0.4,0.5,0.9,0.7,1.5,0.6c0.4,0,0.9,0,1.4,0c0,2.7,0,5.4,0,8c0,0-0.1,0.1-0.1,0.1
		c-1.6-0.2-2.9,0.4-4.3,1.1c-0.3,0.2-0.6,0.2-1,0.2c-2.3,0-4.7,0-7,0c-1,0-1.2-0.2-1.1-1.3c1.8,0,3.5,0,5.3,0c0-0.5,0-0.9,0-1.4
		C22.6,32.5,20.8,32.5,19,32.5z M40.6,35.2c-2.2,0-4.4,0-6.7,0c0-3.5,0-7.1,0-10.7c2.2,0,4.4,0,6.7,0C40.6,28,40.6,31.6,40.6,35.2z"
		/>
	<path id="XMLID_980_" class="st0" d="M14.3,14.9c1.5,2.2,3.6,3.6,5.6,5.3c0.4,0.3,0.7,0.2,1.1-0.1c1-0.9,2.1-1.7,3.2-2.7
		c3.2-2.9,4.8-6.5,5-10.4c0-1.4-0.1-1.6-1.2-1.6c-2.6,0-4.9-0.8-7-2.4c-0.5-0.4-0.8-0.4-1.3,0c-2.1,1.6-4.5,2.4-7.1,2.4
		c-0.9,0-1.1,0.2-1,1.1C11.6,9.6,12.6,12.3,14.3,14.9z M16.1,6.3c1.3-0.5,2.6-1.2,3.9-1.7c0.2-0.1,0.5-0.2,0.7-0.1
		c2.1,1.4,4.4,2.2,6.9,2.3c0.1,0,0.1,0,0.2,0.1c-0.3,5.3-3.2,8.9-7.4,11.8c-4.2-2.9-7.1-6.5-7.4-11.8C14,6.7,15.1,6.6,16.1,6.3z"/>
	<path id="XMLID_985_" class="st0" d="M15.2,19.8c-0.4,0.5-0.8,0.6-1.5,0.6c-1.6-0.1-3.1,0-4.7,0c-0.7,0-0.9,0.2-1,0.9
		c0,1.6,0,3.3,0,4.9c0,0.6,0.2,0.9,0.9,0.9c1.7,0,3.3,0,5,0c0.6,0,0.9-0.3,0.9-0.9c0-1.2,0-2.4,0-3.6c0-0.4,0.1-0.8,0.4-1.1
		c0.5-0.4,1-0.9,1.5-1.3c-0.4-0.4-0.7-0.7-1.2-1.1C15.5,19.4,15.4,19.6,15.2,19.8z M13.5,25.7c-1.3,0-2.6,0-4,0c0-1.3,0-2.6,0-4
		c1.2,0,2.3,0,3.6,0c-0.6,0.5-1.1,1.1-1.7,1.6c-0.2-0.2-0.5-0.5-0.8-0.8c-0.3,0.3-0.6,0.6-0.8,0.9c-0.1,0.1-0.1,0.1-0.2,0.2
		c0.5,0.4,1,0.9,1.5,1.3c0.4,0.3,0.7,0.2,1-0.1c0.4-0.5,0.8-0.9,1.3-1.4c0,0,0.1,0.1,0.1,0.1C13.5,24.3,13.5,25,13.5,25.7z"/>
	<path id="XMLID_1028_" class="st0" d="M15.2,27.9c-0.4,0.5-0.8,0.6-1.5,0.6c-1.6-0.1-3.2,0-4.7,0c-0.6,0-0.9,0.3-0.9,0.9
		c0,1.7,0,3.3,0,5c0,0.6,0.3,0.9,0.9,0.9c1.7,0,3.4,0,5.1,0c0.6,0,0.8-0.3,0.8-0.8c0-0.8,0.1-1.5,0-2.3c-0.2-1.4,0.2-2.5,1.4-3.4
		c0.2-0.1,0.3-0.3,0.5-0.5c-0.3-0.3-0.6-0.6-1-1C15.5,27.5,15.4,27.7,15.2,27.9z M13.5,33.9c-1.3,0-2.6,0-4,0c0-1.3,0-2.6,0-4
		c1.2,0,2.4,0,3.5,0c-0.5,0.5-1.1,1-1.6,1.6c-0.2-0.2-0.5-0.4-0.8-0.7c-0.3,0.3-0.6,0.6-0.8,0.9c-0.1,0.1-0.1,0.1-0.2,0.2
		c0.5,0.4,1,0.9,1.5,1.3c0.4,0.3,0.7,0.2,1-0.1c0.4-0.5,0.8-0.9,1.3-1.4c0.1,0,0.1,0.1,0.2,0.1C13.5,32.4,13.5,33.1,13.5,33.9z"/>
	<path id="XMLID_1031_" class="st0" d="M19.9,16.8c0.2,0.1,0.7,0.1,0.8,0c1.4-1.2,3-2.3,4-3.9c0.8-1.2,1.4-2.5,1.6-3.9
		c0-0.5-0.2-0.8-0.8-0.8c-1.8-0.1-3.4-0.7-4.8-1.8c-0.3-0.3-0.7-0.3-1,0c-1.4,1.2-3,1.8-4.9,1.8c-0.6,0-0.8,0.4-0.7,0.9
		c0.1,0.5,0.3,1,0.4,1.5C15.6,13.3,17.8,15.1,19.9,16.8z M17.6,9.1c0.8-0.3,1.6-0.8,2.4-1.1c0.2-0.1,0.5-0.2,0.6-0.1
		c1.3,0.9,2.7,1.4,4.4,1.7c-0.7,2.6-2.5,4.3-4.5,5.9c-2-1.5-3.8-3.2-4.5-5.8C16.4,9.4,17,9.3,17.6,9.1z"/>
</g>
</svg>
