<svg width="42" height="42" viewBox="0 0 42 42" fill="none" xmlns="http://www.w3.org/2000/svg">
<g clip-path="url(#clip0_698_86)">
<g clip-path="url(#clip1_698_86)">
<path d="M41.4 38.7C40.4 37.7 39.4 36.7 38.5 35.8C37.8 35.1 37.1 34.4 36.4 33.7C36.1 33.4 35.8 33.1 35.5 32.8L35.3 32.6L35.4 32.4L35.5 32.2C35.6 32.1 35.6 32 35.7 31.9C37.4 29.2 38 26 37.4 22.9C36.8 19.8 35.1 17.1 32.5 15.2C32 14.8 31.8 14.4 31.8 13.8C31.9 11.4 31.9 9.1 31.9 7C31.9 5.9 31.5 5.5 30.4 5.4H30C28.6 5.2 27 5 25.4 4.7C22 4 19.2 2.6 17 0.5C16.7 0.2 16.4 0 16 0C15.7 0 15.3 0.2 14.9 0.5L14.8 0.6C13.8 1.4 12.7 2.3 11.5 3C8.1 4.9 4.4 5.3 1.5 5.5C0.4 5.5 0 5.9 0 7C0 7.6 0 8.1 0 8.7C0 10.7 0 12.7 0.1 14.7C0.3 18.6 1.1 22.2 2.5 25.5C4.9 31.1 8.8 35 14 37.2C14.8 37.5 15.5 37.7 16.1 37.7C16.8 37.7 17.4 37.6 18 37.2C18.1 37.2 18.1 37.1 18.2 37.1C18.5 36.9 18.8 36.8 19.2 36.7C19.4 36.6 19.6 36.6 19.8 36.6C20 36.6 20.2 36.6 20.3 36.7C22 37.4 23.6 37.7 25.2 37.7C26.3 37.7 27.4 37.5 28.5 37.2C29.4 36.9 30.3 36.5 31.2 36.1C31.6 35.9 32.1 35.7 32.5 35.5L32.7 35.4L32.8 35.5C32.9 35.6 33 35.7 33.1 35.8C33.8 36.5 34.4 37.1 35.1 37.8C36.2 38.9 37.4 40.1 38.5 41.2C38.9 41.6 39.3 41.8 39.7 41.8C40.1 41.8 40.5 41.6 40.9 41.2C41 41.1 41.1 41 41.3 40.8C42.2 40.2 42.2 39.4 41.4 38.7ZM18.2 36.1C17.5 36.6 16.8 36.8 16 36.8C15.4 36.8 14.8 36.7 14.1 36.4C9 34.2 5.4 30.4 3.1 24.9C1.9 21.9 1.2 18.8 1 15.7C1 13.8 0.9 12 0.9 10.2C0.9 9.2 0.9 8.1 0.9 7.1C0.9 6.8 1 6.6 1.1 6.4C1.3 6.2 1.6 6.2 1.8 6.2H1.9C5.8 6.1 9 5.3 11.9 3.7C12.9 3.2 13.8 2.5 14.7 1.9C15.1 1.6 15.5 1.3 16 1L16.2 0.9L16.4 1C16.5 1 16.5 1.1 16.6 1.2C16.8 1.4 17 1.6 17.2 1.7C19.7 3.8 22.6 5.1 26.3 5.7C27.3 5.9 28.4 6 29.4 6C29.7 6 30.1 6.1 30.4 6.1C30.7 6.1 31.3 6.2 31.3 6.9C31.3 8.5 31.3 10.2 31.3 11.9V13.7V14.1L30.8 14L29.4 13.4L29.2 13.3V13.1V12C29.2 11.1 29.2 10.2 29.2 9.4C29.2 8.5 28.9 8.2 28 8.1C23.4 7.5 19.8 6.2 16.8 4C16.6 3.8 16.3 3.7 16.1 3.7C15.9 3.7 15.6 3.8 15.4 4C12.3 6.2 8.7 7.5 4 8.1C3.2 8.2 2.8 8.6 2.8 9.3C2.7 13.4 2.9 17.9 4.3 22.3C6.1 27.7 9 31.4 13.4 33.8C13.9 34.1 14.5 34.3 15 34.5C15.2 34.6 15.3 34.6 15.5 34.7C15.6 34.7 15.7 34.8 15.8 34.8C16 34.7 16.2 34.7 16.4 34.7C17.1 34.7 17.5 35.1 18 35.5L18.1 35.6L18.4 35.9L18.2 36.1ZM28.3 9V9.2V12.7V13H28C27.1 12.9 26.2 12.8 25.3 12.8C20.4 12.8 16.7 15 14.3 19.4C11.8 23.9 12.3 28.6 15.7 33.3L16.3 34.1L15.4 33.7C13.2 32.8 11.3 31.5 9.7 29.8C7.4 27.3 5.7 24.2 4.8 20.3C3.9 16.6 3.8 12.8 3.9 9.5C3.9 9.4 3.9 9.3 3.9 9.3V9.1L4 9C4.4 8.9 4.9 8.8 5.3 8.8C6.1 8.6 7.1 8.4 8 8.2C10.7 7.6 13.2 6.5 15.4 4.9C15.6 4.8 15.8 4.7 16 4.7C16.2 4.7 16.3 4.8 16.5 4.9C19.7 7.1 23.4 8.4 27.8 8.9C27.9 8.9 27.9 8.9 28 8.9C28 8.9 28 8.9 28.1 8.9L28.3 9ZM25.2 36.9C18.8 36.9 13.6 31.6 13.6 25.2C13.6 18.8 18.8 13.6 25.2 13.6C28.3 13.6 31.3 14.8 33.5 17C35.7 19.2 36.9 22.1 36.9 25.2C36.9 31.7 31.6 36.9 25.2 36.9ZM34.7 35.8L34.5 36L34.3 35.7L34.2 35.6L33.7 34.9L33.5 34.7L33.7 34.5L33.9 34.3L34.7 33.6L34.9 33.4L35.1 33.6L35.4 33.9L35.7 34.2L35.9 34.4L35.7 34.6L35 35.4L34.7 35.8ZM40.7 40.5C40.6 40.6 40.5 40.7 40.5 40.7C40.4 40.9 40.2 41.1 39.9 41.1C39.7 41.1 39.5 41 39.3 40.8C38.3 39.8 37.4 38.9 36.4 37.9L35.2 36.7L35 36.5L35.2 36.3L36.4 35.2L36.6 35L36.8 35.2C37.2 35.6 37.6 36 37.9 36.3C38.8 37.2 39.8 38.2 40.8 39.2C41 39.4 41.1 39.6 41.1 39.8C41.1 40.2 40.9 40.4 40.7 40.5Z" fill="white"/>
<path d="M29.5 20.5C29.4 20.5 29.2 20.6 29 20.9C28.6 21.5 28.1 22.1 27.7 22.7C27.5 23 27.3 23.2 27.1 23.5L24.4 27.1L23.2 28.7L23 28.9L22.8 28.6L22.4 28.1C22.1 27.8 21.8 27.5 21.5 27.1C21.3 26.9 21.1 26.8 21 26.8C21 26.8 20.9 26.8 20.7 27C20.5 27.2 20.4 27.3 20.9 27.7C21.2 28 21.5 28.3 21.8 28.6C22.1 28.9 22.4 29.3 22.8 29.6C23 29.8 23.1 29.9 23.2 29.9C23.3 29.9 23.5 29.8 23.6 29.6C25 27.8 26.3 26 27.7 24.1C28.4 23.2 29 22.3 29.7 21.4C29.9 21.2 29.9 21 29.9 20.9C29.9 20.9 29.9 20.8 29.7 20.7C29.7 20.6 29.6 20.5 29.5 20.5Z" fill="white"/>
</g>
</g>
<defs>
<clipPath id="clip0_698_86">
<rect width="42" height="42" fill="white"/>
</clipPath>
<clipPath id="clip1_698_86">
<rect width="42" height="42" fill="white"/>
</clipPath>
</defs>
</svg>
