<?xml version="1.0" encoding="utf-8"?>
<!-- Generator: Adobe Illustrator 19.0.0, SVG Export Plug-In . SVG Version: 6.00 Build 0)  -->
<svg version="1.1" id="Layer_1" xmlns="http://www.w3.org/2000/svg" xmlns:xlink="http://www.w3.org/1999/xlink" x="0px" y="0px"
	 viewBox="0 0 42 42" style="enable-background:new 0 0 42 42;" xml:space="preserve">
<style type="text/css">
	.st0{fill:#1B3ECD;}
</style>
<g id="XMLID_583_">
	<path id="XMLID_612_" class="st0" d="M36.9,23.1c-0.7-0.1-1.3-0.3-2-0.4c-0.2,0-0.4-0.1-0.6-0.1v0c0-0.1,0-0.3,0-0.4l0-3.4
		c0-4.3,0-8.7,0-13c0-1.1-0.4-2-1.1-2.5c-0.9-0.6-1.9-1.2-3-1.7c-3-1.1-6-1.4-8.6-1.5C16.9-0.2,13,0.2,9.4,1.2
		C8,1.6,6.7,2.3,5.5,2.9C4.5,3.5,4,4.5,4,5.6c0,8.6,0,17.1,0,25.7c0,1.1,0.4,1.9,1.1,2.4c0.8,0.6,1.8,1.2,2.8,1.6
		c4.9,1.8,10,1.9,14.4,1.7c0.2,0,0.5,0.1,0.5,0.2c1.4,1.6,3,3,5,4.4c0.2,0.2,0.5,0.3,0.7,0.3c0.2,0,0.5-0.1,0.7-0.3
		c0.3-0.3,0.7-0.5,1-0.8c0.6-0.5,1.3-1,1.8-1.5c4.3-3.8,6.5-8.7,6.3-14.6C38.4,23.4,38.2,23.3,36.9,23.1z M5.6,8.1
		C5.6,8.1,5.6,8.1,5.6,8.1c3.1,1.9,6.6,2.3,9.9,2.6c3.8,0.3,7.6,0.2,11.3-0.5c1.9-0.4,4-0.9,5.8-2.1c0,0,0,0,0,0c0,0.6,0,1.2,0,1.8
		c0,1.3,0,2.6,0,3.9c0,0.9-0.3,1.5-1.1,2c-1.6,1-3.5,1.5-4.9,1.7c-4,0.8-8.1,0.9-12.7,0.4c-2.6-0.3-4.5-0.8-6.2-1.6
		c-0.4-0.2-0.8-0.4-1.1-0.6c-0.7-0.4-1-1-1-1.8c0-1.3,0-2.7,0-4C5.6,9.3,5.6,8.7,5.6,8.1z M32,6.5c-1.1,0.7-2.2,1.2-3.3,1.6
		c-3.3,1-7,1.4-11.5,1.2C14.9,9.1,11.9,8.8,9,7.8C8.1,7.5,7.1,7,6.3,6.5C6,6.3,5.6,5.9,5.6,5.5c0-0.4,0.4-0.9,0.7-1.1
		c1-0.8,2.2-1.3,3.7-1.7c2.7-0.7,5.7-1.1,9.5-1.1c2.5,0,6.3,0.2,9.9,1.5c0.9,0.3,1.8,0.8,2.5,1.3c0.4,0.3,0.7,0.7,0.7,1
		C32.7,5.8,32.4,6.2,32,6.5z M5.6,18.3c0-0.4,0-0.8,0-1.2c3.2,1.9,6.7,2.4,10.5,2.7c3.3,0.3,6.7,0.1,10.4-0.5c2-0.4,4.2-0.9,6.1-2.2
		v4.7c0,0,0,0,0,0c-0.4-0.2-0.7-0.4-1-0.6c-0.8-0.5-1.6-1.1-2.3-1.7c-0.6-0.5-1.1-0.5-1.7,0c-0.2,0.2-0.4,0.3-0.6,0.5
		c-0.3,0.2-0.5,0.4-0.8,0.6c-0.9,0.7-1.9,1.1-3.3,1.2c-2.5,0.2-5.6,0.3-8.6-0.1l-0.1,0c-0.3,0-0.6-0.1-0.9,0.1
		c-0.2,0.1-0.3,0.3-0.3,0.6c0,0.3,0,0.5,0.2,0.6c0.2,0.3,0.6,0.3,0.9,0.3l0.1,0c1.5,0.1,2.9,0.2,4.4,0.2l0.2,0
		c-0.2,0.3-0.2,0.7-0.2,1.5l0,1.2l0,0.3c-3.3-0.1-7.1-0.3-10.6-1.8c-0.3-0.1-0.5-0.2-0.8-0.4l-0.2-0.1c-1-0.5-1.4-1.2-1.3-2.3
		C5.7,20.7,5.7,19.5,5.6,18.3z M5.6,26.5l0-1.2c4.1,2.4,8.6,2.6,13.1,2.8l0.5,2.4l-0.1,0c-0.3,0-0.6,0-0.9,0
		c-1.4-0.1-2.7-0.2-4.1-0.3c-0.3,0-1.1-0.1-1.1,0.7c0,0.3,0,0.5,0.2,0.6c0.2,0.3,0.6,0.3,0.8,0.3l1.8,0.1c1.2,0.1,2.5,0.1,3.7,0.2
		c0.1,0,0.3,0.1,0.3,0.1c0.5,0.9,0.9,1.7,1.3,2.6l0.2,0.5C16.5,35.6,12.5,35.2,9,34c-1-0.3-1.9-0.9-2.8-1.5
		c-0.3-0.2-0.5-0.6-0.5-0.9C5.6,29.9,5.6,28.3,5.6,26.5z M20.2,24.8c0.3-0.1,0.6-0.2,0.9-0.2c0.8-0.2,1.6-0.4,2.3-0.7
		c1.9-0.7,3.6-1.8,4.8-2.8c0.3-0.2,0.3-0.2,0.6,0c2.5,2,5.1,3.2,8,3.6c0.2,5.1-1.5,9.3-5.2,12.8h0c-0.6,0.6-1.3,1.1-1.9,1.6
		c-0.3,0.3-0.7,0.5-1,0.8c-0.2,0.2-0.2,0.1-0.3,0c-3.5-2.5-5.7-5.2-7-8.4c-0.8-1.9-1.2-4.1-1.2-6.7C20.2,24.9,20.2,24.9,20.2,24.8z"
		/>
	<path id="XMLID_661_" class="st0" d="M14,14.7c1.2,0.1,2.5,0.2,3.6,0.2l1.3,0.1c0.5,0,0.9,0,1.4-0.1c0.9,0,1.8-0.1,2.6-0.1
		c2.9-0.2,5.1-0.7,7.2-1.4c0.3-0.1,0.7-0.6,0.7-1c0-0.3-0.2-0.5-0.3-0.5c-0.2-0.1-0.5-0.1-0.9,0L29.1,12c-1,0.3-1.9,0.6-2.9,0.8
		c-4,0.7-8.1,0.8-12.1,0.3c-0.2,0-0.6-0.1-0.9,0.1c-0.2,0.1-0.3,0.3-0.3,0.6c0,0.3,0,0.5,0.2,0.7C13.3,14.6,13.7,14.7,14,14.7z"/>
	<path id="XMLID_662_" class="st0" d="M8.7,14.2C8.7,14.2,8.7,14.2,8.7,14.2c0.3,0,0.6-0.1,0.8-0.3c0.2-0.2,0.3-0.5,0.3-0.8
		c0-0.3-0.1-0.6-0.3-0.8C9.3,12,9,11.9,8.7,11.9c-0.6,0-1.1,0.5-1.1,1.1C7.6,13.7,8.1,14.2,8.7,14.2z"/>
	<path id="XMLID_663_" class="st0" d="M8.7,22.7C8.7,22.7,8.7,22.7,8.7,22.7c0.3,0,0.6-0.1,0.8-0.3c0.2-0.2,0.3-0.5,0.3-0.8
		c0-0.3-0.1-0.6-0.3-0.8c-0.2-0.2-0.5-0.3-0.8-0.3c-0.6,0-1.1,0.5-1.1,1.1C7.6,22.3,8.1,22.7,8.7,22.7z"/>
	<path id="XMLID_664_" class="st0" d="M8.7,31.3C8.7,31.3,8.7,31.3,8.7,31.3c0.3,0,0.6-0.1,0.8-0.3c0.2-0.2,0.3-0.5,0.3-0.8
		c0-0.3-0.1-0.6-0.3-0.8c-0.2-0.2-0.5-0.3-0.8-0.3c-0.6,0-1.1,0.5-1.1,1.1C7.6,30.8,8.1,31.3,8.7,31.3z"/>
	<path id="XMLID_665_" class="st0" d="M25,30.5c0,0.2,0,0.5,0.1,0.7c0.6,0.7,1.2,1.3,1.8,1.8c0.1,0.1,0.4,0.2,0.6,0.2
		c0.2,0,0.4-0.1,0.6-0.2c1.1-1.1,2.4-2.3,3.7-3.7c0.2-0.2,0.2-0.5,0.1-0.7c0-0.1,0-0.1,0-0.2l0-0.3l-0.5,0c-0.2,0-0.4,0-0.6,0
		c-0.2,0-0.3,0.2-0.4,0.3c0,0,0,0.1-0.1,0.1l-2.9,2.9c0-0.1-0.1-0.1-0.1-0.2c-0.3-0.4-0.6-0.8-1-1.1c-0.2-0.2-0.5-0.2-0.7-0.2
		c-0.1,0-0.1,0-0.2,0l-0.4,0l0,0.4C25,30.3,25,30.4,25,30.5z"/>
</g>
</svg>
