<?xml version="1.0" encoding="utf-8"?>
<!-- Generator: Adobe Illustrator 19.0.0, SVG Export Plug-In . SVG Version: 6.00 Build 0)  -->
<svg version="1.1" id="Layer_1" xmlns="http://www.w3.org/2000/svg" xmlns:xlink="http://www.w3.org/1999/xlink" x="0px" y="0px"
	 viewBox="0 0 42 42" style="enable-background:new 0 0 42 42;" xml:space="preserve">
<style type="text/css">
	.st0{fill:#FFFFFF;}
</style>
<g id="XMLID_904_">
	<path id="XMLID_1170_" class="st0" d="M34.1,30.9L34.1,30.9c-0.4,0-0.8,0-1.2,0l-30.5,0c-0.9,0-1-0.2-1-0.8c0-3.4,0-6.7,0-10.1
		l0-1.6c0-4.3,0-8.6,0-12.9c0-0.3,0.1-0.5,0.2-0.6c0.1-0.1,0.3-0.2,0.6-0.2h0c0.2,0,0.5,0,0.8,0c0.4,0,0.8,0,1.3,0
		c0.1,0,0.2,0,0.3,0c0.6,0,0.8-0.2,0.8-0.6c0-0.2,0-0.4-0.2-0.5C5,3.4,4.8,3.3,4.5,3.3c-0.4,0-0.8,0-1.3,0h-1C0.7,3.3,0,4,0,5.6
		C0,13.7,0,21.9,0,30c0,1.5,0.7,2.2,2.2,2.2c0.5,0,1,0,1.5,0H6l0,0.4c0,0.3,0,0.5,0,0.7C6,34.5,6.5,35,7.7,35c0.6,0,1.3,0,1.9,0
		l3.9,0l-2.3,4.6c0,0.1-0.1,0.2-0.1,0.3c-0.1,0.2-0.3,0.5-0.3,0.7c0,0.3,0.1,0.7,0.3,0.8c0.2,0.1,0.5-0.1,0.8-0.2l0,0
		c0.1-0.1,0.2-0.2,0.2-0.3c0,0,0-0.1,0.1-0.1l0.7-1.3c0.6-1.2,1.4-2.6,2.1-4c0.2-0.3,0.3-0.4,0.7-0.4c1.1,0,2.1,0,2.9,0
		c1,0,1.9,0,2.7,0l0,0c0.4,0,0.6,0.1,0.8,0.5c0.6,1.2,1.2,2.4,1.8,3.5c0.3,0.6,0.6,1.3,1,1.9c0.1,0.2,0.3,0.6,0.7,0.6
		c0.1,0,0.2,0,0.3-0.1c0.2-0.1,0.3-0.2,0.4-0.4c0.1-0.2,0-0.4-0.1-0.8c-0.5-0.9-1-1.9-1.4-2.8c-0.3-0.6-0.6-1.2-0.9-1.8L23.2,35h3.4
		c0.8,0,1.6,0,2.4,0c1.2,0,1.7-0.6,1.8-1.7c0-0.2,0-0.5,0-0.7l0-0.3l3.3,0c0.2,0,0.5,0,0.7-0.2c0.1-0.1,0.2-0.3,0.2-0.5
		C34.9,30.9,34.4,30.9,34.1,30.9z M29.3,32.3v1.3c-0.1,0-0.2,0-0.2,0l0,0c-0.2,0-0.4,0-0.5,0c-6.7,0-13.4,0-20.2,0l-0.4,0
		c-0.3,0-0.4,0-0.5-0.1c-0.1-0.1-0.1-0.2-0.1-0.5c0-0.1,0-0.2,0-0.4c0-0.1,0-0.2,0-0.3l0-0.1H29.3z"/>
	<path id="XMLID_1173_" class="st0" d="M41.5,31.2L41.5,31.2c-0.3-0.5-0.6-1.1-1-1.6c-0.7-1.1-1.4-2.4-2.1-3.7
		c-0.2-0.4-0.2-0.6,0.1-0.9c1.1-1.2,1.7-2.7,1.8-4.4c0.2-2.3-0.6-4.5-2.1-6.2c-1.5-1.6-3.7-2.6-5.9-2.6c-0.7,0-1.4,0.1-2.1,0.3
		c-2,0.5-3.8,1.9-4.9,3.8c-1.1,1.9-1.4,4.1-0.8,6.1c1.1,3.7,4.1,5.9,7.9,5.9c0.5,0,1.1,0,1.7-0.1l0.2,0.3c0.1,0.2,0.3,0.4,0.4,0.7
		c0.3,0.5,0.6,1.1,0.9,1.6c0.7,1.1,1.3,2.3,2,3.5c0.5,0.8,1.2,1.2,2.1,1.2c0.1,0,0.1,0,0.2,0c1-0.1,1.7-0.6,2.1-1.6
		C42.1,32.8,42,32.1,41.5,31.2z M37.2,26.4l0.9,1.6c0.8,1.3,1.6,2.8,2.4,4.2c0.1,0.3,0.2,0.5,0.1,0.8c-0.1,0.3-0.3,0.5-0.5,0.6
		c-0.2,0.1-0.3,0.1-0.5,0.1c-0.4,0-0.7-0.2-0.9-0.5c-0.8-1.4-1.6-2.8-2.4-4.1l-0.9-1.6L37.2,26.4z M38.9,19.9c0,3.7-3,6.7-6.7,6.7
		c-3.7,0-6.7-3-6.7-6.7c0-1.8,0.7-3.5,2-4.8c1.3-1.3,2.9-2,4.8-2c1.8,0,3.5,0.7,4.7,2C38.3,16.5,39,18.2,38.9,19.9z"/>
	<path id="XMLID_1177_" class="st0" d="M25.9,11.4c0.1-0.1,0.3-0.3,0.5-0.4c0.1,0,0.2-0.1,0.2-0.1c0.1,0,0.2,0,0.3,0
		c0.9,0,1.6-0.5,1.9-1.3C29,8.7,28.7,7.8,28,7.2c-0.4-0.2-0.8-0.4-1.2-0.4c-0.5,0-0.9,0.2-1.3,0.5c-0.7,0.6-1,1.6-0.6,2.5
		c0.1,0.2,0,0.6-0.1,0.7c-0.4,0.6-0.9,1.2-1.3,1.8l0,0c-0.4,0.6-0.8,1.1-1.2,1.7c-0.2,0.3-0.5,0.6-0.9,0.6c-0.1,0-0.2,0-0.2,0
		c-0.3-0.1-0.6,0-0.7,0.2c-0.2,0.2-0.4,0.3-0.6,0.3c-0.3,0-0.5-0.2-0.8-0.3l-0.1-0.1c-0.2-0.2-0.5-0.3-0.8-0.4
		c-0.3-0.2-0.4-0.4-0.5-0.7c0-1.1-0.9-2-2-2c0,0,0,0-0.1,0c-1.1,0-2,0.8-2.1,1.8c0,0.7-0.3,0.9-0.9,1.2c-0.2,0.1-0.5,0.3-0.8,0.5
		c-0.3,0.2-0.5,0.2-0.9,0c-0.7-0.4-1.5-0.4-2.3,0.2c-0.7,0.5-0.9,1.3-0.8,2.1c0.2,1.1,1.1,1.7,2.3,1.6c1.1-0.1,1.8-0.9,1.9-2.1
		c0-0.4,1.6-1.5,2.1-1.5c0,0,0,0,0.1,0c0,0,0.1,0,0.1,0.1c0,0,0,0,0.1,0c0.8,0.5,1.5,0.5,2.3,0c0,0,0.1,0,0.1,0
		c0.6,0,2.2,0.9,2.3,1.3c0,0,0,0,0,0.1c0,0,0,0,0,0.1c0,1,0.5,1.7,1.3,2c0.3,0.1,0.5,0.1,0.8,0.1c0.6,0,1-0.2,1.4-0.6
		c0.6-0.7,0.8-1.4,0.4-2.4c-0.1-0.2,0-0.5,0.1-0.7C24,14,24.9,12.7,25.9,11.4z M26,9c0-0.2,0.1-0.4,0.2-0.5c0.1-0.1,0.3-0.2,0.5-0.2
		c0,0,0,0,0.1,0c0.5,0.1,0.7,0.3,0.7,0.7c0,0.4-0.2,0.7-0.7,0.7C26.4,9.8,26,9.4,26,9z M21.9,16.9c0,0.4-0.3,0.7-0.7,0.7h0
		c-0.2,0-0.4-0.1-0.5-0.2c-0.1-0.2-0.2-0.4-0.2-0.6c0-0.4,0.3-0.7,0.7-0.7l0.1,0C21.7,16.1,21.9,16.6,21.9,16.9z M14.8,13.6
		c0-0.4,0.2-0.7,0.7-0.7c0.5,0,0.7,0.3,0.7,0.7c0,0.4-0.2,0.7-0.7,0.7h0c-0.2,0-0.4-0.1-0.6-0.2C14.9,14,14.8,13.8,14.8,13.6z
		 M10.6,16.7c0,0.5-0.2,0.8-0.7,0.9h0c-0.2,0-0.4,0-0.5-0.2c-0.1-0.1-0.2-0.3-0.2-0.5c0-0.4,0.3-0.7,0.7-0.7l0,0
		C10.3,16.1,10.6,16.3,10.6,16.7z"/>
	<path id="XMLID_1183_" class="st0" d="M7.1,4.7c0.1,0,0.2,0.1,0.3,0.1c0.1,0,0.1,0,0.2,0c0.1,0,0.1,0,0.2,0l26.5,0
		c0.9,0,0.9,0.1,0.9,0.9l0,0.6c0,1.5,0,3,0,4.4c0,0.3,0,0.6,0.2,0.8c0.1,0.1,0.3,0.2,0.5,0.2c0.2,0,0.4-0.1,0.5-0.2
		c0.2-0.2,0.2-0.5,0.2-0.8c0-1,0-2.1,0-3.1V7c0-0.5,0-1,0-1.5c0-1.5-0.7-2.2-2.2-2.2c-1.7,0-3.4,0-5.1,0h-7.5c0-0.1,0-0.2,0-0.3
		l0-0.1c0-0.3,0-0.5,0-0.8c-0.1-0.9-0.7-1.6-1.6-1.6c-1.3,0-2.6,0-3.8,0c-0.9,0-1.5,0.6-1.5,1.5c0,0.3,0,0.5,0,0.8v0
		c0,0.1,0,0.2,0,0.4h-3.4c-1.3,0-2.6,0-3.9,0c0,0-0.1,0-0.1,0l0,0c-0.2,0-0.3,0-0.4,0.1C6.8,3.6,6.5,3.8,6.5,4.1
		C6.5,4.3,6.8,4.5,7.1,4.7z M17.4,2c0.2,0,0.3,0,0.5,0l0.2,0c0.2,0,0.5,0,0.7,0c0.4,0,0.6,0,0.9,0c0.3,0,0.5,0,0.6,0.2
		c0.1,0.1,0.1,0.3,0.1,0.5c0,0.1,0,0.3,0,0.5c0,0.1,0,0.1,0,0.2h-4.2c-0.1-0.6-0.1-1,0-1.2v0C16.4,2,16.8,2,17.4,2z"/>
	<path id="XMLID_1186_" class="st0" d="M16.6,18.8c-0.8,0-1.5,0-2.2,0c-0.5,0-0.8,0.3-0.8,0.8c0,2.5,0,5.2,0,8.3
		c0,0.3,0.1,0.5,0.2,0.6c0.1,0.1,0.3,0.2,0.6,0.2c0.2,0,0.4,0,0.6,0h1.2c1,0,1.2-0.1,1.2-1.1c0-1,0-1.9,0-2.9l0-2c0-1,0-2,0-3
		C17.4,19.1,17.2,18.8,16.6,18.8z M16,20.2v7.1h-1v-7.1H16z"/>
	<path id="XMLID_1189_" class="st0" d="M11.8,22.8c0-0.3-0.1-0.5-0.2-0.6c-0.1-0.1-0.4-0.2-0.7-0.2l-1.2,0c-0.3,0-0.6,0-0.9,0
		c-0.5,0-0.8,0.3-0.8,0.8c0,1.9,0,3.5,0,5.1c0,0.3,0.1,0.5,0.2,0.6c0.1,0.1,0.4,0.2,0.7,0.2c0.7,0,1.4,0,2.2,0
		c0.3,0,0.5-0.1,0.6-0.2c0.1-0.1,0.2-0.3,0.2-0.6c0-0.6,0-1.2,0-1.8l0-0.7c0-0.2,0-0.4,0-0.6v-0.2C11.8,24,11.8,23.4,11.8,22.8z
		 M10.4,23.4v4h-1v-4H10.4z"/>
	<path id="XMLID_1192_" class="st0" d="M19.4,28.5c0.1,0.1,0.3,0.2,0.6,0.2l0.3,0c0.3,0,0.6,0,0.9,0c0.3,0,0.6,0,0.9,0
		c0,0,0,0,0.1,0c0.3,0,0.5-0.1,0.6-0.2c0.2-0.2,0.2-0.4,0.2-0.7c0-0.6,0-1.1,0-1.7l0-1.5c0-0.6,0-1.2,0-1.7c0-0.7-0.2-0.9-1-1
		c-0.5,0-1,0-1.4,0l-0.6,0c-0.6,0-0.8,0.3-0.8,0.8c0,1.7,0,3.4,0,5.2C19.2,28.2,19.3,28.4,19.4,28.5z M20.6,27.3v-4h1.1v4H20.6z"/>
	<path id="XMLID_1193_" class="st0" d="M26.2,26.3c0-0.3-0.1-0.5-0.2-0.6c-0.1-0.1-0.3-0.2-0.5-0.1c-0.3,0-0.6,0.4-0.6,0.7
		c-0.1,0.5-0.1,0.9,0,1.4c0,0.1,0,0.2,0,0.3c0,0.5,0.3,0.7,0.7,0.7c0.4,0,0.8,0,1.2,0c0.4,0,0.8,0,1.1,0c0.3,0,0.4-0.1,0.6-0.2
		c0.1-0.1,0.2-0.3,0.2-0.5c0-0.3-0.1-0.6-0.7-0.6h-1.7v-0.5C26.2,26.7,26.2,26.5,26.2,26.3z"/>
	<path id="XMLID_1194_" class="st0" d="M36.3,17.4c-0.1,0.3,0,0.6,0.1,0.8c0,0.1,0,0.1,0.1,0.2c0.5,1.4,0.3,2.9-0.6,4.1
		c-1,1.4-2.6,2.1-4.3,1.8c-2-0.3-3.5-1.8-3.8-3.8c-0.3-1.9,0.7-3.8,2.4-4.7c1.6-0.8,3.1-0.7,4.6,0.3c0.5,0.3,0.9,0.3,1.1-0.1
		c0.1-0.2,0.2-0.4,0.1-0.6c-0.1-0.2-0.2-0.4-0.5-0.5c-0.1-0.1-0.3-0.1-0.4-0.2l-0.1,0c-0.5-0.3-1.1-0.5-1.7-0.7
		c-0.4-0.1-0.9-0.1-1.3-0.1c-1.8,0-3.3,0.8-4.5,2.3c-1.4,1.9-1.7,4-0.6,6.2c1,2,2.7,3.2,4.8,3.3c2.2,0,4.1-0.9,5.3-2.6
		c1.1-1.5,1.4-3.4,0.7-5.2l0-0.1c-0.1-0.4-0.3-0.8-0.7-0.8c-0.1,0-0.2,0-0.3,0C36.5,17.2,36.4,17.3,36.3,17.4z"/>
</g>
</svg>
