<svg width="42" height="42" viewBox="0 0 42 42" fill="none" xmlns="http://www.w3.org/2000/svg">
<g clip-path="url(#clip0_698_110)">
<path d="M26.9 39.1H26.4C21.7 39.1 3.1 39.1 3.1 39.1C3 39.1 2.8 39.1 2.7 39.1C2 39.1 1.7 38.7 1.6 38.1C1.5 37.4 1.4 36.6 1.4 35.9C1.3 35.4 1.3 34.9 1.2 34.4C1.1 33.9 1.2 33.5 1.4 33.3C1.6 33.1 1.9 33 2.5 33H23.2C23.3 33 23.6 33 23.6 33C23.7 33 23.8 33 23.9 33C24.2 32.9 24.4 32.6 24.4 32.5C24.4 32.3 24 32 23.9 31.9C23.9 31.9 23.9 31.9 23.8 31.9C23.7 31.9 23.7 31.9 23.6 31.9C23.5 31.9 23.5 31.9 23.4 31.9H3.1C2 31.9 1.8 31.7 1.6 30.6C1.4 29.4 1.3 28.2 1.2 27C1.2 26.6 1.2 26.3 1.4 26.1C1.6 25.9 1.9 25.8 2.3 25.8H24.7C25 25.8 25.3 25.8 25.4 25.6C25.5 25.5 25.5 25.4 25.5 25.2C25.5 24.7 25.2 24.6 24.6 24.6H24.1C23.5 24.6 22.9 24.6 22.3 24.6C21.7 24.6 21.1 24.6 20.6 24.6L3 24.5C2 24.5 1.8 24.3 1.6 23.3C1.5 22.2 1.3 21.1 1.2 19.9C1.1 19.3 1.1 18.9 1.4 18.7C1.6 18.4 2 18.4 2.6 18.4H34.7C35.4 18.4 35.7 18.5 35.9 18.7C36.1 18.9 36.2 19.3 36.1 20C36 21.1 35.8 22.1 35.7 23.2C35.7 23.4 35.7 23.6 35.8 23.7C35.9 23.8 36 23.9 36.3 23.9C36.4 23.9 36.8 23.9 36.8 23.3C36.8 22.9 36.9 22.5 36.9 22.1C37 21.2 37.1 20.3 37.2 19.4C37.2 19 37.1 18.5 36.9 18.2C36.1 16.9 35.3 13.8 34.5 10.9C33.9 8 33.1 5 32.3 3.7C31.6 2.5 30.7 2 29.3 2C26.9 2 24.4 2 22 2H13.2H7.7C6.6 2 5.7 2.5 5.2 3.4C4.4 4.7 3.6 7.7 2.9 10.6C2.1 13.6 1.3 16.6 0.5 18C0.1 18.6 0 19.2 0 19.9C0 20.2 0.1 20.5 0.1 20.8C0.2 21.4 0.3 22 0.3 22.6C0.3 22.9 0.4 23.2 0.4 23.6C0.6 24.5 0.8 25.4 0 26.2C0 26.2 0 26.5 0 26.8C0 27.2 0.1 27.6 0.1 27.9C0.2 28.5 0.2 29 0.3 29.6C0.3 29.9 0.4 30.3 0.5 30.6C0.7 31.5 0.9 32.4 0.1 33.3C0 33.5 0 34 0 34.4V34.6C0.1 35.5 0.2 36.5 0.3 37.4L0.4 38.1C0.6 39.6 1.3 40.3 2.9 40.3C2.9 40.3 20.8 40.3 26.4 40.3H26.8C27.1 40.3 27.2 40.3 27.3 40.2C27.4 40.1 27.4 40 27.4 39.8C27.5 39.2 27.3 39.1 26.9 39.1ZM2.4 17C2.7 16.4 3.5 13.2 4.1 11C4.4 10 4.6 9.1 4.6 8.8C4.8 8.1 5 7.5 5.1 6.9C5.4 5.8 5.6 4.9 6.1 4.1C6.5 3.5 7 3.2 7.7 3.2H15.7C20.3 3.2 25 3.2 29.6 3.2C30.1 3.2 30.8 3.5 31 3.9C31.8 5.2 32.6 8.5 33.4 11.8C33.9 13.7 34.3 15.5 34.7 16.7L34.8 17.1H2.3L2.4 17Z" fill="white"/>
<path d="M37.7 25.8C36.3 24.9 34.9 24.4 33.4 24.4C32.1 24.4 30.7 24.8 29.4 25.5C29.1 25.7 28.8 25.9 28.5 26.1L27.8 26.5V26.3C27.8 26.2 27.8 26.1 27.8 26C27.8 25.9 27.8 25.7 27.8 25.7C27.5 25.4 27.3 25.2 27.1 25.2C27 25.2 26.7 25.5 26.7 25.7C26.7 26.5 26.8 27.3 26.9 28.1V28.3C26.9 28.6 27.1 28.8 27.5 28.8H27.6C28.2 28.8 28.8 28.7 29.5 28.6H29.7C30.2 28.6 30.5 28.5 30.5 28C30.5 27.5 30.2 27.5 29.6 27.5H29.1L29.4 27.1C29.5 27 29.5 27 29.6 26.9C30.7 26.1 32.1 25.6 33.5 25.6C34.7 25.6 35.9 25.9 37 26.5C39.3 27.8 40.6 30.5 40.2 33.1C39.7 36.5 36.9 39 33.7 39C33.5 39 33.3 39 33.1 39C29.3 38.6 26.6 35.6 26.9 31.8C26.9 31.5 27 31.2 27 31C27 30.9 27 30.7 27.1 30.6C27.1 30.4 27.1 30.2 27 30.1C26.9 30 26.8 30 26.7 30C26.5 30 26.3 30.2 26.1 30.4L26 30.5C26 30.5 25.9 30.7 25.9 30.8V30.9C25.5 33 25.9 35.1 27.1 36.9C28.4 38.7 30.3 39.9 32.6 40.3C33 40.4 33.3 40.4 33.7 40.4C37.5 40.4 41 37.3 41.4 33.5C41.6 30.2 40.4 27.6 37.7 25.8Z" fill="white"/>
<path d="M4.19995 21.1C3.89995 21.1 3.69995 21.3 3.69995 21.6C3.69995 21.9 3.89995 22.1 4.19995 22.1H5.99995C6.29995 22.1 6.49995 21.9 6.49995 21.6C6.49995 21.3 6.19995 21.1 5.99995 21.1H4.19995Z" fill="white"/>
<path d="M8.90002 21.1C8.60002 21.1 8.40002 21.3 8.40002 21.6C8.40002 21.9 8.60002 22.1 8.90002 22.1H10.7C11 22.1 11.2 21.9 11.2 21.6C11.2 21.3 11 21.1 10.7 21.1H8.90002Z" fill="white"/>
<path d="M13.6 21.1C13.3 21.1 13.1 21.3 13.1 21.6C13.1 21.9 13.3 22.1 13.6 22.1H15.4C15.7 22.1 15.9 21.9 15.9 21.6C15.9 21.3 15.7 21.1 15.4 21.1H13.6Z" fill="white"/>
<path d="M29.1 21.1C28.8 21.1 28.6 21.3 28.6 21.6C28.6 21.9 28.8 22.1 29.1 22.1H29.9C30.2 22.1 30.4 21.9 30.4 21.6C30.4 21.3 30.2 21.1 29.9 21.1H29.1Z" fill="white"/>
<path d="M4.19995 28.3C3.89995 28.3 3.69995 28.5 3.69995 28.8C3.69995 29.1 3.89995 29.3 4.19995 29.3H5.99995C6.29995 29.3 6.49995 29.1 6.49995 28.8C6.49995 28.5 6.19995 28.3 5.99995 28.3H4.19995Z" fill="white"/>
<path d="M8.90002 28.3C8.60002 28.3 8.40002 28.5 8.40002 28.8C8.40002 29.1 8.60002 29.3 8.90002 29.3H10.7C11 29.3 11.2 29.1 11.2 28.8C11.2 28.5 11 28.3 10.7 28.3H8.90002Z" fill="white"/>
<path d="M13.6 28.3C13.3 28.3 13.1 28.5 13.1 28.8C13.1 29.1 13.3 29.3 13.6 29.3H15.4C15.7 29.3 15.9 29.1 15.9 28.8C15.9 28.5 15.7 28.3 15.4 28.3H13.6Z" fill="white"/>
<path d="M4.19995 35.5C3.89995 35.5 3.69995 35.7 3.69995 36C3.69995 36.3 3.89995 36.5 4.19995 36.5H5.99995C6.29995 36.5 6.49995 36.3 6.49995 36C6.49995 35.7 6.19995 35.5 5.99995 35.5H4.19995Z" fill="white"/>
<path d="M8.90002 35.5C8.60002 35.5 8.40002 35.7 8.40002 36C8.40002 36.3 8.60002 36.5 8.90002 36.5H10.7C11 36.5 11.2 36.3 11.2 36C11.2 35.7 11 35.5 10.7 35.5H8.90002Z" fill="white"/>
<path d="M13.6 35.5C13.3 35.5 13.1 35.7 13.1 36C13.1 36.3 13.3 36.5 13.6 36.5H15.4C15.7 36.5 15.9 36.3 15.9 36C15.9 35.7 15.7 35.5 15.4 35.5H13.6Z" fill="white"/>
</g>
<defs>
<clipPath id="clip0_698_110">
<rect width="41.3" height="38.3" fill="white" transform="translate(0 2)"/>
</clipPath>
</defs>
</svg>
