<?xml version="1.0" encoding="utf-8"?>
<!-- Generator: Adobe Illustrator 19.0.0, SVG Export Plug-In . SVG Version: 6.00 Build 0)  -->
<svg version="1.1" id="Layer_1" xmlns="http://www.w3.org/2000/svg" xmlns:xlink="http://www.w3.org/1999/xlink" x="0px" y="0px"
	 viewBox="0 0 42 42" style="enable-background:new 0 0 42 42;" xml:space="preserve">
<style type="text/css">
	.st0{fill:#FFFFFF;}
</style>
<g id="XMLID_751_">
	<path id="XMLID_914_" class="st0" d="M5.6,25.7L5.6,25.7c-0.2-0.1-0.5-0.1-0.7,0c-0.1,0-0.2,0-0.2,0c0,0,0,0,0,0
		c-1.8,0-1.9-0.2-1.9-1.9l0-1.1c0-2.5,0-5.1,0-7.6c0-1.6,0-3.3,0-5l0-2.1h23.4c0,0,0,0,0,0.1c0,0.2,0,0.3,0.1,0.5
		c0,0.1,0,0.1,0.1,0.2c0.2,0.4,0.3,0.8,0.6,0.8c0.2,0,0.4,0,0.5-0.1c0.2-0.2,0.2-0.5,0.2-0.8l0-0.1l0-1.1c0-1,0-2,0-3.1
		c0-1.2-0.7-1.8-1.8-1.8c-0.6,0-1.2,0-1.8,0c-0.2,0-0.4,0-0.7,0c0-0.1,0-0.3,0-0.4c0-0.4,0-0.8,0-1.1c0-0.2-0.2-0.4-0.4-0.6
		c-0.1-0.1-0.1-0.1-0.2-0.2L22.5,0l-0.1,0.2c-0.1,0.1-0.1,0.1-0.2,0.2c-0.2,0.2-0.3,0.3-0.4,0.6c-0.1,0.4,0,0.8,0,1.2
		c0,0.1,0,0.2,0,0.3H7.1c0-0.1,0-0.2,0-0.3c0-0.4,0-0.7,0-1.1c0-0.2-0.2-0.4-0.4-0.6C6.6,0.3,6.5,0.3,6.5,0.2L6.4,0L6.2,0.2
		c0,0.1-0.1,0.1-0.2,0.2C5.9,0.6,5.7,0.7,5.7,1c-0.1,0.4,0,0.8,0,1.2c0,0.1,0,0.2,0,0.3c-0.3,0-0.5,0-0.7,0c-0.6,0-1.2,0-1.8,0
		c-1.1,0-1.8,0.7-1.8,1.8c0,6.6,0,13.2,0,19.7l0,0.8c0,1.1,0.5,1.9,1.4,2.1C3.4,27,4.1,27,4.7,27c0.1,0,0.2,0,0.3,0
		c0.2,0,0.4,0,0.6,0c0,0,0,0,0,0c0.1,0,0.2-0.1,0.3-0.2c0.1-0.1,0.2-0.3,0.2-0.5C6.1,26.1,5.8,25.8,5.6,25.7z M5.6,4.7L5.6,4.7
		c0,0.4,0,0.7,0.3,1C6,5.8,6.2,5.9,6.4,5.8c0.2,0,0.5-0.4,0.7-1c0.1-0.2,0.1-0.5,0-0.7c0-0.1,0-0.1,0-0.2h14.6l0,0.1
		c0,0.2,0,0.3,0,0.5c0,0.1,0,0.2,0,0.3c0,0.3,0,0.6,0.2,0.8c0.1,0.1,0.3,0.2,0.6,0.2c0.2,0,0.4-0.1,0.5-0.2c0.2-0.2,0.2-0.5,0.2-0.8
		c0-0.1,0-0.2,0-0.3c0-0.2,0-0.3,0-0.5c0,0,0-0.1,0-0.1c0.2,0,0.4,0,0.6,0c0.6,0,1.3,0,1.9,0c0.1,0,0.4,0.3,0.4,0.4
		c0.1,1,0.2,1.6,0,1.9c-0.2,0.3-0.8,0.3-1.8,0.3c0,0,0,0,0,0c-5,0-10,0-14.9,0l-6.6,0c0-0.2,0-0.4,0-0.5c0-0.5,0-1.1,0-1.6
		c0-0.2,0.3-0.5,0.4-0.5c0.6-0.1,1.2,0,1.8,0c0.2,0,0.4,0,0.6,0c0,0.1,0,0.1,0,0.2C5.6,4.3,5.6,4.5,5.6,4.7z"/>
	<path id="XMLID_917_" class="st0" d="M18.6,34.3c1.8-2.1,2-5.2,0.4-7.7c-1.6-2.4-4.6-3.6-7.3-2.8c-2.3,0.7-4.1,2.4-4.7,4.6
		c-0.6,2.2-0.1,4.6,1.5,6.4c0.9,1,1.4,2.2,1.3,3.5c0,0.5,0,1.1,0,1.7c0,1.2,0.6,1.8,1.8,1.8c0.2,0,0.4,0,0.6,0c0.2,0,0.4,0,0.6,0
		c0.2,0,0.3,0,0.5,0c0.4,0,0.8,0,1.2,0c0.2,0,0.4,0,0.7,0c1.2,0,1.7-0.6,1.7-1.8c0-0.1,0-0.1,0-0.2c0-0.2,0-0.4,0-0.6
		C16.8,37.3,17.3,35.8,18.6,34.3z M17.4,33.6c-1,1.1-1.6,2.3-1.8,3.6h-4.3c-0.2-1.6-1.2-2.8-2.1-3.9c-1.3-1.6-1.4-4-0.3-5.8
		c1-1.7,3.3-2.8,5-2.5c2.4,0.4,4.2,1.9,4.6,4.1C18.9,30.9,18.5,32.4,17.4,33.6z M15.4,38.8v1.5c-0.2,0-0.5,0-0.7,0
		c-1.1,0-2.1,0-3.2,0c-0.1,0-0.2-0.2-0.2-0.3c0-0.3,0-0.6,0-0.9c0-0.1,0-0.2,0-0.3H15.4z"/>
	<path id="XMLID_921_" class="st0" d="M41.1,22.5c-0.1-0.1-0.2-0.3-0.3-0.4c-0.2-0.3-0.4-0.6-0.6-0.9h0c-0.2-0.2-0.5-0.4-0.7-0.6
		c-0.1-0.1-0.2-0.1-0.3-0.2c-1.2-0.9-2.2-0.7-3.1,0.5c-0.8,1.1-1.5,2.1-2.3,3.2c-1.7,2.4-3.5,4.9-5.3,7.4c-0.2,0.3-0.5,0.7-0.6,1.1
		c-0.3,1.2-0.4,2.5-0.6,3.5c-0.1,0.4,0.1,0.8,0.4,1c0.2,0.1,0.4,0.2,0.6,0.2c0.2,0,0.4,0,0.5-0.1c1-0.5,2-1,2.9-1.6
		c0.4-0.2,0.8-0.6,1-0.9c2.4-3.3,4.9-6.8,7.8-10.8c0.2-0.2,0.3-0.5,0.4-0.8c0.1-0.1,0.1-0.3,0.2-0.5L41.1,22.5L41.1,22.5z
		 M38.5,21.6L38.5,21.6c0.7,0.5,1,0.7,1.1,1c0,0.2-0.2,0.6-0.7,1.2l0,0c-0.6,0.8-1.2,1.7-1.8,2.5c-1.6,2.2-3.3,4.5-4.8,6.9
		c-0.7,1.1-1.7,1.6-2.8,2.2c-0.2,0.1-0.3,0.2-0.5,0.3c0-1.7,0.6-3.2,1.8-4.8c1.9-2.5,3.7-5.1,5.5-7.7c0.3-0.4,0.6-0.9,0.9-1.3
		c0.2-0.3,0.4-0.5,0.6-0.5c0,0,0.1,0,0.1,0C38,21.3,38.2,21.4,38.5,21.6z"/>
	<path id="XMLID_922_" class="st0" d="M23,11c-2.9,0-5.7,0-8.5,0.1c-1.1,0-1.8,0.7-1.8,1.7c0,2.1,0,4.2,0,6.3l0,2c0,0,0,0.1,0,0.1
		c0,0.1,0,0.3,0.1,0.4c0.3,0.6,0.5,0.5,0.6,0.5c0.3,0,0.5-0.3,0.7-0.5c0.1-0.2,0.1-0.4,0.1-0.6c0-0.1,0-0.1,0-0.2l0-1.7
		c0-1.9,0-3.9,0-5.9c0-0.3,0.1-0.5,0.2-0.7c0.1-0.1,0.3-0.2,0.7-0.2c2.1,0,4.2,0,6.2,0c0.7,0,1.4,0,2.2,0v0h0.2c0.8,0,1.6,0,2.4,0
		c2,0,4.2,0,6.2,0c0.4,0,0.6,0.1,0.7,0.2c0.1,0.1,0.2,0.3,0.2,0.7c0,1.9,0,3.9,0,5.7c0,0.6,0,1.1,0,1.7c0,0,0,0.1,0,0.1
		c0,0.3,0,0.5,0.1,0.8c0.1,0.2,0.4,0.5,0.6,0.5c0,0,0,0,0,0c0.2,0,0.5-0.3,0.6-0.5c0.1-0.2,0.1-0.4,0.1-0.7c0-0.1,0-0.1,0-0.2
		c0-2.5,0-5,0-7.5c0-1.7-0.7-2.4-2.4-2.4l-1.8,0C27.9,11,25.4,11,23,11z"/>
	<path id="XMLID_923_" class="st0" d="M34,36c-0.1-0.1-0.1-0.2-0.2-0.3l-0.1-0.3l-0.2,0.2c-0.1,0.1-0.1,0.2-0.2,0.3
		c-0.2,0.2-0.4,0.5-0.4,0.7c-0.1,0.6,0,1.3,0,1.9c0,0.3,0,0.5,0,0.8c0,1,0,1-1,1c-1.6,0-3.1,0-4.7,0c-2.5,0-5,0-7.4,0h-0.1
		c-0.3,0-0.6,0-0.8,0.1c-0.2,0.1-0.4,0.4-0.4,0.6c0,0.2,0.2,0.5,0.4,0.6c0.2,0.1,0.5,0.1,0.8,0.1l0,0c1.7,0,3.4,0,5,0l1.2,0
		c0.6,0,1.3,0,1.9,0c0.6,0,1.2,0,1.8,0c0.8,0,1.7,0,2.5,0c1.5,0,2.2-0.7,2.2-2.2c0-0.2,0-0.4,0-0.7c0-0.7,0-1.5,0-2.2
		C34.3,36.4,34.2,36.2,34,36z"/>
	<path id="XMLID_924_" class="st0" d="M30.6,19.7c-0.1-0.1-0.2-0.1-0.3-0.2c-0.2-0.2-0.5-0.4-0.7-0.4c-1.5,0-3.1,0-4.6,0
		c-0.5,0-1,0-1.5,0c-0.5,0-1,0-1.5,0c-1.5,0-3,0-4.5,0c-0.3,0-0.5,0.2-0.8,0.3c-0.1,0.1-0.2,0.1-0.3,0.2l-0.3,0.1l0.3,0.2
		c0.1,0.1,0.2,0.1,0.3,0.2c0.2,0.2,0.5,0.4,0.7,0.4c2,0,4,0,6.1,0c2,0,4,0,6.1,0c0.3,0,0.5-0.2,0.7-0.3c0.1-0.1,0.2-0.1,0.3-0.2
		l0.3-0.1L30.6,19.7z"/>
	<path id="XMLID_925_" class="st0" d="M30.2,26.5c0.1-0.1,0.2-0.1,0.3-0.2l0.3-0.1l-0.3-0.2c-0.1-0.1-0.2-0.1-0.3-0.2
		c-0.2-0.2-0.5-0.3-0.7-0.4c-1,0-1.9,0-2.9,0c-0.3,0-0.7,0-1,0c-0.4,0-0.7,0-1.1,0c-1,0-2,0-3,0c-0.2,0-0.4,0.2-0.6,0.4
		c-0.1,0.1-0.1,0.1-0.2,0.2l-0.2,0.1l0.2,0.1c0.1,0,0.1,0.1,0.2,0.2c0.2,0.2,0.4,0.3,0.6,0.3c1.5,0,2.9,0,4.3,0c1.3,0,2.6,0,3.8,0
		C29.8,26.9,30,26.7,30.2,26.5z"/>
	<path id="XMLID_926_" class="st0" d="M25.5,31.9c-0.4-0.1-0.8,0-1.2,0c-0.2,0-0.3,0-0.5,0c-0.2,0-0.3,0-0.5,0c-0.4,0-0.8,0-1.1,0
		c-0.2,0-0.4,0.2-0.6,0.4c-0.1,0.1-0.1,0.1-0.2,0.2l-0.2,0.1l0.2,0.1c0.1,0,0.1,0.1,0.2,0.2c0.2,0.2,0.4,0.3,0.6,0.3
		c0.6,0,1.1,0,1.7,0c0.6,0,1.1,0,1.7,0c0.2,0,0.4-0.2,0.6-0.4c0.1-0.1,0.1-0.1,0.2-0.2l0.2-0.1l-0.2-0.1c-0.1,0-0.1-0.1-0.2-0.2
		C25.9,32.1,25.7,32,25.5,31.9z"/>
	<path id="XMLID_927_" class="st0" d="M9,14.3c-0.1-0.2-0.3-0.3-0.5-0.3c-0.3-0.1-0.6,0-0.9,0c-0.1,0-0.2,0-0.3,0
		c-0.1,0-0.3,0-0.4,0c-0.3,0-0.7,0-1,0c-0.2,0-0.4,0.2-0.5,0.4c-0.1,0.1-0.1,0.1-0.2,0.2L5,14.6l0.1,0.1c0,0,0.1,0.1,0.1,0.2
		c0.1,0.2,0.3,0.3,0.5,0.3c0.5,0,1,0,1.4,0c0.4,0,0.8,0,1.3,0c0.2,0,0.4-0.2,0.5-0.4c0.1-0.1,0.1-0.1,0.2-0.2l0.1-0.1l-0.1-0.1
		C9.1,14.4,9,14.3,9,14.3z"/>
	<path id="XMLID_928_" class="st0" d="M7.2,21.8c0.1,0,0.2,0,0.4,0c0.3,0,0.6,0,0.9,0c0.2,0,0.3-0.2,0.5-0.3
		c0.1-0.1,0.1-0.1,0.2-0.1l0.1-0.1l-0.1-0.1c0-0.1-0.1-0.1-0.2-0.2c-0.1-0.2-0.3-0.4-0.5-0.4c-0.8-0.1-1.7-0.1-2.7,0
		c-0.2,0-0.3,0.2-0.5,0.3c-0.1,0.1-0.1,0.1-0.2,0.2L5,21l0.1,0.1c0,0.1,0.1,0.1,0.1,0.2c0.1,0.2,0.3,0.4,0.5,0.4c0.2,0,0.4,0,0.6,0
		c0.1,0,0.3,0,0.4,0C6.9,21.8,7.1,21.8,7.2,21.8z"/>
</g>
</svg>
