<svg width="42" height="42" viewBox="0 0 42 42" fill="none" xmlns="http://www.w3.org/2000/svg">
<g clip-path="url(#clip0_784_226)">
<path d="M5.5 29.1C7.3 27 9.2 25.1 10.7 23C11.5 21.9 11.8 20.5 12.1 19.2C12.6 17.1 13.5 15.5 15.4 14.5C16.3 14 16.9 13.4 17.2 12.3C17.3 12.1 17.4 11.8 17.5 11.6C18.2 9.1 19.6 7.2 21.9 6C22.5 5.7 22.9 5.1 23.3 4.5C23.8 3.7 24.2 2.9 24.7 2C24.9 1.6 25.2 1.4 25.7 1.5C33 3.1 38.9 9.3 40.2 16.7C42 26.6 36.4 35.7 26.8 38.7C26.3 38.9 26.2 39.1 26.1 39.5C25.7 41 24.3 41.9 22.8 41.6C21.5 41.3 20.5 39.9 20.7 38.5C20.9 37 22.3 35.9 23.8 36.2C24.5 36.3 25 36.9 25.6 37.2C25.8 37.3 26.1 37.5 26.3 37.4C33.2 35.2 37.4 30.6 38.9 23.5C39.9 18.7 38.8 14.2 36.1 10.1C35.9 9.8 35.7 9.5 35.5 9.3C35.5 9.2 35.4 9.2 35.3 9.1C34.4 10.1 34.3 11.3 34.3 12.5C36.3 13.4 36.6 14.8 35.4 16.5C36 17.5 36 18.5 35.2 19.4C35.1 19.5 35.1 19.7 35.2 19.9C35.7 20.9 35.5 21.8 34.7 22.6C35.4 24.6 34.9 25.8 33.4 26.2C33 27.5 32.7 28.7 32.2 29.9C31.5 31.6 30.3 31.9 28.8 30.8C27.9 31.6 27 31.7 26 30.9C24.7 32.3 23.8 32.5 22.3 31.4C21.3 32.3 20.3 32.5 19.2 31.7C19.1 31.6 18.8 31.7 18.7 31.8C18.2 32.2 17.6 32.6 17.2 33.2C16.2 34.5 15.4 36 14.5 37.4C14 38 13.7 38.1 13 37.8C7.2 34.9 3.5 30.3 2.4 24C0.8 15.5 4.6 7.7 12.2 3.4C12.6 3.2 12.7 3 12.8 2.6C12.8 1.4 13.9 0.299999 15 0.0999993C16.4 -0.100001 17.6 0.499999 18.1 1.8C18.4 2.9 18 4.2 17 5C16 5.7 14.5 5.7 13.6 4.8C13.1 4.3 12.8 4.4 12.3 4.7C5.8 8.7 2.7 14.5 3.3 22.2C3.5 24.6 4.3 26.9 5.5 29.1ZM18.7 12.1C19.3 11.9 19.8 11.7 20.4 11.7C21.6 11.6 22.8 11.7 24.1 11.7C24.5 11.7 24.9 11.8 25.3 12C26.2 12.5 26.6 13.4 26.4 14.6C26.2 15.5 25.4 16.3 24.4 16.3C23.6 16.4 22.8 16.3 21.9 16.3C21.7 21.3 22.1 26.2 19.9 30.8C20.7 31.2 21 31.1 21.4 30.4C22.5 28.3 23.5 26.2 23.2 23.8C23.2 23.7 23.2 23.5 23.2 23.4C23.4 23.2 23.6 22.9 23.8 22.7C24 22.9 24.4 23.2 24.4 23.4C24.4 25.4 24.6 27.5 23.3 29.2C23.2 29.3 23.2 29.4 23.2 29.5C23.1 30 23 30.5 23.6 30.7C24.2 31 24.5 30.6 24.8 30.1C25.8 28.3 26.6 26.5 26.5 24.3C26.5 24 26.6 23.7 26.6 23.4C26.6 22.9 26.7 22.5 27.3 22.5C27.9 22.5 27.9 23 27.9 23.5C27.8 25.4 28 27.3 26.9 29C26.8 29.2 27 29.6 27.1 29.9C27.4 29.8 27.8 29.7 28 29.4C29 27.9 29.3 26.1 29.3 24.3C29.3 23.4 29.4 22.6 30.1 22C29.4 20.9 29.6 19.8 30.4 18.9C29.8 17.6 29.8 17.2 30.5 16C30.6 15.8 30.6 15.5 30.5 15.4C29.9 13.8 30.8 12.3 32.5 12.2C32.7 12.2 32.8 12.2 33.1 12.2C33.1 10.6 33.4 9.1 34.6 8C32.2 5.4 29.3 3.6 25.8 2.7C25.5 3.2 25.2 3.6 25 4C24.3 5.5 23.3 6.7 21.9 7.4C19.9 8.6 19.3 10.3 18.7 12.1ZM13.4 36.6C14.3 35.2 15.1 34 15.9 32.7C16.4 31.9 17.1 31.3 17.9 30.8C18.3 30.5 18.8 30.1 19 29.7C19.5 28.4 20 27.1 20.2 25.8C20.5 22.6 20.5 19.3 20.6 16.1C20.6 15.5 20.8 15.2 21.5 15.2C22.3 15.2 23.2 15.2 24 15.2C24.9 15.2 25.2 14.9 25.2 14.2C25.2 13.5 24.8 13.2 24 13.1C21.4 12.8 19 13.3 17 15.2C16.8 15.4 16.6 15.5 16.4 15.6C14.7 16.5 13.7 17.9 13.4 19.8C13 22.3 11.8 24.4 10 26.2C8.7 27.5 7.5 29 6.3 30.4C8 33 10.4 35.1 13.4 36.6ZM16.9 2.8C16.9 2 16.3 1.3 15.5 1.3C14.7 1.3 13.9 2 14 2.8C14 3.6 14.7 4.3 15.5 4.3C16.2 4.2 16.9 3.6 16.9 2.8ZM24.9 39C24.9 38.2 24.3 37.5 23.5 37.5C22.7 37.5 22 38.2 22 39C22 39.8 22.7 40.5 23.5 40.5C24.2 40.5 24.9 39.9 24.9 39ZM31.7 26.3C31.2 26.2 30.8 26.1 30.4 26C30.1 27.1 29.8 28.2 29.6 29.3C29.6 29.5 29.8 29.8 29.9 30.1C30.2 30 30.6 29.9 30.7 29.7C31.4 28.8 31.9 27.6 31.7 26.3ZM34.4 18C34.4 17.4 34 17.1 33.5 17C33 16.9 32.5 16.9 32 16.9C31.5 16.9 31.1 17.1 31 17.7C30.9 18.3 31.2 18.6 31.7 18.8C32.3 18.9 32.8 19 33.4 19C34.1 18.9 34.4 18.6 34.4 18ZM32.6 25.1C33.2 25.2 33.7 24.9 33.7 24.3C33.8 23.7 33.4 23.3 32.8 23.3C32.3 23.3 31.9 23.2 31.4 23.1C30.8 23.1 30.4 23.4 30.4 23.9C30.4 24.4 30.7 24.8 31.2 24.9C31.7 25 32.2 25 32.6 25.1ZM32.8 22C33.4 22.1 34 21.9 34.1 21.2C34.2 20.6 33.8 20.2 32.9 20.1C32.5 20.1 32.1 20 31.6 20C31 20 30.7 20.3 30.7 20.9C30.7 21.4 30.9 21.8 31.5 21.8C32 21.9 32.4 21.9 32.8 22ZM32.7 13.8C32.1 13.7 31.5 13.9 31.5 14.6C31.5 14.9 31.8 15.5 32.1 15.6C32.7 15.8 33.3 15.8 33.9 15.8C34.4 15.8 34.8 15.4 34.7 14.9C34.6 14.6 34.3 14.2 34 14C33.7 13.8 33.2 13.9 32.7 13.8Z" fill="white"/>
</g>
<defs>
<clipPath id="clip0_784_226">
<rect width="38.5" height="41.8" fill="white" transform="translate(2)"/>
</clipPath>
</defs>
</svg>
