<svg width="42" height="42" viewBox="0 0 42 42" fill="none" xmlns="http://www.w3.org/2000/svg">
<g clip-path="url(#clip0_703_213)">
<path d="M30.8 17.4H30.5L30.6 17.1C31.2 14.4 30.5 12.2 28.5 10.6C27.4 9.8 26.2 9.3 25 9.3C24.1 9.3 23.2 9.5 22.3 10C19.6 11.4 18.5 13.8 19.2 17.1L19.3 17.4H19H18.2H16.1H14C13 17.4 12 17.4 11 17.4H10.9C10.7 17.4 10.6 17.4 10.5 17.4C10.4 17.4 10.3 17.4 10.3 17.4C9.7 17.4 9.6 17.1 9.5 16.4L9.4 16.1C8.8 13.9 8.2 11.7 7.6 9.5L6.8 7H0V8.2H1.2H2.6C3.4 8.2 4.2 8.2 5 8.2C5.6 8.2 5.8 8.4 6 8.9C6.9 12.4 7.9 15.9 8.8 19.4C10 24.1 11.3 28.7 12.5 33.4C12.6 33.8 12.8 33.9 13.2 33.9C17 33.9 20.8 33.9 24.6 33.9C28.5 33.9 32.4 33.9 36.4 33.9C36.9 33.9 37.1 33.8 37.2 33.2C37.9 30.6 38.6 27.9 39.3 25.3C39.6 24.1 40 22.8 40.3 21.6C40.6 20.6 40.8 19.6 41.1 18.6L41.4 17.4H30.8ZM22 11.6C22.8 11 23.8 10.6 24.8 10.6C25.8 10.6 26.7 10.9 27.5 11.5C29.2 12.8 29.9 14.9 29.1 16.8L28.8 17.4C28.1 19 27.4 20.7 27.3 22.5C27.3 22.6 27.3 22.7 27.3 22.8C27.3 22.9 27.3 23.1 27.3 23.2V23.4C27.3 24.1 27.2 24.4 26.5 24.4H26.3H26.1H26C25.6 24.4 25.2 24.4 24.8 24.4H23.8H22.9H22.7V24.2C22.6 23.7 22.5 23.2 22.4 22.7C22.2 21.6 21.9 20.5 21.7 19.4C21.5 18.8 21.3 18.3 21 17.7C20.9 17.4 20.7 17.1 20.6 16.8C19.8 15 20.4 12.9 22 11.6ZM39.7 19.1L39.3 20.4C39 21.4 38.8 22.4 38.5 23.4C38.3 24.2 38.1 25 37.9 25.8C37.4 27.7 36.9 29.6 36.4 31.6C36.2 32.4 35.8 32.7 35 32.7C31.6 32.7 28.2 32.7 24.8 32.7C21.4 32.7 18 32.7 14.6 32.7C14 32.7 13.6 32.5 13.5 31.9C12.8 29.1 12 26.3 11.3 23.5L10.4 20.1C10.4 19.9 10.3 19.7 10.3 19.5L10.1 19L10 18.7H10.3H11.2C11.9 18.7 12.6 18.7 13.3 18.7C14 18.7 14.7 18.7 15.4 18.7C16.6 18.7 17.8 18.7 19 18.7C19.8 18.7 20.1 19.1 20.4 19.7C21 21.3 21.3 23 21.3 25.1C21.3 25.3 21.3 25.5 21.3 25.7V25.8H28.6V25.6C28.6 25.3 28.6 25 28.6 24.8C28.6 22.8 28.9 21 29.6 19.4C29.7 19.1 30.1 18.7 30.4 18.7C31.9 18.7 33.4 18.7 34.9 18.7C35.9 18.7 36.9 18.7 37.9 18.7H39.2C39.3 18.7 39.4 18.7 39.4 18.7H39.5L39.7 18.8V19.1Z" fill="#1B3ECD"/>
<path d="M32.4 36.9C31 36.9 29.9 38 29.9 39.4C29.9 40.1 30.2 40.7 30.6 41.2C31.1 41.7 31.7 41.9 32.4 42C33.1 42 33.7 41.7 34.2 41.2C34.7 40.7 34.9 40.1 34.9 39.4C35 38 33.8 36.9 32.4 36.9ZM32.4 40.6C32 40.6 31.7 40.5 31.5 40.2C31.3 40 31.2 39.6 31.2 39.3C31.2 38.7 31.8 38.1 32.4 38.1C32.7 38.1 33 38.2 33.3 38.5C33.5 38.7 33.7 39.1 33.7 39.4C33.7 40.1 33.1 40.6 32.4 40.6Z" fill="#1B3ECD"/>
<path d="M17.1 36.9C16.4 36.9 15.8 37.2 15.3 37.7C14.8 38.2 14.6 38.8 14.6 39.5C14.6 40.8 15.8 42 17.1 42C17.8 42 18.4 41.7 18.9 41.2C19.4 40.7 19.7 40.1 19.6 39.4C19.6 38 18.4 36.9 17.1 36.9ZM17.1 40.6C16.4 40.6 15.9 40 15.8 39.4C15.8 39.1 15.9 38.8 16.2 38.5C16.4 38.2 16.8 38.1 17.1 38.1C17.4 38.1 17.7 38.2 18 38.5C18.2 38.7 18.4 39.1 18.4 39.4C18.3 40.1 17.7 40.6 17.1 40.6Z" fill="#1B3ECD"/>
<path d="M24.7 4.69998C25.1 4.69998 25.3 4.49998 25.3 4.09998C25.3 3.79998 25.3 3.59998 25.3 3.29998C25.3 3.19998 25.3 2.99998 25.3 2.89998V2.69998V2.59998C25.3 2.29998 25.3 2.09998 25.3 1.79998C25.3 1.39998 25.1 1.19998 24.7 1.19998C24.3 1.19998 24.1 1.39998 24.1 1.79998C24.1 2.69998 24.1 3.49998 24.1 4.19998C24.1 4.49998 24.3 4.69998 24.7 4.69998Z" fill="#1B3ECD"/>
<path d="M18.6 6.6C18.7 6.7 18.9 6.8 19 6.9H19.1C19.4 6.9 19.6 6.8 19.7 6.6C19.8 6.4 19.8 6.2 19.7 6C19.4 5.3 19 4.6 18.5 3.9C18.4 3.7 18.2 3.5 18 3.5C17.9 3.5 17.8 3.5 17.6 3.6C17.4 3.7 17.1 4 17.4 4.5C17.8 5.2 18.1 5.9 18.6 6.6Z" fill="#1B3ECD"/>
<path d="M30.3 6.8C30.5 6.7 30.7 6.6 30.7 6.5C31.1 5.9 31.5 5.2 31.9 4.5L32 4.4C32.1 4.3 32.2 3.9 31.8 3.6C31.7 3.5 31.6 3.5 31.4 3.5C31.2 3.5 31.1 3.6 31 3.8C30.5 4.6 30 5.4 29.7 6.1C29.6 6.3 29.7 6.5 29.7 6.5C29.7 6.6 30 6.8 30.3 6.8Z" fill="#1B3ECD"/>
<path d="M28.3 27.4H21.4V28.5H28.3V27.4Z" fill="#1B3ECD"/>
<path d="M27.4 30.2H22.3V31.4H27.4V30.2Z" fill="#1B3ECD"/>
</g>
<defs>
<clipPath id="clip0_703_213">
<rect width="41.4" height="40.9" fill="white" transform="translate(0 1)"/>
</clipPath>
</defs>
</svg>
