<?xml version="1.0" encoding="utf-8"?>
<!-- Generator: Adobe Illustrator 19.0.0, SVG Export Plug-In . SVG Version: 6.00 Build 0)  -->
<svg version="1.1" id="Layer_1" xmlns="http://www.w3.org/2000/svg" xmlns:xlink="http://www.w3.org/1999/xlink" x="0px" y="0px"
	 viewBox="0 0 42 42" style="enable-background:new 0 0 42 42;" xml:space="preserve">
<style type="text/css">
	.st0{fill:#FFFFFF;}
</style>
<g id="XMLID_694_">
	<path id="XMLID_788_" class="st0" d="M41.9,4.3c0-2.7-1.5-4.2-4.2-4.2c-11.2,0-22.3,0-33.5,0C1.5,0.1,0,1.6,0,4.3
		c0,11.1,0,22.3,0,33.4C0,40.6,1.4,42,4.3,42c5.5,0,11,0,16.5,0c5.6,0,11.2,0,16.7,0c2.9,0,4.3-1.4,4.3-4.3c0-0.2,0-0.3,0-0.5
		C41.9,26.2,41.9,15.3,41.9,4.3z M40.5,37.8c0,2-0.8,2.8-2.8,2.8c-11.2,0-22.3,0-33.5,0c-2,0-2.8-0.8-2.8-2.8c0-11.1,0-22.3,0-33.4
		c0-2,0.8-2.8,2.8-2.9c11.2,0,22.3,0,33.5,0c2,0,2.8,0.8,2.8,2.8c0,5.6,0,11.2,0,16.8C40.5,26.7,40.5,32.2,40.5,37.8z"/>
	<path id="XMLID_819_" class="st0" d="M31.2,24.1c-0.5,0-1.1-0.1-1.4-0.5c-2.8-2.7-5.5-5.4-8.2-8.2c-0.4-0.4-0.6-0.7-0.5-1.3
		c0.4-3-2.7-5.6-5.6-4.7c-1,0.3-1.1,0.8-0.4,1.5c0.5,0.6,1.1,1.1,1.6,1.7c-0.4,0.4-0.7,0.8-0.9,1c-0.2-0.1-0.3-0.1-0.4-0.1
		c-0.5-0.5-1-1-1.5-1.4c-0.8-0.7-1.3-0.6-1.6,0.5c-0.8,2.9,1.4,5.7,4.6,5.5c0.6,0,1.1,0.1,1.5,0.6c2.6,2.7,5.3,5.3,7.9,7.9
		c0.5,0.5,0.7,1,0.6,1.7c-0.2,3,2.5,5.3,5.4,4.6c0.4-0.1,0.9-0.4,1-0.7c0.1-0.3-0.2-0.8-0.5-1c-0.5-0.5-1.1-0.9-1.6-1.3
		c0.4-0.4,0.5-0.6,0.6-0.7c0.2-0.2,0.4-0.3,0.8-0.7c0.4,0.5,0.8,1.1,1.2,1.5c0.3,0.3,1,0.7,1.2,0.6c0.4-0.2,0.7-0.8,0.7-1.2
		C36.3,26.4,34.1,24.1,31.2,24.1z M33.3,27.3c-0.5-0.6-1-0.5-1.6,0c-0.5,0.5-1,1-1.5,1.5c-0.6,0.6-0.6,1.1,0,1.6
		c0.3,0.3,0.7,0.5,0.9,0.8c-1.2,0.3-2.3-0.6-2.6-1.8c-0.1-0.4-0.2-0.9-0.1-1.3c0.3-0.9-0.1-1.5-0.7-2.1c-2.9-2.9-5.8-5.8-8.7-8.7
		c-0.6-0.6-1.1-0.8-1.9-0.6c-1.7,0.4-3.4-0.9-3.5-2.7c0.4,0.3,0.7,0.6,1,0.9c0.6,0.7,1.2,0.6,1.8,0c0.5-0.5,0.9-1,1.4-1.5
		c0.6-0.5,0.6-1.1,0-1.5c-0.4-0.3-0.8-0.5-1-0.8c1.8-0.2,3.1,1.5,2.7,3.3c-0.2,0.8,0.1,1.3,0.6,1.9c3,3,6.1,6,9.1,9.1
		c0.5,0.5,1,0.5,1.6,0.3c1.8-0.4,3.4,0.8,3.5,2.7C33.9,27.9,33.6,27.6,33.3,27.3z"/>
	<path id="XMLID_820_" class="st0" d="M24,30c-0.4-0.2-0.8-0.2-1.2-0.3c0,0.4,0.1,0.8,0.1,1.2c0,0.2,0.2,0.3,0.4,0.5
		c-0.3,0.4-0.6,0.7-1,1.2c-0.7-1.2-1.5-0.9-2.3-0.3c-0.3,0.2-0.6,0.3-1,0.4c-1,0.3-2.1,0.4-1.7,1.9c-0.6,0-1,0-1.6,0
		c0.4-1.4-0.5-1.6-1.5-1.8c-0.4-0.1-0.8-0.2-1.1-0.4c-0.8-0.5-1.6-0.9-2.4,0.2c-0.4-0.4-0.7-0.6-1-1c0.7-1.3,0.7-1.3,0-2.7
		c-0.1-0.3-0.3-0.6-0.4-0.9c-0.2-1-0.5-1.8-1.9-1.6c0-0.6,0-1.1,0.1-1.6c1.2,0.3,1.6-0.4,1.8-1.3c0.1-0.4,0.3-0.9,0.5-1.3
		c0.5-0.8,0.9-1.6-0.3-2.4c0.4-0.4,0.8-0.7,1.1-1.1c0.2,0.2,0.4,0.4,0.6,0.5c0.4,0.1,0.7,0,1.1,0.1c0-0.3,0-0.7-0.1-1
		c-0.2-0.4-0.6-0.6-0.9-0.9c-0.5-0.5-0.9-0.4-1.4,0c-0.5,0.5-1,1.1-1.6,1.6c-0.6,0.5-0.6,1-0.1,1.7c0.2,0.2,0.2,0.7,0.2,1
		c0,0.3-0.3,0.7-0.4,1c-0.2,0.6-0.5,0.9-1.2,0.9c-0.7-0.1-0.9,0.4-0.9,1c0,0.7,0,1.4,0,2.1c-0.1,0.8,0.2,1.3,1.1,1.3
		c0.3,0,0.6,0.3,0.8,0.6c0.3,0.4,0.4,0.9,0.6,1.3c0.1,0.2,0.1,0.6-0.1,0.7c-1,0.8-0.6,1.5,0.2,2.2c0.4,0.4,0.8,0.8,1.2,1.2
		c0.5,0.6,1,0.6,1.6,0c0.3-0.4,0.6-0.4,1.1-0.2c0.4,0.2,0.9,0.3,1.3,0.5c0.2,0.1,0.5,0.4,0.5,0.6c-0.1,1.3,0.7,1.4,1.7,1.3
		c0.6,0,1.2,0,1.8,0c0.6,0,1-0.2,1-0.9c-0.1-0.7,0.2-1,0.9-1.2c0.5-0.1,1-0.4,1.5-0.6c0.1,0.1,0.3,0.2,0.4,0.3
		c0.6,0.7,1.2,0.6,1.8,0c0.5-0.5,1-1,1.5-1.5c0.5-0.5,0.5-1,0-1.4C24.4,30.4,24.2,30.1,24,30z"/>
	<path id="XMLID_821_" class="st0" d="M38.2,6.1c-0.2-0.1-0.4,0-0.7,0c-11,0-22.1,0-33.1,0c-0.2,0-0.5-0.1-0.7,0
		C3.5,6.3,3.1,6.6,3.1,6.8c0,0.2,0.4,0.5,0.6,0.7c0.2,0.1,0.6,0,0.9,0c5.5,0,10.9,0,16.4,0c5.5,0,10.9,0,16.4,0c0.3,0,0.6,0.1,0.9,0
		c0.3-0.1,0.6-0.4,0.6-0.7C38.8,6.6,38.4,6.3,38.2,6.1z"/>
	<path id="XMLID_824_" class="st0" d="M16.4,31.5c3.3,0,6-2.6,6-5.9c0-3.3-2.5-6-5.8-6c-3.3,0-6,2.5-6,5.9
		C10.5,28.8,13.1,31.5,16.4,31.5z M16.5,21c2.5,0,4.5,2.1,4.4,4.6c0,2.5-2,4.5-4.6,4.4c-2.5,0-4.5-2-4.5-4.5C11.9,23,14,21,16.5,21z
		"/>
	<path id="XMLID_825_" class="st0" d="M31.3,4.4c0-0.4,0-0.8,0-1.2c-0.5,0-0.9,0-1.4,0C30,3.7,30,4,30,4.4
		C30.5,4.4,30.9,4.4,31.3,4.4z"/>
	<path id="XMLID_826_" class="st0" d="M37.3,3.2c-0.5,0-0.9,0-1.3,0c0,0.4,0,0.8,0,1.2c0.5,0,0.9,0,1.3,0C37.3,4,37.3,3.6,37.3,3.2z
		"/>
	<path id="XMLID_827_" class="st0" d="M34.3,3.2c-0.4,0-0.8,0-1.2,0c0,0.4,0,0.8,0,1.2c0.5,0,0.9,0,1.2,0C34.3,4,34.3,3.6,34.3,3.2z
		"/>
</g>
</svg>
