<?xml version="1.0" encoding="utf-8"?>
<!-- Generator: Adobe Illustrator 19.0.0, SVG Export Plug-In . SVG Version: 6.00 Build 0)  -->
<svg version="1.1" id="Layer_1" xmlns="http://www.w3.org/2000/svg" xmlns:xlink="http://www.w3.org/1999/xlink" x="0px" y="0px"
	 viewBox="0 0 42 42" style="enable-background:new 0 0 42 42;" xml:space="preserve">
<style type="text/css">
	.st0{fill:#FFFFFF;}
</style>
<g id="XMLID_19_">
	<path id="XMLID_239_" class="st0" d="M21.6,0c0.4,0,0.9,0,1.3,0c1.1,0,1.8,0.6,1.7,1.6c-0.2,1.4,0.4,2,1.7,2.4
		c0.7,0.2,1.2,0.3,1.7-0.3c0.1-0.2,0.3-0.4,0.5-0.5c0.7-0.6,1.5-0.6,2.2,0c0.7,0.7,1.4,1.4,2.1,2.1c0.7,0.7,0.8,1.6,0,2.2
		c-1,0.8-1.2,1.6-0.6,2.8c0.4,0.8,0.7,1.1,1.6,1.1c1.7-0.1,2.1,0.4,2.1,2.1c0,0.8,0,1.6,0,2.4c0,1-0.6,1.6-1.6,1.7
		c-0.1,0-0.2,0-0.2,0c-1-0.2-1.8,0-2,1.2c0,0.2-0.6,0.6-0.8,0.5c-0.5-0.1-0.5-0.5-0.3-1c0.1-0.2,0.2-0.4,0.2-0.6
		c0.5-1.4,0.5-1.4,2-1.4c1.7,0,1.5,0.3,1.5-1.5c0-0.5,0-1,0-1.5c0-0.6-0.2-0.8-0.8-0.8c-0.5,0-1.1,0-1.6,0c-0.5,0-0.7-0.2-0.9-0.6
		c-0.3-0.9-0.7-1.8-1.1-2.7c-0.2-0.5-0.2-0.8,0.2-1.1c0.4-0.4,0.8-0.8,1.3-1.3c0.3-0.3,0.3-0.5,0-0.8c-0.6-0.6-1.3-1.2-1.8-1.8
		c-0.3-0.4-0.6-0.3-0.8,0C28.8,4.6,28.4,5,28,5.4c-0.3,0.3-0.6,0.4-1.1,0.1c-0.9-0.4-1.8-0.8-2.7-1.1c-0.4-0.2-0.7-0.4-0.6-0.9
		c0-0.6,0-1.1,0-1.7c0-0.5-0.2-0.7-0.7-0.7c-0.8,0-1.6,0-2.5,0c-0.5,0-0.7,0.2-0.7,0.7c0,0.6,0,1.2,0,1.8c0,0.4-0.2,0.7-0.6,0.8
		c-0.9,0.4-1.9,0.7-2.8,1.2c-0.4,0.2-0.7,0.2-1-0.2C14.9,5,14.4,4.6,14,4.2c-0.3-0.3-0.5-0.3-0.9,0C12.6,4.8,12,5.4,11.4,6
		c-0.4,0.3-0.3,0.6,0,0.9c0.4,0.4,0.9,0.8,1.2,1.3c0.2,0.2,0.2,0.6,0.2,0.9c-0.3,1-0.8,2-1.2,2.9c-0.1,0.2-0.5,0.5-0.8,0.5
		c-0.6,0.1-1.2,0-1.8,0c-0.5,0-0.7,0.2-0.7,0.6c0,0.8,0,1.6,0,2.5c0,0.5,0.2,0.7,0.7,0.7c0.6,0,1.2,0,1.8,0c0.2,0,0.6,0.1,0.6,0.3
		c0.3,0.7,0.5,1.4,0.6,2c0,0.1-0.2,0.4-0.3,0.5c-0.2,0.1-0.4,0-0.6-0.1c-0.1,0-0.2-0.2-0.2-0.3c-0.1-1.2-0.9-1.2-1.9-1.2
		c-1.3,0-1.9-0.5-1.9-1.8c0-0.9,0-1.8,0-2.7c0-1,0.6-1.7,1.6-1.6c1.3,0.1,2-0.3,2.4-1.6c0.3-0.8,0.3-1.3-0.4-1.9
		c-1.3-1.1-1.2-1.8,0-3c0.6-0.6,1.1-1.1,1.7-1.7c0.7-0.7,1.7-0.8,2.3,0c0.9,1.1,1.7,1.2,2.9,0.5c0.7-0.4,1-0.6,1-1.4
		C18.5,0.4,18.9,0,20.8,0C21.1,0,21.4,0,21.6,0z"/>
	<path id="XMLID_238_" class="st0" d="M29.2,14.6c-0.1,2.2-0.9,4.1-2.6,5.6c-0.9,0.8-1.3,1.6-1.3,2.8c0,0.2,0,0.3,0,0.5
		c0,0.4-0.2,0.8-0.6,0.7c-0.2,0-0.5-0.4-0.5-0.7c-0.2-1.7,0.3-3.1,1.7-4.4c2.1-1.8,2.6-4.9,1.4-7.4c-1.2-2.5-3.9-3.9-6.8-3.4
		c-2.5,0.4-4.7,2.7-5,5.3c-0.3,2.2,0.4,4.1,2,5.5c1.4,1.2,1.8,2.7,1.6,4.4c0,0.2-0.2,0.5-0.5,0.6c-0.4,0.1-0.5-0.1-0.7-0.6
		c0,0,0,0,0-0.1c0.3-1.8-0.7-2.9-1.8-4c-2.2-2.2-2.5-5.7-1-8.5c1.5-2.7,4.5-4.3,7.5-3.9c3.2,0.5,5.7,2.7,6.3,5.9
		C29.1,13.6,29.1,14.1,29.2,14.6z"/>
	<path id="XMLID_236_" class="st0" d="M21.1,15.4c0.9-1,1.7-1.7,2.4-2.5c0.3-0.3,0.6-0.6,1-0.2c0.4,0.4,0.2,0.7-0.2,1.1
		c-0.9,0.9-1.8,1.7-2.6,2.6c-0.4,0.4-0.8,0.4-1.2,0c-0.5-0.5-1-0.9-1.4-1.5c-0.2-0.2-0.3-0.6-0.1-0.9c0.3-0.3,0.7-0.1,0.9,0.1
		C20.3,14.4,20.6,14.9,21.1,15.4z"/>
	<path id="XMLID_38_" class="st0" d="M18.6,26.6h6.1c0.3,0,0.6,0.3,0.6,0.6v0c0,0.3-0.3,0.6-0.6,0.6h-6.1c-0.3,0-0.6-0.3-0.6-0.6v0
		C18,26.9,18.2,26.6,18.6,26.6z"/>
	<path id="XMLID_39_" class="st0" d="M20.1,29.4h3.1c0.3,0,0.6,0.3,0.6,0.6v0c0,0.3-0.3,0.6-0.6,0.6h-3.1c-0.3,0-0.6-0.3-0.6-0.6v0
		C19.5,29.7,19.7,29.4,20.1,29.4z"/>
	<path id="XMLID_233_" class="st0" d="M12.9,32.3c0,0.3,0,0.5,0.1,0.8c0.6-0.1,1.3-0.2,1.9-0.3c1.7-0.3,3.4,0,5,0.3
		c1.5,0.3,3,0.5,4.6,0.5c1.2,0,2,0.3,2.4,1.7c1.3-0.6,2.5-1.1,3.7-1.7c1.2-0.5,2.7-0.2,3.5,0.9c0.5,0.7,0.5,1.4-0.2,1.9
		c-2.8,1.7-5.6,3.4-8.4,5c-1.5,0.9-3.2,0.7-4.8,0.4c-1.7-0.4-3.4-0.8-5.1-1.2c-0.8-0.2-1.7-0.1-2.5-0.2c0,0.5-0.1,0.8-0.1,1.2
		c-1.6,0-3.2,0-4.8,0c0-3.1,0-6.2,0-9.4C9.6,32.3,11.2,32.3,12.9,32.3z M33.3,35.4c-0.6-0.9-1.4-1.2-2.2-0.9
		c-1.5,0.6-3.1,1.2-4.5,2.1c-1.7,1-3.4,1-5.3,1.1c0-0.4,0-0.7,0-1c1.5-0.1,3.1,0,4.4-0.8c-0.1-0.8-0.5-1.1-1.3-1.2
		c-1.9-0.1-3.7-0.4-5.5-0.7c-1.9-0.3-3.7-0.4-5.5,0.1c-0.2,0.1-0.5,0.3-0.5,0.5c0,1.6,0,3.2,0,4.7c1.4,0.2,2.6,0.3,3.9,0.6
		c1.4,0.3,2.8,0.6,4.1,0.9c1.3,0.3,2.6,0.3,3.9-0.3C27.8,39.2,30.6,37.3,33.3,35.4z M9.1,33.4c0,2.5,0,4.8,0,7.2c0.9,0,1.8,0,2.7,0
		c0-2.4,0-4.8,0-7.2C10.8,33.4,10,33.4,9.1,33.4z"/>
</g>
</svg>
