<svg width="42" height="42" viewBox="0 0 42 42" fill="none" xmlns="http://www.w3.org/2000/svg">
<g clip-path="url(#clip0_703_345)">
<g clip-path="url(#clip1_703_345)">
<path d="M41 2.48276C41 1.65517 40.798 1.03448 40.3941 0.62069C39.9902 0.206897 39.3842 0 38.5764 0H2.22168C1.51478 0 1.00985 0.206897 0.605911 0.62069C0.20197 1.03448 0 1.55172 0 2.27586V32.6897C0 34.1379 0.807882 34.9655 2.22168 34.9655C5.4532 34.9655 8.58374 34.9655 11.8153 34.9655H16.1576V35.1724C16.1576 35.2759 16.1576 35.2759 16.1576 35.2759L15.9557 36.1035C15.5517 37.4483 15.1478 38.8966 14.7438 40.3448C14.6429 40.5517 14.4409 40.6552 14.2389 40.6552C14.0369 40.6552 13.734 40.6552 13.431 40.6552C13.2291 40.6552 13.1281 40.6552 12.9261 40.6552H12.5222V41.8966H28.7808V40.6552H27.7709C27.468 40.6552 27.266 40.6552 27.064 40.6552C26.7611 40.6552 26.6601 40.5517 26.5591 40.2414C26.3571 39.4138 26.0542 38.5862 25.8522 37.7586L25.2463 36.6207C25.1453 36.3103 25.0443 36 24.9434 35.5862L24.7414 34.9655H38.5764C39.3842 34.9655 39.9902 34.7586 40.3941 34.3448C40.798 33.931 41 33.3103 41 32.4828C41 22.4483 41 12.5172 41 2.48276ZM24.7414 39.4138L25.0443 40.3448V40.4483V40.6552H15.8547L15.9557 40.2414C15.9557 40.0345 16.0567 39.931 16.0567 39.7241C16.1576 39.4138 16.2586 39 16.3596 38.6897L16.4606 38.3793C16.7635 37.4483 17.0665 36.4138 17.3695 35.3793C17.4704 34.9655 17.6724 34.8621 17.9754 34.8621C18.7833 34.8621 19.6921 34.8621 20.5 34.8621C21.4089 34.8621 22.2167 34.8621 23.0246 34.8621C23.2266 34.8621 23.5296 35.069 23.5296 35.1724C23.9335 36.7241 24.4384 38.069 24.7414 39.4138ZM39.7882 33C39.7882 33.5172 39.4852 33.7241 38.7783 33.7241C36.6576 33.7241 34.5369 33.7241 32.4163 33.7241H2.32266C1.51478 33.7241 1.31281 33.4138 1.31281 32.6897V30.8276H39.8892V30.931C39.8892 31.1379 39.8892 31.3448 39.8892 31.5517C39.7882 32.069 39.7882 32.4828 39.7882 33ZM39.7882 29.4828H1.21182V2.27586C1.21182 1.55172 1.51478 1.24138 2.22168 1.24138C14.3399 1.24138 26.5591 1.24138 38.6773 1.24138C39.4852 1.24138 39.7882 1.55172 39.7882 2.27586V29.4828Z" fill="#1B3ECD"/>
<path d="M31.3054 12.931H31.0025C29.0837 12.931 27.064 12.931 25.1453 12.931C24.8424 12.931 24.6404 12.8276 24.4384 12.6207C24.1355 12.3103 23.9335 12.1034 23.6305 11.7931C23.5295 11.6896 23.3276 11.4828 23.2266 11.3793C22.8227 10.9655 22.4187 10.8621 21.9138 10.8621C20.9039 10.8621 19.9951 10.8621 18.9852 10.8621C18.1773 10.8621 17.2685 10.8621 16.4606 10.8621C15.4507 10.8621 14.7438 11.4828 14.7438 12.6207C14.7438 16.1379 14.7438 19.7586 14.7438 23.1724C14.7438 24.3103 15.3497 24.931 16.4606 24.931C17.8744 24.931 19.2882 24.931 20.702 24.931H25.6502C26.2561 24.931 26.8621 24.931 27.468 24.931C28.6798 24.931 29.8916 24.931 31.1034 24.931C32.3153 24.931 32.9212 24.3103 32.9212 23.069C32.9212 20.2759 32.9212 17.4828 32.9212 14.7931C33.1231 13.6552 32.5172 12.931 31.3054 12.931ZM31.9113 23.1724C31.9113 23.6896 31.8103 23.7931 31.3054 23.7931H23.9335H16.6626C16.0566 23.7931 15.9557 23.6896 15.9557 23.069V12.7241C15.9557 12.2069 16.0566 12.1034 16.5616 12.1034H18.1773C19.3892 12.1034 20.601 12.1034 21.8128 12.1034C22.1158 12.1034 22.2167 12.2069 22.4187 12.4138C22.6207 12.6207 22.9236 12.931 23.1256 13.1379C23.3276 13.3448 23.4286 13.4483 23.6305 13.6552C24.0345 14.069 24.4384 14.2759 25.0443 14.2759C26.5591 14.2759 28.1749 14.2759 29.6896 14.2759H31.2044C31.7094 14.2759 31.8103 14.3793 31.8103 14.8965C31.9113 17.5862 31.9113 20.3793 31.9113 23.1724Z" fill="#1B3ECD"/>
<path d="M15.3498 7.55169C15.4507 7.44825 15.7537 7.44825 15.9557 7.44825C16.0567 7.44825 16.2586 7.44825 16.3596 7.44825C16.5616 7.44825 16.5616 7.44825 16.6626 7.65514C16.8645 8.06894 17.0665 8.58618 17.2685 9.10342C17.3695 9.31032 17.4705 9.41376 17.6724 9.51721C17.7734 9.62066 17.9754 9.62066 18.0764 9.72411C18.4803 9.931 18.8842 10.1379 19.2882 10.1379C19.6921 10.1379 19.9951 9.931 20.399 9.82756C20.5 9.72411 20.702 9.62066 20.904 9.62066H21.0049C21.1059 9.51721 21.2069 9.51721 21.4089 9.72411C21.6108 9.931 21.8128 10.1379 22.0148 10.3448C22.1158 10.4482 22.2168 10.5517 22.2168 10.5517L22.3177 10.6551L23.1256 9.82756L22.7217 9.41376C22.3177 9.10342 22.0148 8.68963 21.6108 8.37928C21.5099 8.27583 21.3079 8.37928 21.2069 8.37928L21.0049 8.48273C20.702 8.58618 20.298 8.68963 19.9951 8.89652C19.4902 9.20687 19.0862 9.20687 18.5813 8.89652C18.3793 8.79307 18.2783 8.68963 18.1773 8.48273C17.9754 7.86204 17.6724 7.3448 17.4705 6.82756C17.3695 6.72411 17.1675 6.51721 17.0665 6.51721C16.3596 6.51721 15.6527 6.51721 14.9458 6.51721C14.7439 6.51721 14.6429 6.62066 14.5419 6.82756C14.3399 7.1379 14.1379 7.55169 14.037 7.96549C13.835 8.58618 13.532 8.99997 12.9261 9.10342C12.8251 9.10342 12.6232 9.10342 12.5222 9.10342C11.9163 8.89652 11.4113 8.68963 10.9064 8.48273C10.7044 8.37928 10.6035 8.37928 10.4015 8.58618C9.99755 8.48273 9.79558 8.68963 9.59361 8.89652C9.29065 9.20687 8.98769 9.51721 8.68474 9.82756C8.58375 9.931 8.58375 10.1379 8.58375 10.3448V10.4482C8.68474 10.862 8.88671 11.2758 9.08868 11.6896C9.29065 12.1034 9.29065 12.6207 9.08868 13.0345C8.98769 13.2413 8.88671 13.4482 8.68474 13.4482C8.38178 13.5517 8.17981 13.6551 7.87686 13.7586C7.67489 13.862 7.37193 13.9655 7.16996 14.0689C6.96799 14.1724 6.867 14.2758 6.867 14.5862C6.867 15.4138 6.867 16.0345 6.867 16.7586C6.867 16.9655 6.96799 17.1724 7.16996 17.2758C7.27094 17.3793 7.47292 17.3793 7.5739 17.4827C7.77587 17.5862 7.97784 17.6896 8.2808 17.7931C8.88671 18 9.18966 18.3103 9.29065 18.931C9.29065 19.1379 9.29065 19.2413 9.29065 19.4482C9.18966 19.7586 9.08868 20.0689 8.98769 20.3793C8.88671 20.6896 8.78572 20.8965 8.68474 21.2069C8.68474 21.3103 8.68474 21.5172 8.78572 21.6207C9.29065 22.2413 9.89656 22.7586 10.4015 23.2758C10.5025 23.3793 10.6035 23.3793 10.7044 23.3793H10.8054C11.2094 23.2758 11.6133 23.0689 11.9163 22.862C12.4212 22.5517 12.9261 22.5517 13.431 22.862C13.532 22.862 13.532 22.9655 13.633 22.9655H13.734H13.835L14.2389 21.931L14.1379 21.7241C14.037 21.7241 14.037 21.7241 13.936 21.6207C13.835 21.6207 13.734 21.5172 13.633 21.5172C13.0271 21.1034 12.3202 21.1034 11.5123 21.5172C10.7044 21.931 10.7044 21.931 10.0985 21.3103V21.2069C9.89656 21 9.89656 20.8965 9.99755 20.6896C10.0985 20.5862 10.0985 20.4827 10.0985 20.3793C10.0985 20.2758 10.1995 20.0689 10.3005 19.9655C10.6035 19.3448 10.6035 18.8276 10.3005 18.2069C9.99755 17.3793 9.59361 16.9655 8.88671 16.7586C7.97784 16.4482 7.97784 16.3448 7.97784 15.4138V15.3103C7.97784 15.1034 7.97784 15.1034 8.17981 15C8.68474 14.6896 9.08868 14.4827 9.59361 14.2758C9.69459 14.2758 9.89656 14.1724 9.89656 13.9655C9.99755 13.862 9.99755 13.6551 10.0985 13.5517C10.3005 13.1379 10.5025 12.7241 10.6035 12.3103C10.6035 12 10.5025 11.6896 10.3005 11.3793C10.1995 11.2758 10.1995 11.0689 10.0985 10.9655C10.0985 10.9655 10.0985 10.9655 10.0985 10.862C9.89656 10.4482 9.89656 10.2413 10.3005 9.82756L10.4015 9.72411C10.8054 9.31031 10.8054 9.31032 11.4113 9.62066C11.5123 9.62066 11.5123 9.62066 11.6133 9.72411C11.7143 9.72411 11.8153 9.82756 11.9163 9.82756C12.4212 10.1379 12.9261 10.1379 13.633 9.82756C14.1379 9.62066 14.7439 9.31032 14.9458 8.37928C15.0468 8.06894 15.1478 7.65514 15.3498 7.55169Z" fill="#1B3ECD"/>
<path d="M13.532 12.4138C13.532 12.4138 13.633 12.3104 13.734 12.3104C13.9359 12.2069 14.1379 12 14.1379 11.8966C14.1379 11.6897 14.0369 11.4828 13.9359 11.3793C13.9359 11.2759 13.835 11.2759 13.835 11.1724H13.734C12.0172 12 10.8054 14.1724 10.9064 16.1379C11.1084 18.3104 12.5221 19.8621 13.734 20.3793H13.835L14.3399 19.3448L14.0369 19.1379C12.9261 18.4138 12.2192 17.2759 12.1182 15.931C11.9162 14.4828 12.5221 13.2414 13.532 12.4138Z" fill="#1B3ECD"/>
<path d="M21.4088 16.5517L20.7019 15.7241L17.7734 18.7241L17.8744 18.8276C18.7832 19.7586 19.6921 20.6896 20.601 21.7241L21.5098 21L19.1872 18.6207L21.4088 16.5517Z" fill="#1B3ECD"/>
<path d="M26.4581 16.5517L28.6798 18.7241L26.5591 20.8965L27.266 21.7241L30.2956 18.7241L27.367 15.7241L26.4581 16.5517Z" fill="#1B3ECD"/>
<path d="M22.4187 21.1035L23.4286 21.6207L26.0542 16.8621L25.0443 16.3448L22.4187 21.1035Z" fill="#1B3ECD"/>
</g>
</g>
<defs>
<clipPath id="clip0_703_345">
<rect width="42" height="42" fill="white"/>
</clipPath>
<clipPath id="clip1_703_345">
<rect width="41" height="42" fill="white"/>
</clipPath>
</defs>
</svg>
