<?xml version="1.0" encoding="utf-8"?>
<!-- Generator: Adobe Illustrator 19.0.0, SVG Export Plug-In . SVG Version: 6.00 Build 0)  -->
<svg version="1.1" id="Layer_1" xmlns="http://www.w3.org/2000/svg" xmlns:xlink="http://www.w3.org/1999/xlink" x="0px" y="0px"
	 viewBox="0 0 42 42" style="enable-background:new 0 0 42 42;" xml:space="preserve">
<style type="text/css">
	.st0{fill:#1B3ECD;}
</style>
<g id="XMLID_7_">
	<g>
		<path id="XMLID_34_" class="st0" d="M10,10.5c-0.6-0.8-1-1.4-1.4-2C8,7.7,8,7.1,8.7,6.4c0.8-0.7,1.5-1.4,2.2-2.2
			c0.8-1,1.6-1,2.6-0.2c0.7,0.6,1.3,1.2,2.4,0.7c1.2-0.5,1.8-1.2,1.8-2.4c0-1.3,0.7-1.9,2-1.8c0.4,0,0.8,0,1.2,0
			c2.9,0,2.9,0,3.6,2.7c0.3,1.3,2.3,2,3.4,1.3C30,3.2,30,3.2,31.8,5c0.1,0.1,0.3,0.2,0.4,0.4c1.9,2,1.9,2,0.5,4.2
			c-0.7,1,0.2,3,1.4,3.2c3.4,0.7,3.1-0.2,3.1,3.6c0,3.1,0.5,2.8-2.8,3.3c-1.6,0.2-2.4,2.2-1.5,3.5c0.3,0.4,0.5,0.7,0.8,1.1
			c0.5,0.6,0.4,1.2-0.1,1.7c-0.7,0.6-1.3,1.3-2,2c-1.5,1.5-1.5,1.5-3.1,0.3c-1.7-1.3-3.6-0.5-3.9,1.6c-0.3,2-0.3,2-2.4,2
			c-0.7,0-1.4,0-2.1,0c-1.9,0-1.9,0-2.2-1.9c-0.1-0.9-0.2-1.6-1.3-2.1c-1.1-0.4-1.8-0.4-2.7,0.3c-1.5,1.2-1.6,1.2-3-0.3
			c-0.5-0.5-1-1-1.5-1.5C8.1,25.1,8,25,9.2,23.6c0.8-1,1-1.9,0.3-2.9c-0.3-0.4-0.8-0.7-1.2-1c-0.2-0.1-0.5-0.1-0.8-0.1
			C5,19.4,5,19.4,5,17.2c0-0.1,0-0.2,0-0.3c0-3.4,0-3.3,3.2-4.2C8.9,12.5,9.4,11.3,10,10.5z M29.7,27.3c0.1,0.1,0.2,0.2,0.3,0.3
			c0.4-0.5,0.7-1.2,1.2-1.6c0.8-0.7,0.8-1.3,0.1-2.1c-0.4-0.5-0.9-1.2-0.8-1.7c0.3-1.2,0.7-2.4,1.5-3.4c0.4-0.5,1.4-0.4,2.2-0.7
			c0.4-0.1,1.2-0.3,1.2-0.5c0.1-0.9,0.2-1.9,0-2.7c-0.1-0.3-1-0.5-1.6-0.6c-1.2-0.1-1.8-0.6-2.4-1.8c-0.9-1.8-0.8-3.3,0.6-4.7
			c0.1-0.1,0.1-0.2,0.1-0.7c-0.4-0.3-1-0.7-1.4-1.2c-0.6-0.7-1.2-0.8-1.9-0.1c-1,1-2.1,1.2-3.3,0.3c-0.2-0.2-0.6-0.3-0.9-0.3
			C23.5,5.7,23,5,23,3.8s-0.5-1.7-1.9-1.7c-1.2,0.1-2.1,0.2-2,1.6c0,1.2-0.7,1.6-1.7,2.1c-1.9,1-3.4,0.9-4.8-0.6
			c-0.1-0.1-0.2,0-0.3-0.1C12,5.4,11.7,5.7,11.4,6c-0.4,0.4-0.8,0.9-1.3,1.3c0.2,0.3,0.3,0.6,0.5,0.8c1.1,1.1,1.3,2.3,0.4,3.6
			c-0.1,0.1-0.2,0.3-0.2,0.5c-0.2,1.2-1,1.8-2.2,1.8c-0.4,0-0.8,0-1,0.2c-0.4,0.3-0.7,0.6-0.9,1c-0.1,0.4,0,1,0,1.4
			c-0.1,0.7,0.2,1.1,1,1.2c0.9,0.1,2,0.1,2.4,0.7c0.8,1,1.2,2.2,1.5,3.5c0.1,0.6-0.7,1.3-1,1.9c-0.2,0.4-0.3,0.9-0.2,1.2
			c0.5,0.8,1.1,1.5,1.8,2.3c1.8-2.3,3.4-2.1,5.4-1.1c0.9,0.5,1.5,0.9,1.5,2c0,1.3,0.5,1.7,1.9,1.7c1.3,0,2-0.3,2.1-1.7
			c0-0.6,0.4-1.4,0.8-1.6c1.9-1,3.9-1.9,5.7,0.2C29.6,27.3,29.7,27.3,29.7,27.3z"/>
		<path id="XMLID_33_" class="st0" d="M20.9,41.4c-5.3,0-10.7,0-16,0c-1.9,0-3-0.9-3.2-2.5c-0.1-1.6,0.8-2.8,2.4-3.1
			c0.3,0,0.6,0,0.9,0c10.6,0,21.3,0,31.9,0c2,0,3.2,0.9,3.3,2.5c0.2,1.9-1,3.1-3.1,3.1c-4.9,0-9.8,0-14.7,0
			C22,41.4,21.4,41.4,20.9,41.4z M20.9,39.8L20.9,39.8c5.2,0,10.4,0,15.6,0c0.4,0,1,0.1,1.3-0.1c0.4-0.2,0.9-0.7,0.9-1.1
			c0-0.4-0.5-0.9-0.9-1.1c-0.3-0.2-0.8-0.1-1.2-0.1c-10.4,0-20.8,0-31.3,0c-0.4,0-0.8-0.1-1,0.1c-0.4,0.3-1,0.8-1,1.3
			c0,0.3,0.6,0.8,1.1,1.1C4.7,40.1,5.2,40,5.6,40C10.7,39.8,15.8,39.8,20.9,39.8z"/>
		<path id="XMLID_32_" class="st0" d="M21.1,8.5c3.3,0,6.2,2.1,7.3,5.1c1.1,3.1,0.2,6.6-2.2,8.6c-0.4,0.3-1.4,0.6-1.6,0.4
			c-0.7-0.7,0.1-1.1,0.6-1.5c2.1-1.8,2.8-4.7,1.8-7.2s-3.6-4.1-6.3-3.9c-2.7,0.2-5,2.1-5.6,4.8c-0.6,2.6,0.5,5.5,2.9,6.8
			c0.9,0.5,1.9,0.6,2.9,1c0.4,0.2,0.8,0.5,1.1,0.8c-0.4,0.2-0.9,0.7-1.3,0.7C16.3,24,13,20.3,13.1,16C13.3,11.8,16.8,8.4,21.1,8.5z"
			/>
		<path id="XMLID_31_" class="st0" d="M10.4,39.3c-1.8,0-3.6,0-5.4,0c-0.4,0-0.7-0.4-1.1-0.6c0.4-0.3,0.7-0.8,1.1-0.8
			c3.6-0.1,7.2-0.1,10.9,0c0.4,0,0.7,0.5,1.1,0.8c-0.4,0.2-0.7,0.6-1.1,0.6C14,39.4,12.2,39.3,10.4,39.3z"/>
	</g>
</g>
</svg>
