<?xml version="1.0" encoding="utf-8"?>
<!-- Generator: Adobe Illustrator 19.0.0, SVG Export Plug-In . SVG Version: 6.00 Build 0)  -->
<svg version="1.1" id="Layer_1" xmlns="http://www.w3.org/2000/svg" xmlns:xlink="http://www.w3.org/1999/xlink" x="0px" y="0px"
	 viewBox="0 0 42 42" style="enable-background:new 0 0 42 42;" xml:space="preserve">
<style type="text/css">
	.st0{fill:#1B3ECD;}
</style>
<g id="XMLID_645_">
	<path id="XMLID_688_" class="st0" d="M5.4,18.9c0.5,0,0.8-0.4,0.8-0.8c0-0.4-0.4-0.8-0.8-0.8c-0.5,0-0.8,0.3-0.8,0.8
		C4.6,18.5,4.9,18.9,5.4,18.9z"/>
	<path id="XMLID_759_" class="st0" d="M42.1,9.5l0-0.4c0-0.7-0.2-1.2-0.7-1.7c-0.5-0.5-1.1-0.7-1.8-0.7c-0.2,0-0.5,0-0.7,0l-1.1,0
		c0,0-0.1,0-0.1-0.1c0,0,0-0.1,0-0.1c0,0,0-0.1,0-0.1c0-0.5,0-1.1,0-1.6c0-0.7,0-1.4,0-2.1c0-1.7-1-2.6-2.6-2.6c-4.6,0-9.2,0-13.9,0
		l-13.9,0c-1.7,0-2.7,1-2.7,2.7c0,0.8,0,1.7,0,2.6l0,1.2c0,0,0,0.1-0.1,0.1l-1.6,0c-1.8,0-2.7,1-2.7,2.7c0,7.6,0,15.3,0,22.9
		c0,1.8,0.9,2.8,2.7,2.8c3.1,0,6.1,0,9.2,0l4.9,0c0,0,0.1,0,0.1,0.1v2c0,0,0,0.1-0.1,0.1l-0.9,0c-0.2,0-0.4,0-0.5,0
		c-1.4,0-2.4,1-2.4,2.4c0,0.5,0,1,0,1.5l0,0c0,0.6,0.3,0.9,0.9,0.9c0.3,0,0.6,0,0.9,0c0.2,0,1.1,0,1.3,0l6,0c2,0,4,0,6,0
		c0.7,0,0.9-0.2,1-0.9c0-0.5,0-0.9,0-1.3c0-1.6-1-2.6-2.6-2.6l-1.3,0c0,0-0.1,0-0.1-0.1v-2c0,0,0-0.1,0.1-0.1H26c1.2,0,2.5,0,3.7,0
		c1.2,0,2.5,0,3.7,0c2.5,0,4.5,0,6.3,0c1.4,0,2.4-1,2.4-2.4C42.1,24.9,42.1,17.1,42.1,9.5z M6.1,2.4c0-0.5,0.4-0.8,1-0.8
		c1.2,0,2.3,0,3.5,0l24.3,0c0.9,0,1.2,0.3,1.2,1.2c0,0.9,0,1.8,0,2.6l0,1.2c0,0,0,0.1-0.1,0.1H6.2c0,0-0.1,0-0.1-0.1
		c0-0.4,0-0.8,0-1.2C6.1,4.4,6.1,3.4,6.1,2.4z M2.8,8.2c0.2,0,0.4,0,0.6,0l1.1,0c0,0,0.1,0,0.1,0.1v3.7l0,0.7c0,0.6,0,1.1,0,1.7
		c0,0.5,0.3,0.9,0.7,0.9c0.5,0,0.8-0.4,0.8-0.9c0-1.1,0-2.1,0-3.2c0-0.8,0-1.6,0-2.4c0-0.1,0-0.2,0-0.3c0,0,0-0.1,0-0.1
		c0,0,0-0.1,0.1-0.1H36c0,0,0.1,0,0.1,0.1v19.7c0,0,0,0.1-0.1,0.1h-4.2c0,0-0.1,0-0.1-0.1l0-0.7c0-0.6,0-1.1,0-1.7
		c0-0.8-0.2-1-1.1-1c0,0-0.1,0-0.1,0c0,0-0.1,0-0.1,0c-0.1,0-0.1,0-0.1,0c0,0-0.1,0-0.1,0c-0.3,0-0.4-0.2-0.4-0.4
		c-0.2-0.5-0.3-0.9-0.5-1.2c-0.2-0.3-0.1-0.5,0.1-0.7c0.5-0.4,0.7-0.7,0.7-1c0-0.3-0.2-0.5-0.7-1c-0.4-0.4-0.7-0.7-1.1-1.1
		c-0.3-0.3-0.5-0.5-0.8-0.8c-0.2-0.2-0.5-0.4-0.7-0.4c-0.2,0-0.4,0.1-0.7,0.3c-0.3,0.3-0.5,0.5-0.7,0.5c-0.1,0-0.3-0.1-0.6-0.1
		c-0.1,0-0.1,0-0.2-0.1C24,18.3,23.5,18,23.6,17c0-0.2,0-0.3-0.1-0.5c-0.1-0.2-0.3-0.2-0.6-0.2c-0.6,0-1.3,0-1.9,0
		c-0.6,0-1.1,0-1.7,0c-0.2,0-0.4,0.1-0.6,0.2c-0.1,0.1-0.2,0.3-0.1,0.5c0.1,0.9-0.3,1.2-1,1.5c-0.3,0.1-0.6,0.2-0.8,0.2
		c-0.3,0-0.6-0.2-0.9-0.5c-0.2-0.2-0.3-0.3-0.5-0.3c-0.2,0-0.4,0.1-0.6,0.3c-0.8,0.8-1.6,1.6-2.3,2.3c-0.2,0.2-0.3,0.4-0.3,0.7
		c0,0.2,0.1,0.4,0.3,0.5c0.6,0.5,0.5,1,0.3,1.6c-0.2,0.7-0.5,1.1-1.3,1.1c-0.1,0-0.2,0-0.3,0c0,0-0.1,0-0.1,0
		c-0.4,0-0.6,0.3-0.6,0.8c0,0.6,0,1.2,0,1.8c0,0.3,0,0.5,0,0.8c0,0,0,0.1-0.1,0.1H6.2c0,0-0.1,0-0.1-0.1c0,0,0-0.1,0-0.1
		c0-0.1,0-0.2,0-0.3c0-1.2,0-2.4,0-3.6l0-1.7c0,0,0-0.1,0-0.1c0-0.1,0-0.2,0-0.3c0-0.4-0.4-0.7-0.8-0.7l0,0c-0.4,0-0.7,0.3-0.7,0.8
		c0,0.7,0,1.4,0,2.1c0,0.3,0,0.5,0,0.8l0,3.2c0,0,0,0.1-0.1,0.1H1.8c0,0-0.1,0-0.1-0.1c0,0,0-0.1,0-0.1c0-0.1,0-0.2,0-0.3
		c0-6.1,0-12.2,0-18.2C1.7,8.5,2,8.2,2.8,8.2z M24.2,24.4c-0.8-0.9-1.9-1.5-3.1-1.5l-0.1,0c-1.2,0-2.3,0.5-3.1,1.4
		c-0.6,0.7-1.2,1.8-0.9,3.5c0,0,0,0,0,0.1c0,0,0,0-0.1,0h-5c0,0-0.1,0-0.1-0.1v-1.9c0,0,0-0.1,0.1-0.1c0.1,0,0.1,0,0.2,0
		c0.1,0,0.2,0,0.2,0c0.1,0,0.2,0,0.3,0c0.5,0,0.7-0.2,0.9-0.7c0.3-0.8,0.7-1.7,1-2.4c0.2-0.5,0.2-0.8-0.1-1.1
		c-0.1-0.1-0.2-0.2-0.4-0.3c-0.1-0.1-0.2-0.1-0.3-0.2c0,0,0,0,0-0.1c0,0,0,0,0-0.1c0.1-0.1,0.2-0.2,0.3-0.2c0.2-0.1,0.3-0.3,0.5-0.4
		c0.1-0.1,0.3-0.3,0.5-0.5c0.1-0.1,0.2-0.2,0.3-0.3c0,0,0,0,0,0c0,0,0,0,0,0c0,0,0,0,0,0c0,0.1,0.1,0.1,0.1,0.2
		c0.1,0.1,0.2,0.3,0.3,0.4c0.2,0.3,0.4,0.4,0.6,0.4c0.2,0,0.3-0.1,0.6-0.2c0.7-0.3,1.5-0.7,2.2-0.9c0.6-0.2,0.8-0.4,0.8-1
		c0-0.1,0-0.3,0-0.4c0-0.1,0-0.1,0-0.2c0,0,0-0.1,0.1-0.1h1.9c0,0,0.1,0,0.1,0.1c0,0.1,0,0.1,0,0.2c0,0.2,0,0.3,0,0.5
		c0,0.5,0.2,0.7,0.7,0.9c0.8,0.3,1.5,0.5,2.1,0.9c0.3,0.2,0.6,0.3,0.7,0.3c0.2,0,0.4-0.1,0.8-0.5c0.1-0.1,0.1-0.2,0.2-0.2
		c0,0,0-0.1,0.1-0.1c0,0,0,0,0,0c0,0,0,0,0,0c0,0,0,0,0,0l1.4,1.4c0,0,0,0,0,0.1c0,0,0,0,0,0.1c0,0-0.1,0.1-0.2,0.1
		c-0.1,0.1-0.3,0.2-0.4,0.3c-0.3,0.3-0.4,0.6-0.1,1.1c0.4,0.9,0.7,1.6,1,2.4c0.2,0.5,0.4,0.7,0.9,0.7c0.1,0,0.2,0,0.3,0l0.4,0
		c0,0,0.1,0,0.1,0.1v1.9c0,0,0,0.1-0.1,0.1h-5.1c0,0,0,0-0.1,0c0,0,0,0,0-0.1C25.3,26.6,25,25.4,24.2,24.4z M23.6,27.7
		c-0.1,0.3-0.2,0.4-0.5,0.4c0,0,0,0,0,0c-0.2,0-0.5,0-0.8,0c-0.2,0-0.4,0-0.6,0c-0.2,0-0.4,0-0.6,0c-0.2,0-0.3,0-0.5,0
		c-0.2,0-0.4,0-0.6,0c-0.3,0-0.6,0-0.8,0c0,0,0,0,0,0c-0.3,0-0.4-0.1-0.5-0.4c-0.3-1,0.1-2.1,1-2.7c0.4-0.3,0.9-0.4,1.5-0.4
		c0.5,0,1,0.2,1.4,0.4C23.4,25.5,23.9,26.7,23.6,27.7z M26.4,38.7C26.4,38.7,26.4,38.7,26.4,38.7c0.5,0,0.8,0,1,0.3
		c0.2,0.2,0.3,0.5,0.2,1c0,0.1,0,0.2,0,0.3c0,0,0,0.1,0,0.1c0,0,0,0.1-0.1,0.1H14.7c0,0-0.1,0-0.1-0.1l0-0.2c0-0.1,0-0.3,0-0.4
		c0-0.8,0.3-1.1,1.1-1.1l3.9,0C21.8,38.7,24.1,38.7,26.4,38.7z M18.6,37.1v-1.9c0,0,0-0.1,0.1-0.1h4.9c0,0,0.1,0,0.1,0.1v1.9
		c0,0,0,0.1-0.1,0.1L18.6,37.1C18.7,37.2,18.6,37.2,18.6,37.1z M40.6,32.9c0,0.4-0.3,0.7-0.8,0.7c-0.1,0-0.2,0-0.3,0
		c0,0-0.1,0-0.1,0c0,0-0.1,0-0.1,0L3,33.6c-0.5,0-0.8,0-1-0.3c-0.2-0.2-0.3-0.6-0.3-1c0-0.6,0-1.2,0-1.8l0-0.8c0,0,0-0.1,0.1-0.1
		h38.7c0,0,0.1,0,0.1,0.1c0,0.3,0,0.6,0,0.9C40.6,31.3,40.6,32.1,40.6,32.9z M40.6,17.6c0,3.3,0,6.7,0,10c0,0.1,0,0.1,0,0.2
		c0,0,0,0.1,0,0.1c0,0,0,0.1-0.1,0.1h-2.8c0,0-0.1,0-0.1-0.1V8.3c0,0,0-0.1,0.1-0.1c0.2,0,0.4,0,0.6,0c0.2,0,0.4,0,0.6,0
		c0.3,0,0.6,0,0.8,0c0.5,0,0.8,0.4,0.8,1.1c0,1.5,0,3.1,0,4.6L40.6,17.6z"/>
	<path id="XMLID_810_" class="st0" d="M14.9,12.1c1.3,0,2.3,0,3.4,0c0,0,0,0,0,0c1.5,0,2.8,0,4.1,0c0.2,0,0.5-0.1,0.6-0.3
		c0.1-0.2,0.1-0.6,0.1-0.8c-0.1-0.3-0.4-0.4-0.7-0.4l-3.7,0c-0.3,0-0.7,0-1,0c-0.4,0-0.7,0-1.1,0c-0.6,0-1.1,0-1.5,0
		c-0.5,0-0.8,0.3-0.8,0.7c0,0.2,0.1,0.4,0.2,0.5C14.5,12,14.7,12.1,14.9,12.1z"/>
	<path id="XMLID_811_" class="st0" d="M25.9,12.1c0.1,0,0.2,0,0.3,0h0c0.7,0,1.5,0,2.2,0l1,0c0.3,0,0.6,0,0.9,0c0.3,0,0.6,0,0.9,0
		c0.6,0,1.1,0,1.5,0c0.2,0,0.5-0.1,0.7-0.2c0.3-0.2,0.3-0.5,0.2-0.8c-0.1-0.4-0.4-0.5-0.8-0.5c-1.3,0-2.5,0-3.8,0l-1.6,0
		c-0.1,0-0.3,0-0.4,0c-0.1,0-0.3,0-0.4,0c-0.3,0-0.5,0-0.6,0c-0.4,0-0.7,0.3-0.7,0.7C25.3,11.7,25.5,12,25.9,12.1z"/>
	<path id="XMLID_812_" class="st0" d="M32.8,14.6c-0.4,0-0.7,0-1.1,0c-0.3,0-1.3,0-1.6,0c0,0,0,0,0,0c-0.3,0-0.5,0-0.8,0
		c-0.3,0-0.5,0-0.8,0c-0.4,0-0.7,0-1.1,0c-0.5,0-0.8,0.3-0.8,0.7c0,0.2,0.1,0.4,0.2,0.5c0.2,0.2,0.4,0.2,0.7,0.2c0.8,0,1.5,0,2.3,0
		c1,0,2,0,3.1,0c0.5,0,0.9-0.3,0.9-0.7c0-0.2-0.1-0.4-0.2-0.5C33.4,14.6,33.1,14.6,32.8,14.6z"/>
	<path id="XMLID_813_" class="st0" d="M9.5,16.1c0.7,0,1.5,0,2.2,0c0.8,0,1.5,0,2.3,0c0.5,0,0.9-0.3,0.9-0.7c0-0.5-0.3-0.8-0.9-0.8
		c-0.3,0-0.6,0-0.9,0c-0.2,0-1.1,0-1.3,0l-1.4,0c-0.3,0-0.6,0-0.9,0c-0.5,0-0.9,0.3-0.9,0.7c0,0.2,0.1,0.4,0.2,0.5
		C8.9,16,9.2,16.1,9.5,16.1z"/>
	<path id="XMLID_814_" class="st0" d="M9.2,12.1c0.3,0,0.7,0,1,0c0,0,0,0,0,0c0.3,0,0.7,0,1.1,0c0.4,0,0.7-0.4,0.7-0.7
		c0-0.4-0.3-0.7-0.8-0.7c-0.1,0-0.2,0-0.4,0c-0.1,0-0.2,0-0.3,0c-0.1,0-0.2,0-0.3,0c0,0,0,0,0,0c-0.1,0-0.2,0-0.3,0
		c-0.1,0-0.2,0-0.3,0c-0.2,0-0.3,0-0.4,0c-0.4,0-0.7,0.3-0.7,0.7C8.6,11.7,8.9,12.1,9.2,12.1z"/>
	<path id="XMLID_815_" class="st0" d="M23.8,4.9c0.6,0,1.2,0,1.7,0l2.5,0c0,0,0,0,0,0l4.2,0c0.3,0,0.6-0.1,0.8-0.3
		c0.1-0.1,0.2-0.3,0.2-0.5c0-0.5-0.4-0.7-0.9-0.7c-2.5,0-5.1,0-7.6,0l-0.8,0c-0.6,0-1,0.3-1,0.8c0,0.2,0.1,0.4,0.2,0.5
		C23.2,4.8,23.5,4.9,23.8,4.9z"/>
	<path id="XMLID_816_" class="st0" d="M9.8,4.9c0.5,0,0.9-0.4,0.9-0.8c0-0.4-0.4-0.8-0.8-0.8C9.4,3.3,9,3.7,9,4.1
		C9,4.6,9.3,4.9,9.8,4.9z"/>
	<path id="XMLID_817_" class="st0" d="M17,4.9c0.5,0,0.8-0.4,0.8-0.8c0-0.4-0.4-0.8-0.9-0.8c-0.4,0-0.8,0.4-0.8,0.8
		C16.2,4.6,16.6,5,17,4.9z"/>
	<path id="XMLID_818_" class="st0" d="M13.4,4.9c0.4,0,0.8-0.4,0.8-0.8c0-0.4-0.4-0.8-0.8-0.8c-0.4,0-0.8,0.4-0.8,0.8
		C12.6,4.6,13,5,13.4,4.9z"/>
</g>
</svg>
