<?xml version="1.0" encoding="utf-8"?>
<!-- Generator: Adobe Illustrator 19.0.0, SVG Export Plug-In . SVG Version: 6.00 Build 0)  -->
<svg version="1.1" id="Layer_1" xmlns="http://www.w3.org/2000/svg" xmlns:xlink="http://www.w3.org/1999/xlink" x="0px" y="0px"
	 viewBox="0 0 42 42" style="enable-background:new 0 0 42 42;" xml:space="preserve">
<style type="text/css">
	.st0{fill:#FFFFFF;}
</style>
<g id="XMLID_864_">
	<path id="XMLID_1025_" class="st0" d="M39.1,0.1c-10.6,0-21.2,0-31.7,0c-1.6,0-2.6,1-2.6,2.6c0,0.7,0,1.4,0,2.1l0,0.9H4.4
		c-0.4,0-0.9,0-1.3,0c-1.9,0-2.9,0.9-2.9,2.9v26.9c0,1.9,0.9,2.8,2.9,2.8c3.4,0,6.7,0,10.1,0h4.1l0,0.8c0,0.7,0,1.3,0,1.9
		c0,0.9,0.2,1.1,1.1,1.1c1.6,0,3.2,0,4.8,0c1.6,0,3.2,0,4.8,0c0.9,0,1.1-0.2,1.2-1.2c0-0.6,0-1.3,0-1.9l0-0.7l0.1,0
		c0.2,0,0.3,0,0.4,0c0.7,0,1.4,0,2,0c0.9,0,1.8,0,2.7,0c1.8,0,2.7-0.9,2.7-2.8c0-0.7,0-1.3,0-2l0-0.9l0.6,0c0.4,0,0.9,0,1.3,0
		c1.6,0,2.6-1,2.6-2.6c0-9.1,0-18.3,0-27.4C41.7,1.1,40.7,0.1,39.1,0.1z M27.4,33.7c-0.1,0-0.1,0-0.2,0c-0.1-0.5,0-0.7,0.1-0.9
		c0.1-0.1,0.4-0.2,0.8-0.2h7.7c0,0.3,0,0.6,0,0.9c0,0.9,0,1.7,0,2.6c0,0.5-0.5,0.7-0.9,0.7c-1.4,0-2.8,0-4.3,0l-1.5,0v-1.3
		C29.1,34.2,28.7,33.8,27.4,33.7z M17.3,36.9H3c-1,0-1.3-0.3-1.3-1.3c0-9.1,0-18.1,0-27.2c0-1,0.3-1.3,1.3-1.3c0.2,0,0.5,0,0.7,0
		c0.2,0,0.4,0,0.6,0l0.5,0v0.7c0,1.9,0,3.9,0,5.8c0,5.3,0,10.8,0,16.2c0,0.9,0.3,1.6,0.8,2.1c0.5,0.5,1.2,0.8,2.1,0.7
		c2.5-0.1,5,0,7.5,0c1,0,2.1,0,3.1,0c1,0,1,0,1.1,1l-0.1,0c-0.2,0-0.4,0-0.5,0c-0.9,0-1.4,0.5-1.4,1.4c0,0.4,0,0.8,0,1.2L17.3,36.9z
		 M23.6,25.9c-0.2,0.1-0.3,0.2-0.5,0.2c0,0,0,0,0,0c-0.1,0-0.3-0.3-0.3-0.4c0-0.1,0.3-0.4,0.4-0.4c0,0,0,0,0,0
		c0.1,0,0.2,0.1,0.4,0.3c0.1,0.1,0.1,0.1,0.2,0.2C23.7,25.8,23.7,25.8,23.6,25.9z M25.7,33.7h-4.8c-0.1-0.2-0.2-0.4-0.2-0.7
		c-0.2-0.6-0.4-1.1-0.7-1.6c-0.3-0.5-0.8-0.8-1.3-1.2c-0.2-0.1-0.4-0.3-0.6-0.4l4.4-7.9l0,0.2c0,0.6,0,1.2,0,1.8
		c0,0-0.1,0.1-0.2,0.1c0,0-0.1,0-0.1,0.1c-0.8,0.6-1.1,1.4-0.8,2.3c0.2,0.7,1,1.2,1.8,1.2c0,0,0,0,0,0c0.8,0,1.5-0.5,1.8-1.3
		c0.3-0.8,0-1.5-0.8-2.1c-0.2-0.1-0.3-0.4-0.3-0.6c0-0.5,0-1.1,0.1-1.6l4.4,8C26.7,30.7,25.8,31.9,25.7,33.7z M18.7,38.6l0-0.7
		c0-0.8,0-1.6,0-2.4c0-0.1,0.2-0.3,0.2-0.3c2.5,0,5.1,0,7.6,0l1.1,0v5.4h-8.9l0-0.6C18.7,39.6,18.7,39.1,18.7,38.6z M29.9,30.5
		c0.1-0.3,0.1-0.7-0.2-1.2c-1.9-3.4-3.8-6.8-5.5-10c-0.2-0.4-0.6-0.7-1-0.7c0,0,0,0,0,0c-0.4,0-0.7,0.2-1,0.7c-2,3.5-3.8,6.8-5.6,10
		c-0.5,0.9-0.2,1.4,0.6,1.9l-1.8,0c-2.7,0-5.4,0-8.2,0c-0.7,0-1.1-0.4-1.1-1c0-6,0-12,0-17.9l0-3.6c0,0,0,0,0-0.1c0,0,0,0,0,0l2.7,0
		c0.3,0,0.5,0,0.8,0c0.8,0,1.2-0.5,1.2-1.3c0-0.2,0-0.4,0-0.6l0-1c0.3,0,0.7,0,1,0c0.9,0,1.8,0,2.6,0c1.1-0.1,1.9,0.2,2.4,1
		c1.2,1.8,2.8,2,4.5,1.9c4.3-0.1,8.8-0.1,13-0.1c1.7,0,3.3,0,5,0h0.7c0,0,0,0.1,0,0.1c0,0.2,0,0.3,0,0.5c0,6.9,0,13.8,0,20.6
		c0,1.2-0.3,1.4-1.4,1.4h-9.7C29.5,31.1,29.8,30.8,29.9,30.5z M19.9,7.2C19.9,7.2,19.9,7.2,19.9,7.2c-0.4,0-0.7-0.1-0.9-0.4
		c-0.6-0.7-1.2-1.4-1.9-2c-0.3-0.3-0.8-0.5-1.2-0.5c-0.8,0-1.6,0-2.4,0c-0.7,0-1.3,0-1.9,0l-0.6,0c-0.9,0-1.4,0.4-1.4,1.4
		c0,0.4,0,0.7,0,1.1l0,0.4l0,0c-0.1,0-0.1,0-0.2,0c-0.8,0-1.6,0-2.4,0H6.1l0-2.7c0-0.6,0-1.2,0-1.8c0-0.8,0.3-1.1,1.1-1.2
		c0.1,0,0.2,0,0.3,0h31.1c1.4,0,1.6,0.2,1.6,1.5v4.1l-0.1,0c-0.2,0-0.3,0-0.5,0l-5.9,0C29.1,7.2,24.5,7.2,19.9,7.2z"/>
	<path id="XMLID_1110_" class="st0" d="M35.8,12.5c-1.1-0.2-2.1,0.4-2.5,1.3c-0.1,0.4-0.3,0.4-0.7,0.4c-1.4,0-2.8,0-4.2,0
		c-0.8,0-1.5,0-2.3,0c-0.1,0-0.3,0-0.4,0c0,0-0.1,0-0.1,0l0-0.1c0-0.2,0-0.4,0-0.5c0-0.7-0.5-1.2-1.2-1.2c-0.9,0-1.7,0-2.6,0
		c-0.7,0-1.1,0.5-1.2,1.2c0,0.2,0,0.3,0,0.5c0,0.1,0,0.1,0,0.2l-2.3,0c-1.5,0-3,0-4.6,0c-0.4,0-0.6-0.1-0.8-0.5
		c-0.4-0.9-1.4-1.4-2.4-1.2c-1.1,0.2-1.8,0.9-2,2c-0.1,1,0.4,2,1.4,2.4c0.9,0.4,2.2,0.2,2.7-0.7c0.4-0.6,0.8-0.6,1.4-0.6
		c0.7,0,1.5,0,2.2,0c0.3,0,0.6,0,0.9,0h0.4c-0.1,0.1-0.2,0.2-0.3,0.2c-2.4,1.5-4,3.6-4.8,6.2c-0.1,0.5-0.3,0.6-0.7,0.6
		c0,0,0,0-0.1,0c-0.9,0-1.3,0.4-1.3,1.4c0,0.7,0,1.5,0,2.3c0,0.8,0.5,1.3,1.2,1.3c0.8,0,1.7,0,2.5,0c0.8,0,1.2-0.5,1.2-1.2
		c0-0.9,0-1.7,0-2.5c0-0.6-0.4-1.1-1.1-1.2c-0.1,0-0.3,0-0.4-0.1l0,0c0.7-3,3.9-6.1,6.7-6.6c0.4,1,0.6,1.2,1.8,1.2
		c0.1,0,0.3,0,0.4,0c0.3,0,0.6,0,0.9,0c0.6,0,1.2,0,1.6-0.3c0.2-0.2,0.4-0.5,0.4-0.9c3.1,0.7,6.2,3.8,6.7,6.6
		c-1,0.2-1.3,0.5-1.4,1.4c0,0.8,0,1.5,0,2.3c0,0.8,0.5,1.3,1.3,1.3c0.4,0,0.8,0,1.2,0s0.8,0,1.2,0c0.8,0,1.2-0.5,1.3-1.3
		c0-0.6,0-1.2,0-1.7l0-0.3c0-1.2-0.4-1.6-1.6-1.6c-0.3,0-0.4-0.1-0.6-0.4c-0.8-2.8-2.6-5-5.1-6.5c0,0-0.1-0.1-0.1-0.1l0.7,0
		c1.3,0,2.5,0,3.7,0c0.1,0,0.3,0.2,0.4,0.3c0.7,1,1.7,1.3,2.8,1c1-0.3,1.6-1.3,1.5-2.4C37.7,13.6,37,12.8,35.8,12.5z M36.4,14.8
		c0,0.5-0.4,0.9-0.9,0.9c0,0,0,0,0,0c-0.2,0-0.5-0.1-0.7-0.3c-0.2-0.2-0.3-0.4-0.3-0.6c0-0.5,0.5-0.9,0.9-0.9c0,0,0,0,0,0
		C35.9,13.9,36.4,14.4,36.4,14.8z M24.2,13.8v2h-2.1v-2H24.2z M11.8,14.8c0,0.3-0.1,0.5-0.2,0.7c-0.2,0.2-0.4,0.2-0.6,0.2
		c0,0,0,0,0,0c-0.2,0-0.5-0.1-0.6-0.3c-0.2-0.2-0.3-0.4-0.3-0.7c0-0.3,0.1-0.5,0.3-0.7c0.2-0.2,0.4-0.3,0.6-0.3c0,0,0,0,0,0
		C11.4,13.9,11.8,14.3,11.8,14.8z M13.9,24.2v2h-2v-2H13.9z M32.5,26.3v-2h2v2H32.5z"/>
	<path id="XMLID_1117_" class="st0" d="M37.6,2.6C37.6,2.6,37.6,2.6,37.6,2.6c-0.5,0-0.9,0.2-1.3,0.5c-0.3,0.3-0.5,0.8-0.5,1.2
		c0,0.9,0.8,1.7,1.7,1.7c0,0,0,0,0,0c0.9,0,1.7-0.8,1.7-1.7C39.3,3.4,38.6,2.6,37.6,2.6z M37.6,4.6c-0.1,0-0.2-0.1-0.2-0.2
		c0,0,0,0,0,0c0,0,0,0,0,0c0.1-0.1,0.2-0.2,0.2-0.2c0,0,0.2,0.1,0.2,0.2c0,0,0.1,0,0.1,0.1c0,0-0.1,0.1-0.1,0.1
		C37.7,4.5,37.6,4.6,37.6,4.6z"/>
	<path id="XMLID_1120_" class="st0" d="M30,2.6C30,2.6,30,2.6,30,2.6c-1,0-1.7,0.8-1.7,1.7c0,0.9,0.8,1.7,1.7,1.7c0,0,0,0,0,0
		c0.4,0,0.9-0.2,1.2-0.5c0.3-0.3,0.5-0.8,0.5-1.3C31.7,3.4,30.9,2.6,30,2.6z M30.2,4.3c0,0.1-0.1,0.2-0.2,0.2c0,0,0,0,0,0
		c0,0,0,0,0,0c-0.1-0.1-0.2-0.2-0.2-0.2c0,0,0.1-0.1,0.2-0.2c0,0,0.1-0.1,0.1-0.1C30,4,30,4.1,30,4.1C30.1,4.2,30.2,4.3,30.2,4.3z"
		/>
	<path id="XMLID_1123_" class="st0" d="M33.8,2.6C33.8,2.6,33.8,2.6,33.8,2.6c-1,0-1.7,0.7-1.7,1.7c0,0.5,0.2,0.9,0.5,1.3
		c0.3,0.3,0.7,0.5,1.2,0.5c0,0,0,0,0,0c0.9,0,1.7-0.8,1.7-1.8C35.5,3.4,34.7,2.6,33.8,2.6z M34.1,4.3C34.1,4.4,34,4.4,34.1,4.3
		c-0.2,0.2-0.2,0.2-0.3,0.3c-0.1,0-0.2-0.2-0.3-0.3c0-0.1,0.2-0.2,0.2-0.2c0,0,0,0,0,0C33.8,4.1,33.9,4.2,34.1,4.3
		C34.1,4.3,34.1,4.3,34.1,4.3z"/>
</g>
</svg>
