<?xml version="1.0" encoding="utf-8"?>
<!-- Generator: Adobe Illustrator 19.0.0, SVG Export Plug-In . SVG Version: 6.00 Build 0)  -->
<svg version="1.1" id="Layer_1" xmlns="http://www.w3.org/2000/svg" xmlns:xlink="http://www.w3.org/1999/xlink" x="0px" y="0px"
	 viewBox="0 0 42 42" style="enable-background:new 0 0 42 42;" xml:space="preserve">
<style type="text/css">
	.st0{fill:#FFFFFF;}
</style>
<g id="XMLID_26_">
	<path id="XMLID_131_" class="st0" d="M1.2,23.5c-0.2,0.2-0.8,0.5-1,0.3c-0.3-0.2-0.1-0.9,0.1-1.1c1.2-1.3,2.4-2.5,3.7-3.7
		c0.2-0.2,1-0.2,1.2,0c1.3,1.2,2.5,2.4,3.6,3.6c0.2,0.2,0.4,0.8,0.2,1.1C8.8,24,8.2,23.7,8,23.4c-0.8-0.8-1.6-1.5-2.6-2.6
		c-0.2,2.1,0.2,3.7,0.7,5.3c2.1,6.1,7.7,10.4,13.8,10.7c6.8,0.3,12.6-3.2,15.5-9.3c0.2-0.4,0.6-1.1,1.1-1c0.6,0.3,0.3,1.1,0.1,1.5
		c-3,6.2-7.8,9.7-14.7,10.1c-8.1,0.5-15.3-5-17.3-12.8C4.2,24,4,22.4,4,21C3.8,20.9,2.1,22.7,1.2,23.5z"/>
	<path id="XMLID_130_" class="st0" d="M36.8,21.7c0-2.6-0.6-5.3-1.7-7.5c-3.2-5.9-8.2-9-14.9-8.7C13.9,5.9,9.4,9.1,6.7,14.8
		c-0.1,0.1-0.1,0.2-0.2,0.3c-0.2,0.5-0.6,0.9-1,0.7c-0.5-0.4-0.3-0.9-0.2-1.2C6,13.4,6.6,12.1,7.4,11c4.1-5.3,9.6-7.6,16.2-6.5
		c7.2,1.1,11.8,5.6,13.8,12.6c0.4,1.4,0.4,2.9,0.7,4.8c0.9-1.1,1.6-2,2.4-2.7c0.3-0.3,0.9-0.7,1.2-0.4c0.3,0.3,0,1-0.3,1.2
		c-1.1,1.2-2.4,2.4-3.5,3.6c-0.5,0.5-0.9,0.5-1.3,0c-1.2-1.2-2.4-2.4-3.6-3.7c-0.2-0.2-0.5-0.8-0.2-1.1c0.3-0.3,0.8,0,1,0.2
		C34.7,19.7,36.6,21.8,36.8,21.7z"/>
	<path id="XMLID_32_" class="st0" d="M20.9,8.6c3.1,0,5.8,2.6,5.9,5.7c0.1,3.1-2.5,5.8-5.7,5.8c-3.1,0.1-5.8-2.5-5.9-5.7
		C15.1,11.4,17.8,8.6,20.9,8.6z M20.9,18.8c2.5,0,4.5-1.8,4.5-4.3c0-2.4-1.9-4.5-4.3-4.6c-2.4-0.1-4.4,1.9-4.5,4.4
		C16.5,16.8,18.4,18.8,20.9,18.8z"/>
	<path id="XMLID_29_" class="st0" d="M21,21.2c4.9,0,9.2,4.1,9.2,8.8c0,0.4,0,1.1-0.5,1.1c-0.7,0-0.7-0.7-0.7-1.1
		c-0.3-4.2-3.8-7.5-8-7.6c-4.2,0-7.8,3.3-8.1,7.5c0,0.4-0.2,1.1-0.6,1.1c-0.4,0-0.6-0.7-0.6-1.1C11.7,25.3,16,21.2,21,21.2z"/>
</g>
</svg>
