<?xml version="1.0" encoding="utf-8"?>
<!-- Generator: Adobe Illustrator 19.0.0, SVG Export Plug-In . SVG Version: 6.00 Build 0)  -->
<svg version="1.1" id="Layer_1" xmlns="http://www.w3.org/2000/svg" xmlns:xlink="http://www.w3.org/1999/xlink" x="0px" y="0px"
	 viewBox="0 0 42 42" style="enable-background:new 0 0 42 42;" xml:space="preserve">
<style type="text/css">
	.st0{fill:#1B3ECD;}
</style>
<g id="XMLID_1231_">
	<path id="XMLID_1264_" class="st0" d="M42,10.2c0-1.8-1.2-3-3-3c-2.2,0-4.4,0-7,0l-2.2,0c0,0,0,0-0.1,0h0c-0.1,0-0.3,0-0.4,0
		c-0.2,0.1-0.3,0.3-0.3,0.4c0,0,0,0.1,0,0.2C29,7.9,29.2,8,29.3,8.1c0.1,0,0.3,0,0.4,0l0.1,0l8.9,0c1.6,0,2.3,0.7,2.3,2.3l0,18.5
		c0,0.2,0,0.4,0,0.4c0,0-0.3,0-0.5,0H1v-19c0-1.4,0.7-2.1,2.1-2.2c0.2,0,0.3-0.1,0.4-0.2l0,0c0,0,0.1-0.1,0.1-0.1L4,7.6
		C4,13.1,4,19.1,4,26c0,0.3,0.1,0.5,0.2,0.6c0.1,0.1,0.3,0.2,0.6,0.2c6.9,0,14.2,0,22.6,0c0.3,0,0.5-0.1,0.6-0.2
		c0.1-0.1,0.2-0.3,0.2-0.6c0-1.4,0-2.8,0-4.1l0-1.2c0-0.1,0-0.2,0-0.4l0,0l2.6,0c2,0,4.1,0,6.2,0h0c0.3,0,0.5-0.1,0.7-0.2
		c0.1-0.1,0.2-0.4,0.2-0.7c0-2.3,0-4.3,0-6.2c0-0.4-0.1-0.6-0.2-0.7c-0.1-0.1-0.4-0.2-0.7-0.2h0c-2.1,0-4.3,0-6.1,0l-2.6,0l0-3
		c0-2.5,0-5.1,0-7.7c0-0.3-0.1-0.5-0.2-0.7c-0.1-0.1-0.3-0.2-0.7-0.2c-6.7,0-14,0-22.4,0c-0.3,0-0.5,0.1-0.7,0.2C4.1,1,4,1.2,4,1.5
		c0,2,0,4,0,6.1L3.7,7.4c0,0-0.1,0-0.1-0.1C3.4,7.3,3.3,7.2,3.1,7.2c-0.1,0-0.1,0-0.2,0c-0.8,0-1.5,0.3-2,0.8C0.3,8.5,0,9.3,0,10.1
		c0,4.6,0,9.3,0,13.9l0,8.2c0,2.1,1.1,3.3,3.2,3.3l12.8,0v3.8h-0.5c-0.5,0-1,0-1.5,0c-0.7,0-1,0.3-1,1c0,0.4,0.1,0.6,0.2,0.8
		c0.2,0.2,0.4,0.2,0.8,0.2l6.8,0c2.3,0,4.7,0,6.9,0c0.7,0,1-0.3,1-1c0-0.4-0.1-0.6-0.2-0.8c-0.2-0.2-0.4-0.2-0.8-0.2
		c-0.5,0-1,0-1.5,0h-0.4v-3.8l5.5,0c2.5,0,5,0,7.5,0c1.9,0,3.1-1.2,3.1-3.1C42,24.4,42,17.1,42,10.2z M21.8,14.4c0-0.3,0-0.5,0-0.8
		v-0.4h15v6.1c-0.1,0-0.3,0-0.4,0h-3.7c-3.4,0-7,0-10.5,0c-0.2,0-0.3,0-0.4-0.1c0,0-0.1-0.2-0.1-0.4c0-1.3,0-2.5,0-3.7L21.8,14.4z
		 M27.2,12.3l-2,0c-1.1,0-2.3,0-3.4,0c0,0,0,0,0,0c-0.3,0-0.5,0.1-0.6,0.2c-0.1,0.1-0.2,0.3-0.2,0.6c0,2.1,0,4.3,0,6.3
		c0,0.3,0.1,0.5,0.2,0.7c0.1,0.1,0.4,0.2,0.7,0.2c1.3,0,2.6,0,3.7,0l1.3,0c0.1,0,0.2,0,0.4,0l0,0v5.5H5V1.7h22.2V12.3z M1,33
		c-0.1-0.7,0-1.3,0-2c0-0.2,0-0.5,0-0.7h40c0,0.2,0,0.5,0,0.7c0,0.7,0,1.3,0,1.9c0,0.8-0.7,1.5-1.5,1.6c-0.2,0-0.5,0.1-0.7,0.1
		c-11,0-23.4,0-35.6,0c-0.4,0-0.8-0.1-1.1-0.2C1.5,34.2,1.1,33.7,1,33z M22.4,40.3l0.8,0c1.5,0,3,0,4.5,0c0.1,0,0.2,0,0.2,0.1
		c0,0-0.1,0-0.1,0c0,0-0.1,0-0.1,0c-5.5,0-9.6,0-13.3,0c-0.1,0-0.2,0-0.2-0.1c0,0,0.1,0,0.1,0c0,0,0.1,0,0.2,0c1.7,0,3.3,0,5,0
		L22.4,40.3z M17.1,39.4v-3.8h7.8v3.8H17.1z"/>
	<path id="XMLID_1273_" class="st0" d="M21,34c0.4,0,0.8-0.2,1.1-0.4c0.3-0.3,0.5-0.7,0.5-1.1c0-0.4-0.1-0.8-0.4-1.1
		c-0.3-0.3-0.7-0.5-1.1-0.5l0,0c-0.8,0-1.6,0.7-1.6,1.5c0,0.4,0.1,0.8,0.4,1.1C20.2,33.8,20.6,33.9,21,34z M20.4,32.4
		c0-0.3,0.3-0.6,0.6-0.6c0.3,0,0.6,0.3,0.6,0.6c0,0.3-0.3,0.6-0.6,0.6c-0.1,0-0.3-0.1-0.4-0.2C20.4,32.7,20.4,32.5,20.4,32.4z"/>
	<path id="XMLID_1277_" class="st0" d="M20,21.9C20,21.9,20,21.9,20,21.9c-1.4,0-2.8,0-4.2,0l-0.5,0c-1.2,0-2.3,0-3.5,0
		c-1.5,0-3.2,0-4.8,0c-0.4,0-0.6,0.1-0.7,0.2c-0.1,0.2-0.2,0.4-0.2,0.7c0,0.3,0,0.7,0,1c0,0.2,0,0.3,0,0.5c0,0.8,0.1,0.9,0.9,0.9
		l9.5,0c1.2,0,2.4,0,3.6,0c0.3,0,0.5-0.1,0.6-0.2c0.1-0.1,0.2-0.3,0.2-0.6c0-0.4,0-1,0-1.5c0-0.3,0-0.6-0.2-0.7
		C20.6,22,20.4,21.9,20,21.9z M19.9,22.9v1.3H7.1v-1.3H19.9z"/>
	<path id="XMLID_1281_" class="st0" d="M14.1,12.1c0.1,0.1,0.3,0.2,0.5,0.2c0,0,0,0,0,0c0.5,0,1.1,0,1.6,0l1.7,0c0.6,0,1.2,0,1.8,0
		c0.3,0,0.4-0.1,0.5-0.2c0.1-0.1,0.2-0.3,0.2-0.5c0-1.7,0-3.5,0-5.2c0-0.2-0.1-0.4-0.2-0.5c-0.1-0.1-0.3-0.2-0.5-0.2
		c-1.7,0-3.5,0-5.1,0c-0.3,0-0.4,0.1-0.5,0.2C14,6.1,14,6.2,14,6.5c0,1.6,0,3.4,0,5.1C14,11.9,14,12,14.1,12.1z M15,11.3V6.8h4.5
		v4.5H15z"/>
	<path id="XMLID_1289_" class="st0" d="M6.8,12.3c0.6,0,1.1,0,1.7,0H10c0.6,0,1.1,0,1.7,0h0c0.3,0,0.4-0.1,0.5-0.2
		c0.1-0.1,0.2-0.3,0.2-0.6c0-1.5,0-3.1,0-4.9c0-0.3-0.1-0.5-0.2-0.6C12.1,6,12,5.9,11.7,5.9c-1.4,0-3,0-4.9,0c-0.3,0-0.4,0-0.6,0.2
		C6.1,6.2,6.1,6.4,6.1,6.7c0,1.6,0,3.3,0,4.9c0,0.3,0.1,0.4,0.2,0.6C6.4,12.3,6.6,12.3,6.8,12.3z M7.1,7c0,0,0.1-0.1,0.1-0.1
		c1.2,0,2.3,0,3.5,0l0.8,0v4.4H7v-0.7C7,9.6,7,8.3,7.1,7z"/>
	<path id="XMLID_1290_" class="st0" d="M6.4,14L6.4,14c0.2,0.1,0.3,0.2,0.5,0.2c1.5,0,3,0,4.6,0c1.5,0,3,0,4.5,0
		c0.2,0,0.3-0.1,0.5-0.2c0,0,0.1-0.1,0.1-0.1l0.4-0.2l-0.4-0.2c0,0-0.1,0-0.1-0.1l0,0c-0.1-0.1-0.3-0.2-0.5-0.2c-1.1,0-2.2,0-3.2,0
		l-1.3,0l-1.2,0c-1.1,0-2.3,0-3.4,0c-0.2,0-0.3,0.1-0.5,0.2l0,0.1v0l0,0c0,0-0.1,0-0.1,0.1l-0.4,0.2l0.4,0.2C6.3,13.9,6.3,14,6.4,14
		z"/>
	<path id="XMLID_1291_" class="st0" d="M6.4,17.8L6.4,17.8C6.6,17.9,6.7,18,6.9,18c0.8,0,1.6,0,2.4,0l3,0c1,0,2,0,3,0h0.2
		c0.1,0,0.1,0,0.2,0c0.2,0,0.4,0,0.5,0c0.2,0,0.4-0.2,0.4-0.4c0-0.2-0.2-0.4-0.3-0.4C16.2,17,16.1,17,16,17l-0.1,0c0,0,0,0,0,0
		l-1.3,0c-3.1,0-5.5,0-7.7,0c-0.2,0-0.4,0.1-0.5,0.2l0,0c0,0-0.1,0.1-0.1,0.1l-0.4,0.2l0.4,0.2C6.3,17.7,6.4,17.8,6.4,17.8z"/>
	<path id="XMLID_1293_" class="st0" d="M6.4,15.9c0.1,0.1,0.3,0.2,0.5,0.2c1.4,0,2.8,0,4.2,0c1.4,0,2.8,0,4,0c0.2,0,0.3-0.1,0.5-0.2
		c0,0,0.1-0.1,0.1-0.1l0.4-0.2l-0.4-0.2c0,0-0.1-0.1-0.1-0.1c-0.1-0.1-0.3-0.2-0.5-0.2c-1,0-2.1,0-3.2,0c-0.6,0-1.3,0-1.9,0H9.3
		c-0.8,0-1.7,0-2.5,0c-0.2,0-0.3,0.1-0.4,0.2c0,0-0.1,0.1-0.1,0.1l-0.4,0.2l0.3,0.2C6.3,15.9,6.3,15.9,6.4,15.9L6.4,15.9
		C6.4,15.9,6.4,15.9,6.4,15.9L6.4,15.9z"/>
	<path id="XMLID_1302_" class="st0" d="M7.5,4.7L7.5,4.7c0.8,0,1.4-0.6,1.4-1.4c0-0.4-0.1-0.7-0.4-1c-0.3-0.3-0.6-0.4-1-0.4
		c-0.4,0-0.7,0.1-1,0.4c-0.3,0.3-0.4,0.6-0.4,1c0,0.4,0.2,0.7,0.4,1C6.8,4.5,7.1,4.7,7.5,4.7z M7.1,3.3c0-0.1,0-0.2,0.1-0.3
		c0.1-0.1,0.2-0.1,0.3-0.1c0.3,0,0.4,0.1,0.4,0.4c0,0.3-0.2,0.4-0.4,0.4c-0.1,0-0.2,0-0.3-0.1C7.1,3.5,7.1,3.4,7.1,3.3z"/>
	<path id="XMLID_1303_" class="st0" d="M6.3,19.4c0.1,0.1,0.2,0.2,0.4,0.2c0.2,0,0.5,0,0.8,0l0.5,0c0.1,0,0.3,0,0.4,0l0.5,0
		c0.4,0,0.8,0,1.3,0c0.2,0,0.3-0.1,0.4-0.2c0,0,0.1-0.1,0.1-0.1l0.2-0.2l-0.2-0.2c0,0,0,0-0.1-0.1l0,0c-0.1-0.1-0.2-0.2-0.4-0.2
		c-1.2,0-2.3,0-3.5,0c-0.2,0-0.3,0.1-0.4,0.2c0,0,0,0-0.1,0.1L6,19.1L6.3,19.4C6.2,19.3,6.3,19.3,6.3,19.4z"/>
	<path id="XMLID_1304_" class="st0" d="M22.9,3.4L22.9,3.4c0.1,0.1,0.2,0.2,0.4,0.2c0.1,0,0.3,0,0.4,0c0.1,0,0.2,0,0.3,0l0.1,0
		c0,0,0.1,0,0.1,0l0,0l0.2,0c0.2,0,0.5,0,0.7,0c0.2,0,0.3-0.1,0.3-0.2c0,0,0-0.1,0.1-0.1l0.2-0.2l-0.2-0.2c0,0,0,0-0.1-0.1
		c-0.1-0.1-0.2-0.2-0.4-0.2c-0.7,0-1.4,0-2,0c-0.2,0-0.3,0.1-0.4,0.2c0,0,0,0-0.1,0.1l-0.2,0.2L22.9,3.4C22.9,3.3,22.9,3.4,22.9,3.4
		z"/>
	<path id="XMLID_1305_" class="st0" d="M15.4,3.4L15.4,3.4c0.1,0.1,0.2,0.2,0.4,0.2c0.4,0,0.7,0,1.1,0c0.3,0,0.6,0,1,0
		c0.2,0,0.3-0.1,0.4-0.2c0,0,0.1-0.1,0.1-0.1l0.2-0.2L18.3,3c0,0,0,0-0.1-0.1l0,0c-0.1-0.1-0.2-0.2-0.4-0.2c-0.2,0-0.5,0-0.7,0
		l-0.1,0c-0.2,0-0.3,0-0.5,0c-0.2,0-0.5,0-0.8,0c-0.2,0-0.3,0.1-0.4,0.2c0,0,0,0-0.1,0.1l-0.2,0.2L15.4,3.4
		C15.4,3.3,15.4,3.3,15.4,3.4z"/>
	<path id="XMLID_1306_" class="st0" d="M11.7,3.4L11.7,3.4L11.7,3.4L11.7,3.4L11.7,3.4L11.7,3.4L11.7,3.4c0.1,0.1,0.2,0.2,0.4,0.2
		c0.1,0,0.2,0,0.4,0c0.1,0,0.2,0,0.3,0c0.1,0,0.2,0,0.2,0l0.3,0c0.2,0,0.4,0,0.7,0c0.2,0,0.3-0.1,0.4-0.2c0,0,0.1-0.1,0.1-0.1
		l0.3-0.2l-0.3-0.2c0,0,0,0-0.1-0.1l0,0c-0.1-0.1-0.2-0.2-0.4-0.2c-0.7,0-1.3,0-1.9,0c-0.2,0-0.3,0.1-0.4,0.2c0,0-0.1,0.1-0.1,0.1
		l-0.3,0.2L11.7,3.4C11.7,3.4,11.7,3.4,11.7,3.4z"/>
	<path id="XMLID_1307_" class="st0" d="M19.1,3.3L19.1,3.3c0.1,0.1,0.2,0.2,0.4,0.2c0.1,0,0.3,0,0.4,0c0.1,0,0.2,0,0.3,0
		c0.1,0,0.2,0,0.3,0c0.1,0,0.1,0,0.2,0h0l0.2,0c0.2,0,0.5,0,0.7,0c0.2,0,0.3-0.1,0.4-0.2c0,0,0-0.1,0.1-0.1l0.2-0.2L22,2.9
		c0,0,0,0-0.1-0.1c-0.1-0.1-0.2-0.2-0.4-0.2c-0.6,0-1.3,0-2,0c-0.2,0-0.3,0.1-0.4,0.2c0,0-0.1,0-0.1,0.1l-0.2,0.2L19.1,3.3
		C19.1,3.3,19.1,3.3,19.1,3.3z"/>
	<path id="XMLID_1308_" class="st0" d="M26.5,15.7L26.5,15.7L26.5,15.7c0.2,0.1,0.3,0.2,0.5,0.2c0.6,0,1.2,0,1.9,0
		c0.2,0,0.5,0,0.7,0l1.2,0l1.9,0c0.8,0,1.4,0,2,0c0.2,0,0.4-0.1,0.5-0.2c0,0,0.1-0.1,0.1-0.1l0.4-0.2l-0.4-0.2c0,0-0.1,0-0.1-0.1
		l0,0c-0.1-0.1-0.3-0.2-0.5-0.2c-2.5,0-5.1,0-7.7,0c-0.2,0-0.3,0.1-0.5,0.2c0,0-0.1,0.1-0.1,0.1l-0.4,0.2L26.5,15.7
		C26.5,15.6,26.5,15.6,26.5,15.7z"/>
	<path id="XMLID_1311_" class="st0" d="M24.6,17.9L24.6,17.9c0.7,0,1.3-0.4,1.5-1l0.1,0.1c0,0,0.1,0.1,0.1,0.1l0,0
		c0.1,0.1,0.2,0.2,0.4,0.2c1.2,0,2.3,0,3.4,0c1.1,0,2.2,0,3.2,0c0.2,0,0.3-0.1,0.5-0.2c0,0,0.1-0.1,0.1-0.1l0.3-0.2L34,16.7
		c0,0-0.1,0-0.1-0.1l0,0c-0.1-0.1-0.3-0.2-0.4-0.2c-0.8,0-1.7,0-2.4,0h-0.1c-0.5,0-1,0-1.6,0h-0.5c-0.7,0-1.4,0-2,0
		c-0.2,0-0.3,0.1-0.4,0.2c0,0-0.1,0-0.1,0.1l0,0c0-0.1,0.1-0.3,0.1-0.4c0-0.9-0.7-1.7-1.6-1.7h0c-0.4,0-0.9,0.2-1.2,0.5
		c-0.3,0.3-0.5,0.7-0.5,1.2C23,17.2,23.7,17.9,24.6,17.9z M24.7,17L24.7,17L24.7,17L24.7,17c-0.2,0-0.4-0.1-0.5-0.2
		c-0.1-0.1-0.2-0.3-0.2-0.5c0-0.4,0.3-0.7,0.7-0.7c0.4,0,0.7,0.3,0.7,0.7C25.4,16.6,25.1,17,24.7,17z"/>
</g>
</svg>
