<?xml version="1.0" encoding="utf-8"?>
<!-- Generator: Adobe Illustrator 19.0.0, SVG Export Plug-In . SVG Version: 6.00 Build 0)  -->
<svg version="1.1" id="Layer_1" xmlns="http://www.w3.org/2000/svg" xmlns:xlink="http://www.w3.org/1999/xlink" x="0px" y="0px"
	 viewBox="0 0 42 42" style="enable-background:new 0 0 42 42;" xml:space="preserve">
<style type="text/css">
	.st0{fill:#FFFFFF;}
</style>
<g id="XMLID_2_">
	<path id="XMLID_12_" class="st0" d="M37.1,37.3c-0.1-0.1-0.2-0.2-0.4-0.2h0c-0.6,0-1.2,0-1.8,0l-0.7,0c-0.9,0-1-0.2-1-1.1
		c0-1.1,0-2.3,0-3.4V30l-0.3,0l0.4-0.1c0.1,0,0.2-0.1,0.3-0.1c0.2-0.1,0.3-0.2,0.5-0.2c0.5,0,0.9,0,1.4,0c0.4,0,0.8,0,1.2,0
		c0.2,0,0.3-0.1,0.4-0.2c0,0,0.1-0.1,0.1-0.1l0.3-0.2l-0.3-0.2c0,0-0.1-0.1-0.1-0.1c-0.1-0.1-0.3-0.2-0.4-0.2c-0.5,0-1,0-1.5,0
		c-0.4,0-0.8,0-1.2,0c0,0,0,0,0,0c-0.8,0-1.2,0.4-1.5,1.1l0-0.2l-0.2,0c-0.5,0-0.8-0.2-1.2-0.7c-0.2-0.3-0.5-0.6-0.7-0.9
		c-0.2-0.3-0.4-0.6-0.7-0.8c-0.2-0.2-0.3-0.5-0.3-0.7c0-1.8,0-3.6,0-5.4l0-2c0-0.1,0-0.3,0-0.5c-0.1-0.2-0.3-0.3-0.4-0.3
		c-0.2,0-0.4,0.2-0.4,0.4c0,0.1,0,0.3,0,0.4l0,6.9c-0.6-0.4-0.8-0.8-0.8-1.5c0-5.3,0-10.7,0-15.9l0-4.3c0-1.5-0.8-2.3-2.3-2.3
		c-1.1,0-2.3,0-3.4,0l-1.5,0l-1.9,0c-2.7,0-5.3,0-8,0c-0.1,0-2.3-0.2-3,0.3C7.1,2.6,7,3.3,7,4.2V37l0,0.1c0,0.1,0,0.2,0,0.4
		c0,1.2,0.8,2.2,1.9,2.4c0.6,0.1,1.2,0.1,1.7,0.1l0.3,0c1.6,0,3.2,0,4.8,0c2.9,0,5.9,0,8.9,0c1.6,0,2.6-0.6,3-1.8h0.8
		c0.1,0.7-0.1,1.4-0.5,1.9c-0.5,0.5-1.2,0.8-2,0.8c-4.5,0-9,0-13.5,0l-3.7,0c-1.9,0-2.7-0.9-2.7-2.7l0-4.2c0-5.4,0-10.7,0-16.1h0
		v-2.8c0-0.1,0-0.2,0-0.3c0,0,0-0.1,0-0.1V3.6c0-1.8,0.9-2.7,2.7-2.7c5.7,0,11.4,0,17,0c1.7,0,2.7,0.9,2.7,2.7v2.8
		c0,2.9,0,5.9,0,8.8c0,0.2,0.1,0.7,0.3,0.8l0.1,0.1l0.1,0c0.5-0.1,0.5-0.5,0.5-0.7c0-0.1,0-0.1,0-0.1c0-1.3,0-2.6,0-3.9
		c0-2.5,0-5.2,0-7.8c0-1-0.3-2-1-2.6c-0.7-0.6-1.6-1-2.6-1c-2,0-4,0-6,0c-0.9,0-1.7,0-2.6,0l-2.6,0c-2.1,0-4.1,0-6.2,0
		c-2,0-3.4,1.3-3.4,3.4l0,7.6l0,3.8c0,0,0,0.1,0,0.1c0,0.1,0,0.1,0,0.2V18h0c0,5.6,0,11.3,0,16.9l0,3.6c0,2.1,1.3,3.5,3.5,3.5
		c2.1,0,4.1,0,6.2,0l2.6,0l2.6,0c0.9,0,1.7,0,2.6,0c1.2,0,2.3,0,3.5,0c2,0,3.3-1.3,3.3-3.3c0-0.1,0-0.2,0-0.4l0,0
		c1,0.1,1.9-0.1,2.6-0.7c0.2-0.1,0.5-0.2,0.8,0.1c0.2,0.2,0.6,0.4,0.9,0.4c1.1,0,2.1,0,2.9,0c0.2,0,0.3-0.1,0.4-0.2
		c0,0,0.1-0.1,0.1-0.1l0.2-0.2l-0.3-0.1C37.2,37.4,37.1,37.4,37.1,37.3z M7.9,4c0-0.9,0.4-1.4,1.4-1.4c5.4,0,10.8,0,16.2,0
		c1,0,1.4,0.4,1.4,1.4c0,6.7,0,13.4,0,20.1c0,0.1,0,0.1,0,0.2c-0.1-0.1-0.2-0.2-0.2-0.3c-0.3-0.6-0.6-1.3-0.8-2
		c-0.3-1-1.2-1.6-2.3-1.4c-0.3,0.1-0.4,0.2-0.5,0.3c-0.1,0.2-0.1,0.4,0,0.6l0,0.1l-0.1,0c-0.3-0.1-0.5-0.1-0.6,0
		c-0.2,0.1-0.2,0.3-0.3,0.5c0,0.1,0,0.2,0,0.2l-2.7,0c-2.3,0-4.7,0-7,0c-0.4,0-0.9,0.1-1.2,0.3c-0.7,0.4-1.1,1.3-0.9,2.2
		c0.2,0.9,1,1.5,2,1.5c1.3,0,2.5,0,3.7,0c1.3,0,2.6,0,3.9,0c1.1,0,2.2,0,3.3,0c0,0,0,0,0,0c0.1,0,0.1,0,0.1,0
		c0.2,0.3,0.3,0.5,0.5,0.8l0,0.1l-0.4,0c-0.3,0-0.6,0-0.9,0c-0.7,0-1.4,0-2.1,0c-0.7,0-1.3,0.3-1.7,0.9c-0.1,0.2-0.2,0.4-0.3,0.6
		l-0.3-0.1c0,0-0.1-0.1-0.1-0.1c-0.1-0.1-0.3-0.2-0.5-0.2c-1.9,0-3.7,0-5.4,0c-0.3,0-0.7,0.1-1,0.2c-0.8,0.4-1.2,1.3-0.9,2.2
		c0.2,0.8,1,1.4,1.9,1.4c2,0,3.9,0,5.9,0c0.2,0,0.3,0.1,0.4,0.1c0.2,0.2,0.4,0.5,0.5,0.7c0,0.1,0.1,0.1,0.1,0.2l-0.2,1.2h-11l0,0
		c0-0.1,0-0.2,0-0.3C7.9,24.1,7.9,14.1,7.9,4z M22.8,25.5c-0.1,0-0.3,0-0.4,0c-0.7,0-1.4,0-2.2,0c-1.2,0-6,0-6.3,0
		c-0.2,0-0.4,0-0.6,0c-0.3,0-0.6,0-0.8,0c-0.8,0-1.3-0.4-1.3-1.1c0-0.3,0.1-0.5,0.3-0.7c0.2-0.2,0.6-0.4,1-0.4c3.1,0,6.3,0,9.4,0
		c0.1,0,0.2,0,0.2,0L22.8,25.5z M18.5,29.8c0.1,0.2,0.2,0.4,0.3,0.6c0,0,0.1,0.1,0.1,0.1c0,0,0,0.1-0.1,0.1
		c-0.1,0.1-0.2,0.3-0.3,0.4c-0.1,0.1-0.3,0.2-0.3,0.2c-1.8,0-3.9,0-6.1,0c-0.2,0-0.5-0.1-0.7-0.3c-0.2-0.2-0.5-0.6-0.3-1.1
		c0.2-0.5,0.5-0.7,1-0.7c0.5,0,1,0,1.4,0c0.1,0,0.2,0,0.3,0c1.2,0,2.4,0,3.6,0c0.2,0,0.3-0.1,0.5-0.2c0.1,0,0.1-0.1,0.2-0.1l0.3-0.1
		C18.4,29.1,18.4,29.5,18.5,29.8z M25.4,39.1c-0.1,0-0.2,0-0.3,0H25c-5.1,0-10.1,0-15.2,0c-1.3,0-1.9-0.6-1.9-1.9c0-0.5,0-0.9,0-1.4
		l0-0.5l2,0c1.7,0,7.4,0,7.8,0c0.4,0,0.9,0,1.3,0c0.2,0,0.4,0.1,0.7,0.1c0.1,0,0.1,0,0.2,0c0,0,0,0.1,0,0.1c0,0.2-0.1,0.3-0.1,0.5
		c-0.1,0.5,0.1,1,0.5,1.4c0.3,0.4,0.8,0.6,1.4,0.6c1.2,0,2.5,0,3.7,0l1.3,0C26.5,38.7,26,39.1,25.4,39.1z M31.8,36.6
		c-0.2,0-0.4,0.1-0.5,0.2c-0.1,0.1-0.2,0.1-0.2,0.1l-0.2,0.1c-0.3,0.1-0.5,0.2-0.8,0.2c-1.7,0-3.5,0-5.2,0c-1.1,0-2.1,0-3.2,0
		c0,0,0,0,0,0c-0.4,0-0.7-0.2-0.9-0.5c-0.2-0.4-0.2-0.7,0.1-1c0.1-0.1,0.3-0.3,0.2-0.5c-0.1-0.2-0.4-0.3-0.5-0.3
		c-0.4-0.1-0.7-0.3-0.7-0.6c-0.1-0.3,0.1-0.6,0.4-0.8c0.1-0.1,0.2-0.2,0.2-0.3c0,0,0-0.1,0.1-0.1l0.1-0.2l-0.2-0.1
		c0,0-0.1,0-0.1-0.1c-0.1-0.1-0.2-0.1-0.3-0.1c-0.5,0-0.7-0.3-0.8-0.7c0-0.4,0.2-0.6,0.6-0.8c0.2,0,0.4-0.2,0.4-0.4
		c0-0.2-0.2-0.4-0.3-0.5c-0.3-0.2-0.8-0.6-0.7-1.2c0.1-0.6,0.6-0.9,1.3-0.9c0.4,0,0.8,0,1.2,0c0.3,0,0.6,0,0.9,0l0.9,0
		c0.6,0,0.9-0.1,1.1-0.4c0.2-0.3,0.1-0.6-0.2-1.2c-0.1-0.2-0.2-0.3-0.3-0.5c-0.8-1.1-1.6-2.5-1.2-4.2l0-0.1l0.1,0
		c0.1,0,0.2,0,0.3-0.1c0.2,0,0.3-0.1,0.5-0.1c0.5,0,0.8,0.1,1,1c0.2,0.9,0.6,1.9,1.4,2.7c0.2,0.1,0.3,0.3,0.5,0.4
		c0.6,0.5,1.1,1,1.6,1.5c0.5,0.5,0.9,1.1,1.4,1.7c0.2,0.3,0.4,0.5,0.6,0.8c0,0.1,0.1,0.1,0.1,0.1l0.6,0.3c0.1,0,0.1,0,0.2-0.1
		c0.1,0,0.2-0.1,0.2,0c0.1,0,0.1,0.1,0.2,0.1c0,0,0.1,0.1,0.1,0.1l0.2,0.1l0,1.4c0,1.4,0,2.8,0,4.2C32.3,36.5,32.3,36.6,31.8,36.6z"
		/>
	<path id="XMLID_33_" class="st0" d="M10.7,10.2c0,2,0,4,0,6c0,1.1,0.6,1.7,1.8,1.8c0.7,0,1.3,0,2,0c0.5,0,1,0,1.5,0l1.5,0l1.5,0
		c1.2,0,2.5,0,3.7,0c1.1,0,1.7-0.6,1.8-1.7c0-1.9,0-3.9,0-6.1c0-1.1-0.6-1.7-1.8-1.7c-3.4,0-6.8,0-10.2,0
		C11.4,8.5,10.7,9.1,10.7,10.2z M23.5,16.5c0,0.1,0,0.5-0.7,0.5c0,0,0,0,0,0c-0.8,0-1.6,0-2.4,0c-0.5,0-1,0-1.6,0l-2.9,0
		c-1.1,0-2.2,0-3.3,0c-0.7,0-0.8-0.2-0.8-0.9c0-0.8,0-1.6,0-2.4l0-0.7l2.4,1.4c1.5,0.8,1.5,0.8,2.9-0.2c0.1-0.1,0.2-0.2,0.4-0.3
		c0.3-0.2,0.5-0.4,0.8-0.6c0.2-0.2,0.3-0.2,0.5,0c0.3,0.3,0.6,0.5,0.9,0.8c0.3,0.3,0.7,0.5,1,0.8c0.4,0.3,0.7,0.3,1.1-0.1
		c0.5-0.5,0.9-0.9,1.5-1.4c0.1-0.1,0.3-0.2,0.4-0.4c0,0.3,0,0.5,0,0.8C23.5,14.8,23.5,15.6,23.5,16.5z M11.7,10.8c0-0.2,0-0.4,0-0.7
		c0-0.5,0.2-0.7,0.7-0.7c1.7,0,3.4,0,5.2,0s3.4,0,5.2,0c0.5,0,0.7,0.2,0.8,0.8c0,0,0,0.1,0,0.1c0.2,1-0.1,1.8-1,2.4
		c-0.4,0.3-0.7,0.6-1.1,1c-0.1,0.1-0.2,0.2-0.4,0.4c-0.2-0.2-0.4-0.3-0.6-0.4c-0.6-0.4-1.1-0.9-1.6-1.3c-0.4-0.3-0.7-0.3-1.1,0
		c-0.4,0.3-0.7,0.6-1.1,0.9c-0.3,0.2-0.6,0.5-0.9,0.7c-0.2,0.2-0.3,0.2-0.5,0.1c-1-0.6-2.1-1.2-3.3-1.9c-0.2-0.1-0.3-0.3-0.3-0.5
		C11.7,11.3,11.7,11.1,11.7,10.8z"/>
	<path id="XMLID_37_" class="st0" d="M23.5,5.2L23.5,5.2c0.2,0,0.4,0,0.5,0l0.2,0l0.3,0c0.1,0,0.2,0,0.3,0c0.1,0,0.2,0,0.3,0
		c0.7,0,1-0.4,1-1c0-0.7-0.3-1-1-1c-0.6,0-1.1,0-1.7,0c-0.7,0-1.1,0.4-1,1C22.5,4.8,22.8,5.2,23.5,5.2z M23.5,4.1c0.5,0,1,0,1.6,0
		c0,0,0,0,0.1,0.1c0,0-0.1,0.1-0.1,0.1c-0.2,0-0.3,0-0.5,0c-0.1,0-0.2,0-0.2,0c-0.1,0-0.2,0-0.2,0c-0.2,0-0.4,0-0.6,0
		C23.5,4.3,23.5,4.2,23.5,4.1C23.5,4.2,23.5,4.1,23.5,4.1z"/>
	<path id="XMLID_38_" class="st0" d="M9.1,4.4c0.1,0.1,0.2,0.2,0.3,0.2c0.2,0,0.3,0,0.5,0c0.1,0,0.2,0,0.3,0l0.4,0l0.2,0
		c0.3,0,0.5,0,0.8,0c0.1,0,0.2-0.1,0.3-0.2c0,0,0.1-0.1,0.1-0.1l0.2-0.1L12,4.1C12,4,12,4,12,4c-0.1-0.1-0.2-0.2-0.3-0.2
		c-0.8,0-1.5,0-2.2,0C9.3,3.8,9.2,3.9,9.1,4c0,0-0.1,0.1-0.1,0.1L8.9,4.2L9.1,4.4C9.1,4.4,9.1,4.4,9.1,4.4z"/>
	<path id="XMLID_41_" class="st0" d="M17.4,36C17.4,36,17.4,36,17.4,36c-1,0-1.2,0.2-1.2,1.2c0,0.5,0,0.8,0.2,1
		c0.2,0.2,0.5,0.2,1,0.2c0.5,0,0.8,0,1-0.2c0.2-0.2,0.2-0.5,0.2-1c0-0.5,0-0.8-0.2-1C18.2,36,17.9,36,17.4,36z M17.1,37.6
		c0,0-0.1-0.2,0-0.6c0,0,0.1,0,0.1,0c0.1,0,0.3,0,0.4,0l0,0.5C17.3,37.6,17.2,37.6,17.1,37.6z"/>
	<path id="XMLID_44_" class="st0" d="M14.8,12.4C14.8,12.4,14.8,12.4,14.8,12.4c0.4,0,0.7-0.1,1-0.4c0.3-0.3,0.4-0.6,0.4-1
		c0-0.4-0.1-0.8-0.4-1.1c-0.3-0.3-0.6-0.4-1-0.4c-0.8,0-1.4,0.6-1.4,1.4C13.4,11.7,14,12.3,14.8,12.4z M14.5,10.6
		c0.1-0.1,0.2-0.1,0.3-0.1c0,0,0,0,0,0c0.3,0,0.5,0.2,0.5,0.5c0,0.1,0,0.3-0.1,0.4c-0.1,0.1-0.2,0.2-0.3,0.2c-0.1,0-0.2,0-0.3-0.1
		c-0.1-0.1-0.2-0.2-0.2-0.4C14.3,10.8,14.4,10.7,14.5,10.6z"/>
</g>
</svg>
