<?xml version="1.0" encoding="utf-8"?>
<!-- Generator: Adobe Illustrator 19.0.0, SVG Export Plug-In . SVG Version: 6.00 Build 0)  -->
<svg version="1.1" id="Layer_1" xmlns="http://www.w3.org/2000/svg" xmlns:xlink="http://www.w3.org/1999/xlink" x="0px" y="0px"
	 viewBox="0 0 42 42" style="enable-background:new 0 0 42 42;" xml:space="preserve">
<style type="text/css">
	.st0{fill:#FFFFFF;}
</style>
<g id="XMLID_930_">
	<path id="XMLID_1059_" class="st0" d="M41,3.7C41,1.2,39.8,0,37.3,0C27.1,0,16.5,0,4.9,0C2.4,0,1.2,1.2,1.2,3.7c0,8.4,0,15.9,0,23
		c0,0.6,0,1.3,0.3,1.8C2.1,29.9,3,31.8,4,33.6c0.9,1.6,1.8,3.2,2.7,4.7c0.5,0.9,1,1.8,1.5,2.6c0.3,0.5,0.6,0.8,1,0.9
		c0.1,0,0.2,0,0.3,0c0.3,0,0.6-0.1,1-0.3c1-0.6,2.1-1.2,3.1-1.8c0.2-0.1,0.5-0.3,0.7-0.4c0.5-0.3,0.8-0.6,0.9-0.9
		c0.1-0.3,0-0.7-0.3-1.2c-1.8-3.1-3.6-6.2-5.3-9.3l-0.5-1c-0.5-0.8-1.1-1-1.9-0.5c-0.2,0.1-0.5,0.3-0.7,0.4
		c-0.8,0.4-1.6,0.9-2.3,1.3c-0.4,0.2-0.7,0.3-0.9,0.2c-0.2-0.1-0.4-0.4-0.5-0.9c0-0.2,0-0.5,0-0.8c0-0.1,0-0.2,0-0.2
		c0-5,0-10.1,0-15.1l0-5.2h37c0,0.1,0,0.1,0,0.2c0,0.1,0,0.2,0,0.3l0,4c0,5.4,0,11,0,16.5c0,1.3-0.7,2-2.2,2c-0.9,0-1.8,0-2.7,0
		c-1.2,0-2.5,0-3.7,0c-0.4,0-0.8,0.2-1.2,0.3c-0.2,0.1-0.3,0.1-0.5,0.2l-0.2,0.1l0.2,0.1c0.2,0.1,0.3,0.1,0.5,0.2
		c0.4,0.2,0.7,0.3,1.1,0.4c1.7,0.1,3.4,0,5.1,0c0.4,0,0.8,0,1.2,0c2.5,0,3.7-1.2,3.7-3.7C41,18.5,41,10.9,41,3.7z M7.7,27.6l6,10.5
		l-4.2,2.4L3.4,30L7.7,27.6z M39.6,4.7h-37c0-0.2,0-0.5,0-0.7c0-0.5,0-0.9,0-1.3c0.2-0.9,0.9-1.4,2-1.4c0,0,0,0,0,0
		c2.7,0,5.4,0,8.1,0c1.2,0,2.3,0,3.5,0c6.8,0,13.6,0,20.4,0c1.4,0,2.2,0.2,2.6,0.6C39.6,2.4,39.7,3.2,39.6,4.7z"/>
	<path id="XMLID_1126_" class="st0" d="M27.6,25.1c-0.1-0.1-0.2-0.5-0.2-0.6c0.6-1.2,0.3-2.1-0.9-3.4c0.4-0.1,0.8-0.3,1.2-0.4
		c0.9-0.3,1.7-0.6,2.5-0.6c2.1-0.1,3.7-1.5,3.9-3.3c0.2-1.9-1-3.7-2.8-4.2c-1.9-0.5-3.9,0.6-4.6,2.5l0,0c-0.1,0.4-0.3,0.8-0.6,1
		c-0.9,0.5-1.7,1-2.7,1.6c-0.3,0.2-0.7,0.4-1,0.6c-0.6-2.2-1.3-2.7-3.4-2.3C18.8,16,18.4,16,18,16L18,16c-2.3,0-4.6,0-6.9,0H9.4
		c-1.7,0-2.5,0-2.9,0.4C6,16.8,6,17.6,6,19.3c0,2.1,0,2.1,2.2,2.1c1.4,0,2.9,0,4.4,0l2.1,0c-0.4,0.5-0.7,1-1.1,1.5
		c-1,1.3-1.9,2.6-2.7,3.8c-0.3,0.4-0.3,1.2-0.1,1.6c0.9,1.6,1.8,3.2,2.7,4.7c0.5,0.9,1.1,1.8,1.6,2.7c0.3,0.6,0.7,0.8,1.3,0.8
		c0.1,0,0.2,0,0.3,0c3.7-0.3,7.2-1.5,10.6-3.7c1.2-0.8,1.8-1.4,1.9-2.2c0.1-0.7-0.3-1.5-1.2-2.5C28.7,27,28.5,26,27.6,25.1z
		 M30.9,13.8c1.1,0.3,2,1.3,1.9,2.4c0,1.1-0.8,2-1.9,2.2c0.1-2.4-0.4-3.1-2.5-3.5C28.9,14,29.7,13.6,30.9,13.8z M11.8,20.1
		c-1.2,0-2.4,0-3.6,0c-0.4,0-0.6-0.1-0.7-0.2c-0.1-0.2-0.2-0.4-0.1-0.8c0-0.2,0-0.5,0-0.7c-0.1-0.3-0.1-0.7,0.1-0.9
		c0.1-0.1,0.3-0.2,0.7-0.2c1.3,0,2.7,0,4,0c0.9,0,1.8,0,2.8,0c0.9,0,1.9,0,2.9,0c-0.2,0.3-0.4,0.5-0.6,0.8c-0.5,0.6-0.8,1.2-1.3,1.7
		c-0.2,0.2-0.6,0.4-1,0.4C13.9,20.1,12.9,20.1,11.8,20.1z M27.6,30.4c-0.1,0.4-0.2,0.8-0.4,0.9c-2.7,1.4-5,2.4-7,3.3
		c-0.7,0.3-1.5,0.4-2.3,0.5c-0.4,0-0.8,0.1-1.2,0.2c0,0-0.1-0.1-0.2-0.1c-0.2-0.1-0.4-0.3-0.5-0.5c-1.3-2.2-2.6-4.4-3.7-6.6
		c-0.1-0.3-0.1-0.9,0.1-1.2c1.6-2.3,3.3-4.6,5-6.9c0.5-0.8,1.1-1.5,1.6-2.3c0.3-0.4,0.6-0.8,1-0.8c0.2,0,0.4,0.1,0.6,0.2
		c0.7,0.5,0.3,1,0,1.5l-0.1,0.1c0,0.1-0.1,0.1-0.1,0.2c-0.1,0.1-0.2,0.2-0.2,0.4c-0.1,0.2-0.1,0.5-0.2,0.7c0,0.1,0,0.2-0.1,0.3
		l0,0.1l0.1,0c0.1,0,0.2,0,0.4,0c0.3,0,0.6,0,0.8-0.1c1.3-0.7,2.7-1.5,4-2.3c0.7-0.4,1.3-0.8,2-1.2c0.1,0,0.2-0.1,0.2-0.1
		c0.3-0.2,0.6-0.4,0.9-0.3c0.4,0,1.1,0.4,1.1,0.6c0,0.5-0.3,1.2-0.6,1.4c-1.2,0.8-2.6,1.5-3.8,2.2c-0.5,0.3-0.9,0.5-1.4,0.8
		c-0.1,0-0.1,0.1-0.2,0.1c-0.2,0.1-0.4,0.2-0.4,0.3c-0.1,0.3-0.2,0.6-0.3,0.9c0,0.1-0.1,0.3-0.1,0.4l0,0.1l0.1,0
		c0.1,0,0.3,0.1,0.4,0.1c0.3,0.1,0.6,0.2,0.9,0.1c0.2,0,0.5-0.2,0.7-0.3c0.2-0.1,0.4-0.2,0.6-0.3c0.2-0.1,0.5,0,0.8,0
		c0.1,0,0.2,0,0.3,0c0,0.1-0.1,0.2-0.1,0.3c-0.1,0.3-0.2,0.6-0.4,0.8c-0.5,0.4-1,0.7-1.5,0.9c-0.3,0.2-0.7,0.4-1,0.6
		c-0.1,0.1-0.2,0.1-0.3,0.2c-0.5,0.3-1.2,0.6-0.7,1.5c0.2,0.3,0.3,0.5,0.6,0.5c0.4,0.1,0.7-0.1,1.1-0.3c0.1-0.1,0.2-0.1,0.3-0.2
		c0.2-0.1,0.4-0.2,0.6-0.3c0.3-0.2,0.7-0.4,1.1-0.6c0.2-0.1,0.5,0,0.8,0c0.1,0,0.2,0,0.3,0.1c0,0.1-0.1,0.3-0.1,0.4
		c-0.1,0.3-0.1,0.7-0.3,0.8c-0.6,0.4-1.3,0.8-1.9,1.2c-0.3,0.2-0.6,0.3-0.9,0.5l-0.1,0.1c-0.5,0.3-1.2,0.7-0.7,1.5
		c0.1,0.3,0.3,0.4,0.5,0.5c0.4,0.1,0.8-0.1,1.2-0.3l0,0c0.2-0.1,0.4-0.2,0.6-0.3c0.4-0.2,0.8-0.5,1.2-0.6c0.3-0.1,0.6,0,1,0
		c0.1,0,0.3,0,0.4,0.1C27.7,30.1,27.6,30.3,27.6,30.4z"/>
	<path id="XMLID_1133_" class="st0" d="M3.8,14.1c0.3,0.3,0.7,0.4,1.3,0.4c0,0,0,0,0,0c1.4,0,2.9,0,4.3,0c1.2,0,2.4,0,3.5,0
		c0.6,0,1.2,0,1.8,0c0.8,0,1.6,0,2.4,0c1.5,0,1.9-0.4,1.9-1.9c0-1.2,0-2.2,0-3.2c0-1-0.6-1.5-1.5-1.5c-3.7,0-7.7,0-12.7,0
		c-1,0-1.5,0.5-1.5,1.5c0,0.5,0,1,0,1.5c0,0.6,0,1.2,0,1.8C3.3,13.3,3.5,13.8,3.8,14.1z M5,9.5c0.3-0.3,1.1-0.4,2.5-0.4
		c0,0,0.1,0,0.1,0c0.9,0,1.7,0,2.6,0c2.1,0,4.3,0,6.4,0c0.5,0,0.8,0.1,1,0.3c0.2,0.2,0.2,0.5,0.2,0.9c-0.1,0.6,0,1.3,0,1.9
		c0,0.3,0,0.6,0,0.8c-0.1,0-0.3,0-0.4,0c-0.3,0-0.5,0.1-0.7,0.1c-1.3,0-2.5,0-3.8,0c-2.3,0-4.8,0-7.1,0c-0.5,0-0.7-0.1-0.9-0.2
		c-0.2-0.2-0.2-0.4-0.2-0.9l0-0.1C4.7,10.6,4.7,9.9,5,9.5z"/>
	<circle id="XMLID_1134_" class="st0" cx="29.8" cy="3.1" r="0.8"/>
	<circle id="XMLID_1135_" class="st0" cx="32.9" cy="3.1" r="0.8"/>
	<circle id="XMLID_1136_" class="st0" cx="35.9" cy="3.1" r="0.8"/>
</g>
</svg>
