<svg width="42" height="42" viewBox="0 0 42 42" fill="none" xmlns="http://www.w3.org/2000/svg">
<g clip-path="url(#clip0_784_189)">
<path d="M35.2 7.4C34.6 7.4 34 7.4 33.4 7.4C33.4 6.1 33.4 4.9 33.4 3.8C33.4 1.3 32 0 29.6 0C23.6 0 17.6 0 11.6 0C9 0 7.7 1.3 7.7 3.9C7.7 5.1 7.7 6.2 7.7 7.4C7.1 7.4 6.5 7.4 5.9 7.4C5.2 7.5 5 7.7 5 8.4C5 15.2 5 22.1 5 28.9C5 29.6 5.2 29.8 6 29.8C6.6 29.8 7.2 29.8 7.8 29.8C7.8 32.7 7.8 35.6 7.8 38.4C7.8 40.5 9.2 42 11.3 42C17.5 42 23.8 42 30 42C32.1 42 33.5 40.6 33.5 38.5C33.5 35.9 33.5 33.3 33.5 30.6C33.5 30.4 33.5 30.1 33.5 29.8C34.2 29.8 34.7 29.8 35.3 29.8C35.9 29.8 36.2 29.5 36.2 28.9C36.2 22 36.2 15.2 36.2 8.3C36.2 7.7 35.9 7.4 35.2 7.4ZM9.1 3.3C9.1 2.1 10 1.4 11.3 1.4C13.6 1.4 15.9 1.4 18.2 1.4C22.1 1.4 25.9 1.4 29.8 1.4C31.4 1.4 32.2 2.2 32.2 3.8C32.2 5 32.2 6.2 32.2 7.5C24.5 7.5 16.9 7.5 9.2 7.5C9.1 6 9 4.6 9.1 3.3ZM6.4 8.8C15.9 8.8 25.3 8.8 34.8 8.8C34.8 10.1 34.8 11.4 34.8 12.8C25.4 12.8 15.9 12.8 6.4 12.8C6.4 11.5 6.4 10.2 6.4 8.8ZM32.1 38.7C32 39.8 31.2 40.6 30 40.6C27.9 40.6 25.7 40.6 23.6 40.6C19.6 40.6 15.6 40.6 11.6 40.6C10 40.6 9.2 39.8 9.2 38.2C9.2 37.3 9.2 36.4 9.2 35.4C9.2 35.4 9.2 35.3 9.2 35.2C16.8 35.2 24.5 35.2 32.2 35.2C32.1 36.5 32.1 37.6 32.1 38.7ZM9.1 33.8C9.1 32.4 9.1 31.1 9.1 29.8C16.7 29.8 24.4 29.8 32 29.8C32 31.1 32 32.4 32 33.8C24.4 33.8 16.8 33.8 9.1 33.8ZM34.8 28.4C25.3 28.4 15.9 28.4 6.4 28.4C6.4 23.7 6.4 19 6.4 14.3C15.8 14.3 25.3 14.3 34.8 14.3C34.8 19 34.8 23.7 34.8 28.4Z" fill="#1B3ECD"/>
<path d="M18.3 26.3C18.9 26.5 19.1 26.1 19.3 25.7C20.6 22.7 21.9 19.7 23.1 16.8C23.2 16.7 23.2 16.5 23.3 16.2C23.2 16 23 15.7 22.8 15.6C22.3 15.4 22.1 15.8 21.9 16.2C20.6 19.2 19.3 22.2 18 25.2C17.8 25.7 17.7 26.1 18.3 26.3Z" fill="#1B3ECD"/>
<path d="M25.2 24.9C25.6 25.3 26 25.1 26.3 24.7C27.3 23.7 28.3 22.7 29.3 21.7C29.8 21.2 29.8 20.9 29.3 20.3C28.3 19.3 27.3 18.3 26.3 17.3C26 17 25.6 16.7 25.1 17.1C24.7 17.5 25 17.9 25.3 18.3C26.2 19.2 27.1 20 28 21C27 22 26.1 22.9 25.2 23.7C25 24.1 24.8 24.5 25.2 24.9Z" fill="#1B3ECD"/>
<path d="M14.8 24.6C15.1 24.9 15.5 25.2 16 24.8C16.4 24.4 16.2 24 15.8 23.6C14.9 22.8 14 22 13 21C14 20.1 14.8 19.2 15.7 18.3C16.1 18 16.3 17.6 15.9 17.1C15.5 16.7 15.1 16.9 14.7 17.3C13.7 18.3 12.7 19.3 11.7 20.3C11.2 20.8 11.2 21.1 11.7 21.7C12.8 22.7 13.8 23.6 14.8 24.6Z" fill="#1B3ECD"/>
<path d="M18 4.10001C18.8 4.10001 19.7 4.10001 20.5 4.10001C21.4 4.10001 22.2 4.10001 23.1 4.10001C23.6 4.10001 24 3.90001 24 3.40001C24 2.90001 23.6 2.70001 23.2 2.70001C21.5 2.70001 19.8 2.70001 18.1 2.70001C17.6 2.70001 17.3 2.90001 17.3 3.40001C17.2 3.90001 17.6 4.10001 18 4.10001Z" fill="#1B3ECD"/>
<path d="M20.6 36.5C19.8 36.5 19.2 37.2 19.2 37.9C19.2 38.7 19.9 39.3 20.6 39.3C21.4 39.3 22.1 38.6 22 37.8C22 37.1 21.3 36.5 20.6 36.5ZM20.6 38.5C20.3 38.5 20 38.3 20 37.9C20 37.6 20.2 37.3 20.5 37.3C20.8 37.3 21.1 37.5 21.1 37.8C21.2 38.2 20.9 38.5 20.6 38.5Z" fill="#1B3ECD"/>
<path d="M26 11.6C26.3866 11.6 26.7 11.2866 26.7 10.9C26.7 10.5134 26.3866 10.2 26 10.2C25.6134 10.2 25.3 10.5134 25.3 10.9C25.3 11.2866 25.6134 11.6 26 11.6Z" fill="#1B3ECD"/>
<path d="M28.8 11.6C29.1866 11.6 29.5 11.2866 29.5 10.9C29.5 10.5134 29.1866 10.2 28.8 10.2C28.4134 10.2 28.1 10.5134 28.1 10.9C28.1 11.2866 28.4134 11.6 28.8 11.6Z" fill="#1B3ECD"/>
<path d="M31.6 11.6C31.9866 11.6 32.3 11.2866 32.3 10.9C32.3 10.5134 31.9866 10.2 31.6 10.2C31.2134 10.2 30.9 10.5134 30.9 10.9C30.9 11.2866 31.2134 11.6 31.6 11.6Z" fill="#1B3ECD"/>
<path d="M26 4.10001C26.3866 4.10001 26.7 3.78661 26.7 3.40001C26.7 3.01341 26.3866 2.70001 26 2.70001C25.6134 2.70001 25.3 3.01341 25.3 3.40001C25.3 3.78661 25.6134 4.10001 26 4.10001Z" fill="#1B3ECD"/>
</g>
<defs>
<clipPath id="clip0_784_189">
<rect width="31.2" height="42" fill="white" transform="translate(5)"/>
</clipPath>
</defs>
</svg>
