<?xml version="1.0" encoding="utf-8"?>
<!-- Generator: Adobe Illustrator 19.0.0, SVG Export Plug-In . SVG Version: 6.00 Build 0)  -->
<svg version="1.1" id="Layer_1" xmlns="http://www.w3.org/2000/svg" xmlns:xlink="http://www.w3.org/1999/xlink" x="0px" y="0px"
	 viewBox="0 0 42 42" style="enable-background:new 0 0 42 42;" xml:space="preserve">
<style type="text/css">
	.st0{fill:#FFFFFF;}
</style>
<g id="XMLID_832_">
	<path id="XMLID_1000_" class="st0" d="M35.9,3.6c0-2-1.3-3.4-3.3-3.4c-6.2,0-12.5,0-19.2,0c-2,0-3.3,1.3-3.4,3.3c0,1.5,0,2.9,0,4.4
		c0,0.6,0,1.2,0,1.8c0,0.3,0,0.6,0.2,0.8c0.1,0.1,0.3,0.1,0.5,0.1c0.3,0,0.5-0.6,0.6-0.9c0-0.7,0-1.4,0-2.1c0-0.2,0-0.5,0-0.7h23.2
		v26.3H15.2c-0.3,0-0.6,0-0.9,0c-0.8,0-1.7,0-2.5,0c-0.2,0-0.5-0.2-0.5-0.4c0-0.1,0-0.2,0-0.3c0-0.3-0.1-0.7-0.7-0.7
		c-0.7,0-0.7,0.6-0.7,1l0,0.1c0,0.5,0,1,0,1.6c0,1.4,0,2.8,0,4.1c0,2,1.3,3.4,3.3,3.4c3.2,0,6.4,0,9.6,0c3.3,0,6.5,0,9.7,0
		c2,0,3.3-1.3,3.3-3.3C35.9,27.4,35.9,15.9,35.9,3.6z M26.8,40.6l-2.2,0l-3.3,0c-2.6,0-5.1,0-7.7,0c-1.6,0-2.3-0.7-2.3-2.3
		c0-0.4,0-0.8,0-1.2c0-0.7,0-1.4,0-2.1c0-0.3,0-0.5,0.1-0.6c0.1-0.1,0.3-0.2,0.7-0.2c0,0,0,0,0,0c4.7,0,9.5,0,14.1,0l8.4,0
		c0,0.5,0,0.9,0,1.4c0,1.2,0,2.2,0,3.3c-0.1,0.9-0.9,1.5-2,1.5C30.6,40.6,28.7,40.6,26.8,40.6z M34.5,4.1v1.3H12.2
		c-0.5,0-0.7,0-0.8-0.1c-0.1-0.1-0.1-0.4-0.1-0.8c0-0.1,0-0.2,0-0.3c0-0.3,0-0.5,0-0.8c0.1-1.1,0.8-1.8,1.9-1.9c0.3,0,0.6,0,0.8,0
		c0.2,0,0.3,0,0.5,0c0.2,0,0.4,0,0.6,0h4.2c4.2,0,8.4,0,12.6,0C33.9,1.5,34.5,2.1,34.5,4.1z"/>
	<path id="XMLID_1004_" class="st0" d="M33.4,19.8c0-1.1-0.6-1.7-1.6-1.7c-0.9,0-1.9,0-3,0c-1,0-1.6,0.7-1.7,1.6c0,1,0,2,0,3.1
		c0,0.9,0.7,1.6,1.6,1.6c0.5,0,1,0,1.5,0c0.5,0,1,0,1.5,0c1,0,1.6-0.6,1.6-1.6c0-0.3,0-0.7,0-1c0-0.2,0-0.3,0-0.5c0-0.1,0-0.3,0-0.4
		C33.4,20.4,33.4,20.1,33.4,19.8z M32.1,21.2c0,0.3,0,0.5,0,0.7c0,0.6,0,0.9-0.1,1c-0.1,0.1-0.4,0.1-1,0.1c-0.2,0-0.4,0-0.7,0
		c0,0,0,0,0,0c-0.3,0-0.5,0-0.7,0c-0.6,0-0.9,0-1.1-0.1c-0.1-0.1-0.1-0.5-0.1-1.1c0-0.2,0-0.4,0-0.7c0-0.2,0-0.5,0-0.6
		c0-0.6,0-0.9,0.1-1c0.1-0.1,0.4-0.1,0.9-0.1c0.1,0,0.2,0,0.4,0c0.1,0,0.3,0,0.5,0c0.2,0,0.4,0,0.6,0c0.7,0,1,0,1.2,0.1
		c0.1,0.1,0.1,0.4,0.1,1C32.1,20.7,32.1,20.9,32.1,21.2z"/>
	<path id="XMLID_1007_" class="st0" d="M31.7,25.3c-1.1,0-2.1,0-3,0c-0.9,0-1.6,0.7-1.6,1.6c0,1,0,2,0,3.1c0,1,0.7,1.6,1.7,1.6
		c0.2,0,0.4,0,0.6,0c0.1,0,0.3,0,0.4,0c0.2,0,0.3,0,0.5,0c1.5,0,2.2,0,2.6-0.4c0.4-0.4,0.5-1.1,0.5-2.6c0-0.2,0-0.3,0-0.5
		c0-0.3,0-0.7,0-1C33.4,25.9,32.7,25.3,31.7,25.3z M28.4,27.8c0-0.6,0-1,0.1-1.1c0.1-0.1,0.3-0.1,0.7-0.1c0.1,0,0.2,0,0.3,0
		c0.2,0,0.5,0,0.7,0c0.3,0,0.5,0,0.7,0c0.6,0,0.9,0,1,0.1c0.1,0.1,0.1,0.4,0.1,1c0,0.2,0,0.4,0,0.6c0,0.3,0,0.5,0,0.7
		c0,0.6,0,0.9-0.1,1c-0.1,0.1-0.5,0.1-1.1,0.1c-0.2,0-0.4,0-0.7,0c-0.2,0-0.4,0-0.5,0c-0.6,0-1,0-1.1-0.1c-0.1-0.1-0.1-0.5-0.1-1.1
		c0-0.2,0-0.4,0-0.6C28.4,28.2,28.4,28,28.4,27.8z"/>
	<path id="XMLID_1008_" class="st0" d="M29.4,7.9c-0.2-0.1-0.4-0.2-0.5-0.1c-0.3,0.1-0.7,0.3-0.8,0.6c-1,2.2-1.9,4.5-2.9,6.6
		l-0.5,1.2c-0.1,0.3-0.2,0.5-0.1,0.8c0.1,0.1,0.2,0.3,0.4,0.3c0.1,0,0.2,0.1,0.3,0.1c0.1,0,0.1,0,0.2,0c0.2-0.1,0.4-0.4,0.5-0.6
		l0-0.1c1.1-2.5,2.2-5.1,3.3-7.6c0.1-0.1,0.1-0.3,0.2-0.4c0-0.1,0-0.1,0.1-0.2L29.8,8l-0.2-0.1C29.6,7.9,29.5,7.9,29.4,7.9z"/>
	<path id="XMLID_1009_" class="st0" d="M24.5,10.4c-0.1,0-0.2,0-0.3,0c-0.2,0-0.4,0-0.6,0.1c-0.4,0.3-0.8,0.7-1.1,1.1
		c-0.1,0.1-0.3,0.3-0.4,0.4c-0.4,0.4-0.4,0.8,0,1.1c0.1,0.1,0.3,0.3,0.4,0.4c0.3,0.3,0.7,0.7,1.1,1c0.2,0.1,0.4,0.1,0.6,0.1
		c0.1,0,0.2,0,0.3,0l0.1,0l0-0.1c0-0.1,0-0.2,0-0.3c0-0.2,0-0.5-0.1-0.7c-0.2-0.3-0.6-0.5-0.9-0.7c-0.1-0.1-0.2-0.1-0.3-0.2l0-0.3
		c0.1-0.1,0.2-0.2,0.3-0.2c0.3-0.2,0.6-0.5,0.9-0.7c0.1-0.1,0.1-0.4,0.1-0.6c0-0.1,0-0.2,0-0.3l0-0.1L24.5,10.4z"/>
	<path id="XMLID_1010_" class="st0" d="M30.3,10.5c-0.1-0.1-0.4-0.1-0.6-0.1c-0.1,0-0.2,0-0.2,0l-0.1,0l0,0.1c0,0.1,0,0.2,0,0.3
		c0,0.2-0.1,0.5,0.1,0.6c0.3,0.3,0.6,0.5,0.9,0.7c0.1,0.1,0.2,0.2,0.3,0.2l0,0.3c-0.1,0.1-0.2,0.2-0.3,0.3c-0.3,0.2-0.6,0.5-0.9,0.8
		c-0.1,0.1-0.1,0.4-0.1,0.6c0,0.1,0,0.2,0,0.3l0,0.1l0.1,0c0.1,0,0.2,0,0.2,0c0.2,0,0.4,0,0.6-0.1c0.6-0.5,1.1-1,1.5-1.5
		c0.2-0.2,0.2-0.8,0-1C31.4,11.5,30.9,11,30.3,10.5z"/>
	<path id="XMLID_1011_" class="st0" d="M25.2,3.2c-0.2-0.2-0.3-0.4-0.5-0.4c-1.4,0-2.9,0-4.3,0c-0.2,0-0.4,0.2-0.5,0.3
		c-0.1,0.1-0.1,0.1-0.2,0.2l-0.1,0.1l0.1,0.1c0.1,0.1,0.1,0.1,0.2,0.2C20,3.8,20.2,4,20.4,4c0.3,0,0.6,0,0.9,0c0.2,0,0.4,0,0.6,0
		c0.2,0,0.4,0,0.6,0c0.2,0,0.4,0,0.6,0c0.5,0,1,0,1.6,0c0.2,0,0.4-0.2,0.5-0.3c0.1-0.1,0.1-0.1,0.2-0.2l0.1-0.1l-0.1-0.1
		C25.4,3.3,25.3,3.2,25.2,3.2z"/>
	<path id="XMLID_1014_" class="st0" d="M23.1,35.6C23.1,35.6,23.1,35.6,23.1,35.6c-0.5,0-1,0.2-1.4,0.6c-0.4,0.4-0.5,0.8-0.5,1.4
		c0,0.5,0.2,1,0.6,1.3c0.4,0.3,0.8,0.5,1.3,0.5c0,0,0,0,0,0c1,0,1.9-0.9,1.9-2C25,36.4,24.1,35.6,23.1,35.6z M22.6,38
		c-0.1-0.1-0.2-0.3-0.2-0.5c0-0.2,0.1-0.4,0.2-0.5s0.3-0.2,0.5-0.2c0,0,0,0,0,0c0.4,0,0.7,0.3,0.7,0.7c0,0.4-0.3,0.7-0.7,0.7
		C22.9,38.2,22.7,38.1,22.6,38z"/>
	<path id="XMLID_1017_" class="st0" d="M21.5,19C21.5,19,21.4,19,21.5,19c-0.6-0.7-1.3-1-2.2-1.1c-0.7,0-1.4,0-1.9,0.2
		c-1.2,0.4-1.8,1.3-1.5,2.6c0,0,0,0.1,0,0.1l0,0c0.1,0.3,0.1,0.5-0.1,0.8c-0.3,0.4-0.2,1,0.1,1.7c0.1,0.1,0.1,0.3,0.2,0.4
		c0,0.1,0,0.1,0.1,0.2c0,0.1,0.1,0.2,0.2,0.4l0,0c0.1,0.3,0.3,0.6,0.3,0.9c0.1,0.3,0.1,0.7,0.1,1v0c0,0,0,0,0,0l0,0c0,0,0,0-0.1,0
		l-1.1,0.5c-0.7,0.3-1.4,0.7-2.1,1c-0.7,0.4-1,0.9-0.9,1.6c0,0.2,0,0.4,0,0.7c0,0.1,0,0.2,0,0.4c0,0.7,0.2,0.9,0.9,0.9c1,0,2,0,3,0
		l7.8,0c0.9,0,1.1-0.2,1.1-1.1c0-0.1,0-0.2,0-0.3l0,0c0-0.2,0-0.4,0-0.6c0.1-0.6-0.2-1.1-0.8-1.5c-0.8-0.5-1.4-0.8-2-1.1
		c-0.4-0.2-0.8-0.4-1.3-0.6c-0.1,0-0.1-0.1-0.1-0.2c0-0.4,0-0.7,0.3-1.1c0.2-0.2,0.3-0.6,0.4-0.9c0-0.1,0.1-0.3,0.1-0.4
		c0-0.1,0.1-0.2,0.1-0.2c0.6-0.6,0.7-1.5,0.2-2.1c0,0,0-0.1,0-0.2c0-0.1,0.1-0.3,0.1-0.4c0.1-0.2,0.1-0.4,0.1-0.6
		C22.5,19.6,22.2,19.2,21.5,19L21.5,19z M20.7,23.3c0,0,0,0.1,0,0.1c0,0.1,0,0.2-0.1,0.3c-0.1,0.3-0.1,0.6-0.3,0.7
		C20,24.8,20,25.2,20,25.7l0,0.1c0,0.2,0,0.3,0,0.5c-0.1,0.6,0.3,0.9,0.6,1c1.1,0.5,2.3,1.1,3.4,1.7l0,0c0.1,0,0.2,0.1,0.2,0.1
		c0,0.3,0,0.6,0,1l0,0.1H13.9v0c0-0.2,0-0.4,0-0.6c-0.1-0.4,0.1-0.6,0.5-0.9c0.6-0.3,1.1-0.5,1.7-0.8l0.2-0.1
		c0.4-0.2,0.8-0.4,1.3-0.6c0.2-0.1,0.6-0.3,0.6-0.8c0-0.2,0-0.3,0-0.5c0-0.3,0-0.6,0-0.8c0-0.1,0-0.4-0.2-0.5
		c-0.4-0.3-0.4-0.7-0.5-1.3l0-0.1c0-0.3-0.2-0.5-0.4-0.7c-0.1-0.1-0.1-0.2-0.1-0.3c0-0.1,0.1-0.1,0.1-0.1c0.4-0.2,0.5-0.5,0.3-0.9
		l0-0.1c-0.1-0.3-0.2-0.6-0.3-0.8c-0.1-0.6,0.1-0.9,0.6-1c0.6-0.1,1.2-0.2,1.7-0.1c0.6,0,0.9,0.3,1.1,0.7c0.1,0.2,0.2,0.3,0.5,0.3
		c0.1,0,0.1,0,0.2,0l0,0.1c-0.1,0.3-0.2,0.6-0.3,0.8c-0.1,0.2-0.1,0.4,0,0.7c0.1,0.2,0.2,0.3,0.4,0.4c0,0,0.1,0.1,0.1,0.2
		c0,0,0,0.1,0,0.1C20.8,22.7,20.8,23,20.7,23.3z"/>
	<path id="XMLID_1018_" class="st0" d="M12.7,23.7L12.7,23.7c0.1,0,0.1,0,0.1,0.1l0.3,0.1l0.1-0.3c0,0,0-0.1,0.1-0.1
		c0.1-0.1,0.2-0.3,0.2-0.5c0-0.8,0-1.5,0-2.2c0,0,0,0,0-0.1c0,0,0,0,0,0c0.1,0,0.2,0,0.3,0l0.1,0c0.3,0,0.6,0,0.7-0.2
		c0.2-0.2,0.1-0.4,0-0.8l0-0.2l-0.7,0c-0.3,0-0.7,0-1.1,0c-0.2,0-0.6,0.1-0.6,0.7c0,0.4,0,0.7,0,1.1v0.3L12,21.4
		c-0.5-0.5-1-1-1.4-1.5c-0.3-0.3-0.5-0.4-0.9-0.4c-0.5,0-1,0-1.5,0l-0.4,0v-5.7H18v2.7h1.2l0-1l0-1.8c0-0.4,0-0.7-0.2-0.9
		c-0.2-0.2-0.5-0.2-1-0.2h-0.1c-2.4,0-4.7,0-7.1,0H7.5c-0.8,0-1,0.2-1,1c0,2.1,0,4.2,0,6.3c0,0.8,0.2,0.9,0.9,0.9l0.6,0
		c0.4,0,0.9,0,1.4,0c0.2,0,0.3,0,0.5,0.2c0.8,0.9,1.7,1.8,2.5,2.6C12.4,23.6,12.6,23.7,12.7,23.7z"/>
	<rect id="XMLID_1019_" x="9.7" y="16.1" class="st0" width="1.3" height="1.3"/>
	<rect id="XMLID_1020_" x="12" y="16.1" class="st0" width="1.3" height="1.3"/>
	<rect id="XMLID_1021_" x="14.3" y="16.1" class="st0" width="1.3" height="1.3"/>
</g>
</svg>
