<svg width="42" height="42" viewBox="0 0 42 42" fill="none" xmlns="http://www.w3.org/2000/svg">
<g clip-path="url(#clip0_780_16)">
<g clip-path="url(#clip1_780_16)">
<path d="M39.5 12.4C39.5 12 39.5 11.7 39.4 11.4C39.1 10.1 37.9 9.09999 36.5 9.09999C34.3 9.09999 32 9.09999 29.8 9.09999C29 9.09999 28.1 9.09999 27.3 9.09999H26.9L27 8.99999C27.1 8.89999 27.1 8.89999 27.2 8.79999C27.5 8.59999 27.7 8.29999 28 7.99999C28.5 7.49999 28.9 7.09999 29.4 6.59999C30.3 5.69999 30.3 4.79999 29.4 3.89999C29.1 3.59999 28.9 3.39999 28.6 3.09999C27.7 2.19999 26.8 2.19999 25.9 3.09999L24.6 4.39999C23.1 5.89999 21.6 7.39999 20.2 8.79999C20 8.99999 19.7 9.09999 19.5 9.09999C16.2 9.09999 12.9 9.09999 9.6 9.09999C8.1 9.09999 6.6 9.09999 5.1 9.09999C3.3 9.09999 2 10.4 2 12.3C2 18.8 2 25.8 2 33.5C2 35.4 3.3 36.7 5.2 36.7C5.4 36.7 5.6 36.7 5.9 36.7H6.2H16.2V41.2C16.1 41.2 16 41.2 15.9 41.2C15.7 41.2 15.5 41.2 15.3 41.2C15.1 41.2 14.9 41.2 14.8 41.3C14.7 41.4 14.7 41.5 14.7 41.6C14.7 42.1 15.2 42.1 15.3 42.1C19 42.1 22.7 42.1 26.5 42.1C26.7 42.1 26.9 42.1 27 41.9C27.1 41.8 27.1 41.7 27.1 41.6C27.1 41.5 27.1 41.4 27 41.3C26.9 41.2 26.7 41.2 26.5 41.2C26.4 41.2 26.2 41.2 26.1 41.2C25.9 41.2 25.7 41.2 25.6 41.2V36.7H35.4H35.7C35.9 36.7 36.1 36.7 36.3 36.7C38.3 36.7 39.5 35.4 39.5 33.5C39.5 26.7 39.5 19.6 39.5 12.4ZM24.5 36.7V41.1H17.1V36.7H24.5ZM28.9 5.79999L28.8 5.89999L28.7 5.99999L28.2 6.59999L26 4.29999C26.1 4.19999 26.1 4.19999 26.2 4.09999C26.4 3.89999 26.6 3.69999 26.8 3.59999C27.1 3.29999 27.5 3.29999 27.7 3.59999C28.1 3.99999 28.5 4.39999 28.9 4.79999C29.2 5.09999 29.2 5.49999 28.9 5.79999ZM16.7 17.3C16.7 17.4 16.8 17.5 16.8 17.7C16 17.9 15.2 18.1 14.4 18.3L14.9 15.8C15 15.8 15.1 15.9 15.2 15.9C15.6 16 15.9 16.1 16.3 16.2C16.3 16.2 16.4 16.3 16.4 16.4C16.5 16.7 16.6 17 16.7 17.3ZM17.3 16.1C17.3 16 17.4 15.8 17.5 15.7C18.9 14.3 20.4 12.8 21.8 11.4C22.5 10.7 23.1 10.1 23.8 9.39999C24.1 9.09999 24.4 8.79999 24.7 8.39999L25 8.09999L25.7 8.79999L17.6 17C17.6 16.9 17.6 16.9 17.5 16.8C17.4 16.6 17.4 16.3 17.3 16.1ZM14 15.5C13.8 16.1 13.7 16.8 13.6 17.4C13.5 17.7 13.5 18.1 13.4 18.4C13.3 18.8 13.3 19 13.4 19.2C13.5 19.3 13.8 19.4 14.2 19.4C18.9 19.4 23.5 19.4 28.2 19.4H29.1C29.8 19.4 30.5 19.4 31.2 19.4C31.8 19.4 32.1 19.7 32.1 20.1C32.1 20.3 32 20.5 31.9 20.6C31.7 20.8 31.5 20.8 31.2 20.8C28.2 20.8 25.3 20.8 22.3 20.8C21.3 20.8 20.7 21.3 20.5 22.1C20.4 22.6 20.5 23.1 20.8 23.5C21.1 23.9 21.5 24.1 22 24.2C22.7 24.2 23.5 24.2 24.2 24.2C24.5 24.2 24.8 24.2 25.1 24.2C25.4 24.2 25.6 24 25.6 23.8C25.6 23.7 25.6 23.5 25.5 23.5C25.4 23.4 25.3 23.4 25.1 23.4C24.6 23.4 24 23.4 23.5 23.4C23.2 23.4 23 23.4 22.7 23.4H22.6C22.5 23.4 22.3 23.4 22.2 23.4C21.8 23.4 21.5 23 21.5 22.6C21.5 22.2 21.8 21.9 22.1 21.8C22.2 21.8 22.4 21.8 22.6 21.8H25.9C27.7 21.8 29.5 21.8 31.3 21.8C32.3 21.8 33 21.3 33.1 20.5C33.2 20 33.1 19.6 32.8 19.2C32.5 18.8 32.1 18.6 31.6 18.6C31.4 18.6 31.2 18.6 31.1 18.6C30.9 18.6 30.8 18.6 30.6 18.6H17.6L17.7 18.5L18.7 17.5C20.1 16.1 21.6 14.6 23.1 13.1C23.2 13 23.5 12.8 23.6 12.8C27 12.8 30.5 12.8 33.8 12.8H35.7C35.8 12.8 35.8 12.8 35.9 12.8H36V31H5.5V12.6H16.5C16.5 12.7 16.4 12.7 16.4 12.8C16.2 13 16 13.2 15.8 13.4C15.4 13.8 14.9 14.3 14.5 14.7C14.2 14.8 14.1 15.2 14 15.5ZM24.4 7.49999C24.4 7.49999 24.3 7.59999 24.3 7.69999C23.6 8.39999 23 8.99999 22.3 9.69999C20.5 11.5 18.7 13.3 17 15.1C16.8 15.3 16.6 15.4 16.3 15.3C16.1 15.2 15.9 15.2 15.7 15.1C15.6 15.1 15.6 15.1 15.5 15.1L23.7 6.89999L24.4 7.49999ZM18.9 10.1C18.8 10.2 18.7 10.3 18.5 10.5C18.2 10.8 17.8 11.2 17.4 11.5C17.3 11.6 17.1 11.6 16.9 11.6C13.5 11.6 10.2 11.6 6.8 11.6H5.5C5.3 11.6 5.2 11.6 5 11.6C4.7 11.6 4.5 11.8 4.5 12.1C4.5 12.2 4.5 12.3 4.5 12.4C4.5 18.6 4.5 24.7 4.5 30.9C4.5 31.6 4.6 32 5.3 32C15.6 32 26 32 36.3 32C36.9 32 37.1 31.6 37.1 30.9V12.4C37.1 11.7 37 11.6 36.3 11.6C32.5 11.6 28.8 11.6 25 11.6H24.5C24.6 11.5 24.7 11.4 24.9 11.3C25.3 10.9 25.7 10.6 26 10.2C26.1 10.1 26.2 10.1 26.3 10.1H27.3C30.3 10.1 33.5 10.1 36.5 10.1C37.8 10.1 38.6 11 38.6 12.3C38.6 15.3 38.6 18.3 38.6 21.4V24.4C38.6 27.4 38.6 30.4 38.6 33.4C38.6 34.9 37.8 35.8 36.3 35.8H5.3C3.8 35.8 3 34.9 3 33.5C3 26.5 3 19.5 3 12.5C3 11 3.8 10.2 5.3 10.2C7.5 10.2 9.8 10.2 12 10.2C13.1 10.2 14.2 10.2 15.3 10.2L18.9 10.1ZM24.4 5.99999L25.3 5.09999L27.4 7.19999L26.6 7.99999L25.9 7.29999C25.4 6.99999 24.9 6.49999 24.4 5.99999Z" fill="#1B3ECD"/>
<path d="M36.2 8.39999C36.9 8.39999 37.5 8.09999 38 7.59999C38.5 7.09999 38.7 6.49999 38.7 5.79999C38.7 4.39999 37.5 3.29999 36.2 3.29999C34.8 3.29999 33.7 4.39999 33.7 5.89999C33.7 6.59999 34 7.19999 34.4 7.69999C34.8 8.09999 35.5 8.39999 36.2 8.39999ZM37.8 5.89999C37.8 6.79999 37.1 7.49999 36.2 7.49999C35.3 7.49999 34.6 6.79999 34.6 5.89999C34.6 5.49999 34.8 5.09999 35.1 4.79999C35.4 4.49999 35.8 4.29999 36.2 4.29999C36.6 4.29999 37 4.49999 37.3 4.79999C37.6 4.99999 37.8 5.49999 37.8 5.89999Z" fill="#1B3ECD"/>
<path d="M22.2 3.4C22.7 3.4 23.1 3.2 23.4 2.9C23.7 2.6 23.9 2.1 23.9 1.7C23.9 0.8 23.1 0 22.2 0C21.7 0 21.3 0.2 21 0.5C20.7 0.8 20.5 1.3 20.5 1.8C20.5 2.7 21.3 3.4 22.2 3.4ZM21.4 1.7C21.4 1.5 21.5 1.3 21.6 1.2C21.8 1 22 0.9 22.2 0.9C22.6 0.9 22.9 1.2 22.9 1.7C22.9 1.9 22.8 2.1 22.7 2.3C22.6 2.4 22.4 2.5 22.2 2.5C22 2.5 21.8 2.4 21.6 2.3C21.5 2.1 21.4 1.9 21.4 1.7Z" fill="#1B3ECD"/>
<path d="M31.4 8.00001C31.8 8.00001 32.1 7.70001 32.1 7.30001C32.1 6.90001 31.8 6.60001 31.4 6.60001C31.2 6.60001 31 6.70001 30.9 6.80001C30.8 6.90001 30.7 7.10001 30.7 7.30001C30.7 7.70001 31 8.00001 31.4 8.00001Z" fill="#1B3ECD"/>
<path d="M20.9 34.7C21.4 34.7 21.8 34.3 21.8 33.8C21.8 33.3 21.4 32.9 20.9 32.9C20.4 32.9 20 33.3 20 33.8C20 34 20.1 34.2 20.3 34.4C20.4 34.6 20.6 34.7 20.9 34.7Z" fill="#1B3ECD"/>
<path d="M17.1 23.5C14.3 23.5 11.6 23.5 8.80001 23.5C8.60001 23.5 8.40001 23.5 8.30001 23.6C8.20001 23.7 8.20001 23.8 8.20001 23.9C8.20001 24.3 8.60001 24.4 8.80001 24.4C9.80001 24.4 10.9 24.4 11.9 24.4H13.8C14.9 24.4 16 24.4 17.1 24.4C17.3 24.4 17.5 24.4 17.6 24.3C17.7 24.2 17.7 24.1 17.7 24C17.8 23.5 17.3 23.5 17.1 23.5Z" fill="#1B3ECD"/>
<path d="M17.4 25.5C17.3 25.5 17.2 25.5 17.1 25.5H17H13C11.6 25.5 10.3 25.5 8.89998 25.5H8.79998C8.69998 25.5 8.59998 25.5 8.49998 25.5C8.29998 25.6 8.09998 25.8 8.09998 25.9C8.09998 26.1 8.29998 26.3 8.39998 26.4C8.49998 26.4 8.49998 26.4 8.59998 26.4H8.69998H8.79998C11.5 26.4 14.2 26.4 16.9 26.4H17C17.1 26.4 17.2 26.4 17.3 26.4C17.4 26.3 17.6 26.1 17.6 25.9C17.8 25.7 17.5 25.6 17.4 25.5Z" fill="#1B3ECD"/>
<path d="M8.8 21.5C8.7 21.5 8.6 21.5 8.5 21.5C8.4 21.6 8.1 21.8 8.2 21.9C8.2 22 8.4 22.2 8.6 22.3C8.6 22.3 8.7 22.3 8.8 22.3H8.9H9C9.9 22.3 10.8 22.3 11.7 22.3H14C15 22.3 16 22.3 17 22.3H17.1C17.4 22.3 17.7 22.3 17.8 21.9C17.8 21.8 17.8 21.7 17.7 21.6C17.6 21.5 17.4 21.4 17 21.4C14.3 21.5 11.6 21.5 8.8 21.5C8.9 21.5 8.9 21.5 8.8 21.5Z" fill="#1B3ECD"/>
<path d="M11.8 27.5C10.7 27.5 9.70001 27.5 8.70001 27.5C8.30001 27.5 8.20001 27.7 8.20001 27.9C8.20001 28 8.20001 28.2 8.30001 28.2C8.40001 28.3 8.50001 28.3 8.70001 28.3C8.90001 28.3 9.00001 28.3 9.20001 28.3C9.40001 28.3 9.50001 28.3 9.70001 28.3H10.2C10.7 28.3 11.2 28.3 11.8 28.3C12.2 28.3 12.3 28.1 12.3 27.9C12.3 27.8 12.3 27.6 12.2 27.6C12.2 27.5 12 27.5 11.8 27.5Z" fill="#1B3ECD"/>
<path d="M27.7 28.9C28.3 28.9 28.9 28.9 29.5 28.9H31.3C31.7 28.9 32.2 28.9 32.6 28.9C32.7 28.9 32.9 28.9 33 28.8C33.3 28.6 33.3 28.3 33.3 28.1C33.3 26.8 33.3 25.4 33.3 24.1C33.3 23.6 32.9 23.1 32.3 23.1H31.1C30 23.1 28.9 23.1 27.7 23.1C27.5 23.1 27.2 23.2 27 23.4C26.8 23.6 26.7 23.8 26.7 24.1C26.7 25.5 26.7 26.8 26.7 28.2C26.7 28.4 26.8 28.6 27 28.8C27.2 29 27.4 28.9 27.7 28.9ZM29.1 26.7L29.6 26.3L30.6 27.4L31.5 26.6L31.6 26.7C31.8 26.9 32 27 32.2 27.2L32.3 27.3C32.4 27.4 32.4 27.4 32.5 27.5C32.5 27.5 32.5 27.6 32.5 27.7C32.5 27.7 32.5 27.8 32.5 27.9V28C32.5 28.1 32.5 28.1 32.5 28.2C32.5 28.2 32.5 28.2 32.5 28.3C32.5 28.3 32.5 28.3 32.4 28.3H29.8C29.1 28.3 28.3 28.3 27.6 28.3C27.5 28.3 27.5 28.3 27.4 28.3C27.3 28.3 27.3 28.2 27.3 28.1C27.3 28 27.3 28 27.4 28C28.1 27.5 28.6 27.1 29.1 26.7ZM32.6 26.6C32.3 26.4 32.1 26.2 31.8 25.9C31.7 25.8 31.5 25.8 31.4 25.9C31.2 26.1 31 26.2 30.8 26.4L30.7 26.5L29.7 25.5L27.4 27.1V26.6V25.3C27.4 24.9 27.4 24.5 27.4 24.1C27.4 24 27.4 23.9 27.5 23.8H27.6C29.2 23.8 30.8 23.8 32.2 23.8C32.3 23.8 32.5 23.9 32.5 24.1C32.5 24.9 32.5 25.6 32.5 26.4V26.6H32.6Z" fill="#1B3ECD"/>
<path d="M31.1 24C30.9 24 30.7 24.1 30.5 24.2C30.3 24.4 30.3 24.6 30.3 24.8C30.3 25 30.4 25.2 30.5 25.4C30.6 25.6 30.9 25.6 31.1 25.6C31.3 25.6 31.5 25.5 31.7 25.4C31.9 25.3 31.9 25 31.9 24.8C31.9 24.4 31.6 24 31.1 24Z" fill="#1B3ECD"/>
</g>
</g>
<defs>
<clipPath id="clip0_780_16">
<rect width="42" height="42" fill="white"/>
</clipPath>
<clipPath id="clip1_780_16">
<rect width="37.5" height="42.1" fill="white" transform="translate(2)"/>
</clipPath>
</defs>
</svg>
