<svg width="42" height="42" viewBox="0 0 42 42" fill="none" xmlns="http://www.w3.org/2000/svg">
<g clip-path="url(#clip0_784_110)">
<g clip-path="url(#clip1_784_110)">
<path d="M3.99998 16.2C3.79998 16.2 3.69998 16.2 3.49998 16.2C3.39998 16.2 3.29998 16.2 3.19998 16.2C2.99998 16.2 2.89998 16.2 2.79998 16.3C2.69998 16.4 2.59998 16.5 2.59998 16.8C2.59998 17 2.59998 17.1 2.69998 17.2C2.79998 17.3 2.89998 17.3 2.99998 17.3C2.99998 17.3 2.99998 17.3 3.09998 17.3C3.19998 17.3 3.29998 17.3 3.39998 17.3C3.49998 17.3 3.59998 17.3 3.69998 17.3C3.79998 17.3 3.89998 17.3 3.89998 17.3C3.99998 17.3 4.19998 17.3 4.29998 17.2C4.39998 17.1 4.39998 17 4.39998 16.9C4.39998 16.7 4.39998 16.6 4.29998 16.5C4.29998 16.3 4.19998 16.2 3.99998 16.2Z" fill="white"/>
<path d="M3.19998 12.9H3.29998C3.39998 12.9 3.39998 12.9 3.49998 12.9C3.69998 12.9 3.89998 12.9 4.09998 12.8C4.29998 12.7 4.39998 12.4 4.49998 12.2C4.49998 12 4.19998 11.8 4.09998 11.8C3.99998 11.8 3.89998 11.8 3.69998 11.8H3.59998H3.39998C3.29998 11.8 3.19998 11.8 3.19998 11.8C2.99998 11.8 2.59998 11.8 2.59998 12.3C2.59998 12.5 2.59998 12.6 2.69998 12.7C2.89998 12.8 2.99998 12.9 3.19998 12.9Z" fill="white"/>
<path d="M3.89998 20.6H3.69998C3.49998 20.6 3.39998 20.6 3.19998 20.6C2.99998 20.6 2.79998 20.6 2.69998 20.7C2.59998 20.8 2.59998 20.9 2.59998 21.1C2.59998 21.3 2.59998 21.4 2.69998 21.5C2.79998 21.6 2.89998 21.6 3.09998 21.6H3.19998H3.29998C3.39998 21.6 3.49998 21.6 3.49998 21.6H3.69998C3.69998 21.6 3.69998 21.6 3.79998 21.6C3.99998 21.6 4.09998 21.6 4.29998 21.5C4.39998 21.4 4.39998 21.3 4.39998 21.1C4.39998 20.9 4.39998 20.8 4.29998 20.7C4.29998 20.6 4.09998 20.6 3.89998 20.6Z" fill="white"/>
<path d="M4.09998 29.3C3.89998 29.3 3.59998 29.3 3.39998 29.3H3.19998C2.99998 29.3 2.89998 29.3 2.79998 29.4C2.69998 29.5 2.69998 29.6 2.59998 29.8C2.59998 30 2.59998 30.1 2.69998 30.2C2.79998 30.3 2.89998 30.3 3.09998 30.3C3.19998 30.3 3.29998 30.3 3.39998 30.3H3.49998H3.59998H3.69998C3.79998 30.3 3.89998 30.3 3.89998 30.3C4.09998 30.2 4.29998 30.1 4.29998 29.9C4.29998 29.7 4.29998 29.6 4.19998 29.5C4.39998 29.4 4.19998 29.3 4.09998 29.3Z" fill="white"/>
<path d="M3.10001 26C3.30001 26 3.30001 26 3.40001 26C3.60001 26 3.80001 26 4.10001 25.9C4.30001 25.9 4.50001 25.6 4.50001 25.4C4.50001 25.2 4.30001 25 4.10001 25C4.00001 25 3.80001 25 3.70001 25C3.70001 25 3.70001 25 3.60001 25H3.20001C3.00001 25 2.70001 25 2.70001 25.4C2.70001 25.6 2.70001 25.8 2.80001 25.9C2.80001 25.9 3.00001 26 3.10001 26Z" fill="white"/>
<path d="M41.9005 2.89459C41.9005 2.39601 41.7014 1.89744 41.4028 1.49858C41.0047 1.19943 40.5071 1 40.0095 1C35.1327 1 30.3555 1 25.4787 1H20.9005H15.327C10.8483 1 6.36967 1 1.79147 1C0.796208 1 0 1.79772 0 2.79487C0 14.2621 0 24.5328 0 34.2051C0 35.2023 0.696683 35.9003 1.69194 36C6.07109 36 10.6493 36 16.4218 36H16.5213C17.218 36 17.9147 36 18.7109 36C18.91 36 19.109 35.9003 19.2085 35.7009C19.3081 35.6011 19.2085 35.4017 19.109 35.2023C19.0095 35.0028 18.7109 34.9031 18.4123 34.9031C14.2322 34.9031 10.9126 34.7393 7.62827 34.7393C7.42922 34.7393 7.23017 34.7393 7.23017 34.6396C7.13064 34.5399 7.13064 34.4402 7.13064 34.2407C7.13064 27.2607 7.13064 20.2806 7.13064 13.5V8.51425C7.13064 8.2151 7.13064 8.01567 7.13064 8.01567C7.13064 8.01567 7.32969 8.01567 7.62827 8.01567C18.4766 8.01567 29.1611 8.17949 40.109 8.17949C40.4076 8.17949 40.6066 8.17949 40.6066 8.17949C40.6066 8.17949 40.6066 8.37892 40.6066 8.67806V12.8661C40.6066 17.3533 40.6066 21.9402 40.6066 26.5271C40.6066 28.9202 40.6066 31.3134 40.6066 34.1054C40.6066 34.7037 40.5071 34.8034 39.91 34.9031C39.5118 34.9031 39.1137 34.9031 38.8152 34.9031C38.6161 34.9031 38.5166 34.9031 38.4171 35.0028C38.3175 35.1026 38.3175 35.2023 38.3175 35.4017C38.3175 35.6011 38.4171 35.7009 38.5166 35.8006C38.6161 35.9003 38.7156 35.9003 38.9147 35.9003C39.0142 35.9003 39.2133 35.9003 39.3128 35.9003H39.4123C39.7109 35.9003 40.109 35.9003 40.4076 35.8006C40.8057 35.7009 41.2038 35.6011 41.4028 35.302C42 34.8034 42 34.2051 42 33.6068V33.4074L41.9005 2.89459ZM6.07109 21.4416C6.07109 25.7293 6.07109 30.0171 6.07109 34.3048C6.07109 34.604 6.07109 34.8034 6.07109 34.8034C6.07109 34.8034 5.87204 34.8034 5.57346 34.8034H4.47867H4.37915C3.58294 34.8034 2.78673 34.8034 1.99052 34.8034C1.29384 34.8034 1.09479 34.604 1.09479 33.906C1.09479 25.5299 1.09479 17.0541 1.09479 8.67806C1.09479 8.37892 1.09479 8.17949 1.19431 8.17949C1.19431 8.07977 1.39336 8.07977 1.69194 8.07977C1.99052 8.07977 2.38863 8.07977 2.6872 8.07977H2.88626C3.78199 8.07977 4.5782 8.07977 5.57346 8.07977C5.77251 8.07977 5.87204 8.07977 5.97156 8.17949C6.07109 8.2792 6.07109 8.37892 6.07109 8.57835C6.07109 11.8689 6.07109 15.2593 6.07109 18.5499V21.4416ZM40.5 7C40.4005 7.09972 40.5071 7.08262 40.3081 7.08262H16.0237C11.4455 7.08262 6.66825 7.08262 1.99052 7.08262C1.891 7.08262 1.79147 7.08262 1.69194 7.08262C1.49289 7.08262 1.29384 7.08262 1.19431 7.08262C1.19431 7.08262 1.19431 6.88319 1.19431 6.58405C1.19431 6.48433 1.19431 6.38462 1.19431 6.18518C1.19431 5.18803 1.19431 4.09117 1.19431 2.9943C1.19431 2.39601 1.49289 2.09687 2.09005 2.09687C12.3412 2.09687 21 2.09687 29.9573 2.09687H30.3554C33.5403 2.09687 36.9242 2.09687 39.6114 2.09687H39.7109C40.7062 2.09687 40.5995 2.21367 40.5995 3.31054C40.5995 4.30769 40.5995 5.20513 40.5995 6.10256V6.60114C40.5 6.80057 40.5 7 40.5 7Z" fill="white"/>
<path d="M22.7 22C23.3 22 23.8 22 24.3 22H28.3C28.6 22 28.8 22 29.1 22C29.6 22 30.3 22 30.9 22C31.1 22 31.2 21.9 31.3 21.8C31.4 21.7 31.4 21.5 31.4 21.3C31.4 21.1 31.1 20.9 30.9 20.9C30.8 20.9 30.7 20.9 30.5 20.9H30.4C26.3 20.9 22.1 20.9 18 20.9C18 20.9 18 20.9 17.9 20.9C17.8 20.9 17.7 20.9 17.6 20.9C17.4 21 17.3 21.1 17.2 21.3C17.1 21.5 17.2 21.7 17.3 21.8C17.5 22 17.7 22 18 22C19.6 22 21.2 22 22.7 22Z" fill="white"/>
<path d="M10.4 25.4C10.5 25.5 10.6 25.5 10.7 25.5H15.5C16.1 25.5 16.8 25.5 17.5 25.5C17.6 25.5 17.7 25.4 17.8 25.3L17.9 25.2L18 25.1V25L17.9 24.9C17.8 24.8 17.8 24.6 17.7 24.5C17.6 24.4 17.5 24.4 17.4 24.4H13.8C12.8 24.4 11.8 24.4 10.8 24.4C10.7 24.4 10.5 24.4 10.4 24.5C10.3 24.6 10.3 24.7 10.3 24.9C10.3 25.2 10.3 25.3 10.4 25.4Z" fill="white"/>
<path d="M28.4 15.6C27.8 15.9 27.7 16.2 28 16.9V17L28.1 16.9C28.5 16.7 28.8 16.5 29.2 16.4C30.1 15.9 31 15.5 32 15C32.5 14.8 32.4 14.4 32.4 14.1C32.4 13.9 32.2 13.6 32 13.5C31.5 13.2 31.1 13 30.6 12.8L30.5 12.7C30.4 12.6 30.3 12.6 30.1 12.5C29.8 12.3 29.4 12.2 29 12L28 11.5V11.6C27.8 12.1 27.8 12.6 28.4 12.8C29 13.1 29.6 13.4 30.1 13.6L30.5 13.8C30.6 13.9 30.8 14 30.9 14.1H31L30.3 14.4C29.7 14.9 29 15.2 28.4 15.6Z" fill="white"/>
<path d="M18.9 13.2L19.6 12.9C20.1 12.6 20.2 12.4 20 11.7V11.6H19.9C19.9 11.6 19.9 11.6 19.8 11.6C19.7 11.6 19.6 11.6 19.6 11.7L19.2 11.9C18.1 12.4 17 13 16 13.5C15.8 13.6 15.7 13.9 15.7 14.2C15.7 14.5 15.8 14.8 16 14.9C16.9 15.4 17.8 15.8 18.7 16.3L20 17V16.9C20.2 16.1 20.1 15.9 19.5 15.6C19.1 15.4 18.7 15.2 18.3 15L18.2 14.9C17.8 14.7 17.4 14.5 17.1 14.3L17 14.2C17 14.1 17.1 14.1 17.1 14.1C17.7 13.8 18.3 13.5 18.9 13.2Z" fill="white"/>
<path d="M25.2 24.7C25.1 24.6 24.9 24.6 24.8 24.6C23.9 24.6 23 24.6 22 24.6H21.9C21.1 24.6 20.3 24.6 19.5 24.6C19.4 24.6 19.3 24.6 19.2 24.7C19 24.6 19 24.8 19 25C19 25.2 19 25.3 19.1 25.4C19.2 25.5 19.3 25.5 19.4 25.5H22.1C22.3 25.5 22.4 25.5 22.6 25.5H23.3C23.8 25.5 24.3 25.5 24.8 25.5C25 25.5 25.1 25.4 25.2 25.2C25.4 25.1 25.3 24.8 25.2 24.7Z" fill="white"/>
<path d="M37.9 20.9C36.6 20.9 35.3 20.9 33.6 20.9C33.3 20.9 33 21 33 21.4C33 21.6 33 21.7 33.1 21.8C33.2 21.9 33.4 21.9 33.5 21.9C34 21.9 34.5 21.9 35 21.9C35.2 21.9 35.4 21.9 35.6 21.9C35.8 21.9 35.9 21.9 36.1 21.9H36.2C36.6 21.9 37.2 21.9 37.7 21.9C37.9 21.9 38 21.9 38.1 21.8C38.2 21.7 38.2 21.6 38.2 21.4C38.5 21 38.2 20.9 37.9 20.9Z" fill="white"/>
<path d="M23.9 14.7H24.3C25 14.7 25.8 14.7 26.6 14.7C26.8 14.7 27.2 14.7 27.2 14.2C27.2 14 27.2 13.9 27.1 13.8C27 13.7 26.8 13.7 26.7 13.7C26 13.7 25.3 13.7 24.6 13.7H24.5C24.2 13.7 23.9 13.7 23.7 13.7H21.8V13.8C21.8 14.2 21.8 14.4 21.9 14.6C22 14.7 22.2 14.8 22.6 14.8C23 14.7 23.4 14.7 23.9 14.7Z" fill="white"/>
<path d="M15.2 20.9C13.6 20.9 12.2 20.9 10.8 20.9C10.6 20.9 10.5 20.9 10.4 21C10.3 21.1 10.3 21.2 10.3 21.4C10.3 21.6 10.3 21.7 10.4 21.8C10.5 21.9 10.6 21.9 10.8 21.9C11.3 21.9 11.9 21.9 12.3 21.9C12.7 21.9 13.1 21.9 13.6 21.9C14.1 21.9 14.6 21.9 15.1 21.9C15.3 21.9 15.4 21.9 15.5 21.8C15.6 21.7 15.6 21.6 15.6 21.4C15.7 21.1 15.5 20.9 15.2 20.9Z" fill="white"/>
<path d="M23.3 32.1V31.6C23.3 31.1 23.7 30.7 24.1 30.7C24.4 30.7 24.6 30.5 24.6 30.2C24.6 30.1 24.5 30 24.5 29.9C24.4 29.8 24.3 29.8 24.1 29.8C23.1 29.8 22.3 30.6 22.3 31.6V32.9C22.3 33.4 22.3 33.9 22.3 34.5C22.3 35.1 22 35.4 21.4 35.4C21.1 35.4 20.9 35.6 20.9 35.9C20.9 36.2 21.1 36.3 21.4 36.4C21.6 36.4 21.8 36.5 22 36.7C22.2 36.9 22.2 37.1 22.2 37.4C22.2 38 22.2 38.7 22.2 39.3V40.3C22.2 41.3 23 42.1 24 42.1C24.3 42.1 24.5 41.9 24.5 41.6C24.5 41.3 24.3 41.1 24 41.1C23.5 41.1 23.1 40.7 23.1 40.2V39.4C23.1 38.7 23.1 38 23.1 37.3C23.1 37.1 23.1 36.9 23 36.7C22.9 36.4 22.8 36.2 22.5 36C22.9 35.6 23.1 35.2 23.1 34.6C23.3 33.6 23.3 32.8 23.3 32.1Z" fill="white"/>
<path d="M36.5 35.3C36.2 35.3 36 35.2 35.9 35C35.8 34.8 35.7 34.6 35.7 34.3C35.7 33.6 35.7 33 35.7 32.3V31.4C35.7 30.4 34.9 29.6 33.9 29.6C33.6 29.6 33.4 29.8 33.4 30.1C33.4 30.4 33.6 30.6 33.9 30.6C34.4 30.6 34.8 31 34.8 31.5V32.2C34.8 32.9 34.8 33.6 34.8 34.4C34.8 34.6 34.8 34.8 34.9 35C35 35.3 35.1 35.5 35.4 35.7C35 36.1 34.8 36.5 34.8 37.1C34.8 37.8 34.8 38.6 34.8 39.3V40C34.8 40.5 34.4 40.9 34 40.9C33.9 40.9 33.8 40.9 33.7 41C33.5 41.1 33.4 41.3 33.5 41.5C33.6 41.7 33.8 41.8 34 41.8C35 41.8 35.7 41 35.7 40C35.7 39.1 35.7 38.1 35.7 37.2C35.7 36.6 36 36.3 36.6 36.2C36.7 36.2 36.8 36.1 36.9 36C37 35.9 37.1 35.7 37 35.5C36.9 35.4 36.7 35.3 36.5 35.3Z" fill="white"/>
<path d="M28.7 34.1C28.6 34.1 28.4 34.1 28.3 34.2C28.2 34.3 28.2 34.4 28.2 34.5C28.2 34.8 28.4 35 28.7 35H32.2C32.3 35 32.5 34.9 32.6 34.9C32.7 34.8 32.7 34.7 32.7 34.6C32.7 34.3 32.5 34.1 32.2 34.1H28.7Z" fill="white"/>
<path d="M29.3 39.2H25.8C25.7 39.2 25.7 39.2 25.6 39.2C25.4 39.3 25.2 39.5 25.3 39.7C25.3 39.9 25.5 40.1 25.8 40.1H27.8H29.3C29.5 40.1 29.6 40 29.7 40C29.8 39.9 29.8 39.8 29.8 39.7C29.8 39.4 29.6 39.2 29.3 39.2Z" fill="white"/>
<path d="M25.8 32.5H27.3H29.3C29.6 32.5 29.8 32.3 29.8 32C29.8 31.9 29.8 31.7 29.7 31.7C29.6 31.6 29.5 31.6 29.3 31.6H25.8C25.7 31.6 25.5 31.7 25.4 31.7C25.3 31.8 25.3 31.9 25.3 32C25.3 32.3 25.6 32.5 25.8 32.5Z" fill="white"/>
<path d="M32.2 36.6C31 36.6 29.8 36.6 28.7 36.6C28.6 36.6 28.4 36.6 28.4 36.7C28.3 36.8 28.3 36.9 28.3 37C28.3 37.3 28.5 37.5 28.8 37.5H32.3C32.6 37.5 32.8 37.3 32.8 37C32.8 36.9 32.8 36.7 32.7 36.7C32.4 36.7 32.3 36.6 32.2 36.6Z" fill="white"/>
<path d="M30.4 5.39999C30.8418 5.39999 31.2 5.04182 31.2 4.59999C31.2 4.15816 30.8418 3.79999 30.4 3.79999C29.9581 3.79999 29.6 4.15816 29.6 4.59999C29.6 5.04182 29.9581 5.39999 30.4 5.39999Z" fill="white"/>
<path d="M33.8 5.39999C34.2418 5.39999 34.6 5.04182 34.6 4.59999C34.6 4.15816 34.2418 3.79999 33.8 3.79999C33.3582 3.79999 33 4.15816 33 4.59999C33 5.04182 33.3582 5.39999 33.8 5.39999Z" fill="white"/>
<path d="M37.3 5.39999C37.7418 5.39999 38.1 5.04182 38.1 4.59999C38.1 4.15816 37.7418 3.79999 37.3 3.79999C36.8582 3.79999 36.5 4.15816 36.5 4.59999C36.5 5.04182 36.8582 5.39999 37.3 5.39999Z" fill="white"/>
</g>
</g>
<defs>
<clipPath id="clip0_784_110">
<rect width="42" height="42" fill="white"/>
</clipPath>
<clipPath id="clip1_784_110">
<rect width="42.1" height="40.9" fill="white" transform="translate(0 1)"/>
</clipPath>
</defs>
</svg>
