<?xml version="1.0" encoding="utf-8"?>
<!-- Generator: Adobe Illustrator 19.0.0, SVG Export Plug-In . SVG Version: 6.00 Build 0)  -->
<svg version="1.1" id="Layer_1" xmlns="http://www.w3.org/2000/svg" xmlns:xlink="http://www.w3.org/1999/xlink" x="0px" y="0px"
	 viewBox="0 0 42 42" style="enable-background:new 0 0 42 42;" xml:space="preserve">
<style type="text/css">
	.st0{fill:#1B3ECD;}
</style>
<g id="XMLID_587_">
	<path id="XMLID_691_" class="st0" d="M24.4,34.3c-0.1,0-0.5-0.1-0.5-0.2c-0.2-0.6-0.3-1.3-0.4-1.9c0-0.2-0.1-0.4-0.1-0.6
		c0,0,0,0,0,0c0,0,0,0,0,0c0.2,0,0.4,0,0.5,0c0.2,0,0.3,0,0.5,0c0.2,0,0.4,0,0.6,0c0.3,0,0.7-0.1,0.7-0.6c0-0.4-0.3-0.6-0.7-0.6
		c-0.6,0-1.2,0-1.9,0l-2.8,0l-3.9,0c-4.8,0-9.6,0-14.4,0c-0.7,0-1-0.2-1-1c0-0.2,0-0.3,0-0.5c0-6.1,0-12.2,0-18.4c0-0.1,0-0.2,0-0.3
		c0-0.1,0-0.1,0-0.2c0,0,0,0,0,0h36.3c0,0,0,0,0,0l0,2.3l0,1.7c0,1.5,0,3.1,0,4.6c0,0.4,0.1,0.7,0.5,0.7c0,0,0.1,0,0.1,0
		c0.3,0,0.5-0.3,0.5-0.8l0-1.8c0-3.4,0-6.9,0-10.4c0-1.5-0.7-2.3-2.3-2.3c-1.5,0-3,0-4.6,0c-1.5,0-2.9,0-4.4,0l-12.4,0
		c-4.3,0-8.6,0-12.9,0C0.7,4.2,0,5,0,6.4c0,7.6,0,15.2,0,22.9c0,1.5,0.7,2.2,2.2,2.2c3,0,6.1,0,9.1,0l4,0c0,0,0,0,0,0c0,0,0,0,0,0
		c0,0.2-0.1,0.5-0.1,0.7c-0.1,0.5-0.2,1-0.3,1.5c-0.1,0.4-0.2,0.5-0.6,0.5c-1.6,0-2.9,1.2-3,2.8c0,0.7,0.3,1.4,0.9,1.6
		c0.3,0.1,0.7,0.2,1.2,0.2c2,0,4.2,0,6.8,0c1.5,0,3.1,0,4.6,0l0.6,0c0.7,0,1.3-0.2,1.6-0.6c0.3-0.4,0.4-1,0.2-1.7
		C27,35.2,25.9,34.3,24.4,34.3z M1.2,6.1c0-0.4,0.3-0.7,0.9-0.7c1.9,0,3.7,0,5.5,0l13.8,0l15.1,0c0.9,0,1.1,0.2,1.1,1.1
		c0,0.5,0,1,0,1.6c0,0.2,0,0.5,0,0.7c0,0,0,0,0,0H1.2c0,0,0,0,0,0c0-0.3,0-0.5,0-0.8C1.2,7.3,1.2,6.7,1.2,6.1z M16.1,33.6
		c0.1-0.6,0.2-1.2,0.4-1.8c0-0.1,0.2-0.3,0.3-0.3c0.8,0,1.7,0,2.6,0c0.8,0,1.7,0,2.5,0c0.1,0,0.3,0.1,0.3,0.3
		c0.1,0.6,0.2,1.2,0.4,1.8c0,0.2,0.1,0.4,0.1,0.6c0,0,0,0,0,0c0,0,0,0,0,0H16c0,0,0,0,0,0c0,0,0,0,0,0C16,34,16.1,33.8,16.1,33.6z
		 M26.1,37.5c-0.1,0.1-0.3,0.2-0.5,0.2c-1,0-1.9,0-2.9,0l-3.3,0l-3.4,0c-0.9,0-1.8,0-2.7,0c-0.4,0-0.6-0.1-0.7-0.2
		c-0.1-0.1-0.1-0.4,0-0.7c0.2-0.8,0.9-1.3,1.7-1.3c1.6,0,3.1,0,4.5,0c2,0,3.9,0,5.7,0c0.9,0,1.7,0.7,1.8,1.6
		C26.3,37.3,26.2,37.4,26.1,37.5z"/>
	<path id="XMLID_723_" class="st0" d="M40.5,25.7c-0.1-0.1-0.3-0.2-0.4-0.5c-0.1-0.2-0.1-0.6,0-0.8c0.4-0.8,0.3-1.5-0.3-2.2
		c-0.2-0.2-0.4-0.4-0.6-0.6c-0.3-0.3-0.7-0.5-1.2-0.5c-0.3,0-0.6,0.1-0.9,0.2c-0.1,0.1-0.2,0.1-0.4,0.1c-0.4,0-0.9-0.3-1-0.6
		c-0.2-0.8-0.8-1.3-1.7-1.3c-0.1,0-0.2,0-0.3,0c-0.1,0-0.3,0-0.4,0c-0.9,0-1.5,0.5-1.8,1.4c-0.1,0.3-0.6,0.6-1,0.6
		c-0.1,0-0.2,0-0.3-0.1c-0.3-0.2-0.6-0.3-0.9-0.3c-0.4,0-0.8,0.2-1.2,0.5l-0.1,0.1c-0.2,0.1-0.3,0.3-0.5,0.5
		c-0.6,0.6-0.7,1.4-0.3,2.2c0.1,0.2,0.1,0.5,0,0.8c-0.1,0.3-0.3,0.5-0.6,0.5c-0.8,0.2-1.3,0.8-1.3,1.6c0,0.2,0,0.4,0,0.6l0,0.1
		c0,1.1,0.4,1.5,1.4,1.8c0.2,0.1,0.4,0.3,0.5,0.5c0.1,0.2,0.1,0.5,0,0.7c-0.5,0.8-0.4,1.6,0.3,2.2c0.2,0.2,0.3,0.3,0.6,0.5
		c0.3,0.3,0.8,0.5,1.2,0.5c0.3,0,0.6-0.1,0.9-0.2c0.1-0.1,0.2-0.1,0.4-0.1c0.4,0,0.9,0.3,1,0.7c0.2,0.7,0.8,1.2,1.6,1.3
		c0.1,0,0.3,0,0.5,0c0.1,0,0.2,0,0.3,0l0.1,0c0.9,0,1.5-0.5,1.8-1.4c0.1-0.3,0.6-0.6,1-0.6c0.1,0,0.2,0,0.3,0.1
		c0.3,0.2,0.6,0.3,0.9,0.3c0.4,0,0.8-0.2,1.2-0.5c0.2-0.2,0.4-0.3,0.6-0.5c0.7-0.7,0.8-1.4,0.3-2.3c-0.1-0.2,0-0.5,0-0.7
		c0.1-0.3,0.2-0.5,0.4-0.5c1.2-0.5,1.5-0.8,1.5-2.1C42,26.5,41.8,26.2,40.5,25.7z M40.9,27.7c0,0.1,0,0.3,0,0.4
		c0,0.5-0.2,0.7-0.6,0.7c-0.5,0-0.8,0.3-1,0.8l0,0.1c-0.1,0.2-0.2,0.4-0.3,0.6c-0.3,0.5-0.2,1,0.1,1.4c0.3,0.3,0.2,0.6-0.1,0.9
		l-0.1,0.1c-0.1,0.1-0.2,0.2-0.3,0.3c-0.2,0.2-0.3,0.3-0.5,0.3c-0.2,0-0.3-0.1-0.5-0.2c0,0-0.1-0.1-0.2-0.1
		c-0.1-0.1-0.3-0.1-0.5-0.1c-0.8,0-2,0.7-2.1,1.4c-0.1,0.6-0.2,0.6-1,0.6h0c-0.8,0-0.8,0-1-0.8c-0.2-0.7-1.3-1.2-2.1-1.2
		c-0.3,0-0.5,0.1-0.7,0.2c-0.2,0.1-0.3,0.2-0.5,0.2c-0.2,0-0.3-0.1-0.5-0.3c-0.1-0.1-0.1-0.1-0.2-0.2c-0.1-0.1-0.2-0.2-0.2-0.2
		c-0.2-0.3-0.3-0.5,0-0.8c0.4-0.5,0.4-1,0.1-1.5c-0.1-0.2-0.2-0.4-0.2-0.6l0-0.1c-0.2-0.5-0.5-0.8-0.9-0.8c-0.5,0-0.7-0.3-0.7-0.8
		c0-0.1,0-0.3,0-0.4l0-0.1c0-0.4,0.2-0.6,0.5-0.6c0.6,0,0.9-0.3,1.1-0.9c0.1-0.2,0.2-0.4,0.3-0.7c0.3-0.5,0.2-0.9-0.1-1.3
		c-0.3-0.3-0.2-0.6,0-0.9c0.1-0.1,0.3-0.3,0.4-0.4c0.2-0.2,0.3-0.2,0.5-0.2c0.1,0,0.3,0.1,0.4,0.2c0.2,0.2,0.5,0.3,0.7,0.3
		c0.2,0,0.4,0,0.6-0.1c0.3-0.1,0.5-0.2,0.8-0.3c0.5-0.2,0.8-0.5,0.8-1c0-0.4,0.3-0.6,0.6-0.6c0,0,0.1,0,0.1,0c0.1,0,0.2,0,0.3,0
		c0.1,0,0.2,0,0.3,0c0,0,0,0,0.1,0c0.4,0,0.6,0.2,0.7,0.6c0,0.5,0.3,0.8,0.8,1c0.3,0.1,0.5,0.2,0.7,0.3c0.2,0.1,0.5,0.2,0.7,0.2
		c0.3,0,0.5-0.1,0.7-0.3c0.1-0.1,0.3-0.2,0.4-0.2c0.2,0,0.3,0.1,0.5,0.2c0.1,0.1,0.3,0.3,0.4,0.4c0.4,0.3,0.4,0.6,0.1,1
		c-0.3,0.4-0.3,0.8-0.1,1.2c0.1,0.3,0.2,0.5,0.3,0.8c0.2,0.5,0.5,0.8,1,0.9c0.4,0,0.6,0.3,0.6,0.6C40.9,27.6,40.9,27.6,40.9,27.7z"
		/>
	<path id="XMLID_727_" class="st0" d="M22.8,12.5c0-0.7-0.4-1.1-1.1-1.1c-2,0-3.9,0-5.9,0c-3.9,0-7.8,0-11.7,0c-0.7,0-1,0.4-1,1.1
		c0,1.6,0,3.2,0,4.9c0,0.9,0.3,1.2,1.2,1.2c1.3,0,2.6,0,3.8,0l4.6,0l3.1,0c1.9,0,3.8,0,5.7,0c0.8,0,1.2-0.3,1.2-1.1
		C22.9,15.7,22.9,14.1,22.8,12.5z M21.7,17.4C21.7,17.4,21.7,17.5,21.7,17.4l-17.3,0c0,0,0,0,0,0v-4.7c0,0,0,0,0,0h17.2c0,0,0,0,0,0
		V17.4z"/>
	<path id="XMLID_730_" class="st0" d="M21.6,21c-0.5,0-0.9,0-1.4,0l-4.6,0c-1.3,0-2.6,0-4,0c-0.8,0-1.1,0.3-1.1,1.1l0,0.9
		c0,1.3,0,2.7,0,4c0,0.8,0.3,1.1,1.1,1.1c0.7,0,1.4,0,2,0c0.5,0,2.4,0,2.9,0c0,0,0,0,0,0l2.9,0c0.7,0,1.4,0,2.1,0
		c0.8,0,1.1-0.3,1.1-1.1c0-1.6,0-3.2,0-4.8C22.9,21.3,22.5,21,21.6,21z M21.7,26.9C21.7,26.9,21.7,26.9,21.7,26.9
		c-0.1,0.1-0.1,0.1-0.1,0.1c-0.1,0-0.1,0-0.2,0c-1,0-1.9,0-2.9,0c-2.1,0-4.2,0-6.3,0c-0.2,0-0.3,0-0.4-0.1c-0.1-0.1-0.1-0.2-0.1-0.4
		c0-1.3,0-2.7,0-4c0-0.2,0-0.3,0.1-0.3c0.1-0.1,0.2-0.1,0.3-0.1c0,0,0,0,0,0c2.2,0,4.5,0,6.7,0c0.9,0,1.8,0,2.7,0c0,0,0,0,0.1,0
		c0,0,0,0,0.1,0c0,0,0,0,0,0V26.9z"/>
	<path id="XMLID_733_" class="st0" d="M8.9,21.9c0-0.6-0.4-1-0.9-1c-0.6,0-1.2,0-1.8,0c-0.7,0-1.4,0-2.1,0c-0.6,0-0.9,0.4-0.9,1
		c0,2,0,3.6,0,5.1c0,0.7,0.3,1,1,1c0.7,0,1.4,0,2.1,0c0.5,0,1.1,0,1.6,0c0.7,0,1-0.4,1-1c0-0.6,0-1.2,0-1.7c0-0.2,0-0.5,0-0.7
		c0,0,0,0,0,0c0-0.3,0-0.5,0-0.8C8.9,23.2,8.9,22.6,8.9,21.9z M7.8,26.9C7.8,26.9,7.8,26.9,7.8,26.9l-3.4,0c0,0,0,0,0,0v-4.7
		c0,0,0,0,0,0h3.3c0,0,0,0,0,0V26.9z"/>
	<path id="XMLID_734_" class="st0" d="M33.2,15.6c0.3,0,0.5,0,0.8,0c0.5,0,0.8,0,1.2,0c0.3,0,0.5-0.1,0.6-0.4c0.1-0.2,0.1-0.3,0-0.5
		c-0.1-0.2-0.5-0.3-0.7-0.3c-0.7,0-1.4,0-2.3,0c-0.4,0-0.8,0-1.2,0c-0.4,0-0.8,0-1.1,0l-2.5,0c-0.7,0-1.4,0-2.1,0
		c-0.4,0-0.7,0.2-0.7,0.6c0,0.3,0.3,0.6,0.7,0.6c0,0,0.1,0,0.1,0l0.2,0l6.3,0C32.7,15.6,32.9,15.6,33.2,15.6z"/>
	<path id="XMLID_735_" class="st0" d="M25.6,12.9c0.1,0,0.2,0,0.3,0l0.1,0c0.9,0,1.8,0,2.7,0l3.9,0c0.8,0,1.6,0,2.4,0
		c0,0,0.1,0,0.1,0c0,0,0.1,0,0.1,0c0.1,0,0.2,0,0.2,0c0.1-0.1,0.4-0.3,0.4-0.5c0-0.1-0.2-0.4-0.3-0.5c-0.1-0.1-0.2-0.1-0.3-0.1
		l-0.1,0c-1.7,0-3.3,0-5,0c-1.4,0-2.7,0-4.1,0h0c-0.1,0-0.2,0-0.4,0c-0.3,0.1-0.5,0.3-0.4,0.6C25.2,12.7,25.3,12.8,25.6,12.9z"/>
	<path id="XMLID_736_" class="st0" d="M29.5,17.2c-0.2,0-1.1,0-1.3,0c0,0-1.1,0-1.4,0c-0.3,0-0.6,0-0.9,0c-0.3,0-0.5,0.1-0.6,0.2
		c-0.1,0.1-0.1,0.2-0.1,0.4c0,0.4,0.3,0.6,0.7,0.6c0.8,0,1.5,0,2.3,0c0.8,0,1.5,0,2.3,0c0.2,0,0.4-0.1,0.5-0.2
		c0.1-0.1,0.1-0.2,0.1-0.4c0-0.4-0.3-0.6-0.7-0.6C30.1,17.2,29.8,17.2,29.5,17.2z"/>
	<path id="XMLID_737_" class="st0" d="M7,7.7c0.4,0,0.6-0.3,0.7-0.6c0-0.3-0.3-0.6-0.6-0.6c-0.3,0-0.7,0.3-0.7,0.6
		C6.4,7.4,6.7,7.7,7,7.7z"/>
	<path id="XMLID_738_" class="st0" d="M9.7,7.7c0.4,0,0.7-0.2,0.7-0.6c0-0.3-0.2-0.6-0.6-0.6c-0.3,0-0.7,0.2-0.7,0.6
		C9.1,7.4,9.4,7.7,9.7,7.7z"/>
	<path id="XMLID_739_" class="st0" d="M4.4,7.7C4.7,7.7,5,7.5,5,7.1c0-0.3-0.3-0.6-0.6-0.6C4,6.5,3.8,6.8,3.8,7.1
		C3.8,7.5,4,7.7,4.4,7.7z"/>
	<path id="XMLID_742_" class="st0" d="M36.9,29.8c0-0.1,0.1-0.2,0.1-0.2l0-0.1c0-0.2,0.1-0.3,0.1-0.5c0-0.2,0-0.5,0-0.7
		c0-0.1,0-0.2,0-0.3c0-0.4-0.1-0.8-0.4-1.1c0-0.4-0.1-0.7-0.3-1.1c-0.5-1.1-1.8-1.8-3-1.6c-1.3,0.2-2.2,1.3-2.4,2.6c0,0,0,0.1,0,0.1
		c-0.4,0.5-0.5,1.1-0.3,1.7c0.2,0.6,0.7,0.9,1.4,1c0.1,0,0.3,0,0.4-0.1c0.1-0.1,0.1-0.3,0.1-0.4c0-0.8,0-1.5,0-2.3
		c0-0.1,0-0.3-0.1-0.4c-0.1-0.1-0.3-0.1-0.4-0.1c0,0-0.1,0-0.1,0c0.1-0.5,0.4-0.8,0.8-1c0.7-0.4,1.5-0.4,2.2,0
		c0.4,0.2,0.7,0.6,0.8,1c-0.1,0-0.1,0-0.2,0c-0.2,0-0.3,0-0.3,0.1c-0.1,0.1-0.1,0.2-0.1,0.3c0,0.8,0,1.6,0,2.4
		c0,0.2,0.1,0.3,0.1,0.3c0.1,0.1,0.2,0.1,0.3,0.1c0.1,0,0.3,0,0.5-0.1c0.1,0,0.1-0.1,0.2-0.1c0,0.1-0.1,0.2-0.1,0.3l0,0
		c0,0-0.1,0-0.1,0.1c0,0-0.1,0.1-0.1,0.1c-0.1,0.1-0.2,0.2-0.3,0.2c-0.2,0.1-0.4,0.1-0.7,0.1c-0.1-0.3-0.4-0.4-0.6-0.5
		c-0.3,0-0.6,0-0.8,0c-0.4,0.1-0.8,0.5-0.7,1c0.1,0.5,0.4,0.8,0.9,0.8l0,0c0.1,0,0.1,0,0.2,0c0.1,0,0.1,0,0.2,0
		c0.3,0,0.6-0.2,0.7-0.5c0,0,0-0.1,0-0.1c0,0,0,0,0.1,0c0.1,0,0.1,0,0.1,0l0,0c0.5,0,1-0.2,1.4-0.6l0,0c0,0,0.2-0.2,0.3-0.5
		 M36.7,29.7 M31.7,28.6c-0.2-0.1-0.4-0.4-0.4-0.7c0-0.3,0.2-0.5,0.4-0.6V28.6z M34.1,30.6C34.1,30.6,34.1,30.7,34.1,30.6
		c-0.1,0.1-0.2,0.1-0.2,0.1l-0.1,0l-0.1,0c0,0-0.1,0-0.1,0c0,0-0.1,0-0.1-0.1c0,0,0-0.1,0.1-0.1C33.7,30.5,33.8,30.5,34.1,30.6
		C34.1,30.5,34.1,30.5,34.1,30.6L34.1,30.6z M35.9,28.6v-1.3c0.2,0.1,0.3,0.4,0.3,0.6C36.2,28.2,36.1,28.5,35.9,28.6z"/>
</g>
</svg>
