<?xml version="1.0" encoding="utf-8"?>
<!-- Generator: Adobe Illustrator 19.0.0, SVG Export Plug-In . SVG Version: 6.00 Build 0)  -->
<svg version="1.1" id="Layer_1" xmlns="http://www.w3.org/2000/svg" xmlns:xlink="http://www.w3.org/1999/xlink" x="0px" y="0px"
	 viewBox="0 0 42 42" style="enable-background:new 0 0 42 42;" xml:space="preserve">
<style type="text/css">
	.st0{fill:#FFFFFF;}
</style>
<g id="XMLID_1225_">
	<path id="XMLID_1226_" class="st0" d="M20.9,14.7c-0.1-0.1-0.2-0.2-0.3-0.3C20.5,14.1,20.2,14,20,14c0,0,0,0,0,0
		c-0.3,0-0.5,0.1-0.6,0.3c-0.1,0.1-0.2,0.2-0.3,0.3c-0.2,0.2-0.3,0.4-0.5,0.7c-0.1,0.2-0.1,0.3-0.1,0.5c0,0,0,0.1,0,0.1l-0.1,0.4
		l0.4-0.1c0,0,0.1,0,0.2,0c0.2,0,0.4,0,0.5-0.2c0.2-0.1,0.3-0.3,0.5-0.5c0,0,0.1-0.1,0.1-0.1l0,0c0,0,0,0,0,0l-0.1,0.2
		c0.2,0.2,0.3,0.3,0.4,0.5c0.1,0.1,0.3,0.3,0.6,0.3c0,0,0,0,0,0c0.1,0,0.3-0.1,0.4-0.3c0.2-0.3,0-0.7-0.1-0.9
		C21.2,15.1,21,14.9,20.9,14.7z"/>
	<path id="XMLID_1227_" class="st0" d="M23.5,11.8c0.1,0,0.2,0,0.3-0.1c0.4-0.4,0.8-0.8,1.2-1.2c0.2-0.2,0.1-0.5,0.1-0.6
		c-0.1-0.1-0.2-0.2-0.3-0.3l-0.2-0.1l-0.1,0l0,0.2l-0.1-0.2c-0.1,0-0.1,0-0.2,0.1L24,9.8c-0.4,0.4-0.7,0.7-1.1,1.1
		c-0.2,0.2-0.1,0.6,0.1,0.8C23.2,11.8,23.4,11.8,23.5,11.8z"/>
	<path id="XMLID_1228_" class="st0" d="M18.4,16.7c-0.1-0.1-0.2-0.3-0.3-0.3c-0.2,0-0.5,0-0.6,0.2c-0.4,0.4-0.8,0.7-1,1.1
		c-0.1,0.2-0.1,0.3-0.2,0.5l0.2,0l0,0l-0.2,0v0c0,0,0,0.1,0,0.1l-0.1,0.4l0.4-0.1c0,0,0.1,0,0.1,0c0.2,0,0.4,0,0.5-0.2
		c0.3-0.2,0.5-0.5,0.8-0.8l0.2-0.2c0.1-0.1,0.1-0.1,0.2-0.3l0.2-0.3L18.4,16.7C18.4,16.7,18.4,16.7,18.4,16.7z"/>
	<path id="XMLID_1229_" class="st0" d="M27,21.1c-0.1-0.1-0.1-0.1-0.2-0.1l-0.3-0.1l-0.1,0.1c0,0,0,0-0.1,0.1
		C26.2,21,26,21.1,26,21.3c-0.1,0.2,0,0.5,0.1,0.6c0.4,0.5,0.8,0.8,1.1,1.1c0.1,0.1,0.3,0.1,0.4,0.1c0.1,0,0.3,0,0.4-0.1
		c0.2-0.2,0.2-0.6,0-0.8c-0.3-0.3-0.6-0.6-0.9-1L27,21.1z"/>
	<path id="XMLID_1230_" class="st0" d="M13.9,9.4L13.9,9.4c0.1,0.1,0.2,0.1,0.3,0.1c0.1,0,0.2,0,0.4-0.1c0,0,0.1,0,0.2,0l0.3-0.1
		l-0.1-0.4c0-0.1,0-0.2-0.1-0.2l-0.2-0.2c-0.3-0.3-0.7-0.7-1.1-1.1c-0.2-0.2-0.6-0.1-0.8,0.1c-0.1,0.1-0.1,0.3-0.1,0.4
		c0,0.1,0,0.3,0.1,0.4C13,8.6,13.4,9,13.9,9.4z"/>
	<path id="XMLID_1232_" class="st0" d="M16.1,18.9c-0.1-0.1-0.2-0.2-0.3-0.3c-0.2,0-0.5,0-0.6,0.1c-0.4,0.4-0.8,0.8-1.1,1.1
		c-0.2,0.2-0.2,0.6,0,0.8h0c0.1,0.1,0.4,0.2,0.4,0.2c0.1,0,0.3,0,0.4-0.1c0.3-0.3,0.6-0.6,1-1l0.2-0.2c0.1-0.1,0.1-0.2,0.1-0.2
		l0.1-0.3L16.1,18.9C16.2,19,16.1,18.9,16.1,18.9z"/>
	<path id="XMLID_1233_" class="st0" d="M13,21c-0.4,0.4-0.8,0.8-1.1,1.2c-0.2,0.2-0.2,0.5-0.1,0.6c0,0.2,0.2,0.3,0.3,0.3l0.2,0.1
		l0.1,0l0-0.2c0,0,0,0,0,0l0.1,0.2c0.1,0,0.2,0,0.2-0.1l0.2-0.2c0.4-0.4,0.7-0.7,1.1-1.1c0.2-0.2,0-0.7-0.1-0.8
		C13.5,20.8,13.1,20.9,13,21z"/>
	<path id="XMLID_1234_" class="st0" d="M20.8,13.9l0.1,0.3l0.4-0.1c0.1,0,0.2,0,0.3-0.1l0.1-0.1c0.4-0.4,0.8-0.8,1.1-1.2
		c0.1-0.1,0.1-0.2,0.1-0.3c0-0.1-0.1-0.3-0.2-0.4c-0.2-0.1-0.6-0.2-0.8,0c-0.5,0.5-0.9,0.9-1.2,1.3c-0.2,0.2-0.1,0.4,0,0.6
		C20.8,13.9,20.8,13.9,20.8,13.9z"/>
	<path id="XMLID_1235_" class="st0" d="M14.8,10.5c0.4,0.4,0.8,0.8,1.3,1.3c0,0,0.1,0.1,0.3,0.1c0.1,0,0.2,0,0.4-0.1
		c0,0,0.1,0,0.2,0l0.2-0.1l-0.1-0.2c0-0.1,0-0.1,0-0.1c0-0.1,0-0.2-0.1-0.3l-0.2-0.2c-0.4-0.4-0.7-0.8-1.1-1.1
		c-0.1-0.1-0.2-0.1-0.3-0.1c-0.1,0-0.3,0-0.5,0.2C14.7,9.9,14.7,10.2,14.8,10.5z"/>
	<path id="XMLID_1236_" class="st0" d="M25.4,9.5l0.1-0.2L25.4,9.5L25.4,9.5C25.5,9.5,25.5,9.5,25.4,9.5l0.2,0.1l0.2-0.1
		c0.1,0,0.1-0.1,0.2-0.1l0.2-0.2c0.3-0.3,0.7-0.7,1-1c0.1-0.1,0.1-0.2,0.1-0.4c0-0.1,0-0.3-0.2-0.4c-0.2-0.2-0.6-0.2-0.8,0
		c-0.4,0.4-0.8,0.8-1.2,1.2c-0.2,0.2-0.1,0.6-0.1,0.6C25.2,9.4,25.3,9.5,25.4,9.5z"/>
	<path id="XMLID_1237_" class="st0" d="M17.1,12.8c0.3,0.4,0.7,0.8,1.1,1.2c0.1,0.1,0.4,0.2,0.4,0.2c0.1,0,0.1,0,0.2,0
		c0.2,0,0.3-0.2,0.3-0.3l0.1-0.1l0-0.2c0-0.1,0-0.2-0.1-0.2L19,13c-0.4-0.4-0.7-0.7-1.1-1.1c-0.1-0.1-0.2-0.1-0.4-0.1
		c-0.1,0-0.3,0.1-0.4,0.2C17,12.2,17,12.6,17.1,12.8z"/>
	<path id="XMLID_1238_" class="st0" d="M25.9,19.9c-0.4-0.4-0.8-0.8-1.2-1.2c-0.2-0.2-0.6-0.1-0.7-0.1h0c-0.2,0.1-0.2,0.2-0.3,0.3
		l-0.1,0.2l0.1,0.2c0,0.1,0,0.2,0.1,0.2l0.2,0.2c0.4,0.4,0.7,0.7,1.1,1.1c0.1,0.1,0.2,0.1,0.3,0.1l0.1,0c0.2,0,0.3-0.1,0.4-0.2
		C26,20.5,26,20.1,25.9,19.9z"/>
	<path id="XMLID_1239_" class="st0" d="M23.8,18.2l0-0.2l-0.1-0.1c-0.4-0.4-0.8-0.9-1.2-1.3l-0.3-0.4l-0.4,0.1l-0.2,0.1l0,0.2
		c0,0,0,0.1,0,0.1c-0.1,0.2-0.1,0.4,0,0.6c0.4,0.4,0.8,0.8,1.2,1.3c0.1,0.1,0.3,0.1,0.4,0.1c0.1,0,0.2,0,0.3-0.1
		C23.6,18.5,23.7,18.3,23.8,18.2z"/>
	<path id="XMLID_1257_" class="st0" d="M41,14.3c-0.2-0.2-0.3-0.3-0.5-0.5c-0.2-0.2-0.5-0.5-0.8-0.7c-0.1-0.1-0.3-0.2-0.5-0.2
		c0,0-0.1,0-0.1,0l-0.5-0.2l0.1,0.5c0,0,0,0.1,0,0.1c0,0.1,0.1,0.3,0.2,0.4c0.1,0.2,0.3,0.3,0.5,0.5h-0.2c-1.1,0-2.1,0-3,0
		c0,0-0.1-0.1-0.1-0.2c-0.3-0.9-0.8-1.4-1.6-1.7c-0.2-0.1-0.3-0.1-0.3-0.4c0-2.8,0-5.7,0-8.6l0-3.3H5.9V5h-3
		c0.2-0.2,0.4-0.3,0.5-0.5C3.5,4.3,3.5,4.1,3.5,4c0,0,0-0.1,0-0.1l0-0.4L3.2,3.6c0,0-0.1,0-0.1,0c-0.1,0-0.3,0-0.4,0.2
		C2.4,3.9,2.2,4.1,2,4.4C1.8,4.6,1.6,4.8,1.4,5C1.2,5.2,1.1,5.4,1.1,5.6c0,0.3,0.2,0.4,0.3,0.6c0.2,0.2,0.3,0.3,0.5,0.5
		c0.2,0.2,0.4,0.5,0.7,0.7C2.7,7.4,2.9,7.5,3,7.5c0,0,0.1,0,0.1,0l0.5,0.2L3.5,7.2c0,0,0-0.1,0-0.1c0-0.1-0.1-0.3-0.2-0.4
		C3.2,6.4,3.1,6.3,2.9,6.1h3v32.2h13.6V40c-0.2-0.2-0.3-0.3-0.5-0.5c-0.1-0.1-0.3-0.1-0.4-0.2c0,0-0.1,0-0.1,0l-0.5-0.1l0.1,0.5
		c0,0,0,0.1,0,0.1c0,0.1,0,0.3,0.2,0.5c0.3,0.3,0.6,0.6,0.8,0.8l0.1,0.1c0.1,0.1,0.3,0.3,0.4,0.4c0.1,0.1,0.3,0.2,0.5,0.2
		c0.2,0,0.4-0.1,0.5-0.3c0.1-0.1,0.3-0.3,0.5-0.4c0.3-0.3,0.5-0.5,0.8-0.8C22,40.2,22,40,22,39.8c0,0,0-0.1,0-0.1l0.1-0.5l-0.5,0.2
		c0,0-0.1,0-0.1,0c-0.1,0-0.3,0.1-0.4,0.2c-0.1,0.1-0.3,0.3-0.4,0.4v-1.6h13.6l0-8.8c0-3.9,0-8,0-12c0-0.1,0-0.2,0.3-0.3
		c0.5-0.3,1.1-0.7,1.3-1.2c0.2-0.6,0.5-0.6,1.2-0.6c0.2,0,0.3,0,0.5,0l1.9,0c-0.2,0.2-0.4,0.3-0.5,0.5c-0.1,0.1-0.1,0.3-0.1,0.5
		c0,0,0,0.1,0,0.1l-0.1,0.4l0.4-0.1c0,0,0.1,0,0.1,0c0.1,0,0.3,0,0.4-0.2c0.3-0.3,0.5-0.5,0.8-0.8l0.1-0.1c0.2-0.2,0.3-0.3,0.5-0.5
		c0.2-0.2,0.3-0.3,0.3-0.5C41.3,14.6,41.2,14.5,41,14.3z M10,4.6c0.2-0.2,0.5-0.3,0.8-0.3c0.3,0,0.6,0.2,0.9,0.4
		C12,5,12.1,5.3,12.1,5.6c0,0.7-0.6,1.2-1.3,1.2c-0.7,0-1.2-0.5-1.2-1.2C9.6,5.2,9.8,4.9,10,4.6z M27.4,6.8c0,0,0,0.1,0,0.2l0,0.2
		l0.2,0c0,0,0.1,0,0.1,0c0.2,0,0.4,0,0.5-0.1c0.1-0.1,0.2-0.2,0.4-0.3v16.4l0,0c-0.1,0.1-0.2,0.2-0.4,0.2c-0.1,0.1-0.2,0.1-0.2,0.1
		l-16.3,0c-0.2,0-0.2-0.1-0.4-0.4c0,0,0-0.1,0-0.1c0,0,0-0.1,0-0.1V8c0.9-0.3,1.6-0.9,1.8-1.8h14.2c0,0-0.1,0.1-0.1,0.1
		C27.4,6.5,27.4,6.6,27.4,6.8z M7.2,6.1h1.2C8.8,7.3,9.2,7.7,10.2,8v16.7H30V5H13.3C12.9,3.7,12,3,10.7,3.1c-1.2,0-2,0.7-2.4,1.9
		H7.1l0-1.8c0-0.5,0-1.1,0-1.7c0-0.1,0-0.1,0-0.1c0,0,0.1,0,0.2,0c1,0,2.1,0,3.1,0l22.7,0v11c-1.2,0.4-1.9,1.2-1.9,2.4
		c0,1.2,0.7,2.1,1.9,2.5v19.8H20.7l0-0.2c0-0.5,0-1.1,0-1.6c0,0,0,0,0,0c0.9-0.2,1.6-0.9,1.9-1.8h7.7v-6.6H10v6.6l2.5,0
		c1.6,0,3.3,0,5,0c0.2,0,0.2,0,0.3,0.2c0.2,0.8,0.7,1.2,1.8,1.6v1.8H7.2V6.1z M20.1,30.2c-1.1,0-2,0.7-2.4,1.7
		c-0.1,0.2-0.1,0.2-0.3,0.2c-1,0-2.1,0-3.1,0h-3c-0.1,0-0.1,0-0.2,0V28H29v4.2c-0.1,0-0.1,0-0.1,0h-1.8c-1.4,0-2.8,0-4.3,0
		c-0.2,0-0.3,0-0.3-0.2C22.1,30.9,21.2,30.3,20.1,30.2z M19.2,31.9c0.2-0.2,0.6-0.4,0.9-0.4c0.3,0,0.6,0.1,0.9,0.4
		c0.2,0.2,0.4,0.6,0.4,0.9c0,0.7-0.6,1.3-1.3,1.3c-0.7,0-1.2-0.6-1.3-1.3C18.9,32.4,19,32.1,19.2,31.9z M32.6,14.8
		c0-0.6,0.5-1.1,1.1-1.1s1.1,0.5,1.1,1.1s-0.5,1.1-1.1,1.1S32.6,15.4,32.6,14.8z"/>
</g>
</svg>
