<svg width="16" height="16" viewBox="0 0 16 16" fill="none" xmlns="http://www.w3.org/2000/svg">
<path id="Vector" fill-rule="evenodd" clip-rule="evenodd" d="M15.7867 1.24296C15.8543 1.17535 15.908 1.09508 15.9446 1.00674C15.9812 0.918404 16 0.823724 16 0.728108C16 0.632491 15.9812 0.537811 15.9446 0.449473C15.908 0.361135 15.8543 0.280869 15.7867 0.213258C15.7191 0.145647 15.6389 0.0920148 15.5505 0.055424C15.4622 0.0188331 15.3675 0 15.2719 0C15.1763 0 15.0816 0.0188331 14.9932 0.055424C14.9049 0.0920148 14.8246 0.145647 14.757 0.213258L7.99999 6.97175L1.24295 0.213258C1.17534 0.145647 1.09507 0.0920148 1.00673 0.055424C0.918397 0.0188331 0.823717 7.12398e-10 0.7281 0C0.632484 -7.12398e-10 0.537803 0.0188331 0.449465 0.055424C0.361127 0.0920148 0.280861 0.145647 0.21325 0.213258C0.145639 0.280869 0.0920072 0.361135 0.0554163 0.449473C0.0188255 0.537811 -7.63011e-06 0.632491 -7.62939e-06 0.728108C-7.62868e-06 0.823724 0.0188255 0.918404 0.0554163 1.00674C0.0920072 1.09508 0.145639 1.17535 0.21325 1.24296L6.97175 8L0.21325 14.757C0.0767033 14.8936 -7.62939e-06 15.0788 -7.62939e-06 15.2719C-7.62939e-06 15.465 0.0767033 15.6502 0.21325 15.7867C0.349797 15.9233 0.534994 16 0.7281 16C0.921206 16 1.1064 15.9233 1.24295 15.7867L7.99999 9.02824L14.757 15.7867C14.8936 15.9233 15.0788 16 15.2719 16C15.465 16 15.6502 15.9233 15.7867 15.7867C15.9233 15.6502 16 15.465 16 15.2719C16 15.0788 15.9233 14.8936 15.7867 14.757L9.02824 8L15.7867 1.24296Z" fill="#ED411B"/>
</svg>
