<svg width="23" height="16" viewBox="0 0 23 16" fill="none" xmlns="http://www.w3.org/2000/svg">
<path d="M9.51254 1.74503C10.2498 0.976881 11.2761 0.500489 12.4113 0.500489C13.9202 0.500489 15.2367 1.34191 15.9378 2.59101C16.5471 2.31879 17.2214 2.16737 17.931 2.16737C20.6526 2.16737 22.859 4.39303 22.859 7.13839C22.859 9.88408 20.6526 12.1097 17.931 12.1097C17.5988 12.1097 17.2742 12.0765 16.9603 12.013C16.3429 13.1143 15.1664 13.8584 13.816 13.8584C13.2507 13.8584 12.7161 13.7278 12.24 13.4956C11.6141 14.9678 10.156 16 8.45653 16C6.68675 16 5.17844 14.8802 4.59948 13.3097C4.34647 13.3634 4.08434 13.3914 3.81537 13.3914C1.70824 13.3914 0 11.6656 0 9.53631C0 8.10941 0.767502 6.86356 1.90785 6.197C1.67307 5.65679 1.54249 5.06057 1.54249 4.43374C1.54249 1.98502 3.53045 1.45477e-07 5.98242 1.45477e-07C7.42201 1.45477e-07 8.7014 0.684468 9.51254 1.74503Z" fill="#FF774C"/>
<path d="M3.31083 8.29719C3.2965 8.33463 3.31604 8.34245 3.3206 8.34896C3.36358 8.38022 3.40722 8.40269 3.45118 8.42776C3.68432 8.5515 3.90445 8.58765 4.13467 8.58765C4.60357 8.58765 4.89468 8.33822 4.89468 7.93672V7.9289C4.89468 7.55769 4.56612 7.42288 4.25775 7.32552L4.2177 7.31249C3.9852 7.23695 3.78462 7.17182 3.78462 7.01878V7.01064C3.78462 6.87973 3.90184 6.78335 4.08354 6.78335C4.28543 6.78335 4.52509 6.85043 4.67944 6.93574C4.67944 6.93574 4.7247 6.96505 4.74131 6.92109C4.75043 6.89764 4.82858 6.68729 4.83672 6.66449C4.84551 6.63975 4.82988 6.62151 4.81392 6.61174C4.63776 6.50461 4.39419 6.43135 4.14216 6.43135L4.09527 6.43167C3.66609 6.43167 3.36651 6.69087 3.36651 7.06241V7.07023C3.36651 7.46195 3.69702 7.58895 4.00669 7.67752L4.05652 7.69282C4.28218 7.76218 4.47657 7.82177 4.47657 7.98068V7.98849C4.47657 8.13372 4.35023 8.24183 4.14639 8.24183C4.06726 8.24183 3.8149 8.2402 3.54235 8.06795C3.50946 8.04873 3.49025 8.03473 3.46485 8.01943C3.4515 8.01096 3.41796 7.99631 3.40331 8.04059L3.31083 8.29719Z" fill="white"/>
<path d="M10.1756 8.29719C10.1612 8.33463 10.1808 8.34245 10.1853 8.34896C10.2283 8.38022 10.272 8.40269 10.3159 8.42776C10.5491 8.5515 10.7692 8.58765 10.9994 8.58765C11.4683 8.58765 11.7594 8.33822 11.7594 7.93672V7.9289C11.7594 7.55769 11.4309 7.42288 11.1225 7.32552L11.0824 7.31249C10.8499 7.23695 10.6494 7.17182 10.6494 7.01878V7.01064C10.6494 6.87973 10.7666 6.78335 10.9483 6.78335C11.1502 6.78335 11.3898 6.85043 11.5442 6.93574C11.5442 6.93574 11.5894 6.96505 11.6061 6.92109C11.6152 6.89764 11.6933 6.68729 11.7015 6.66449C11.7103 6.63975 11.6946 6.62151 11.6787 6.61174C11.5025 6.50461 11.2589 6.43135 11.0069 6.43135L10.96 6.43167C10.5308 6.43167 10.2313 6.69087 10.2313 7.06241V7.07023C10.2313 7.46195 10.5618 7.58895 10.8714 7.67752L10.9213 7.69282C11.1469 7.76218 11.3416 7.82177 11.3416 7.98068V7.98849C11.3416 8.13372 11.215 8.24183 11.0111 8.24183C10.932 8.24183 10.6796 8.2402 10.4071 8.06795C10.3742 8.04873 10.3547 8.03538 10.3299 8.01943C10.3215 8.01389 10.2817 7.99859 10.2681 8.04059L10.1756 8.29719Z" fill="white"/>
<path d="M14.8616 7.51072C14.8616 7.73768 14.8193 7.91645 14.7359 8.04279C14.6536 8.16783 14.5289 8.22873 14.355 8.22873C14.1808 8.22873 14.0567 8.16816 13.9756 8.04279C13.8936 7.91678 13.8519 7.73768 13.8519 7.51072C13.8519 7.28408 13.8936 7.10564 13.9756 6.9806C14.0567 6.85686 14.1808 6.79662 14.355 6.79662C14.5289 6.79662 14.6536 6.85686 14.7363 6.9806C14.8193 7.10564 14.8616 7.28408 14.8616 7.51072ZM15.253 7.09001C15.2146 6.96009 15.1547 6.84546 15.0749 6.75006C14.9951 6.65432 14.8942 6.57747 14.7744 6.52147C14.6549 6.46578 14.5135 6.43745 14.355 6.43745C14.1961 6.43745 14.0547 6.46578 13.9352 6.52147C13.8154 6.57747 13.7145 6.65432 13.6344 6.75006C13.5549 6.84579 13.495 6.96041 13.4562 7.09001C13.4181 7.21928 13.3989 7.36061 13.3989 7.51072C13.3989 7.66083 13.4181 7.80248 13.4562 7.93143C13.495 8.06103 13.5546 8.17565 13.6347 8.27138C13.7145 8.36712 13.8157 8.44364 13.9352 8.49802C14.0551 8.5524 14.1961 8.58008 14.355 8.58008C14.5135 8.58008 14.6545 8.5524 14.7744 8.49802C14.8939 8.44364 14.9951 8.36712 15.0749 8.27138C15.1547 8.17598 15.2146 8.06135 15.253 7.93143C15.2915 7.80216 15.3107 7.66051 15.3107 7.51072C15.3107 7.36093 15.2915 7.21928 15.253 7.09001Z" fill="white"/>
<path d="M18.4673 8.16816C18.4543 8.13006 18.4175 8.14439 18.4175 8.14439C18.3605 8.16621 18.2999 8.1864 18.2354 8.19649C18.17 8.20658 18.098 8.21179 18.0209 8.21179C17.8313 8.21179 17.6809 8.15546 17.5731 8.0441C17.465 7.93273 17.4044 7.75266 17.4051 7.50909C17.4057 7.28734 17.4591 7.12062 17.5552 6.99362C17.6506 6.86728 17.7958 6.80248 17.9896 6.80248C18.1511 6.80248 18.2742 6.82104 18.4031 6.86175C18.4031 6.86175 18.4341 6.8751 18.4487 6.83472C18.4829 6.73964 18.5083 6.67158 18.5448 6.56705C18.5552 6.53742 18.5298 6.52472 18.5207 6.52114C18.4699 6.50128 18.3501 6.46904 18.2595 6.45536C18.1749 6.44234 18.0759 6.4355 17.9658 6.4355C17.8014 6.4355 17.6548 6.4635 17.5295 6.51951C17.4044 6.57519 17.2983 6.65204 17.2143 6.74778C17.1303 6.84351 17.0664 6.95813 17.0238 7.08773C16.9815 7.217 16.96 7.35898 16.96 7.50909C16.96 7.83374 17.0476 8.0962 17.2205 8.28832C17.3937 8.48109 17.6539 8.5791 17.9932 8.5791C18.1938 8.5791 18.3996 8.5384 18.5474 8.48011C18.5474 8.48011 18.5757 8.46643 18.5633 8.43355L18.4673 8.16816Z" fill="white"/>
<path d="M19.152 7.29336C19.1706 7.16734 19.2054 7.06249 19.2591 6.98076C19.3402 6.8567 19.464 6.78864 19.6378 6.78864C19.8117 6.78864 19.9267 6.85702 20.0091 6.98076C20.0638 7.06249 20.0875 7.1719 20.097 7.29336H19.152ZM20.4698 7.01625C20.4366 6.89089 20.3542 6.76422 20.3002 6.70626C20.2149 6.61443 20.1315 6.55028 20.0488 6.51446C19.9407 6.46822 19.8111 6.43761 19.6691 6.43761C19.5037 6.43761 19.3536 6.46529 19.2318 6.5226C19.1097 6.57991 19.0071 6.65806 18.9267 6.75543C18.8462 6.85246 18.7857 6.96806 18.7473 7.09929C18.7085 7.22986 18.689 7.37216 18.689 7.52228C18.689 7.675 18.7092 7.81729 18.7492 7.94527C18.7896 8.07421 18.8541 8.18786 18.9413 8.28196C19.0283 8.37672 19.1403 8.45096 19.2744 8.50274C19.4076 8.55419 19.5695 8.58089 19.7554 8.58056C20.138 8.57926 20.3396 8.49395 20.4226 8.44803C20.4373 8.43989 20.4513 8.42557 20.4337 8.38454L20.3471 8.14194C20.334 8.1058 20.2972 8.11915 20.2972 8.11915C20.2025 8.15432 20.0677 8.21749 19.7534 8.21684C19.548 8.21651 19.3956 8.15595 19.3002 8.06119C19.2022 7.96415 19.1543 7.82153 19.1458 7.62029L20.4708 7.62159C20.4708 7.62159 20.5056 7.62094 20.5092 7.58708C20.5105 7.57275 20.5548 7.31485 20.4698 7.01625Z" fill="white"/>
<path d="M8.54092 7.29336C8.55981 7.16734 8.59433 7.06249 8.64805 6.98076C8.72913 6.8567 8.85287 6.78864 9.02676 6.78864C9.20064 6.78864 9.31559 6.85702 9.3983 6.98076C9.45268 7.06249 9.47645 7.1719 9.48589 7.29336H8.54092ZM9.85841 7.01625C9.82519 6.89089 9.74314 6.76422 9.68908 6.70626C9.60377 6.61443 9.52041 6.55028 9.4377 6.51446C9.32959 6.46822 9.19999 6.43761 9.05802 6.43761C8.89292 6.43761 8.74249 6.46529 8.6207 6.5226C8.49859 6.57991 8.39602 6.65806 8.31559 6.75543C8.23516 6.85246 8.17459 6.96806 8.13617 7.09929C8.09774 7.22986 8.07788 7.37216 8.07788 7.52228C8.07788 7.675 8.09807 7.81729 8.13812 7.94527C8.1785 8.07421 8.24297 8.18786 8.33024 8.28196C8.41718 8.37672 8.5292 8.45096 8.66336 8.50274C8.79654 8.55419 8.95838 8.58089 9.14431 8.58056C9.52692 8.57926 9.72848 8.49395 9.81152 8.44803C9.82617 8.43989 9.84017 8.42557 9.82259 8.38454L9.7363 8.14194C9.72295 8.1058 9.68615 8.11915 9.68615 8.11915C9.59139 8.15432 9.45691 8.21749 9.14203 8.21684C8.93688 8.21651 8.78449 8.15595 8.68908 8.06119C8.59107 7.96415 8.5432 7.82153 8.53474 7.62029L9.85971 7.62159C9.85971 7.62159 9.89455 7.62094 9.89813 7.58708C9.89944 7.57275 9.94372 7.31485 9.85841 7.01625Z" fill="white"/>
<path d="M5.67702 8.16091C5.62524 8.11956 5.61808 8.10914 5.60049 8.08244C5.57444 8.04174 5.56109 7.98377 5.56109 7.91018C5.56109 7.79361 5.59952 7.70992 5.6793 7.65359C5.67832 7.65391 5.79327 7.55427 6.06354 7.55785C6.25338 7.56046 6.42303 7.58846 6.42303 7.58846V8.19087H6.42335C6.42335 8.19087 6.255 8.22702 6.06549 8.23841C5.79587 8.2547 5.67604 8.16059 5.67702 8.16091ZM6.20421 7.22995C6.15048 7.22604 6.08079 7.22376 5.99743 7.22376C5.88379 7.22376 5.77405 7.23809 5.67116 7.26577C5.56761 7.29344 5.47448 7.33675 5.39437 7.39406C5.31394 7.4517 5.24914 7.52529 5.20225 7.61256C5.15536 7.69983 5.13159 7.80273 5.13159 7.918C5.13159 8.03522 5.15178 8.13714 5.19216 8.2205C5.23254 8.30419 5.29082 8.37387 5.36507 8.4276C5.43866 8.48133 5.52951 8.52073 5.63501 8.5445C5.73889 8.56827 5.85676 8.58032 5.98571 8.58032C6.1215 8.58032 6.25696 8.56925 6.38819 8.54678C6.51811 8.52464 6.67767 8.4924 6.72195 8.48231C6.76591 8.47189 6.81476 8.45854 6.81476 8.45854C6.84765 8.4504 6.84504 8.41523 6.84504 8.41523L6.84439 7.20357C6.84439 6.93786 6.7734 6.74086 6.63371 6.61875C6.49467 6.49696 6.28985 6.43542 6.02511 6.43542C5.9258 6.43542 5.76591 6.44909 5.67018 6.46831C5.67018 6.46831 5.3807 6.52431 5.26152 6.61744C5.26152 6.61744 5.23547 6.63372 5.24979 6.6702L5.34357 6.92223C5.3553 6.95479 5.38688 6.94372 5.38688 6.94372C5.38688 6.94372 5.39698 6.93981 5.4087 6.93298C5.66367 6.79426 5.98604 6.79849 5.98604 6.79849C6.12931 6.79849 6.23937 6.82715 6.31362 6.88413C6.38591 6.93949 6.4227 7.02317 6.4227 7.19966V7.25567C6.30873 7.23939 6.20421 7.22995 6.20421 7.22995Z" fill="white"/>
<path d="M16.8906 6.5472C16.9007 6.51725 16.8795 6.50292 16.8708 6.49966C16.8483 6.49087 16.7356 6.4671 16.6487 6.46156C16.4823 6.45147 16.3898 6.47947 16.3071 6.51659C16.225 6.55372 16.1339 6.61363 16.0831 6.68169V6.5205C16.0831 6.49803 16.0671 6.48013 16.045 6.48013H15.7053C15.6832 6.48013 15.6672 6.49803 15.6672 6.5205V8.49673C15.6672 8.51887 15.6855 8.53711 15.7076 8.53711H16.0557C16.0779 8.53711 16.0958 8.51887 16.0958 8.49673V7.50943C16.0958 7.3769 16.1104 7.2447 16.1397 7.16166C16.1684 7.0796 16.2075 7.01383 16.2556 6.96661C16.3042 6.91972 16.3592 6.88683 16.4194 6.86827C16.481 6.84939 16.549 6.8432 16.5972 6.8432C16.6666 6.8432 16.7428 6.86111 16.7428 6.86111C16.7682 6.86404 16.7825 6.84841 16.791 6.82529C16.8138 6.76472 16.8782 6.58335 16.8906 6.5472Z" fill="white"/>
<path d="M13.6232 5.63127C13.5809 5.61825 13.5425 5.60946 13.4923 5.60001C13.4415 5.5909 13.3809 5.58634 13.3122 5.58634C13.0726 5.58634 12.8837 5.65407 12.7512 5.78757C12.6193 5.92043 12.5298 6.12264 12.4848 6.38868L12.4685 6.47823H12.1677C12.1677 6.47823 12.1312 6.47693 12.1234 6.51665L12.0742 6.79246C12.0706 6.81851 12.082 6.83511 12.1172 6.83511H12.4099L12.113 8.49321C12.0898 8.62671 12.0631 8.73645 12.0335 8.81981C12.0045 8.90187 11.9762 8.96341 11.941 9.00835C11.9072 9.05133 11.8752 9.08324 11.8199 9.1018C11.7743 9.11711 11.7216 9.12427 11.6639 9.12427C11.632 9.12427 11.5893 9.11906 11.5578 9.11255C11.5265 9.10636 11.5099 9.09952 11.4861 9.08943C11.4861 9.08943 11.4519 9.0764 11.4383 9.1106C11.4275 9.13893 11.3494 9.35351 11.3399 9.37989C11.3308 9.40626 11.3438 9.42678 11.3604 9.43297C11.3995 9.44664 11.4285 9.45576 11.4816 9.46846C11.5552 9.48572 11.6174 9.48669 11.6756 9.48669C11.7974 9.48669 11.9088 9.46944 12.0009 9.43622C12.0934 9.40268 12.1742 9.3444 12.2458 9.26559C12.323 9.18028 12.3715 9.09106 12.4177 8.96895C12.4637 8.84847 12.5031 8.69868 12.5343 8.52414L12.8329 6.83511H13.2693C13.2693 6.83511 13.3061 6.83642 13.3135 6.79637L13.363 6.52089C13.3663 6.49451 13.3552 6.47823 13.3197 6.47823H12.8961C12.8984 6.46878 12.9176 6.31965 12.9661 6.1793C12.9869 6.11971 13.026 6.07119 13.0589 6.03798C13.0915 6.00542 13.1289 5.9823 13.1699 5.96895C13.2119 5.95527 13.2598 5.94876 13.3122 5.94876C13.352 5.94876 13.3914 5.95332 13.421 5.9595C13.462 5.9683 13.478 5.97286 13.4887 5.97611C13.532 5.98914 13.5379 5.97644 13.5464 5.9556L13.6476 5.67751C13.6581 5.64755 13.6323 5.63485 13.6232 5.63127Z" fill="white"/>
<path d="M7.70432 8.49681C7.70432 8.51896 7.68837 8.53687 7.66622 8.53687H7.31487C7.29273 8.53687 7.2771 8.51896 7.2771 8.49681V5.66907C7.2771 5.64693 7.29273 5.62902 7.31487 5.62902H7.66622C7.68837 5.62902 7.70432 5.64693 7.70432 5.66907V8.49681Z" fill="white"/>
</svg>
