<svg width="16" height="16" viewBox="0 0 16 16" fill="none" xmlns="http://www.w3.org/2000/svg">
<path fill-rule="evenodd" clip-rule="evenodd" d="M0 7.9996C0 11.1661 1.84002 13.9027 4.50856 15.1992L0.692509 4.74406C0.249003 5.73857 0 6.83959 0 7.9996ZM13.4003 7.59609C13.4003 6.60708 13.0448 5.92257 12.7408 5.39007C12.3353 4.73056 11.9548 4.17255 11.9548 3.51354C11.9548 2.77803 12.5123 2.09353 13.2983 2.09353C13.3338 2.09353 13.3673 2.09803 13.4018 2.10003C11.9788 0.79601 10.0822 0 7.9997 0C5.20467 0 2.74613 1.43402 1.31562 3.60554C1.50362 3.61154 1.68062 3.61505 1.83062 3.61505C2.66713 3.61505 3.96265 3.51354 3.96265 3.51354C4.39366 3.48804 4.44466 4.12205 4.01365 4.17255C4.01365 4.17255 3.58014 4.22355 3.09814 4.24905L6.01118 12.9142L7.7622 7.6636L6.51618 4.24905C6.08518 4.22355 5.67667 4.17255 5.67667 4.17255C5.24567 4.14705 5.29617 3.48804 5.72767 3.51354C5.72767 3.51354 7.04869 3.61505 7.8347 3.61505C8.67121 3.61505 9.96672 3.51354 9.96672 3.51354C10.3982 3.48804 10.4487 4.12205 10.0177 4.17255C10.0177 4.17255 9.58372 4.22355 9.10221 4.24905L11.9933 12.8482L12.7918 10.1821C13.1368 9.07511 13.4003 8.2806 13.4003 7.59609ZM8.1402 8.69941L5.73967 15.674C6.45668 15.885 7.21469 16 7.9997 16C8.93121 16 9.82472 15.839 10.6562 15.5465C10.6352 15.512 10.6152 15.476 10.5992 15.4365L8.1402 8.69941ZM15.0197 4.1617C15.0542 4.41671 15.0737 4.68971 15.0737 4.98421C15.0737 5.79572 14.9217 6.70823 14.4652 7.84975L12.0217 14.9143C14.4002 13.5278 15.9997 10.9508 15.9997 7.99975C15.9997 6.60873 15.6442 5.30122 15.0197 4.1617Z" fill="#FF774C"/>
</svg>
