<svg width="14" height="16" viewBox="0 0 14 16" fill="none" xmlns="http://www.w3.org/2000/svg">
<path d="M10.4817 2.97508C9.66477 2.46629 8.89412 2.26591 8.12347 1.75724C7.64541 1.43352 6.9828 0.662744 6.42757 0C6.3198 1.06363 5.99608 1.49526 5.62631 1.80341C4.8401 2.42012 4.34674 2.60493 3.66856 2.97495C3.09816 3.2678 0 5.11752 0 9.09437C0 13.0715 3.34497 16 7.05971 16C10.775 16 13.9963 13.3025 13.9963 9.21771C13.9963 5.13295 10.9751 3.28324 10.4817 2.97508ZM10.5709 14.5495C10.4937 14.6267 9.78464 15.1199 8.95238 15.1969C8.11987 15.274 6.99476 15.3204 6.31632 14.7037C6.20855 14.5957 6.23941 14.4417 6.31632 14.38C6.39349 14.3184 6.45523 14.272 6.5477 14.272C6.64017 14.272 6.62487 14.272 6.67104 14.3028C6.9792 14.5494 7.44169 14.7499 8.42815 14.7499C9.41488 14.7499 10.1084 14.4723 10.4166 14.2412C10.5555 14.1332 10.6172 14.2259 10.6325 14.2874C10.648 14.3491 10.6789 14.4417 10.5709 14.5495ZM7.87332 13.1468C8.04283 12.9926 8.3205 12.7462 8.58249 12.6382C8.84448 12.5304 8.98338 12.5457 9.2298 12.5457C9.47648 12.5457 9.73847 12.561 9.92367 12.6845C10.1086 12.8077 10.2165 13.0852 10.2781 13.2393C10.3397 13.3934 10.2781 13.4859 10.1548 13.5475C10.047 13.6092 10.0314 13.5783 9.92367 13.3782C9.81563 13.1777 9.72316 12.9773 9.18363 12.9773C8.6441 12.9773 8.47445 13.1623 8.21247 13.3782C7.95048 13.594 7.85801 13.6711 7.76554 13.5475C7.67307 13.4243 7.70368 13.3011 7.87332 13.1468ZM11.9582 13.2702C11.4034 13.224 10.2933 11.4975 9.58413 11.4668C8.6904 11.4359 6.74782 13.3318 5.22183 13.3318C4.2971 13.3318 4.01968 13.1933 3.71126 12.9926C3.24877 12.669 3.01765 12.1757 3.03309 11.4975C3.04852 10.2951 4.17376 9.16987 5.59185 9.15443C7.39539 9.13926 8.64384 10.9425 9.55352 10.9271C10.3242 10.9118 11.804 9.40124 12.5285 9.40124C13.2991 9.40124 13.5152 10.2028 13.5152 10.6806C13.5152 11.1584 13.361 12.0216 12.991 12.561C12.6209 13.1005 12.3898 13.3011 11.9582 13.2702Z" fill="#FF774C"/>
</svg>
