<svg width="22" height="20" viewBox="0 0 22 20" fill="none" xmlns="http://www.w3.org/2000/svg">
<path id="Vector" d="M3.35129 3.08231L3.35035 3.08324C1.86026 4.57333 1.03314 6.59267 1.03314 8.70971C1.03314 10.8601 1.8612 12.847 3.38241 14.3682C4.93738 15.9232 6.98911 16.7175 9.04093 16.7175C10.9909 16.7175 12.9096 16.0071 14.4382 14.6185L19.9344 19.0589C20.0923 19.21 20.2901 19.25 20.4532 19.25C20.6819 19.25 20.9052 19.158 21.0788 18.9844L21.0989 18.9643L21.114 18.9402C21.3309 18.5931 21.3007 18.0924 20.9279 17.8093L15.5069 13.4106C16.4746 12.0604 17.0167 10.4465 17.0167 8.74176C17.0167 6.59133 16.1886 4.60445 14.6674 3.08324C11.5559 -0.0282604 6.4936 -0.0269228 3.35129 3.08231ZM4.53514 4.20839L4.53515 4.2084L4.53739 4.20616C5.77015 2.9734 7.4044 2.35597 9.04093 2.35597C10.6775 2.35597 12.3117 2.9734 13.5445 4.20616C14.7489 5.41059 15.4267 7.0144 15.4267 8.70971C15.4267 10.4033 14.7181 12.0396 13.5124 13.2453C11.0463 15.7115 7.00465 15.7132 4.50475 13.2447C3.30334 12.043 2.65514 10.4405 2.65514 8.70971C2.65514 6.98024 3.3023 5.4104 4.53514 4.20839Z" fill="#4E4E4E" stroke="#4E4E4E" stroke-width="0.5"/>
</svg>
