<svg width="20" height="19" viewBox="0 0 20 19" fill="none" xmlns="http://www.w3.org/2000/svg">
<path id="Vector" d="M19.7738 17.5062L14.1638 12.9541C15.1896 11.6077 15.7667 9.97284 15.7667 8.24176C15.7667 6.15806 14.9652 4.23464 13.4906 2.76002C10.4773 -0.253339 5.57255 -0.253339 2.52713 2.76002C1.08457 4.20258 0.283142 6.15806 0.283142 8.20971C0.283142 10.2934 1.08457 12.2168 2.55919 13.6915C4.06587 15.1981 6.0534 15.9675 8.04093 15.9675C9.99641 15.9675 11.9198 15.2302 13.4265 13.7876L19.1006 18.3718C19.1968 18.4679 19.325 18.5 19.4532 18.5C19.6135 18.5 19.7738 18.4359 19.902 18.3077C20.0623 18.0512 20.0303 17.6986 19.7738 17.5062ZM3.32856 12.9221C2.07833 11.6719 1.40514 10.0049 1.40514 8.20971C1.40514 6.41451 2.07833 4.77961 3.36061 3.52939C4.64289 2.24711 6.34191 1.60597 8.04093 1.60597C9.73995 1.60597 11.439 2.24711 12.7213 3.52939C13.9715 4.77961 14.6767 6.44657 14.6767 8.20971C14.6767 9.97284 13.9394 11.6719 12.6892 12.9221C10.1246 15.4866 5.92517 15.4866 3.32856 12.9221Z" fill="#4E4E4E"/>
</svg>
