<svg width="251" height="57" viewBox="0 0 251 57" fill="none" xmlns="http://www.w3.org/2000/svg">
<g clip-path="url(#clip0_16_2349)">
<path fill-rule="evenodd" clip-rule="evenodd" d="M45.1441 34.8251C50.7478 35.49 54.072 36.4081 54.6419 31.6275C56.4781 16.1779 45.3658 0.0634485 29.7578 0.000130306C7.88142 -0.0948469 29.7578 51.7627 18.2339 49.135C3.06923 43.8479 2.40439 18.2358 14.6248 12.2522C-4.59227 16.7478 -3.54752 56.1633 23.0144 56.5432C36.8495 56.3216 20.64 10.2577 29.9161 6.90181C36.9128 5.25554 43.4662 13.7085 45.1758 20.7368C46.5055 26.1822 46.0623 25.3274 41.9782 25.9289C23.6793 28.5566 35.1082 53.6306 50.9378 54.612C40.9335 50.3697 35.0766 33.6221 45.1441 34.8251Z" fill="#003352"/>
<path fill-rule="evenodd" clip-rule="evenodd" d="M5.0955 3.67277C7.59657 3.95771 9.36947 6.23716 9.08454 8.73823C8.79961 11.2393 6.52015 13.0439 4.01909 12.7273C1.51802 12.4423 -0.254886 10.1629 0.0300458 7.66182C0.314978 5.16075 2.59443 3.35618 5.0955 3.67277Z" fill="#FF7900"/>
<path d="M77.0017 17.856H79.0912V38.6243H77.0017V17.856Z" fill="#FF7900"/>
<path d="M86.7527 38.6243V17.856H87.2276L101.031 33.7488V17.856H103.089V38.6243H102.614L88.9055 22.9214V38.6243H86.7527Z" fill="#FF7900"/>
<path d="M111.067 38.6243V17.856H111.51L125.345 33.7488V17.856H127.403V38.6243H126.928L113.22 22.9214V38.6243H111.067Z" fill="#FF7900"/>
<path d="M153.173 20.4836C151.052 18.3941 148.424 17.3494 145.259 17.3494C143.327 17.3494 141.523 17.8243 139.845 18.8057C138.167 19.7871 136.869 21.1168 135.887 22.8264C134.938 24.536 134.431 26.3722 134.431 28.3667C134.431 31.3743 135.508 33.9071 137.597 36.0282C139.718 38.1494 142.314 39.1941 145.385 39.1941C148.424 39.1941 151.021 38.1494 153.11 36.0282C155.231 33.9071 156.276 31.3427 156.276 28.2717C156.371 25.1692 155.294 22.5731 153.173 20.4836ZM153.047 32.7673C152.287 34.1287 151.21 35.2051 149.849 35.9649C148.488 36.7564 147 37.1363 145.385 37.1363C142.979 37.1363 140.921 36.2815 139.212 34.6036C137.502 32.894 136.647 30.8045 136.647 28.3351C136.647 26.6571 137.027 25.1692 137.819 23.8078C138.61 22.4465 139.655 21.3701 141.048 20.5786C142.441 19.7871 143.866 19.3755 145.417 19.3755C146.968 19.3755 148.456 19.7871 149.849 20.5786C151.242 21.3701 152.319 22.4465 153.078 23.7762C153.838 25.1058 154.218 26.5938 154.218 28.2401C154.218 29.8864 153.838 31.406 153.047 32.7673Z" fill="#FF7900"/>
<path d="M175.715 31.5009C177.044 30.9943 178.121 30.1079 178.912 28.9365C179.704 27.7335 180.115 26.3405 180.115 24.7258C180.115 23.6494 179.925 22.6997 179.577 21.7816C179.229 20.8951 178.722 20.1036 178.089 19.4704C177.456 18.8373 176.696 18.3307 175.778 17.9508C174.892 17.6026 173.879 17.4126 172.802 17.4126H163.178V38.5925H167.23V31.8491H171.251C172.074 33.0205 172.865 34.1286 173.689 35.2683C174.512 36.3764 175.335 37.4845 176.19 38.5925H181.033C179.292 36.2498 177.519 33.8753 175.715 31.5009ZM173.973 28.0817C173.594 28.24 173.182 28.3033 172.834 28.3033H167.23V21.0534H172.802C173.499 21.0534 174.068 21.18 174.512 21.465C174.923 21.7499 175.271 22.0665 175.493 22.4464C175.715 22.8263 175.873 23.2379 175.968 23.6494C176.063 24.061 176.095 24.4409 176.095 24.7575C176.095 25.359 176 25.8656 175.778 26.3088C175.588 26.752 175.335 27.1319 175.018 27.4169C174.733 27.7018 174.353 27.9234 173.973 28.0817Z" fill="#003352"/>
<path d="M196.42 17.4758H196.008L185.181 38.6241H189.581L191.196 35.2999H201.168L202.815 38.6241H207.215L196.42 17.4758ZM193.19 31.7857L196.23 25.3906L199.237 31.7857H193.19Z" fill="#003352"/>
<path d="M217.378 21.0535V26.2772H227.604V30.013H217.378V38.6243H213.326V17.4443H228.902V21.0535H217.378Z" fill="#003352"/>
<path d="M251 21.0218H244.953V38.6243H240.901V21.0218H234.822V17.4443H251V21.0218Z" fill="#003352"/>
</g>
<defs>
<clipPath id="clip0_16_2349">
<rect width="251" height="56.5432" fill="white"/>
</clipPath>
</defs>
</svg>
