<svg width="420" height="385" viewBox="0 0 420 385" fill="none" xmlns="http://www.w3.org/2000/svg">
<g clip-path="url(#clip0_63_2190)">
<path d="M48.9665 103.847L50.8589 107.75L55.1169 108.341L52.0417 111.416L52.7514 115.674L48.9665 113.664L45.1817 115.674L45.8913 111.416L42.8161 108.341L47.0741 107.75L48.9665 103.847Z" fill="#EBEBEB"/>
<path d="M413.85 286.347L415.742 290.132L420 290.842L416.925 293.799L417.634 298.057L413.85 296.046L410.065 298.057L410.774 293.799L407.699 290.842L411.957 290.132L413.85 286.347Z" fill="#F5F5F5"/>
<path d="M356.013 372.689L357.905 376.593L362.163 377.184L359.088 380.259L359.797 384.517L356.013 382.506L352.109 384.517L352.819 380.259L349.744 377.184L354.002 376.593L356.013 372.689Z" fill="#F5F5F5"/>
<path d="M182.501 35.1281L183.21 36.5474L184.748 36.784C185.103 36.784 185.339 37.3754 184.984 37.6119L183.802 38.6764L184.038 40.214C184.157 40.5688 183.683 40.9237 183.329 40.6871L181.909 39.9775L180.49 40.6871C180.135 40.9237 179.78 40.5688 179.78 40.214L180.017 38.6764L178.834 37.6119C178.598 37.3754 178.716 36.9023 179.071 36.784L180.608 36.5474L181.318 35.1281C181.791 34.7733 182.382 34.7733 182.501 35.1281Z" fill="#EBEBEB"/>
<path d="M11.2363 359.087L11.9459 360.507L13.4835 360.743C13.8384 360.743 14.0749 361.334 13.7201 361.571L12.5373 362.636L13.0104 364.291C13.1287 364.646 12.6556 365.001 12.3008 364.764L10.8814 364.055L9.46212 364.764C9.10729 365.001 8.75246 364.646 8.75246 364.291L8.98902 362.754L7.80625 361.689C7.5697 361.453 7.68797 360.98 8.0428 360.861L9.5804 360.625L10.2901 359.205C10.6449 358.732 11.118 358.732 11.2363 359.087Z" fill="#F5F5F5"/>
<path d="M19.0425 19.9887L19.7522 21.4081L21.2898 21.6446C21.6446 21.6446 21.8812 22.236 21.5263 22.4726L20.3436 23.537L20.5801 25.0746C20.6984 25.4295 20.2253 25.7843 19.8705 25.5477L18.4511 24.8381L17.0318 25.5477C16.677 25.7843 16.3222 25.4295 16.3222 25.0746L16.5587 23.537L15.376 22.4726C15.1394 22.236 15.2577 21.7629 15.6125 21.6446L17.1501 21.4081L17.8598 19.9887C18.3329 19.6339 18.9243 19.6339 19.0425 19.9887Z" fill="#EBEBEB"/>
<path d="M37.612 295.1C37.612 295.928 36.9023 296.637 36.0744 296.637C35.2464 296.637 34.5368 295.928 34.5368 295.1C34.5368 294.272 35.2464 293.562 36.0744 293.562C36.9023 293.562 37.612 294.272 37.612 295.1Z" fill="#EBEBEB"/>
<path d="M241.284 108.223C241.284 109.051 240.574 109.761 239.746 109.761C238.919 109.761 238.209 109.051 238.209 108.223C238.209 107.395 238.919 106.685 239.746 106.685C240.574 106.567 241.284 107.277 241.284 108.223Z" fill="#EBEBEB"/>
<path d="M159.792 21.2898C159.792 22.1177 159.082 22.8274 158.254 22.8274C157.426 22.8274 156.716 22.1177 156.716 21.2898C156.716 20.4618 157.426 19.7522 158.254 19.7522C159.082 19.6339 159.792 20.3436 159.792 21.2898Z" fill="#F5F5F5"/>
<path d="M177.883 378.347C182.524 377.251 185.398 372.601 184.302 367.96C183.206 363.319 178.556 360.446 173.915 361.542C169.274 362.637 166.4 367.288 167.496 371.928C168.592 376.569 173.242 379.443 177.883 378.347Z" fill="#F0F0F0"/>
<path d="M172.92 364.883C171.028 364.883 169.372 365.475 167.953 366.539C167.48 367.604 167.243 368.786 167.243 369.969C167.243 374.818 171.146 378.603 175.996 378.603C177.652 378.603 179.189 378.13 180.49 377.421C181.2 376.238 181.555 374.818 181.555 373.399C181.318 368.668 177.533 364.883 172.92 364.883Z" fill="#E6E6E6"/>
<g opacity="0.3">
<path d="M152.932 77.1163C152.932 78.2991 151.985 79.3636 150.684 79.3636C149.501 79.3636 148.437 78.4173 148.437 77.1163C148.437 75.9335 149.383 74.869 150.684 74.869C151.985 74.869 152.932 75.9335 152.932 77.1163Z" fill="#1B3ECD"/>
<path d="M1.5376 162.039C2.38679 162.039 3.07519 161.35 3.07519 160.501C3.07519 159.652 2.38679 158.964 1.5376 158.964C0.688405 158.964 0 159.652 0 160.501C0 161.35 0.688405 162.039 1.5376 162.039Z" fill="#1B3ECD"/>
<path d="M271.327 354.593C272.568 354.593 273.574 353.587 273.574 352.346C273.574 351.105 272.568 350.099 271.327 350.099C270.085 350.099 269.079 351.105 269.079 352.346C269.079 353.587 270.085 354.593 271.327 354.593Z" fill="#1B3ECD"/>
<path d="M313.314 299.121C314.163 299.121 314.852 298.433 314.852 297.584C314.852 296.734 314.163 296.046 313.314 296.046C312.465 296.046 311.777 296.734 311.777 297.584C311.777 298.433 312.465 299.121 313.314 299.121Z" fill="#1B3ECD"/>
<path d="M416.925 17.978C416.925 18.806 416.215 19.5156 415.387 19.5156C414.559 19.5156 413.85 18.806 413.85 17.978C413.85 17.1501 414.559 16.4404 415.387 16.4404C416.215 16.4404 416.925 17.1501 416.925 17.978Z" fill="#1B3ECD"/>
<path d="M131.405 10.0535C131.405 10.8815 130.696 11.5911 129.868 11.5911C129.04 11.5911 128.33 10.8815 128.33 10.0535C128.33 9.22559 129.04 8.51593 129.868 8.51593C130.696 8.51593 131.405 9.22559 131.405 10.0535Z" fill="#1B3ECD"/>
<path d="M243.768 68.3638C244.617 68.3638 245.306 67.6754 245.306 66.8263C245.306 65.9771 244.617 65.2887 243.768 65.2887C242.919 65.2887 242.23 65.9771 242.23 66.8263C242.23 67.6754 242.919 68.3638 243.768 68.3638Z" fill="#1B3ECD"/>
</g>
<path d="M85.8688 80.1914C100.174 80.1914 111.771 68.5945 111.771 54.2889C111.771 39.9833 100.174 28.3864 85.8688 28.3864C71.5632 28.3864 59.9662 39.9833 59.9662 54.2889C59.9662 68.5945 71.5632 80.1914 85.8688 80.1914Z" fill="#1B3ECD"/>
<path opacity="0.7" d="M85.8688 80.1914C100.174 80.1914 111.771 68.5945 111.771 54.2889C111.771 39.9833 100.174 28.3864 85.8688 28.3864C71.5632 28.3864 59.9662 39.9833 59.9662 54.2889C59.9662 68.5945 71.5632 80.1914 85.8688 80.1914Z" fill="white"/>
<path opacity="0.2" d="M76.8797 34.7733C73.2132 34.7733 69.7832 35.4829 66.708 36.9023C62.45 41.515 59.9662 47.6654 59.9662 54.4072C59.9662 68.7186 71.5573 80.3097 85.8688 80.3097C89.5353 80.3097 92.9653 79.6001 96.1588 78.1807C100.298 73.568 102.901 67.4176 102.901 60.6758C102.901 46.3644 91.1912 34.7733 76.8797 34.7733Z" fill="#1B3ECD"/>
<path opacity="0.2" d="M74.396 41.6333C74.396 42.9344 73.3315 43.9989 72.0304 43.9989C70.7294 43.9989 69.6649 42.9344 69.6649 41.6333C69.6649 40.3323 70.7294 39.2678 72.0304 39.2678C73.3315 39.2678 74.396 40.3323 74.396 41.6333Z" fill="#1B3ECD"/>
<path opacity="0.2" d="M102.191 39.2678C102.191 40.5688 101.126 41.6333 99.8254 41.6333C98.5244 41.6333 97.4599 40.5688 97.4599 39.2678C97.4599 37.9667 98.5244 36.9023 99.8254 36.9023C101.126 36.9023 102.191 37.9667 102.191 39.2678Z" fill="#1B3ECD"/>
<path opacity="0.2" d="M97.4599 56.1814C97.4599 58.3103 95.6857 60.0845 93.5567 60.0845C91.4278 60.0845 89.6536 58.3103 89.6536 56.1814C89.6536 54.0524 91.4278 52.2782 93.5567 52.2782C95.6857 52.2782 97.4599 54.0524 97.4599 56.1814Z" fill="#1B3ECD"/>
<path opacity="0.2" d="M85.1591 67.181C85.1591 70.0197 82.7936 72.3852 79.9549 72.3852C77.1163 72.3852 74.7508 70.0197 74.7508 67.181C74.7508 64.3424 77.1163 61.9769 79.9549 61.9769C82.7936 61.9769 85.1591 64.3424 85.1591 67.181Z" fill="#1B3ECD"/>
<path d="M389.402 331.426C392.284 319.22 384.726 306.989 372.52 304.107C360.314 301.224 348.083 308.783 345.201 320.988C342.319 333.194 349.877 345.425 362.083 348.308C374.289 351.19 386.52 343.631 389.402 331.426Z" fill="#1B3ECD"/>
<path opacity="0.3" d="M389.402 331.426C392.284 319.22 384.726 306.989 372.52 304.107C360.314 301.224 348.083 308.783 345.201 320.988C342.319 333.194 349.877 345.425 362.083 348.308C374.289 351.19 386.52 343.631 389.402 331.426Z" fill="white"/>
<path opacity="0.4" d="M381.678 308.584C379.667 307.992 377.42 307.637 375.173 307.637C362.635 307.637 352.464 317.809 352.464 330.346C352.464 337.443 355.775 343.83 360.861 347.97C362.872 348.561 365.119 348.916 367.366 348.916C379.904 348.916 390.075 338.744 390.075 326.207C390.075 319.11 386.764 312.723 381.678 308.584Z" fill="#1B3ECD"/>
<path d="M345.604 332.948C321.357 344.421 339.453 353.174 373.635 340.873C405.333 329.518 417.397 315.089 389.129 319.583C390.549 325.615 350.808 341.11 345.604 332.948Z" fill="#1B3ECD"/>
<path d="M89.6536 274.048V241.522H18.6877V214.082L84.2129 129.396H121.352V215.974H140.276L137.082 241.404H121.352V273.93H89.6536V274.048ZM89.6536 190.427C89.6536 174.814 89.6536 166.062 90.3633 156.954C84.0946 169.018 63.751 196.577 48.9665 216.211H89.7719V190.427H89.6536Z" fill="#1B3ECD"/>
<path d="M212.188 126.912C167.007 126.912 151.158 162.159 151.158 201.781C151.158 226.146 156.48 248.619 171.028 262.457C180.372 271.328 193.501 276.65 211.479 276.65C215.145 276.65 218.575 276.414 221.769 276.059C260.09 271.091 271.681 237.501 271.681 200.953C271.8 159.911 255.95 126.912 212.188 126.912ZM211.952 251.694C203.199 251.694 197.404 248.027 193.619 241.995C187.705 232.651 186.404 217.63 186.404 201.426C186.404 170.083 192.199 151.987 212.188 151.987C232.65 151.987 236.317 173.04 236.317 201.071C236.317 206.276 236.198 211.243 235.962 215.974C234.779 236.909 229.575 251.694 211.952 251.694Z" fill="#1B3ECD"/>
<path d="M372.808 196.222V195.631C381.324 191.964 392.205 183.685 392.205 166.298C392.205 155.772 387.947 145.6 378.722 138.267C378.367 137.912 378.012 137.675 377.539 137.32C372.926 133.89 367.131 131.052 360.152 129.278C359.088 129.041 358.023 128.686 356.841 128.568C351.755 127.503 345.959 126.912 339.572 126.912C333.895 126.912 328.809 127.385 324.078 128.213C323.605 128.331 323.013 128.45 322.54 128.568C318.046 129.514 314.024 130.697 310.476 132.353C293.089 139.923 285.993 154.352 284.455 166.771H316.981C317.336 165.234 317.809 163.696 318.401 162.159C319.938 158.61 322.54 155.18 327.39 153.288C330.228 152.105 333.777 151.514 338.389 151.514C343.712 151.514 347.851 152.578 351.045 154.352C351.636 154.707 352.109 154.944 352.583 155.417C356.486 158.374 358.378 162.75 358.378 168.191C358.378 180.255 352.109 185.104 336.379 185.104H324.078V209.351H338.271C356.604 209.351 364.055 217.394 364.055 230.759C364.055 243.533 356.249 252.877 340.518 252.877C324.314 252.877 316.981 244.361 314.852 234.425H281.498C281.498 234.544 281.498 234.544 281.498 234.544C283.154 253.586 297.466 276.887 339.454 276.887C384.517 276.887 398.356 252.167 398.356 231.232C398.356 208.641 382.98 199.652 372.808 196.222Z" fill="#1B3ECD"/>
<path d="M374.937 120.642C370.206 123.362 365.238 126.319 360.152 129.394C349.389 136.018 338.153 143.588 327.626 153.286C324.551 156.125 321.594 159.082 318.637 162.157C317.218 163.576 315.917 165.232 314.497 166.77C300.422 183.21 288.358 204.736 281.498 234.187C281.498 234.306 281.498 234.306 281.498 234.306C278.541 247.198 276.531 261.627 275.703 277.831C274.165 309.293 258.789 331.292 233.36 338.27C228.037 339.69 222.478 340.399 216.919 340.399C196.812 340.399 176.942 331.292 167.243 316.508C161.211 307.4 154.351 288.121 175.049 262.574L176.942 264.111C162.275 282.207 159.673 300.422 169.372 315.207C181.2 333.303 209.113 342.41 232.886 335.905C257.251 329.281 272.036 308.11 273.574 277.713C276.057 224.843 291.552 190.662 311.54 166.651C325.497 149.856 341.701 138.147 357.077 128.566C362.872 125.018 368.55 121.706 373.872 118.513C398.947 103.965 417.043 93.5567 413.022 71.439C412.43 68.3638 411.247 66.2348 409.237 64.9338C404.151 61.5038 394.097 63.8693 382.388 66.5897C361.216 71.5573 332.83 78.1807 314.024 53.9341C312.487 52.0417 311.067 49.9127 309.648 47.5472L311.659 46.3644C312.841 48.2568 313.906 50.031 315.207 51.6868C333.067 75.6969 360.034 69.4283 381.797 64.3424C393.979 61.5038 404.506 59.02 410.42 63.0414C412.903 64.6972 414.559 67.2993 415.151 71.0842C419.527 94.7394 399.775 106.212 374.937 120.642Z" fill="#1B3ECD"/>
<path opacity="0.2" d="M374.937 120.642C370.206 123.362 365.238 126.319 360.152 129.394C349.389 136.018 338.153 143.588 327.626 153.286C324.551 156.125 321.594 159.082 318.637 162.157C317.218 163.576 315.917 165.232 314.497 166.77C300.422 183.21 288.358 204.736 281.498 234.187C281.498 234.306 281.498 234.306 281.498 234.306C278.541 247.198 276.531 261.627 275.703 277.831C274.165 309.293 258.789 331.292 233.36 338.27C228.037 339.69 222.478 340.399 216.919 340.399C196.812 340.399 176.942 331.292 167.243 316.508C161.211 307.4 154.351 288.121 175.049 262.574L176.942 264.111C162.275 282.207 159.673 300.422 169.372 315.207C181.2 333.303 209.113 342.41 232.886 335.905C257.251 329.281 272.036 308.11 273.574 277.713C276.057 224.843 291.552 190.662 311.54 166.651C325.497 149.856 341.701 138.147 357.077 128.566C362.872 125.018 368.55 121.706 373.872 118.513C398.947 103.965 417.043 93.5567 413.022 71.439C412.43 68.3638 411.247 66.2348 409.237 64.9338C404.151 61.5038 394.097 63.8693 382.388 66.5897C361.216 71.5573 332.83 78.1807 314.024 53.9341C312.487 52.0417 311.067 49.9127 309.648 47.5472L311.659 46.3644C312.841 48.2568 313.906 50.031 315.207 51.6868C333.067 75.6969 360.034 69.4283 381.797 64.3424C393.979 61.5038 404.506 59.02 410.42 63.0414C412.903 64.6972 414.559 67.2993 415.151 71.0842C419.527 94.7394 399.775 106.212 374.937 120.642Z" fill="white"/>
<path d="M285.165 19.5156C293.326 19.3974 301.25 21.9994 301.25 21.9994C301.25 21.9994 314.261 44.2354 315.798 49.3213C315.207 54.2889 306.809 62.5683 306.809 62.5683L285.165 19.5156Z" fill="#1B3ECD"/>
<path opacity="0.3" d="M285.165 19.5156C293.326 19.3974 301.25 21.9994 301.25 21.9994C301.25 21.9994 314.261 44.2354 315.798 49.3213C315.207 54.2889 306.809 62.5683 306.809 62.5683L285.165 19.5156Z" fill="white"/>
<path d="M323.723 127.384C318.873 121.233 314.024 114.846 310.003 107.986C309.057 106.331 308.11 104.556 307.164 102.782C306.691 101.836 306.218 100.772 305.745 99.7071C305.272 98.7609 304.444 97.4598 304.325 96.5136C302.906 81.4925 307.992 70.4928 303.143 58.4286L283.627 65.9983C283.627 65.9983 285.283 87.4063 289.068 100.298C291.433 108.223 296.756 115.083 301.842 121.47C303.498 123.481 305.035 125.491 306.573 127.502C308.11 129.394 309.766 131.169 311.304 133.061C313.551 135.9 314.379 138.62 312.605 142.05C312.487 142.287 312.368 142.405 312.368 142.641C311.895 143.469 314.142 144.534 315.68 142.641C318.046 139.566 317.691 139.803 319.82 137.201C321.121 135.663 322.54 133.889 323.723 132.47C324.906 130.932 324.906 128.921 323.723 127.384Z" fill="#1B3ECD"/>
<path opacity="0.7" d="M323.723 127.384C318.873 121.233 314.024 114.846 310.003 107.986C309.057 106.331 308.11 104.556 307.164 102.782C306.691 101.836 306.218 100.772 305.745 99.7071C305.272 98.7609 304.444 97.4598 304.325 96.5136C302.906 81.4925 307.992 70.4928 303.143 58.4286L283.627 65.9983C283.627 65.9983 285.283 87.4063 289.068 100.298C291.433 108.223 296.756 115.083 301.842 121.47C303.498 123.481 305.035 125.491 306.573 127.502C308.11 129.394 309.766 131.169 311.304 133.061C313.551 135.9 314.379 138.62 312.605 142.05C312.487 142.287 312.368 142.405 312.368 142.641C311.895 143.469 314.142 144.534 315.68 142.641C318.046 139.566 317.691 139.803 319.82 137.201C321.121 135.663 322.54 133.889 323.723 132.47C324.906 130.932 324.906 128.921 323.723 127.384Z" fill="white"/>
<path opacity="0.3" d="M318.992 121.233C316.39 124.427 311.067 128.448 308.702 130.104C309.175 130.696 309.766 131.287 310.239 131.878C315.089 128.685 318.874 124.663 320.293 123.008C319.82 122.416 319.347 121.825 318.992 121.233Z" fill="#1B3ECD"/>
<path opacity="0.3" d="M323.723 127.384C323.723 127.265 323.605 127.265 323.605 127.265C322.777 128.093 322.185 129.513 322.067 131.05C321.949 132.115 322.185 133.061 322.54 133.889C322.895 133.416 323.25 132.943 323.605 132.588C324.906 130.932 324.906 128.921 323.723 127.384Z" fill="#1B3ECD"/>
<path d="M280.552 33.7088C278.541 36.6657 276.057 39.6226 272.982 42.2247C271.445 43.5257 269.67 44.7085 267.778 45.773C266.832 46.2461 265.767 46.7192 264.703 47.074L263.875 47.3106L263.638 47.4288C263.402 47.4288 263.284 47.5471 263.047 47.5471C262.692 47.6654 262.337 47.6654 261.983 47.6654C260.681 47.7837 259.735 47.5471 259.026 47.4288C257.488 47.074 256.542 46.4826 255.596 45.8913C254.649 45.2999 253.821 44.8268 252.994 44.2354C251.456 43.0526 250.037 41.8699 248.736 40.6871C246.133 38.2033 243.768 35.6012 241.639 32.7626C240.693 31.4615 240.929 29.5691 242.23 28.6229C243.295 27.9132 244.596 27.795 245.542 28.5046H245.66C248.499 30.2788 251.219 32.1712 254.058 33.8271C255.477 34.655 256.778 35.4829 258.079 36.0743C258.789 36.4291 259.38 36.6657 259.972 36.9023C260.563 37.1388 261.155 37.2571 261.273 37.2571C261.391 37.2571 261.273 37.1388 260.8 37.1388C260.681 37.1388 260.563 37.1388 260.445 37.1388C260.327 37.1388 260.327 37.1388 260.208 37.2571L260.563 37.0205C261.036 36.784 261.628 36.4291 262.101 36.0743C263.165 35.3647 264.112 34.5367 265.058 33.5905C266.95 31.6981 268.843 29.2143 270.853 26.7305C272.864 24.1284 276.649 23.7736 279.133 25.7843C281.853 27.6767 282.326 31.225 280.552 33.7088Z" fill="#1B3ECD"/>
<path opacity="0.7" d="M280.552 33.7088C278.541 36.6657 276.057 39.6226 272.982 42.2247C271.445 43.5257 269.67 44.7085 267.778 45.773C266.832 46.2461 265.767 46.7192 264.703 47.074L263.875 47.3106L263.638 47.4288C263.402 47.4288 263.284 47.5471 263.047 47.5471C262.692 47.6654 262.337 47.6654 261.983 47.6654C260.681 47.7837 259.735 47.5471 259.026 47.4288C257.488 47.074 256.542 46.4826 255.596 45.8913C254.649 45.2999 253.821 44.8268 252.994 44.2354C251.456 43.0526 250.037 41.8699 248.736 40.6871C246.133 38.2033 243.768 35.6012 241.639 32.7626C240.693 31.4615 240.929 29.5691 242.23 28.6229C243.295 27.9132 244.596 27.795 245.542 28.5046H245.66C248.499 30.2788 251.219 32.1712 254.058 33.8271C255.477 34.655 256.778 35.4829 258.079 36.0743C258.789 36.4291 259.38 36.6657 259.972 36.9023C260.563 37.1388 261.155 37.2571 261.273 37.2571C261.391 37.2571 261.273 37.1388 260.8 37.1388C260.681 37.1388 260.563 37.1388 260.445 37.1388C260.327 37.1388 260.327 37.1388 260.208 37.2571L260.563 37.0205C261.036 36.784 261.628 36.4291 262.101 36.0743C263.165 35.3647 264.112 34.5367 265.058 33.5905C266.95 31.6981 268.843 29.2143 270.853 26.7305C272.864 24.1284 276.649 23.7736 279.133 25.7843C281.853 27.6767 282.326 31.225 280.552 33.7088Z" fill="white"/>
<path d="M237.263 26.0208L238.682 28.3863C238.682 28.3863 239.747 31.4615 241.876 32.0529L247.671 30.1605L247.435 29.6874C246.725 28.6229 246.725 26.3756 247.08 24.6015C247.316 22.8274 246.37 22.7091 245.66 23.1822C245.306 23.4187 244.951 24.2467 244.714 25.1929C244.478 24.8381 244.123 24.4832 243.768 24.1284L241.994 22.3542C241.284 21.6446 239.983 21.5263 239.273 22.236L237.854 23.537C237.026 24.1284 236.79 25.1929 237.263 26.0208Z" fill="#1B3ECD"/>
<path opacity="0.7" d="M237.263 26.0208L238.682 28.3863C238.682 28.3863 239.747 31.4615 241.876 32.0529L247.671 30.1605L247.435 29.6874C246.725 28.6229 246.725 26.3756 247.08 24.6015C247.316 22.8274 246.37 22.7091 245.66 23.1822C245.306 23.4187 244.951 24.2467 244.714 25.1929C244.478 24.8381 244.123 24.4832 243.768 24.1284L241.994 22.3542C241.284 21.6446 239.983 21.5263 239.273 22.236L237.854 23.537C237.026 24.1284 236.79 25.1929 237.263 26.0208Z" fill="white"/>
<path d="M290.96 17.5049C285.52 18.806 277.95 21.9994 272.864 25.1929C271.09 26.3757 270.144 28.5047 270.617 30.5154C272.864 41.6333 278.068 56.6545 283.745 66.1166L309.885 55.3534C310.121 50.7406 303.734 35.8378 297.229 21.4081C295.928 18.806 293.799 16.7953 290.96 17.5049Z" fill="#1B3ECD"/>
<path opacity="0.8" d="M290.96 17.5049C285.52 18.806 277.95 21.9994 272.864 25.1929C271.09 26.3757 270.144 28.5047 270.617 30.5154C272.864 41.6333 278.068 56.6545 283.745 66.1166L309.885 55.3534C310.121 50.7406 303.734 35.8378 297.229 21.4081C295.928 18.806 293.799 16.7953 290.96 17.5049Z" fill="white"/>
<path opacity="0.3" d="M301.25 30.5154L296.046 28.7412C297.229 31.8164 301.369 35.6012 304.326 37.8485C303.379 35.483 302.315 32.9992 301.25 30.5154Z" fill="#1B3ECD"/>
<path d="M289.304 5.79555C287.175 1.65587 282.444 -0.354825 276.885 0.118281C272.154 0.47311 268.015 5.32244 268.488 7.92453C268.961 10.5266 272.982 11.5911 273.692 12.5373L270.38 14.9028C268.724 16.0856 268.369 18.3329 269.671 19.9887C271.09 21.7629 272.864 23.537 273.928 24.8381C283.036 24.6015 289.659 21.1715 292.143 17.8597C291.197 13.6018 291.433 9.93523 289.304 5.79555Z" fill="#1B3ECD"/>
<path opacity="0.8" d="M289.304 5.79555C287.175 1.65587 282.444 -0.354825 276.885 0.118281C272.154 0.47311 268.015 5.32244 268.488 7.92453C268.961 10.5266 272.982 11.5911 273.692 12.5373L270.38 14.9028C268.724 16.0856 268.369 18.3329 269.671 19.9887C271.09 21.7629 272.864 23.537 273.928 24.8381C283.036 24.6015 289.659 21.1715 292.143 17.8597C291.197 13.6018 291.433 9.93523 289.304 5.79555Z" fill="white"/>
<path d="M284.81 8.27934C286.584 12.8921 284.337 18.0963 279.724 19.8704C275.111 21.6446 269.907 19.3973 268.133 14.7845C266.359 10.1718 268.606 4.9676 273.219 3.19346C277.832 1.41931 283.036 3.78484 284.81 8.27934Z" fill="#263238"/>
<path d="M361.571 114.965C361.453 111.062 361.217 111.416 361.217 108.105C361.098 106.094 361.098 103.847 361.098 101.954C361.098 100.062 359.797 98.406 357.905 98.0512C356.367 97.6964 354.711 97.4598 353.174 97.105C351.163 96.6319 349.152 96.1588 347.142 95.5674C345.604 95.0943 344.066 94.6212 342.529 94.0298C340.873 93.4384 339.335 92.847 337.68 92.1374C335.787 91.3094 334.013 90.4815 332.121 89.6536C330.11 88.7074 328.099 87.6429 326.088 86.5784C318.282 73.6862 318.164 65.1703 309.766 55.2351L291.788 63.3962C291.788 63.3962 304.917 86.8149 313.906 96.6319C319.11 102.309 327.153 104.911 334.368 106.804C339.572 108.105 344.894 109.169 350.217 110.115C352.228 110.47 354.475 110.589 356.249 111.89C357.668 112.836 358.378 114.373 358.733 116.029C358.851 116.384 358.851 116.739 358.969 116.975C359.324 118.04 361.69 117.33 361.571 114.965Z" fill="#1B3ECD"/>
<path opacity="0.8" d="M361.571 114.965C361.453 111.062 361.217 111.416 361.217 108.105C361.098 106.094 361.098 103.847 361.098 101.954C361.098 100.062 359.797 98.406 357.905 98.0512C356.367 97.6964 354.711 97.4598 353.174 97.105C351.163 96.6319 349.152 96.1588 347.142 95.5674C345.604 95.0943 344.066 94.6212 342.529 94.0298C340.873 93.4384 339.335 92.847 337.68 92.1374C335.787 91.3094 334.013 90.4815 332.121 89.6536C330.11 88.7074 328.099 87.6429 326.088 86.5784C318.282 73.6862 318.164 65.1703 309.766 55.2351L291.788 63.3962C291.788 63.3962 304.917 86.8149 313.906 96.6319C319.11 102.309 327.153 104.911 334.368 106.804C339.572 108.105 344.894 109.169 350.217 110.115C352.228 110.47 354.475 110.589 356.249 111.89C357.668 112.836 358.378 114.373 358.733 116.029C358.851 116.384 358.851 116.739 358.969 116.975C359.324 118.04 361.69 117.33 361.571 114.965Z" fill="white"/>
<path opacity="0.3" d="M352.582 96.9867C351.873 96.8684 351.163 96.6319 350.453 96.5136C350.453 100.653 348.561 107.632 347.851 109.761C348.561 109.879 349.389 109.997 350.099 110.234C352.109 104.556 352.464 98.6426 352.582 96.9867Z" fill="#1B3ECD"/>
<path opacity="0.3" d="M361.098 101.954C361.098 100.062 359.797 98.406 357.905 98.0511C357.55 97.9329 357.195 97.9329 356.722 97.8146C356.84 98.8791 357.55 100.18 358.615 101.245C359.324 101.954 360.27 102.427 360.98 102.546C361.098 102.427 361.098 102.191 361.098 101.954Z" fill="#1B3ECD"/>
<path d="M283.154 8.39762C283.627 10.1718 281.616 12.0642 279.961 10.5266C278.659 9.22555 276.649 7.21486 275.111 6.15037C273.455 5.08588 275.703 3.31174 278.305 4.02139C280.67 4.73105 282.681 6.62347 283.154 8.39762Z" fill="white"/>
<path d="M283.272 65.5252C282.444 65.88 283.982 67.2993 283.982 67.2993C283.982 67.2993 300.541 61.6221 310.594 55.8265C310.713 54.6437 309.766 53.9341 309.766 53.9341C309.766 53.9341 297.466 60.321 283.272 65.5252Z" fill="#1B3ECD"/>
<path opacity="0.5" d="M283.272 65.5252C282.444 65.88 283.982 67.2993 283.982 67.2993C283.982 67.2993 300.541 61.6221 310.594 55.8265C310.713 54.6437 309.766 53.9341 309.766 53.9341C309.766 53.9341 297.466 60.321 283.272 65.5252Z" fill="white"/>
<path d="M295.455 16.677C298.767 18.3329 301.842 20.107 304.799 21.9994C306.336 22.9456 307.874 23.8919 309.293 24.9563C310.831 26.0208 312.25 27.0853 313.788 28.3864L314.379 28.8595L315.089 29.4509C315.562 29.924 315.917 30.2788 316.271 30.7519C316.626 31.225 316.981 31.5798 317.336 31.9347C317.691 32.2895 317.927 32.7626 318.282 33.1174C319.465 34.655 320.411 36.3109 321.357 37.8485C323.132 41.0419 324.787 44.2354 326.088 47.6654C326.68 49.203 325.852 50.9772 324.314 51.4503C323.132 51.9234 321.949 51.5686 321.121 50.7406V50.6223C318.755 48.1385 316.508 45.4182 314.143 42.9344C311.895 40.4506 309.53 37.9668 307.637 36.9023C304.917 35.2464 301.96 33.5905 299.003 31.9347L290.014 26.967C287.175 25.4295 286.111 21.7629 287.767 18.9242C289.186 16.3222 292.616 15.2577 295.455 16.677Z" fill="#1B3ECD"/>
<path opacity="0.8" d="M295.455 16.677C298.767 18.3329 301.842 20.107 304.799 21.9994C306.336 22.9456 307.874 23.8919 309.293 24.9563C310.831 26.0208 312.25 27.0853 313.788 28.3864L314.379 28.8595L315.089 29.4509C315.562 29.924 315.917 30.2788 316.271 30.7519C316.626 31.225 316.981 31.5798 317.336 31.9347C317.691 32.2895 317.927 32.7626 318.282 33.1174C319.465 34.655 320.411 36.3109 321.357 37.8485C323.132 41.0419 324.787 44.2354 326.088 47.6654C326.68 49.203 325.852 50.9772 324.314 51.4503C323.132 51.9234 321.949 51.5686 321.121 50.7406V50.6223C318.755 48.1385 316.508 45.4182 314.143 42.9344C311.895 40.4506 309.53 37.9668 307.637 36.9023C304.917 35.2464 301.96 33.5905 299.003 31.9347L290.014 26.967C287.175 25.4295 286.111 21.7629 287.767 18.9242C289.186 16.3222 292.616 15.2577 295.455 16.677Z" fill="white"/>
<path d="M328.927 53.5793L327.981 51.0955C327.981 51.0955 327.389 47.902 325.379 46.9558L319.465 47.902L319.701 48.3751C320.293 49.5579 319.82 51.6868 319.347 53.461C318.755 55.2351 319.701 55.3534 320.529 55.1169C321.002 54.8803 321.357 54.1706 321.83 53.3427C322.067 53.8158 322.304 54.1706 322.54 54.5255L323.959 56.5362C324.551 57.3641 325.734 57.6007 326.68 57.0093L328.336 55.9448C328.927 55.4717 329.282 54.5255 328.927 53.5793Z" fill="#1B3ECD"/>
<path opacity="0.8" d="M328.927 53.5793L327.981 51.0955C327.981 51.0955 327.389 47.902 325.379 46.9558L319.465 47.902L319.701 48.3751C320.293 49.5579 319.82 51.6868 319.347 53.461C318.755 55.2351 319.701 55.3534 320.529 55.1169C321.002 54.8803 321.357 54.1706 321.83 53.3427C322.067 53.8158 322.304 54.1706 322.54 54.5255L323.959 56.5362C324.551 57.3641 325.734 57.6007 326.68 57.0093L328.336 55.9448C328.927 55.4717 329.282 54.5255 328.927 53.5793Z" fill="white"/>
<path opacity="0.3" d="M290.487 30.2788L289.068 30.3971L280.197 51.8051C280.67 51.8051 281.143 51.8051 281.616 51.6868C281.616 51.6868 293.208 47.4289 296.638 45.773C294.272 40.9237 290.487 30.2788 290.487 30.2788Z" fill="#1B3ECD"/>
<path d="M274.283 35.9561C274.756 39.8592 277.713 48.0203 280.197 51.8051C284.573 50.2675 291.788 47.5472 295.218 45.8913C292.853 41.0419 290.369 34.3002 289.068 30.3971C285.283 30.6336 277.24 33.7088 274.283 35.9561Z" fill="white"/>
<path opacity="0.3" d="M283.154 40.5688C282.681 42.2247 281.025 43.0527 279.369 42.5795C277.713 42.1064 276.885 40.4506 277.358 38.7947C277.832 37.1388 279.487 36.3109 281.143 36.784C282.681 37.2571 283.627 38.913 283.154 40.5688Z" fill="#1B3ECD"/>
<path opacity="0.6" d="M285.401 36.4292C285.283 36.9023 284.692 37.2571 284.1 37.1388C283.627 37.0205 283.272 36.4292 283.391 35.8378C283.509 35.3647 284.1 35.0098 284.692 35.1281C285.283 35.3647 285.52 35.9561 285.401 36.4292Z" fill="#1B3ECD"/>
<path opacity="0.6" d="M288.003 35.483C287.885 35.9561 287.294 36.3109 286.702 36.1926C286.229 36.0743 285.874 35.483 285.993 34.8916C286.111 34.4185 286.702 34.0636 287.294 34.1819C287.885 34.4185 288.122 34.8916 288.003 35.483Z" fill="#1B3ECD"/>
<path opacity="0.5" d="M291.67 44.7085L280.788 48.9665L280.079 46.8375L291.079 42.4613L291.67 44.7085Z" fill="#1B3ECD"/>
<g opacity="0.2">
<path d="M324.078 184.866C324.078 184.991 324.202 184.991 324.078 184.866V184.866Z" fill="black"/>
<path fill-rule="evenodd" clip-rule="evenodd" d="M377.3 138.975C377.537 138.857 377.773 138.62 377.773 138.265V137.91C377.655 137.437 377.182 137.319 376.709 137.437H376.591C376.472 137.437 364.763 142.76 350.333 154.233C350.924 154.587 351.397 154.942 351.87 155.297L351.871 155.297C364.344 145.361 374.739 140.242 376.892 139.182C377.148 139.056 377.288 138.987 377.3 138.975ZM300.542 234.176H298.605C296.548 243.028 295.216 252.471 294.853 262.622C294.853 263.094 295.216 263.566 295.7 263.566C296.185 263.566 296.669 263.212 296.669 262.74C297.032 252.471 298.363 242.91 300.542 234.176Z" fill="black"/>
<path d="M377.3 138.975L377.188 138.751L377.152 138.769L377.124 138.798L377.3 138.975ZM377.773 137.91H378.023V137.88L378.016 137.85L377.773 137.91ZM376.709 137.437V137.687H376.74L376.77 137.68L376.709 137.437ZM350.333 154.233L350.178 154.037L349.895 154.261L350.205 154.447L350.333 154.233ZM351.87 155.297L352.022 155.098L352.02 155.097L351.87 155.297ZM351.871 155.297L351.72 155.496L351.875 155.614L352.027 155.493L351.871 155.297ZM376.892 139.182L377.003 139.406V139.406L376.892 139.182ZM298.605 234.176V233.926H298.407L298.362 234.119L298.605 234.176ZM300.542 234.176L300.784 234.236L300.862 233.926H300.542V234.176ZM294.853 262.622L294.603 262.613V262.622H294.853ZM296.669 262.74L296.419 262.731V262.74H296.669ZM377.523 138.265C377.523 138.493 377.374 138.658 377.188 138.751L377.412 139.198C377.7 139.055 378.023 138.747 378.023 138.265H377.523ZM377.523 137.91V138.265H378.023V137.91H377.523ZM376.77 137.68C376.972 137.629 377.154 137.635 377.284 137.685C377.404 137.731 377.492 137.817 377.531 137.971L378.016 137.85C377.936 137.531 377.729 137.321 377.464 137.219C377.21 137.121 376.918 137.127 376.648 137.195L376.77 137.68ZM376.591 137.687H376.709V137.187H376.591V137.687ZM350.489 154.428C357.693 148.7 364.217 144.508 368.955 141.749C371.323 140.369 373.244 139.347 374.58 138.671C375.248 138.333 375.769 138.082 376.126 137.915C376.305 137.831 376.442 137.77 376.535 137.729C376.582 137.709 376.616 137.694 376.639 137.685C376.65 137.68 376.657 137.678 376.659 137.677C376.66 137.677 376.658 137.678 376.653 137.679C376.65 137.68 376.645 137.681 376.638 137.683C376.633 137.684 376.615 137.687 376.591 137.687V137.187C376.551 137.187 376.519 137.197 376.519 137.197C376.509 137.2 376.501 137.203 376.494 137.205C376.482 137.209 376.467 137.215 376.453 137.221C376.424 137.233 376.384 137.249 376.335 137.271C376.236 137.314 376.096 137.377 375.915 137.462C375.552 137.631 375.026 137.885 374.354 138.225C373.01 138.905 371.08 139.932 368.703 141.317C363.948 144.086 357.403 148.292 350.178 154.037L350.489 154.428ZM352.02 155.097C351.548 154.742 351.066 154.38 350.462 154.018L350.205 154.447C350.783 154.794 351.247 155.142 351.72 155.497L352.02 155.097ZM352.022 155.098L352.022 155.098L351.719 155.496L351.72 155.496L352.022 155.098ZM376.782 138.958C374.621 140.022 364.208 145.149 351.715 155.101L352.027 155.493C364.48 145.572 374.857 140.463 377.003 139.406L376.782 138.958ZM377.124 138.798C377.139 138.782 377.153 138.773 377.154 138.772C377.157 138.771 377.158 138.77 377.159 138.769C377.16 138.768 377.16 138.768 377.161 138.768C377.161 138.768 377.16 138.768 377.16 138.769C377.159 138.769 377.158 138.769 377.157 138.77C377.155 138.771 377.152 138.773 377.148 138.775C377.133 138.783 377.109 138.796 377.075 138.813C377.008 138.847 376.91 138.895 376.782 138.958L377.003 139.406C377.13 139.344 377.23 139.294 377.3 139.259C377.335 139.242 377.364 139.227 377.386 139.215C377.397 139.209 377.408 139.203 377.419 139.196C377.42 139.195 377.45 139.178 377.477 139.152L377.124 138.798ZM298.605 234.426H300.542V233.926H298.605V234.426ZM295.103 262.631C295.466 252.497 296.795 243.07 298.849 234.232L298.362 234.119C296.301 242.987 294.967 252.446 294.603 262.613L295.103 262.631ZM295.7 263.316C295.39 263.316 295.103 262.994 295.103 262.622H294.603C294.603 263.194 295.043 263.816 295.7 263.816V263.316ZM296.419 262.74C296.419 262.885 296.345 263.025 296.208 263.136C296.071 263.248 295.884 263.316 295.7 263.316V263.816C296.001 263.816 296.298 263.708 296.524 263.524C296.75 263.34 296.919 263.067 296.919 262.74H296.419ZM300.299 234.115C298.116 242.868 296.783 252.446 296.419 262.731L296.919 262.749C297.281 252.496 298.61 242.953 300.784 234.236L300.299 234.115Z" fill="black"/>
</g>
<path d="M72.9766 271.446C79.6001 278.07 93.675 292.145 93.675 292.145L151.63 237.501C131.76 230.05 92.847 251.694 72.9766 271.446Z" fill="#263238"/>
<path d="M145.244 343.713C138.62 337.09 124.545 323.015 124.545 323.015L179.189 265.06C186.759 284.93 164.996 323.843 145.244 343.713Z" fill="#263238"/>
<path opacity="0.2" d="M265.886 200.599L243.295 244.125C237.381 255.597 230.166 266.361 221.768 276.059C218.575 276.532 215.027 276.651 211.478 276.651C193.5 276.651 180.372 271.328 171.028 262.457L183.92 250.275C186.995 247.318 190.189 244.598 193.5 241.877C197.285 247.909 203.199 251.576 211.833 251.576C229.575 251.576 234.661 236.91 235.962 215.975L265.886 200.599Z" fill="black"/>
<path d="M224.489 213.254L247.08 169.729L203.436 192.319C189.479 199.534 176.587 208.76 165.114 219.523L90.9547 289.424L127.384 325.854L197.285 251.694C208.049 240.103 217.156 227.211 224.489 213.254Z" fill="#1B3ECD"/>
<path opacity="0.6" d="M224.489 213.254L247.08 169.729L203.436 192.319C189.479 199.534 176.587 208.76 165.114 219.523L90.9547 289.424L127.384 325.854L197.285 251.694C208.049 240.103 217.156 227.211 224.489 213.254Z" fill="white"/>
<path d="M178.125 253.941C186.551 253.941 193.382 247.11 193.382 238.684C193.382 230.257 186.551 223.426 178.125 223.426C169.698 223.426 162.867 230.257 162.867 238.684C162.867 247.11 169.698 253.941 178.125 253.941Z" fill="white"/>
<path d="M178.125 248.501C183.546 248.501 187.941 244.106 187.941 238.684C187.941 233.262 183.546 228.867 178.125 228.867C172.703 228.867 168.308 233.262 168.308 238.684C168.308 244.106 172.703 248.501 178.125 248.501Z" fill="#1B3ECD"/>
<path opacity="0.3" d="M139.684 312.725L103.965 277.005L133.179 249.447L167.243 283.511L139.684 312.725Z" fill="#1B3ECD"/>
<path d="M81.1377 304.209C54.4072 306.338 45.5365 323.488 42.4613 346.197C40.9237 357.788 40.214 369.497 30.5154 376.357C27.795 378.25 29.096 382.39 32.4078 382.39C68.2456 381.325 85.0409 363.702 87.1698 356.369C86.4602 360.982 85.3957 364.648 84.2129 367.605C83.0302 370.562 86.2236 373.282 88.944 371.626C98.9975 365.358 111.653 353.648 112.481 334.842C105.148 324.316 81.1377 304.209 81.1377 304.209Z" fill="#1B3ECD"/>
<path opacity="0.2" d="M81.1377 304.209C54.4072 306.338 45.5365 323.488 42.4613 346.197C40.9237 357.788 40.214 369.497 30.5154 376.357C27.795 378.25 29.096 382.39 32.4078 382.39C68.2456 381.325 85.0409 363.702 87.1698 356.369C86.4602 360.982 85.3957 364.648 84.2129 367.605C83.0302 370.562 86.2236 373.282 88.944 371.626C98.9975 365.358 111.653 353.648 112.481 334.842C105.148 324.316 81.1377 304.209 81.1377 304.209Z" fill="white"/>
<path d="M116.621 342.885L73.8046 300.069L96.632 295.102L121.588 320.058L116.621 342.885Z" fill="#1B3ECD"/>
</g>
<defs>
<clipPath id="clip0_63_2190">
<rect width="420" height="384.517" fill="white"/>
</clipPath>
</defs>
</svg>
