<svg width="420" height="384" viewBox="0 0 420 384" fill="none" xmlns="http://www.w3.org/2000/svg">
<g clip-path="url(#clip0_63_1858)">
<path d="M48.9665 103.7L50.8589 107.597L55.1169 108.188L52.0417 111.259L52.7513 115.511L48.9665 113.503L45.1816 115.511L45.8913 111.259L42.8161 108.188L47.0741 107.597L48.9665 103.7Z" fill="#EBEBEB"/>
<path d="M413.85 285.942L415.742 289.722L420 290.43L416.925 293.383L417.634 297.635L413.85 295.627L410.065 297.635L410.774 293.383L407.699 290.43L411.957 289.722L413.85 285.942Z" fill="#F5F5F5"/>
<path d="M356.012 372.162L357.905 376.06L362.163 376.65L359.088 379.721L359.797 383.973L356.012 381.965L352.109 383.973L352.819 379.721L349.744 376.65L354.002 376.06L356.012 372.162Z" fill="#F5F5F5"/>
<path d="M182.501 35.0784L183.21 36.4957L184.748 36.732C185.103 36.732 185.339 37.3225 184.985 37.5587L183.802 38.6217L184.038 40.1571C184.157 40.5114 183.683 40.8658 183.329 40.6296L181.909 39.9209L180.49 40.6296C180.135 40.8658 179.78 40.5114 179.78 40.1571L180.017 38.6217L178.834 37.5587C178.598 37.3225 178.716 36.8501 179.071 36.732L180.608 36.4957L181.318 35.0784C181.791 34.7241 182.382 34.7241 182.501 35.0784Z" fill="#EBEBEB"/>
<path d="M11.2363 358.579L11.9459 359.997L13.4835 360.233C13.8384 360.233 14.0749 360.824 13.7201 361.06L12.5373 362.123L13.0104 363.776C13.1287 364.131 12.6556 364.485 12.3008 364.249L10.8814 363.54L9.46212 364.249C9.10729 364.485 8.75246 364.131 8.75246 363.776L8.98902 362.241L7.80625 361.178C7.5697 360.942 7.68797 360.469 8.0428 360.351L9.5804 360.115L10.2901 358.698C10.6449 358.225 11.118 358.225 11.2363 358.579Z" fill="#F5F5F5"/>
<path d="M19.0425 19.9604L19.7522 21.3778L21.2898 21.614C21.6446 21.614 21.8812 22.2045 21.5263 22.4407L20.3436 23.5037L20.5801 25.0391C20.6984 25.3935 20.2253 25.7478 19.8705 25.5116L18.4511 24.8029L17.0318 25.5116C16.677 25.7478 16.3222 25.3935 16.3222 25.0391L16.5587 23.5037L15.376 22.4407C15.1394 22.2045 15.2577 21.7321 15.6125 21.614L17.1501 21.3778L17.8598 19.9604C18.3329 19.6061 18.9242 19.6061 19.0425 19.9604Z" fill="#EBEBEB"/>
<path d="M37.6119 294.682C37.6119 295.509 36.9023 296.218 36.0743 296.218C35.2464 296.218 34.5367 295.509 34.5367 294.682C34.5367 293.856 35.2464 293.147 36.0743 293.147C36.9023 293.147 37.6119 293.856 37.6119 294.682Z" fill="#EBEBEB"/>
<path d="M241.284 108.07C241.284 108.897 240.574 109.605 239.747 109.605C238.919 109.605 238.209 108.897 238.209 108.07C238.209 107.243 238.919 106.534 239.747 106.534C240.574 106.416 241.284 107.125 241.284 108.07Z" fill="#EBEBEB"/>
<path d="M159.792 21.2597C159.792 22.0864 159.082 22.7951 158.254 22.7951C157.426 22.7951 156.716 22.0864 156.716 21.2597C156.716 20.4329 157.426 19.7242 158.254 19.7242C159.082 19.6061 159.792 20.3148 159.792 21.2597Z" fill="#F5F5F5"/>
<path d="M177.883 377.812C182.524 376.718 185.398 372.074 184.302 367.44C183.206 362.806 178.556 359.936 173.915 361.03C169.274 362.124 166.4 366.768 167.496 371.402C168.592 376.037 173.242 378.906 177.883 377.812Z" fill="#F0F0F0"/>
<path d="M172.92 364.367C171.028 364.367 169.372 364.957 167.953 366.02C167.48 367.083 167.243 368.264 167.243 369.445C167.243 374.288 171.146 378.067 175.996 378.067C177.651 378.067 179.189 377.595 180.49 376.886C181.2 375.705 181.554 374.288 181.554 372.871C181.318 368.146 177.533 364.367 172.92 364.367Z" fill="#E6E6E6"/>
<g opacity="0.3">
<path d="M152.932 77.0071C152.932 78.1882 151.985 79.2512 150.684 79.2512C149.502 79.2512 148.437 78.3063 148.437 77.0071C148.437 75.826 149.383 74.7631 150.684 74.7631C151.985 74.7631 152.932 75.826 152.932 77.0071Z" fill="#1B3ECD"/>
<path d="M1.5376 161.81C2.38679 161.81 3.07519 161.122 3.07519 160.274C3.07519 159.426 2.38679 158.739 1.5376 158.739C0.688405 158.739 0 159.426 0 160.274C0 161.122 0.688405 161.81 1.5376 161.81Z" fill="#1B3ECD"/>
<path d="M271.326 354.091C272.568 354.091 273.574 353.087 273.574 351.847C273.574 350.608 272.568 349.603 271.326 349.603C270.085 349.603 269.079 350.608 269.079 351.847C269.079 353.087 270.085 354.091 271.326 354.091Z" fill="#1B3ECD"/>
<path d="M313.315 298.698C314.164 298.698 314.852 298.011 314.852 297.163C314.852 296.315 314.164 295.627 313.315 295.627C312.465 295.627 311.777 296.315 311.777 297.163C311.777 298.011 312.465 298.698 313.315 298.698Z" fill="#1B3ECD"/>
<path d="M416.925 17.9526C416.925 18.7794 416.215 19.488 415.387 19.488C414.559 19.488 413.85 18.7794 413.85 17.9526C413.85 17.1258 414.559 16.4172 415.387 16.4172C416.215 16.4172 416.925 17.1258 416.925 17.9526Z" fill="#1B3ECD"/>
<path d="M131.405 10.0393C131.405 10.866 130.696 11.5747 129.868 11.5747C129.04 11.5747 128.33 10.866 128.33 10.0393C128.33 9.2125 129.04 8.50385 129.868 8.50385C130.696 8.50385 131.405 9.2125 131.405 10.0393Z" fill="#1B3ECD"/>
<path d="M243.768 68.2671C244.617 68.2671 245.306 67.5796 245.306 66.7316C245.306 65.8837 244.617 65.1962 243.768 65.1962C242.919 65.1962 242.23 65.8837 242.23 66.7316C242.23 67.5796 242.919 68.2671 243.768 68.2671Z" fill="#1B3ECD"/>
</g>
<path d="M85.8688 80.078C100.174 80.078 111.771 68.4974 111.771 54.2121C111.771 39.9268 100.174 28.3462 85.8688 28.3462C71.5632 28.3462 59.9662 39.9268 59.9662 54.2121C59.9662 68.4974 71.5632 80.078 85.8688 80.078Z" fill="#1B3ECD"/>
<path opacity="0.7" d="M85.8688 80.078C100.174 80.078 111.771 68.4974 111.771 54.2121C111.771 39.9268 100.174 28.3462 85.8688 28.3462C71.5632 28.3462 59.9662 39.9268 59.9662 54.2121C59.9662 68.4974 71.5632 80.078 85.8688 80.078Z" fill="white"/>
<path opacity="0.2" d="M76.8797 34.7241C73.2132 34.7241 69.7832 35.4327 66.708 36.85C62.45 41.4563 59.9662 47.598 59.9662 54.3302C59.9662 68.6214 71.5573 80.1961 85.8688 80.1961C89.5353 80.1961 92.9654 79.4874 96.1588 78.0701C100.299 73.4639 102.901 67.3222 102.901 60.59C102.901 46.2988 91.1912 34.7241 76.8797 34.7241Z" fill="#1B3ECD"/>
<path opacity="0.2" d="M74.3959 41.5744C74.3959 42.8736 73.3315 43.9366 72.0304 43.9366C70.7294 43.9366 69.6649 42.8736 69.6649 41.5744C69.6649 40.2752 70.7294 39.2122 72.0304 39.2122C73.3315 39.2122 74.3959 40.2752 74.3959 41.5744Z" fill="#1B3ECD"/>
<path opacity="0.2" d="M102.191 39.2122C102.191 40.5114 101.126 41.5744 99.8254 41.5744C98.5244 41.5744 97.4599 40.5114 97.4599 39.2122C97.4599 37.913 98.5244 36.85 99.8254 36.85C101.126 36.85 102.191 37.913 102.191 39.2122Z" fill="#1B3ECD"/>
<path opacity="0.2" d="M97.4599 56.1018C97.4599 58.2278 95.6857 59.9994 93.5567 59.9994C91.4278 59.9994 89.6536 58.2278 89.6536 56.1018C89.6536 53.9759 91.4278 52.2042 93.5567 52.2042C95.6857 52.2042 97.4599 53.9759 97.4599 56.1018Z" fill="#1B3ECD"/>
<path opacity="0.2" d="M85.1591 67.086C85.1591 69.9206 82.7936 72.2828 79.9549 72.2828C77.1163 72.2828 74.7508 69.9206 74.7508 67.086C74.7508 64.2514 77.1163 61.8892 79.9549 61.8892C82.7936 61.8892 85.1591 64.2514 85.1591 67.086Z" fill="#1B3ECD"/>
<path d="M389.402 330.956C392.284 318.768 384.726 306.554 372.52 303.676C360.315 300.798 348.083 308.346 345.201 320.534C342.319 332.723 349.877 344.937 362.083 347.815C374.289 350.693 386.52 343.145 389.402 330.956Z" fill="#1B3ECD"/>
<path opacity="0.3" d="M389.402 330.956C392.284 318.768 384.726 306.554 372.52 303.676C360.315 300.798 348.083 308.346 345.201 320.534C342.319 332.723 349.877 344.937 362.083 347.815C374.289 350.693 386.52 343.145 389.402 330.956Z" fill="white"/>
<path opacity="0.4" d="M381.678 308.147C379.668 307.556 377.42 307.202 375.173 307.202C362.636 307.202 352.464 317.359 352.464 329.879C352.464 336.965 355.776 343.343 360.862 347.477C362.872 348.068 365.12 348.422 367.367 348.422C379.904 348.422 390.076 338.265 390.076 325.745C390.076 318.659 386.764 312.281 381.678 308.147Z" fill="#1B3ECD"/>
<path d="M345.604 332.477C321.357 343.934 339.454 352.674 373.636 340.391C405.334 329.052 417.398 314.643 389.13 319.131C390.549 325.155 350.808 340.627 345.604 332.477Z" fill="#1B3ECD"/>
<path d="M89.6536 273.659V241.179H18.6877V213.778L84.2129 129.211H121.352V215.667H140.276L137.083 241.061H121.352V273.541H89.6536V273.659ZM89.6536 190.156C89.6536 174.565 89.6536 165.825 90.3633 156.731C84.0946 168.778 63.7511 196.297 48.9665 215.904H89.7719V190.156H89.6536Z" fill="#1B3ECD"/>
<path d="M212.188 126.731C167.006 126.731 151.157 161.928 151.157 201.494C151.157 225.825 156.48 248.265 171.028 262.084C180.372 270.942 193.5 276.257 211.478 276.257C215.145 276.257 218.575 276.021 221.769 275.667C260.09 270.706 271.681 237.163 271.681 200.667C271.799 159.684 255.95 126.731 212.188 126.731ZM211.952 251.336C203.199 251.336 197.404 247.675 193.619 241.651C187.705 232.321 186.404 217.321 186.404 201.14C186.404 169.841 192.199 151.77 212.188 151.77C232.65 151.77 236.317 172.794 236.317 200.786C236.317 205.982 236.198 210.943 235.962 215.667C234.779 236.573 229.575 251.336 211.952 251.336Z" fill="#1B3ECD"/>
<path d="M356.84 273.659V241.179H285.874V213.778L351.4 129.211H388.538V215.667H407.463L404.269 241.061H388.538V273.541H356.84V273.659ZM356.84 190.156C356.84 174.565 356.84 165.825 357.55 156.731C351.281 168.778 330.938 196.297 316.153 215.904H356.959V190.156H356.84Z" fill="#1B3ECD"/>
<path opacity="0.2" d="M381.442 129.211C349.625 150.707 308.465 173.03 297.111 241.179H294.745C305.745 173.857 345.486 150.707 377.302 129.211H381.442Z" fill="black"/>
<path d="M216.919 339.918C196.812 339.918 176.942 330.824 167.243 316.06C161.211 306.966 154.351 287.714 175.049 262.202L176.942 263.738C162.275 281.808 159.673 299.997 169.372 314.761C181.2 332.832 209.113 341.926 232.887 335.43C257.251 328.816 272.154 307.556 273.574 277.32C278.423 173.62 333.658 141.613 373.872 118.345C398.947 103.818 417.043 93.4243 413.022 71.3379C412.43 68.2671 411.248 66.1411 409.237 64.8419C404.033 61.4167 393.979 63.7789 382.388 66.4954C359.561 71.8103 328.336 79.1331 309.648 47.4799L311.659 46.2988C329.4 76.4166 358.496 69.6844 381.797 64.2514C393.979 61.4167 404.506 58.9364 410.42 62.9522C412.903 64.6057 414.559 67.2041 415.151 70.9836C419.409 94.7235 399.775 106.062 374.818 120.471C334.959 143.503 280.434 175.156 275.584 277.557C274.047 308.974 258.671 330.942 233.241 337.91C228.037 339.328 222.478 339.918 216.919 339.918Z" fill="#1B3ECD"/>
<path opacity="0.2" d="M216.919 339.918C196.812 339.918 176.942 330.824 167.243 316.06C161.211 306.966 154.351 287.714 175.049 262.202L176.942 263.738C162.275 281.808 159.673 299.997 169.372 314.761C181.2 332.832 209.113 341.926 232.887 335.43C257.251 328.816 272.154 307.556 273.574 277.32C278.423 173.62 333.658 141.613 373.872 118.345C398.947 103.818 417.043 93.4243 413.022 71.3379C412.43 68.2671 411.248 66.1411 409.237 64.8419C404.033 61.4167 393.979 63.7789 382.388 66.4954C359.561 71.8103 328.336 79.1331 309.648 47.4799L311.659 46.2988C329.4 76.4166 358.496 69.6844 381.797 64.2514C393.979 61.4167 404.506 58.9364 410.42 62.9522C412.903 64.6057 414.559 67.2041 415.151 70.9836C419.409 94.7235 399.775 106.062 374.818 120.471C334.959 143.503 280.434 175.156 275.584 277.557C274.047 308.974 258.671 330.942 233.241 337.91C228.037 339.328 222.478 339.918 216.919 339.918Z" fill="white"/>
<path d="M285.165 19.488C293.326 19.3699 301.25 21.9683 301.25 21.9683C301.25 21.9683 314.261 44.1728 315.798 49.2515C315.207 54.2121 306.809 62.4797 306.809 62.4797L285.165 19.488Z" fill="#1B3ECD"/>
<path opacity="0.3" d="M285.165 19.488C293.326 19.3699 301.25 21.9683 301.25 21.9683C301.25 21.9683 314.261 44.1728 315.798 49.2515C315.207 54.2121 306.809 62.4797 306.809 62.4797L285.165 19.488Z" fill="white"/>
<path d="M323.723 127.204C318.874 121.062 314.024 114.684 310.003 107.834C309.057 106.18 308.11 104.408 307.164 102.637C306.691 101.692 306.218 100.629 305.745 99.566C305.272 98.6211 304.444 97.3219 304.326 96.377C302.906 81.3772 307.992 70.393 303.143 58.3459L283.627 65.9049C283.627 65.9049 285.283 87.2826 289.068 100.157C291.433 108.07 296.756 114.92 301.842 121.298C303.498 123.306 305.035 125.314 306.573 127.322C308.11 129.211 309.766 130.983 311.304 132.873C313.551 135.707 314.379 138.424 312.605 141.849C312.487 142.085 312.368 142.203 312.368 142.44C311.895 143.266 314.142 144.329 315.68 142.44C318.046 139.369 317.691 139.605 319.82 137.007C321.121 135.471 322.54 133.7 323.723 132.282C324.906 130.747 324.906 128.739 323.723 127.204Z" fill="#1B3ECD"/>
<path opacity="0.7" d="M323.723 127.204C318.874 121.062 314.024 114.684 310.003 107.834C309.057 106.18 308.11 104.408 307.164 102.637C306.691 101.692 306.218 100.629 305.745 99.566C305.272 98.6211 304.444 97.3219 304.326 96.377C302.906 81.3772 307.992 70.393 303.143 58.3459L283.627 65.9049C283.627 65.9049 285.283 87.2826 289.068 100.157C291.433 108.07 296.756 114.92 301.842 121.298C303.498 123.306 305.035 125.314 306.573 127.322C308.11 129.211 309.766 130.983 311.304 132.873C313.551 135.707 314.379 138.424 312.605 141.849C312.487 142.085 312.368 142.203 312.368 142.44C311.895 143.266 314.142 144.329 315.68 142.44C318.046 139.369 317.691 139.605 319.82 137.007C321.121 135.471 322.54 133.7 323.723 132.282C324.906 130.747 324.906 128.739 323.723 127.204Z" fill="white"/>
<path opacity="0.3" d="M318.992 121.062C316.39 124.251 311.067 128.267 308.702 129.92C309.175 130.511 309.766 131.101 310.239 131.692C315.089 128.503 318.874 124.487 320.293 122.833C319.82 122.243 319.347 121.652 318.992 121.062Z" fill="#1B3ECD"/>
<path opacity="0.3" d="M323.723 127.204C323.723 127.085 323.605 127.085 323.605 127.085C322.777 127.912 322.185 129.329 322.067 130.865C321.949 131.928 322.185 132.873 322.54 133.7C322.895 133.227 323.25 132.755 323.605 132.4C324.906 130.747 324.906 128.739 323.723 127.204Z" fill="#1B3ECD"/>
<path d="M280.552 33.6611C278.541 36.6138 276.057 39.5666 272.982 42.165C271.445 43.4642 269.67 44.6452 267.778 45.7082C266.832 46.1807 265.767 46.6531 264.703 47.0074L263.875 47.2436L263.638 47.3618C263.402 47.3618 263.284 47.4799 263.047 47.4799C262.692 47.598 262.337 47.598 261.983 47.598C260.681 47.7161 259.735 47.4799 259.026 47.3618C257.488 47.0074 256.542 46.4169 255.596 45.8263C254.649 45.2358 253.821 44.7634 252.994 44.1728C251.456 42.9917 250.037 41.8106 248.736 40.6295C246.133 38.1492 243.768 35.5508 241.639 32.7162C240.693 31.417 240.929 29.5273 242.23 28.5824C243.295 27.8737 244.596 27.7556 245.542 28.4643H245.66C248.499 30.2359 251.219 32.1257 254.058 33.7792C255.477 34.606 256.778 35.4327 258.079 36.0233C258.789 36.3776 259.38 36.6138 259.972 36.85C260.563 37.0863 261.155 37.2044 261.273 37.2044C261.391 37.2044 261.273 37.0863 260.8 37.0863C260.681 37.0863 260.563 37.0863 260.445 37.0863C260.327 37.0863 260.327 37.0863 260.208 37.2044L260.563 36.9681C261.036 36.7319 261.628 36.3776 262.101 36.0233C263.165 35.3146 264.112 34.4879 265.058 33.543C266.95 31.6532 268.843 29.1729 270.853 26.6927C272.864 24.0943 276.649 23.7399 279.133 25.7478C281.853 27.6375 282.326 31.1808 280.552 33.6611Z" fill="#1B3ECD"/>
<path opacity="0.7" d="M280.552 33.6611C278.541 36.6138 276.057 39.5666 272.982 42.165C271.445 43.4642 269.67 44.6452 267.778 45.7082C266.832 46.1807 265.767 46.6531 264.703 47.0074L263.875 47.2436L263.638 47.3618C263.402 47.3618 263.284 47.4799 263.047 47.4799C262.692 47.598 262.337 47.598 261.983 47.598C260.681 47.7161 259.735 47.4799 259.026 47.3618C257.488 47.0074 256.542 46.4169 255.596 45.8263C254.649 45.2358 253.821 44.7634 252.994 44.1728C251.456 42.9917 250.037 41.8106 248.736 40.6295C246.133 38.1492 243.768 35.5508 241.639 32.7162C240.693 31.417 240.929 29.5273 242.23 28.5824C243.295 27.8737 244.596 27.7556 245.542 28.4643H245.66C248.499 30.2359 251.219 32.1257 254.058 33.7792C255.477 34.606 256.778 35.4327 258.079 36.0233C258.789 36.3776 259.38 36.6138 259.972 36.85C260.563 37.0863 261.155 37.2044 261.273 37.2044C261.391 37.2044 261.273 37.0863 260.8 37.0863C260.681 37.0863 260.563 37.0863 260.445 37.0863C260.327 37.0863 260.327 37.0863 260.208 37.2044L260.563 36.9681C261.036 36.7319 261.628 36.3776 262.101 36.0233C263.165 35.3146 264.112 34.4879 265.058 33.543C266.95 31.6532 268.843 29.1729 270.853 26.6927C272.864 24.0943 276.649 23.7399 279.133 25.7478C281.853 27.6375 282.326 31.1808 280.552 33.6611Z" fill="white"/>
<path d="M237.263 25.984L238.682 28.3462C238.682 28.3462 239.747 31.417 241.876 32.0076L247.671 30.1178L247.435 29.6454C246.725 28.5824 246.725 26.3383 247.08 24.5667C247.316 22.795 246.37 22.6769 245.66 23.1494C245.306 23.3856 244.951 24.2124 244.714 25.1572C244.478 24.8029 244.123 24.4486 243.768 24.0943L241.994 22.3226C241.284 21.614 239.983 21.4958 239.273 22.2045L237.854 23.5037C237.026 24.0943 236.79 25.1572 237.263 25.984Z" fill="#1B3ECD"/>
<path opacity="0.7" d="M237.263 25.984L238.682 28.3462C238.682 28.3462 239.747 31.417 241.876 32.0076L247.671 30.1178L247.435 29.6454C246.725 28.5824 246.725 26.3383 247.08 24.5667C247.316 22.795 246.37 22.6769 245.66 23.1494C245.306 23.3856 244.951 24.2124 244.714 25.1572C244.478 24.8029 244.123 24.4486 243.768 24.0943L241.994 22.3226C241.284 21.614 239.983 21.4958 239.273 22.2045L237.854 23.5037C237.026 24.0943 236.79 25.1572 237.263 25.984Z" fill="white"/>
<path d="M290.96 17.4801C285.52 18.7793 277.95 21.9683 272.864 25.1572C271.09 26.3383 270.144 28.4643 270.617 30.4721C272.864 41.5744 278.068 56.5743 283.745 66.023L309.885 55.2751C310.121 50.6688 303.734 35.7871 297.229 21.3777C295.928 18.7793 293.799 16.7715 290.96 17.4801Z" fill="#1B3ECD"/>
<path opacity="0.8" d="M290.96 17.4801C285.52 18.7793 277.95 21.9683 272.864 25.1572C271.09 26.3383 270.144 28.4643 270.617 30.4721C272.864 41.5744 278.068 56.5743 283.745 66.023L309.885 55.2751C310.121 50.6688 303.734 35.7871 297.229 21.3777C295.928 18.7793 293.799 16.7715 290.96 17.4801Z" fill="white"/>
<path opacity="0.3" d="M301.25 30.4721L296.046 28.7005C297.229 31.7713 301.369 35.5508 304.326 37.7949C303.379 35.4327 302.315 32.9524 301.25 30.4721Z" fill="#1B3ECD"/>
<path d="M289.304 5.78733C287.175 1.65351 282.444 -0.354344 276.885 0.118093C272.154 0.472421 268.015 5.3149 268.488 7.9133C268.961 10.5117 272.982 11.5747 273.692 12.5196L270.38 14.8817C268.724 16.0628 268.369 18.3069 269.671 19.9604C271.09 21.7321 272.864 23.5037 273.928 24.8029C283.036 24.5667 289.659 21.1415 292.143 17.8345C291.197 13.5825 291.433 9.92115 289.304 5.78733Z" fill="#1B3ECD"/>
<path opacity="0.8" d="M289.304 5.78733C287.175 1.65351 282.444 -0.354344 276.885 0.118093C272.154 0.472421 268.015 5.3149 268.488 7.9133C268.961 10.5117 272.982 11.5747 273.692 12.5196L270.38 14.8817C268.724 16.0628 268.369 18.3069 269.671 19.9604C271.09 21.7321 272.864 23.5037 273.928 24.8029C283.036 24.5667 289.659 21.1415 292.143 17.8345C291.197 13.5825 291.433 9.92115 289.304 5.78733Z" fill="white"/>
<path d="M284.81 8.26765C286.584 12.8739 284.337 18.0707 279.724 19.8424C275.111 21.614 269.907 19.3699 268.133 14.7637C266.359 10.1574 268.606 4.9606 273.219 3.18896C277.832 1.41732 283.036 3.77951 284.81 8.26765Z" fill="#263238"/>
<path d="M361.571 114.802C361.453 110.904 361.217 111.259 361.217 107.952C361.098 105.944 361.098 103.7 361.098 101.81C361.098 99.9203 359.797 98.2668 357.905 97.9125C356.367 97.5582 354.711 97.3219 353.174 96.9676C351.163 96.4952 349.152 96.0228 347.142 95.4322C345.604 94.9598 344.066 94.4873 342.529 93.8968C340.873 93.3062 339.335 92.7157 337.68 92.007C335.787 91.1803 334.013 90.3535 332.121 89.5267C330.11 88.5819 328.099 87.5189 326.088 86.4559C318.282 73.582 318.164 65.0782 309.766 55.157L291.788 63.3065C291.788 63.3065 304.917 86.6921 313.906 96.4952C319.11 102.164 327.153 104.763 334.368 106.653C339.572 107.952 344.894 109.015 350.217 109.96C352.228 110.314 354.475 110.432 356.249 111.731C357.668 112.676 358.378 114.212 358.733 115.865C358.851 116.219 358.851 116.574 358.969 116.81C359.324 117.873 361.69 117.164 361.571 114.802Z" fill="#1B3ECD"/>
<path opacity="0.8" d="M361.571 114.802C361.453 110.904 361.217 111.259 361.217 107.952C361.098 105.944 361.098 103.7 361.098 101.81C361.098 99.9203 359.797 98.2668 357.905 97.9125C356.367 97.5582 354.711 97.3219 353.174 96.9676C351.163 96.4952 349.152 96.0228 347.142 95.4322C345.604 94.9598 344.066 94.4873 342.529 93.8968C340.873 93.3062 339.335 92.7157 337.68 92.007C335.787 91.1803 334.013 90.3535 332.121 89.5267C330.11 88.5819 328.099 87.5189 326.088 86.4559C318.282 73.582 318.164 65.0782 309.766 55.157L291.788 63.3065C291.788 63.3065 304.917 86.6921 313.906 96.4952C319.11 102.164 327.153 104.763 334.368 106.653C339.572 107.952 344.894 109.015 350.217 109.96C352.228 110.314 354.475 110.432 356.249 111.731C357.668 112.676 358.378 114.212 358.733 115.865C358.851 116.219 358.851 116.574 358.969 116.81C359.324 117.873 361.69 117.164 361.571 114.802Z" fill="white"/>
<path opacity="0.3" d="M352.582 96.8495C351.873 96.7314 351.163 96.4952 350.453 96.3771C350.453 100.511 348.561 107.479 347.851 109.605C348.561 109.723 349.389 109.842 350.099 110.078C352.109 104.408 352.464 98.503 352.582 96.8495Z" fill="#1B3ECD"/>
<path opacity="0.3" d="M361.098 101.81C361.098 99.9203 359.797 98.2668 357.905 97.9125C357.55 97.7944 357.195 97.7944 356.722 97.6763C356.84 98.7393 357.55 100.038 358.614 101.101C359.324 101.81 360.27 102.283 360.98 102.401C361.098 102.283 361.098 102.046 361.098 101.81Z" fill="#1B3ECD"/>
<path d="M283.154 8.38574C283.627 10.1574 281.616 12.0471 279.961 10.5117C278.66 9.2125 276.649 7.20465 275.111 6.14167C273.455 5.07868 275.703 3.30705 278.305 4.0157C280.67 4.72436 282.681 6.6141 283.154 8.38574Z" fill="white"/>
<path d="M283.272 65.4325C282.444 65.7868 283.982 67.2041 283.982 67.2041C283.982 67.2041 300.541 61.5349 310.594 55.7475C310.712 54.5664 309.766 53.8578 309.766 53.8578C309.766 53.8578 297.465 60.2357 283.272 65.4325Z" fill="#1B3ECD"/>
<path opacity="0.5" d="M283.272 65.4325C282.444 65.7868 283.982 67.2041 283.982 67.2041C283.982 67.2041 300.541 61.5349 310.594 55.7475C310.712 54.5664 309.766 53.8578 309.766 53.8578C309.766 53.8578 297.465 60.2357 283.272 65.4325Z" fill="white"/>
<path d="M295.455 16.6534C298.767 18.3069 301.842 20.0786 304.799 21.9683C306.336 22.9132 307.874 23.8581 309.293 24.921C310.831 25.984 312.25 27.047 313.788 28.3462L314.379 28.8186L315.089 29.4092C315.562 29.8816 315.917 30.2359 316.271 30.7084C316.626 31.1808 316.981 31.5351 317.336 31.8895C317.691 32.2438 317.927 32.7162 318.282 33.0706C319.465 34.606 320.411 36.2595 321.357 37.7949C323.132 40.9839 324.787 44.1728 326.088 47.598C326.68 49.1334 325.852 50.905 324.314 51.3775C323.132 51.8499 321.949 51.4956 321.121 50.6688V50.5507C318.755 48.0704 316.508 45.3539 314.142 42.8736C311.895 40.3933 309.53 37.913 307.637 36.8501C304.917 35.1965 301.96 33.543 299.003 31.8895L290.014 26.9289C287.175 25.3935 286.111 21.7321 287.767 18.8975C289.186 16.2991 292.616 15.2361 295.455 16.6534Z" fill="#1B3ECD"/>
<path opacity="0.8" d="M295.455 16.6534C298.767 18.3069 301.842 20.0786 304.799 21.9683C306.336 22.9132 307.874 23.8581 309.293 24.921C310.831 25.984 312.25 27.047 313.788 28.3462L314.379 28.8186L315.089 29.4092C315.562 29.8816 315.917 30.2359 316.271 30.7084C316.626 31.1808 316.981 31.5351 317.336 31.8895C317.691 32.2438 317.927 32.7162 318.282 33.0706C319.465 34.606 320.411 36.2595 321.357 37.7949C323.132 40.9839 324.787 44.1728 326.088 47.598C326.68 49.1334 325.852 50.905 324.314 51.3775C323.132 51.8499 321.949 51.4956 321.121 50.6688V50.5507C318.755 48.0704 316.508 45.3539 314.142 42.8736C311.895 40.3933 309.53 37.913 307.637 36.8501C304.917 35.1965 301.96 33.543 299.003 31.8895L290.014 26.9289C287.175 25.3935 286.111 21.7321 287.767 18.8975C289.186 16.2991 292.616 15.2361 295.455 16.6534Z" fill="white"/>
<path d="M328.927 53.5035L327.981 51.0232C327.981 51.0232 327.389 47.8342 325.379 46.8893L319.465 47.8342L319.701 48.3067C320.293 49.4877 319.82 51.6137 319.347 53.3853C318.755 55.157 319.701 55.2751 320.529 55.0389C321.003 54.8027 321.357 54.094 321.83 53.2672C322.067 53.7397 322.304 54.094 322.54 54.4483L323.959 56.4562C324.551 57.2829 325.734 57.5192 326.68 56.9286L328.336 55.8656C328.927 55.3932 329.282 54.4483 328.927 53.5035Z" fill="#1B3ECD"/>
<path opacity="0.8" d="M328.927 53.5035L327.981 51.0232C327.981 51.0232 327.389 47.8342 325.379 46.8893L319.465 47.8342L319.701 48.3067C320.293 49.4877 319.82 51.6137 319.347 53.3853C318.755 55.157 319.701 55.2751 320.529 55.0389C321.003 54.8027 321.357 54.094 321.83 53.2672C322.067 53.7397 322.304 54.094 322.54 54.4483L323.959 56.4562C324.551 57.2829 325.734 57.5192 326.68 56.9286L328.336 55.8656C328.927 55.3932 329.282 54.4483 328.927 53.5035Z" fill="white"/>
<path opacity="0.3" d="M290.487 30.2359L289.068 30.354L280.197 51.7318C280.67 51.7318 281.143 51.7318 281.616 51.6137C281.616 51.6137 293.208 47.3617 296.638 45.7082C294.272 40.8657 290.487 30.2359 290.487 30.2359Z" fill="#1B3ECD"/>
<path d="M274.283 35.9051C274.756 39.8027 277.713 47.9523 280.197 51.7318C284.573 50.1963 291.788 47.4798 295.218 45.8263C292.853 40.9838 290.369 34.2516 289.068 30.354C285.283 30.5902 277.24 33.6611 274.283 35.9051Z" fill="white"/>
<path opacity="0.3" d="M283.154 40.5114C282.681 42.165 281.025 42.9917 279.369 42.5193C277.713 42.0468 276.885 40.3933 277.358 38.7398C277.832 37.0863 279.487 36.2595 281.143 36.7319C282.681 37.2044 283.627 38.8579 283.154 40.5114Z" fill="#1B3ECD"/>
<path opacity="0.6" d="M285.401 36.3776C285.283 36.85 284.692 37.2043 284.1 37.0862C283.627 36.9681 283.272 36.3776 283.391 35.787C283.509 35.3146 284.1 34.9603 284.692 35.0784C285.283 35.3146 285.52 35.9051 285.401 36.3776Z" fill="#1B3ECD"/>
<path opacity="0.6" d="M288.003 35.4327C287.885 35.9051 287.294 36.2595 286.702 36.1413C286.229 36.0232 285.874 35.4327 285.993 34.8421C286.111 34.3697 286.702 34.0154 287.294 34.1335C287.885 34.3697 288.122 34.8421 288.003 35.4327Z" fill="#1B3ECD"/>
<path opacity="0.5" d="M291.67 44.6452L280.788 48.8971L280.079 46.7712L291.079 42.4011L291.67 44.6452Z" fill="#1B3ECD"/>
<path d="M72.9766 271.061C79.6001 277.675 93.675 291.73 93.675 291.73L151.631 237.163C131.76 229.722 92.8471 251.336 72.9766 271.061Z" fill="#263238"/>
<path d="M145.244 343.225C138.62 336.611 124.545 322.556 124.545 322.556L179.189 264.683C186.759 284.525 164.996 323.383 145.244 343.225Z" fill="#263238"/>
<path opacity="0.2" d="M265.886 200.313L243.295 243.777C237.381 255.234 230.166 265.982 221.768 275.667C218.575 276.139 215.027 276.257 211.478 276.257C193.5 276.257 180.372 270.942 171.028 262.084L183.92 249.919C186.995 246.966 190.189 244.25 193.5 241.533C197.285 247.557 203.199 251.218 211.833 251.218C229.575 251.218 234.661 236.573 235.962 215.667L265.886 200.313Z" fill="black"/>
<path d="M224.489 212.951L247.08 169.487L203.436 192.045C189.479 199.25 176.587 208.463 165.114 219.211L90.9547 289.013L127.384 325.391L197.285 251.336C208.048 239.762 217.156 226.888 224.489 212.951Z" fill="#1B3ECD"/>
<path opacity="0.6" d="M224.489 212.951L247.08 169.487L203.436 192.045C189.479 199.25 176.587 208.463 165.114 219.211L90.9547 289.013L127.384 325.391L197.285 251.336C208.048 239.762 217.156 226.888 224.489 212.951Z" fill="white"/>
<path d="M178.124 253.58C186.551 253.58 193.382 246.759 193.382 238.344C193.382 229.93 186.551 223.108 178.124 223.108C169.698 223.108 162.867 229.93 162.867 238.344C162.867 246.759 169.698 253.58 178.124 253.58Z" fill="white"/>
<path d="M178.124 248.147C183.546 248.147 187.941 243.758 187.941 238.344C187.941 232.93 183.546 228.541 178.124 228.541C172.703 228.541 168.308 232.93 168.308 238.344C168.308 243.758 172.703 248.147 178.124 248.147Z" fill="#1B3ECD"/>
<path opacity="0.3" d="M139.685 312.281L103.965 276.612L133.179 249.092L167.243 283.108L139.685 312.281Z" fill="#1B3ECD"/>
<path d="M81.1377 303.777C54.4072 305.903 45.5365 323.029 42.4613 345.706C40.9237 357.28 40.214 368.973 30.5153 375.823C27.795 377.713 29.096 381.847 32.4078 381.847C68.2456 380.784 85.0408 363.186 87.1698 355.863C86.4601 360.469 85.3957 364.131 84.2129 367.083C83.0301 370.036 86.2236 372.753 88.9439 371.099C98.9975 364.839 111.653 353.146 112.481 334.367C105.148 323.855 81.1377 303.777 81.1377 303.777Z" fill="#1B3ECD"/>
<path opacity="0.2" d="M81.1377 303.777C54.4072 305.903 45.5365 323.029 42.4613 345.706C40.9237 357.28 40.214 368.973 30.5153 375.823C27.795 377.713 29.096 381.847 32.4078 381.847C68.2456 380.784 85.0408 363.186 87.1698 355.863C86.4601 360.469 85.3957 364.131 84.2129 367.083C83.0301 370.036 86.2236 372.753 88.9439 371.099C98.9975 364.839 111.653 353.146 112.481 334.367C105.148 323.855 81.1377 303.777 81.1377 303.777Z" fill="white"/>
<path d="M116.621 342.398L73.8046 299.643L96.6319 294.682L121.588 319.603L116.621 342.398Z" fill="#1B3ECD"/>
</g>
<defs>
<clipPath id="clip0_63_1858">
<rect width="420" height="383.973" fill="white"/>
</clipPath>
</defs>
</svg>
