<svg width="81" height="80" viewBox="0 0 81 80" fill="none" xmlns="http://www.w3.org/2000/svg">
<path d="M36.4747 80.0002C36.2041 79.6254 35.7461 79.6879 35.3713 79.5005C33.2894 78.4388 32.2901 76.7108 32.2693 74.3999C32.2485 72.2139 32.2485 70.0279 32.2693 67.8211C32.2693 67.4464 32.186 67.2174 31.8529 66.9883C30.3332 65.9266 29.6253 64.4068 29.6045 62.5747C29.5837 61.4089 29.6045 60.243 29.6045 58.8898C28.9591 59.556 28.4386 60.0765 27.9182 60.5969C26.9813 61.5338 26.5441 61.5754 25.4199 60.8051C24.5039 60.1806 23.567 59.5352 22.651 58.8898C22.2971 58.64 22.1513 58.64 22.068 59.1188C21.8599 60.3263 21.5684 61.513 21.3186 62.6997C21.1104 63.6365 20.694 63.9904 19.7363 63.9904C18.1125 64.0112 16.5094 64.0112 14.8855 63.9904C13.9487 63.9904 13.5115 63.6365 13.3033 62.6997C13.0326 61.513 12.762 60.3055 12.5538 59.1188C12.4705 58.6608 12.3456 58.5983 11.9709 58.869C10.9924 59.556 10.0139 60.243 9.01459 60.9092C8.09856 61.5338 7.5989 61.4713 6.80778 60.701C5.62111 59.5352 4.43443 58.3485 3.26857 57.1618C2.53991 56.4123 2.49827 55.9127 3.0812 55.0175C3.7474 54.0182 4.43443 53.0397 5.12145 52.0612C5.37128 51.7073 5.3921 51.5615 4.89244 51.4782C3.70577 51.2701 2.53991 50.9994 1.37405 50.7288C0.333103 50.4998 0 50.1042 0 49.0633C0 47.481 0 45.878 0 44.2957C0 43.3589 0.353921 42.9217 1.26995 42.7135C2.45663 42.4428 3.66413 42.1722 4.85081 41.964C5.32964 41.8807 5.35046 41.7558 5.07981 41.3811C4.39279 40.4234 3.7474 39.4657 3.0812 38.4872C2.43581 37.5296 2.45663 37.0299 3.26857 36.218C4.43443 35.0521 5.57947 33.8863 6.74533 32.7412C7.55726 31.9293 8.0361 31.9085 9.01459 32.5538C9.97226 33.22 10.9507 33.8654 11.9084 34.5525C12.2415 34.8023 12.4081 34.8231 12.5122 34.3234C12.7412 33.1159 13.0326 31.9293 13.2616 30.7426C13.4074 29.9931 13.8029 29.4935 14.5941 29.4518C14.948 29.431 15.0104 29.3061 15.0313 28.9938C15.635 22.2693 18.3831 16.5649 23.4005 12.0056C27.127 8.63289 31.499 6.59263 36.4747 5.84315C38.3901 5.55168 40.3054 5.51005 42.2416 5.6766C42.658 5.71824 42.9911 5.59332 43.3033 5.3435C44.3443 4.53156 45.4269 3.74044 46.4886 2.94932C47.4879 2.22066 48.1333 2.30393 48.8828 3.2616C49.7988 4.4691 50.6941 5.6766 51.6101 6.8841C51.9848 7.38375 52.422 7.77931 53.109 7.63358C53.8169 7.48785 54.1084 6.96737 54.2124 6.28035C54.4415 4.69811 54.6497 3.13669 54.9203 1.57527C55.0868 0.513503 55.6698 0.138762 56.7315 0.284495C59.0841 0.617598 61.4158 0.97152 63.7683 1.2838C65.184 1.47117 65.6004 2.01247 65.3714 3.44897C65.1632 4.88548 64.955 6.3428 64.7468 7.77931C64.6427 8.4247 64.7468 8.98681 65.3298 9.34073C65.9543 9.73629 66.5164 9.50728 67.0577 9.0909C68.2652 8.17487 69.4727 7.27966 70.6802 6.36362C71.6795 5.63496 72.3249 5.71824 73.0744 6.69673C74.5109 8.61207 75.9474 10.5274 77.3839 12.4428C78.1542 13.4837 78.0709 14.0874 77.03 14.8786C75.8433 15.7738 74.6566 16.669 73.4699 17.5434C72.9078 17.9598 72.5331 18.4594 72.7413 19.2089C72.9495 19.9167 73.5116 20.1249 74.1778 20.2082C75.6768 20.4164 77.1757 20.6454 78.6747 20.8328C79.3825 20.9161 79.8405 21.2908 80.132 21.9154C80.132 22.3317 80.132 22.7481 80.132 23.1645C79.6948 24.2471 79.7364 25.4338 79.5282 26.5788C79.3201 27.7238 79.1951 28.8897 79.0286 30.0556C78.8829 31.0965 78.2583 31.5337 77.2173 31.388C75.6768 31.159 74.1153 30.9508 72.5747 30.7218C71.9293 30.6177 71.3672 30.7218 71.0133 31.3255C70.6594 31.9293 70.8051 32.4706 71.2007 32.991C72.1375 34.2194 73.0536 35.4477 73.9696 36.676C74.7191 37.6753 74.6358 38.3207 73.6365 39.0702C71.7003 40.5275 69.7642 41.9848 67.828 43.4213C66.8704 44.1292 66.2041 44.0459 65.4963 43.109C64.5803 41.9015 63.6642 40.694 62.769 39.4865C62.3735 38.9453 61.8946 38.5497 61.1868 38.7162C60.4373 38.8828 60.2083 39.4865 60.1042 40.1736C59.896 41.6934 59.6878 43.2131 59.4588 44.7329C59.3131 45.753 58.751 46.1902 57.7309 46.0445C55.2742 45.7114 52.8176 45.3783 50.3818 45.0036C49.1743 44.8162 48.7995 44.3165 48.9661 43.1299C49.1535 41.7142 49.3616 40.2985 49.5698 38.8828C49.6323 38.3623 49.7364 37.8419 49.4241 37.363C48.9661 36.676 48.175 36.5927 47.363 37.1548C46.1347 38.05 44.948 38.9661 43.7405 39.8613C42.658 40.6524 42.0334 40.5691 41.2423 39.5282C39.8058 37.6337 38.3901 35.7391 36.9744 33.8446C36.1833 32.7828 36.2874 32.1583 37.3699 31.3463C38.5566 30.4511 39.7433 29.5559 40.93 28.6815C41.4921 28.2651 41.8044 27.7655 41.617 27.0785C41.4296 26.4331 40.9092 26.1832 40.2638 26.1C38.7856 25.9126 37.3283 25.6836 35.8502 25.4754C34.5386 25.288 34.1222 24.7884 34.3096 23.456C34.6427 21.0618 34.9966 18.6676 35.3505 16.2734C35.5171 15.1492 36.1 14.7537 37.2034 14.8994C38.744 15.1284 40.3054 15.3366 41.846 15.5864C42.4706 15.6905 42.9911 15.5448 43.345 15.0035C43.7197 14.4205 43.5948 13.8584 43.1992 13.338C42.2832 12.1305 41.388 10.923 40.472 9.71547C40.3054 9.48646 40.0556 9.23664 40.0348 8.98681C40.014 8.02914 39.3894 8.17487 38.7856 8.23733C29.2922 9.0909 22.5261 13.8793 19.0493 22.7273C16.093 30.2846 17.2797 37.5504 22.0264 44.1916C23.567 46.336 25.4823 48.0848 27.6892 49.5213C29.6461 50.7912 31.1451 52.4151 31.8529 54.7052C32.1444 55.642 32.2693 56.5789 32.2693 57.5574C32.2693 59.1813 32.2693 60.7843 32.2693 62.4082C32.2901 64.2611 33.3311 65.3228 35.184 65.3437C38.5774 65.3645 41.9709 65.3645 45.3436 65.3437C47.1965 65.3228 48.1958 64.2611 48.2166 62.3874C48.2166 60.8468 48.2166 59.3062 48.2166 57.7656C48.2374 54.497 49.549 51.8738 52.2347 49.9585C53.1507 49.3131 54.0875 48.6885 54.9203 47.939C55.2118 47.6684 55.3783 47.6684 55.6698 47.9807C57.2312 49.6462 57.252 49.6462 55.3575 50.9994C54.837 51.3742 54.2957 51.7489 53.7544 52.1236C51.8391 53.456 50.9022 55.3298 50.8814 57.6407C50.8606 59.2645 50.8814 60.8676 50.8814 62.4915C50.8814 64.3652 50.1528 65.885 48.6122 66.9675C48.2791 67.1965 48.1958 67.4464 48.2166 67.8003C48.2374 69.9446 48.2374 72.0682 48.2166 74.2125C48.2166 77.2521 46.6968 79.1466 43.7405 79.8336C43.6989 79.8336 43.6781 79.9169 43.6573 79.9585C41.2839 80.0002 38.8897 80.0002 36.4747 80.0002ZM46.218 14.2748C46.218 16.7523 44.1569 18.5843 41.7003 18.2721C40.5969 18.1263 39.4727 17.9806 38.3693 17.7932C37.9737 17.7308 37.8071 17.7724 37.7447 18.2096C37.5573 19.6253 37.3699 21.041 37.1409 22.4567C37.0577 22.9147 37.2034 23.0188 37.6406 23.0812C38.6191 23.1853 39.5976 23.3727 40.5761 23.4976C42.4914 23.7683 43.8238 24.83 44.2194 26.5372C44.6149 28.3276 43.9904 29.7641 42.533 30.8467C41.7836 31.4088 41.0549 32.0125 40.2846 32.533C39.7641 32.8869 39.66 33.1368 40.0972 33.6572C40.8675 34.5733 41.5962 35.5309 42.2624 36.5303C42.6788 37.1548 42.9494 37.2797 43.5948 36.7593C44.5525 35.9681 45.5101 35.1146 46.6344 34.5733C48.0292 33.8863 49.4241 34.032 50.6941 34.948C52.1097 35.989 52.4845 37.4255 52.2555 39.091C52.1097 40.0695 51.964 41.048 51.8391 42.0265C51.7975 42.2971 51.7142 42.5677 52.193 42.6302C53.6087 42.7968 55.0244 43.0049 56.4401 43.234C56.9189 43.3172 57.0855 43.1299 57.1271 42.6927C57.252 41.6309 57.3769 40.5691 57.5643 39.5282C57.8558 37.7586 58.8551 36.5719 60.6039 36.1555C62.3735 35.7391 63.7683 36.3845 64.8301 37.821C65.4547 38.6538 66.0792 39.4865 66.7038 40.3193C66.912 40.6108 67.0577 40.7357 67.4116 40.465C68.5567 39.5698 69.7225 38.6954 70.9092 37.8419C71.2215 37.6128 71.2423 37.4671 71.0133 37.1756C70.3263 36.3221 69.6809 35.4477 69.0355 34.5525C67.9738 33.0743 67.8697 31.3463 68.7649 29.9515C69.6393 28.5358 71.2631 27.8696 73.0328 28.1402C73.928 28.286 74.844 28.3692 75.7392 28.5566C76.4054 28.7023 76.6344 28.4941 76.7177 27.8488C76.8634 26.5372 77.0508 25.2048 77.2798 23.914C77.3631 23.4768 77.2173 23.3935 76.8426 23.3519C75.8641 23.227 74.8856 23.0604 73.9071 22.9355C71.9918 22.6857 70.6386 21.5823 70.2014 19.9376C69.7642 18.3137 70.3887 16.7106 71.8877 15.5656C72.6996 14.941 73.4908 14.3165 74.3235 13.7335C74.6774 13.4837 74.7399 13.3171 74.4484 12.9632C73.574 11.8598 72.7205 10.7356 71.9085 9.59056C71.5962 9.15336 71.4089 9.23664 71.0758 9.50728C70.1181 10.2359 69.1813 10.9854 68.1819 11.6308C66.8495 12.5052 65.413 12.5052 64.039 11.6933C62.6441 10.8605 61.9779 9.59056 62.1236 7.94586C62.2277 6.75918 62.4359 5.5725 62.6025 4.38582C62.6649 4.0319 62.6441 3.84453 62.1861 3.78208C60.7704 3.61552 59.3547 3.40734 57.939 3.17833C57.5643 3.11587 57.3769 3.15751 57.3145 3.59471C57.1896 4.63565 57.023 5.65578 56.8773 6.69673C56.6274 8.50797 55.6698 9.75711 53.9002 10.2151C52.0889 10.694 50.6316 10.0069 49.5282 8.54961C48.9244 7.73767 48.2999 6.92573 47.7169 6.1138C47.4671 5.78069 47.3214 5.69742 46.9466 5.98888C45.8432 6.86328 44.719 7.71685 43.574 8.52879C43.1368 8.84108 43.2201 9.02845 43.4907 9.38237C44.1153 10.1735 44.719 11.0062 45.3228 11.8182C45.8641 12.5052 46.2388 13.3171 46.218 14.2748ZM15.3019 34.5316C15.1978 34.8231 15.1353 34.9897 15.0937 35.1562C14.5108 37.4879 12.6163 38.2166 10.6385 36.8842C9.95144 36.4262 9.2436 35.9473 8.57739 35.4685C8.26511 35.2395 8.07774 35.2395 7.80709 35.5309C7.2658 36.1347 6.68287 36.6968 6.09994 37.2381C5.80848 37.5087 5.80848 37.6961 6.03748 38.0292C6.5996 38.7787 7.14089 39.549 7.64054 40.3401C8.72312 42.0473 7.93201 44.0043 5.95421 44.4831C5.01736 44.7121 4.08051 44.9203 3.12284 45.0868C2.78973 45.1493 2.68564 45.2534 2.70646 45.5865C2.72728 46.3776 2.72728 47.1479 2.70646 47.939C2.70646 48.2721 2.81055 48.3762 3.12284 48.4387C4.01805 48.6052 4.91326 48.8134 5.78766 49.0216C7.99446 49.5213 8.76476 51.4991 7.49481 53.3936C7.01597 54.1014 6.53714 54.8093 6.01667 55.5171C5.78766 55.8294 5.76684 56.0168 6.07912 56.3082C6.68287 56.8495 7.24498 57.4325 7.78627 58.0154C8.05692 58.3069 8.24429 58.3277 8.55657 58.0987C9.30605 57.5366 10.0764 57.0161 10.8675 56.4956C12.5746 55.413 14.5524 56.2041 15.0104 58.1611C15.1978 58.9106 15.3852 59.6809 15.4685 60.4512C15.5517 61.2007 15.8224 61.5546 16.6343 61.4297C17.1964 61.3464 17.7794 61.4089 18.3623 61.4297C18.737 61.4505 18.9036 61.3672 18.966 60.9509C19.1118 60.0556 19.32 59.1604 19.5281 58.286C20.0278 56.1625 21.964 55.3714 23.796 56.5789C24.5663 57.0785 25.3158 57.599 26.0445 58.1403C26.3359 58.3485 26.5233 58.3277 26.7731 58.0779C27.3352 57.4949 27.9182 56.9328 28.4803 56.3499C29.3963 55.4338 29.3963 55.4338 28.7301 54.3513C28.6885 54.2888 28.6468 54.2264 28.6052 54.1639C27.5851 52.4776 25.7738 51.7489 24.3789 50.5206C24.2957 50.6455 24.2124 50.7079 24.1708 50.7912C22.2138 54.3096 17.7377 55.7253 14.0319 54.1431C9.2436 52.082 7.72382 45.524 11.2214 41.6725C12.4705 40.2985 13.9487 39.3408 15.7807 39.0285C16.2179 38.9661 16.3012 38.8203 16.1555 38.3831C15.7807 37.134 15.5309 35.9057 15.3019 34.5316ZM17.6961 52.0404C19.3824 51.9571 20.9855 51.0411 22.0056 49.1465C22.2346 48.7093 22.2138 48.4387 21.8599 48.0639C20.2152 46.336 18.7995 44.4415 17.8002 42.2763C17.4254 41.4643 16.9466 41.3811 16.2179 41.5476C13.5948 42.1306 11.7835 44.5247 12.0125 47.1479C12.2623 49.9585 14.4275 51.9571 17.6961 52.0404ZM40.3262 73.3381C38.7232 73.3381 37.0993 73.3381 35.4962 73.3381C35.2881 73.3381 34.9758 73.2132 34.955 73.588C34.7676 75.5033 35.4338 77.2313 37.6614 77.3145C39.202 77.377 40.7218 77.3354 42.2624 77.3354C44.6566 77.3354 45.6351 76.3152 45.5934 73.8794C45.5934 73.4214 45.4477 73.3173 45.0105 73.3173C43.4491 73.3589 41.8877 73.3381 40.3262 73.3381ZM40.2221 70.6733C41.3255 70.6733 42.4081 70.6941 43.5115 70.6733C44.1777 70.6525 45.0938 70.9648 45.4477 70.5484C45.7808 70.1528 45.531 69.2576 45.5726 68.5914C45.5934 68.1334 45.4477 68.0293 45.0105 68.0293C41.8668 68.0501 38.7024 68.0501 35.5587 68.0293C35.1215 68.0293 34.8717 68.0918 34.9341 68.6122C34.9758 69.1119 34.9758 69.6115 34.9341 70.0904C34.8925 70.59 35.0799 70.6941 35.5379 70.6941C37.0993 70.6733 38.6607 70.6733 40.2221 70.6733Z" fill="white"/>
<path d="M21.5992 30.5964C21.8073 24.3716 24.4722 19.1044 29.9267 15.3362C30.2182 15.128 30.3639 15.0863 30.5513 15.4611C30.8011 15.9399 31.0926 16.3979 31.4257 16.8351C31.738 17.2515 31.5922 17.4181 31.2175 17.6887C27.5534 20.2286 25.3466 23.7262 24.493 28.0982C23.1814 34.8851 26.9913 42.2967 33.2578 45.1697C35.0482 45.9816 36.8802 46.7727 38.2751 48.2301C40.2946 50.3328 41.3771 52.8102 41.5021 55.7249C41.5229 56.0164 41.4396 56.0996 41.1689 56.0788C41.1273 56.0788 41.0649 56.0788 41.0024 56.0788C40.357 56.0788 39.6075 56.2662 39.0662 56.0163C38.4625 55.7457 38.7956 54.8921 38.6499 54.3092C37.9837 51.5403 36.4222 49.5208 33.8199 48.3758C31.1967 47.2308 28.7609 45.8151 26.7831 43.7124C23.452 40.1107 21.7449 35.8428 21.5992 30.5964Z" fill="white"/>
<path d="M65.0288 56.3704C67.5896 58.5147 70.1295 60.6382 72.6902 62.741C72.9608 62.97 72.9608 63.1157 72.7318 63.3655C72.253 63.886 71.8991 64.7396 71.337 64.8853C70.754 65.031 70.2336 64.1775 69.7131 63.7403C67.7353 62.1164 65.7991 60.4717 63.8213 58.8478C63.4466 58.5564 63.3217 58.3482 63.7172 57.9526C64.1753 57.4529 64.5708 56.9117 65.0288 56.3704Z" fill="white"/>
<path d="M70.1934 52.0815C68.8402 52.0815 67.487 52.0606 66.1337 52.0815C65.6757 52.0815 65.5092 51.9982 65.4883 51.4777C65.4675 49.3958 65.4467 49.3958 67.5078 49.3958C69.7146 49.3958 71.9422 49.4166 74.149 49.3958C74.6279 49.3958 74.8777 49.4791 74.7944 50.0204C74.7111 50.6866 75.0859 51.561 74.6278 51.9565C74.2531 52.2896 73.3787 52.0606 72.7333 52.0606C71.9006 52.0815 71.047 52.0815 70.1934 52.0815Z" fill="white"/>
<path d="M60.2027 64.6572C60.2027 66.0312 60.1819 67.4261 60.2027 68.8001C60.2027 69.2373 60.0986 69.4039 59.6406 69.3622C58.9744 69.3206 58.0791 69.5912 57.6836 69.2373C57.2672 68.8834 57.5587 67.9674 57.5587 67.3012C57.5379 65.0944 57.5587 62.8667 57.5379 60.6599C57.5379 60.2019 57.6211 59.9937 58.1416 60.0354C58.6413 60.077 59.1409 60.077 59.6197 60.0354C60.1402 59.9937 60.2235 60.2227 60.2235 60.6807C60.2027 62.0132 60.2027 63.3247 60.2027 64.6572Z" fill="white"/>
<path d="M41.6063 60.6376C41.6063 61.1373 41.5854 61.6369 41.6063 62.1158C41.6271 62.5321 41.5438 62.6987 41.065 62.7195C38.9414 62.782 38.9414 62.8028 38.9414 60.6584C38.9414 60.0339 38.7332 59.2011 39.0455 58.8472C39.4203 58.4308 40.2738 58.7847 40.8984 58.7015C41.4189 58.639 41.6687 58.8056 41.5854 59.3677C41.5646 59.784 41.6063 60.2212 41.6063 60.6376Z" fill="white"/>
<path d="M14.3845 13.8793C13.9265 14.5247 13.4476 15.1909 12.948 15.8155C12.8231 15.9612 12.6565 15.753 12.5524 15.6698C9.6794 13.6087 6.78557 11.5476 3.91256 9.50738C3.66274 9.32001 3.6211 9.17427 3.82929 8.96608C3.87092 8.92445 3.89174 8.88281 3.93338 8.84117C4.32894 8.29988 4.64122 7.4463 5.1617 7.30057C5.70299 7.15484 6.2651 7.92514 6.80639 8.3207C9.20057 10.007 11.5531 11.6934 13.9265 13.4005C14.093 13.5254 14.3637 13.5671 14.3845 13.8793Z" fill="white"/>
<path d="M20.157 10.1525C20.2194 10.4648 20.157 10.5481 20.0113 10.5897C19.928 10.6106 19.8655 10.6314 19.7822 10.673C17.7212 11.3184 17.7212 11.3184 17.1799 9.21568C16.4929 6.53004 15.8058 3.82358 15.098 1.13794C14.9731 0.6591 15.098 0.492549 15.5352 0.409273C16.1806 0.284359 16.9717 -0.152838 17.4505 0.0553512C17.9085 0.263541 17.8461 1.22121 18.0126 1.84578C18.6997 4.5106 19.3867 7.17543 20.0529 9.86107C20.1154 10.0068 20.157 10.1525 20.157 10.1525Z" fill="white"/>
<path d="M11.7314 20.2921C11.8979 20.2296 12.0436 20.2712 12.0645 20.4794C12.0645 20.5211 12.0853 20.5835 12.0853 20.6252C12.7931 22.7487 12.7931 22.7487 10.6279 23.29C7.96313 23.9562 5.27748 24.6016 2.61266 25.2886C2.11301 25.4135 1.90482 25.3719 1.84236 24.8306C1.75908 24.1644 1.19697 23.3941 1.53008 22.9152C1.82154 22.4989 2.71675 22.5197 3.34132 22.3739C5.96451 21.7077 8.56688 21.0624 11.1901 20.3961C11.3774 20.3545 11.5648 20.3129 11.7314 20.2921Z" fill="white"/>
<path d="M67.8115 23.2259C67.7907 29.0969 63.0023 33.8644 57.1522 33.8228C51.3021 33.7811 46.4929 28.9303 46.5554 23.1427C46.6178 17.2509 51.3854 12.5458 57.2355 12.5667C63.0856 12.5667 67.8323 17.355 67.8115 23.2259ZM65.1467 23.1635C65.1467 18.7915 61.5658 15.2107 57.1938 15.2107C52.8427 15.2107 49.241 18.7915 49.1994 23.1427C49.1786 27.473 52.8635 31.1788 57.2147 31.1579C61.5658 31.1371 65.1467 27.5146 65.1467 23.1635Z" fill="white"/>
</svg>
