<svg width="72" height="80" viewBox="0 0 72 80" fill="none" xmlns="http://www.w3.org/2000/svg">
<path d="M0.784939 80C0.252441 79.6241 -0.186087 79.1856 0.0801619 78.4495C0.330749 77.7447 0.925894 77.6194 1.59935 77.6507C2.19449 77.6821 2.8053 77.6194 3.40044 77.6664C3.87029 77.6977 4.02691 77.5724 4.01125 77.0713C3.96426 75.9749 3.99559 74.8786 3.99559 73.798C4.01125 71.0885 5.6244 69.4753 8.31822 69.4597C11.2939 69.4597 14.254 69.4597 17.2297 69.4597C17.8875 69.4597 18.5296 69.5223 19.2188 69.7886C19.2188 68.6766 19.2188 67.6429 19.2188 66.6092C19.2344 64.166 20.8632 62.4902 23.3065 62.4276C24.3245 62.3962 25.3425 62.4119 26.3605 62.4276C26.799 62.4432 27.0496 62.3336 27.2532 61.8951C28.8351 58.5278 30.4325 55.1919 32.03 51.8403C32.1867 51.527 32.265 51.2138 32.2806 50.8692C32.4059 48.1597 32.5469 45.4659 32.6722 42.7565C32.7035 42.0517 32.7818 41.3626 32.9854 40.6735C33.5179 38.8567 34.0191 37.0243 34.5516 35.2075C34.7708 34.4401 35.366 34.1112 36.0238 34.3148C36.6972 34.5184 36.9948 35.1135 36.7912 35.8653C36.4623 37.1182 36.1021 38.3555 35.7105 39.7338C37.5116 38.9977 39.1718 38.3242 40.8476 37.6351C41.0825 37.5411 41.1295 37.3375 41.1921 37.1496C41.7873 35.3485 42.3824 33.5474 42.9776 31.7306C42.8836 31.715 42.8053 31.6836 42.7426 31.6836C42.0849 31.7306 41.5993 31.48 41.4271 30.8536C41.2391 30.2114 41.521 29.7572 42.0849 29.4283C44.5907 27.9092 47.1123 26.3743 49.6181 24.8551C50.7458 24.166 51.9047 23.5082 53.0011 22.7721C54.3793 21.8794 55.1937 20.4385 55.1624 19.029C54.8961 18.982 54.7239 19.1699 54.5202 19.2796C49.8844 21.8011 45.2642 24.3383 40.6127 26.8128C39.673 27.314 39.0621 28.0188 38.7646 29.0055C38.5453 29.7259 38.3417 30.4464 38.1224 31.1668C37.8875 31.9342 37.3237 32.2631 36.6502 32.0752C35.9768 31.8872 35.6479 31.2921 35.8672 30.5403C36.243 29.2247 36.525 27.8622 37.2924 26.6875C37.496 26.39 37.3394 26.2803 37.1358 26.0767C35.7888 24.6515 35.0214 22.8974 34.4419 21.065C34.2853 20.5951 34.4419 20.094 34.5359 19.5928C34.8961 17.776 37.308 16.5388 38.8429 16.3508C40.3934 16.1629 41.7873 16.993 42.586 18.6061C43.1185 19.6711 43.792 20.6735 44.1052 21.8324C44.1992 22.1926 44.3715 22.13 44.6064 21.989C47.5664 20.3759 50.5422 18.7627 53.5022 17.1652C53.9094 16.946 53.7998 16.6014 53.7998 16.2882C53.7998 11.4957 53.7998 6.70321 53.7998 1.91073C53.7998 1.70713 53.7841 1.48786 53.7998 1.28426C53.8468 0.485513 54.301 0 54.9744 0C55.6322 0 56.1177 0.438528 56.1177 1.20595C56.1177 1.84808 56.478 1.75411 56.8695 1.75411C61.1608 1.75411 65.4678 1.75411 69.7591 1.75411C70.088 1.75411 70.4482 1.75411 70.7614 1.84808C72.03 2.19264 72.3903 3.75881 71.4036 4.69851C70.4639 5.59123 69.4772 6.45262 68.4748 7.28269C68.005 7.67424 68.0989 7.84652 68.5061 8.19107C69.3989 8.91151 70.2289 9.6946 71.0903 10.4464C71.9361 11.1981 72.171 11.8403 71.8577 12.6233C71.4975 13.5004 70.7614 13.7197 69.8844 13.704C65.5931 13.6883 61.2861 13.7197 56.9948 13.6727C56.2587 13.6727 56.0864 13.8919 56.1177 14.581C56.1491 15.2232 56.0238 15.834 56.8852 16.0846C57.3237 16.2255 57.3707 16.7894 57.449 17.2279C57.7779 19.0916 57.4646 20.8457 56.4466 22.4589C56.2274 22.8034 56.1334 23.148 56.1334 23.5552C56.1491 29.9295 56.1491 36.3195 56.1177 42.6938C56.1177 43.3046 56.29 43.4143 56.8538 43.4143C58.8585 43.3829 60.8632 43.3986 62.8679 43.3986C65.6087 43.3986 67.2219 45.0117 67.2219 47.7682C67.2219 57.4315 67.2376 67.0948 67.2062 76.758C67.2062 77.4628 67.3628 77.7291 68.0833 77.6351C68.6158 77.5724 69.1796 77.6351 69.7278 77.6194C70.4012 77.6038 71.0747 77.6194 71.3566 78.3712C71.6228 79.0603 71.2156 79.5302 70.7614 79.9687C47.4568 80 24.1209 80 0.784939 80ZM40.3151 40.4542C38.7019 40.9397 37.1984 41.7071 35.6166 42.2866C35.1467 42.4589 35.0058 42.6938 34.9901 43.1793C34.8805 45.7322 34.7395 48.2694 34.5986 50.8222C34.5516 51.668 34.3323 52.4511 33.9721 53.2185C32.5939 56.0689 31.247 58.935 29.9 61.8011C29.8217 61.9734 29.5085 62.2083 29.8061 62.3962C30.041 62.5372 30.3073 62.3962 30.4639 62.1457C30.5109 62.083 30.5578 62.0204 30.6048 61.9577C33.048 58.7157 35.4756 55.4738 37.9345 52.2318C38.2634 51.8089 38.467 51.3391 38.561 50.8222C39.1718 47.3923 39.7826 43.9624 40.3934 40.5482C40.3934 40.4855 40.3934 40.4229 40.3934 40.3759C40.3777 40.4072 40.3464 40.4385 40.3151 40.4542ZM64.904 62.3179C64.904 57.5255 64.904 52.733 64.904 47.9405C64.904 46.3117 64.3715 45.7792 62.774 45.7792C59.9079 45.7792 57.0418 45.7792 54.1757 45.7792C52.5625 45.7792 52.03 46.3273 52.03 47.9405C52.03 53.4377 52.03 58.9193 52.03 64.4166C52.03 65.372 51.5915 65.9358 50.8397 65.9358C50.1036 65.9358 49.6808 65.3876 49.6808 64.4009C49.6808 62.6782 49.6808 60.971 49.6808 59.2482C49.6808 57.8387 49.0543 57.2279 47.6291 57.2122C44.716 57.2122 41.8029 57.2122 38.8742 57.2122C37.3863 57.2122 36.7912 57.7917 36.7912 59.2952C36.7912 65.1997 36.7912 71.1198 36.7755 77.0243C36.7755 77.5255 36.9008 77.6664 37.4177 77.6664C41.3018 77.6507 45.1702 77.6507 49.0543 77.6664C49.5712 77.6664 49.6964 77.5255 49.6964 77.0243C49.6651 74.9883 49.6808 72.9679 49.6808 70.9319C49.6808 69.9922 50.088 69.491 50.8084 69.4597C51.5602 69.444 52.0144 69.9765 52.0144 70.9319C52.0144 72.9366 52.0457 74.9413 51.9987 76.946C51.9831 77.5411 52.1553 77.6664 52.7192 77.6507C56.5249 77.6194 60.3151 77.6194 64.1209 77.6507C64.7004 77.6507 64.904 77.5411 64.8883 76.899C64.904 72.0439 64.904 67.1731 64.904 62.3179ZM28.0206 77.6507C29.9784 77.6507 31.9204 77.6507 33.8781 77.6507C34.207 77.6507 34.4576 77.6821 34.4576 77.1966C34.4419 73.6257 34.4576 70.0548 34.4263 66.4996C34.4263 65.419 33.7998 64.7925 32.7035 64.7925C29.5712 64.7612 26.4545 64.7612 23.3221 64.7925C22.1632 64.8082 21.5524 65.4503 21.5524 66.6092C21.5367 70.1018 21.568 73.5944 21.5367 77.0713C21.5367 77.5724 21.6777 77.6664 22.1475 77.6664C24.1209 77.6351 26.0786 77.6507 28.0206 77.6507ZM53.8155 25.0431C51.247 26.6092 48.835 28.0658 46.4075 29.5223C46.1256 29.6946 46.0473 29.9452 45.9533 30.2114C45.1389 32.6703 44.3245 35.1449 43.4944 37.5881C43.3535 38.011 43.4161 38.2772 43.7137 38.6218C45.2798 40.4699 46.8304 42.3336 48.3495 44.1973C49.1013 45.1214 49.4145 46.1864 49.2423 47.3923C48.9603 49.4283 48.7411 51.4644 48.4748 53.5004C48.3026 54.8003 48.3026 54.8003 49.5242 55.1135C49.5555 55.1292 49.6025 55.0822 49.6808 55.0509C49.6808 52.5137 49.6651 49.9608 49.6808 47.408C49.6964 45.3876 51.0903 43.7118 53.0794 43.4612C53.7685 43.3829 53.8155 43.1167 53.8155 42.5529C53.7998 37.0086 53.7998 31.4644 53.7998 25.9201C53.8155 25.7009 53.8155 25.4503 53.8155 25.0431ZM68.5688 4.10337C64.4498 4.10337 60.5813 4.11903 56.7129 4.08771C56.1647 4.08771 56.1491 4.33829 56.1491 4.76116C56.1647 6.73453 56.1804 8.70791 56.1491 10.6813C56.1334 11.2294 56.29 11.3704 56.8382 11.3704C60.55 11.3391 64.2775 11.3547 67.9893 11.3547C68.1146 11.3547 68.3026 11.4644 68.3809 11.2294C68.3495 11.1825 68.3339 11.1355 68.2869 11.1042C67.5821 10.4777 66.893 9.86688 66.1882 9.24041C65.0293 8.20673 65.0136 7.25137 66.1569 6.23336C66.9087 5.57557 67.6604 4.91778 68.5688 4.10337ZM12.7348 77.6507C14.6769 77.6507 16.6346 77.6351 18.5766 77.6664C19.0621 77.6664 19.2501 77.5881 19.2344 77.0399C19.1874 75.928 19.2344 74.8003 19.2188 73.6883C19.2031 72.4354 18.608 71.8089 17.355 71.8089C14.3167 71.7933 11.2783 71.7933 8.22425 71.8089C6.95565 71.8089 6.36051 72.4041 6.34484 73.6727C6.32918 74.7847 6.36051 75.9123 6.32918 77.0243C6.31352 77.5255 6.43881 77.6821 6.95565 77.6664C8.8977 77.6351 10.8084 77.6507 12.7348 77.6507ZM42.727 41.065C42.4921 42.3179 42.3198 43.4456 42.0692 44.5576C41.9126 45.1997 42.0379 45.6226 42.68 45.9201C44.0112 46.5153 44.5281 47.5803 44.5907 49.0211C44.669 50.7596 44.904 52.4824 45.1076 54.2208C45.1389 54.4714 44.9823 54.863 45.5304 54.8786C46.0786 54.8943 46.0316 54.5341 46.0629 54.2365C46.3605 51.8402 46.6424 49.444 46.94 47.0321C46.987 46.6562 46.94 46.3117 46.7364 45.9984C45.5461 44.2757 44.0896 42.7878 42.727 41.065ZM41.8813 22.5842C41.8813 22.5529 41.8813 22.4432 41.8499 22.3493C41.3174 21.2843 40.8163 20.2036 40.2055 19.1699C39.8609 18.5904 39.2188 18.5435 38.608 18.7784C38.2634 18.9037 37.9502 19.0916 37.6369 19.2639C36.7755 19.7494 36.5563 20.3915 36.9791 21.2843C37.3707 22.083 37.7779 22.8504 38.1694 23.6492C38.514 24.3383 39.0465 24.6672 39.8139 24.4949C40.9416 24.2443 41.8343 23.4769 41.8656 22.7251C41.8813 22.7095 41.8813 22.6938 41.8813 22.5842ZM41.4584 47.9875C41.0042 50.4307 40.9416 52.9522 38.7646 54.863C40.1271 54.863 41.1765 54.8473 42.2415 54.863C42.6643 54.8786 42.8053 54.7847 42.7583 54.2991C42.539 52.498 42.3668 50.6813 42.2258 48.8802C42.1788 48.379 41.9752 48.1284 41.4584 47.9875ZM33.2203 62.3962C33.5649 62.4902 33.8468 62.5685 34.113 62.6468C34.3167 62.7095 34.4889 62.7251 34.4733 62.4432C34.4419 61.9577 34.5672 61.4565 34.3636 60.8771C33.9408 61.4252 33.5806 61.8951 33.2203 62.3962Z" fill="white"/>
</svg>
