<svg width="896" height="896" viewBox="0 0 896 896" fill="none" xmlns="http://www.w3.org/2000/svg">
<g opacity="0.1" clip-path="url(#clip0_7_13731)">
<path d="M447.976 711.71C302.266 711.71 184.145 593.591 184.145 447.883C184.145 302.175 302.266 184.055 447.976 184.055C593.686 184.055 711.807 302.175 711.807 447.883C711.807 593.591 593.686 711.71 447.976 711.71Z" stroke="#1B3ECD" stroke-miterlimit="10"/>
<path d="M447.974 803.306C251.677 803.306 92.5465 644.178 92.5465 447.883C92.5465 251.588 251.677 92.4595 447.974 92.4595C644.272 92.4595 803.402 251.588 803.402 447.883C803.402 644.178 644.272 803.306 447.974 803.306Z" stroke="#1B3ECD" stroke-miterlimit="10"/>
<path d="M447.975 894.902C201.09 894.902 0.950012 694.765 0.950012 447.883C0.950012 201.001 201.09 0.863525 447.975 0.863525C694.86 0.863525 895 201.001 895 447.883C895 694.765 694.86 894.902 447.975 894.902Z" stroke="#1B3ECD" stroke-miterlimit="10"/>
<path d="M447.974 623.424C351.024 623.424 272.431 544.831 272.431 447.883C272.431 350.934 351.024 272.342 447.974 272.342C544.924 272.342 623.518 350.934 623.518 447.883C623.518 544.831 544.924 623.424 447.974 623.424Z" stroke="#1B3ECD" stroke-miterlimit="10"/>
</g>
<defs>
<clipPath id="clip0_7_13731">
<rect width="896" height="896" fill="white" transform="matrix(-1 0 0 1 896 0)"/>
</clipPath>
</defs>
</svg>
