<svg width="1007" height="1006" viewBox="0 0 1007 1006" fill="none" xmlns="http://www.w3.org/2000/svg">
<g clip-path="url(#clip0_7_13572)">
<path d="M503.5 799.538C667.292 799.538 800.071 666.821 800.071 503.107C800.071 339.393 667.292 206.677 503.5 206.677C339.707 206.677 206.928 339.393 206.928 503.107C206.928 666.821 339.707 799.538 503.5 799.538Z" stroke="white" stroke-opacity="0.15" stroke-miterlimit="10"/>
<path d="M503.501 902.453C724.158 902.453 903.037 723.66 903.037 503.107C903.037 282.555 724.158 103.762 503.501 103.762C282.843 103.762 103.965 282.555 103.965 503.107C103.965 723.66 282.843 902.453 503.501 902.453Z" stroke="white" stroke-opacity="0.15" stroke-miterlimit="10"/>
<path d="M503.5 1005.37C781.023 1005.37 1006 780.498 1006 503.107C1006 225.716 781.023 0.846558 503.5 0.846558C225.977 0.846558 1 225.716 1 503.107C1 780.498 225.977 1005.37 503.5 1005.37Z" stroke="white" stroke-opacity="0.15" stroke-miterlimit="10"/>
<path d="M503.501 700.341C612.482 700.341 700.829 612.037 700.829 503.107C700.829 394.178 612.482 305.873 503.501 305.873C394.52 305.873 306.173 394.178 306.173 503.107C306.173 612.037 394.52 700.341 503.501 700.341Z" stroke="white" stroke-opacity="0.15" stroke-miterlimit="10"/>
</g>
<defs>
<clipPath id="clip0_7_13572">
<rect width="1007" height="1006" fill="white"/>
</clipPath>
</defs>
</svg>
