<svg width="102" height="80" viewBox="0 0 102 80" fill="none" xmlns="http://www.w3.org/2000/svg">
<path d="M101.042 27.9521C95.9464 32.0583 91.7907 37.154 86.8434 41.4086C82.6382 45.0448 78.0373 48.2111 72.7932 50.1653C69.7012 51.3279 66.4607 52.07 63.2697 53.0099C61.7855 53.4305 60.3508 53.9994 58.9161 54.5683C58.4461 54.7662 58.2235 55.0631 58.0751 55.533C57.4072 57.9325 56.7393 60.3319 56.0467 62.7313C55.7251 63.8692 55.0325 64.3392 54.142 64.0918C53.2515 63.8444 52.9052 63.0776 53.202 61.9645C54.7357 56.4483 56.2446 50.9074 58.3224 45.5396C60.6971 39.405 64.8281 34.903 70.5917 31.8357C77.0726 28.3973 84.073 26.7895 91.3207 26.1463C93.8191 25.9237 96.3174 25.8742 98.8158 25.8247C99.731 25.8 100.498 25.9732 101.017 26.7647C101.042 27.1605 101.042 27.5563 101.042 27.9521ZM61.3897 46.5538C61.5134 46.4548 61.6618 46.3806 61.7855 46.2817C69.0827 40.0481 76.9736 34.6803 85.5077 30.302C85.6561 30.2278 85.9034 30.2031 85.9034 29.9062C85.7056 29.9062 85.5077 29.9062 85.3098 29.931C81.3767 30.6731 77.5178 31.7615 73.8816 33.4683C68.0191 36.1893 63.5171 40.1965 61.2166 46.4053C61.1671 46.5043 61.0929 46.628 61.2413 46.7022C61.2661 46.7022 61.3403 46.6032 61.3897 46.5538ZM62.1318 50.0416C62.206 50.1158 62.2308 50.19 62.3545 50.1653C65.496 49.25 68.7117 48.5079 71.779 47.3701C76.6768 45.5396 80.882 42.4723 84.914 39.1823C88.2287 36.4861 90.8754 33.0725 94.0417 30.2031C94.0912 30.1536 94.0664 30.0546 94.0912 29.9062C93.8685 29.9557 93.7201 29.9804 93.5717 30.0546C92.4091 30.4999 91.2465 30.9204 90.1086 31.4399C82.6382 34.8288 75.7615 39.2318 69.2312 44.1543C66.7328 45.9601 64.2839 47.8153 62.1318 50.0416C62.1071 50.0911 62.0576 50.1405 62.0082 50.19C62.0329 50.19 62.0576 50.2147 62.0824 50.2147C62.1813 50.19 62.1813 50.1158 62.1318 50.0416Z" fill="white"/>
<path d="M80.8454 2.99309C80.3012 2.99309 79.9797 2.99309 79.6581 2.99309C62.2437 2.99309 44.8541 2.99309 27.4398 2.99309C24.9166 2.99309 22.7893 3.68571 21.2309 5.73883C20.2415 7.04985 19.8457 8.53403 19.8457 10.1666C19.8457 29.2136 19.8457 48.2606 19.821 67.3323C19.821 68.1733 20.1673 68.198 20.8104 68.198C34.3659 68.1733 47.9214 68.198 61.4769 68.198C63.8516 68.198 64 68.3465 64.2969 70.6964C64.6432 73.4421 65.9789 75.5447 68.6257 76.5342C73.4493 78.3399 78.075 74.9758 78.0997 69.6822C78.1245 64.166 78.0997 58.6251 78.0997 53.1089C78.0997 52.7873 78.0997 52.441 78.1245 52.1194C78.1987 51.2537 78.7181 50.7837 79.5344 50.7589C80.3013 50.7342 80.8455 51.1547 80.9939 51.9463C81.0681 52.2926 81.0681 52.6636 81.0681 53.0347C81.0681 58.5261 81.0681 64.0176 81.0681 69.5091C81.0681 75.7921 76.8382 79.9973 70.5304 79.9973C50.8898 79.9973 31.2491 79.9973 11.6085 79.9973C10.2233 79.9973 8.83805 80.0467 7.47755 79.7252C3.61868 78.7852 0.501909 75.2232 0.106128 71.2653C-0.190708 68.3217 -0.0422898 68.1733 2.92607 68.1733C7.13124 68.1733 11.3611 68.1733 15.5663 68.1733C17.001 68.1733 16.8526 68.3465 16.8526 66.9365C16.8526 48.1369 16.8526 29.362 16.8526 10.5624C16.8526 8.16299 17.3721 5.93672 18.8563 4.00728C20.9588 1.18734 23.8283 0 27.3161 0C42.0589 0.0247363 56.8018 0 71.5446 0C76.8382 0 82.1317 0 87.4253 0C91.7542 0 94.8957 1.9047 96.7756 5.83777C97.4435 7.24774 97.7156 8.78139 97.7156 10.3398C97.7156 11.255 97.1467 11.7992 96.1077 11.824C94.6483 11.8487 93.2136 11.824 91.7542 11.824C88.4642 11.824 85.1743 11.8487 81.8844 11.7992C81.1918 11.7992 81.0186 11.9971 81.0186 12.665C81.0433 15.856 81.0433 19.047 81.0186 22.238C81.0186 22.5843 80.9939 22.9553 80.9197 23.3016C80.7465 24.0932 80.2023 24.4642 79.4107 24.4147C78.5944 24.3653 78.1492 23.8953 78.075 23.1037C78.0255 22.3122 78.0502 21.5206 78.0502 20.729C78.0502 17.4391 78.1245 14.1492 78.0255 10.8592C78.0008 7.9651 78.6934 5.36778 80.8454 2.99309ZM3.12396 71.1417C3.71763 74.8274 6.43862 76.9794 10.4212 77.0042C27.885 77.0042 45.3488 77.0042 62.8127 77.0042C63.1095 77.0042 63.4558 77.1031 63.8269 76.8558C62.6643 75.4458 61.7738 73.8874 61.4769 72.0816C61.3532 71.2653 60.9822 71.1664 60.2648 71.1664C41.5395 71.1911 22.8388 71.1911 4.11341 71.1911C3.79184 71.1417 3.47027 71.1417 3.12396 71.1417ZM87.7963 8.8556C89.8247 8.8556 91.8531 8.8556 93.9062 8.8556C94.4009 8.8556 94.6236 8.80613 94.4999 8.21246C93.9062 5.26884 91.0368 3.01783 87.8211 2.99309C84.7785 2.96836 81.8349 5.34305 81.2412 8.21246C81.1175 8.83087 81.3402 8.8556 81.8102 8.8556C83.8138 8.83087 85.8174 8.8556 87.7963 8.8556Z" fill="white"/>
<path d="M43.7548 30.3018C48.8505 30.3018 53.9462 30.3018 59.0418 30.3018C59.3387 30.3018 59.6355 30.2771 59.9324 30.3266C60.7487 30.4255 61.2434 30.9202 61.3176 31.7365C61.3671 32.5034 60.7734 33.1465 59.9324 33.2455C59.685 33.2702 59.4129 33.2702 59.1408 33.2702C48.8505 33.2702 38.5602 33.2702 28.2699 33.2702C27.973 33.2702 27.6762 33.2949 27.3794 33.2455C26.5631 33.0723 26.0931 32.5776 26.1178 31.7365C26.1425 30.945 26.6125 30.475 27.3794 30.3266C27.6762 30.2771 27.973 30.3018 28.2699 30.3018C33.4398 30.3018 38.6096 30.3018 43.7548 30.3018Z" fill="white"/>
<path d="M55.1836 18.1313C50.1868 18.1313 45.1901 18.1313 40.1933 18.1313C39.8223 18.1313 39.4513 18.156 39.105 18.0818C38.4618 17.9334 38.0908 17.5129 38.0166 16.845C37.9423 16.1524 38.2392 15.6329 38.8576 15.3361C39.2534 15.1629 39.6739 15.1629 40.1191 15.1629C50.1868 15.1629 60.2298 15.1629 70.2974 15.1629C70.6932 15.1629 71.089 15.1876 71.46 15.3113C72.1774 15.5339 72.499 16.0781 72.4248 16.8202C72.3506 17.5129 71.9548 17.9581 71.2622 18.0818C70.9159 18.1313 70.5448 18.1313 70.1738 18.1313C65.177 18.1313 60.1803 18.1313 55.1836 18.1313Z" fill="white"/>
<path d="M38.4921 45.466C41.8315 45.466 45.1957 45.466 48.5351 45.466C48.8566 45.466 49.203 45.466 49.5245 45.5155C50.2666 45.6144 50.7119 46.0844 50.7613 46.8265C50.8108 47.6181 50.4645 48.1623 49.6729 48.3354C49.4008 48.4096 49.0793 48.4344 48.8072 48.4344C41.9305 48.4344 35.0785 48.4344 28.2018 48.4344C27.905 48.4344 27.6081 48.4096 27.336 48.3354C26.5445 48.1623 26.1487 47.6428 26.1982 46.8513C26.2229 46.0597 26.6929 45.565 27.4845 45.4908C28.0039 45.4413 28.5234 45.466 29.0676 45.466C32.1844 45.466 35.3259 45.466 38.4921 45.466Z" fill="white"/>
<path d="M35.3403 63.5478C33.0151 63.5478 30.6899 63.5478 28.3399 63.5478C28.0431 63.5478 27.7463 63.5478 27.4494 63.5231C26.6579 63.4489 26.1879 63.0036 26.1384 62.212C26.0889 61.371 26.4847 60.8516 27.3257 60.6784C27.5731 60.6289 27.8452 60.6042 28.1173 60.6042C32.9162 60.6042 37.715 60.6042 42.4891 60.6042C42.7117 60.6042 42.9591 60.6042 43.1817 60.6537C44.0475 60.8021 44.6164 61.4452 44.5422 62.1873C44.4433 63.0531 43.9238 63.5478 43.0333 63.5725C41.8954 63.5973 40.7328 63.5725 39.595 63.5725C38.1603 63.5478 36.7503 63.5478 35.3403 63.5478Z" fill="white"/>
<path d="M30.1245 18.1066C29.2834 18.1066 28.4177 18.1313 27.5766 18.1066C26.7356 18.0819 26.2409 17.6366 26.1419 16.7956C26.0677 15.9793 26.5377 15.2619 27.4035 15.2372C29.1597 15.163 30.9408 15.163 32.697 15.2372C33.5381 15.2619 34.1317 16.0535 34.0081 16.7956C33.8844 17.6366 33.3649 18.1313 32.4744 18.1561C31.7076 18.1313 30.916 18.1066 30.1245 18.1066Z" fill="white"/>
</svg>
