<svg width="81" height="80" viewBox="0 0 81 80" fill="none" xmlns="http://www.w3.org/2000/svg">
<path d="M0.0208768 72.4843C0.292275 72.4217 0.208768 72.1712 0.271398 72.0042C0.814194 70.7307 1.77452 70.0209 3.15239 70C4.405 69.9583 5.6576 69.9791 6.91021 70C7.34862 70 7.49476 69.8956 7.47388 69.4363C7.453 68.2672 7.453 67.0981 7.47388 65.929C7.49476 64.1336 8.49684 63.1316 10.2714 63.1107C10.9185 63.1107 11.5657 63.0898 12.2129 63.1107C12.6304 63.1316 12.6722 62.9854 12.6096 62.6096C11.9206 57.307 13.1524 52.5053 16.3047 48.1838C17.3486 46.7433 18.6221 45.5116 19.8538 44.2381C21.2317 42.8185 22.5887 41.378 23.6742 39.7079C24.3841 38.6014 24.8225 37.4323 24.4258 36.0962C24.3005 35.6786 24.2379 35.449 23.7369 35.8039C22.3799 36.806 20.8141 36.7642 19.2484 36.6181C18.0793 36.5137 16.9311 36.3676 15.762 36.2423C15.1565 36.1797 14.9269 36.3885 15.2192 36.9939C15.3235 37.2027 15.3653 37.4323 15.4488 37.6619C15.8246 38.7684 15.6367 39.2068 14.5929 39.7287C12.8601 40.6056 11.1064 41.4615 9.37366 42.3175C8.28807 42.8394 7.76615 42.6724 7.20248 41.6494C5.80374 39.0607 4.42587 36.4928 3.02713 33.9041C2.52609 32.9855 2.58872 32.568 3.36116 31.8373C8.2672 27.1818 13.1732 22.5263 18.1001 17.8708C18.5594 17.4324 18.6847 17.1819 18.2045 16.6599C17.3068 15.6579 16.4926 14.5723 15.6576 13.5075C14.906 12.5681 15.0939 11.7539 16.1795 11.2529C18.5177 10.1673 20.7933 10.543 23.0062 11.6495C23.4446 11.8792 23.9248 12.0671 24.2797 12.4011C25.3653 13.3614 26.597 13.6328 28.0375 13.6954C33.7577 13.946 38.2045 16.7226 41.7953 21.0023C45.4696 25.3864 47.6616 30.5221 49.0186 36.0336C50.0833 40.3342 50.5844 44.6765 50.1251 49.1024C50.0207 50.188 49.7911 51.2527 49.5197 52.3174C49.3318 53.0899 48.8725 53.4656 48.1209 53.5491C46.6387 53.7162 45.4905 54.4677 44.551 55.5742C42.9852 57.4113 42.9852 59.7287 44.5093 61.6284C45.3026 62.6305 46.1794 63.3821 47.599 63.1316C48.1209 63.0272 48.6846 63.1107 49.2274 63.1107C50.8975 63.1316 51.9414 64.1754 51.9623 65.8455C51.9831 67.0355 51.9831 68.2464 51.9623 69.4363C51.9414 69.8748 52.0875 70 52.5259 70C53.7159 69.9791 54.9268 69.9791 56.1167 70C58.0374 70.0209 59.3318 71.3152 59.3318 73.2568C59.3318 74.4468 59.3526 75.6576 59.3318 76.8476C59.3109 78.6847 57.9956 80 56.1794 80C38.5385 80 20.8768 80 3.2359 80C1.7954 80 0.77244 79.2902 0.229644 77.9541C0.167014 77.8079 0.229644 77.5783 0 77.4948C0.0208768 75.8246 0.0208768 74.1545 0.0208768 72.4843ZM18.6221 13.1735C19.5406 14.3217 20.3548 15.3447 21.1899 16.3885C21.8788 17.2654 21.858 17.7873 21.0646 18.5597C19.9373 19.6244 18.81 20.6891 17.6617 21.7747C13.7787 25.449 9.91646 29.1234 6.03338 32.7768C5.63672 33.1526 5.59497 33.4031 5.86637 33.8832C6.86845 35.6578 7.80791 37.4323 8.74736 39.2277C8.97701 39.6661 9.1649 39.7079 9.56156 39.4782C10.4384 39.0189 11.2943 38.5596 12.2129 38.163C12.8183 37.9125 12.8601 37.6202 12.6513 37.0565C12.1294 35.6369 12.7139 34.4887 14.1962 33.9668C15.0521 33.6745 15.929 33.7162 16.8267 33.7997C18.0166 33.925 19.1857 34.1755 20.3966 34.1755C21.6492 34.1755 22.6513 33.758 23.2567 32.5471C23.7786 31.5033 24.9477 31.5033 25.5114 32.5263C25.9916 33.3822 26.43 34.259 26.8266 35.1776C27.3068 36.305 27.4738 37.4741 27.098 38.6849C26.764 39.7496 26.2003 40.6682 25.5532 41.545C23.8621 43.8832 21.7745 45.8456 19.8329 47.9333C16.0125 52.0251 14.3423 56.8477 15.0939 62.4635C15.1565 62.9646 15.3027 63.1316 15.8455 63.1316C24.5302 63.1107 33.2358 63.1107 41.9205 63.1107C42.0667 63.1107 42.2963 63.2151 42.4007 62.9854C41.6283 61.9207 41.0646 60.7516 40.9393 59.4364C40.6262 56.0961 42.6303 52.7976 45.9497 51.6285C47.2232 51.1901 47.5364 50.4803 47.6408 49.3738C47.6616 49.2485 47.6616 49.1233 47.6825 48.9771C48.1418 44.8853 47.6825 40.877 46.7222 36.9104C45.4487 31.6703 43.4237 26.7852 39.9372 22.6098C36.2838 18.2674 31.7536 15.804 25.9081 16.1798C25.407 16.2215 25.0104 15.9919 24.6346 15.6787C23.6534 14.9063 22.6513 14.1547 21.5031 13.6537C20.6262 13.2988 19.7285 13.0274 18.6221 13.1735ZM29.7076 77.4948C38.3715 77.4948 47.0353 77.4948 55.6992 77.4948C56.8265 77.4948 56.8683 77.453 56.8683 76.3048C56.8683 75.4488 56.8683 74.5929 56.8683 73.737C56.8683 72.547 56.8474 72.5052 55.6366 72.5052C44.4257 72.5052 33.194 72.5052 21.9832 72.5052C15.929 72.5052 9.85383 72.5052 3.79957 72.5052C2.65135 72.5052 2.58872 72.5679 2.58872 73.7578C2.58872 74.6138 2.58872 75.4697 2.58872 76.3257C2.58872 77.453 2.65135 77.4948 3.77869 77.4948C12.4217 77.4948 21.0646 77.4948 29.7076 77.4948ZM29.6868 69.9791C36.0542 69.9791 42.4425 69.9791 48.8099 70C49.3318 70 49.5406 69.8956 49.5197 69.332C49.4779 68.3716 49.457 67.4113 49.5197 66.451C49.5823 65.7412 49.3318 65.6159 48.6637 65.6159C40.5427 65.6368 32.4216 65.6368 24.3005 65.6368C19.7494 65.6368 15.1983 65.6368 10.6471 65.6159C10.1044 65.6159 9.93734 65.7412 9.95821 66.284C9.99997 67.2652 10.0208 68.2672 9.95821 69.2485C9.91646 69.8748 10.1252 70 10.7307 70C17.0563 69.9791 23.382 69.9791 29.6868 69.9791Z" fill="white"/>
<path d="M59.555 0C59.7638 0.292274 60.1187 0.167014 60.3901 0.271398C62.6448 1.06471 64.0226 3.38203 63.5842 5.72023C63.1458 8.05842 61.0581 9.74944 58.6991 9.68681C56.2982 9.62418 54.3358 7.8079 54.0436 5.36532C53.7722 3.00625 55.2962 0.814193 57.6135 0.187891C57.7596 0.146137 57.9475 0.229644 58.0101 0.0208767C58.5112 0 59.0331 0 59.555 0ZM61.1417 4.84341C61.1417 3.54905 60.0978 2.50521 58.8243 2.50521C57.5717 2.50521 56.4861 3.56992 56.4861 4.84341C56.4861 6.09601 57.5509 7.1816 58.8243 7.1816C60.0978 7.1816 61.1417 6.13776 61.1417 4.84341Z" fill="white"/>
<path d="M57.4507 19.6657C56.6574 20.6469 55.9058 21.5864 55.1334 22.5258C54.5279 23.2565 53.7555 23.4027 53.1709 22.9016C52.6073 22.4215 52.6281 21.6908 53.1918 20.9601C54.6532 19.1438 56.1354 17.3066 57.5968 15.4904C58.411 14.4674 59.1834 14.4883 60.0185 15.4904C61.4799 17.2858 62.9413 19.0812 64.3818 20.8974C65.0289 21.6908 65.0081 22.4632 64.3818 22.9434C63.7763 23.4027 63.0665 23.2356 62.4402 22.4632C61.6887 21.5446 60.9371 20.6261 60.1855 19.6866C59.9559 19.9371 60.0603 20.1876 60.0603 20.3964C60.0603 24.4883 60.0811 28.5801 60.0394 32.6511C60.0394 33.3191 60.2273 33.4444 60.8536 33.4444C64.2147 33.4026 67.5759 33.4235 70.937 33.4235C72.127 33.4235 72.5237 33.8202 72.5237 35.0101C72.5237 39.7909 72.5237 44.5926 72.5237 49.3733C72.5237 50.3963 72.1061 50.9182 71.292 50.9391C70.4569 50.9391 70.0185 50.3963 70.0185 49.3316C70.0185 45.0936 69.9976 40.8348 70.0393 36.5968C70.0393 36.0122 69.8932 35.887 69.3087 35.887C65.9475 35.9078 62.5864 35.9078 59.2252 35.9078C57.9726 35.9078 57.5551 35.4903 57.5551 34.2168C57.5551 29.6657 57.5551 25.1146 57.5551 20.5425C57.5551 20.292 57.6386 19.9997 57.4507 19.6657Z" fill="white"/>
<path d="M76.0881 60.7719C76.0881 63.4233 73.9378 65.5945 71.3073 65.6153C68.6351 65.6362 66.4222 63.4233 66.443 60.7719C66.4639 58.1415 68.6351 55.9494 71.2865 55.9494C73.9169 55.9494 76.0881 58.1206 76.0881 60.7719ZM73.5829 60.7719C73.5829 59.5193 72.5182 58.4337 71.2656 58.4337C70.013 58.4337 68.9274 59.5193 68.9274 60.7719C68.9274 62.0245 70.013 63.1101 71.2656 63.1101C72.5182 63.1101 73.5829 62.0454 73.5829 60.7719Z" fill="white"/>
<path d="M44.4596 13.1111C43.9586 13.0902 43.6454 12.8815 43.3532 12.6101C42.7477 12.0046 42.1214 11.4201 41.5369 10.7729C41.2029 10.3971 40.9941 10.4389 40.6809 10.7938C40.0964 11.4201 39.491 12.0255 38.8647 12.6101C38.2384 13.2155 37.5494 13.2572 37.0066 12.7562C36.443 12.2134 36.4847 11.5036 37.111 10.8355C37.7164 10.2092 38.301 9.6038 38.9273 9.01925C39.3031 8.68523 39.2404 8.47646 38.9064 8.16331C38.2801 7.57876 37.6747 6.97333 37.0901 6.34703C36.4847 5.72073 36.443 5.01092 36.944 4.489C37.4868 3.92532 38.1966 3.96708 38.8647 4.61426C39.491 5.21968 40.0964 5.80423 40.6809 6.43053C41.015 6.80632 41.2237 6.76456 41.5369 6.40966C42.1214 5.78336 42.7269 5.17793 43.3532 4.59338C44.0003 3.96708 44.6684 3.9462 45.2112 4.46812C45.7749 5.01092 45.7331 5.72073 45.0859 6.38878C44.5014 6.99421 43.9377 7.59963 43.3114 8.14243C42.873 8.51821 42.9565 8.74785 43.3323 9.10276C43.9795 9.68731 44.6058 10.3345 45.2112 10.9817C45.6079 11.3992 45.7122 11.8794 45.4617 12.4222C45.2529 12.8815 44.8563 13.0693 44.4596 13.1111Z" fill="white"/>
<path d="M80.0047 16.785C80.0882 17.2025 79.8586 17.5157 79.5663 17.8079C78.94 18.4342 78.3346 19.0814 77.6874 19.6868C77.3742 19.9791 77.416 20.1461 77.7083 20.4175C78.3346 21.0021 78.94 21.6284 79.5245 22.2338C80.1508 22.8601 80.2135 23.6534 79.7124 24.1753C79.1696 24.739 78.4598 24.6764 77.7918 24.0292C77.1863 23.4238 76.56 22.8392 75.9755 22.2129C75.6832 21.8998 75.4953 21.858 75.1822 22.192C74.6185 22.7975 74.0131 23.382 73.4285 23.9666C72.7187 24.6764 72.0089 24.739 71.4452 24.1962C70.9024 23.6534 70.9651 22.9019 71.6331 22.2129C72.1759 21.6493 72.7187 21.0856 73.3033 20.5637C73.7208 20.2088 73.8252 19.9582 73.3241 19.5407C72.7396 19.0605 72.2385 18.4969 71.7166 17.9541C70.9859 17.2025 70.8816 16.4927 71.4244 15.929C72.0089 15.3236 72.6978 15.428 73.512 16.2213C74.0757 16.785 74.6603 17.3486 75.2239 17.9332C75.5162 18.2463 75.6832 18.2046 75.9546 17.9123C76.6018 17.2443 77.2698 16.5762 77.9379 15.929C78.3554 15.5324 78.8356 15.4071 79.3575 15.6576C79.8168 15.8664 80.0673 16.2213 80.0047 16.785Z" fill="white"/>
<path d="M44.3268 44.7798C44.3268 45.2182 44.3268 45.7819 44.3268 46.3664C44.3059 47.3267 43.8675 47.8486 43.0951 47.8486C42.3018 47.8486 41.8634 47.3476 41.8425 46.3873C41.8216 42.8174 41.4667 39.2683 40.4855 35.8236C39.1703 31.2308 37.0408 27.0972 33.4709 23.7986C32.3436 22.7548 31.0701 21.8988 29.6713 21.2308C28.8363 20.8341 28.544 20.187 28.8571 19.4771C29.1703 18.7882 29.8801 18.5794 30.7152 18.9761C34.3895 20.7089 37.1035 23.4855 39.2538 26.8675C42.1139 31.3351 43.5335 36.2829 44.0972 41.523C44.1807 42.5668 44.2224 43.6107 44.3268 44.7798Z" fill="white"/>
</svg>
