<svg width="699" height="894" viewBox="0 0 699 894" fill="none" xmlns="http://www.w3.org/2000/svg">
<g opacity="0.1" clip-path="url(#clip0_2730_7208)">
<path d="M203.29 446.524C203.29 592.234 321.409 710.355 467.117 710.355C612.825 710.355 730.945 592.234 730.945 446.524C730.945 300.814 612.825 182.693 467.117 182.693C321.409 182.693 203.29 300.814 203.29 446.524Z" stroke="#1B3ECD" stroke-miterlimit="10"/>
<path d="M111.694 446.526C111.694 642.823 270.822 801.953 467.117 801.953C663.412 801.953 822.541 642.823 822.541 446.526C822.541 250.228 663.412 91.0976 467.117 91.0976C270.822 91.0976 111.694 250.228 111.694 446.526Z" stroke="#1B3ECD" stroke-miterlimit="10"/>
<path d="M20.0977 446.525C20.0977 693.41 220.235 893.55 467.117 893.55C713.999 893.55 914.136 693.41 914.136 446.525C914.136 199.64 713.999 -0.500009 467.117 -0.50002C220.235 -0.50003 20.0977 199.64 20.0977 446.525Z" stroke="#1B3ECD" stroke-miterlimit="10"/>
<path d="M291.576 446.526C291.576 543.476 370.169 622.069 467.117 622.069C564.066 622.069 642.658 543.476 642.658 446.526C642.658 349.576 564.066 270.982 467.117 270.982C370.169 270.982 291.576 349.576 291.576 446.526Z" stroke="#1B3ECD" stroke-miterlimit="10"/>
</g>
<defs>
<clipPath id="clip0_2730_7208">
<rect width="894" height="699" fill="white" transform="translate(699) rotate(90)"/>
</clipPath>
</defs>
</svg>
