<svg width="81" height="80" viewBox="0 0 81 80" fill="none" xmlns="http://www.w3.org/2000/svg">
<path d="M80.023 63.1207C79.5718 63.8394 78.9033 64.0232 78.1011 64.0065C75.4774 63.9898 72.8369 64.0232 70.2131 63.9898C69.5446 63.973 69.3441 64.1067 69.3608 64.8253C69.3942 67.7165 68.2411 69.9559 65.6006 71.3096C64.5812 71.8276 63.4782 72.0115 62.3585 72.0115C55.5902 72.0282 48.8219 72.0115 42.0369 72.0282C41.4687 72.0282 41.3016 71.861 41.3684 71.3263C41.4353 70.6912 41.101 69.8389 41.5021 69.4545C41.8531 69.137 42.6887 69.3376 43.307 69.3376C49.6408 69.3376 55.9579 69.3376 62.2917 69.3376C64.4475 69.3376 65.985 68.2847 66.5198 66.4464C66.7036 65.7946 66.7036 65.1095 66.7203 64.441C66.7203 64.1569 66.6368 63.9898 66.3192 64.0232C66.1354 64.0399 65.9516 64.0232 65.7678 64.0232C56.2086 64.0232 46.6494 64.0232 37.0902 64.0232C34.9176 64.0232 34.7004 63.8059 34.7004 61.6835C34.7004 58.6587 34.7004 55.6505 34.7004 52.6257C34.7004 51.0882 35.1015 50.6871 36.639 50.6871C46.3486 50.6871 56.0749 50.6704 65.7845 50.7038C66.5198 50.7038 66.737 50.5701 66.737 49.7847C66.7036 41.1446 66.7203 32.5046 66.7203 23.8478C66.7203 23.7141 66.7203 23.5972 66.7203 23.4635C66.4195 23.3799 66.336 23.6306 66.2023 23.7643C64.7818 25.1681 63.378 26.6053 61.9407 28.0091C61.5397 28.3935 61.3725 28.7946 61.3725 29.3628C61.3892 34.9111 61.3892 40.4594 61.3892 46.0078C61.3892 47.679 61.0383 48.0299 59.3838 48.0299C50.0419 48.0299 40.6832 48.0299 31.3413 48.0299C29.7704 48.0299 29.4027 47.6623 29.4027 46.1248C29.4027 44.8045 29.3526 43.4676 29.4194 42.1473C29.4529 41.4789 29.2356 41.2783 28.6006 41.1948C24.9741 40.6934 21.9994 38.9888 19.5761 36.248C12.6741 28.3935 16.3842 15.5588 26.3612 12.6676C33.6308 10.5452 40.9506 13.8876 44.059 20.7561C44.2596 21.2074 44.4935 21.3578 44.9782 21.3578C47.8192 21.3411 50.6602 21.3411 53.5012 21.3578C53.9525 21.3578 54.27 21.2074 54.5875 20.8898C58.4647 16.996 62.3418 13.1188 66.2357 9.24166C66.5532 8.92414 66.737 8.60661 66.6869 8.15539C66.6368 7.50363 66.6702 6.85187 66.6034 6.21682C66.4028 4.46207 65.1828 3.14183 63.4615 2.80759C63.0604 2.72403 62.6426 2.70732 62.2248 2.70732C47.4014 2.70732 32.5947 2.70732 17.7713 2.70732C15.5987 2.70732 14.0779 3.74346 13.5264 5.58177C13.3593 6.16668 13.3259 6.7516 13.3259 7.35322C13.3259 18.3998 13.3259 29.4296 13.3426 40.4762C13.3426 41.2449 13.1421 41.4287 12.39 41.3953C10.652 41.3452 10.652 41.3786 10.652 39.6406C10.652 28.8614 10.652 18.0822 10.652 7.30309C10.652 5.66532 10.9695 4.11112 11.989 2.75746C13.4596 0.80217 15.4483 0 17.8381 0C31.3079 0 44.7609 0 58.2307 0C59.6178 0 60.9882 0 62.3752 0C66.102 0.0167119 68.7258 2.30624 69.3107 6.14997C69.8622 5.59848 70.3468 5.13054 70.8315 4.62919C71.5334 3.92729 72.2687 3.27553 73.238 2.958C76.1291 2.00542 79.0203 3.54292 79.8559 6.46749C79.8893 6.60119 79.8224 6.80173 80.023 6.85187C80.023 7.47021 80.023 8.10526 80.023 8.7236C79.4715 10.5953 78.0677 11.8487 76.7475 13.1522C74.4245 15.4585 72.1016 17.7814 69.7786 20.1044C69.5112 20.3718 69.3608 20.6392 69.3608 21.0402C69.3775 30.6997 69.3775 40.3425 69.3608 50.0019C69.3608 50.5367 69.5279 50.637 70.0126 50.637C72.6865 50.6203 75.3771 50.637 78.051 50.6203C78.8866 50.6035 79.5718 50.7874 80.023 51.5394C80.023 55.4166 80.023 59.2603 80.023 63.1207ZM57.3617 61.3326C63.7456 61.3326 70.1296 61.3159 76.4968 61.3493C77.2488 61.3493 77.3825 61.132 77.3658 60.4468C77.3157 58.7088 77.3491 56.9541 77.3491 55.216C77.3491 53.3109 77.3491 53.3443 75.4774 53.2942C74.8089 53.2774 74.6585 53.478 74.6752 54.113C74.7086 55.9848 74.6919 55.9681 72.7867 56.0015C72.2018 56.0182 72.0013 55.8845 72.0013 55.2494C72.0347 53.3109 72.018 53.3443 70.0961 53.2942C69.4611 53.2774 69.3274 53.4947 69.3441 54.0796C69.3775 55.9848 69.3441 55.9513 67.4724 56.0015C66.8039 56.0182 66.6535 55.8344 66.6702 55.1826C66.7203 53.2942 66.6869 53.3276 64.765 53.2942C64.13 53.2774 63.9796 53.4613 63.9963 54.0796C64.0297 55.9848 63.9963 55.9513 62.1246 56.0015C61.4561 56.0182 61.3057 55.8177 61.3224 55.1826C61.3558 53.3109 61.3391 53.3443 59.5008 53.2942C58.7989 53.2774 58.6318 53.478 58.6485 54.1632C58.6986 55.9848 58.6652 55.9681 56.7935 56.0015C56.1417 56.0182 55.9579 55.8344 55.9746 55.1826C56.008 53.3109 55.9913 53.361 54.153 53.2942C53.4344 53.2774 53.284 53.4947 53.3007 54.1632C53.3508 55.9848 53.3174 55.9513 51.4457 56.0015C50.7939 56.0182 50.6101 55.8344 50.6268 55.1826C50.6769 53.3109 50.6435 53.3276 48.7384 53.2942C48.12 53.2774 47.9195 53.4446 47.9529 54.0629C47.9863 54.6812 48.237 55.5168 47.8526 55.8511C47.485 56.1686 46.6661 55.9179 46.0477 55.9848C45.396 56.0683 45.279 55.7842 45.2957 55.1993C45.3124 54.581 45.5965 53.7454 45.1787 53.4111C44.7944 53.1103 43.9922 53.3443 43.3738 53.2774C42.7722 53.2106 42.6051 53.4111 42.6385 54.0128C42.6887 54.6311 42.8558 55.45 42.5383 55.8176C42.1706 56.2522 41.3183 55.8845 40.6832 55.9681C40.0816 56.0516 39.9312 55.8176 39.9646 55.2494C40.0148 54.6311 40.1819 53.7955 39.8644 53.4446C39.4967 53.0101 38.6444 53.3777 38.0093 53.2942C37.3743 53.1939 37.3074 53.4947 37.3074 54.0462C37.3409 56.202 37.3409 58.3746 37.3074 60.5304C37.2907 61.1822 37.4578 61.3493 38.1096 61.3493C44.5437 61.3159 50.9443 61.3326 57.3617 61.3326ZM51.4624 24.015C49.4737 24.015 47.7356 24.015 45.9976 24.015C45.0617 24.015 45.0785 24.015 45.1954 24.9341C45.6801 28.9282 44.6774 32.5213 42.2207 35.6798C39.8309 38.7381 36.6891 40.5764 32.8287 41.1279C32.2939 41.1948 31.9262 41.2783 31.9931 41.9802C32.0766 42.8325 32.0432 43.7015 31.9931 44.5538C31.9596 45.1388 32.11 45.3226 32.7451 45.3226C41.1345 45.3059 49.5071 45.3059 57.8965 45.3226C58.4814 45.3226 58.6819 45.2223 58.6819 44.5873C58.6485 40.426 58.6652 36.2648 58.6652 32.0868C58.6652 31.8695 58.7488 31.6356 58.5315 31.3515C57.6625 32.2205 56.7935 33.0728 55.9579 33.9418C55.5568 34.3429 55.1223 34.5936 54.5541 34.7106C52.5821 35.0782 50.6268 35.496 48.6715 35.8971C47.2176 36.1812 46.4823 35.4292 46.7831 33.9585C47.1674 32.0199 47.5852 30.0981 47.9529 28.1595C48.0532 27.5913 48.2871 27.1401 48.7049 26.739C49.574 25.9034 50.4263 25.0344 51.4624 24.015ZM41.3684 21.3411C41.2682 21.1071 41.2347 21.0068 41.1846 20.9233C38.7447 16.2439 33.2799 13.804 27.9488 14.9905C22.5341 16.2105 18.4899 21.3243 18.6737 26.7724C18.8575 32.7051 22.9854 37.5182 28.634 38.4707C29.3359 38.5877 29.3693 38.3705 29.3693 37.8023C29.3526 32.9391 29.3526 28.0759 29.3526 23.1961C29.3526 21.7087 29.7537 21.3243 31.2577 21.3076C32.7117 21.3076 34.1656 21.3076 35.6363 21.3076C37.508 21.3411 39.3797 21.3411 41.3684 21.3411ZM70.7646 8.52305C70.5306 8.74031 70.3802 8.874 70.2298 9.0077C67.9236 11.3139 65.6341 13.6035 63.3278 15.9097C59.4674 19.7701 55.6069 23.6473 51.7298 27.491C51.3454 27.8754 51.2451 28.0759 51.7131 28.4937C52.5821 29.2792 53.4177 30.1148 54.1864 30.9838C54.6042 31.4517 54.8215 31.3348 55.2059 30.9504C57.462 28.6441 59.7682 26.388 62.041 24.0985C65.9182 20.2214 69.7953 16.3275 73.6892 12.4671C74.0401 12.1328 74.107 11.9323 73.7059 11.5646C72.7867 10.7123 71.9344 9.80987 71.0487 8.92414C70.9484 8.80716 70.8649 8.67346 70.7646 8.52305ZM32.0265 38.5376C38.8616 37.8357 43.8251 31.1509 42.4881 24.5497C42.3878 24.0985 42.204 23.9815 41.7528 23.9982C38.7279 24.015 35.7198 24.0317 32.695 23.9982C32.0599 23.9815 31.9931 24.2155 32.0098 24.7503C32.0265 29.1121 32.0265 33.4906 32.0265 37.8524C32.0265 38.0696 32.0265 38.3036 32.0265 38.5376ZM77.3658 7.87129C77.3825 6.68475 76.714 5.78231 75.6612 5.43136C74.6585 5.09712 73.4218 5.54834 72.7533 6.45078C72.5528 6.71817 72.7032 6.81844 72.8536 6.95214C73.8062 7.90472 74.7755 8.85729 75.728 9.82658C75.8784 9.97699 76.0121 10.1274 76.2294 9.91014C76.831 9.30851 77.3825 8.70688 77.3658 7.87129ZM50.1422 30.8334C50.0085 31.5019 49.8748 32.2038 49.7076 32.9725C50.4764 32.8054 51.1783 32.7553 51.8133 32.5046C51.2619 31.9364 50.7104 31.4016 50.1422 30.8334Z" fill="white"/>
<path d="M0.80217 79.9833C0.116983 79.4151 0 78.6798 0 77.8442C0.0167119 64.5749 0.0167119 51.289 0.0167119 38.0198C0.0167119 37.7524 0 37.5017 0.0334237 37.2343C0.167119 36.148 1.32024 35.6467 2.18926 36.3152C2.3898 36.4656 2.57363 36.6661 2.75746 36.8499C16.2439 50.3197 29.7137 63.7895 43.1835 77.276C43.4342 77.5266 43.7183 77.794 43.8854 78.1116C44.2196 78.7466 43.9522 79.365 43.1501 80C29.0285 79.9833 14.907 79.9833 0.80217 79.9833ZM39.1058 77.3261C26.973 65.1933 14.79 53.027 2.6739 40.9109C2.6739 40.9443 2.6739 41.1616 2.6739 41.3621C2.6739 53.0772 2.6739 64.7922 2.65719 76.5072C2.65719 77.2258 2.85773 77.3428 3.50949 77.3428C15.2078 77.3261 26.8894 77.3261 38.5877 77.3261C38.8217 77.3261 39.0556 77.3261 39.1058 77.3261Z" fill="white"/>
<path d="M17.2783 7.98817C15.9915 7.98817 15.9915 7.98817 15.9915 6.68464C15.9915 5.31427 15.9915 5.31427 17.3786 5.31427C18.6654 5.31427 18.6654 5.31427 18.6654 6.6178C18.6654 7.98817 18.6654 7.98817 17.2783 7.98817Z" fill="white"/>
<path d="M24.0416 6.68484C24.0416 7.98836 24.0416 7.98836 22.7548 7.98836C21.3677 7.98836 21.3677 7.98836 21.3677 6.6347C21.3677 5.33118 21.3677 5.33118 22.6545 5.33118C24.0416 5.33118 24.0416 5.33118 24.0416 6.68484Z" fill="white"/>
<path d="M28.0628 7.98836C26.7091 7.98836 26.7091 7.98836 26.7091 6.61799C26.7091 5.33118 26.7091 5.33118 28.0126 5.33118C29.383 5.33118 29.383 5.33118 29.383 6.71826C29.3663 7.98836 29.3663 7.98836 28.0628 7.98836Z" fill="white"/>
<path d="M16.0342 72.0106C13.9452 72.0106 11.8729 72.0106 9.78393 72.0106C8.4804 72.0106 7.99576 71.526 7.99576 70.2224C7.99576 66.0612 7.99576 61.8999 7.99576 57.7387C7.99576 57.0368 8.11274 56.4184 8.83135 56.1176C9.53325 55.8168 10.068 56.151 10.5694 56.6524C14.8309 60.9306 19.0924 65.1922 23.3707 69.4537C23.872 69.955 24.2063 70.4898 23.9055 71.1917C23.6046 71.8936 22.9863 72.0273 22.3011 72.0273C20.1954 71.9939 18.1064 72.0106 16.0342 72.0106ZM19.2261 69.3367C16.3517 66.4623 13.5107 63.638 10.6697 60.7969C10.6697 63.4876 10.6697 66.2283 10.6697 68.9691C10.6697 69.3033 10.8368 69.3534 11.1042 69.3534C13.8115 69.3367 16.5355 69.3367 19.2261 69.3367Z" fill="white"/>
</svg>
